G04 #@! TF.GenerationSoftware,KiCad,Pcbnew,7.0.1*
G04 #@! TF.CreationDate,2023-04-09T22:51:23+02:00*
G04 #@! TF.ProjectId,t-rex,742d7265-782e-46b6-9963-61645f706362,rev?*
G04 #@! TF.SameCoordinates,Original*
G04 #@! TF.FileFunction,Legend,Top*
G04 #@! TF.FilePolarity,Positive*
%FSLAX46Y46*%
G04 Gerber Fmt 4.6, Leading zero omitted, Abs format (unit mm)*
G04 Created by KiCad (PCBNEW 7.0.1) date 2023-04-09 22:51:23*
%MOMM*%
%LPD*%
G01*
G04 APERTURE LIST*
%ADD10C,0.150000*%
%ADD11C,0.300000*%
%ADD12C,0.120000*%
%ADD13C,0.381000*%
%ADD14R,1.752600X1.752600*%
%ADD15C,1.752600*%
%ADD16R,1.600000X1.600000*%
%ADD17O,1.600000X1.600000*%
%ADD18C,1.750000*%
%ADD19C,3.987800*%
%ADD20R,1.700000X1.700000*%
%ADD21O,1.700000X1.700000*%
%ADD22C,1.800000*%
G04 APERTURE END LIST*
D10*
X60221905Y-41205119D02*
X60221905Y-40205119D01*
X60221905Y-40205119D02*
X60460000Y-40205119D01*
X60460000Y-40205119D02*
X60602857Y-40252738D01*
X60602857Y-40252738D02*
X60698095Y-40347976D01*
X60698095Y-40347976D02*
X60745714Y-40443214D01*
X60745714Y-40443214D02*
X60793333Y-40633690D01*
X60793333Y-40633690D02*
X60793333Y-40776547D01*
X60793333Y-40776547D02*
X60745714Y-40967023D01*
X60745714Y-40967023D02*
X60698095Y-41062261D01*
X60698095Y-41062261D02*
X60602857Y-41157500D01*
X60602857Y-41157500D02*
X60460000Y-41205119D01*
X60460000Y-41205119D02*
X60221905Y-41205119D01*
X61745714Y-41205119D02*
X61174286Y-41205119D01*
X61460000Y-41205119D02*
X61460000Y-40205119D01*
X61460000Y-40205119D02*
X61364762Y-40347976D01*
X61364762Y-40347976D02*
X61269524Y-40443214D01*
X61269524Y-40443214D02*
X61174286Y-40490833D01*
X56888095Y-41525119D02*
X56888095Y-40525119D01*
X57459523Y-41525119D02*
X57030952Y-40953690D01*
X57459523Y-40525119D02*
X56888095Y-41096547D01*
D11*
X125022428Y-76723602D02*
X124877286Y-76651031D01*
X124877286Y-76651031D02*
X124659571Y-76651031D01*
X124659571Y-76651031D02*
X124441857Y-76723602D01*
X124441857Y-76723602D02*
X124296714Y-76868745D01*
X124296714Y-76868745D02*
X124224143Y-77013888D01*
X124224143Y-77013888D02*
X124151571Y-77304174D01*
X124151571Y-77304174D02*
X124151571Y-77521888D01*
X124151571Y-77521888D02*
X124224143Y-77812174D01*
X124224143Y-77812174D02*
X124296714Y-77957317D01*
X124296714Y-77957317D02*
X124441857Y-78102460D01*
X124441857Y-78102460D02*
X124659571Y-78175031D01*
X124659571Y-78175031D02*
X124804714Y-78175031D01*
X124804714Y-78175031D02*
X125022428Y-78102460D01*
X125022428Y-78102460D02*
X125095000Y-78029888D01*
X125095000Y-78029888D02*
X125095000Y-77521888D01*
X125095000Y-77521888D02*
X124804714Y-77521888D01*
X125965857Y-76651031D02*
X125965857Y-77013888D01*
X125603000Y-76868745D02*
X125965857Y-77013888D01*
X125965857Y-77013888D02*
X126328714Y-76868745D01*
X125748143Y-77304174D02*
X125965857Y-77013888D01*
X125965857Y-77013888D02*
X126183571Y-77304174D01*
X127127000Y-76651031D02*
X127127000Y-77013888D01*
X126764143Y-76868745D02*
X127127000Y-77013888D01*
X127127000Y-77013888D02*
X127489857Y-76868745D01*
X126909286Y-77304174D02*
X127127000Y-77013888D01*
X127127000Y-77013888D02*
X127344714Y-77304174D01*
X128288143Y-76651031D02*
X128288143Y-77013888D01*
X127925286Y-76868745D02*
X128288143Y-77013888D01*
X128288143Y-77013888D02*
X128651000Y-76868745D01*
X128070429Y-77304174D02*
X128288143Y-77013888D01*
X128288143Y-77013888D02*
X128505857Y-77304174D01*
D10*
X241039619Y-33726285D02*
X240039619Y-33726285D01*
X240039619Y-33726285D02*
X240039619Y-33488190D01*
X240039619Y-33488190D02*
X240087238Y-33345333D01*
X240087238Y-33345333D02*
X240182476Y-33250095D01*
X240182476Y-33250095D02*
X240277714Y-33202476D01*
X240277714Y-33202476D02*
X240468190Y-33154857D01*
X240468190Y-33154857D02*
X240611047Y-33154857D01*
X240611047Y-33154857D02*
X240801523Y-33202476D01*
X240801523Y-33202476D02*
X240896761Y-33250095D01*
X240896761Y-33250095D02*
X240992000Y-33345333D01*
X240992000Y-33345333D02*
X241039619Y-33488190D01*
X241039619Y-33488190D02*
X241039619Y-33726285D01*
X241039619Y-32202476D02*
X241039619Y-32773904D01*
X241039619Y-32488190D02*
X240039619Y-32488190D01*
X240039619Y-32488190D02*
X240182476Y-32583428D01*
X240182476Y-32583428D02*
X240277714Y-32678666D01*
X240277714Y-32678666D02*
X240325333Y-32773904D01*
X240039619Y-31583428D02*
X240039619Y-31488190D01*
X240039619Y-31488190D02*
X240087238Y-31392952D01*
X240087238Y-31392952D02*
X240134857Y-31345333D01*
X240134857Y-31345333D02*
X240230095Y-31297714D01*
X240230095Y-31297714D02*
X240420571Y-31250095D01*
X240420571Y-31250095D02*
X240658666Y-31250095D01*
X240658666Y-31250095D02*
X240849142Y-31297714D01*
X240849142Y-31297714D02*
X240944380Y-31345333D01*
X240944380Y-31345333D02*
X240992000Y-31392952D01*
X240992000Y-31392952D02*
X241039619Y-31488190D01*
X241039619Y-31488190D02*
X241039619Y-31583428D01*
X241039619Y-31583428D02*
X240992000Y-31678666D01*
X240992000Y-31678666D02*
X240944380Y-31726285D01*
X240944380Y-31726285D02*
X240849142Y-31773904D01*
X240849142Y-31773904D02*
X240658666Y-31821523D01*
X240658666Y-31821523D02*
X240420571Y-31821523D01*
X240420571Y-31821523D02*
X240230095Y-31773904D01*
X240230095Y-31773904D02*
X240134857Y-31726285D01*
X240134857Y-31726285D02*
X240087238Y-31678666D01*
X240087238Y-31678666D02*
X240039619Y-31583428D01*
X241359619Y-36583904D02*
X240359619Y-36583904D01*
X241359619Y-36012476D02*
X240788190Y-36441047D01*
X240359619Y-36012476D02*
X240931047Y-36583904D01*
X47988869Y-43195833D02*
X48703154Y-43195833D01*
X48703154Y-43195833D02*
X48846011Y-43243452D01*
X48846011Y-43243452D02*
X48941250Y-43338690D01*
X48941250Y-43338690D02*
X48988869Y-43481547D01*
X48988869Y-43481547D02*
X48988869Y-43576785D01*
X47988869Y-42529166D02*
X47988869Y-42433928D01*
X47988869Y-42433928D02*
X48036488Y-42338690D01*
X48036488Y-42338690D02*
X48084107Y-42291071D01*
X48084107Y-42291071D02*
X48179345Y-42243452D01*
X48179345Y-42243452D02*
X48369821Y-42195833D01*
X48369821Y-42195833D02*
X48607916Y-42195833D01*
X48607916Y-42195833D02*
X48798392Y-42243452D01*
X48798392Y-42243452D02*
X48893630Y-42291071D01*
X48893630Y-42291071D02*
X48941250Y-42338690D01*
X48941250Y-42338690D02*
X48988869Y-42433928D01*
X48988869Y-42433928D02*
X48988869Y-42529166D01*
X48988869Y-42529166D02*
X48941250Y-42624404D01*
X48941250Y-42624404D02*
X48893630Y-42672023D01*
X48893630Y-42672023D02*
X48798392Y-42719642D01*
X48798392Y-42719642D02*
X48607916Y-42767261D01*
X48607916Y-42767261D02*
X48369821Y-42767261D01*
X48369821Y-42767261D02*
X48179345Y-42719642D01*
X48179345Y-42719642D02*
X48084107Y-42672023D01*
X48084107Y-42672023D02*
X48036488Y-42624404D01*
X48036488Y-42624404D02*
X47988869Y-42529166D01*
X241230119Y-72651785D02*
X240230119Y-72651785D01*
X240230119Y-72651785D02*
X240230119Y-72413690D01*
X240230119Y-72413690D02*
X240277738Y-72270833D01*
X240277738Y-72270833D02*
X240372976Y-72175595D01*
X240372976Y-72175595D02*
X240468214Y-72127976D01*
X240468214Y-72127976D02*
X240658690Y-72080357D01*
X240658690Y-72080357D02*
X240801547Y-72080357D01*
X240801547Y-72080357D02*
X240992023Y-72127976D01*
X240992023Y-72127976D02*
X241087261Y-72175595D01*
X241087261Y-72175595D02*
X241182500Y-72270833D01*
X241182500Y-72270833D02*
X241230119Y-72413690D01*
X241230119Y-72413690D02*
X241230119Y-72651785D01*
X240230119Y-71747023D02*
X240230119Y-71127976D01*
X240230119Y-71127976D02*
X240611071Y-71461309D01*
X240611071Y-71461309D02*
X240611071Y-71318452D01*
X240611071Y-71318452D02*
X240658690Y-71223214D01*
X240658690Y-71223214D02*
X240706309Y-71175595D01*
X240706309Y-71175595D02*
X240801547Y-71127976D01*
X240801547Y-71127976D02*
X241039642Y-71127976D01*
X241039642Y-71127976D02*
X241134880Y-71175595D01*
X241134880Y-71175595D02*
X241182500Y-71223214D01*
X241182500Y-71223214D02*
X241230119Y-71318452D01*
X241230119Y-71318452D02*
X241230119Y-71604166D01*
X241230119Y-71604166D02*
X241182500Y-71699404D01*
X241182500Y-71699404D02*
X241134880Y-71747023D01*
X240563452Y-70270833D02*
X241230119Y-70270833D01*
X240182500Y-70508928D02*
X240896785Y-70747023D01*
X240896785Y-70747023D02*
X240896785Y-70127976D01*
X241550119Y-75509404D02*
X240550119Y-75509404D01*
X241550119Y-74937976D02*
X240978690Y-75366547D01*
X240550119Y-74937976D02*
X241121547Y-75509404D01*
X203130119Y-72651785D02*
X202130119Y-72651785D01*
X202130119Y-72651785D02*
X202130119Y-72413690D01*
X202130119Y-72413690D02*
X202177738Y-72270833D01*
X202177738Y-72270833D02*
X202272976Y-72175595D01*
X202272976Y-72175595D02*
X202368214Y-72127976D01*
X202368214Y-72127976D02*
X202558690Y-72080357D01*
X202558690Y-72080357D02*
X202701547Y-72080357D01*
X202701547Y-72080357D02*
X202892023Y-72127976D01*
X202892023Y-72127976D02*
X202987261Y-72175595D01*
X202987261Y-72175595D02*
X203082500Y-72270833D01*
X203082500Y-72270833D02*
X203130119Y-72413690D01*
X203130119Y-72413690D02*
X203130119Y-72651785D01*
X202130119Y-71747023D02*
X202130119Y-71127976D01*
X202130119Y-71127976D02*
X202511071Y-71461309D01*
X202511071Y-71461309D02*
X202511071Y-71318452D01*
X202511071Y-71318452D02*
X202558690Y-71223214D01*
X202558690Y-71223214D02*
X202606309Y-71175595D01*
X202606309Y-71175595D02*
X202701547Y-71127976D01*
X202701547Y-71127976D02*
X202939642Y-71127976D01*
X202939642Y-71127976D02*
X203034880Y-71175595D01*
X203034880Y-71175595D02*
X203082500Y-71223214D01*
X203082500Y-71223214D02*
X203130119Y-71318452D01*
X203130119Y-71318452D02*
X203130119Y-71604166D01*
X203130119Y-71604166D02*
X203082500Y-71699404D01*
X203082500Y-71699404D02*
X203034880Y-71747023D01*
X202225357Y-70747023D02*
X202177738Y-70699404D01*
X202177738Y-70699404D02*
X202130119Y-70604166D01*
X202130119Y-70604166D02*
X202130119Y-70366071D01*
X202130119Y-70366071D02*
X202177738Y-70270833D01*
X202177738Y-70270833D02*
X202225357Y-70223214D01*
X202225357Y-70223214D02*
X202320595Y-70175595D01*
X202320595Y-70175595D02*
X202415833Y-70175595D01*
X202415833Y-70175595D02*
X202558690Y-70223214D01*
X202558690Y-70223214D02*
X203130119Y-70794642D01*
X203130119Y-70794642D02*
X203130119Y-70175595D01*
X203450119Y-75509404D02*
X202450119Y-75509404D01*
X203450119Y-74937976D02*
X202878690Y-75366547D01*
X202450119Y-74937976D02*
X203021547Y-75509404D01*
X241230119Y-110751785D02*
X240230119Y-110751785D01*
X240230119Y-110751785D02*
X240230119Y-110513690D01*
X240230119Y-110513690D02*
X240277738Y-110370833D01*
X240277738Y-110370833D02*
X240372976Y-110275595D01*
X240372976Y-110275595D02*
X240468214Y-110227976D01*
X240468214Y-110227976D02*
X240658690Y-110180357D01*
X240658690Y-110180357D02*
X240801547Y-110180357D01*
X240801547Y-110180357D02*
X240992023Y-110227976D01*
X240992023Y-110227976D02*
X241087261Y-110275595D01*
X241087261Y-110275595D02*
X241182500Y-110370833D01*
X241182500Y-110370833D02*
X241230119Y-110513690D01*
X241230119Y-110513690D02*
X241230119Y-110751785D01*
X240230119Y-109275595D02*
X240230119Y-109751785D01*
X240230119Y-109751785D02*
X240706309Y-109799404D01*
X240706309Y-109799404D02*
X240658690Y-109751785D01*
X240658690Y-109751785D02*
X240611071Y-109656547D01*
X240611071Y-109656547D02*
X240611071Y-109418452D01*
X240611071Y-109418452D02*
X240658690Y-109323214D01*
X240658690Y-109323214D02*
X240706309Y-109275595D01*
X240706309Y-109275595D02*
X240801547Y-109227976D01*
X240801547Y-109227976D02*
X241039642Y-109227976D01*
X241039642Y-109227976D02*
X241134880Y-109275595D01*
X241134880Y-109275595D02*
X241182500Y-109323214D01*
X241182500Y-109323214D02*
X241230119Y-109418452D01*
X241230119Y-109418452D02*
X241230119Y-109656547D01*
X241230119Y-109656547D02*
X241182500Y-109751785D01*
X241182500Y-109751785D02*
X241134880Y-109799404D01*
X240658690Y-108656547D02*
X240611071Y-108751785D01*
X240611071Y-108751785D02*
X240563452Y-108799404D01*
X240563452Y-108799404D02*
X240468214Y-108847023D01*
X240468214Y-108847023D02*
X240420595Y-108847023D01*
X240420595Y-108847023D02*
X240325357Y-108799404D01*
X240325357Y-108799404D02*
X240277738Y-108751785D01*
X240277738Y-108751785D02*
X240230119Y-108656547D01*
X240230119Y-108656547D02*
X240230119Y-108466071D01*
X240230119Y-108466071D02*
X240277738Y-108370833D01*
X240277738Y-108370833D02*
X240325357Y-108323214D01*
X240325357Y-108323214D02*
X240420595Y-108275595D01*
X240420595Y-108275595D02*
X240468214Y-108275595D01*
X240468214Y-108275595D02*
X240563452Y-108323214D01*
X240563452Y-108323214D02*
X240611071Y-108370833D01*
X240611071Y-108370833D02*
X240658690Y-108466071D01*
X240658690Y-108466071D02*
X240658690Y-108656547D01*
X240658690Y-108656547D02*
X240706309Y-108751785D01*
X240706309Y-108751785D02*
X240753928Y-108799404D01*
X240753928Y-108799404D02*
X240849166Y-108847023D01*
X240849166Y-108847023D02*
X241039642Y-108847023D01*
X241039642Y-108847023D02*
X241134880Y-108799404D01*
X241134880Y-108799404D02*
X241182500Y-108751785D01*
X241182500Y-108751785D02*
X241230119Y-108656547D01*
X241230119Y-108656547D02*
X241230119Y-108466071D01*
X241230119Y-108466071D02*
X241182500Y-108370833D01*
X241182500Y-108370833D02*
X241134880Y-108323214D01*
X241134880Y-108323214D02*
X241039642Y-108275595D01*
X241039642Y-108275595D02*
X240849166Y-108275595D01*
X240849166Y-108275595D02*
X240753928Y-108323214D01*
X240753928Y-108323214D02*
X240706309Y-108370833D01*
X240706309Y-108370833D02*
X240658690Y-108466071D01*
X241550119Y-113609404D02*
X240550119Y-113609404D01*
X241550119Y-113037976D02*
X240978690Y-113466547D01*
X240550119Y-113037976D02*
X241121547Y-113609404D01*
X107880119Y-52808035D02*
X106880119Y-52808035D01*
X106880119Y-52808035D02*
X106880119Y-52569940D01*
X106880119Y-52569940D02*
X106927738Y-52427083D01*
X106927738Y-52427083D02*
X107022976Y-52331845D01*
X107022976Y-52331845D02*
X107118214Y-52284226D01*
X107118214Y-52284226D02*
X107308690Y-52236607D01*
X107308690Y-52236607D02*
X107451547Y-52236607D01*
X107451547Y-52236607D02*
X107642023Y-52284226D01*
X107642023Y-52284226D02*
X107737261Y-52331845D01*
X107737261Y-52331845D02*
X107832500Y-52427083D01*
X107832500Y-52427083D02*
X107880119Y-52569940D01*
X107880119Y-52569940D02*
X107880119Y-52808035D01*
X107880119Y-51284226D02*
X107880119Y-51855654D01*
X107880119Y-51569940D02*
X106880119Y-51569940D01*
X106880119Y-51569940D02*
X107022976Y-51665178D01*
X107022976Y-51665178D02*
X107118214Y-51760416D01*
X107118214Y-51760416D02*
X107165833Y-51855654D01*
X106880119Y-50379464D02*
X106880119Y-50855654D01*
X106880119Y-50855654D02*
X107356309Y-50903273D01*
X107356309Y-50903273D02*
X107308690Y-50855654D01*
X107308690Y-50855654D02*
X107261071Y-50760416D01*
X107261071Y-50760416D02*
X107261071Y-50522321D01*
X107261071Y-50522321D02*
X107308690Y-50427083D01*
X107308690Y-50427083D02*
X107356309Y-50379464D01*
X107356309Y-50379464D02*
X107451547Y-50331845D01*
X107451547Y-50331845D02*
X107689642Y-50331845D01*
X107689642Y-50331845D02*
X107784880Y-50379464D01*
X107784880Y-50379464D02*
X107832500Y-50427083D01*
X107832500Y-50427083D02*
X107880119Y-50522321D01*
X107880119Y-50522321D02*
X107880119Y-50760416D01*
X107880119Y-50760416D02*
X107832500Y-50855654D01*
X107832500Y-50855654D02*
X107784880Y-50903273D01*
X108200119Y-55665654D02*
X107200119Y-55665654D01*
X108200119Y-55094226D02*
X107628690Y-55522797D01*
X107200119Y-55094226D02*
X107771547Y-55665654D01*
X165030119Y-91701785D02*
X164030119Y-91701785D01*
X164030119Y-91701785D02*
X164030119Y-91463690D01*
X164030119Y-91463690D02*
X164077738Y-91320833D01*
X164077738Y-91320833D02*
X164172976Y-91225595D01*
X164172976Y-91225595D02*
X164268214Y-91177976D01*
X164268214Y-91177976D02*
X164458690Y-91130357D01*
X164458690Y-91130357D02*
X164601547Y-91130357D01*
X164601547Y-91130357D02*
X164792023Y-91177976D01*
X164792023Y-91177976D02*
X164887261Y-91225595D01*
X164887261Y-91225595D02*
X164982500Y-91320833D01*
X164982500Y-91320833D02*
X165030119Y-91463690D01*
X165030119Y-91463690D02*
X165030119Y-91701785D01*
X164363452Y-90273214D02*
X165030119Y-90273214D01*
X163982500Y-90511309D02*
X164696785Y-90749404D01*
X164696785Y-90749404D02*
X164696785Y-90130357D01*
X164125357Y-89797023D02*
X164077738Y-89749404D01*
X164077738Y-89749404D02*
X164030119Y-89654166D01*
X164030119Y-89654166D02*
X164030119Y-89416071D01*
X164030119Y-89416071D02*
X164077738Y-89320833D01*
X164077738Y-89320833D02*
X164125357Y-89273214D01*
X164125357Y-89273214D02*
X164220595Y-89225595D01*
X164220595Y-89225595D02*
X164315833Y-89225595D01*
X164315833Y-89225595D02*
X164458690Y-89273214D01*
X164458690Y-89273214D02*
X165030119Y-89844642D01*
X165030119Y-89844642D02*
X165030119Y-89225595D01*
X165350119Y-94559404D02*
X164350119Y-94559404D01*
X165350119Y-93987976D02*
X164778690Y-94416547D01*
X164350119Y-93987976D02*
X164921547Y-94559404D01*
X145980119Y-91701785D02*
X144980119Y-91701785D01*
X144980119Y-91701785D02*
X144980119Y-91463690D01*
X144980119Y-91463690D02*
X145027738Y-91320833D01*
X145027738Y-91320833D02*
X145122976Y-91225595D01*
X145122976Y-91225595D02*
X145218214Y-91177976D01*
X145218214Y-91177976D02*
X145408690Y-91130357D01*
X145408690Y-91130357D02*
X145551547Y-91130357D01*
X145551547Y-91130357D02*
X145742023Y-91177976D01*
X145742023Y-91177976D02*
X145837261Y-91225595D01*
X145837261Y-91225595D02*
X145932500Y-91320833D01*
X145932500Y-91320833D02*
X145980119Y-91463690D01*
X145980119Y-91463690D02*
X145980119Y-91701785D01*
X145313452Y-90273214D02*
X145980119Y-90273214D01*
X144932500Y-90511309D02*
X145646785Y-90749404D01*
X145646785Y-90749404D02*
X145646785Y-90130357D01*
X145980119Y-89225595D02*
X145980119Y-89797023D01*
X145980119Y-89511309D02*
X144980119Y-89511309D01*
X144980119Y-89511309D02*
X145122976Y-89606547D01*
X145122976Y-89606547D02*
X145218214Y-89701785D01*
X145218214Y-89701785D02*
X145265833Y-89797023D01*
X146300119Y-94559404D02*
X145300119Y-94559404D01*
X146300119Y-93987976D02*
X145728690Y-94416547D01*
X145300119Y-93987976D02*
X145871547Y-94559404D01*
X107880119Y-33281844D02*
X106880119Y-33281844D01*
X106880119Y-33281844D02*
X106880119Y-33043749D01*
X106880119Y-33043749D02*
X106927738Y-32900892D01*
X106927738Y-32900892D02*
X107022976Y-32805654D01*
X107022976Y-32805654D02*
X107118214Y-32758035D01*
X107118214Y-32758035D02*
X107308690Y-32710416D01*
X107308690Y-32710416D02*
X107451547Y-32710416D01*
X107451547Y-32710416D02*
X107642023Y-32758035D01*
X107642023Y-32758035D02*
X107737261Y-32805654D01*
X107737261Y-32805654D02*
X107832500Y-32900892D01*
X107832500Y-32900892D02*
X107880119Y-33043749D01*
X107880119Y-33043749D02*
X107880119Y-33281844D01*
X106880119Y-32377082D02*
X106880119Y-31758035D01*
X106880119Y-31758035D02*
X107261071Y-32091368D01*
X107261071Y-32091368D02*
X107261071Y-31948511D01*
X107261071Y-31948511D02*
X107308690Y-31853273D01*
X107308690Y-31853273D02*
X107356309Y-31805654D01*
X107356309Y-31805654D02*
X107451547Y-31758035D01*
X107451547Y-31758035D02*
X107689642Y-31758035D01*
X107689642Y-31758035D02*
X107784880Y-31805654D01*
X107784880Y-31805654D02*
X107832500Y-31853273D01*
X107832500Y-31853273D02*
X107880119Y-31948511D01*
X107880119Y-31948511D02*
X107880119Y-32234225D01*
X107880119Y-32234225D02*
X107832500Y-32329463D01*
X107832500Y-32329463D02*
X107784880Y-32377082D01*
X108200119Y-36615654D02*
X107200119Y-36615654D01*
X108200119Y-36044226D02*
X107628690Y-36472797D01*
X107200119Y-36044226D02*
X107771547Y-36615654D01*
X126930119Y-91701785D02*
X125930119Y-91701785D01*
X125930119Y-91701785D02*
X125930119Y-91463690D01*
X125930119Y-91463690D02*
X125977738Y-91320833D01*
X125977738Y-91320833D02*
X126072976Y-91225595D01*
X126072976Y-91225595D02*
X126168214Y-91177976D01*
X126168214Y-91177976D02*
X126358690Y-91130357D01*
X126358690Y-91130357D02*
X126501547Y-91130357D01*
X126501547Y-91130357D02*
X126692023Y-91177976D01*
X126692023Y-91177976D02*
X126787261Y-91225595D01*
X126787261Y-91225595D02*
X126882500Y-91320833D01*
X126882500Y-91320833D02*
X126930119Y-91463690D01*
X126930119Y-91463690D02*
X126930119Y-91701785D01*
X126263452Y-90273214D02*
X126930119Y-90273214D01*
X125882500Y-90511309D02*
X126596785Y-90749404D01*
X126596785Y-90749404D02*
X126596785Y-90130357D01*
X125930119Y-89558928D02*
X125930119Y-89463690D01*
X125930119Y-89463690D02*
X125977738Y-89368452D01*
X125977738Y-89368452D02*
X126025357Y-89320833D01*
X126025357Y-89320833D02*
X126120595Y-89273214D01*
X126120595Y-89273214D02*
X126311071Y-89225595D01*
X126311071Y-89225595D02*
X126549166Y-89225595D01*
X126549166Y-89225595D02*
X126739642Y-89273214D01*
X126739642Y-89273214D02*
X126834880Y-89320833D01*
X126834880Y-89320833D02*
X126882500Y-89368452D01*
X126882500Y-89368452D02*
X126930119Y-89463690D01*
X126930119Y-89463690D02*
X126930119Y-89558928D01*
X126930119Y-89558928D02*
X126882500Y-89654166D01*
X126882500Y-89654166D02*
X126834880Y-89701785D01*
X126834880Y-89701785D02*
X126739642Y-89749404D01*
X126739642Y-89749404D02*
X126549166Y-89797023D01*
X126549166Y-89797023D02*
X126311071Y-89797023D01*
X126311071Y-89797023D02*
X126120595Y-89749404D01*
X126120595Y-89749404D02*
X126025357Y-89701785D01*
X126025357Y-89701785D02*
X125977738Y-89654166D01*
X125977738Y-89654166D02*
X125930119Y-89558928D01*
X127250119Y-94559404D02*
X126250119Y-94559404D01*
X127250119Y-93987976D02*
X126678690Y-94416547D01*
X126250119Y-93987976D02*
X126821547Y-94559404D01*
X126930119Y-110751785D02*
X125930119Y-110751785D01*
X125930119Y-110751785D02*
X125930119Y-110513690D01*
X125930119Y-110513690D02*
X125977738Y-110370833D01*
X125977738Y-110370833D02*
X126072976Y-110275595D01*
X126072976Y-110275595D02*
X126168214Y-110227976D01*
X126168214Y-110227976D02*
X126358690Y-110180357D01*
X126358690Y-110180357D02*
X126501547Y-110180357D01*
X126501547Y-110180357D02*
X126692023Y-110227976D01*
X126692023Y-110227976D02*
X126787261Y-110275595D01*
X126787261Y-110275595D02*
X126882500Y-110370833D01*
X126882500Y-110370833D02*
X126930119Y-110513690D01*
X126930119Y-110513690D02*
X126930119Y-110751785D01*
X125930119Y-109275595D02*
X125930119Y-109751785D01*
X125930119Y-109751785D02*
X126406309Y-109799404D01*
X126406309Y-109799404D02*
X126358690Y-109751785D01*
X126358690Y-109751785D02*
X126311071Y-109656547D01*
X126311071Y-109656547D02*
X126311071Y-109418452D01*
X126311071Y-109418452D02*
X126358690Y-109323214D01*
X126358690Y-109323214D02*
X126406309Y-109275595D01*
X126406309Y-109275595D02*
X126501547Y-109227976D01*
X126501547Y-109227976D02*
X126739642Y-109227976D01*
X126739642Y-109227976D02*
X126834880Y-109275595D01*
X126834880Y-109275595D02*
X126882500Y-109323214D01*
X126882500Y-109323214D02*
X126930119Y-109418452D01*
X126930119Y-109418452D02*
X126930119Y-109656547D01*
X126930119Y-109656547D02*
X126882500Y-109751785D01*
X126882500Y-109751785D02*
X126834880Y-109799404D01*
X126025357Y-108847023D02*
X125977738Y-108799404D01*
X125977738Y-108799404D02*
X125930119Y-108704166D01*
X125930119Y-108704166D02*
X125930119Y-108466071D01*
X125930119Y-108466071D02*
X125977738Y-108370833D01*
X125977738Y-108370833D02*
X126025357Y-108323214D01*
X126025357Y-108323214D02*
X126120595Y-108275595D01*
X126120595Y-108275595D02*
X126215833Y-108275595D01*
X126215833Y-108275595D02*
X126358690Y-108323214D01*
X126358690Y-108323214D02*
X126930119Y-108894642D01*
X126930119Y-108894642D02*
X126930119Y-108275595D01*
X127250119Y-113609404D02*
X126250119Y-113609404D01*
X127250119Y-113037976D02*
X126678690Y-113466547D01*
X126250119Y-113037976D02*
X126821547Y-113609404D01*
X184080119Y-110751785D02*
X183080119Y-110751785D01*
X183080119Y-110751785D02*
X183080119Y-110513690D01*
X183080119Y-110513690D02*
X183127738Y-110370833D01*
X183127738Y-110370833D02*
X183222976Y-110275595D01*
X183222976Y-110275595D02*
X183318214Y-110227976D01*
X183318214Y-110227976D02*
X183508690Y-110180357D01*
X183508690Y-110180357D02*
X183651547Y-110180357D01*
X183651547Y-110180357D02*
X183842023Y-110227976D01*
X183842023Y-110227976D02*
X183937261Y-110275595D01*
X183937261Y-110275595D02*
X184032500Y-110370833D01*
X184032500Y-110370833D02*
X184080119Y-110513690D01*
X184080119Y-110513690D02*
X184080119Y-110751785D01*
X183080119Y-109275595D02*
X183080119Y-109751785D01*
X183080119Y-109751785D02*
X183556309Y-109799404D01*
X183556309Y-109799404D02*
X183508690Y-109751785D01*
X183508690Y-109751785D02*
X183461071Y-109656547D01*
X183461071Y-109656547D02*
X183461071Y-109418452D01*
X183461071Y-109418452D02*
X183508690Y-109323214D01*
X183508690Y-109323214D02*
X183556309Y-109275595D01*
X183556309Y-109275595D02*
X183651547Y-109227976D01*
X183651547Y-109227976D02*
X183889642Y-109227976D01*
X183889642Y-109227976D02*
X183984880Y-109275595D01*
X183984880Y-109275595D02*
X184032500Y-109323214D01*
X184032500Y-109323214D02*
X184080119Y-109418452D01*
X184080119Y-109418452D02*
X184080119Y-109656547D01*
X184080119Y-109656547D02*
X184032500Y-109751785D01*
X184032500Y-109751785D02*
X183984880Y-109799404D01*
X183080119Y-108323214D02*
X183080119Y-108799404D01*
X183080119Y-108799404D02*
X183556309Y-108847023D01*
X183556309Y-108847023D02*
X183508690Y-108799404D01*
X183508690Y-108799404D02*
X183461071Y-108704166D01*
X183461071Y-108704166D02*
X183461071Y-108466071D01*
X183461071Y-108466071D02*
X183508690Y-108370833D01*
X183508690Y-108370833D02*
X183556309Y-108323214D01*
X183556309Y-108323214D02*
X183651547Y-108275595D01*
X183651547Y-108275595D02*
X183889642Y-108275595D01*
X183889642Y-108275595D02*
X183984880Y-108323214D01*
X183984880Y-108323214D02*
X184032500Y-108370833D01*
X184032500Y-108370833D02*
X184080119Y-108466071D01*
X184080119Y-108466071D02*
X184080119Y-108704166D01*
X184080119Y-108704166D02*
X184032500Y-108799404D01*
X184032500Y-108799404D02*
X183984880Y-108847023D01*
X184400119Y-113609404D02*
X183400119Y-113609404D01*
X184400119Y-113037976D02*
X183828690Y-113466547D01*
X183400119Y-113037976D02*
X183971547Y-113609404D01*
X222180119Y-33281844D02*
X221180119Y-33281844D01*
X221180119Y-33281844D02*
X221180119Y-33043749D01*
X221180119Y-33043749D02*
X221227738Y-32900892D01*
X221227738Y-32900892D02*
X221322976Y-32805654D01*
X221322976Y-32805654D02*
X221418214Y-32758035D01*
X221418214Y-32758035D02*
X221608690Y-32710416D01*
X221608690Y-32710416D02*
X221751547Y-32710416D01*
X221751547Y-32710416D02*
X221942023Y-32758035D01*
X221942023Y-32758035D02*
X222037261Y-32805654D01*
X222037261Y-32805654D02*
X222132500Y-32900892D01*
X222132500Y-32900892D02*
X222180119Y-33043749D01*
X222180119Y-33043749D02*
X222180119Y-33281844D01*
X222180119Y-32234225D02*
X222180119Y-32043749D01*
X222180119Y-32043749D02*
X222132500Y-31948511D01*
X222132500Y-31948511D02*
X222084880Y-31900892D01*
X222084880Y-31900892D02*
X221942023Y-31805654D01*
X221942023Y-31805654D02*
X221751547Y-31758035D01*
X221751547Y-31758035D02*
X221370595Y-31758035D01*
X221370595Y-31758035D02*
X221275357Y-31805654D01*
X221275357Y-31805654D02*
X221227738Y-31853273D01*
X221227738Y-31853273D02*
X221180119Y-31948511D01*
X221180119Y-31948511D02*
X221180119Y-32138987D01*
X221180119Y-32138987D02*
X221227738Y-32234225D01*
X221227738Y-32234225D02*
X221275357Y-32281844D01*
X221275357Y-32281844D02*
X221370595Y-32329463D01*
X221370595Y-32329463D02*
X221608690Y-32329463D01*
X221608690Y-32329463D02*
X221703928Y-32281844D01*
X221703928Y-32281844D02*
X221751547Y-32234225D01*
X221751547Y-32234225D02*
X221799166Y-32138987D01*
X221799166Y-32138987D02*
X221799166Y-31948511D01*
X221799166Y-31948511D02*
X221751547Y-31853273D01*
X221751547Y-31853273D02*
X221703928Y-31805654D01*
X221703928Y-31805654D02*
X221608690Y-31758035D01*
X222500119Y-36615654D02*
X221500119Y-36615654D01*
X222500119Y-36044226D02*
X221928690Y-36472797D01*
X221500119Y-36044226D02*
X222071547Y-36615654D01*
X250404464Y-98355119D02*
X250404464Y-97355119D01*
X250404464Y-97355119D02*
X250642559Y-97355119D01*
X250642559Y-97355119D02*
X250785416Y-97402738D01*
X250785416Y-97402738D02*
X250880654Y-97497976D01*
X250880654Y-97497976D02*
X250928273Y-97593214D01*
X250928273Y-97593214D02*
X250975892Y-97783690D01*
X250975892Y-97783690D02*
X250975892Y-97926547D01*
X250975892Y-97926547D02*
X250928273Y-98117023D01*
X250928273Y-98117023D02*
X250880654Y-98212261D01*
X250880654Y-98212261D02*
X250785416Y-98307500D01*
X250785416Y-98307500D02*
X250642559Y-98355119D01*
X250642559Y-98355119D02*
X250404464Y-98355119D01*
X251880654Y-97355119D02*
X251404464Y-97355119D01*
X251404464Y-97355119D02*
X251356845Y-97831309D01*
X251356845Y-97831309D02*
X251404464Y-97783690D01*
X251404464Y-97783690D02*
X251499702Y-97736071D01*
X251499702Y-97736071D02*
X251737797Y-97736071D01*
X251737797Y-97736071D02*
X251833035Y-97783690D01*
X251833035Y-97783690D02*
X251880654Y-97831309D01*
X251880654Y-97831309D02*
X251928273Y-97926547D01*
X251928273Y-97926547D02*
X251928273Y-98164642D01*
X251928273Y-98164642D02*
X251880654Y-98259880D01*
X251880654Y-98259880D02*
X251833035Y-98307500D01*
X251833035Y-98307500D02*
X251737797Y-98355119D01*
X251737797Y-98355119D02*
X251499702Y-98355119D01*
X251499702Y-98355119D02*
X251404464Y-98307500D01*
X251404464Y-98307500D02*
X251356845Y-98259880D01*
X252404464Y-98355119D02*
X252594940Y-98355119D01*
X252594940Y-98355119D02*
X252690178Y-98307500D01*
X252690178Y-98307500D02*
X252737797Y-98259880D01*
X252737797Y-98259880D02*
X252833035Y-98117023D01*
X252833035Y-98117023D02*
X252880654Y-97926547D01*
X252880654Y-97926547D02*
X252880654Y-97545595D01*
X252880654Y-97545595D02*
X252833035Y-97450357D01*
X252833035Y-97450357D02*
X252785416Y-97402738D01*
X252785416Y-97402738D02*
X252690178Y-97355119D01*
X252690178Y-97355119D02*
X252499702Y-97355119D01*
X252499702Y-97355119D02*
X252404464Y-97402738D01*
X252404464Y-97402738D02*
X252356845Y-97450357D01*
X252356845Y-97450357D02*
X252309226Y-97545595D01*
X252309226Y-97545595D02*
X252309226Y-97783690D01*
X252309226Y-97783690D02*
X252356845Y-97878928D01*
X252356845Y-97878928D02*
X252404464Y-97926547D01*
X252404464Y-97926547D02*
X252499702Y-97974166D01*
X252499702Y-97974166D02*
X252690178Y-97974166D01*
X252690178Y-97974166D02*
X252785416Y-97926547D01*
X252785416Y-97926547D02*
X252833035Y-97878928D01*
X252833035Y-97878928D02*
X252880654Y-97783690D01*
X247546845Y-98675119D02*
X247546845Y-97675119D01*
X248118273Y-98675119D02*
X247689702Y-98103690D01*
X248118273Y-97675119D02*
X247546845Y-98246547D01*
X69780119Y-110751785D02*
X68780119Y-110751785D01*
X68780119Y-110751785D02*
X68780119Y-110513690D01*
X68780119Y-110513690D02*
X68827738Y-110370833D01*
X68827738Y-110370833D02*
X68922976Y-110275595D01*
X68922976Y-110275595D02*
X69018214Y-110227976D01*
X69018214Y-110227976D02*
X69208690Y-110180357D01*
X69208690Y-110180357D02*
X69351547Y-110180357D01*
X69351547Y-110180357D02*
X69542023Y-110227976D01*
X69542023Y-110227976D02*
X69637261Y-110275595D01*
X69637261Y-110275595D02*
X69732500Y-110370833D01*
X69732500Y-110370833D02*
X69780119Y-110513690D01*
X69780119Y-110513690D02*
X69780119Y-110751785D01*
X69113452Y-109323214D02*
X69780119Y-109323214D01*
X68732500Y-109561309D02*
X69446785Y-109799404D01*
X69446785Y-109799404D02*
X69446785Y-109180357D01*
X69780119Y-108751785D02*
X69780119Y-108561309D01*
X69780119Y-108561309D02*
X69732500Y-108466071D01*
X69732500Y-108466071D02*
X69684880Y-108418452D01*
X69684880Y-108418452D02*
X69542023Y-108323214D01*
X69542023Y-108323214D02*
X69351547Y-108275595D01*
X69351547Y-108275595D02*
X68970595Y-108275595D01*
X68970595Y-108275595D02*
X68875357Y-108323214D01*
X68875357Y-108323214D02*
X68827738Y-108370833D01*
X68827738Y-108370833D02*
X68780119Y-108466071D01*
X68780119Y-108466071D02*
X68780119Y-108656547D01*
X68780119Y-108656547D02*
X68827738Y-108751785D01*
X68827738Y-108751785D02*
X68875357Y-108799404D01*
X68875357Y-108799404D02*
X68970595Y-108847023D01*
X68970595Y-108847023D02*
X69208690Y-108847023D01*
X69208690Y-108847023D02*
X69303928Y-108799404D01*
X69303928Y-108799404D02*
X69351547Y-108751785D01*
X69351547Y-108751785D02*
X69399166Y-108656547D01*
X69399166Y-108656547D02*
X69399166Y-108466071D01*
X69399166Y-108466071D02*
X69351547Y-108370833D01*
X69351547Y-108370833D02*
X69303928Y-108323214D01*
X69303928Y-108323214D02*
X69208690Y-108275595D01*
X70100119Y-113609404D02*
X69100119Y-113609404D01*
X70100119Y-113037976D02*
X69528690Y-113466547D01*
X69100119Y-113037976D02*
X69671547Y-113609404D01*
X203130119Y-91701785D02*
X202130119Y-91701785D01*
X202130119Y-91701785D02*
X202130119Y-91463690D01*
X202130119Y-91463690D02*
X202177738Y-91320833D01*
X202177738Y-91320833D02*
X202272976Y-91225595D01*
X202272976Y-91225595D02*
X202368214Y-91177976D01*
X202368214Y-91177976D02*
X202558690Y-91130357D01*
X202558690Y-91130357D02*
X202701547Y-91130357D01*
X202701547Y-91130357D02*
X202892023Y-91177976D01*
X202892023Y-91177976D02*
X202987261Y-91225595D01*
X202987261Y-91225595D02*
X203082500Y-91320833D01*
X203082500Y-91320833D02*
X203130119Y-91463690D01*
X203130119Y-91463690D02*
X203130119Y-91701785D01*
X202463452Y-90273214D02*
X203130119Y-90273214D01*
X202082500Y-90511309D02*
X202796785Y-90749404D01*
X202796785Y-90749404D02*
X202796785Y-90130357D01*
X202463452Y-89320833D02*
X203130119Y-89320833D01*
X202082500Y-89558928D02*
X202796785Y-89797023D01*
X202796785Y-89797023D02*
X202796785Y-89177976D01*
X203450119Y-94559404D02*
X202450119Y-94559404D01*
X203450119Y-93987976D02*
X202878690Y-94416547D01*
X202450119Y-93987976D02*
X203021547Y-94559404D01*
X69780119Y-91701785D02*
X68780119Y-91701785D01*
X68780119Y-91701785D02*
X68780119Y-91463690D01*
X68780119Y-91463690D02*
X68827738Y-91320833D01*
X68827738Y-91320833D02*
X68922976Y-91225595D01*
X68922976Y-91225595D02*
X69018214Y-91177976D01*
X69018214Y-91177976D02*
X69208690Y-91130357D01*
X69208690Y-91130357D02*
X69351547Y-91130357D01*
X69351547Y-91130357D02*
X69542023Y-91177976D01*
X69542023Y-91177976D02*
X69637261Y-91225595D01*
X69637261Y-91225595D02*
X69732500Y-91320833D01*
X69732500Y-91320833D02*
X69780119Y-91463690D01*
X69780119Y-91463690D02*
X69780119Y-91701785D01*
X68780119Y-90797023D02*
X68780119Y-90177976D01*
X68780119Y-90177976D02*
X69161071Y-90511309D01*
X69161071Y-90511309D02*
X69161071Y-90368452D01*
X69161071Y-90368452D02*
X69208690Y-90273214D01*
X69208690Y-90273214D02*
X69256309Y-90225595D01*
X69256309Y-90225595D02*
X69351547Y-90177976D01*
X69351547Y-90177976D02*
X69589642Y-90177976D01*
X69589642Y-90177976D02*
X69684880Y-90225595D01*
X69684880Y-90225595D02*
X69732500Y-90273214D01*
X69732500Y-90273214D02*
X69780119Y-90368452D01*
X69780119Y-90368452D02*
X69780119Y-90654166D01*
X69780119Y-90654166D02*
X69732500Y-90749404D01*
X69732500Y-90749404D02*
X69684880Y-90797023D01*
X68780119Y-89844642D02*
X68780119Y-89177976D01*
X68780119Y-89177976D02*
X69780119Y-89606547D01*
X70100119Y-94559404D02*
X69100119Y-94559404D01*
X70100119Y-93987976D02*
X69528690Y-94416547D01*
X69100119Y-93987976D02*
X69671547Y-94559404D01*
X184080119Y-72651785D02*
X183080119Y-72651785D01*
X183080119Y-72651785D02*
X183080119Y-72413690D01*
X183080119Y-72413690D02*
X183127738Y-72270833D01*
X183127738Y-72270833D02*
X183222976Y-72175595D01*
X183222976Y-72175595D02*
X183318214Y-72127976D01*
X183318214Y-72127976D02*
X183508690Y-72080357D01*
X183508690Y-72080357D02*
X183651547Y-72080357D01*
X183651547Y-72080357D02*
X183842023Y-72127976D01*
X183842023Y-72127976D02*
X183937261Y-72175595D01*
X183937261Y-72175595D02*
X184032500Y-72270833D01*
X184032500Y-72270833D02*
X184080119Y-72413690D01*
X184080119Y-72413690D02*
X184080119Y-72651785D01*
X183080119Y-71747023D02*
X183080119Y-71127976D01*
X183080119Y-71127976D02*
X183461071Y-71461309D01*
X183461071Y-71461309D02*
X183461071Y-71318452D01*
X183461071Y-71318452D02*
X183508690Y-71223214D01*
X183508690Y-71223214D02*
X183556309Y-71175595D01*
X183556309Y-71175595D02*
X183651547Y-71127976D01*
X183651547Y-71127976D02*
X183889642Y-71127976D01*
X183889642Y-71127976D02*
X183984880Y-71175595D01*
X183984880Y-71175595D02*
X184032500Y-71223214D01*
X184032500Y-71223214D02*
X184080119Y-71318452D01*
X184080119Y-71318452D02*
X184080119Y-71604166D01*
X184080119Y-71604166D02*
X184032500Y-71699404D01*
X184032500Y-71699404D02*
X183984880Y-71747023D01*
X184080119Y-70175595D02*
X184080119Y-70747023D01*
X184080119Y-70461309D02*
X183080119Y-70461309D01*
X183080119Y-70461309D02*
X183222976Y-70556547D01*
X183222976Y-70556547D02*
X183318214Y-70651785D01*
X183318214Y-70651785D02*
X183365833Y-70747023D01*
X184400119Y-75509404D02*
X183400119Y-75509404D01*
X184400119Y-74937976D02*
X183828690Y-75366547D01*
X183400119Y-74937976D02*
X183971547Y-75509404D01*
X145980119Y-33281844D02*
X144980119Y-33281844D01*
X144980119Y-33281844D02*
X144980119Y-33043749D01*
X144980119Y-33043749D02*
X145027738Y-32900892D01*
X145027738Y-32900892D02*
X145122976Y-32805654D01*
X145122976Y-32805654D02*
X145218214Y-32758035D01*
X145218214Y-32758035D02*
X145408690Y-32710416D01*
X145408690Y-32710416D02*
X145551547Y-32710416D01*
X145551547Y-32710416D02*
X145742023Y-32758035D01*
X145742023Y-32758035D02*
X145837261Y-32805654D01*
X145837261Y-32805654D02*
X145932500Y-32900892D01*
X145932500Y-32900892D02*
X145980119Y-33043749D01*
X145980119Y-33043749D02*
X145980119Y-33281844D01*
X144980119Y-31805654D02*
X144980119Y-32281844D01*
X144980119Y-32281844D02*
X145456309Y-32329463D01*
X145456309Y-32329463D02*
X145408690Y-32281844D01*
X145408690Y-32281844D02*
X145361071Y-32186606D01*
X145361071Y-32186606D02*
X145361071Y-31948511D01*
X145361071Y-31948511D02*
X145408690Y-31853273D01*
X145408690Y-31853273D02*
X145456309Y-31805654D01*
X145456309Y-31805654D02*
X145551547Y-31758035D01*
X145551547Y-31758035D02*
X145789642Y-31758035D01*
X145789642Y-31758035D02*
X145884880Y-31805654D01*
X145884880Y-31805654D02*
X145932500Y-31853273D01*
X145932500Y-31853273D02*
X145980119Y-31948511D01*
X145980119Y-31948511D02*
X145980119Y-32186606D01*
X145980119Y-32186606D02*
X145932500Y-32281844D01*
X145932500Y-32281844D02*
X145884880Y-32329463D01*
X146300119Y-36615654D02*
X145300119Y-36615654D01*
X146300119Y-36044226D02*
X145728690Y-36472797D01*
X145300119Y-36044226D02*
X145871547Y-36615654D01*
X203130119Y-33281844D02*
X202130119Y-33281844D01*
X202130119Y-33281844D02*
X202130119Y-33043749D01*
X202130119Y-33043749D02*
X202177738Y-32900892D01*
X202177738Y-32900892D02*
X202272976Y-32805654D01*
X202272976Y-32805654D02*
X202368214Y-32758035D01*
X202368214Y-32758035D02*
X202558690Y-32710416D01*
X202558690Y-32710416D02*
X202701547Y-32710416D01*
X202701547Y-32710416D02*
X202892023Y-32758035D01*
X202892023Y-32758035D02*
X202987261Y-32805654D01*
X202987261Y-32805654D02*
X203082500Y-32900892D01*
X203082500Y-32900892D02*
X203130119Y-33043749D01*
X203130119Y-33043749D02*
X203130119Y-33281844D01*
X202558690Y-32138987D02*
X202511071Y-32234225D01*
X202511071Y-32234225D02*
X202463452Y-32281844D01*
X202463452Y-32281844D02*
X202368214Y-32329463D01*
X202368214Y-32329463D02*
X202320595Y-32329463D01*
X202320595Y-32329463D02*
X202225357Y-32281844D01*
X202225357Y-32281844D02*
X202177738Y-32234225D01*
X202177738Y-32234225D02*
X202130119Y-32138987D01*
X202130119Y-32138987D02*
X202130119Y-31948511D01*
X202130119Y-31948511D02*
X202177738Y-31853273D01*
X202177738Y-31853273D02*
X202225357Y-31805654D01*
X202225357Y-31805654D02*
X202320595Y-31758035D01*
X202320595Y-31758035D02*
X202368214Y-31758035D01*
X202368214Y-31758035D02*
X202463452Y-31805654D01*
X202463452Y-31805654D02*
X202511071Y-31853273D01*
X202511071Y-31853273D02*
X202558690Y-31948511D01*
X202558690Y-31948511D02*
X202558690Y-32138987D01*
X202558690Y-32138987D02*
X202606309Y-32234225D01*
X202606309Y-32234225D02*
X202653928Y-32281844D01*
X202653928Y-32281844D02*
X202749166Y-32329463D01*
X202749166Y-32329463D02*
X202939642Y-32329463D01*
X202939642Y-32329463D02*
X203034880Y-32281844D01*
X203034880Y-32281844D02*
X203082500Y-32234225D01*
X203082500Y-32234225D02*
X203130119Y-32138987D01*
X203130119Y-32138987D02*
X203130119Y-31948511D01*
X203130119Y-31948511D02*
X203082500Y-31853273D01*
X203082500Y-31853273D02*
X203034880Y-31805654D01*
X203034880Y-31805654D02*
X202939642Y-31758035D01*
X202939642Y-31758035D02*
X202749166Y-31758035D01*
X202749166Y-31758035D02*
X202653928Y-31805654D01*
X202653928Y-31805654D02*
X202606309Y-31853273D01*
X202606309Y-31853273D02*
X202558690Y-31948511D01*
X203450119Y-36615654D02*
X202450119Y-36615654D01*
X203450119Y-36044226D02*
X202878690Y-36472797D01*
X202450119Y-36044226D02*
X203021547Y-36615654D01*
X65301964Y-60255119D02*
X65301964Y-59255119D01*
X65301964Y-59255119D02*
X65540059Y-59255119D01*
X65540059Y-59255119D02*
X65682916Y-59302738D01*
X65682916Y-59302738D02*
X65778154Y-59397976D01*
X65778154Y-59397976D02*
X65825773Y-59493214D01*
X65825773Y-59493214D02*
X65873392Y-59683690D01*
X65873392Y-59683690D02*
X65873392Y-59826547D01*
X65873392Y-59826547D02*
X65825773Y-60017023D01*
X65825773Y-60017023D02*
X65778154Y-60112261D01*
X65778154Y-60112261D02*
X65682916Y-60207500D01*
X65682916Y-60207500D02*
X65540059Y-60255119D01*
X65540059Y-60255119D02*
X65301964Y-60255119D01*
X66825773Y-60255119D02*
X66254345Y-60255119D01*
X66540059Y-60255119D02*
X66540059Y-59255119D01*
X66540059Y-59255119D02*
X66444821Y-59397976D01*
X66444821Y-59397976D02*
X66349583Y-59493214D01*
X66349583Y-59493214D02*
X66254345Y-59540833D01*
X67159107Y-59255119D02*
X67778154Y-59255119D01*
X67778154Y-59255119D02*
X67444821Y-59636071D01*
X67444821Y-59636071D02*
X67587678Y-59636071D01*
X67587678Y-59636071D02*
X67682916Y-59683690D01*
X67682916Y-59683690D02*
X67730535Y-59731309D01*
X67730535Y-59731309D02*
X67778154Y-59826547D01*
X67778154Y-59826547D02*
X67778154Y-60064642D01*
X67778154Y-60064642D02*
X67730535Y-60159880D01*
X67730535Y-60159880D02*
X67682916Y-60207500D01*
X67682916Y-60207500D02*
X67587678Y-60255119D01*
X67587678Y-60255119D02*
X67301964Y-60255119D01*
X67301964Y-60255119D02*
X67206726Y-60207500D01*
X67206726Y-60207500D02*
X67159107Y-60159880D01*
X62444345Y-60575119D02*
X62444345Y-59575119D01*
X63015773Y-60575119D02*
X62587202Y-60003690D01*
X63015773Y-59575119D02*
X62444345Y-60146547D01*
X230941714Y-96894619D02*
X230941714Y-95894619D01*
X230941714Y-95894619D02*
X231179809Y-95894619D01*
X231179809Y-95894619D02*
X231322666Y-95942238D01*
X231322666Y-95942238D02*
X231417904Y-96037476D01*
X231417904Y-96037476D02*
X231465523Y-96132714D01*
X231465523Y-96132714D02*
X231513142Y-96323190D01*
X231513142Y-96323190D02*
X231513142Y-96466047D01*
X231513142Y-96466047D02*
X231465523Y-96656523D01*
X231465523Y-96656523D02*
X231417904Y-96751761D01*
X231417904Y-96751761D02*
X231322666Y-96847000D01*
X231322666Y-96847000D02*
X231179809Y-96894619D01*
X231179809Y-96894619D02*
X230941714Y-96894619D01*
X232370285Y-96227952D02*
X232370285Y-96894619D01*
X232132190Y-95847000D02*
X231894095Y-96561285D01*
X231894095Y-96561285D02*
X232513142Y-96561285D01*
X233322666Y-95894619D02*
X233132190Y-95894619D01*
X233132190Y-95894619D02*
X233036952Y-95942238D01*
X233036952Y-95942238D02*
X232989333Y-95989857D01*
X232989333Y-95989857D02*
X232894095Y-96132714D01*
X232894095Y-96132714D02*
X232846476Y-96323190D01*
X232846476Y-96323190D02*
X232846476Y-96704142D01*
X232846476Y-96704142D02*
X232894095Y-96799380D01*
X232894095Y-96799380D02*
X232941714Y-96847000D01*
X232941714Y-96847000D02*
X233036952Y-96894619D01*
X233036952Y-96894619D02*
X233227428Y-96894619D01*
X233227428Y-96894619D02*
X233322666Y-96847000D01*
X233322666Y-96847000D02*
X233370285Y-96799380D01*
X233370285Y-96799380D02*
X233417904Y-96704142D01*
X233417904Y-96704142D02*
X233417904Y-96466047D01*
X233417904Y-96466047D02*
X233370285Y-96370809D01*
X233370285Y-96370809D02*
X233322666Y-96323190D01*
X233322666Y-96323190D02*
X233227428Y-96275571D01*
X233227428Y-96275571D02*
X233036952Y-96275571D01*
X233036952Y-96275571D02*
X232941714Y-96323190D01*
X232941714Y-96323190D02*
X232894095Y-96370809D01*
X232894095Y-96370809D02*
X232846476Y-96466047D01*
X228084095Y-97214619D02*
X228084095Y-96214619D01*
X228655523Y-97214619D02*
X228226952Y-96643190D01*
X228655523Y-96214619D02*
X228084095Y-96786047D01*
X50730119Y-72651785D02*
X49730119Y-72651785D01*
X49730119Y-72651785D02*
X49730119Y-72413690D01*
X49730119Y-72413690D02*
X49777738Y-72270833D01*
X49777738Y-72270833D02*
X49872976Y-72175595D01*
X49872976Y-72175595D02*
X49968214Y-72127976D01*
X49968214Y-72127976D02*
X50158690Y-72080357D01*
X50158690Y-72080357D02*
X50301547Y-72080357D01*
X50301547Y-72080357D02*
X50492023Y-72127976D01*
X50492023Y-72127976D02*
X50587261Y-72175595D01*
X50587261Y-72175595D02*
X50682500Y-72270833D01*
X50682500Y-72270833D02*
X50730119Y-72413690D01*
X50730119Y-72413690D02*
X50730119Y-72651785D01*
X49825357Y-71699404D02*
X49777738Y-71651785D01*
X49777738Y-71651785D02*
X49730119Y-71556547D01*
X49730119Y-71556547D02*
X49730119Y-71318452D01*
X49730119Y-71318452D02*
X49777738Y-71223214D01*
X49777738Y-71223214D02*
X49825357Y-71175595D01*
X49825357Y-71175595D02*
X49920595Y-71127976D01*
X49920595Y-71127976D02*
X50015833Y-71127976D01*
X50015833Y-71127976D02*
X50158690Y-71175595D01*
X50158690Y-71175595D02*
X50730119Y-71747023D01*
X50730119Y-71747023D02*
X50730119Y-71127976D01*
X50063452Y-70270833D02*
X50730119Y-70270833D01*
X49682500Y-70508928D02*
X50396785Y-70747023D01*
X50396785Y-70747023D02*
X50396785Y-70127976D01*
X51050119Y-75509404D02*
X50050119Y-75509404D01*
X51050119Y-74937976D02*
X50478690Y-75366547D01*
X50050119Y-74937976D02*
X50621547Y-75509404D01*
X222180119Y-91701785D02*
X221180119Y-91701785D01*
X221180119Y-91701785D02*
X221180119Y-91463690D01*
X221180119Y-91463690D02*
X221227738Y-91320833D01*
X221227738Y-91320833D02*
X221322976Y-91225595D01*
X221322976Y-91225595D02*
X221418214Y-91177976D01*
X221418214Y-91177976D02*
X221608690Y-91130357D01*
X221608690Y-91130357D02*
X221751547Y-91130357D01*
X221751547Y-91130357D02*
X221942023Y-91177976D01*
X221942023Y-91177976D02*
X222037261Y-91225595D01*
X222037261Y-91225595D02*
X222132500Y-91320833D01*
X222132500Y-91320833D02*
X222180119Y-91463690D01*
X222180119Y-91463690D02*
X222180119Y-91701785D01*
X221513452Y-90273214D02*
X222180119Y-90273214D01*
X221132500Y-90511309D02*
X221846785Y-90749404D01*
X221846785Y-90749404D02*
X221846785Y-90130357D01*
X221180119Y-89273214D02*
X221180119Y-89749404D01*
X221180119Y-89749404D02*
X221656309Y-89797023D01*
X221656309Y-89797023D02*
X221608690Y-89749404D01*
X221608690Y-89749404D02*
X221561071Y-89654166D01*
X221561071Y-89654166D02*
X221561071Y-89416071D01*
X221561071Y-89416071D02*
X221608690Y-89320833D01*
X221608690Y-89320833D02*
X221656309Y-89273214D01*
X221656309Y-89273214D02*
X221751547Y-89225595D01*
X221751547Y-89225595D02*
X221989642Y-89225595D01*
X221989642Y-89225595D02*
X222084880Y-89273214D01*
X222084880Y-89273214D02*
X222132500Y-89320833D01*
X222132500Y-89320833D02*
X222180119Y-89416071D01*
X222180119Y-89416071D02*
X222180119Y-89654166D01*
X222180119Y-89654166D02*
X222132500Y-89749404D01*
X222132500Y-89749404D02*
X222084880Y-89797023D01*
X222500119Y-94559404D02*
X221500119Y-94559404D01*
X222500119Y-93987976D02*
X221928690Y-94416547D01*
X221500119Y-93987976D02*
X222071547Y-94559404D01*
X250296514Y-60166219D02*
X250296514Y-59166219D01*
X250296514Y-59166219D02*
X250534609Y-59166219D01*
X250534609Y-59166219D02*
X250677466Y-59213838D01*
X250677466Y-59213838D02*
X250772704Y-59309076D01*
X250772704Y-59309076D02*
X250820323Y-59404314D01*
X250820323Y-59404314D02*
X250867942Y-59594790D01*
X250867942Y-59594790D02*
X250867942Y-59737647D01*
X250867942Y-59737647D02*
X250820323Y-59928123D01*
X250820323Y-59928123D02*
X250772704Y-60023361D01*
X250772704Y-60023361D02*
X250677466Y-60118600D01*
X250677466Y-60118600D02*
X250534609Y-60166219D01*
X250534609Y-60166219D02*
X250296514Y-60166219D01*
X251248895Y-59261457D02*
X251296514Y-59213838D01*
X251296514Y-59213838D02*
X251391752Y-59166219D01*
X251391752Y-59166219D02*
X251629847Y-59166219D01*
X251629847Y-59166219D02*
X251725085Y-59213838D01*
X251725085Y-59213838D02*
X251772704Y-59261457D01*
X251772704Y-59261457D02*
X251820323Y-59356695D01*
X251820323Y-59356695D02*
X251820323Y-59451933D01*
X251820323Y-59451933D02*
X251772704Y-59594790D01*
X251772704Y-59594790D02*
X251201276Y-60166219D01*
X251201276Y-60166219D02*
X251820323Y-60166219D01*
X252153657Y-59166219D02*
X252772704Y-59166219D01*
X252772704Y-59166219D02*
X252439371Y-59547171D01*
X252439371Y-59547171D02*
X252582228Y-59547171D01*
X252582228Y-59547171D02*
X252677466Y-59594790D01*
X252677466Y-59594790D02*
X252725085Y-59642409D01*
X252725085Y-59642409D02*
X252772704Y-59737647D01*
X252772704Y-59737647D02*
X252772704Y-59975742D01*
X252772704Y-59975742D02*
X252725085Y-60070980D01*
X252725085Y-60070980D02*
X252677466Y-60118600D01*
X252677466Y-60118600D02*
X252582228Y-60166219D01*
X252582228Y-60166219D02*
X252296514Y-60166219D01*
X252296514Y-60166219D02*
X252201276Y-60118600D01*
X252201276Y-60118600D02*
X252153657Y-60070980D01*
X247438895Y-60486219D02*
X247438895Y-59486219D01*
X248010323Y-60486219D02*
X247581752Y-59914790D01*
X248010323Y-59486219D02*
X247438895Y-60057647D01*
X126930119Y-33281844D02*
X125930119Y-33281844D01*
X125930119Y-33281844D02*
X125930119Y-33043749D01*
X125930119Y-33043749D02*
X125977738Y-32900892D01*
X125977738Y-32900892D02*
X126072976Y-32805654D01*
X126072976Y-32805654D02*
X126168214Y-32758035D01*
X126168214Y-32758035D02*
X126358690Y-32710416D01*
X126358690Y-32710416D02*
X126501547Y-32710416D01*
X126501547Y-32710416D02*
X126692023Y-32758035D01*
X126692023Y-32758035D02*
X126787261Y-32805654D01*
X126787261Y-32805654D02*
X126882500Y-32900892D01*
X126882500Y-32900892D02*
X126930119Y-33043749D01*
X126930119Y-33043749D02*
X126930119Y-33281844D01*
X126263452Y-31853273D02*
X126930119Y-31853273D01*
X125882500Y-32091368D02*
X126596785Y-32329463D01*
X126596785Y-32329463D02*
X126596785Y-31710416D01*
X127250119Y-36615654D02*
X126250119Y-36615654D01*
X127250119Y-36044226D02*
X126678690Y-36472797D01*
X126250119Y-36044226D02*
X126821547Y-36615654D01*
X107880119Y-110751785D02*
X106880119Y-110751785D01*
X106880119Y-110751785D02*
X106880119Y-110513690D01*
X106880119Y-110513690D02*
X106927738Y-110370833D01*
X106927738Y-110370833D02*
X107022976Y-110275595D01*
X107022976Y-110275595D02*
X107118214Y-110227976D01*
X107118214Y-110227976D02*
X107308690Y-110180357D01*
X107308690Y-110180357D02*
X107451547Y-110180357D01*
X107451547Y-110180357D02*
X107642023Y-110227976D01*
X107642023Y-110227976D02*
X107737261Y-110275595D01*
X107737261Y-110275595D02*
X107832500Y-110370833D01*
X107832500Y-110370833D02*
X107880119Y-110513690D01*
X107880119Y-110513690D02*
X107880119Y-110751785D01*
X106880119Y-109275595D02*
X106880119Y-109751785D01*
X106880119Y-109751785D02*
X107356309Y-109799404D01*
X107356309Y-109799404D02*
X107308690Y-109751785D01*
X107308690Y-109751785D02*
X107261071Y-109656547D01*
X107261071Y-109656547D02*
X107261071Y-109418452D01*
X107261071Y-109418452D02*
X107308690Y-109323214D01*
X107308690Y-109323214D02*
X107356309Y-109275595D01*
X107356309Y-109275595D02*
X107451547Y-109227976D01*
X107451547Y-109227976D02*
X107689642Y-109227976D01*
X107689642Y-109227976D02*
X107784880Y-109275595D01*
X107784880Y-109275595D02*
X107832500Y-109323214D01*
X107832500Y-109323214D02*
X107880119Y-109418452D01*
X107880119Y-109418452D02*
X107880119Y-109656547D01*
X107880119Y-109656547D02*
X107832500Y-109751785D01*
X107832500Y-109751785D02*
X107784880Y-109799404D01*
X107880119Y-108275595D02*
X107880119Y-108847023D01*
X107880119Y-108561309D02*
X106880119Y-108561309D01*
X106880119Y-108561309D02*
X107022976Y-108656547D01*
X107022976Y-108656547D02*
X107118214Y-108751785D01*
X107118214Y-108751785D02*
X107165833Y-108847023D01*
X108200119Y-113609404D02*
X107200119Y-113609404D01*
X108200119Y-113037976D02*
X107628690Y-113466547D01*
X107200119Y-113037976D02*
X107771547Y-113609404D01*
X222180119Y-52808035D02*
X221180119Y-52808035D01*
X221180119Y-52808035D02*
X221180119Y-52569940D01*
X221180119Y-52569940D02*
X221227738Y-52427083D01*
X221227738Y-52427083D02*
X221322976Y-52331845D01*
X221322976Y-52331845D02*
X221418214Y-52284226D01*
X221418214Y-52284226D02*
X221608690Y-52236607D01*
X221608690Y-52236607D02*
X221751547Y-52236607D01*
X221751547Y-52236607D02*
X221942023Y-52284226D01*
X221942023Y-52284226D02*
X222037261Y-52331845D01*
X222037261Y-52331845D02*
X222132500Y-52427083D01*
X222132500Y-52427083D02*
X222180119Y-52569940D01*
X222180119Y-52569940D02*
X222180119Y-52808035D01*
X221275357Y-51855654D02*
X221227738Y-51808035D01*
X221227738Y-51808035D02*
X221180119Y-51712797D01*
X221180119Y-51712797D02*
X221180119Y-51474702D01*
X221180119Y-51474702D02*
X221227738Y-51379464D01*
X221227738Y-51379464D02*
X221275357Y-51331845D01*
X221275357Y-51331845D02*
X221370595Y-51284226D01*
X221370595Y-51284226D02*
X221465833Y-51284226D01*
X221465833Y-51284226D02*
X221608690Y-51331845D01*
X221608690Y-51331845D02*
X222180119Y-51903273D01*
X222180119Y-51903273D02*
X222180119Y-51284226D01*
X222180119Y-50331845D02*
X222180119Y-50903273D01*
X222180119Y-50617559D02*
X221180119Y-50617559D01*
X221180119Y-50617559D02*
X221322976Y-50712797D01*
X221322976Y-50712797D02*
X221418214Y-50808035D01*
X221418214Y-50808035D02*
X221465833Y-50903273D01*
X222500119Y-55665654D02*
X221500119Y-55665654D01*
X222500119Y-55094226D02*
X221928690Y-55522797D01*
X221500119Y-55094226D02*
X222071547Y-55665654D01*
X50730119Y-52808035D02*
X49730119Y-52808035D01*
X49730119Y-52808035D02*
X49730119Y-52569940D01*
X49730119Y-52569940D02*
X49777738Y-52427083D01*
X49777738Y-52427083D02*
X49872976Y-52331845D01*
X49872976Y-52331845D02*
X49968214Y-52284226D01*
X49968214Y-52284226D02*
X50158690Y-52236607D01*
X50158690Y-52236607D02*
X50301547Y-52236607D01*
X50301547Y-52236607D02*
X50492023Y-52284226D01*
X50492023Y-52284226D02*
X50587261Y-52331845D01*
X50587261Y-52331845D02*
X50682500Y-52427083D01*
X50682500Y-52427083D02*
X50730119Y-52569940D01*
X50730119Y-52569940D02*
X50730119Y-52808035D01*
X50730119Y-51284226D02*
X50730119Y-51855654D01*
X50730119Y-51569940D02*
X49730119Y-51569940D01*
X49730119Y-51569940D02*
X49872976Y-51665178D01*
X49872976Y-51665178D02*
X49968214Y-51760416D01*
X49968214Y-51760416D02*
X50015833Y-51855654D01*
X49825357Y-50903273D02*
X49777738Y-50855654D01*
X49777738Y-50855654D02*
X49730119Y-50760416D01*
X49730119Y-50760416D02*
X49730119Y-50522321D01*
X49730119Y-50522321D02*
X49777738Y-50427083D01*
X49777738Y-50427083D02*
X49825357Y-50379464D01*
X49825357Y-50379464D02*
X49920595Y-50331845D01*
X49920595Y-50331845D02*
X50015833Y-50331845D01*
X50015833Y-50331845D02*
X50158690Y-50379464D01*
X50158690Y-50379464D02*
X50730119Y-50950892D01*
X50730119Y-50950892D02*
X50730119Y-50331845D01*
X51050119Y-55665654D02*
X50050119Y-55665654D01*
X51050119Y-55094226D02*
X50478690Y-55522797D01*
X50050119Y-55094226D02*
X50621547Y-55665654D01*
X50730119Y-110751785D02*
X49730119Y-110751785D01*
X49730119Y-110751785D02*
X49730119Y-110513690D01*
X49730119Y-110513690D02*
X49777738Y-110370833D01*
X49777738Y-110370833D02*
X49872976Y-110275595D01*
X49872976Y-110275595D02*
X49968214Y-110227976D01*
X49968214Y-110227976D02*
X50158690Y-110180357D01*
X50158690Y-110180357D02*
X50301547Y-110180357D01*
X50301547Y-110180357D02*
X50492023Y-110227976D01*
X50492023Y-110227976D02*
X50587261Y-110275595D01*
X50587261Y-110275595D02*
X50682500Y-110370833D01*
X50682500Y-110370833D02*
X50730119Y-110513690D01*
X50730119Y-110513690D02*
X50730119Y-110751785D01*
X50063452Y-109323214D02*
X50730119Y-109323214D01*
X49682500Y-109561309D02*
X50396785Y-109799404D01*
X50396785Y-109799404D02*
X50396785Y-109180357D01*
X50158690Y-108656547D02*
X50111071Y-108751785D01*
X50111071Y-108751785D02*
X50063452Y-108799404D01*
X50063452Y-108799404D02*
X49968214Y-108847023D01*
X49968214Y-108847023D02*
X49920595Y-108847023D01*
X49920595Y-108847023D02*
X49825357Y-108799404D01*
X49825357Y-108799404D02*
X49777738Y-108751785D01*
X49777738Y-108751785D02*
X49730119Y-108656547D01*
X49730119Y-108656547D02*
X49730119Y-108466071D01*
X49730119Y-108466071D02*
X49777738Y-108370833D01*
X49777738Y-108370833D02*
X49825357Y-108323214D01*
X49825357Y-108323214D02*
X49920595Y-108275595D01*
X49920595Y-108275595D02*
X49968214Y-108275595D01*
X49968214Y-108275595D02*
X50063452Y-108323214D01*
X50063452Y-108323214D02*
X50111071Y-108370833D01*
X50111071Y-108370833D02*
X50158690Y-108466071D01*
X50158690Y-108466071D02*
X50158690Y-108656547D01*
X50158690Y-108656547D02*
X50206309Y-108751785D01*
X50206309Y-108751785D02*
X50253928Y-108799404D01*
X50253928Y-108799404D02*
X50349166Y-108847023D01*
X50349166Y-108847023D02*
X50539642Y-108847023D01*
X50539642Y-108847023D02*
X50634880Y-108799404D01*
X50634880Y-108799404D02*
X50682500Y-108751785D01*
X50682500Y-108751785D02*
X50730119Y-108656547D01*
X50730119Y-108656547D02*
X50730119Y-108466071D01*
X50730119Y-108466071D02*
X50682500Y-108370833D01*
X50682500Y-108370833D02*
X50634880Y-108323214D01*
X50634880Y-108323214D02*
X50539642Y-108275595D01*
X50539642Y-108275595D02*
X50349166Y-108275595D01*
X50349166Y-108275595D02*
X50253928Y-108323214D01*
X50253928Y-108323214D02*
X50206309Y-108370833D01*
X50206309Y-108370833D02*
X50158690Y-108466071D01*
X51050119Y-113609404D02*
X50050119Y-113609404D01*
X51050119Y-113037976D02*
X50478690Y-113466547D01*
X50050119Y-113037976D02*
X50621547Y-113609404D01*
X184080119Y-52808035D02*
X183080119Y-52808035D01*
X183080119Y-52808035D02*
X183080119Y-52569940D01*
X183080119Y-52569940D02*
X183127738Y-52427083D01*
X183127738Y-52427083D02*
X183222976Y-52331845D01*
X183222976Y-52331845D02*
X183318214Y-52284226D01*
X183318214Y-52284226D02*
X183508690Y-52236607D01*
X183508690Y-52236607D02*
X183651547Y-52236607D01*
X183651547Y-52236607D02*
X183842023Y-52284226D01*
X183842023Y-52284226D02*
X183937261Y-52331845D01*
X183937261Y-52331845D02*
X184032500Y-52427083D01*
X184032500Y-52427083D02*
X184080119Y-52569940D01*
X184080119Y-52569940D02*
X184080119Y-52808035D01*
X184080119Y-51284226D02*
X184080119Y-51855654D01*
X184080119Y-51569940D02*
X183080119Y-51569940D01*
X183080119Y-51569940D02*
X183222976Y-51665178D01*
X183222976Y-51665178D02*
X183318214Y-51760416D01*
X183318214Y-51760416D02*
X183365833Y-51855654D01*
X184080119Y-50808035D02*
X184080119Y-50617559D01*
X184080119Y-50617559D02*
X184032500Y-50522321D01*
X184032500Y-50522321D02*
X183984880Y-50474702D01*
X183984880Y-50474702D02*
X183842023Y-50379464D01*
X183842023Y-50379464D02*
X183651547Y-50331845D01*
X183651547Y-50331845D02*
X183270595Y-50331845D01*
X183270595Y-50331845D02*
X183175357Y-50379464D01*
X183175357Y-50379464D02*
X183127738Y-50427083D01*
X183127738Y-50427083D02*
X183080119Y-50522321D01*
X183080119Y-50522321D02*
X183080119Y-50712797D01*
X183080119Y-50712797D02*
X183127738Y-50808035D01*
X183127738Y-50808035D02*
X183175357Y-50855654D01*
X183175357Y-50855654D02*
X183270595Y-50903273D01*
X183270595Y-50903273D02*
X183508690Y-50903273D01*
X183508690Y-50903273D02*
X183603928Y-50855654D01*
X183603928Y-50855654D02*
X183651547Y-50808035D01*
X183651547Y-50808035D02*
X183699166Y-50712797D01*
X183699166Y-50712797D02*
X183699166Y-50522321D01*
X183699166Y-50522321D02*
X183651547Y-50427083D01*
X183651547Y-50427083D02*
X183603928Y-50379464D01*
X183603928Y-50379464D02*
X183508690Y-50331845D01*
X184400119Y-55665654D02*
X183400119Y-55665654D01*
X184400119Y-55094226D02*
X183828690Y-55522797D01*
X183400119Y-55094226D02*
X183971547Y-55665654D01*
X165030119Y-72651785D02*
X164030119Y-72651785D01*
X164030119Y-72651785D02*
X164030119Y-72413690D01*
X164030119Y-72413690D02*
X164077738Y-72270833D01*
X164077738Y-72270833D02*
X164172976Y-72175595D01*
X164172976Y-72175595D02*
X164268214Y-72127976D01*
X164268214Y-72127976D02*
X164458690Y-72080357D01*
X164458690Y-72080357D02*
X164601547Y-72080357D01*
X164601547Y-72080357D02*
X164792023Y-72127976D01*
X164792023Y-72127976D02*
X164887261Y-72175595D01*
X164887261Y-72175595D02*
X164982500Y-72270833D01*
X164982500Y-72270833D02*
X165030119Y-72413690D01*
X165030119Y-72413690D02*
X165030119Y-72651785D01*
X164030119Y-71747023D02*
X164030119Y-71127976D01*
X164030119Y-71127976D02*
X164411071Y-71461309D01*
X164411071Y-71461309D02*
X164411071Y-71318452D01*
X164411071Y-71318452D02*
X164458690Y-71223214D01*
X164458690Y-71223214D02*
X164506309Y-71175595D01*
X164506309Y-71175595D02*
X164601547Y-71127976D01*
X164601547Y-71127976D02*
X164839642Y-71127976D01*
X164839642Y-71127976D02*
X164934880Y-71175595D01*
X164934880Y-71175595D02*
X164982500Y-71223214D01*
X164982500Y-71223214D02*
X165030119Y-71318452D01*
X165030119Y-71318452D02*
X165030119Y-71604166D01*
X165030119Y-71604166D02*
X164982500Y-71699404D01*
X164982500Y-71699404D02*
X164934880Y-71747023D01*
X164030119Y-70508928D02*
X164030119Y-70413690D01*
X164030119Y-70413690D02*
X164077738Y-70318452D01*
X164077738Y-70318452D02*
X164125357Y-70270833D01*
X164125357Y-70270833D02*
X164220595Y-70223214D01*
X164220595Y-70223214D02*
X164411071Y-70175595D01*
X164411071Y-70175595D02*
X164649166Y-70175595D01*
X164649166Y-70175595D02*
X164839642Y-70223214D01*
X164839642Y-70223214D02*
X164934880Y-70270833D01*
X164934880Y-70270833D02*
X164982500Y-70318452D01*
X164982500Y-70318452D02*
X165030119Y-70413690D01*
X165030119Y-70413690D02*
X165030119Y-70508928D01*
X165030119Y-70508928D02*
X164982500Y-70604166D01*
X164982500Y-70604166D02*
X164934880Y-70651785D01*
X164934880Y-70651785D02*
X164839642Y-70699404D01*
X164839642Y-70699404D02*
X164649166Y-70747023D01*
X164649166Y-70747023D02*
X164411071Y-70747023D01*
X164411071Y-70747023D02*
X164220595Y-70699404D01*
X164220595Y-70699404D02*
X164125357Y-70651785D01*
X164125357Y-70651785D02*
X164077738Y-70604166D01*
X164077738Y-70604166D02*
X164030119Y-70508928D01*
X165350119Y-75509404D02*
X164350119Y-75509404D01*
X165350119Y-74937976D02*
X164778690Y-75366547D01*
X164350119Y-74937976D02*
X164921547Y-75509404D01*
X89082714Y-60255119D02*
X89082714Y-59255119D01*
X89082714Y-59255119D02*
X89320809Y-59255119D01*
X89320809Y-59255119D02*
X89463666Y-59302738D01*
X89463666Y-59302738D02*
X89558904Y-59397976D01*
X89558904Y-59397976D02*
X89606523Y-59493214D01*
X89606523Y-59493214D02*
X89654142Y-59683690D01*
X89654142Y-59683690D02*
X89654142Y-59826547D01*
X89654142Y-59826547D02*
X89606523Y-60017023D01*
X89606523Y-60017023D02*
X89558904Y-60112261D01*
X89558904Y-60112261D02*
X89463666Y-60207500D01*
X89463666Y-60207500D02*
X89320809Y-60255119D01*
X89320809Y-60255119D02*
X89082714Y-60255119D01*
X90606523Y-60255119D02*
X90035095Y-60255119D01*
X90320809Y-60255119D02*
X90320809Y-59255119D01*
X90320809Y-59255119D02*
X90225571Y-59397976D01*
X90225571Y-59397976D02*
X90130333Y-59493214D01*
X90130333Y-59493214D02*
X90035095Y-59540833D01*
X91463666Y-59588452D02*
X91463666Y-60255119D01*
X91225571Y-59207500D02*
X90987476Y-59921785D01*
X90987476Y-59921785D02*
X91606523Y-59921785D01*
X86225095Y-60575119D02*
X86225095Y-59575119D01*
X86796523Y-60575119D02*
X86367952Y-60003690D01*
X86796523Y-59575119D02*
X86225095Y-60146547D01*
X145980119Y-72651785D02*
X144980119Y-72651785D01*
X144980119Y-72651785D02*
X144980119Y-72413690D01*
X144980119Y-72413690D02*
X145027738Y-72270833D01*
X145027738Y-72270833D02*
X145122976Y-72175595D01*
X145122976Y-72175595D02*
X145218214Y-72127976D01*
X145218214Y-72127976D02*
X145408690Y-72080357D01*
X145408690Y-72080357D02*
X145551547Y-72080357D01*
X145551547Y-72080357D02*
X145742023Y-72127976D01*
X145742023Y-72127976D02*
X145837261Y-72175595D01*
X145837261Y-72175595D02*
X145932500Y-72270833D01*
X145932500Y-72270833D02*
X145980119Y-72413690D01*
X145980119Y-72413690D02*
X145980119Y-72651785D01*
X145075357Y-71699404D02*
X145027738Y-71651785D01*
X145027738Y-71651785D02*
X144980119Y-71556547D01*
X144980119Y-71556547D02*
X144980119Y-71318452D01*
X144980119Y-71318452D02*
X145027738Y-71223214D01*
X145027738Y-71223214D02*
X145075357Y-71175595D01*
X145075357Y-71175595D02*
X145170595Y-71127976D01*
X145170595Y-71127976D02*
X145265833Y-71127976D01*
X145265833Y-71127976D02*
X145408690Y-71175595D01*
X145408690Y-71175595D02*
X145980119Y-71747023D01*
X145980119Y-71747023D02*
X145980119Y-71127976D01*
X145980119Y-70651785D02*
X145980119Y-70461309D01*
X145980119Y-70461309D02*
X145932500Y-70366071D01*
X145932500Y-70366071D02*
X145884880Y-70318452D01*
X145884880Y-70318452D02*
X145742023Y-70223214D01*
X145742023Y-70223214D02*
X145551547Y-70175595D01*
X145551547Y-70175595D02*
X145170595Y-70175595D01*
X145170595Y-70175595D02*
X145075357Y-70223214D01*
X145075357Y-70223214D02*
X145027738Y-70270833D01*
X145027738Y-70270833D02*
X144980119Y-70366071D01*
X144980119Y-70366071D02*
X144980119Y-70556547D01*
X144980119Y-70556547D02*
X145027738Y-70651785D01*
X145027738Y-70651785D02*
X145075357Y-70699404D01*
X145075357Y-70699404D02*
X145170595Y-70747023D01*
X145170595Y-70747023D02*
X145408690Y-70747023D01*
X145408690Y-70747023D02*
X145503928Y-70699404D01*
X145503928Y-70699404D02*
X145551547Y-70651785D01*
X145551547Y-70651785D02*
X145599166Y-70556547D01*
X145599166Y-70556547D02*
X145599166Y-70366071D01*
X145599166Y-70366071D02*
X145551547Y-70270833D01*
X145551547Y-70270833D02*
X145503928Y-70223214D01*
X145503928Y-70223214D02*
X145408690Y-70175595D01*
X146300119Y-75509404D02*
X145300119Y-75509404D01*
X146300119Y-74937976D02*
X145728690Y-75366547D01*
X145300119Y-74937976D02*
X145871547Y-75509404D01*
X69780119Y-72651785D02*
X68780119Y-72651785D01*
X68780119Y-72651785D02*
X68780119Y-72413690D01*
X68780119Y-72413690D02*
X68827738Y-72270833D01*
X68827738Y-72270833D02*
X68922976Y-72175595D01*
X68922976Y-72175595D02*
X69018214Y-72127976D01*
X69018214Y-72127976D02*
X69208690Y-72080357D01*
X69208690Y-72080357D02*
X69351547Y-72080357D01*
X69351547Y-72080357D02*
X69542023Y-72127976D01*
X69542023Y-72127976D02*
X69637261Y-72175595D01*
X69637261Y-72175595D02*
X69732500Y-72270833D01*
X69732500Y-72270833D02*
X69780119Y-72413690D01*
X69780119Y-72413690D02*
X69780119Y-72651785D01*
X68875357Y-71699404D02*
X68827738Y-71651785D01*
X68827738Y-71651785D02*
X68780119Y-71556547D01*
X68780119Y-71556547D02*
X68780119Y-71318452D01*
X68780119Y-71318452D02*
X68827738Y-71223214D01*
X68827738Y-71223214D02*
X68875357Y-71175595D01*
X68875357Y-71175595D02*
X68970595Y-71127976D01*
X68970595Y-71127976D02*
X69065833Y-71127976D01*
X69065833Y-71127976D02*
X69208690Y-71175595D01*
X69208690Y-71175595D02*
X69780119Y-71747023D01*
X69780119Y-71747023D02*
X69780119Y-71127976D01*
X68780119Y-70223214D02*
X68780119Y-70699404D01*
X68780119Y-70699404D02*
X69256309Y-70747023D01*
X69256309Y-70747023D02*
X69208690Y-70699404D01*
X69208690Y-70699404D02*
X69161071Y-70604166D01*
X69161071Y-70604166D02*
X69161071Y-70366071D01*
X69161071Y-70366071D02*
X69208690Y-70270833D01*
X69208690Y-70270833D02*
X69256309Y-70223214D01*
X69256309Y-70223214D02*
X69351547Y-70175595D01*
X69351547Y-70175595D02*
X69589642Y-70175595D01*
X69589642Y-70175595D02*
X69684880Y-70223214D01*
X69684880Y-70223214D02*
X69732500Y-70270833D01*
X69732500Y-70270833D02*
X69780119Y-70366071D01*
X69780119Y-70366071D02*
X69780119Y-70604166D01*
X69780119Y-70604166D02*
X69732500Y-70699404D01*
X69732500Y-70699404D02*
X69684880Y-70747023D01*
X70100119Y-75509404D02*
X69100119Y-75509404D01*
X70100119Y-74937976D02*
X69528690Y-75366547D01*
X69100119Y-74937976D02*
X69671547Y-75509404D01*
X88830119Y-110751785D02*
X87830119Y-110751785D01*
X87830119Y-110751785D02*
X87830119Y-110513690D01*
X87830119Y-110513690D02*
X87877738Y-110370833D01*
X87877738Y-110370833D02*
X87972976Y-110275595D01*
X87972976Y-110275595D02*
X88068214Y-110227976D01*
X88068214Y-110227976D02*
X88258690Y-110180357D01*
X88258690Y-110180357D02*
X88401547Y-110180357D01*
X88401547Y-110180357D02*
X88592023Y-110227976D01*
X88592023Y-110227976D02*
X88687261Y-110275595D01*
X88687261Y-110275595D02*
X88782500Y-110370833D01*
X88782500Y-110370833D02*
X88830119Y-110513690D01*
X88830119Y-110513690D02*
X88830119Y-110751785D01*
X87830119Y-109275595D02*
X87830119Y-109751785D01*
X87830119Y-109751785D02*
X88306309Y-109799404D01*
X88306309Y-109799404D02*
X88258690Y-109751785D01*
X88258690Y-109751785D02*
X88211071Y-109656547D01*
X88211071Y-109656547D02*
X88211071Y-109418452D01*
X88211071Y-109418452D02*
X88258690Y-109323214D01*
X88258690Y-109323214D02*
X88306309Y-109275595D01*
X88306309Y-109275595D02*
X88401547Y-109227976D01*
X88401547Y-109227976D02*
X88639642Y-109227976D01*
X88639642Y-109227976D02*
X88734880Y-109275595D01*
X88734880Y-109275595D02*
X88782500Y-109323214D01*
X88782500Y-109323214D02*
X88830119Y-109418452D01*
X88830119Y-109418452D02*
X88830119Y-109656547D01*
X88830119Y-109656547D02*
X88782500Y-109751785D01*
X88782500Y-109751785D02*
X88734880Y-109799404D01*
X87830119Y-108608928D02*
X87830119Y-108513690D01*
X87830119Y-108513690D02*
X87877738Y-108418452D01*
X87877738Y-108418452D02*
X87925357Y-108370833D01*
X87925357Y-108370833D02*
X88020595Y-108323214D01*
X88020595Y-108323214D02*
X88211071Y-108275595D01*
X88211071Y-108275595D02*
X88449166Y-108275595D01*
X88449166Y-108275595D02*
X88639642Y-108323214D01*
X88639642Y-108323214D02*
X88734880Y-108370833D01*
X88734880Y-108370833D02*
X88782500Y-108418452D01*
X88782500Y-108418452D02*
X88830119Y-108513690D01*
X88830119Y-108513690D02*
X88830119Y-108608928D01*
X88830119Y-108608928D02*
X88782500Y-108704166D01*
X88782500Y-108704166D02*
X88734880Y-108751785D01*
X88734880Y-108751785D02*
X88639642Y-108799404D01*
X88639642Y-108799404D02*
X88449166Y-108847023D01*
X88449166Y-108847023D02*
X88211071Y-108847023D01*
X88211071Y-108847023D02*
X88020595Y-108799404D01*
X88020595Y-108799404D02*
X87925357Y-108751785D01*
X87925357Y-108751785D02*
X87877738Y-108704166D01*
X87877738Y-108704166D02*
X87830119Y-108608928D01*
X89150119Y-113609404D02*
X88150119Y-113609404D01*
X89150119Y-113037976D02*
X88578690Y-113466547D01*
X88150119Y-113037976D02*
X88721547Y-113609404D01*
X203130119Y-52808035D02*
X202130119Y-52808035D01*
X202130119Y-52808035D02*
X202130119Y-52569940D01*
X202130119Y-52569940D02*
X202177738Y-52427083D01*
X202177738Y-52427083D02*
X202272976Y-52331845D01*
X202272976Y-52331845D02*
X202368214Y-52284226D01*
X202368214Y-52284226D02*
X202558690Y-52236607D01*
X202558690Y-52236607D02*
X202701547Y-52236607D01*
X202701547Y-52236607D02*
X202892023Y-52284226D01*
X202892023Y-52284226D02*
X202987261Y-52331845D01*
X202987261Y-52331845D02*
X203082500Y-52427083D01*
X203082500Y-52427083D02*
X203130119Y-52569940D01*
X203130119Y-52569940D02*
X203130119Y-52808035D01*
X202225357Y-51855654D02*
X202177738Y-51808035D01*
X202177738Y-51808035D02*
X202130119Y-51712797D01*
X202130119Y-51712797D02*
X202130119Y-51474702D01*
X202130119Y-51474702D02*
X202177738Y-51379464D01*
X202177738Y-51379464D02*
X202225357Y-51331845D01*
X202225357Y-51331845D02*
X202320595Y-51284226D01*
X202320595Y-51284226D02*
X202415833Y-51284226D01*
X202415833Y-51284226D02*
X202558690Y-51331845D01*
X202558690Y-51331845D02*
X203130119Y-51903273D01*
X203130119Y-51903273D02*
X203130119Y-51284226D01*
X202130119Y-50665178D02*
X202130119Y-50569940D01*
X202130119Y-50569940D02*
X202177738Y-50474702D01*
X202177738Y-50474702D02*
X202225357Y-50427083D01*
X202225357Y-50427083D02*
X202320595Y-50379464D01*
X202320595Y-50379464D02*
X202511071Y-50331845D01*
X202511071Y-50331845D02*
X202749166Y-50331845D01*
X202749166Y-50331845D02*
X202939642Y-50379464D01*
X202939642Y-50379464D02*
X203034880Y-50427083D01*
X203034880Y-50427083D02*
X203082500Y-50474702D01*
X203082500Y-50474702D02*
X203130119Y-50569940D01*
X203130119Y-50569940D02*
X203130119Y-50665178D01*
X203130119Y-50665178D02*
X203082500Y-50760416D01*
X203082500Y-50760416D02*
X203034880Y-50808035D01*
X203034880Y-50808035D02*
X202939642Y-50855654D01*
X202939642Y-50855654D02*
X202749166Y-50903273D01*
X202749166Y-50903273D02*
X202511071Y-50903273D01*
X202511071Y-50903273D02*
X202320595Y-50855654D01*
X202320595Y-50855654D02*
X202225357Y-50808035D01*
X202225357Y-50808035D02*
X202177738Y-50760416D01*
X202177738Y-50760416D02*
X202130119Y-50665178D01*
X203450119Y-55665654D02*
X202450119Y-55665654D01*
X203450119Y-55094226D02*
X202878690Y-55522797D01*
X202450119Y-55094226D02*
X203021547Y-55665654D01*
X145980119Y-110751785D02*
X144980119Y-110751785D01*
X144980119Y-110751785D02*
X144980119Y-110513690D01*
X144980119Y-110513690D02*
X145027738Y-110370833D01*
X145027738Y-110370833D02*
X145122976Y-110275595D01*
X145122976Y-110275595D02*
X145218214Y-110227976D01*
X145218214Y-110227976D02*
X145408690Y-110180357D01*
X145408690Y-110180357D02*
X145551547Y-110180357D01*
X145551547Y-110180357D02*
X145742023Y-110227976D01*
X145742023Y-110227976D02*
X145837261Y-110275595D01*
X145837261Y-110275595D02*
X145932500Y-110370833D01*
X145932500Y-110370833D02*
X145980119Y-110513690D01*
X145980119Y-110513690D02*
X145980119Y-110751785D01*
X144980119Y-109275595D02*
X144980119Y-109751785D01*
X144980119Y-109751785D02*
X145456309Y-109799404D01*
X145456309Y-109799404D02*
X145408690Y-109751785D01*
X145408690Y-109751785D02*
X145361071Y-109656547D01*
X145361071Y-109656547D02*
X145361071Y-109418452D01*
X145361071Y-109418452D02*
X145408690Y-109323214D01*
X145408690Y-109323214D02*
X145456309Y-109275595D01*
X145456309Y-109275595D02*
X145551547Y-109227976D01*
X145551547Y-109227976D02*
X145789642Y-109227976D01*
X145789642Y-109227976D02*
X145884880Y-109275595D01*
X145884880Y-109275595D02*
X145932500Y-109323214D01*
X145932500Y-109323214D02*
X145980119Y-109418452D01*
X145980119Y-109418452D02*
X145980119Y-109656547D01*
X145980119Y-109656547D02*
X145932500Y-109751785D01*
X145932500Y-109751785D02*
X145884880Y-109799404D01*
X144980119Y-108894642D02*
X144980119Y-108275595D01*
X144980119Y-108275595D02*
X145361071Y-108608928D01*
X145361071Y-108608928D02*
X145361071Y-108466071D01*
X145361071Y-108466071D02*
X145408690Y-108370833D01*
X145408690Y-108370833D02*
X145456309Y-108323214D01*
X145456309Y-108323214D02*
X145551547Y-108275595D01*
X145551547Y-108275595D02*
X145789642Y-108275595D01*
X145789642Y-108275595D02*
X145884880Y-108323214D01*
X145884880Y-108323214D02*
X145932500Y-108370833D01*
X145932500Y-108370833D02*
X145980119Y-108466071D01*
X145980119Y-108466071D02*
X145980119Y-108751785D01*
X145980119Y-108751785D02*
X145932500Y-108847023D01*
X145932500Y-108847023D02*
X145884880Y-108894642D01*
X146300119Y-113609404D02*
X145300119Y-113609404D01*
X146300119Y-113037976D02*
X145728690Y-113466547D01*
X145300119Y-113037976D02*
X145871547Y-113609404D01*
X78509905Y-60318619D02*
X78509905Y-59318619D01*
X78509905Y-59318619D02*
X78748000Y-59318619D01*
X78748000Y-59318619D02*
X78890857Y-59366238D01*
X78890857Y-59366238D02*
X78986095Y-59461476D01*
X78986095Y-59461476D02*
X79033714Y-59556714D01*
X79033714Y-59556714D02*
X79081333Y-59747190D01*
X79081333Y-59747190D02*
X79081333Y-59890047D01*
X79081333Y-59890047D02*
X79033714Y-60080523D01*
X79033714Y-60080523D02*
X78986095Y-60175761D01*
X78986095Y-60175761D02*
X78890857Y-60271000D01*
X78890857Y-60271000D02*
X78748000Y-60318619D01*
X78748000Y-60318619D02*
X78509905Y-60318619D01*
X79462286Y-59413857D02*
X79509905Y-59366238D01*
X79509905Y-59366238D02*
X79605143Y-59318619D01*
X79605143Y-59318619D02*
X79843238Y-59318619D01*
X79843238Y-59318619D02*
X79938476Y-59366238D01*
X79938476Y-59366238D02*
X79986095Y-59413857D01*
X79986095Y-59413857D02*
X80033714Y-59509095D01*
X80033714Y-59509095D02*
X80033714Y-59604333D01*
X80033714Y-59604333D02*
X79986095Y-59747190D01*
X79986095Y-59747190D02*
X79414667Y-60318619D01*
X79414667Y-60318619D02*
X80033714Y-60318619D01*
X75176095Y-60638619D02*
X75176095Y-59638619D01*
X75747523Y-60638619D02*
X75318952Y-60067190D01*
X75747523Y-59638619D02*
X75176095Y-60210047D01*
X50730119Y-91701785D02*
X49730119Y-91701785D01*
X49730119Y-91701785D02*
X49730119Y-91463690D01*
X49730119Y-91463690D02*
X49777738Y-91320833D01*
X49777738Y-91320833D02*
X49872976Y-91225595D01*
X49872976Y-91225595D02*
X49968214Y-91177976D01*
X49968214Y-91177976D02*
X50158690Y-91130357D01*
X50158690Y-91130357D02*
X50301547Y-91130357D01*
X50301547Y-91130357D02*
X50492023Y-91177976D01*
X50492023Y-91177976D02*
X50587261Y-91225595D01*
X50587261Y-91225595D02*
X50682500Y-91320833D01*
X50682500Y-91320833D02*
X50730119Y-91463690D01*
X50730119Y-91463690D02*
X50730119Y-91701785D01*
X49730119Y-90797023D02*
X49730119Y-90177976D01*
X49730119Y-90177976D02*
X50111071Y-90511309D01*
X50111071Y-90511309D02*
X50111071Y-90368452D01*
X50111071Y-90368452D02*
X50158690Y-90273214D01*
X50158690Y-90273214D02*
X50206309Y-90225595D01*
X50206309Y-90225595D02*
X50301547Y-90177976D01*
X50301547Y-90177976D02*
X50539642Y-90177976D01*
X50539642Y-90177976D02*
X50634880Y-90225595D01*
X50634880Y-90225595D02*
X50682500Y-90273214D01*
X50682500Y-90273214D02*
X50730119Y-90368452D01*
X50730119Y-90368452D02*
X50730119Y-90654166D01*
X50730119Y-90654166D02*
X50682500Y-90749404D01*
X50682500Y-90749404D02*
X50634880Y-90797023D01*
X49730119Y-89320833D02*
X49730119Y-89511309D01*
X49730119Y-89511309D02*
X49777738Y-89606547D01*
X49777738Y-89606547D02*
X49825357Y-89654166D01*
X49825357Y-89654166D02*
X49968214Y-89749404D01*
X49968214Y-89749404D02*
X50158690Y-89797023D01*
X50158690Y-89797023D02*
X50539642Y-89797023D01*
X50539642Y-89797023D02*
X50634880Y-89749404D01*
X50634880Y-89749404D02*
X50682500Y-89701785D01*
X50682500Y-89701785D02*
X50730119Y-89606547D01*
X50730119Y-89606547D02*
X50730119Y-89416071D01*
X50730119Y-89416071D02*
X50682500Y-89320833D01*
X50682500Y-89320833D02*
X50634880Y-89273214D01*
X50634880Y-89273214D02*
X50539642Y-89225595D01*
X50539642Y-89225595D02*
X50301547Y-89225595D01*
X50301547Y-89225595D02*
X50206309Y-89273214D01*
X50206309Y-89273214D02*
X50158690Y-89320833D01*
X50158690Y-89320833D02*
X50111071Y-89416071D01*
X50111071Y-89416071D02*
X50111071Y-89606547D01*
X50111071Y-89606547D02*
X50158690Y-89701785D01*
X50158690Y-89701785D02*
X50206309Y-89749404D01*
X50206309Y-89749404D02*
X50301547Y-89797023D01*
X51050119Y-94559404D02*
X50050119Y-94559404D01*
X51050119Y-93987976D02*
X50478690Y-94416547D01*
X50050119Y-93987976D02*
X50621547Y-94559404D01*
X184080119Y-33281844D02*
X183080119Y-33281844D01*
X183080119Y-33281844D02*
X183080119Y-33043749D01*
X183080119Y-33043749D02*
X183127738Y-32900892D01*
X183127738Y-32900892D02*
X183222976Y-32805654D01*
X183222976Y-32805654D02*
X183318214Y-32758035D01*
X183318214Y-32758035D02*
X183508690Y-32710416D01*
X183508690Y-32710416D02*
X183651547Y-32710416D01*
X183651547Y-32710416D02*
X183842023Y-32758035D01*
X183842023Y-32758035D02*
X183937261Y-32805654D01*
X183937261Y-32805654D02*
X184032500Y-32900892D01*
X184032500Y-32900892D02*
X184080119Y-33043749D01*
X184080119Y-33043749D02*
X184080119Y-33281844D01*
X183080119Y-32377082D02*
X183080119Y-31710416D01*
X183080119Y-31710416D02*
X184080119Y-32138987D01*
X184400119Y-36615654D02*
X183400119Y-36615654D01*
X184400119Y-36044226D02*
X183828690Y-36472797D01*
X183400119Y-36044226D02*
X183971547Y-36615654D01*
X126930119Y-72651785D02*
X125930119Y-72651785D01*
X125930119Y-72651785D02*
X125930119Y-72413690D01*
X125930119Y-72413690D02*
X125977738Y-72270833D01*
X125977738Y-72270833D02*
X126072976Y-72175595D01*
X126072976Y-72175595D02*
X126168214Y-72127976D01*
X126168214Y-72127976D02*
X126358690Y-72080357D01*
X126358690Y-72080357D02*
X126501547Y-72080357D01*
X126501547Y-72080357D02*
X126692023Y-72127976D01*
X126692023Y-72127976D02*
X126787261Y-72175595D01*
X126787261Y-72175595D02*
X126882500Y-72270833D01*
X126882500Y-72270833D02*
X126930119Y-72413690D01*
X126930119Y-72413690D02*
X126930119Y-72651785D01*
X126025357Y-71699404D02*
X125977738Y-71651785D01*
X125977738Y-71651785D02*
X125930119Y-71556547D01*
X125930119Y-71556547D02*
X125930119Y-71318452D01*
X125930119Y-71318452D02*
X125977738Y-71223214D01*
X125977738Y-71223214D02*
X126025357Y-71175595D01*
X126025357Y-71175595D02*
X126120595Y-71127976D01*
X126120595Y-71127976D02*
X126215833Y-71127976D01*
X126215833Y-71127976D02*
X126358690Y-71175595D01*
X126358690Y-71175595D02*
X126930119Y-71747023D01*
X126930119Y-71747023D02*
X126930119Y-71127976D01*
X126358690Y-70556547D02*
X126311071Y-70651785D01*
X126311071Y-70651785D02*
X126263452Y-70699404D01*
X126263452Y-70699404D02*
X126168214Y-70747023D01*
X126168214Y-70747023D02*
X126120595Y-70747023D01*
X126120595Y-70747023D02*
X126025357Y-70699404D01*
X126025357Y-70699404D02*
X125977738Y-70651785D01*
X125977738Y-70651785D02*
X125930119Y-70556547D01*
X125930119Y-70556547D02*
X125930119Y-70366071D01*
X125930119Y-70366071D02*
X125977738Y-70270833D01*
X125977738Y-70270833D02*
X126025357Y-70223214D01*
X126025357Y-70223214D02*
X126120595Y-70175595D01*
X126120595Y-70175595D02*
X126168214Y-70175595D01*
X126168214Y-70175595D02*
X126263452Y-70223214D01*
X126263452Y-70223214D02*
X126311071Y-70270833D01*
X126311071Y-70270833D02*
X126358690Y-70366071D01*
X126358690Y-70366071D02*
X126358690Y-70556547D01*
X126358690Y-70556547D02*
X126406309Y-70651785D01*
X126406309Y-70651785D02*
X126453928Y-70699404D01*
X126453928Y-70699404D02*
X126549166Y-70747023D01*
X126549166Y-70747023D02*
X126739642Y-70747023D01*
X126739642Y-70747023D02*
X126834880Y-70699404D01*
X126834880Y-70699404D02*
X126882500Y-70651785D01*
X126882500Y-70651785D02*
X126930119Y-70556547D01*
X126930119Y-70556547D02*
X126930119Y-70366071D01*
X126930119Y-70366071D02*
X126882500Y-70270833D01*
X126882500Y-70270833D02*
X126834880Y-70223214D01*
X126834880Y-70223214D02*
X126739642Y-70175595D01*
X126739642Y-70175595D02*
X126549166Y-70175595D01*
X126549166Y-70175595D02*
X126453928Y-70223214D01*
X126453928Y-70223214D02*
X126406309Y-70270833D01*
X126406309Y-70270833D02*
X126358690Y-70366071D01*
X127250119Y-75509404D02*
X126250119Y-75509404D01*
X127250119Y-74937976D02*
X126678690Y-75366547D01*
X126250119Y-74937976D02*
X126821547Y-75509404D01*
X126930119Y-52808035D02*
X125930119Y-52808035D01*
X125930119Y-52808035D02*
X125930119Y-52569940D01*
X125930119Y-52569940D02*
X125977738Y-52427083D01*
X125977738Y-52427083D02*
X126072976Y-52331845D01*
X126072976Y-52331845D02*
X126168214Y-52284226D01*
X126168214Y-52284226D02*
X126358690Y-52236607D01*
X126358690Y-52236607D02*
X126501547Y-52236607D01*
X126501547Y-52236607D02*
X126692023Y-52284226D01*
X126692023Y-52284226D02*
X126787261Y-52331845D01*
X126787261Y-52331845D02*
X126882500Y-52427083D01*
X126882500Y-52427083D02*
X126930119Y-52569940D01*
X126930119Y-52569940D02*
X126930119Y-52808035D01*
X126930119Y-51284226D02*
X126930119Y-51855654D01*
X126930119Y-51569940D02*
X125930119Y-51569940D01*
X125930119Y-51569940D02*
X126072976Y-51665178D01*
X126072976Y-51665178D02*
X126168214Y-51760416D01*
X126168214Y-51760416D02*
X126215833Y-51855654D01*
X125930119Y-50427083D02*
X125930119Y-50617559D01*
X125930119Y-50617559D02*
X125977738Y-50712797D01*
X125977738Y-50712797D02*
X126025357Y-50760416D01*
X126025357Y-50760416D02*
X126168214Y-50855654D01*
X126168214Y-50855654D02*
X126358690Y-50903273D01*
X126358690Y-50903273D02*
X126739642Y-50903273D01*
X126739642Y-50903273D02*
X126834880Y-50855654D01*
X126834880Y-50855654D02*
X126882500Y-50808035D01*
X126882500Y-50808035D02*
X126930119Y-50712797D01*
X126930119Y-50712797D02*
X126930119Y-50522321D01*
X126930119Y-50522321D02*
X126882500Y-50427083D01*
X126882500Y-50427083D02*
X126834880Y-50379464D01*
X126834880Y-50379464D02*
X126739642Y-50331845D01*
X126739642Y-50331845D02*
X126501547Y-50331845D01*
X126501547Y-50331845D02*
X126406309Y-50379464D01*
X126406309Y-50379464D02*
X126358690Y-50427083D01*
X126358690Y-50427083D02*
X126311071Y-50522321D01*
X126311071Y-50522321D02*
X126311071Y-50712797D01*
X126311071Y-50712797D02*
X126358690Y-50808035D01*
X126358690Y-50808035D02*
X126406309Y-50855654D01*
X126406309Y-50855654D02*
X126501547Y-50903273D01*
X127250119Y-55665654D02*
X126250119Y-55665654D01*
X127250119Y-55094226D02*
X126678690Y-55522797D01*
X126250119Y-55094226D02*
X126821547Y-55665654D01*
X165030119Y-52808035D02*
X164030119Y-52808035D01*
X164030119Y-52808035D02*
X164030119Y-52569940D01*
X164030119Y-52569940D02*
X164077738Y-52427083D01*
X164077738Y-52427083D02*
X164172976Y-52331845D01*
X164172976Y-52331845D02*
X164268214Y-52284226D01*
X164268214Y-52284226D02*
X164458690Y-52236607D01*
X164458690Y-52236607D02*
X164601547Y-52236607D01*
X164601547Y-52236607D02*
X164792023Y-52284226D01*
X164792023Y-52284226D02*
X164887261Y-52331845D01*
X164887261Y-52331845D02*
X164982500Y-52427083D01*
X164982500Y-52427083D02*
X165030119Y-52569940D01*
X165030119Y-52569940D02*
X165030119Y-52808035D01*
X165030119Y-51284226D02*
X165030119Y-51855654D01*
X165030119Y-51569940D02*
X164030119Y-51569940D01*
X164030119Y-51569940D02*
X164172976Y-51665178D01*
X164172976Y-51665178D02*
X164268214Y-51760416D01*
X164268214Y-51760416D02*
X164315833Y-51855654D01*
X164458690Y-50712797D02*
X164411071Y-50808035D01*
X164411071Y-50808035D02*
X164363452Y-50855654D01*
X164363452Y-50855654D02*
X164268214Y-50903273D01*
X164268214Y-50903273D02*
X164220595Y-50903273D01*
X164220595Y-50903273D02*
X164125357Y-50855654D01*
X164125357Y-50855654D02*
X164077738Y-50808035D01*
X164077738Y-50808035D02*
X164030119Y-50712797D01*
X164030119Y-50712797D02*
X164030119Y-50522321D01*
X164030119Y-50522321D02*
X164077738Y-50427083D01*
X164077738Y-50427083D02*
X164125357Y-50379464D01*
X164125357Y-50379464D02*
X164220595Y-50331845D01*
X164220595Y-50331845D02*
X164268214Y-50331845D01*
X164268214Y-50331845D02*
X164363452Y-50379464D01*
X164363452Y-50379464D02*
X164411071Y-50427083D01*
X164411071Y-50427083D02*
X164458690Y-50522321D01*
X164458690Y-50522321D02*
X164458690Y-50712797D01*
X164458690Y-50712797D02*
X164506309Y-50808035D01*
X164506309Y-50808035D02*
X164553928Y-50855654D01*
X164553928Y-50855654D02*
X164649166Y-50903273D01*
X164649166Y-50903273D02*
X164839642Y-50903273D01*
X164839642Y-50903273D02*
X164934880Y-50855654D01*
X164934880Y-50855654D02*
X164982500Y-50808035D01*
X164982500Y-50808035D02*
X165030119Y-50712797D01*
X165030119Y-50712797D02*
X165030119Y-50522321D01*
X165030119Y-50522321D02*
X164982500Y-50427083D01*
X164982500Y-50427083D02*
X164934880Y-50379464D01*
X164934880Y-50379464D02*
X164839642Y-50331845D01*
X164839642Y-50331845D02*
X164649166Y-50331845D01*
X164649166Y-50331845D02*
X164553928Y-50379464D01*
X164553928Y-50379464D02*
X164506309Y-50427083D01*
X164506309Y-50427083D02*
X164458690Y-50522321D01*
X165350119Y-55665654D02*
X164350119Y-55665654D01*
X165350119Y-55094226D02*
X164778690Y-55522797D01*
X164350119Y-55094226D02*
X164921547Y-55665654D01*
X222180119Y-110751785D02*
X221180119Y-110751785D01*
X221180119Y-110751785D02*
X221180119Y-110513690D01*
X221180119Y-110513690D02*
X221227738Y-110370833D01*
X221227738Y-110370833D02*
X221322976Y-110275595D01*
X221322976Y-110275595D02*
X221418214Y-110227976D01*
X221418214Y-110227976D02*
X221608690Y-110180357D01*
X221608690Y-110180357D02*
X221751547Y-110180357D01*
X221751547Y-110180357D02*
X221942023Y-110227976D01*
X221942023Y-110227976D02*
X222037261Y-110275595D01*
X222037261Y-110275595D02*
X222132500Y-110370833D01*
X222132500Y-110370833D02*
X222180119Y-110513690D01*
X222180119Y-110513690D02*
X222180119Y-110751785D01*
X221180119Y-109275595D02*
X221180119Y-109751785D01*
X221180119Y-109751785D02*
X221656309Y-109799404D01*
X221656309Y-109799404D02*
X221608690Y-109751785D01*
X221608690Y-109751785D02*
X221561071Y-109656547D01*
X221561071Y-109656547D02*
X221561071Y-109418452D01*
X221561071Y-109418452D02*
X221608690Y-109323214D01*
X221608690Y-109323214D02*
X221656309Y-109275595D01*
X221656309Y-109275595D02*
X221751547Y-109227976D01*
X221751547Y-109227976D02*
X221989642Y-109227976D01*
X221989642Y-109227976D02*
X222084880Y-109275595D01*
X222084880Y-109275595D02*
X222132500Y-109323214D01*
X222132500Y-109323214D02*
X222180119Y-109418452D01*
X222180119Y-109418452D02*
X222180119Y-109656547D01*
X222180119Y-109656547D02*
X222132500Y-109751785D01*
X222132500Y-109751785D02*
X222084880Y-109799404D01*
X221180119Y-108894642D02*
X221180119Y-108227976D01*
X221180119Y-108227976D02*
X222180119Y-108656547D01*
X222500119Y-113609404D02*
X221500119Y-113609404D01*
X222500119Y-113037976D02*
X221928690Y-113466547D01*
X221500119Y-113037976D02*
X222071547Y-113609404D01*
X222180119Y-72651785D02*
X221180119Y-72651785D01*
X221180119Y-72651785D02*
X221180119Y-72413690D01*
X221180119Y-72413690D02*
X221227738Y-72270833D01*
X221227738Y-72270833D02*
X221322976Y-72175595D01*
X221322976Y-72175595D02*
X221418214Y-72127976D01*
X221418214Y-72127976D02*
X221608690Y-72080357D01*
X221608690Y-72080357D02*
X221751547Y-72080357D01*
X221751547Y-72080357D02*
X221942023Y-72127976D01*
X221942023Y-72127976D02*
X222037261Y-72175595D01*
X222037261Y-72175595D02*
X222132500Y-72270833D01*
X222132500Y-72270833D02*
X222180119Y-72413690D01*
X222180119Y-72413690D02*
X222180119Y-72651785D01*
X221180119Y-71747023D02*
X221180119Y-71127976D01*
X221180119Y-71127976D02*
X221561071Y-71461309D01*
X221561071Y-71461309D02*
X221561071Y-71318452D01*
X221561071Y-71318452D02*
X221608690Y-71223214D01*
X221608690Y-71223214D02*
X221656309Y-71175595D01*
X221656309Y-71175595D02*
X221751547Y-71127976D01*
X221751547Y-71127976D02*
X221989642Y-71127976D01*
X221989642Y-71127976D02*
X222084880Y-71175595D01*
X222084880Y-71175595D02*
X222132500Y-71223214D01*
X222132500Y-71223214D02*
X222180119Y-71318452D01*
X222180119Y-71318452D02*
X222180119Y-71604166D01*
X222180119Y-71604166D02*
X222132500Y-71699404D01*
X222132500Y-71699404D02*
X222084880Y-71747023D01*
X221180119Y-70794642D02*
X221180119Y-70175595D01*
X221180119Y-70175595D02*
X221561071Y-70508928D01*
X221561071Y-70508928D02*
X221561071Y-70366071D01*
X221561071Y-70366071D02*
X221608690Y-70270833D01*
X221608690Y-70270833D02*
X221656309Y-70223214D01*
X221656309Y-70223214D02*
X221751547Y-70175595D01*
X221751547Y-70175595D02*
X221989642Y-70175595D01*
X221989642Y-70175595D02*
X222084880Y-70223214D01*
X222084880Y-70223214D02*
X222132500Y-70270833D01*
X222132500Y-70270833D02*
X222180119Y-70366071D01*
X222180119Y-70366071D02*
X222180119Y-70651785D01*
X222180119Y-70651785D02*
X222132500Y-70747023D01*
X222132500Y-70747023D02*
X222084880Y-70794642D01*
X222500119Y-75509404D02*
X221500119Y-75509404D01*
X222500119Y-74937976D02*
X221928690Y-75366547D01*
X221500119Y-74937976D02*
X222071547Y-75509404D01*
X107880119Y-91701785D02*
X106880119Y-91701785D01*
X106880119Y-91701785D02*
X106880119Y-91463690D01*
X106880119Y-91463690D02*
X106927738Y-91320833D01*
X106927738Y-91320833D02*
X107022976Y-91225595D01*
X107022976Y-91225595D02*
X107118214Y-91177976D01*
X107118214Y-91177976D02*
X107308690Y-91130357D01*
X107308690Y-91130357D02*
X107451547Y-91130357D01*
X107451547Y-91130357D02*
X107642023Y-91177976D01*
X107642023Y-91177976D02*
X107737261Y-91225595D01*
X107737261Y-91225595D02*
X107832500Y-91320833D01*
X107832500Y-91320833D02*
X107880119Y-91463690D01*
X107880119Y-91463690D02*
X107880119Y-91701785D01*
X106880119Y-90797023D02*
X106880119Y-90177976D01*
X106880119Y-90177976D02*
X107261071Y-90511309D01*
X107261071Y-90511309D02*
X107261071Y-90368452D01*
X107261071Y-90368452D02*
X107308690Y-90273214D01*
X107308690Y-90273214D02*
X107356309Y-90225595D01*
X107356309Y-90225595D02*
X107451547Y-90177976D01*
X107451547Y-90177976D02*
X107689642Y-90177976D01*
X107689642Y-90177976D02*
X107784880Y-90225595D01*
X107784880Y-90225595D02*
X107832500Y-90273214D01*
X107832500Y-90273214D02*
X107880119Y-90368452D01*
X107880119Y-90368452D02*
X107880119Y-90654166D01*
X107880119Y-90654166D02*
X107832500Y-90749404D01*
X107832500Y-90749404D02*
X107784880Y-90797023D01*
X107880119Y-89701785D02*
X107880119Y-89511309D01*
X107880119Y-89511309D02*
X107832500Y-89416071D01*
X107832500Y-89416071D02*
X107784880Y-89368452D01*
X107784880Y-89368452D02*
X107642023Y-89273214D01*
X107642023Y-89273214D02*
X107451547Y-89225595D01*
X107451547Y-89225595D02*
X107070595Y-89225595D01*
X107070595Y-89225595D02*
X106975357Y-89273214D01*
X106975357Y-89273214D02*
X106927738Y-89320833D01*
X106927738Y-89320833D02*
X106880119Y-89416071D01*
X106880119Y-89416071D02*
X106880119Y-89606547D01*
X106880119Y-89606547D02*
X106927738Y-89701785D01*
X106927738Y-89701785D02*
X106975357Y-89749404D01*
X106975357Y-89749404D02*
X107070595Y-89797023D01*
X107070595Y-89797023D02*
X107308690Y-89797023D01*
X107308690Y-89797023D02*
X107403928Y-89749404D01*
X107403928Y-89749404D02*
X107451547Y-89701785D01*
X107451547Y-89701785D02*
X107499166Y-89606547D01*
X107499166Y-89606547D02*
X107499166Y-89416071D01*
X107499166Y-89416071D02*
X107451547Y-89320833D01*
X107451547Y-89320833D02*
X107403928Y-89273214D01*
X107403928Y-89273214D02*
X107308690Y-89225595D01*
X108200119Y-94559404D02*
X107200119Y-94559404D01*
X108200119Y-93987976D02*
X107628690Y-94416547D01*
X107200119Y-93987976D02*
X107771547Y-94559404D01*
X88830119Y-72651785D02*
X87830119Y-72651785D01*
X87830119Y-72651785D02*
X87830119Y-72413690D01*
X87830119Y-72413690D02*
X87877738Y-72270833D01*
X87877738Y-72270833D02*
X87972976Y-72175595D01*
X87972976Y-72175595D02*
X88068214Y-72127976D01*
X88068214Y-72127976D02*
X88258690Y-72080357D01*
X88258690Y-72080357D02*
X88401547Y-72080357D01*
X88401547Y-72080357D02*
X88592023Y-72127976D01*
X88592023Y-72127976D02*
X88687261Y-72175595D01*
X88687261Y-72175595D02*
X88782500Y-72270833D01*
X88782500Y-72270833D02*
X88830119Y-72413690D01*
X88830119Y-72413690D02*
X88830119Y-72651785D01*
X87925357Y-71699404D02*
X87877738Y-71651785D01*
X87877738Y-71651785D02*
X87830119Y-71556547D01*
X87830119Y-71556547D02*
X87830119Y-71318452D01*
X87830119Y-71318452D02*
X87877738Y-71223214D01*
X87877738Y-71223214D02*
X87925357Y-71175595D01*
X87925357Y-71175595D02*
X88020595Y-71127976D01*
X88020595Y-71127976D02*
X88115833Y-71127976D01*
X88115833Y-71127976D02*
X88258690Y-71175595D01*
X88258690Y-71175595D02*
X88830119Y-71747023D01*
X88830119Y-71747023D02*
X88830119Y-71127976D01*
X87830119Y-70270833D02*
X87830119Y-70461309D01*
X87830119Y-70461309D02*
X87877738Y-70556547D01*
X87877738Y-70556547D02*
X87925357Y-70604166D01*
X87925357Y-70604166D02*
X88068214Y-70699404D01*
X88068214Y-70699404D02*
X88258690Y-70747023D01*
X88258690Y-70747023D02*
X88639642Y-70747023D01*
X88639642Y-70747023D02*
X88734880Y-70699404D01*
X88734880Y-70699404D02*
X88782500Y-70651785D01*
X88782500Y-70651785D02*
X88830119Y-70556547D01*
X88830119Y-70556547D02*
X88830119Y-70366071D01*
X88830119Y-70366071D02*
X88782500Y-70270833D01*
X88782500Y-70270833D02*
X88734880Y-70223214D01*
X88734880Y-70223214D02*
X88639642Y-70175595D01*
X88639642Y-70175595D02*
X88401547Y-70175595D01*
X88401547Y-70175595D02*
X88306309Y-70223214D01*
X88306309Y-70223214D02*
X88258690Y-70270833D01*
X88258690Y-70270833D02*
X88211071Y-70366071D01*
X88211071Y-70366071D02*
X88211071Y-70556547D01*
X88211071Y-70556547D02*
X88258690Y-70651785D01*
X88258690Y-70651785D02*
X88306309Y-70699404D01*
X88306309Y-70699404D02*
X88401547Y-70747023D01*
X89150119Y-75509404D02*
X88150119Y-75509404D01*
X89150119Y-74937976D02*
X88578690Y-75366547D01*
X88150119Y-74937976D02*
X88721547Y-75509404D01*
X250404464Y-79305119D02*
X250404464Y-78305119D01*
X250404464Y-78305119D02*
X250642559Y-78305119D01*
X250642559Y-78305119D02*
X250785416Y-78352738D01*
X250785416Y-78352738D02*
X250880654Y-78447976D01*
X250880654Y-78447976D02*
X250928273Y-78543214D01*
X250928273Y-78543214D02*
X250975892Y-78733690D01*
X250975892Y-78733690D02*
X250975892Y-78876547D01*
X250975892Y-78876547D02*
X250928273Y-79067023D01*
X250928273Y-79067023D02*
X250880654Y-79162261D01*
X250880654Y-79162261D02*
X250785416Y-79257500D01*
X250785416Y-79257500D02*
X250642559Y-79305119D01*
X250642559Y-79305119D02*
X250404464Y-79305119D01*
X251309226Y-78305119D02*
X251928273Y-78305119D01*
X251928273Y-78305119D02*
X251594940Y-78686071D01*
X251594940Y-78686071D02*
X251737797Y-78686071D01*
X251737797Y-78686071D02*
X251833035Y-78733690D01*
X251833035Y-78733690D02*
X251880654Y-78781309D01*
X251880654Y-78781309D02*
X251928273Y-78876547D01*
X251928273Y-78876547D02*
X251928273Y-79114642D01*
X251928273Y-79114642D02*
X251880654Y-79209880D01*
X251880654Y-79209880D02*
X251833035Y-79257500D01*
X251833035Y-79257500D02*
X251737797Y-79305119D01*
X251737797Y-79305119D02*
X251452083Y-79305119D01*
X251452083Y-79305119D02*
X251356845Y-79257500D01*
X251356845Y-79257500D02*
X251309226Y-79209880D01*
X252833035Y-78305119D02*
X252356845Y-78305119D01*
X252356845Y-78305119D02*
X252309226Y-78781309D01*
X252309226Y-78781309D02*
X252356845Y-78733690D01*
X252356845Y-78733690D02*
X252452083Y-78686071D01*
X252452083Y-78686071D02*
X252690178Y-78686071D01*
X252690178Y-78686071D02*
X252785416Y-78733690D01*
X252785416Y-78733690D02*
X252833035Y-78781309D01*
X252833035Y-78781309D02*
X252880654Y-78876547D01*
X252880654Y-78876547D02*
X252880654Y-79114642D01*
X252880654Y-79114642D02*
X252833035Y-79209880D01*
X252833035Y-79209880D02*
X252785416Y-79257500D01*
X252785416Y-79257500D02*
X252690178Y-79305119D01*
X252690178Y-79305119D02*
X252452083Y-79305119D01*
X252452083Y-79305119D02*
X252356845Y-79257500D01*
X252356845Y-79257500D02*
X252309226Y-79209880D01*
X247546845Y-79625119D02*
X247546845Y-78625119D01*
X248118273Y-79625119D02*
X247689702Y-79053690D01*
X248118273Y-78625119D02*
X247546845Y-79196547D01*
X165030119Y-33281844D02*
X164030119Y-33281844D01*
X164030119Y-33281844D02*
X164030119Y-33043749D01*
X164030119Y-33043749D02*
X164077738Y-32900892D01*
X164077738Y-32900892D02*
X164172976Y-32805654D01*
X164172976Y-32805654D02*
X164268214Y-32758035D01*
X164268214Y-32758035D02*
X164458690Y-32710416D01*
X164458690Y-32710416D02*
X164601547Y-32710416D01*
X164601547Y-32710416D02*
X164792023Y-32758035D01*
X164792023Y-32758035D02*
X164887261Y-32805654D01*
X164887261Y-32805654D02*
X164982500Y-32900892D01*
X164982500Y-32900892D02*
X165030119Y-33043749D01*
X165030119Y-33043749D02*
X165030119Y-33281844D01*
X164030119Y-31853273D02*
X164030119Y-32043749D01*
X164030119Y-32043749D02*
X164077738Y-32138987D01*
X164077738Y-32138987D02*
X164125357Y-32186606D01*
X164125357Y-32186606D02*
X164268214Y-32281844D01*
X164268214Y-32281844D02*
X164458690Y-32329463D01*
X164458690Y-32329463D02*
X164839642Y-32329463D01*
X164839642Y-32329463D02*
X164934880Y-32281844D01*
X164934880Y-32281844D02*
X164982500Y-32234225D01*
X164982500Y-32234225D02*
X165030119Y-32138987D01*
X165030119Y-32138987D02*
X165030119Y-31948511D01*
X165030119Y-31948511D02*
X164982500Y-31853273D01*
X164982500Y-31853273D02*
X164934880Y-31805654D01*
X164934880Y-31805654D02*
X164839642Y-31758035D01*
X164839642Y-31758035D02*
X164601547Y-31758035D01*
X164601547Y-31758035D02*
X164506309Y-31805654D01*
X164506309Y-31805654D02*
X164458690Y-31853273D01*
X164458690Y-31853273D02*
X164411071Y-31948511D01*
X164411071Y-31948511D02*
X164411071Y-32138987D01*
X164411071Y-32138987D02*
X164458690Y-32234225D01*
X164458690Y-32234225D02*
X164506309Y-32281844D01*
X164506309Y-32281844D02*
X164601547Y-32329463D01*
X165350119Y-36615654D02*
X164350119Y-36615654D01*
X165350119Y-36044226D02*
X164778690Y-36472797D01*
X164350119Y-36044226D02*
X164921547Y-36615654D01*
X165030119Y-110751785D02*
X164030119Y-110751785D01*
X164030119Y-110751785D02*
X164030119Y-110513690D01*
X164030119Y-110513690D02*
X164077738Y-110370833D01*
X164077738Y-110370833D02*
X164172976Y-110275595D01*
X164172976Y-110275595D02*
X164268214Y-110227976D01*
X164268214Y-110227976D02*
X164458690Y-110180357D01*
X164458690Y-110180357D02*
X164601547Y-110180357D01*
X164601547Y-110180357D02*
X164792023Y-110227976D01*
X164792023Y-110227976D02*
X164887261Y-110275595D01*
X164887261Y-110275595D02*
X164982500Y-110370833D01*
X164982500Y-110370833D02*
X165030119Y-110513690D01*
X165030119Y-110513690D02*
X165030119Y-110751785D01*
X164030119Y-109275595D02*
X164030119Y-109751785D01*
X164030119Y-109751785D02*
X164506309Y-109799404D01*
X164506309Y-109799404D02*
X164458690Y-109751785D01*
X164458690Y-109751785D02*
X164411071Y-109656547D01*
X164411071Y-109656547D02*
X164411071Y-109418452D01*
X164411071Y-109418452D02*
X164458690Y-109323214D01*
X164458690Y-109323214D02*
X164506309Y-109275595D01*
X164506309Y-109275595D02*
X164601547Y-109227976D01*
X164601547Y-109227976D02*
X164839642Y-109227976D01*
X164839642Y-109227976D02*
X164934880Y-109275595D01*
X164934880Y-109275595D02*
X164982500Y-109323214D01*
X164982500Y-109323214D02*
X165030119Y-109418452D01*
X165030119Y-109418452D02*
X165030119Y-109656547D01*
X165030119Y-109656547D02*
X164982500Y-109751785D01*
X164982500Y-109751785D02*
X164934880Y-109799404D01*
X164363452Y-108370833D02*
X165030119Y-108370833D01*
X163982500Y-108608928D02*
X164696785Y-108847023D01*
X164696785Y-108847023D02*
X164696785Y-108227976D01*
X165350119Y-113609404D02*
X164350119Y-113609404D01*
X165350119Y-113037976D02*
X164778690Y-113466547D01*
X164350119Y-113037976D02*
X164921547Y-113609404D01*
X50730119Y-33440594D02*
X49730119Y-33440594D01*
X49730119Y-33440594D02*
X49730119Y-33202499D01*
X49730119Y-33202499D02*
X49777738Y-33059642D01*
X49777738Y-33059642D02*
X49872976Y-32964404D01*
X49872976Y-32964404D02*
X49968214Y-32916785D01*
X49968214Y-32916785D02*
X50158690Y-32869166D01*
X50158690Y-32869166D02*
X50301547Y-32869166D01*
X50301547Y-32869166D02*
X50492023Y-32916785D01*
X50492023Y-32916785D02*
X50587261Y-32964404D01*
X50587261Y-32964404D02*
X50682500Y-33059642D01*
X50682500Y-33059642D02*
X50730119Y-33202499D01*
X50730119Y-33202499D02*
X50730119Y-33440594D01*
X49730119Y-32250118D02*
X49730119Y-32154880D01*
X49730119Y-32154880D02*
X49777738Y-32059642D01*
X49777738Y-32059642D02*
X49825357Y-32012023D01*
X49825357Y-32012023D02*
X49920595Y-31964404D01*
X49920595Y-31964404D02*
X50111071Y-31916785D01*
X50111071Y-31916785D02*
X50349166Y-31916785D01*
X50349166Y-31916785D02*
X50539642Y-31964404D01*
X50539642Y-31964404D02*
X50634880Y-32012023D01*
X50634880Y-32012023D02*
X50682500Y-32059642D01*
X50682500Y-32059642D02*
X50730119Y-32154880D01*
X50730119Y-32154880D02*
X50730119Y-32250118D01*
X50730119Y-32250118D02*
X50682500Y-32345356D01*
X50682500Y-32345356D02*
X50634880Y-32392975D01*
X50634880Y-32392975D02*
X50539642Y-32440594D01*
X50539642Y-32440594D02*
X50349166Y-32488213D01*
X50349166Y-32488213D02*
X50111071Y-32488213D01*
X50111071Y-32488213D02*
X49920595Y-32440594D01*
X49920595Y-32440594D02*
X49825357Y-32392975D01*
X49825357Y-32392975D02*
X49777738Y-32345356D01*
X49777738Y-32345356D02*
X49730119Y-32250118D01*
X51050119Y-36774404D02*
X50050119Y-36774404D01*
X51050119Y-36202976D02*
X50478690Y-36631547D01*
X50050119Y-36202976D02*
X50621547Y-36774404D01*
X203130119Y-110751785D02*
X202130119Y-110751785D01*
X202130119Y-110751785D02*
X202130119Y-110513690D01*
X202130119Y-110513690D02*
X202177738Y-110370833D01*
X202177738Y-110370833D02*
X202272976Y-110275595D01*
X202272976Y-110275595D02*
X202368214Y-110227976D01*
X202368214Y-110227976D02*
X202558690Y-110180357D01*
X202558690Y-110180357D02*
X202701547Y-110180357D01*
X202701547Y-110180357D02*
X202892023Y-110227976D01*
X202892023Y-110227976D02*
X202987261Y-110275595D01*
X202987261Y-110275595D02*
X203082500Y-110370833D01*
X203082500Y-110370833D02*
X203130119Y-110513690D01*
X203130119Y-110513690D02*
X203130119Y-110751785D01*
X202130119Y-109275595D02*
X202130119Y-109751785D01*
X202130119Y-109751785D02*
X202606309Y-109799404D01*
X202606309Y-109799404D02*
X202558690Y-109751785D01*
X202558690Y-109751785D02*
X202511071Y-109656547D01*
X202511071Y-109656547D02*
X202511071Y-109418452D01*
X202511071Y-109418452D02*
X202558690Y-109323214D01*
X202558690Y-109323214D02*
X202606309Y-109275595D01*
X202606309Y-109275595D02*
X202701547Y-109227976D01*
X202701547Y-109227976D02*
X202939642Y-109227976D01*
X202939642Y-109227976D02*
X203034880Y-109275595D01*
X203034880Y-109275595D02*
X203082500Y-109323214D01*
X203082500Y-109323214D02*
X203130119Y-109418452D01*
X203130119Y-109418452D02*
X203130119Y-109656547D01*
X203130119Y-109656547D02*
X203082500Y-109751785D01*
X203082500Y-109751785D02*
X203034880Y-109799404D01*
X202130119Y-108370833D02*
X202130119Y-108561309D01*
X202130119Y-108561309D02*
X202177738Y-108656547D01*
X202177738Y-108656547D02*
X202225357Y-108704166D01*
X202225357Y-108704166D02*
X202368214Y-108799404D01*
X202368214Y-108799404D02*
X202558690Y-108847023D01*
X202558690Y-108847023D02*
X202939642Y-108847023D01*
X202939642Y-108847023D02*
X203034880Y-108799404D01*
X203034880Y-108799404D02*
X203082500Y-108751785D01*
X203082500Y-108751785D02*
X203130119Y-108656547D01*
X203130119Y-108656547D02*
X203130119Y-108466071D01*
X203130119Y-108466071D02*
X203082500Y-108370833D01*
X203082500Y-108370833D02*
X203034880Y-108323214D01*
X203034880Y-108323214D02*
X202939642Y-108275595D01*
X202939642Y-108275595D02*
X202701547Y-108275595D01*
X202701547Y-108275595D02*
X202606309Y-108323214D01*
X202606309Y-108323214D02*
X202558690Y-108370833D01*
X202558690Y-108370833D02*
X202511071Y-108466071D01*
X202511071Y-108466071D02*
X202511071Y-108656547D01*
X202511071Y-108656547D02*
X202558690Y-108751785D01*
X202558690Y-108751785D02*
X202606309Y-108799404D01*
X202606309Y-108799404D02*
X202701547Y-108847023D01*
X203450119Y-113609404D02*
X202450119Y-113609404D01*
X203450119Y-113037976D02*
X202878690Y-113466547D01*
X202450119Y-113037976D02*
X203021547Y-113609404D01*
X250245714Y-41205119D02*
X250245714Y-40205119D01*
X250245714Y-40205119D02*
X250483809Y-40205119D01*
X250483809Y-40205119D02*
X250626666Y-40252738D01*
X250626666Y-40252738D02*
X250721904Y-40347976D01*
X250721904Y-40347976D02*
X250769523Y-40443214D01*
X250769523Y-40443214D02*
X250817142Y-40633690D01*
X250817142Y-40633690D02*
X250817142Y-40776547D01*
X250817142Y-40776547D02*
X250769523Y-40967023D01*
X250769523Y-40967023D02*
X250721904Y-41062261D01*
X250721904Y-41062261D02*
X250626666Y-41157500D01*
X250626666Y-41157500D02*
X250483809Y-41205119D01*
X250483809Y-41205119D02*
X250245714Y-41205119D01*
X251769523Y-41205119D02*
X251198095Y-41205119D01*
X251483809Y-41205119D02*
X251483809Y-40205119D01*
X251483809Y-40205119D02*
X251388571Y-40347976D01*
X251388571Y-40347976D02*
X251293333Y-40443214D01*
X251293333Y-40443214D02*
X251198095Y-40490833D01*
X252721904Y-41205119D02*
X252150476Y-41205119D01*
X252436190Y-41205119D02*
X252436190Y-40205119D01*
X252436190Y-40205119D02*
X252340952Y-40347976D01*
X252340952Y-40347976D02*
X252245714Y-40443214D01*
X252245714Y-40443214D02*
X252150476Y-40490833D01*
X247388095Y-41525119D02*
X247388095Y-40525119D01*
X247959523Y-41525119D02*
X247530952Y-40953690D01*
X247959523Y-40525119D02*
X247388095Y-41096547D01*
X107880119Y-72651785D02*
X106880119Y-72651785D01*
X106880119Y-72651785D02*
X106880119Y-72413690D01*
X106880119Y-72413690D02*
X106927738Y-72270833D01*
X106927738Y-72270833D02*
X107022976Y-72175595D01*
X107022976Y-72175595D02*
X107118214Y-72127976D01*
X107118214Y-72127976D02*
X107308690Y-72080357D01*
X107308690Y-72080357D02*
X107451547Y-72080357D01*
X107451547Y-72080357D02*
X107642023Y-72127976D01*
X107642023Y-72127976D02*
X107737261Y-72175595D01*
X107737261Y-72175595D02*
X107832500Y-72270833D01*
X107832500Y-72270833D02*
X107880119Y-72413690D01*
X107880119Y-72413690D02*
X107880119Y-72651785D01*
X106975357Y-71699404D02*
X106927738Y-71651785D01*
X106927738Y-71651785D02*
X106880119Y-71556547D01*
X106880119Y-71556547D02*
X106880119Y-71318452D01*
X106880119Y-71318452D02*
X106927738Y-71223214D01*
X106927738Y-71223214D02*
X106975357Y-71175595D01*
X106975357Y-71175595D02*
X107070595Y-71127976D01*
X107070595Y-71127976D02*
X107165833Y-71127976D01*
X107165833Y-71127976D02*
X107308690Y-71175595D01*
X107308690Y-71175595D02*
X107880119Y-71747023D01*
X107880119Y-71747023D02*
X107880119Y-71127976D01*
X106880119Y-70794642D02*
X106880119Y-70127976D01*
X106880119Y-70127976D02*
X107880119Y-70556547D01*
X108200119Y-75509404D02*
X107200119Y-75509404D01*
X108200119Y-74937976D02*
X107628690Y-75366547D01*
X107200119Y-74937976D02*
X107771547Y-75509404D01*
X88830119Y-91701785D02*
X87830119Y-91701785D01*
X87830119Y-91701785D02*
X87830119Y-91463690D01*
X87830119Y-91463690D02*
X87877738Y-91320833D01*
X87877738Y-91320833D02*
X87972976Y-91225595D01*
X87972976Y-91225595D02*
X88068214Y-91177976D01*
X88068214Y-91177976D02*
X88258690Y-91130357D01*
X88258690Y-91130357D02*
X88401547Y-91130357D01*
X88401547Y-91130357D02*
X88592023Y-91177976D01*
X88592023Y-91177976D02*
X88687261Y-91225595D01*
X88687261Y-91225595D02*
X88782500Y-91320833D01*
X88782500Y-91320833D02*
X88830119Y-91463690D01*
X88830119Y-91463690D02*
X88830119Y-91701785D01*
X87830119Y-90797023D02*
X87830119Y-90177976D01*
X87830119Y-90177976D02*
X88211071Y-90511309D01*
X88211071Y-90511309D02*
X88211071Y-90368452D01*
X88211071Y-90368452D02*
X88258690Y-90273214D01*
X88258690Y-90273214D02*
X88306309Y-90225595D01*
X88306309Y-90225595D02*
X88401547Y-90177976D01*
X88401547Y-90177976D02*
X88639642Y-90177976D01*
X88639642Y-90177976D02*
X88734880Y-90225595D01*
X88734880Y-90225595D02*
X88782500Y-90273214D01*
X88782500Y-90273214D02*
X88830119Y-90368452D01*
X88830119Y-90368452D02*
X88830119Y-90654166D01*
X88830119Y-90654166D02*
X88782500Y-90749404D01*
X88782500Y-90749404D02*
X88734880Y-90797023D01*
X88258690Y-89606547D02*
X88211071Y-89701785D01*
X88211071Y-89701785D02*
X88163452Y-89749404D01*
X88163452Y-89749404D02*
X88068214Y-89797023D01*
X88068214Y-89797023D02*
X88020595Y-89797023D01*
X88020595Y-89797023D02*
X87925357Y-89749404D01*
X87925357Y-89749404D02*
X87877738Y-89701785D01*
X87877738Y-89701785D02*
X87830119Y-89606547D01*
X87830119Y-89606547D02*
X87830119Y-89416071D01*
X87830119Y-89416071D02*
X87877738Y-89320833D01*
X87877738Y-89320833D02*
X87925357Y-89273214D01*
X87925357Y-89273214D02*
X88020595Y-89225595D01*
X88020595Y-89225595D02*
X88068214Y-89225595D01*
X88068214Y-89225595D02*
X88163452Y-89273214D01*
X88163452Y-89273214D02*
X88211071Y-89320833D01*
X88211071Y-89320833D02*
X88258690Y-89416071D01*
X88258690Y-89416071D02*
X88258690Y-89606547D01*
X88258690Y-89606547D02*
X88306309Y-89701785D01*
X88306309Y-89701785D02*
X88353928Y-89749404D01*
X88353928Y-89749404D02*
X88449166Y-89797023D01*
X88449166Y-89797023D02*
X88639642Y-89797023D01*
X88639642Y-89797023D02*
X88734880Y-89749404D01*
X88734880Y-89749404D02*
X88782500Y-89701785D01*
X88782500Y-89701785D02*
X88830119Y-89606547D01*
X88830119Y-89606547D02*
X88830119Y-89416071D01*
X88830119Y-89416071D02*
X88782500Y-89320833D01*
X88782500Y-89320833D02*
X88734880Y-89273214D01*
X88734880Y-89273214D02*
X88639642Y-89225595D01*
X88639642Y-89225595D02*
X88449166Y-89225595D01*
X88449166Y-89225595D02*
X88353928Y-89273214D01*
X88353928Y-89273214D02*
X88306309Y-89320833D01*
X88306309Y-89320833D02*
X88258690Y-89416071D01*
X89150119Y-94559404D02*
X88150119Y-94559404D01*
X89150119Y-93987976D02*
X88578690Y-94416547D01*
X88150119Y-93987976D02*
X88721547Y-94559404D01*
X145980119Y-52808035D02*
X144980119Y-52808035D01*
X144980119Y-52808035D02*
X144980119Y-52569940D01*
X144980119Y-52569940D02*
X145027738Y-52427083D01*
X145027738Y-52427083D02*
X145122976Y-52331845D01*
X145122976Y-52331845D02*
X145218214Y-52284226D01*
X145218214Y-52284226D02*
X145408690Y-52236607D01*
X145408690Y-52236607D02*
X145551547Y-52236607D01*
X145551547Y-52236607D02*
X145742023Y-52284226D01*
X145742023Y-52284226D02*
X145837261Y-52331845D01*
X145837261Y-52331845D02*
X145932500Y-52427083D01*
X145932500Y-52427083D02*
X145980119Y-52569940D01*
X145980119Y-52569940D02*
X145980119Y-52808035D01*
X145980119Y-51284226D02*
X145980119Y-51855654D01*
X145980119Y-51569940D02*
X144980119Y-51569940D01*
X144980119Y-51569940D02*
X145122976Y-51665178D01*
X145122976Y-51665178D02*
X145218214Y-51760416D01*
X145218214Y-51760416D02*
X145265833Y-51855654D01*
X144980119Y-50950892D02*
X144980119Y-50284226D01*
X144980119Y-50284226D02*
X145980119Y-50712797D01*
X146300119Y-55665654D02*
X145300119Y-55665654D01*
X146300119Y-55094226D02*
X145728690Y-55522797D01*
X145300119Y-55094226D02*
X145871547Y-55665654D01*
X241230119Y-52808035D02*
X240230119Y-52808035D01*
X240230119Y-52808035D02*
X240230119Y-52569940D01*
X240230119Y-52569940D02*
X240277738Y-52427083D01*
X240277738Y-52427083D02*
X240372976Y-52331845D01*
X240372976Y-52331845D02*
X240468214Y-52284226D01*
X240468214Y-52284226D02*
X240658690Y-52236607D01*
X240658690Y-52236607D02*
X240801547Y-52236607D01*
X240801547Y-52236607D02*
X240992023Y-52284226D01*
X240992023Y-52284226D02*
X241087261Y-52331845D01*
X241087261Y-52331845D02*
X241182500Y-52427083D01*
X241182500Y-52427083D02*
X241230119Y-52569940D01*
X241230119Y-52569940D02*
X241230119Y-52808035D01*
X240325357Y-51855654D02*
X240277738Y-51808035D01*
X240277738Y-51808035D02*
X240230119Y-51712797D01*
X240230119Y-51712797D02*
X240230119Y-51474702D01*
X240230119Y-51474702D02*
X240277738Y-51379464D01*
X240277738Y-51379464D02*
X240325357Y-51331845D01*
X240325357Y-51331845D02*
X240420595Y-51284226D01*
X240420595Y-51284226D02*
X240515833Y-51284226D01*
X240515833Y-51284226D02*
X240658690Y-51331845D01*
X240658690Y-51331845D02*
X241230119Y-51903273D01*
X241230119Y-51903273D02*
X241230119Y-51284226D01*
X240325357Y-50903273D02*
X240277738Y-50855654D01*
X240277738Y-50855654D02*
X240230119Y-50760416D01*
X240230119Y-50760416D02*
X240230119Y-50522321D01*
X240230119Y-50522321D02*
X240277738Y-50427083D01*
X240277738Y-50427083D02*
X240325357Y-50379464D01*
X240325357Y-50379464D02*
X240420595Y-50331845D01*
X240420595Y-50331845D02*
X240515833Y-50331845D01*
X240515833Y-50331845D02*
X240658690Y-50379464D01*
X240658690Y-50379464D02*
X241230119Y-50950892D01*
X241230119Y-50950892D02*
X241230119Y-50331845D01*
X241550119Y-55665654D02*
X240550119Y-55665654D01*
X241550119Y-55094226D02*
X240978690Y-55522797D01*
X240550119Y-55094226D02*
X241121547Y-55665654D01*
X184080119Y-91701785D02*
X183080119Y-91701785D01*
X183080119Y-91701785D02*
X183080119Y-91463690D01*
X183080119Y-91463690D02*
X183127738Y-91320833D01*
X183127738Y-91320833D02*
X183222976Y-91225595D01*
X183222976Y-91225595D02*
X183318214Y-91177976D01*
X183318214Y-91177976D02*
X183508690Y-91130357D01*
X183508690Y-91130357D02*
X183651547Y-91130357D01*
X183651547Y-91130357D02*
X183842023Y-91177976D01*
X183842023Y-91177976D02*
X183937261Y-91225595D01*
X183937261Y-91225595D02*
X184032500Y-91320833D01*
X184032500Y-91320833D02*
X184080119Y-91463690D01*
X184080119Y-91463690D02*
X184080119Y-91701785D01*
X183413452Y-90273214D02*
X184080119Y-90273214D01*
X183032500Y-90511309D02*
X183746785Y-90749404D01*
X183746785Y-90749404D02*
X183746785Y-90130357D01*
X183080119Y-89844642D02*
X183080119Y-89225595D01*
X183080119Y-89225595D02*
X183461071Y-89558928D01*
X183461071Y-89558928D02*
X183461071Y-89416071D01*
X183461071Y-89416071D02*
X183508690Y-89320833D01*
X183508690Y-89320833D02*
X183556309Y-89273214D01*
X183556309Y-89273214D02*
X183651547Y-89225595D01*
X183651547Y-89225595D02*
X183889642Y-89225595D01*
X183889642Y-89225595D02*
X183984880Y-89273214D01*
X183984880Y-89273214D02*
X184032500Y-89320833D01*
X184032500Y-89320833D02*
X184080119Y-89416071D01*
X184080119Y-89416071D02*
X184080119Y-89701785D01*
X184080119Y-89701785D02*
X184032500Y-89797023D01*
X184032500Y-89797023D02*
X183984880Y-89844642D01*
X184400119Y-94559404D02*
X183400119Y-94559404D01*
X184400119Y-93987976D02*
X183828690Y-94416547D01*
X183400119Y-93987976D02*
X183971547Y-94559404D01*
X241230119Y-90908035D02*
X240230119Y-90908035D01*
X240230119Y-90908035D02*
X240230119Y-90669940D01*
X240230119Y-90669940D02*
X240277738Y-90527083D01*
X240277738Y-90527083D02*
X240372976Y-90431845D01*
X240372976Y-90431845D02*
X240468214Y-90384226D01*
X240468214Y-90384226D02*
X240658690Y-90336607D01*
X240658690Y-90336607D02*
X240801547Y-90336607D01*
X240801547Y-90336607D02*
X240992023Y-90384226D01*
X240992023Y-90384226D02*
X241087261Y-90431845D01*
X241087261Y-90431845D02*
X241182500Y-90527083D01*
X241182500Y-90527083D02*
X241230119Y-90669940D01*
X241230119Y-90669940D02*
X241230119Y-90908035D01*
X240563452Y-89479464D02*
X241230119Y-89479464D01*
X240182500Y-89717559D02*
X240896785Y-89955654D01*
X240896785Y-89955654D02*
X240896785Y-89336607D01*
X240230119Y-89050892D02*
X240230119Y-88384226D01*
X240230119Y-88384226D02*
X241230119Y-88812797D01*
X241550119Y-93765654D02*
X240550119Y-93765654D01*
X241550119Y-93194226D02*
X240978690Y-93622797D01*
X240550119Y-93194226D02*
X241121547Y-93765654D01*
X85813976Y-30804940D02*
X85737786Y-30766845D01*
X85737786Y-30766845D02*
X85623500Y-30766845D01*
X85623500Y-30766845D02*
X85509214Y-30804940D01*
X85509214Y-30804940D02*
X85433024Y-30881130D01*
X85433024Y-30881130D02*
X85394929Y-30957321D01*
X85394929Y-30957321D02*
X85356833Y-31109702D01*
X85356833Y-31109702D02*
X85356833Y-31223988D01*
X85356833Y-31223988D02*
X85394929Y-31376369D01*
X85394929Y-31376369D02*
X85433024Y-31452559D01*
X85433024Y-31452559D02*
X85509214Y-31528750D01*
X85509214Y-31528750D02*
X85623500Y-31566845D01*
X85623500Y-31566845D02*
X85699691Y-31566845D01*
X85699691Y-31566845D02*
X85813976Y-31528750D01*
X85813976Y-31528750D02*
X85852072Y-31490654D01*
X85852072Y-31490654D02*
X85852072Y-31223988D01*
X85852072Y-31223988D02*
X85699691Y-31223988D01*
X86194929Y-31566845D02*
X86194929Y-30766845D01*
X86194929Y-30766845D02*
X86652072Y-31566845D01*
X86652072Y-31566845D02*
X86652072Y-30766845D01*
X87033024Y-31566845D02*
X87033024Y-30766845D01*
X87033024Y-30766845D02*
X87223500Y-30766845D01*
X87223500Y-30766845D02*
X87337786Y-30804940D01*
X87337786Y-30804940D02*
X87413976Y-30881130D01*
X87413976Y-30881130D02*
X87452071Y-30957321D01*
X87452071Y-30957321D02*
X87490167Y-31109702D01*
X87490167Y-31109702D02*
X87490167Y-31223988D01*
X87490167Y-31223988D02*
X87452071Y-31376369D01*
X87452071Y-31376369D02*
X87413976Y-31452559D01*
X87413976Y-31452559D02*
X87337786Y-31528750D01*
X87337786Y-31528750D02*
X87223500Y-31566845D01*
X87223500Y-31566845D02*
X87033024Y-31566845D01*
X74891976Y-28264940D02*
X74815786Y-28226845D01*
X74815786Y-28226845D02*
X74701500Y-28226845D01*
X74701500Y-28226845D02*
X74587214Y-28264940D01*
X74587214Y-28264940D02*
X74511024Y-28341130D01*
X74511024Y-28341130D02*
X74472929Y-28417321D01*
X74472929Y-28417321D02*
X74434833Y-28569702D01*
X74434833Y-28569702D02*
X74434833Y-28683988D01*
X74434833Y-28683988D02*
X74472929Y-28836369D01*
X74472929Y-28836369D02*
X74511024Y-28912559D01*
X74511024Y-28912559D02*
X74587214Y-28988750D01*
X74587214Y-28988750D02*
X74701500Y-29026845D01*
X74701500Y-29026845D02*
X74777691Y-29026845D01*
X74777691Y-29026845D02*
X74891976Y-28988750D01*
X74891976Y-28988750D02*
X74930072Y-28950654D01*
X74930072Y-28950654D02*
X74930072Y-28683988D01*
X74930072Y-28683988D02*
X74777691Y-28683988D01*
X75272929Y-29026845D02*
X75272929Y-28226845D01*
X75272929Y-28226845D02*
X75730072Y-29026845D01*
X75730072Y-29026845D02*
X75730072Y-28226845D01*
X76111024Y-29026845D02*
X76111024Y-28226845D01*
X76111024Y-28226845D02*
X76301500Y-28226845D01*
X76301500Y-28226845D02*
X76415786Y-28264940D01*
X76415786Y-28264940D02*
X76491976Y-28341130D01*
X76491976Y-28341130D02*
X76530071Y-28417321D01*
X76530071Y-28417321D02*
X76568167Y-28569702D01*
X76568167Y-28569702D02*
X76568167Y-28683988D01*
X76568167Y-28683988D02*
X76530071Y-28836369D01*
X76530071Y-28836369D02*
X76491976Y-28912559D01*
X76491976Y-28912559D02*
X76415786Y-28988750D01*
X76415786Y-28988750D02*
X76301500Y-29026845D01*
X76301500Y-29026845D02*
X76111024Y-29026845D01*
X75389166Y-31508750D02*
X75503452Y-31546845D01*
X75503452Y-31546845D02*
X75693928Y-31546845D01*
X75693928Y-31546845D02*
X75770119Y-31508750D01*
X75770119Y-31508750D02*
X75808214Y-31470654D01*
X75808214Y-31470654D02*
X75846309Y-31394464D01*
X75846309Y-31394464D02*
X75846309Y-31318273D01*
X75846309Y-31318273D02*
X75808214Y-31242083D01*
X75808214Y-31242083D02*
X75770119Y-31203988D01*
X75770119Y-31203988D02*
X75693928Y-31165892D01*
X75693928Y-31165892D02*
X75541547Y-31127797D01*
X75541547Y-31127797D02*
X75465357Y-31089702D01*
X75465357Y-31089702D02*
X75427262Y-31051607D01*
X75427262Y-31051607D02*
X75389166Y-30975416D01*
X75389166Y-30975416D02*
X75389166Y-30899226D01*
X75389166Y-30899226D02*
X75427262Y-30823035D01*
X75427262Y-30823035D02*
X75465357Y-30784940D01*
X75465357Y-30784940D02*
X75541547Y-30746845D01*
X75541547Y-30746845D02*
X75732024Y-30746845D01*
X75732024Y-30746845D02*
X75846309Y-30784940D01*
X76074881Y-30746845D02*
X76532024Y-30746845D01*
X76303452Y-31546845D02*
X76303452Y-30746845D01*
X75177690Y-46387797D02*
X75291976Y-46425892D01*
X75291976Y-46425892D02*
X75330071Y-46463988D01*
X75330071Y-46463988D02*
X75368167Y-46540178D01*
X75368167Y-46540178D02*
X75368167Y-46654464D01*
X75368167Y-46654464D02*
X75330071Y-46730654D01*
X75330071Y-46730654D02*
X75291976Y-46768750D01*
X75291976Y-46768750D02*
X75215786Y-46806845D01*
X75215786Y-46806845D02*
X74911024Y-46806845D01*
X74911024Y-46806845D02*
X74911024Y-46006845D01*
X74911024Y-46006845D02*
X75177690Y-46006845D01*
X75177690Y-46006845D02*
X75253881Y-46044940D01*
X75253881Y-46044940D02*
X75291976Y-46083035D01*
X75291976Y-46083035D02*
X75330071Y-46159226D01*
X75330071Y-46159226D02*
X75330071Y-46235416D01*
X75330071Y-46235416D02*
X75291976Y-46311607D01*
X75291976Y-46311607D02*
X75253881Y-46349702D01*
X75253881Y-46349702D02*
X75177690Y-46387797D01*
X75177690Y-46387797D02*
X74911024Y-46387797D01*
X76130071Y-46806845D02*
X75672928Y-46806845D01*
X75901500Y-46806845D02*
X75901500Y-46006845D01*
X75901500Y-46006845D02*
X75825309Y-46121130D01*
X75825309Y-46121130D02*
X75749119Y-46197321D01*
X75749119Y-46197321D02*
X75672928Y-46235416D01*
X85833024Y-29026845D02*
X85833024Y-28226845D01*
X85833024Y-28226845D02*
X86023500Y-28226845D01*
X86023500Y-28226845D02*
X86137786Y-28264940D01*
X86137786Y-28264940D02*
X86213976Y-28341130D01*
X86213976Y-28341130D02*
X86252071Y-28417321D01*
X86252071Y-28417321D02*
X86290167Y-28569702D01*
X86290167Y-28569702D02*
X86290167Y-28683988D01*
X86290167Y-28683988D02*
X86252071Y-28836369D01*
X86252071Y-28836369D02*
X86213976Y-28912559D01*
X86213976Y-28912559D02*
X86137786Y-28988750D01*
X86137786Y-28988750D02*
X86023500Y-29026845D01*
X86023500Y-29026845D02*
X85833024Y-29026845D01*
X86594928Y-28303035D02*
X86633024Y-28264940D01*
X86633024Y-28264940D02*
X86709214Y-28226845D01*
X86709214Y-28226845D02*
X86899690Y-28226845D01*
X86899690Y-28226845D02*
X86975881Y-28264940D01*
X86975881Y-28264940D02*
X87013976Y-28303035D01*
X87013976Y-28303035D02*
X87052071Y-28379226D01*
X87052071Y-28379226D02*
X87052071Y-28455416D01*
X87052071Y-28455416D02*
X87013976Y-28569702D01*
X87013976Y-28569702D02*
X86556833Y-29026845D01*
X86556833Y-29026845D02*
X87052071Y-29026845D01*
X75234833Y-41307797D02*
X74968167Y-41307797D01*
X74968167Y-41726845D02*
X74968167Y-40926845D01*
X74968167Y-40926845D02*
X75349119Y-40926845D01*
X75996738Y-40926845D02*
X75844357Y-40926845D01*
X75844357Y-40926845D02*
X75768166Y-40964940D01*
X75768166Y-40964940D02*
X75730071Y-41003035D01*
X75730071Y-41003035D02*
X75653881Y-41117321D01*
X75653881Y-41117321D02*
X75615785Y-41269702D01*
X75615785Y-41269702D02*
X75615785Y-41574464D01*
X75615785Y-41574464D02*
X75653881Y-41650654D01*
X75653881Y-41650654D02*
X75691976Y-41688750D01*
X75691976Y-41688750D02*
X75768166Y-41726845D01*
X75768166Y-41726845D02*
X75920547Y-41726845D01*
X75920547Y-41726845D02*
X75996738Y-41688750D01*
X75996738Y-41688750D02*
X76034833Y-41650654D01*
X76034833Y-41650654D02*
X76072928Y-41574464D01*
X76072928Y-41574464D02*
X76072928Y-41383988D01*
X76072928Y-41383988D02*
X76034833Y-41307797D01*
X76034833Y-41307797D02*
X75996738Y-41269702D01*
X75996738Y-41269702D02*
X75920547Y-41231607D01*
X75920547Y-41231607D02*
X75768166Y-41231607D01*
X75768166Y-41231607D02*
X75691976Y-41269702D01*
X75691976Y-41269702D02*
X75653881Y-41307797D01*
X75653881Y-41307797D02*
X75615785Y-41383988D01*
X74961790Y-48820647D02*
X75076076Y-48858742D01*
X75076076Y-48858742D02*
X75114171Y-48896838D01*
X75114171Y-48896838D02*
X75152267Y-48973028D01*
X75152267Y-48973028D02*
X75152267Y-49087314D01*
X75152267Y-49087314D02*
X75114171Y-49163504D01*
X75114171Y-49163504D02*
X75076076Y-49201600D01*
X75076076Y-49201600D02*
X74999886Y-49239695D01*
X74999886Y-49239695D02*
X74695124Y-49239695D01*
X74695124Y-49239695D02*
X74695124Y-48439695D01*
X74695124Y-48439695D02*
X74961790Y-48439695D01*
X74961790Y-48439695D02*
X75037981Y-48477790D01*
X75037981Y-48477790D02*
X75076076Y-48515885D01*
X75076076Y-48515885D02*
X75114171Y-48592076D01*
X75114171Y-48592076D02*
X75114171Y-48668266D01*
X75114171Y-48668266D02*
X75076076Y-48744457D01*
X75076076Y-48744457D02*
X75037981Y-48782552D01*
X75037981Y-48782552D02*
X74961790Y-48820647D01*
X74961790Y-48820647D02*
X74695124Y-48820647D01*
X75418933Y-48439695D02*
X75914171Y-48439695D01*
X75914171Y-48439695D02*
X75647505Y-48744457D01*
X75647505Y-48744457D02*
X75761790Y-48744457D01*
X75761790Y-48744457D02*
X75837981Y-48782552D01*
X75837981Y-48782552D02*
X75876076Y-48820647D01*
X75876076Y-48820647D02*
X75914171Y-48896838D01*
X75914171Y-48896838D02*
X75914171Y-49087314D01*
X75914171Y-49087314D02*
X75876076Y-49163504D01*
X75876076Y-49163504D02*
X75837981Y-49201600D01*
X75837981Y-49201600D02*
X75761790Y-49239695D01*
X75761790Y-49239695D02*
X75533219Y-49239695D01*
X75533219Y-49239695D02*
X75457028Y-49201600D01*
X75457028Y-49201600D02*
X75418933Y-49163504D01*
X74910990Y-50903447D02*
X75025276Y-50941542D01*
X75025276Y-50941542D02*
X75063371Y-50979638D01*
X75063371Y-50979638D02*
X75101467Y-51055828D01*
X75101467Y-51055828D02*
X75101467Y-51170114D01*
X75101467Y-51170114D02*
X75063371Y-51246304D01*
X75063371Y-51246304D02*
X75025276Y-51284400D01*
X75025276Y-51284400D02*
X74949086Y-51322495D01*
X74949086Y-51322495D02*
X74644324Y-51322495D01*
X74644324Y-51322495D02*
X74644324Y-50522495D01*
X74644324Y-50522495D02*
X74910990Y-50522495D01*
X74910990Y-50522495D02*
X74987181Y-50560590D01*
X74987181Y-50560590D02*
X75025276Y-50598685D01*
X75025276Y-50598685D02*
X75063371Y-50674876D01*
X75063371Y-50674876D02*
X75063371Y-50751066D01*
X75063371Y-50751066D02*
X75025276Y-50827257D01*
X75025276Y-50827257D02*
X74987181Y-50865352D01*
X74987181Y-50865352D02*
X74910990Y-50903447D01*
X74910990Y-50903447D02*
X74644324Y-50903447D01*
X75406228Y-50598685D02*
X75444324Y-50560590D01*
X75444324Y-50560590D02*
X75520514Y-50522495D01*
X75520514Y-50522495D02*
X75710990Y-50522495D01*
X75710990Y-50522495D02*
X75787181Y-50560590D01*
X75787181Y-50560590D02*
X75825276Y-50598685D01*
X75825276Y-50598685D02*
X75863371Y-50674876D01*
X75863371Y-50674876D02*
X75863371Y-50751066D01*
X75863371Y-50751066D02*
X75825276Y-50865352D01*
X75825276Y-50865352D02*
X75368133Y-51322495D01*
X75368133Y-51322495D02*
X75863371Y-51322495D01*
X86137790Y-50903447D02*
X86252076Y-50941542D01*
X86252076Y-50941542D02*
X86290171Y-50979638D01*
X86290171Y-50979638D02*
X86328267Y-51055828D01*
X86328267Y-51055828D02*
X86328267Y-51170114D01*
X86328267Y-51170114D02*
X86290171Y-51246304D01*
X86290171Y-51246304D02*
X86252076Y-51284400D01*
X86252076Y-51284400D02*
X86175886Y-51322495D01*
X86175886Y-51322495D02*
X85871124Y-51322495D01*
X85871124Y-51322495D02*
X85871124Y-50522495D01*
X85871124Y-50522495D02*
X86137790Y-50522495D01*
X86137790Y-50522495D02*
X86213981Y-50560590D01*
X86213981Y-50560590D02*
X86252076Y-50598685D01*
X86252076Y-50598685D02*
X86290171Y-50674876D01*
X86290171Y-50674876D02*
X86290171Y-50751066D01*
X86290171Y-50751066D02*
X86252076Y-50827257D01*
X86252076Y-50827257D02*
X86213981Y-50865352D01*
X86213981Y-50865352D02*
X86137790Y-50903447D01*
X86137790Y-50903447D02*
X85871124Y-50903447D01*
X87013981Y-50789161D02*
X87013981Y-51322495D01*
X86823505Y-50484400D02*
X86633028Y-51055828D01*
X86633028Y-51055828D02*
X87128267Y-51055828D01*
X85871119Y-48927797D02*
X86137785Y-48927797D01*
X86252071Y-49346845D02*
X85871119Y-49346845D01*
X85871119Y-49346845D02*
X85871119Y-48546845D01*
X85871119Y-48546845D02*
X86252071Y-48546845D01*
X86937786Y-48546845D02*
X86785405Y-48546845D01*
X86785405Y-48546845D02*
X86709214Y-48584940D01*
X86709214Y-48584940D02*
X86671119Y-48623035D01*
X86671119Y-48623035D02*
X86594929Y-48737321D01*
X86594929Y-48737321D02*
X86556833Y-48889702D01*
X86556833Y-48889702D02*
X86556833Y-49194464D01*
X86556833Y-49194464D02*
X86594929Y-49270654D01*
X86594929Y-49270654D02*
X86633024Y-49308750D01*
X86633024Y-49308750D02*
X86709214Y-49346845D01*
X86709214Y-49346845D02*
X86861595Y-49346845D01*
X86861595Y-49346845D02*
X86937786Y-49308750D01*
X86937786Y-49308750D02*
X86975881Y-49270654D01*
X86975881Y-49270654D02*
X87013976Y-49194464D01*
X87013976Y-49194464D02*
X87013976Y-49003988D01*
X87013976Y-49003988D02*
X86975881Y-48927797D01*
X86975881Y-48927797D02*
X86937786Y-48889702D01*
X86937786Y-48889702D02*
X86861595Y-48851607D01*
X86861595Y-48851607D02*
X86709214Y-48851607D01*
X86709214Y-48851607D02*
X86633024Y-48889702D01*
X86633024Y-48889702D02*
X86594929Y-48927797D01*
X86594929Y-48927797D02*
X86556833Y-49003988D01*
X75177690Y-54007797D02*
X75291976Y-54045892D01*
X75291976Y-54045892D02*
X75330071Y-54083988D01*
X75330071Y-54083988D02*
X75368167Y-54160178D01*
X75368167Y-54160178D02*
X75368167Y-54274464D01*
X75368167Y-54274464D02*
X75330071Y-54350654D01*
X75330071Y-54350654D02*
X75291976Y-54388750D01*
X75291976Y-54388750D02*
X75215786Y-54426845D01*
X75215786Y-54426845D02*
X74911024Y-54426845D01*
X74911024Y-54426845D02*
X74911024Y-53626845D01*
X74911024Y-53626845D02*
X75177690Y-53626845D01*
X75177690Y-53626845D02*
X75253881Y-53664940D01*
X75253881Y-53664940D02*
X75291976Y-53703035D01*
X75291976Y-53703035D02*
X75330071Y-53779226D01*
X75330071Y-53779226D02*
X75330071Y-53855416D01*
X75330071Y-53855416D02*
X75291976Y-53931607D01*
X75291976Y-53931607D02*
X75253881Y-53969702D01*
X75253881Y-53969702D02*
X75177690Y-54007797D01*
X75177690Y-54007797D02*
X74911024Y-54007797D01*
X76053881Y-53626845D02*
X75901500Y-53626845D01*
X75901500Y-53626845D02*
X75825309Y-53664940D01*
X75825309Y-53664940D02*
X75787214Y-53703035D01*
X75787214Y-53703035D02*
X75711024Y-53817321D01*
X75711024Y-53817321D02*
X75672928Y-53969702D01*
X75672928Y-53969702D02*
X75672928Y-54274464D01*
X75672928Y-54274464D02*
X75711024Y-54350654D01*
X75711024Y-54350654D02*
X75749119Y-54388750D01*
X75749119Y-54388750D02*
X75825309Y-54426845D01*
X75825309Y-54426845D02*
X75977690Y-54426845D01*
X75977690Y-54426845D02*
X76053881Y-54388750D01*
X76053881Y-54388750D02*
X76091976Y-54350654D01*
X76091976Y-54350654D02*
X76130071Y-54274464D01*
X76130071Y-54274464D02*
X76130071Y-54083988D01*
X76130071Y-54083988D02*
X76091976Y-54007797D01*
X76091976Y-54007797D02*
X76053881Y-53969702D01*
X76053881Y-53969702D02*
X75977690Y-53931607D01*
X75977690Y-53931607D02*
X75825309Y-53931607D01*
X75825309Y-53931607D02*
X75749119Y-53969702D01*
X75749119Y-53969702D02*
X75711024Y-54007797D01*
X75711024Y-54007797D02*
X75672928Y-54083988D01*
X75234833Y-38767797D02*
X74968167Y-38767797D01*
X74968167Y-39186845D02*
X74968167Y-38386845D01*
X74968167Y-38386845D02*
X75349119Y-38386845D01*
X76034833Y-38386845D02*
X75653881Y-38386845D01*
X75653881Y-38386845D02*
X75615785Y-38767797D01*
X75615785Y-38767797D02*
X75653881Y-38729702D01*
X75653881Y-38729702D02*
X75730071Y-38691607D01*
X75730071Y-38691607D02*
X75920547Y-38691607D01*
X75920547Y-38691607D02*
X75996738Y-38729702D01*
X75996738Y-38729702D02*
X76034833Y-38767797D01*
X76034833Y-38767797D02*
X76072928Y-38843988D01*
X76072928Y-38843988D02*
X76072928Y-39034464D01*
X76072928Y-39034464D02*
X76034833Y-39110654D01*
X76034833Y-39110654D02*
X75996738Y-39148750D01*
X75996738Y-39148750D02*
X75920547Y-39186845D01*
X75920547Y-39186845D02*
X75730071Y-39186845D01*
X75730071Y-39186845D02*
X75653881Y-39148750D01*
X75653881Y-39148750D02*
X75615785Y-39110654D01*
X82343895Y-25686845D02*
X82801038Y-25686845D01*
X82572466Y-26486845D02*
X82572466Y-25686845D01*
X82991514Y-25686845D02*
X83524848Y-26486845D01*
X83524848Y-25686845D02*
X82991514Y-26486845D01*
X83981991Y-25686845D02*
X84058181Y-25686845D01*
X84058181Y-25686845D02*
X84134372Y-25724940D01*
X84134372Y-25724940D02*
X84172467Y-25763035D01*
X84172467Y-25763035D02*
X84210562Y-25839226D01*
X84210562Y-25839226D02*
X84248657Y-25991607D01*
X84248657Y-25991607D02*
X84248657Y-26182083D01*
X84248657Y-26182083D02*
X84210562Y-26334464D01*
X84210562Y-26334464D02*
X84172467Y-26410654D01*
X84172467Y-26410654D02*
X84134372Y-26448750D01*
X84134372Y-26448750D02*
X84058181Y-26486845D01*
X84058181Y-26486845D02*
X83981991Y-26486845D01*
X83981991Y-26486845D02*
X83905800Y-26448750D01*
X83905800Y-26448750D02*
X83867705Y-26410654D01*
X83867705Y-26410654D02*
X83829610Y-26334464D01*
X83829610Y-26334464D02*
X83791514Y-26182083D01*
X83791514Y-26182083D02*
X83791514Y-25991607D01*
X83791514Y-25991607D02*
X83829610Y-25839226D01*
X83829610Y-25839226D02*
X83867705Y-25763035D01*
X83867705Y-25763035D02*
X83905800Y-25724940D01*
X83905800Y-25724940D02*
X83981991Y-25686845D01*
X85162943Y-25648750D02*
X84477229Y-26677321D01*
X85429610Y-26486845D02*
X85429610Y-25686845D01*
X85429610Y-25686845D02*
X85620086Y-25686845D01*
X85620086Y-25686845D02*
X85734372Y-25724940D01*
X85734372Y-25724940D02*
X85810562Y-25801130D01*
X85810562Y-25801130D02*
X85848657Y-25877321D01*
X85848657Y-25877321D02*
X85886753Y-26029702D01*
X85886753Y-26029702D02*
X85886753Y-26143988D01*
X85886753Y-26143988D02*
X85848657Y-26296369D01*
X85848657Y-26296369D02*
X85810562Y-26372559D01*
X85810562Y-26372559D02*
X85734372Y-26448750D01*
X85734372Y-26448750D02*
X85620086Y-26486845D01*
X85620086Y-26486845D02*
X85429610Y-26486845D01*
X86153419Y-25686845D02*
X86648657Y-25686845D01*
X86648657Y-25686845D02*
X86381991Y-25991607D01*
X86381991Y-25991607D02*
X86496276Y-25991607D01*
X86496276Y-25991607D02*
X86572467Y-26029702D01*
X86572467Y-26029702D02*
X86610562Y-26067797D01*
X86610562Y-26067797D02*
X86648657Y-26143988D01*
X86648657Y-26143988D02*
X86648657Y-26334464D01*
X86648657Y-26334464D02*
X86610562Y-26410654D01*
X86610562Y-26410654D02*
X86572467Y-26448750D01*
X86572467Y-26448750D02*
X86496276Y-26486845D01*
X86496276Y-26486845D02*
X86267705Y-26486845D01*
X86267705Y-26486845D02*
X86191514Y-26448750D01*
X86191514Y-26448750D02*
X86153419Y-26410654D01*
X86099690Y-54007797D02*
X86213976Y-54045892D01*
X86213976Y-54045892D02*
X86252071Y-54083988D01*
X86252071Y-54083988D02*
X86290167Y-54160178D01*
X86290167Y-54160178D02*
X86290167Y-54274464D01*
X86290167Y-54274464D02*
X86252071Y-54350654D01*
X86252071Y-54350654D02*
X86213976Y-54388750D01*
X86213976Y-54388750D02*
X86137786Y-54426845D01*
X86137786Y-54426845D02*
X85833024Y-54426845D01*
X85833024Y-54426845D02*
X85833024Y-53626845D01*
X85833024Y-53626845D02*
X86099690Y-53626845D01*
X86099690Y-53626845D02*
X86175881Y-53664940D01*
X86175881Y-53664940D02*
X86213976Y-53703035D01*
X86213976Y-53703035D02*
X86252071Y-53779226D01*
X86252071Y-53779226D02*
X86252071Y-53855416D01*
X86252071Y-53855416D02*
X86213976Y-53931607D01*
X86213976Y-53931607D02*
X86175881Y-53969702D01*
X86175881Y-53969702D02*
X86099690Y-54007797D01*
X86099690Y-54007797D02*
X85833024Y-54007797D01*
X87013976Y-53626845D02*
X86633024Y-53626845D01*
X86633024Y-53626845D02*
X86594928Y-54007797D01*
X86594928Y-54007797D02*
X86633024Y-53969702D01*
X86633024Y-53969702D02*
X86709214Y-53931607D01*
X86709214Y-53931607D02*
X86899690Y-53931607D01*
X86899690Y-53931607D02*
X86975881Y-53969702D01*
X86975881Y-53969702D02*
X87013976Y-54007797D01*
X87013976Y-54007797D02*
X87052071Y-54083988D01*
X87052071Y-54083988D02*
X87052071Y-54274464D01*
X87052071Y-54274464D02*
X87013976Y-54350654D01*
X87013976Y-54350654D02*
X86975881Y-54388750D01*
X86975881Y-54388750D02*
X86899690Y-54426845D01*
X86899690Y-54426845D02*
X86709214Y-54426845D01*
X86709214Y-54426845D02*
X86633024Y-54388750D01*
X86633024Y-54388750D02*
X86594928Y-54350654D01*
X85953676Y-34660190D02*
X85877486Y-34622095D01*
X85877486Y-34622095D02*
X85763200Y-34622095D01*
X85763200Y-34622095D02*
X85648914Y-34660190D01*
X85648914Y-34660190D02*
X85572724Y-34736380D01*
X85572724Y-34736380D02*
X85534629Y-34812571D01*
X85534629Y-34812571D02*
X85496533Y-34964952D01*
X85496533Y-34964952D02*
X85496533Y-35079238D01*
X85496533Y-35079238D02*
X85534629Y-35231619D01*
X85534629Y-35231619D02*
X85572724Y-35307809D01*
X85572724Y-35307809D02*
X85648914Y-35384000D01*
X85648914Y-35384000D02*
X85763200Y-35422095D01*
X85763200Y-35422095D02*
X85839391Y-35422095D01*
X85839391Y-35422095D02*
X85953676Y-35384000D01*
X85953676Y-35384000D02*
X85991772Y-35345904D01*
X85991772Y-35345904D02*
X85991772Y-35079238D01*
X85991772Y-35079238D02*
X85839391Y-35079238D01*
X86334629Y-35422095D02*
X86334629Y-34622095D01*
X86334629Y-34622095D02*
X86791772Y-35422095D01*
X86791772Y-35422095D02*
X86791772Y-34622095D01*
X87172724Y-35422095D02*
X87172724Y-34622095D01*
X87172724Y-34622095D02*
X87363200Y-34622095D01*
X87363200Y-34622095D02*
X87477486Y-34660190D01*
X87477486Y-34660190D02*
X87553676Y-34736380D01*
X87553676Y-34736380D02*
X87591771Y-34812571D01*
X87591771Y-34812571D02*
X87629867Y-34964952D01*
X87629867Y-34964952D02*
X87629867Y-35079238D01*
X87629867Y-35079238D02*
X87591771Y-35231619D01*
X87591771Y-35231619D02*
X87553676Y-35307809D01*
X87553676Y-35307809D02*
X87477486Y-35384000D01*
X87477486Y-35384000D02*
X87363200Y-35422095D01*
X87363200Y-35422095D02*
X87172724Y-35422095D01*
X75234833Y-43847797D02*
X74968167Y-43847797D01*
X74968167Y-44266845D02*
X74968167Y-43466845D01*
X74968167Y-43466845D02*
X75349119Y-43466845D01*
X75577690Y-43466845D02*
X76111024Y-43466845D01*
X76111024Y-43466845D02*
X75768166Y-44266845D01*
X85833024Y-41726845D02*
X85833024Y-40926845D01*
X85833024Y-40926845D02*
X86023500Y-40926845D01*
X86023500Y-40926845D02*
X86137786Y-40964940D01*
X86137786Y-40964940D02*
X86213976Y-41041130D01*
X86213976Y-41041130D02*
X86252071Y-41117321D01*
X86252071Y-41117321D02*
X86290167Y-41269702D01*
X86290167Y-41269702D02*
X86290167Y-41383988D01*
X86290167Y-41383988D02*
X86252071Y-41536369D01*
X86252071Y-41536369D02*
X86213976Y-41612559D01*
X86213976Y-41612559D02*
X86137786Y-41688750D01*
X86137786Y-41688750D02*
X86023500Y-41726845D01*
X86023500Y-41726845D02*
X85833024Y-41726845D01*
X86975881Y-41193511D02*
X86975881Y-41726845D01*
X86785405Y-40888750D02*
X86594928Y-41460178D01*
X86594928Y-41460178D02*
X87090167Y-41460178D01*
X85833024Y-39186845D02*
X85833024Y-38386845D01*
X85833024Y-38386845D02*
X86023500Y-38386845D01*
X86023500Y-38386845D02*
X86137786Y-38424940D01*
X86137786Y-38424940D02*
X86213976Y-38501130D01*
X86213976Y-38501130D02*
X86252071Y-38577321D01*
X86252071Y-38577321D02*
X86290167Y-38729702D01*
X86290167Y-38729702D02*
X86290167Y-38843988D01*
X86290167Y-38843988D02*
X86252071Y-38996369D01*
X86252071Y-38996369D02*
X86213976Y-39072559D01*
X86213976Y-39072559D02*
X86137786Y-39148750D01*
X86137786Y-39148750D02*
X86023500Y-39186845D01*
X86023500Y-39186845D02*
X85833024Y-39186845D01*
X86785405Y-38386845D02*
X86861595Y-38386845D01*
X86861595Y-38386845D02*
X86937786Y-38424940D01*
X86937786Y-38424940D02*
X86975881Y-38463035D01*
X86975881Y-38463035D02*
X87013976Y-38539226D01*
X87013976Y-38539226D02*
X87052071Y-38691607D01*
X87052071Y-38691607D02*
X87052071Y-38882083D01*
X87052071Y-38882083D02*
X87013976Y-39034464D01*
X87013976Y-39034464D02*
X86975881Y-39110654D01*
X86975881Y-39110654D02*
X86937786Y-39148750D01*
X86937786Y-39148750D02*
X86861595Y-39186845D01*
X86861595Y-39186845D02*
X86785405Y-39186845D01*
X86785405Y-39186845D02*
X86709214Y-39148750D01*
X86709214Y-39148750D02*
X86671119Y-39110654D01*
X86671119Y-39110654D02*
X86633024Y-39034464D01*
X86633024Y-39034464D02*
X86594928Y-38882083D01*
X86594928Y-38882083D02*
X86594928Y-38691607D01*
X86594928Y-38691607D02*
X86633024Y-38539226D01*
X86633024Y-38539226D02*
X86671119Y-38463035D01*
X86671119Y-38463035D02*
X86709214Y-38424940D01*
X86709214Y-38424940D02*
X86785405Y-38386845D01*
X86290167Y-44190654D02*
X86252071Y-44228750D01*
X86252071Y-44228750D02*
X86137786Y-44266845D01*
X86137786Y-44266845D02*
X86061595Y-44266845D01*
X86061595Y-44266845D02*
X85947309Y-44228750D01*
X85947309Y-44228750D02*
X85871119Y-44152559D01*
X85871119Y-44152559D02*
X85833024Y-44076369D01*
X85833024Y-44076369D02*
X85794928Y-43923988D01*
X85794928Y-43923988D02*
X85794928Y-43809702D01*
X85794928Y-43809702D02*
X85833024Y-43657321D01*
X85833024Y-43657321D02*
X85871119Y-43581130D01*
X85871119Y-43581130D02*
X85947309Y-43504940D01*
X85947309Y-43504940D02*
X86061595Y-43466845D01*
X86061595Y-43466845D02*
X86137786Y-43466845D01*
X86137786Y-43466845D02*
X86252071Y-43504940D01*
X86252071Y-43504940D02*
X86290167Y-43543035D01*
X86975881Y-43466845D02*
X86823500Y-43466845D01*
X86823500Y-43466845D02*
X86747309Y-43504940D01*
X86747309Y-43504940D02*
X86709214Y-43543035D01*
X86709214Y-43543035D02*
X86633024Y-43657321D01*
X86633024Y-43657321D02*
X86594928Y-43809702D01*
X86594928Y-43809702D02*
X86594928Y-44114464D01*
X86594928Y-44114464D02*
X86633024Y-44190654D01*
X86633024Y-44190654D02*
X86671119Y-44228750D01*
X86671119Y-44228750D02*
X86747309Y-44266845D01*
X86747309Y-44266845D02*
X86899690Y-44266845D01*
X86899690Y-44266845D02*
X86975881Y-44228750D01*
X86975881Y-44228750D02*
X87013976Y-44190654D01*
X87013976Y-44190654D02*
X87052071Y-44114464D01*
X87052071Y-44114464D02*
X87052071Y-43923988D01*
X87052071Y-43923988D02*
X87013976Y-43847797D01*
X87013976Y-43847797D02*
X86975881Y-43809702D01*
X86975881Y-43809702D02*
X86899690Y-43771607D01*
X86899690Y-43771607D02*
X86747309Y-43771607D01*
X86747309Y-43771607D02*
X86671119Y-43809702D01*
X86671119Y-43809702D02*
X86633024Y-43847797D01*
X86633024Y-43847797D02*
X86594928Y-43923988D01*
X74472933Y-34520495D02*
X74739600Y-35320495D01*
X74739600Y-35320495D02*
X75006266Y-34520495D01*
X75730076Y-35244304D02*
X75691980Y-35282400D01*
X75691980Y-35282400D02*
X75577695Y-35320495D01*
X75577695Y-35320495D02*
X75501504Y-35320495D01*
X75501504Y-35320495D02*
X75387218Y-35282400D01*
X75387218Y-35282400D02*
X75311028Y-35206209D01*
X75311028Y-35206209D02*
X75272933Y-35130019D01*
X75272933Y-35130019D02*
X75234837Y-34977638D01*
X75234837Y-34977638D02*
X75234837Y-34863352D01*
X75234837Y-34863352D02*
X75272933Y-34710971D01*
X75272933Y-34710971D02*
X75311028Y-34634780D01*
X75311028Y-34634780D02*
X75387218Y-34558590D01*
X75387218Y-34558590D02*
X75501504Y-34520495D01*
X75501504Y-34520495D02*
X75577695Y-34520495D01*
X75577695Y-34520495D02*
X75691980Y-34558590D01*
X75691980Y-34558590D02*
X75730076Y-34596685D01*
X76530076Y-35244304D02*
X76491980Y-35282400D01*
X76491980Y-35282400D02*
X76377695Y-35320495D01*
X76377695Y-35320495D02*
X76301504Y-35320495D01*
X76301504Y-35320495D02*
X76187218Y-35282400D01*
X76187218Y-35282400D02*
X76111028Y-35206209D01*
X76111028Y-35206209D02*
X76072933Y-35130019D01*
X76072933Y-35130019D02*
X76034837Y-34977638D01*
X76034837Y-34977638D02*
X76034837Y-34863352D01*
X76034837Y-34863352D02*
X76072933Y-34710971D01*
X76072933Y-34710971D02*
X76111028Y-34634780D01*
X76111028Y-34634780D02*
X76187218Y-34558590D01*
X76187218Y-34558590D02*
X76301504Y-34520495D01*
X76301504Y-34520495D02*
X76377695Y-34520495D01*
X76377695Y-34520495D02*
X76491980Y-34558590D01*
X76491980Y-34558590D02*
X76530076Y-34596685D01*
X74949119Y-26486845D02*
X74682452Y-26105892D01*
X74491976Y-26486845D02*
X74491976Y-25686845D01*
X74491976Y-25686845D02*
X74796738Y-25686845D01*
X74796738Y-25686845D02*
X74872928Y-25724940D01*
X74872928Y-25724940D02*
X74911023Y-25763035D01*
X74911023Y-25763035D02*
X74949119Y-25839226D01*
X74949119Y-25839226D02*
X74949119Y-25953511D01*
X74949119Y-25953511D02*
X74911023Y-26029702D01*
X74911023Y-26029702D02*
X74872928Y-26067797D01*
X74872928Y-26067797D02*
X74796738Y-26105892D01*
X74796738Y-26105892D02*
X74491976Y-26105892D01*
X75253880Y-26258273D02*
X75634833Y-26258273D01*
X75177690Y-26486845D02*
X75444357Y-25686845D01*
X75444357Y-25686845D02*
X75711023Y-26486845D01*
X75901499Y-25686845D02*
X76091975Y-26486845D01*
X76091975Y-26486845D02*
X76244356Y-25915416D01*
X76244356Y-25915416D02*
X76396737Y-26486845D01*
X76396737Y-26486845D02*
X76587214Y-25686845D01*
X75234833Y-36227797D02*
X74968167Y-36227797D01*
X74968167Y-36646845D02*
X74968167Y-35846845D01*
X74968167Y-35846845D02*
X75349119Y-35846845D01*
X75996738Y-36113511D02*
X75996738Y-36646845D01*
X75806262Y-35808750D02*
X75615785Y-36380178D01*
X75615785Y-36380178D02*
X76111024Y-36380178D01*
X85833024Y-46806845D02*
X85833024Y-46006845D01*
X85833024Y-46006845D02*
X86023500Y-46006845D01*
X86023500Y-46006845D02*
X86137786Y-46044940D01*
X86137786Y-46044940D02*
X86213976Y-46121130D01*
X86213976Y-46121130D02*
X86252071Y-46197321D01*
X86252071Y-46197321D02*
X86290167Y-46349702D01*
X86290167Y-46349702D02*
X86290167Y-46463988D01*
X86290167Y-46463988D02*
X86252071Y-46616369D01*
X86252071Y-46616369D02*
X86213976Y-46692559D01*
X86213976Y-46692559D02*
X86137786Y-46768750D01*
X86137786Y-46768750D02*
X86023500Y-46806845D01*
X86023500Y-46806845D02*
X85833024Y-46806845D01*
X86556833Y-46006845D02*
X87090167Y-46006845D01*
X87090167Y-46006845D02*
X86747309Y-46806845D01*
X85833024Y-36646845D02*
X85833024Y-35846845D01*
X85833024Y-35846845D02*
X86023500Y-35846845D01*
X86023500Y-35846845D02*
X86137786Y-35884940D01*
X86137786Y-35884940D02*
X86213976Y-35961130D01*
X86213976Y-35961130D02*
X86252071Y-36037321D01*
X86252071Y-36037321D02*
X86290167Y-36189702D01*
X86290167Y-36189702D02*
X86290167Y-36303988D01*
X86290167Y-36303988D02*
X86252071Y-36456369D01*
X86252071Y-36456369D02*
X86213976Y-36532559D01*
X86213976Y-36532559D02*
X86137786Y-36608750D01*
X86137786Y-36608750D02*
X86023500Y-36646845D01*
X86023500Y-36646845D02*
X85833024Y-36646845D01*
X87052071Y-36646845D02*
X86594928Y-36646845D01*
X86823500Y-36646845D02*
X86823500Y-35846845D01*
X86823500Y-35846845D02*
X86747309Y-35961130D01*
X86747309Y-35961130D02*
X86671119Y-36037321D01*
X86671119Y-36037321D02*
X86594928Y-36075416D01*
D12*
X58190000Y-42862500D02*
X58840000Y-42862500D01*
X58840000Y-41742500D02*
X58840000Y-43982500D01*
X58840000Y-43982500D02*
X63080000Y-43982500D01*
X59440000Y-41742500D02*
X59440000Y-43982500D01*
X59560000Y-41742500D02*
X59560000Y-43982500D01*
X59680000Y-41742500D02*
X59680000Y-43982500D01*
X63080000Y-41742500D02*
X58840000Y-41742500D01*
X63080000Y-43982500D02*
X63080000Y-41742500D01*
X63730000Y-42862500D02*
X63080000Y-42862500D01*
G36*
X146936486Y-54683070D02*
G01*
X147804109Y-54696832D01*
X148671733Y-54710594D01*
X148671733Y-66480099D01*
X142221139Y-66492863D01*
X135770545Y-66505628D01*
X135770545Y-69372178D01*
X143013317Y-69372178D01*
X143013317Y-71736138D01*
X139907476Y-71736226D01*
X139299258Y-71736829D01*
X138675155Y-71738530D01*
X138050472Y-71741219D01*
X137440514Y-71744787D01*
X136860587Y-71749125D01*
X136325997Y-71754124D01*
X135852048Y-71759674D01*
X135454046Y-71765665D01*
X135255000Y-71769491D01*
X133708367Y-71802668D01*
X133708367Y-77168217D01*
X135984307Y-77168988D01*
X136454706Y-77170012D01*
X136895045Y-77172637D01*
X137294941Y-77176680D01*
X137644007Y-77181960D01*
X137931858Y-77188294D01*
X138148109Y-77195500D01*
X138282373Y-77203397D01*
X138323666Y-77210017D01*
X138339586Y-77240606D01*
X138352469Y-77315170D01*
X138362489Y-77441226D01*
X138369816Y-77626287D01*
X138374622Y-77877870D01*
X138377080Y-78203489D01*
X138377362Y-78610658D01*
X138375638Y-79106895D01*
X138373963Y-79409742D01*
X138360842Y-81569207D01*
X137459203Y-81582978D01*
X137115683Y-81586435D01*
X136861474Y-81584438D01*
X136685411Y-81576391D01*
X136576329Y-81561697D01*
X136523063Y-81539761D01*
X136516904Y-81532681D01*
X136504032Y-81464046D01*
X136492754Y-81311811D01*
X136483768Y-81092966D01*
X136477775Y-80824500D01*
X136475474Y-80525544D01*
X136474703Y-79582475D01*
X133708367Y-79582475D01*
X133708367Y-83857722D01*
X131897674Y-83857722D01*
X131897674Y-88181342D01*
X130778565Y-88194879D01*
X129659456Y-88208415D01*
X129645861Y-89252079D01*
X129632266Y-90295742D01*
X127069159Y-90295742D01*
X127069159Y-100003069D01*
X129734901Y-100003069D01*
X129734901Y-101511980D01*
X128791832Y-101512095D01*
X128440732Y-101513775D01*
X128022993Y-101518382D01*
X127572511Y-101525386D01*
X127123181Y-101534252D01*
X126708899Y-101544450D01*
X126679357Y-101545277D01*
X125509951Y-101578343D01*
X125509951Y-94523789D01*
X124893812Y-94509666D01*
X124277674Y-94495544D01*
X124250478Y-92406052D01*
X123283284Y-92419709D01*
X122316089Y-92433366D01*
X122290941Y-93464455D01*
X122265792Y-94495544D01*
X119222822Y-94522168D01*
X119222822Y-95828415D01*
X121886648Y-95828415D01*
X121914691Y-95941584D01*
X121924225Y-96033427D01*
X121930032Y-96202592D01*
X121931704Y-96425863D01*
X121928829Y-96680020D01*
X121928223Y-96708613D01*
X121913713Y-97362475D01*
X119852791Y-97401235D01*
X119405545Y-97409035D01*
X118988609Y-97415129D01*
X118612940Y-97419445D01*
X118289494Y-97421909D01*
X118029228Y-97422449D01*
X117843099Y-97420992D01*
X117742063Y-97417464D01*
X117727741Y-97415388D01*
X117712329Y-97390165D01*
X117699434Y-97322546D01*
X117688866Y-97205341D01*
X117680432Y-97031361D01*
X117673944Y-96793415D01*
X117669209Y-96484313D01*
X117666037Y-96096866D01*
X117664237Y-95623884D01*
X117663619Y-95058177D01*
X117663614Y-95000093D01*
X117663614Y-92609405D01*
X115148763Y-92609405D01*
X115148763Y-90547227D01*
X112736326Y-90547227D01*
X112722841Y-89352673D01*
X112709357Y-88158118D01*
X111816585Y-88144384D01*
X110923812Y-88130649D01*
X110923812Y-86070792D01*
X109947134Y-86070792D01*
X109639542Y-86069272D01*
X109363355Y-86065042D01*
X109135558Y-86058590D01*
X108973135Y-86050409D01*
X108893069Y-86040990D01*
X108890896Y-86040262D01*
X108863677Y-86018548D01*
X108843350Y-85968681D01*
X108828952Y-85877895D01*
X108819522Y-85733430D01*
X108814096Y-85522520D01*
X108811712Y-85232403D01*
X108811337Y-84985405D01*
X108811337Y-83961078D01*
X108094604Y-83947123D01*
X107377872Y-83933168D01*
X107352272Y-73094158D01*
X109060781Y-73094158D01*
X109074376Y-74137821D01*
X109087971Y-75181485D01*
X110433416Y-75194880D01*
X111778862Y-75208276D01*
X111778862Y-77319108D01*
X113891337Y-77319108D01*
X113891337Y-79432808D01*
X115764901Y-79419622D01*
X117638466Y-79406435D01*
X117652060Y-78362772D01*
X117665655Y-77319108D01*
X120629098Y-77319108D01*
X120642693Y-76275445D01*
X120656287Y-75231782D01*
X122453388Y-75218573D01*
X124250488Y-75205365D01*
X124264081Y-74162336D01*
X124277674Y-73119306D01*
X125170446Y-73105572D01*
X126063218Y-73091837D01*
X126063218Y-56594808D01*
X130036684Y-56594808D01*
X130036684Y-57693922D01*
X130038154Y-58016743D01*
X130042271Y-58305151D01*
X130048590Y-58544150D01*
X130056666Y-58718745D01*
X130066057Y-58813939D01*
X130070215Y-58826567D01*
X130128327Y-58836488D01*
X130271832Y-58845244D01*
X130485529Y-58852375D01*
X130754220Y-58857418D01*
X131062704Y-58859913D01*
X131175791Y-58860099D01*
X131529853Y-58859867D01*
X131796227Y-58858287D01*
X131987821Y-58854030D01*
X132117541Y-58845769D01*
X132198295Y-58832175D01*
X132242989Y-58811920D01*
X132264531Y-58783676D01*
X132275626Y-58746930D01*
X132283479Y-58663153D01*
X132289027Y-58496198D01*
X132292058Y-58263459D01*
X132292364Y-57982329D01*
X132289733Y-57670203D01*
X132289158Y-57627821D01*
X132274901Y-56621881D01*
X131155792Y-56608344D01*
X130036684Y-56594808D01*
X126063218Y-56594808D01*
X126063218Y-54685445D01*
X127823614Y-54685445D01*
X127823614Y-53528613D01*
X146936486Y-53528613D01*
X146936486Y-54683070D01*
G37*
X242697000Y-35282000D02*
X242697000Y-34632000D01*
X241577000Y-34632000D02*
X243817000Y-34632000D01*
X243817000Y-34632000D02*
X243817000Y-30392000D01*
X241577000Y-34032000D02*
X243817000Y-34032000D01*
X241577000Y-33912000D02*
X243817000Y-33912000D01*
X241577000Y-33792000D02*
X243817000Y-33792000D01*
X241577000Y-30392000D02*
X241577000Y-34632000D01*
X243817000Y-30392000D02*
X241577000Y-30392000D01*
X242697000Y-29742000D02*
X242697000Y-30392000D01*
X47526250Y-41532500D02*
X47526250Y-42862500D01*
X46196250Y-41532500D02*
X47526250Y-41532500D01*
X44926250Y-41532500D02*
X39786250Y-41532500D01*
X44926250Y-41532500D02*
X44926250Y-44192500D01*
X39786250Y-41532500D02*
X39786250Y-44192500D01*
X44926250Y-44192500D02*
X39786250Y-44192500D01*
X242887500Y-74207500D02*
X242887500Y-73557500D01*
X241767500Y-73557500D02*
X244007500Y-73557500D01*
X244007500Y-73557500D02*
X244007500Y-69317500D01*
X241767500Y-72957500D02*
X244007500Y-72957500D01*
X241767500Y-72837500D02*
X244007500Y-72837500D01*
X241767500Y-72717500D02*
X244007500Y-72717500D01*
X241767500Y-69317500D02*
X241767500Y-73557500D01*
X244007500Y-69317500D02*
X241767500Y-69317500D01*
X242887500Y-68667500D02*
X242887500Y-69317500D01*
X204787500Y-74207500D02*
X204787500Y-73557500D01*
X203667500Y-73557500D02*
X205907500Y-73557500D01*
X205907500Y-73557500D02*
X205907500Y-69317500D01*
X203667500Y-72957500D02*
X205907500Y-72957500D01*
X203667500Y-72837500D02*
X205907500Y-72837500D01*
X203667500Y-72717500D02*
X205907500Y-72717500D01*
X203667500Y-69317500D02*
X203667500Y-73557500D01*
X205907500Y-69317500D02*
X203667500Y-69317500D01*
X204787500Y-68667500D02*
X204787500Y-69317500D01*
X242887500Y-112307500D02*
X242887500Y-111657500D01*
X241767500Y-111657500D02*
X244007500Y-111657500D01*
X244007500Y-111657500D02*
X244007500Y-107417500D01*
X241767500Y-111057500D02*
X244007500Y-111057500D01*
X241767500Y-110937500D02*
X244007500Y-110937500D01*
X241767500Y-110817500D02*
X244007500Y-110817500D01*
X241767500Y-107417500D02*
X241767500Y-111657500D01*
X244007500Y-107417500D02*
X241767500Y-107417500D01*
X242887500Y-106767500D02*
X242887500Y-107417500D01*
X109537500Y-54363750D02*
X109537500Y-53713750D01*
X108417500Y-53713750D02*
X110657500Y-53713750D01*
X110657500Y-53713750D02*
X110657500Y-49473750D01*
X108417500Y-53113750D02*
X110657500Y-53113750D01*
X108417500Y-52993750D02*
X110657500Y-52993750D01*
X108417500Y-52873750D02*
X110657500Y-52873750D01*
X108417500Y-49473750D02*
X108417500Y-53713750D01*
X110657500Y-49473750D02*
X108417500Y-49473750D01*
X109537500Y-48823750D02*
X109537500Y-49473750D01*
X166687500Y-93257500D02*
X166687500Y-92607500D01*
X165567500Y-92607500D02*
X167807500Y-92607500D01*
X167807500Y-92607500D02*
X167807500Y-88367500D01*
X165567500Y-92007500D02*
X167807500Y-92007500D01*
X165567500Y-91887500D02*
X167807500Y-91887500D01*
X165567500Y-91767500D02*
X167807500Y-91767500D01*
X165567500Y-88367500D02*
X165567500Y-92607500D01*
X167807500Y-88367500D02*
X165567500Y-88367500D01*
X166687500Y-87717500D02*
X166687500Y-88367500D01*
X147637500Y-93257500D02*
X147637500Y-92607500D01*
X146517500Y-92607500D02*
X148757500Y-92607500D01*
X148757500Y-92607500D02*
X148757500Y-88367500D01*
X146517500Y-92007500D02*
X148757500Y-92007500D01*
X146517500Y-91887500D02*
X148757500Y-91887500D01*
X146517500Y-91767500D02*
X148757500Y-91767500D01*
X146517500Y-88367500D02*
X146517500Y-92607500D01*
X148757500Y-88367500D02*
X146517500Y-88367500D01*
X147637500Y-87717500D02*
X147637500Y-88367500D01*
X109537500Y-35313750D02*
X109537500Y-34663750D01*
X108417500Y-34663750D02*
X110657500Y-34663750D01*
X110657500Y-34663750D02*
X110657500Y-30423750D01*
X108417500Y-34063750D02*
X110657500Y-34063750D01*
X108417500Y-33943750D02*
X110657500Y-33943750D01*
X108417500Y-33823750D02*
X110657500Y-33823750D01*
X108417500Y-30423750D02*
X108417500Y-34663750D01*
X110657500Y-30423750D02*
X108417500Y-30423750D01*
X109537500Y-29773750D02*
X109537500Y-30423750D01*
X128587500Y-93257500D02*
X128587500Y-92607500D01*
X127467500Y-92607500D02*
X129707500Y-92607500D01*
X129707500Y-92607500D02*
X129707500Y-88367500D01*
X127467500Y-92007500D02*
X129707500Y-92007500D01*
X127467500Y-91887500D02*
X129707500Y-91887500D01*
X127467500Y-91767500D02*
X129707500Y-91767500D01*
X127467500Y-88367500D02*
X127467500Y-92607500D01*
X129707500Y-88367500D02*
X127467500Y-88367500D01*
X128587500Y-87717500D02*
X128587500Y-88367500D01*
X128587500Y-112307500D02*
X128587500Y-111657500D01*
X127467500Y-111657500D02*
X129707500Y-111657500D01*
X129707500Y-111657500D02*
X129707500Y-107417500D01*
X127467500Y-111057500D02*
X129707500Y-111057500D01*
X127467500Y-110937500D02*
X129707500Y-110937500D01*
X127467500Y-110817500D02*
X129707500Y-110817500D01*
X127467500Y-107417500D02*
X127467500Y-111657500D01*
X129707500Y-107417500D02*
X127467500Y-107417500D01*
X128587500Y-106767500D02*
X128587500Y-107417500D01*
X185737500Y-112307500D02*
X185737500Y-111657500D01*
X184617500Y-111657500D02*
X186857500Y-111657500D01*
X186857500Y-111657500D02*
X186857500Y-107417500D01*
X184617500Y-111057500D02*
X186857500Y-111057500D01*
X184617500Y-110937500D02*
X186857500Y-110937500D01*
X184617500Y-110817500D02*
X186857500Y-110817500D01*
X184617500Y-107417500D02*
X184617500Y-111657500D01*
X186857500Y-107417500D02*
X184617500Y-107417500D01*
X185737500Y-106767500D02*
X185737500Y-107417500D01*
X223837500Y-35313750D02*
X223837500Y-34663750D01*
X222717500Y-34663750D02*
X224957500Y-34663750D01*
X224957500Y-34663750D02*
X224957500Y-30423750D01*
X222717500Y-34063750D02*
X224957500Y-34063750D01*
X222717500Y-33943750D02*
X224957500Y-33943750D01*
X222717500Y-33823750D02*
X224957500Y-33823750D01*
X222717500Y-30423750D02*
X222717500Y-34663750D01*
X224957500Y-30423750D02*
X222717500Y-30423750D01*
X223837500Y-29773750D02*
X223837500Y-30423750D01*
X248848750Y-100012500D02*
X249498750Y-100012500D01*
X249498750Y-98892500D02*
X249498750Y-101132500D01*
X249498750Y-101132500D02*
X253738750Y-101132500D01*
X250098750Y-98892500D02*
X250098750Y-101132500D01*
X250218750Y-98892500D02*
X250218750Y-101132500D01*
X250338750Y-98892500D02*
X250338750Y-101132500D01*
X253738750Y-98892500D02*
X249498750Y-98892500D01*
X253738750Y-101132500D02*
X253738750Y-98892500D01*
X254388750Y-100012500D02*
X253738750Y-100012500D01*
X71437500Y-112307500D02*
X71437500Y-111657500D01*
X70317500Y-111657500D02*
X72557500Y-111657500D01*
X72557500Y-111657500D02*
X72557500Y-107417500D01*
X70317500Y-111057500D02*
X72557500Y-111057500D01*
X70317500Y-110937500D02*
X72557500Y-110937500D01*
X70317500Y-110817500D02*
X72557500Y-110817500D01*
X70317500Y-107417500D02*
X70317500Y-111657500D01*
X72557500Y-107417500D02*
X70317500Y-107417500D01*
X71437500Y-106767500D02*
X71437500Y-107417500D01*
X204787500Y-93257500D02*
X204787500Y-92607500D01*
X203667500Y-92607500D02*
X205907500Y-92607500D01*
X205907500Y-92607500D02*
X205907500Y-88367500D01*
X203667500Y-92007500D02*
X205907500Y-92007500D01*
X203667500Y-91887500D02*
X205907500Y-91887500D01*
X203667500Y-91767500D02*
X205907500Y-91767500D01*
X203667500Y-88367500D02*
X203667500Y-92607500D01*
X205907500Y-88367500D02*
X203667500Y-88367500D01*
X204787500Y-87717500D02*
X204787500Y-88367500D01*
X71437500Y-93257500D02*
X71437500Y-92607500D01*
X70317500Y-92607500D02*
X72557500Y-92607500D01*
X72557500Y-92607500D02*
X72557500Y-88367500D01*
X70317500Y-92007500D02*
X72557500Y-92007500D01*
X70317500Y-91887500D02*
X72557500Y-91887500D01*
X70317500Y-91767500D02*
X72557500Y-91767500D01*
X70317500Y-88367500D02*
X70317500Y-92607500D01*
X72557500Y-88367500D02*
X70317500Y-88367500D01*
X71437500Y-87717500D02*
X71437500Y-88367500D01*
X185737500Y-74207500D02*
X185737500Y-73557500D01*
X184617500Y-73557500D02*
X186857500Y-73557500D01*
X186857500Y-73557500D02*
X186857500Y-69317500D01*
X184617500Y-72957500D02*
X186857500Y-72957500D01*
X184617500Y-72837500D02*
X186857500Y-72837500D01*
X184617500Y-72717500D02*
X186857500Y-72717500D01*
X184617500Y-69317500D02*
X184617500Y-73557500D01*
X186857500Y-69317500D02*
X184617500Y-69317500D01*
X185737500Y-68667500D02*
X185737500Y-69317500D01*
X147637500Y-35313750D02*
X147637500Y-34663750D01*
X146517500Y-34663750D02*
X148757500Y-34663750D01*
X148757500Y-34663750D02*
X148757500Y-30423750D01*
X146517500Y-34063750D02*
X148757500Y-34063750D01*
X146517500Y-33943750D02*
X148757500Y-33943750D01*
X146517500Y-33823750D02*
X148757500Y-33823750D01*
X146517500Y-30423750D02*
X146517500Y-34663750D01*
X148757500Y-30423750D02*
X146517500Y-30423750D01*
X147637500Y-29773750D02*
X147637500Y-30423750D01*
X204787500Y-35313750D02*
X204787500Y-34663750D01*
X203667500Y-34663750D02*
X205907500Y-34663750D01*
X205907500Y-34663750D02*
X205907500Y-30423750D01*
X203667500Y-34063750D02*
X205907500Y-34063750D01*
X203667500Y-33943750D02*
X205907500Y-33943750D01*
X203667500Y-33823750D02*
X205907500Y-33823750D01*
X203667500Y-30423750D02*
X203667500Y-34663750D01*
X205907500Y-30423750D02*
X203667500Y-30423750D01*
X204787500Y-29773750D02*
X204787500Y-30423750D01*
X63746250Y-61912500D02*
X64396250Y-61912500D01*
X64396250Y-60792500D02*
X64396250Y-63032500D01*
X64396250Y-63032500D02*
X68636250Y-63032500D01*
X64996250Y-60792500D02*
X64996250Y-63032500D01*
X65116250Y-60792500D02*
X65116250Y-63032500D01*
X65236250Y-60792500D02*
X65236250Y-63032500D01*
X68636250Y-60792500D02*
X64396250Y-60792500D01*
X68636250Y-63032500D02*
X68636250Y-60792500D01*
X69286250Y-61912500D02*
X68636250Y-61912500D01*
X229386000Y-98552000D02*
X230036000Y-98552000D01*
X230036000Y-97432000D02*
X230036000Y-99672000D01*
X230036000Y-99672000D02*
X234276000Y-99672000D01*
X230636000Y-97432000D02*
X230636000Y-99672000D01*
X230756000Y-97432000D02*
X230756000Y-99672000D01*
X230876000Y-97432000D02*
X230876000Y-99672000D01*
X234276000Y-97432000D02*
X230036000Y-97432000D01*
X234276000Y-99672000D02*
X234276000Y-97432000D01*
X234926000Y-98552000D02*
X234276000Y-98552000D01*
X52387500Y-74207500D02*
X52387500Y-73557500D01*
X51267500Y-73557500D02*
X53507500Y-73557500D01*
X53507500Y-73557500D02*
X53507500Y-69317500D01*
X51267500Y-72957500D02*
X53507500Y-72957500D01*
X51267500Y-72837500D02*
X53507500Y-72837500D01*
X51267500Y-72717500D02*
X53507500Y-72717500D01*
X51267500Y-69317500D02*
X51267500Y-73557500D01*
X53507500Y-69317500D02*
X51267500Y-69317500D01*
X52387500Y-68667500D02*
X52387500Y-69317500D01*
X223837500Y-93257500D02*
X223837500Y-92607500D01*
X222717500Y-92607500D02*
X224957500Y-92607500D01*
X224957500Y-92607500D02*
X224957500Y-88367500D01*
X222717500Y-92007500D02*
X224957500Y-92007500D01*
X222717500Y-91887500D02*
X224957500Y-91887500D01*
X222717500Y-91767500D02*
X224957500Y-91767500D01*
X222717500Y-88367500D02*
X222717500Y-92607500D01*
X224957500Y-88367500D02*
X222717500Y-88367500D01*
X223837500Y-87717500D02*
X223837500Y-88367500D01*
X248740800Y-61823600D02*
X249390800Y-61823600D01*
X249390800Y-60703600D02*
X249390800Y-62943600D01*
X249390800Y-62943600D02*
X253630800Y-62943600D01*
X249990800Y-60703600D02*
X249990800Y-62943600D01*
X250110800Y-60703600D02*
X250110800Y-62943600D01*
X250230800Y-60703600D02*
X250230800Y-62943600D01*
X253630800Y-60703600D02*
X249390800Y-60703600D01*
X253630800Y-62943600D02*
X253630800Y-60703600D01*
X254280800Y-61823600D02*
X253630800Y-61823600D01*
X128587500Y-35313750D02*
X128587500Y-34663750D01*
X127467500Y-34663750D02*
X129707500Y-34663750D01*
X129707500Y-34663750D02*
X129707500Y-30423750D01*
X127467500Y-34063750D02*
X129707500Y-34063750D01*
X127467500Y-33943750D02*
X129707500Y-33943750D01*
X127467500Y-33823750D02*
X129707500Y-33823750D01*
X127467500Y-30423750D02*
X127467500Y-34663750D01*
X129707500Y-30423750D02*
X127467500Y-30423750D01*
X128587500Y-29773750D02*
X128587500Y-30423750D01*
X109537500Y-112307500D02*
X109537500Y-111657500D01*
X108417500Y-111657500D02*
X110657500Y-111657500D01*
X110657500Y-111657500D02*
X110657500Y-107417500D01*
X108417500Y-111057500D02*
X110657500Y-111057500D01*
X108417500Y-110937500D02*
X110657500Y-110937500D01*
X108417500Y-110817500D02*
X110657500Y-110817500D01*
X108417500Y-107417500D02*
X108417500Y-111657500D01*
X110657500Y-107417500D02*
X108417500Y-107417500D01*
X109537500Y-106767500D02*
X109537500Y-107417500D01*
X223837500Y-54363750D02*
X223837500Y-53713750D01*
X222717500Y-53713750D02*
X224957500Y-53713750D01*
X224957500Y-53713750D02*
X224957500Y-49473750D01*
X222717500Y-53113750D02*
X224957500Y-53113750D01*
X222717500Y-52993750D02*
X224957500Y-52993750D01*
X222717500Y-52873750D02*
X224957500Y-52873750D01*
X222717500Y-49473750D02*
X222717500Y-53713750D01*
X224957500Y-49473750D02*
X222717500Y-49473750D01*
X223837500Y-48823750D02*
X223837500Y-49473750D01*
X52387500Y-54363750D02*
X52387500Y-53713750D01*
X51267500Y-53713750D02*
X53507500Y-53713750D01*
X53507500Y-53713750D02*
X53507500Y-49473750D01*
X51267500Y-53113750D02*
X53507500Y-53113750D01*
X51267500Y-52993750D02*
X53507500Y-52993750D01*
X51267500Y-52873750D02*
X53507500Y-52873750D01*
X51267500Y-49473750D02*
X51267500Y-53713750D01*
X53507500Y-49473750D02*
X51267500Y-49473750D01*
X52387500Y-48823750D02*
X52387500Y-49473750D01*
X52387500Y-112307500D02*
X52387500Y-111657500D01*
X51267500Y-111657500D02*
X53507500Y-111657500D01*
X53507500Y-111657500D02*
X53507500Y-107417500D01*
X51267500Y-111057500D02*
X53507500Y-111057500D01*
X51267500Y-110937500D02*
X53507500Y-110937500D01*
X51267500Y-110817500D02*
X53507500Y-110817500D01*
X51267500Y-107417500D02*
X51267500Y-111657500D01*
X53507500Y-107417500D02*
X51267500Y-107417500D01*
X52387500Y-106767500D02*
X52387500Y-107417500D01*
X185737500Y-54363750D02*
X185737500Y-53713750D01*
X184617500Y-53713750D02*
X186857500Y-53713750D01*
X186857500Y-53713750D02*
X186857500Y-49473750D01*
X184617500Y-53113750D02*
X186857500Y-53113750D01*
X184617500Y-52993750D02*
X186857500Y-52993750D01*
X184617500Y-52873750D02*
X186857500Y-52873750D01*
X184617500Y-49473750D02*
X184617500Y-53713750D01*
X186857500Y-49473750D02*
X184617500Y-49473750D01*
X185737500Y-48823750D02*
X185737500Y-49473750D01*
X166687500Y-74207500D02*
X166687500Y-73557500D01*
X165567500Y-73557500D02*
X167807500Y-73557500D01*
X167807500Y-73557500D02*
X167807500Y-69317500D01*
X165567500Y-72957500D02*
X167807500Y-72957500D01*
X165567500Y-72837500D02*
X167807500Y-72837500D01*
X165567500Y-72717500D02*
X167807500Y-72717500D01*
X165567500Y-69317500D02*
X165567500Y-73557500D01*
X167807500Y-69317500D02*
X165567500Y-69317500D01*
X166687500Y-68667500D02*
X166687500Y-69317500D01*
X87527000Y-61912500D02*
X88177000Y-61912500D01*
X88177000Y-60792500D02*
X88177000Y-63032500D01*
X88177000Y-63032500D02*
X92417000Y-63032500D01*
X88777000Y-60792500D02*
X88777000Y-63032500D01*
X88897000Y-60792500D02*
X88897000Y-63032500D01*
X89017000Y-60792500D02*
X89017000Y-63032500D01*
X92417000Y-60792500D02*
X88177000Y-60792500D01*
X92417000Y-63032500D02*
X92417000Y-60792500D01*
X93067000Y-61912500D02*
X92417000Y-61912500D01*
X147637500Y-74207500D02*
X147637500Y-73557500D01*
X146517500Y-73557500D02*
X148757500Y-73557500D01*
X148757500Y-73557500D02*
X148757500Y-69317500D01*
X146517500Y-72957500D02*
X148757500Y-72957500D01*
X146517500Y-72837500D02*
X148757500Y-72837500D01*
X146517500Y-72717500D02*
X148757500Y-72717500D01*
X146517500Y-69317500D02*
X146517500Y-73557500D01*
X148757500Y-69317500D02*
X146517500Y-69317500D01*
X147637500Y-68667500D02*
X147637500Y-69317500D01*
X71437500Y-74207500D02*
X71437500Y-73557500D01*
X70317500Y-73557500D02*
X72557500Y-73557500D01*
X72557500Y-73557500D02*
X72557500Y-69317500D01*
X70317500Y-72957500D02*
X72557500Y-72957500D01*
X70317500Y-72837500D02*
X72557500Y-72837500D01*
X70317500Y-72717500D02*
X72557500Y-72717500D01*
X70317500Y-69317500D02*
X70317500Y-73557500D01*
X72557500Y-69317500D02*
X70317500Y-69317500D01*
X71437500Y-68667500D02*
X71437500Y-69317500D01*
X90487500Y-112307500D02*
X90487500Y-111657500D01*
X89367500Y-111657500D02*
X91607500Y-111657500D01*
X91607500Y-111657500D02*
X91607500Y-107417500D01*
X89367500Y-111057500D02*
X91607500Y-111057500D01*
X89367500Y-110937500D02*
X91607500Y-110937500D01*
X89367500Y-110817500D02*
X91607500Y-110817500D01*
X89367500Y-107417500D02*
X89367500Y-111657500D01*
X91607500Y-107417500D02*
X89367500Y-107417500D01*
X90487500Y-106767500D02*
X90487500Y-107417500D01*
X204787500Y-54363750D02*
X204787500Y-53713750D01*
X203667500Y-53713750D02*
X205907500Y-53713750D01*
X205907500Y-53713750D02*
X205907500Y-49473750D01*
X203667500Y-53113750D02*
X205907500Y-53113750D01*
X203667500Y-52993750D02*
X205907500Y-52993750D01*
X203667500Y-52873750D02*
X205907500Y-52873750D01*
X203667500Y-49473750D02*
X203667500Y-53713750D01*
X205907500Y-49473750D02*
X203667500Y-49473750D01*
X204787500Y-48823750D02*
X204787500Y-49473750D01*
X147637500Y-112307500D02*
X147637500Y-111657500D01*
X146517500Y-111657500D02*
X148757500Y-111657500D01*
X148757500Y-111657500D02*
X148757500Y-107417500D01*
X146517500Y-111057500D02*
X148757500Y-111057500D01*
X146517500Y-110937500D02*
X148757500Y-110937500D01*
X146517500Y-110817500D02*
X148757500Y-110817500D01*
X146517500Y-107417500D02*
X146517500Y-111657500D01*
X148757500Y-107417500D02*
X146517500Y-107417500D01*
X147637500Y-106767500D02*
X147637500Y-107417500D01*
X76478000Y-61976000D02*
X77128000Y-61976000D01*
X77128000Y-60856000D02*
X77128000Y-63096000D01*
X77128000Y-63096000D02*
X81368000Y-63096000D01*
X77728000Y-60856000D02*
X77728000Y-63096000D01*
X77848000Y-60856000D02*
X77848000Y-63096000D01*
X77968000Y-60856000D02*
X77968000Y-63096000D01*
X81368000Y-60856000D02*
X77128000Y-60856000D01*
X81368000Y-63096000D02*
X81368000Y-60856000D01*
X82018000Y-61976000D02*
X81368000Y-61976000D01*
X52387500Y-93257500D02*
X52387500Y-92607500D01*
X51267500Y-92607500D02*
X53507500Y-92607500D01*
X53507500Y-92607500D02*
X53507500Y-88367500D01*
X51267500Y-92007500D02*
X53507500Y-92007500D01*
X51267500Y-91887500D02*
X53507500Y-91887500D01*
X51267500Y-91767500D02*
X53507500Y-91767500D01*
X51267500Y-88367500D02*
X51267500Y-92607500D01*
X53507500Y-88367500D02*
X51267500Y-88367500D01*
X52387500Y-87717500D02*
X52387500Y-88367500D01*
X185737500Y-35313750D02*
X185737500Y-34663750D01*
X184617500Y-34663750D02*
X186857500Y-34663750D01*
X186857500Y-34663750D02*
X186857500Y-30423750D01*
X184617500Y-34063750D02*
X186857500Y-34063750D01*
X184617500Y-33943750D02*
X186857500Y-33943750D01*
X184617500Y-33823750D02*
X186857500Y-33823750D01*
X184617500Y-30423750D02*
X184617500Y-34663750D01*
X186857500Y-30423750D02*
X184617500Y-30423750D01*
X185737500Y-29773750D02*
X185737500Y-30423750D01*
X128587500Y-74207500D02*
X128587500Y-73557500D01*
X127467500Y-73557500D02*
X129707500Y-73557500D01*
X129707500Y-73557500D02*
X129707500Y-69317500D01*
X127467500Y-72957500D02*
X129707500Y-72957500D01*
X127467500Y-72837500D02*
X129707500Y-72837500D01*
X127467500Y-72717500D02*
X129707500Y-72717500D01*
X127467500Y-69317500D02*
X127467500Y-73557500D01*
X129707500Y-69317500D02*
X127467500Y-69317500D01*
X128587500Y-68667500D02*
X128587500Y-69317500D01*
X128587500Y-54363750D02*
X128587500Y-53713750D01*
X127467500Y-53713750D02*
X129707500Y-53713750D01*
X129707500Y-53713750D02*
X129707500Y-49473750D01*
X127467500Y-53113750D02*
X129707500Y-53113750D01*
X127467500Y-52993750D02*
X129707500Y-52993750D01*
X127467500Y-52873750D02*
X129707500Y-52873750D01*
X127467500Y-49473750D02*
X127467500Y-53713750D01*
X129707500Y-49473750D02*
X127467500Y-49473750D01*
X128587500Y-48823750D02*
X128587500Y-49473750D01*
X166687500Y-54363750D02*
X166687500Y-53713750D01*
X165567500Y-53713750D02*
X167807500Y-53713750D01*
X167807500Y-53713750D02*
X167807500Y-49473750D01*
X165567500Y-53113750D02*
X167807500Y-53113750D01*
X165567500Y-52993750D02*
X167807500Y-52993750D01*
X165567500Y-52873750D02*
X167807500Y-52873750D01*
X165567500Y-49473750D02*
X165567500Y-53713750D01*
X167807500Y-49473750D02*
X165567500Y-49473750D01*
X166687500Y-48823750D02*
X166687500Y-49473750D01*
X223837500Y-112307500D02*
X223837500Y-111657500D01*
X222717500Y-111657500D02*
X224957500Y-111657500D01*
X224957500Y-111657500D02*
X224957500Y-107417500D01*
X222717500Y-111057500D02*
X224957500Y-111057500D01*
X222717500Y-110937500D02*
X224957500Y-110937500D01*
X222717500Y-110817500D02*
X224957500Y-110817500D01*
X222717500Y-107417500D02*
X222717500Y-111657500D01*
X224957500Y-107417500D02*
X222717500Y-107417500D01*
X223837500Y-106767500D02*
X223837500Y-107417500D01*
X223837500Y-74207500D02*
X223837500Y-73557500D01*
X222717500Y-73557500D02*
X224957500Y-73557500D01*
X224957500Y-73557500D02*
X224957500Y-69317500D01*
X222717500Y-72957500D02*
X224957500Y-72957500D01*
X222717500Y-72837500D02*
X224957500Y-72837500D01*
X222717500Y-72717500D02*
X224957500Y-72717500D01*
X222717500Y-69317500D02*
X222717500Y-73557500D01*
X224957500Y-69317500D02*
X222717500Y-69317500D01*
X223837500Y-68667500D02*
X223837500Y-69317500D01*
X109537500Y-93257500D02*
X109537500Y-92607500D01*
X108417500Y-92607500D02*
X110657500Y-92607500D01*
X110657500Y-92607500D02*
X110657500Y-88367500D01*
X108417500Y-92007500D02*
X110657500Y-92007500D01*
X108417500Y-91887500D02*
X110657500Y-91887500D01*
X108417500Y-91767500D02*
X110657500Y-91767500D01*
X108417500Y-88367500D02*
X108417500Y-92607500D01*
X110657500Y-88367500D02*
X108417500Y-88367500D01*
X109537500Y-87717500D02*
X109537500Y-88367500D01*
X90487500Y-74207500D02*
X90487500Y-73557500D01*
X89367500Y-73557500D02*
X91607500Y-73557500D01*
X91607500Y-73557500D02*
X91607500Y-69317500D01*
X89367500Y-72957500D02*
X91607500Y-72957500D01*
X89367500Y-72837500D02*
X91607500Y-72837500D01*
X89367500Y-72717500D02*
X91607500Y-72717500D01*
X89367500Y-69317500D02*
X89367500Y-73557500D01*
X91607500Y-69317500D02*
X89367500Y-69317500D01*
X90487500Y-68667500D02*
X90487500Y-69317500D01*
X248848750Y-80962500D02*
X249498750Y-80962500D01*
X249498750Y-79842500D02*
X249498750Y-82082500D01*
X249498750Y-82082500D02*
X253738750Y-82082500D01*
X250098750Y-79842500D02*
X250098750Y-82082500D01*
X250218750Y-79842500D02*
X250218750Y-82082500D01*
X250338750Y-79842500D02*
X250338750Y-82082500D01*
X253738750Y-79842500D02*
X249498750Y-79842500D01*
X253738750Y-82082500D02*
X253738750Y-79842500D01*
X254388750Y-80962500D02*
X253738750Y-80962500D01*
X166687500Y-35313750D02*
X166687500Y-34663750D01*
X165567500Y-34663750D02*
X167807500Y-34663750D01*
X167807500Y-34663750D02*
X167807500Y-30423750D01*
X165567500Y-34063750D02*
X167807500Y-34063750D01*
X165567500Y-33943750D02*
X167807500Y-33943750D01*
X165567500Y-33823750D02*
X167807500Y-33823750D01*
X165567500Y-30423750D02*
X165567500Y-34663750D01*
X167807500Y-30423750D02*
X165567500Y-30423750D01*
X166687500Y-29773750D02*
X166687500Y-30423750D01*
X166687500Y-112307500D02*
X166687500Y-111657500D01*
X165567500Y-111657500D02*
X167807500Y-111657500D01*
X167807500Y-111657500D02*
X167807500Y-107417500D01*
X165567500Y-111057500D02*
X167807500Y-111057500D01*
X165567500Y-110937500D02*
X167807500Y-110937500D01*
X165567500Y-110817500D02*
X167807500Y-110817500D01*
X165567500Y-107417500D02*
X165567500Y-111657500D01*
X167807500Y-107417500D02*
X165567500Y-107417500D01*
X166687500Y-106767500D02*
X166687500Y-107417500D01*
X52387500Y-35472500D02*
X52387500Y-34822500D01*
X51267500Y-34822500D02*
X53507500Y-34822500D01*
X53507500Y-34822500D02*
X53507500Y-30582500D01*
X51267500Y-34222500D02*
X53507500Y-34222500D01*
X51267500Y-34102500D02*
X53507500Y-34102500D01*
X51267500Y-33982500D02*
X53507500Y-33982500D01*
X51267500Y-30582500D02*
X51267500Y-34822500D01*
X53507500Y-30582500D02*
X51267500Y-30582500D01*
X52387500Y-29932500D02*
X52387500Y-30582500D01*
X204787500Y-112307500D02*
X204787500Y-111657500D01*
X203667500Y-111657500D02*
X205907500Y-111657500D01*
X205907500Y-111657500D02*
X205907500Y-107417500D01*
X203667500Y-111057500D02*
X205907500Y-111057500D01*
X203667500Y-110937500D02*
X205907500Y-110937500D01*
X203667500Y-110817500D02*
X205907500Y-110817500D01*
X203667500Y-107417500D02*
X203667500Y-111657500D01*
X205907500Y-107417500D02*
X203667500Y-107417500D01*
X204787500Y-106767500D02*
X204787500Y-107417500D01*
X248690000Y-42862500D02*
X249340000Y-42862500D01*
X249340000Y-41742500D02*
X249340000Y-43982500D01*
X249340000Y-43982500D02*
X253580000Y-43982500D01*
X249940000Y-41742500D02*
X249940000Y-43982500D01*
X250060000Y-41742500D02*
X250060000Y-43982500D01*
X250180000Y-41742500D02*
X250180000Y-43982500D01*
X253580000Y-41742500D02*
X249340000Y-41742500D01*
X253580000Y-43982500D02*
X253580000Y-41742500D01*
X254230000Y-42862500D02*
X253580000Y-42862500D01*
X109537500Y-74207500D02*
X109537500Y-73557500D01*
X108417500Y-73557500D02*
X110657500Y-73557500D01*
X110657500Y-73557500D02*
X110657500Y-69317500D01*
X108417500Y-72957500D02*
X110657500Y-72957500D01*
X108417500Y-72837500D02*
X110657500Y-72837500D01*
X108417500Y-72717500D02*
X110657500Y-72717500D01*
X108417500Y-69317500D02*
X108417500Y-73557500D01*
X110657500Y-69317500D02*
X108417500Y-69317500D01*
X109537500Y-68667500D02*
X109537500Y-69317500D01*
X90487500Y-93257500D02*
X90487500Y-92607500D01*
X89367500Y-92607500D02*
X91607500Y-92607500D01*
X91607500Y-92607500D02*
X91607500Y-88367500D01*
X89367500Y-92007500D02*
X91607500Y-92007500D01*
X89367500Y-91887500D02*
X91607500Y-91887500D01*
X89367500Y-91767500D02*
X91607500Y-91767500D01*
X89367500Y-88367500D02*
X89367500Y-92607500D01*
X91607500Y-88367500D02*
X89367500Y-88367500D01*
X90487500Y-87717500D02*
X90487500Y-88367500D01*
X147637500Y-54363750D02*
X147637500Y-53713750D01*
X146517500Y-53713750D02*
X148757500Y-53713750D01*
X148757500Y-53713750D02*
X148757500Y-49473750D01*
X146517500Y-53113750D02*
X148757500Y-53113750D01*
X146517500Y-52993750D02*
X148757500Y-52993750D01*
X146517500Y-52873750D02*
X148757500Y-52873750D01*
X146517500Y-49473750D02*
X146517500Y-53713750D01*
X148757500Y-49473750D02*
X146517500Y-49473750D01*
X147637500Y-48823750D02*
X147637500Y-49473750D01*
X242887500Y-54363750D02*
X242887500Y-53713750D01*
X241767500Y-53713750D02*
X244007500Y-53713750D01*
X244007500Y-53713750D02*
X244007500Y-49473750D01*
X241767500Y-53113750D02*
X244007500Y-53113750D01*
X241767500Y-52993750D02*
X244007500Y-52993750D01*
X241767500Y-52873750D02*
X244007500Y-52873750D01*
X241767500Y-49473750D02*
X241767500Y-53713750D01*
X244007500Y-49473750D02*
X241767500Y-49473750D01*
X242887500Y-48823750D02*
X242887500Y-49473750D01*
X185737500Y-93257500D02*
X185737500Y-92607500D01*
X184617500Y-92607500D02*
X186857500Y-92607500D01*
X186857500Y-92607500D02*
X186857500Y-88367500D01*
X184617500Y-92007500D02*
X186857500Y-92007500D01*
X184617500Y-91887500D02*
X186857500Y-91887500D01*
X184617500Y-91767500D02*
X186857500Y-91767500D01*
X184617500Y-88367500D02*
X184617500Y-92607500D01*
X186857500Y-88367500D02*
X184617500Y-88367500D01*
X185737500Y-87717500D02*
X185737500Y-88367500D01*
X242887500Y-92463750D02*
X242887500Y-91813750D01*
X241767500Y-91813750D02*
X244007500Y-91813750D01*
X244007500Y-91813750D02*
X244007500Y-87573750D01*
X241767500Y-91213750D02*
X244007500Y-91213750D01*
X241767500Y-91093750D02*
X244007500Y-91093750D01*
X241767500Y-90973750D02*
X244007500Y-90973750D01*
X241767500Y-87573750D02*
X241767500Y-91813750D01*
X244007500Y-87573750D02*
X241767500Y-87573750D01*
X242887500Y-86923750D02*
X242887500Y-87573750D01*
D13*
X85534500Y-22306750D02*
X89852500Y-22306750D01*
X76390500Y-22306750D02*
X72072500Y-22306750D01*
X89852500Y-26624750D02*
X89852500Y-22306750D01*
X72072500Y-26624750D02*
X72072500Y-22306750D01*
X89852500Y-51008750D02*
X89852500Y-55326750D01*
X72072500Y-51008750D02*
X72072500Y-55326750D01*
X85534500Y-55326750D02*
X89852500Y-55326750D01*
X76390500Y-55326750D02*
X72072500Y-55326750D01*
D10*
X75117865Y-30835780D02*
X74617865Y-30835780D01*
X74617865Y-30735780D01*
X75117865Y-30735780D01*
X75117865Y-30835780D01*
G36*
X75117865Y-30835780D02*
G01*
X74617865Y-30835780D01*
X74617865Y-30735780D01*
X75117865Y-30735780D01*
X75117865Y-30835780D01*
G37*
X75117865Y-31035780D02*
X75017865Y-31035780D01*
X75017865Y-30735780D01*
X75117865Y-30735780D01*
X75117865Y-31035780D01*
G36*
X75117865Y-31035780D02*
G01*
X75017865Y-31035780D01*
X75017865Y-30735780D01*
X75117865Y-30735780D01*
X75117865Y-31035780D01*
G37*
X74717865Y-31535780D02*
X74617865Y-31535780D01*
X74617865Y-30735780D01*
X74717865Y-30735780D01*
X74717865Y-31535780D01*
G36*
X74717865Y-31535780D02*
G01*
X74617865Y-31535780D01*
X74617865Y-30735780D01*
X74717865Y-30735780D01*
X74717865Y-31535780D01*
G37*
X74917865Y-31235780D02*
X74817865Y-31235780D01*
X74817865Y-31135780D01*
X74917865Y-31135780D01*
X74917865Y-31235780D01*
G36*
X74917865Y-31235780D02*
G01*
X74817865Y-31235780D01*
X74817865Y-31135780D01*
X74917865Y-31135780D01*
X74917865Y-31235780D01*
G37*
X75117865Y-31535780D02*
X75017865Y-31535780D01*
X75017865Y-31335780D01*
X75117865Y-31335780D01*
X75117865Y-31535780D01*
G36*
X75117865Y-31535780D02*
G01*
X75017865Y-31535780D01*
X75017865Y-31335780D01*
X75117865Y-31335780D01*
X75117865Y-31535780D01*
G37*
D14*
X88582500Y-26116750D03*
D15*
X88582500Y-28656750D03*
X88582500Y-31196750D03*
X88582500Y-33736750D03*
X88582500Y-36276750D03*
X88582500Y-38816750D03*
X88582500Y-41356750D03*
X88582500Y-43896750D03*
X88582500Y-46436750D03*
X88582500Y-48976750D03*
X88582500Y-51516750D03*
X88582500Y-54056750D03*
X73342500Y-54056750D03*
X73342500Y-51516750D03*
X73342500Y-48976750D03*
X73342500Y-46436750D03*
X73342500Y-43896750D03*
X73342500Y-41356750D03*
X73342500Y-38816750D03*
X73342500Y-36276750D03*
X73342500Y-33736750D03*
X73342500Y-31196750D03*
X73342500Y-28656750D03*
X73342500Y-26116750D03*
%LPC*%
D16*
X57150000Y-42862500D03*
D17*
X64770000Y-42862500D03*
D18*
X209232500Y-90487500D03*
D19*
X214312500Y-90487500D03*
D18*
X219392500Y-90487500D03*
D16*
X242697000Y-36322000D03*
D17*
X242697000Y-28702000D03*
D18*
X56832500Y-90487500D03*
D19*
X61912500Y-90487500D03*
D18*
X66992500Y-90487500D03*
D20*
X46196250Y-42862500D03*
D21*
X43656250Y-42862500D03*
X41116250Y-42862500D03*
D16*
X242887500Y-75247500D03*
D17*
X242887500Y-67627500D03*
D18*
X152082500Y-33337500D03*
D19*
X157162500Y-33337500D03*
D18*
X162242500Y-33337500D03*
D16*
X204787500Y-75247500D03*
D17*
X204787500Y-67627500D03*
D16*
X242887500Y-113347500D03*
D17*
X242887500Y-105727500D03*
D18*
X247332500Y-90487500D03*
D19*
X252412500Y-90487500D03*
D18*
X257492500Y-90487500D03*
D16*
X109537500Y-55403750D03*
D17*
X109537500Y-47783750D03*
D18*
X152082500Y-52387500D03*
D19*
X157162500Y-52387500D03*
D18*
X162242500Y-52387500D03*
D16*
X166687500Y-94297500D03*
D17*
X166687500Y-86677500D03*
D16*
X147637500Y-94297500D03*
D17*
X147637500Y-86677500D03*
D18*
X94932500Y-52387500D03*
D19*
X100012500Y-52387500D03*
D18*
X105092500Y-52387500D03*
X133032500Y-109537500D03*
D19*
X138112500Y-109537500D03*
D18*
X143192500Y-109537500D03*
X133032500Y-90487500D03*
D19*
X138112500Y-90487500D03*
D18*
X143192500Y-90487500D03*
D16*
X109537500Y-36353750D03*
D17*
X109537500Y-28733750D03*
D18*
X152082500Y-90487500D03*
D19*
X157162500Y-90487500D03*
D18*
X162242500Y-90487500D03*
X171132500Y-52387500D03*
D19*
X176212500Y-52387500D03*
D18*
X181292500Y-52387500D03*
X113982500Y-52387500D03*
D19*
X119062500Y-52387500D03*
D18*
X124142500Y-52387500D03*
D16*
X128587500Y-94297500D03*
D17*
X128587500Y-86677500D03*
D18*
X171132500Y-90487500D03*
D19*
X176212500Y-90487500D03*
D18*
X181292500Y-90487500D03*
D16*
X128587500Y-113347500D03*
D17*
X128587500Y-105727500D03*
D16*
X185737500Y-113347500D03*
D17*
X185737500Y-105727500D03*
D18*
X56832500Y-71437500D03*
D19*
X61912500Y-71437500D03*
D18*
X66992500Y-71437500D03*
X190182500Y-52387500D03*
D19*
X195262500Y-52387500D03*
D18*
X200342500Y-52387500D03*
D16*
X223837500Y-36353750D03*
D17*
X223837500Y-28733750D03*
D16*
X247808750Y-100012500D03*
D17*
X255428750Y-100012500D03*
D16*
X71437500Y-113347500D03*
D17*
X71437500Y-105727500D03*
D18*
X171132500Y-33337500D03*
D19*
X176212500Y-33337500D03*
D18*
X181292500Y-33337500D03*
D16*
X204787500Y-94297500D03*
D17*
X204787500Y-86677500D03*
D18*
X113982500Y-33337500D03*
D19*
X119062500Y-33337500D03*
D18*
X124142500Y-33337500D03*
X190182500Y-90487500D03*
D19*
X195262500Y-90487500D03*
D18*
X200342500Y-90487500D03*
D16*
X71437500Y-94297500D03*
D17*
X71437500Y-86677500D03*
D16*
X185737500Y-75247500D03*
D17*
X185737500Y-67627500D03*
D16*
X147637500Y-36353750D03*
D17*
X147637500Y-28733750D03*
D16*
X204787500Y-36353750D03*
D17*
X204787500Y-28733750D03*
D16*
X62706250Y-61912500D03*
D17*
X70326250Y-61912500D03*
D18*
X75882500Y-71437500D03*
D19*
X80962500Y-71437500D03*
D18*
X86042500Y-71437500D03*
X228282500Y-71437500D03*
D19*
X233362500Y-71437500D03*
D18*
X238442500Y-71437500D03*
D16*
X228346000Y-98552000D03*
D17*
X235966000Y-98552000D03*
D18*
X152082500Y-109537500D03*
D19*
X157162500Y-109537500D03*
D18*
X162242500Y-109537500D03*
D16*
X52387500Y-75247500D03*
D17*
X52387500Y-67627500D03*
D16*
X223837500Y-94297500D03*
D17*
X223837500Y-86677500D03*
D18*
X228282500Y-109537500D03*
D19*
X233362500Y-109537500D03*
D18*
X238442500Y-109537500D03*
D16*
X247700800Y-61823600D03*
D17*
X255320800Y-61823600D03*
D18*
X133032500Y-33337500D03*
D19*
X138112500Y-33337500D03*
D18*
X143192500Y-33337500D03*
X228282500Y-33337500D03*
D19*
X233362500Y-33337500D03*
D18*
X238442500Y-33337500D03*
X209232500Y-33337500D03*
D19*
X214312500Y-33337500D03*
D18*
X219392500Y-33337500D03*
X56832500Y-33337500D03*
D19*
X61912500Y-33337500D03*
D18*
X66992500Y-33337500D03*
X75882500Y-109537500D03*
D19*
X80962500Y-109537500D03*
D18*
X86042500Y-109537500D03*
D16*
X128587500Y-36353750D03*
D17*
X128587500Y-28733750D03*
D16*
X109537500Y-113347500D03*
D17*
X109537500Y-105727500D03*
D18*
X75882500Y-90487500D03*
D19*
X80962500Y-90487500D03*
D18*
X86042500Y-90487500D03*
X113982500Y-71437500D03*
D19*
X119062500Y-71437500D03*
D18*
X124142500Y-71437500D03*
X56832500Y-52387500D03*
D19*
X61912500Y-52387500D03*
D18*
X66992500Y-52387500D03*
X209232500Y-109537500D03*
D19*
X214312500Y-109537500D03*
D18*
X219392500Y-109537500D03*
X37782500Y-90487500D03*
D19*
X42862500Y-90487500D03*
D18*
X47942500Y-90487500D03*
D16*
X223837500Y-55403750D03*
D17*
X223837500Y-47783750D03*
D16*
X52387500Y-55403750D03*
D17*
X52387500Y-47783750D03*
D18*
X247332500Y-33337500D03*
D19*
X252412500Y-33337500D03*
D18*
X257492500Y-33337500D03*
X37782500Y-33337500D03*
D19*
X42862500Y-33337500D03*
D18*
X47942500Y-33337500D03*
D16*
X52387500Y-113347500D03*
D17*
X52387500Y-105727500D03*
D16*
X185737500Y-55403750D03*
D17*
X185737500Y-47783750D03*
D18*
X113982500Y-90487500D03*
D19*
X119062500Y-90487500D03*
D18*
X124142500Y-90487500D03*
D16*
X166687500Y-75247500D03*
D17*
X166687500Y-67627500D03*
D16*
X86487000Y-61912500D03*
D17*
X94107000Y-61912500D03*
D18*
X228282500Y-90487500D03*
D19*
X233362500Y-90487500D03*
D18*
X238442500Y-90487500D03*
X209232500Y-71437500D03*
D19*
X214312500Y-71437500D03*
D18*
X219392500Y-71437500D03*
D16*
X147637500Y-75247500D03*
D17*
X147637500Y-67627500D03*
D16*
X71437500Y-75247500D03*
D17*
X71437500Y-67627500D03*
D16*
X90487500Y-113347500D03*
D17*
X90487500Y-105727500D03*
D16*
X204787500Y-55403750D03*
D17*
X204787500Y-47783750D03*
D16*
X147637500Y-113347500D03*
D17*
X147637500Y-105727500D03*
D16*
X75438000Y-61976000D03*
D17*
X83058000Y-61976000D03*
D18*
X247332500Y-71437500D03*
D19*
X252412500Y-71437500D03*
D18*
X257492500Y-71437500D03*
X190182500Y-33337500D03*
D19*
X195262500Y-33337500D03*
D18*
X200342500Y-33337500D03*
D16*
X52387500Y-94297500D03*
D17*
X52387500Y-86677500D03*
D16*
X185737500Y-36353750D03*
D17*
X185737500Y-28733750D03*
D18*
X247332500Y-52387500D03*
D19*
X252412500Y-52387500D03*
D18*
X257492500Y-52387500D03*
X37782500Y-71437500D03*
D19*
X42862500Y-71437500D03*
D18*
X47942500Y-71437500D03*
X94932500Y-33337500D03*
D19*
X100012500Y-33337500D03*
D18*
X105092500Y-33337500D03*
X152082500Y-71437500D03*
D19*
X157162500Y-71437500D03*
D18*
X162242500Y-71437500D03*
X56832500Y-109537500D03*
D19*
X61912500Y-109537500D03*
D18*
X66992500Y-109537500D03*
X37782500Y-109537500D03*
D19*
X42862500Y-109537500D03*
D18*
X47942500Y-109537500D03*
X133032500Y-71437500D03*
D19*
X138112500Y-71437500D03*
D18*
X143192500Y-71437500D03*
D16*
X128587500Y-75247500D03*
D17*
X128587500Y-67627500D03*
D18*
X190182500Y-71437500D03*
D19*
X195262500Y-71437500D03*
D18*
X200342500Y-71437500D03*
X133032500Y-52387500D03*
D19*
X138112500Y-52387500D03*
D18*
X143192500Y-52387500D03*
D16*
X128587500Y-55403750D03*
D17*
X128587500Y-47783750D03*
D18*
X247332500Y-109537500D03*
D19*
X252412500Y-109537500D03*
D18*
X257492500Y-109537500D03*
D16*
X166687500Y-55403750D03*
D17*
X166687500Y-47783750D03*
D16*
X223837500Y-113347500D03*
D17*
X223837500Y-105727500D03*
D16*
X223837500Y-75247500D03*
D17*
X223837500Y-67627500D03*
D16*
X109537500Y-94297500D03*
D17*
X109537500Y-86677500D03*
D16*
X90487500Y-75247500D03*
D17*
X90487500Y-67627500D03*
D18*
X94932500Y-90487500D03*
D19*
X100012500Y-90487500D03*
D18*
X105092500Y-90487500D03*
D16*
X247808750Y-80962500D03*
D17*
X255428750Y-80962500D03*
D18*
X113982500Y-109537500D03*
D19*
X119062500Y-109537500D03*
D18*
X124142500Y-109537500D03*
D16*
X166687500Y-36353750D03*
D17*
X166687500Y-28733750D03*
D16*
X166687500Y-113347500D03*
D17*
X166687500Y-105727500D03*
D16*
X52387500Y-36512500D03*
D17*
X52387500Y-28892500D03*
D16*
X204787500Y-113347500D03*
D17*
X204787500Y-105727500D03*
D16*
X247650000Y-42862500D03*
D17*
X255270000Y-42862500D03*
D16*
X109537500Y-75247500D03*
D17*
X109537500Y-67627500D03*
D16*
X90487500Y-94297500D03*
D17*
X90487500Y-86677500D03*
D16*
X147637500Y-55403750D03*
D17*
X147637500Y-47783750D03*
D18*
X94932500Y-71437500D03*
D19*
X100012500Y-71437500D03*
D18*
X105092500Y-71437500D03*
X171132500Y-109537500D03*
D19*
X176212500Y-109537500D03*
D18*
X181292500Y-109537500D03*
D16*
X242887500Y-55403750D03*
D17*
X242887500Y-47783750D03*
D16*
X185737500Y-94297500D03*
D17*
X185737500Y-86677500D03*
D18*
X228282500Y-52387500D03*
D19*
X233362500Y-52387500D03*
D18*
X238442500Y-52387500D03*
D16*
X242887500Y-93503750D03*
D17*
X242887500Y-85883750D03*
D18*
X37782500Y-52387500D03*
D19*
X42862500Y-52387500D03*
D18*
X47942500Y-52387500D03*
X190182500Y-109537500D03*
D19*
X195262500Y-109537500D03*
D18*
X200342500Y-109537500D03*
X75882500Y-52387500D03*
D19*
X80962500Y-52387500D03*
D18*
X86042500Y-52387500D03*
X94932500Y-109537500D03*
D19*
X100012500Y-109537500D03*
D18*
X105092500Y-109537500D03*
X75882500Y-33337500D03*
D19*
X80962500Y-33337500D03*
D18*
X86042500Y-33337500D03*
X209232500Y-52387500D03*
D19*
X214312500Y-52387500D03*
D18*
X219392500Y-52387500D03*
X171132500Y-71437500D03*
D19*
X176212500Y-71437500D03*
D18*
X181292500Y-71437500D03*
D22*
X54637500Y-58662500D03*
X50137500Y-65162500D03*
X50137500Y-58662500D03*
X54637500Y-65162500D03*
D14*
X88582500Y-26116750D03*
D15*
X88582500Y-28656750D03*
X88582500Y-31196750D03*
X88582500Y-33736750D03*
X88582500Y-36276750D03*
X88582500Y-38816750D03*
X88582500Y-41356750D03*
X88582500Y-43896750D03*
X88582500Y-46436750D03*
X88582500Y-48976750D03*
X88582500Y-51516750D03*
X88582500Y-54056750D03*
X73342500Y-54056750D03*
X73342500Y-51516750D03*
X73342500Y-48976750D03*
X73342500Y-46436750D03*
X73342500Y-43896750D03*
X73342500Y-41356750D03*
X73342500Y-38816750D03*
X73342500Y-36276750D03*
X73342500Y-33736750D03*
X73342500Y-31196750D03*
X73342500Y-28656750D03*
X73342500Y-26116750D03*
M02*
