G04 #@! TF.GenerationSoftware,KiCad,Pcbnew,(6.0.11)*
G04 #@! TF.CreationDate,2023-03-20T22:28:06+01:00*
G04 #@! TF.ProjectId,t-rex,742d7265-782e-46b6-9963-61645f706362,rev?*
G04 #@! TF.SameCoordinates,Original*
G04 #@! TF.FileFunction,Soldermask,Bot*
G04 #@! TF.FilePolarity,Negative*
%FSLAX46Y46*%
G04 Gerber Fmt 4.6, Leading zero omitted, Abs format (unit mm)*
G04 Created by KiCad (PCBNEW (6.0.11)) date 2023-03-20 22:28:06*
%MOMM*%
%LPD*%
G01*
G04 APERTURE LIST*
G04 Aperture macros list*
%AMHorizOval*
0 Thick line with rounded ends*
0 $1 width*
0 $2 $3 position (X,Y) of the first rounded end (center of the circle)*
0 $4 $5 position (X,Y) of the second rounded end (center of the circle)*
0 Add line between two ends*
20,1,$1,$2,$3,$4,$5,0*
0 Add two circle primitives to create the rounded ends*
1,1,$1,$2,$3*
1,1,$1,$4,$5*%
%AMRotRect*
0 Rectangle, with rotation*
0 The origin of the aperture is its center*
0 $1 length*
0 $2 width*
0 $3 Rotation angle, in degrees counterclockwise*
0 Add horizontal line*
21,1,$1,$2,0,0,$3*%
G04 Aperture macros list end*
%ADD10C,4.400000*%
%ADD11RotRect,1.600000X1.600000X348.000000*%
%ADD12HorizOval,1.600000X0.000000X0.000000X0.000000X0.000000X0*%
%ADD13R,1.752600X1.752600*%
%ADD14C,1.752600*%
%ADD15C,2.250000*%
%ADD16HorizOval,2.250000X-0.040731X0.287821X0.040731X-0.287821X0*%
%ADD17HorizOval,2.250000X0.488912X0.850230X-0.488912X-0.850230X0*%
%ADD18C,1.750000*%
%ADD19C,3.987800*%
%ADD20HorizOval,1.600000X0.000000X0.000000X0.000000X0.000000X0*%
%ADD21RotRect,1.600000X1.600000X102.000000*%
%ADD22HorizOval,1.600000X0.000000X0.000000X0.000000X0.000000X0*%
%ADD23RotRect,1.600000X1.600000X12.000000*%
%ADD24HorizOval,2.250000X0.079857X0.279505X-0.079857X-0.279505X0*%
%ADD25HorizOval,2.250000X0.792463X0.577865X-0.792463X-0.577865X0*%
%ADD26HorizOval,2.250000X0.020000X0.290000X-0.020000X-0.290000X0*%
%ADD27HorizOval,2.250000X0.655001X0.730000X-0.655001X-0.730000X0*%
%ADD28O,1.600000X1.600000*%
%ADD29R,1.600000X1.600000*%
%ADD30O,1.700000X1.700000*%
%ADD31R,1.700000X1.700000*%
%ADD32HorizOval,1.600000X0.000000X0.000000X0.000000X0.000000X0*%
%ADD33RotRect,1.600000X1.600000X78.000000*%
G04 APERTURE END LIST*
D10*
X198270141Y-169536011D03*
X198450000Y-103800000D03*
X68304287Y-129638963D03*
X76225723Y-92371540D03*
X320273485Y-92230926D03*
X328194921Y-129498349D03*
D11*
X140173258Y-105907857D03*
D12*
X147626743Y-107492144D03*
D13*
X190830200Y-81271011D03*
D14*
X190830200Y-83811011D03*
X190830200Y-86351011D03*
X190830200Y-88891011D03*
X190830200Y-91431011D03*
X190830200Y-93971011D03*
X190830200Y-96511011D03*
X190830200Y-99051011D03*
X190830200Y-101591011D03*
X190830200Y-104131011D03*
X190830200Y-106671011D03*
X190830200Y-109211011D03*
X206070200Y-109211011D03*
X206070200Y-106671011D03*
X206070200Y-104131011D03*
X206070200Y-101591011D03*
X206070200Y-99051011D03*
X206070200Y-96511011D03*
X206070200Y-93971011D03*
X206070200Y-91431011D03*
X206070200Y-88891011D03*
X206070200Y-86351011D03*
X206070200Y-83811011D03*
X206070200Y-81271011D03*
D15*
X258464156Y-109913208D03*
D16*
X258504887Y-110201030D03*
D17*
X253269926Y-112867713D03*
D15*
X253758836Y-112017483D03*
D18*
X262004842Y-114354103D03*
X252066862Y-116466485D03*
D19*
X257035852Y-115410294D03*
D16*
X310445305Y-79685165D03*
D15*
X310404574Y-79397343D03*
D17*
X305210344Y-82351848D03*
D15*
X305699254Y-81501618D03*
D19*
X308976270Y-84894429D03*
D18*
X304007280Y-85950620D03*
X313945260Y-83838238D03*
D20*
X269521283Y-128336904D03*
D21*
X271105570Y-135790389D03*
D16*
X266426323Y-147468453D03*
D15*
X266385592Y-147180631D03*
D17*
X261191362Y-150135136D03*
D15*
X261680272Y-149284906D03*
D18*
X259988298Y-153733908D03*
X269926278Y-151621526D03*
D19*
X264957288Y-152677717D03*
D20*
X254848289Y-150931333D03*
D21*
X256432576Y-158384818D03*
D15*
X291770862Y-83358060D03*
D16*
X291811593Y-83645882D03*
D17*
X286576632Y-86312565D03*
D15*
X287065542Y-85462335D03*
D19*
X290342558Y-88855146D03*
D18*
X295311548Y-87798955D03*
X285373568Y-89911337D03*
D20*
X310749424Y-139049180D03*
D21*
X312333711Y-146502665D03*
D16*
X340961170Y-131625582D03*
D15*
X340920439Y-131337760D03*
D17*
X335726209Y-134292265D03*
D15*
X336215119Y-133442035D03*
D18*
X344461125Y-135778655D03*
X334523145Y-137891037D03*
D19*
X339492135Y-136834846D03*
D15*
X277097868Y-105952490D03*
D16*
X277138599Y-106240312D03*
D17*
X271903638Y-108906995D03*
D15*
X272392548Y-108056765D03*
D18*
X270700574Y-112505767D03*
D19*
X275669564Y-111449576D03*
D18*
X280638554Y-110393385D03*
D16*
X239871176Y-114161747D03*
D15*
X239830445Y-113873925D03*
D17*
X234636215Y-116828430D03*
D15*
X235125125Y-115978200D03*
D18*
X233433151Y-120427202D03*
X243371131Y-118314820D03*
D19*
X238402141Y-119371011D03*
D16*
X329079017Y-75724447D03*
D15*
X329038286Y-75436625D03*
X324332966Y-77540900D03*
D17*
X323844056Y-78391130D03*
D18*
X322640992Y-81989902D03*
X332578972Y-79877520D03*
D19*
X327609982Y-80933711D03*
D20*
X273482000Y-146970616D03*
D21*
X275066287Y-154424101D03*
D22*
X340462114Y-126890877D03*
D23*
X333008629Y-128475164D03*
D15*
X262424874Y-128546919D03*
D16*
X262465605Y-128834741D03*
D17*
X257230644Y-131501424D03*
D15*
X257719554Y-130651194D03*
D18*
X256027580Y-135100196D03*
D19*
X260996570Y-134044005D03*
D18*
X265965560Y-132987814D03*
D16*
X254544170Y-91567318D03*
D15*
X254503439Y-91279496D03*
X249798119Y-93383771D03*
D17*
X249309209Y-94234001D03*
D18*
X248106145Y-97832773D03*
X258044125Y-95720391D03*
D19*
X253075135Y-96776582D03*
D16*
X333039735Y-94358159D03*
D15*
X332999004Y-94070337D03*
X328293684Y-96174612D03*
D17*
X327804774Y-97024842D03*
D18*
X336539690Y-98511232D03*
D19*
X331570700Y-99567423D03*
D18*
X326601710Y-100623614D03*
D20*
X284194277Y-105742474D03*
D21*
X285778564Y-113195959D03*
D15*
X235869727Y-95240214D03*
D16*
X235910458Y-95528036D03*
D17*
X230675497Y-98194719D03*
D15*
X231164407Y-97344489D03*
D18*
X229472433Y-101793491D03*
D19*
X234441423Y-100737300D03*
D18*
X239410413Y-99681109D03*
D22*
X336501396Y-108257165D03*
D23*
X329047911Y-109841452D03*
D20*
X321461700Y-97821039D03*
D21*
X323045987Y-105274524D03*
D20*
X325257388Y-115678346D03*
D21*
X326841675Y-123131831D03*
D15*
X314365292Y-98031055D03*
D16*
X314406023Y-98318877D03*
D17*
X309171062Y-100985560D03*
D15*
X309659972Y-100135330D03*
D18*
X307967998Y-104584332D03*
X317905978Y-102471950D03*
D19*
X312936988Y-103528141D03*
D22*
X321121017Y-129508826D03*
D23*
X313667532Y-131093113D03*
D20*
X265560565Y-109703192D03*
D21*
X267144852Y-117156677D03*
D20*
X261434817Y-90293076D03*
D21*
X263019104Y-97746561D03*
D16*
X285060035Y-143507736D03*
D15*
X285019304Y-143219914D03*
X280313984Y-145324189D03*
D17*
X279825074Y-146174419D03*
D18*
X278622010Y-149773191D03*
D19*
X283591000Y-148717000D03*
D18*
X288559990Y-147660809D03*
D20*
X242801105Y-94253793D03*
D21*
X244385392Y-101707278D03*
D20*
X250887571Y-132297622D03*
D21*
X252471858Y-139751107D03*
D16*
X281099317Y-124874024D03*
D15*
X281058586Y-124586202D03*
D17*
X275864356Y-127540707D03*
D15*
X276353266Y-126690477D03*
D19*
X279630282Y-130083288D03*
D18*
X284599272Y-129027097D03*
X274661292Y-131139479D03*
D16*
X299733029Y-120913306D03*
D15*
X299692298Y-120625484D03*
X294986978Y-122729759D03*
D17*
X294498068Y-123579989D03*
D19*
X298263994Y-126122570D03*
D18*
X293295004Y-127178761D03*
X303232984Y-125066379D03*
D15*
X295731580Y-101991772D03*
D16*
X295772311Y-102279594D03*
D17*
X290537350Y-104946277D03*
D15*
X291026260Y-104096047D03*
D18*
X299272266Y-106432667D03*
X289334286Y-108545049D03*
D19*
X294303276Y-107488858D03*
D20*
X288154994Y-124376186D03*
D21*
X289739281Y-131829671D03*
D20*
X298702241Y-82371640D03*
D21*
X300286528Y-89825125D03*
D20*
X317335953Y-78410923D03*
D21*
X318920240Y-85864408D03*
D20*
X292115712Y-143009898D03*
D21*
X293699999Y-150463383D03*
D16*
X247792611Y-151429171D03*
D15*
X247751880Y-151141349D03*
D17*
X242557650Y-154095854D03*
D15*
X243046560Y-153245624D03*
D18*
X241354586Y-157694626D03*
X251292566Y-155582244D03*
D19*
X246323576Y-156638435D03*
D15*
X336959721Y-112704049D03*
D16*
X337000452Y-112991871D03*
D17*
X331765491Y-115658554D03*
D15*
X332254401Y-114808324D03*
D19*
X335531417Y-118201135D03*
D18*
X330562427Y-119257326D03*
X340500407Y-117144944D03*
D20*
X306788706Y-120415469D03*
D21*
X308372993Y-127868954D03*
D20*
X302827988Y-101781757D03*
D21*
X304412275Y-109235242D03*
D20*
X329383136Y-135088463D03*
D21*
X330967423Y-142541948D03*
D15*
X322286727Y-135298478D03*
D16*
X322327458Y-135586300D03*
D17*
X317092497Y-138252983D03*
D15*
X317581407Y-137402753D03*
D18*
X315889433Y-141851755D03*
D19*
X320858423Y-140795564D03*
D18*
X325827413Y-139739373D03*
D16*
X273177882Y-87606600D03*
D15*
X273137151Y-87318778D03*
D17*
X267942921Y-90273283D03*
D15*
X268431831Y-89423053D03*
D19*
X271708847Y-92815864D03*
D18*
X276677837Y-91759673D03*
X266739857Y-93872055D03*
D16*
X243831893Y-132795459D03*
D15*
X243791162Y-132507637D03*
D17*
X238596932Y-135462142D03*
D15*
X239085842Y-134611912D03*
D18*
X247331848Y-136948532D03*
D19*
X242362858Y-138004723D03*
D18*
X237393868Y-139060914D03*
D22*
X332416604Y-89558940D03*
D23*
X324963119Y-91143227D03*
D15*
X303653015Y-139259196D03*
D16*
X303693746Y-139547018D03*
D15*
X298947695Y-141363471D03*
D17*
X298458785Y-142213701D03*
D19*
X302224711Y-144756282D03*
D18*
X307193701Y-143700091D03*
X297255721Y-145812473D03*
D20*
X246926853Y-113663910D03*
D21*
X248511140Y-121117395D03*
D15*
X318326010Y-116664766D03*
D16*
X318366741Y-116952588D03*
D15*
X313620690Y-118769041D03*
D17*
X313131780Y-119619271D03*
D18*
X311928716Y-123218043D03*
X321866696Y-121105661D03*
D19*
X316897706Y-122161852D03*
D20*
X280068529Y-86332358D03*
D21*
X281652816Y-93785843D03*
D15*
X161637753Y-115070731D03*
D24*
X161557896Y-115350235D03*
D15*
X156483345Y-115079255D03*
D25*
X155690883Y-115657122D03*
D19*
X158097067Y-119511625D03*
D18*
X163066057Y-120567816D03*
X153128077Y-118455434D03*
D15*
X181760141Y-116577011D03*
D26*
X181740141Y-116867011D03*
D15*
X176720141Y-117657011D03*
D27*
X176065142Y-118387011D03*
D19*
X179220141Y-121657011D03*
D18*
X174140141Y-121657011D03*
X184300141Y-121657011D03*
D28*
X207772000Y-174752000D03*
D29*
X207772000Y-182372000D03*
D28*
X207500000Y-117390000D03*
D29*
X207500000Y-125010000D03*
D15*
X83142188Y-117861572D03*
D24*
X83062331Y-118141076D03*
D25*
X77195318Y-118447963D03*
D15*
X77987780Y-117870096D03*
D19*
X79601502Y-122302466D03*
D18*
X84570492Y-123358657D03*
X74632512Y-121246275D03*
D30*
X195795000Y-84150000D03*
X198335000Y-84150000D03*
D31*
X200875000Y-84150000D03*
D26*
X181740141Y-136044011D03*
D15*
X181760141Y-135754011D03*
D27*
X176065142Y-137564011D03*
D15*
X176720141Y-136834011D03*
D18*
X174140141Y-140834011D03*
X184300141Y-140834011D03*
D19*
X179220141Y-140834011D03*
D32*
X135064391Y-90433690D03*
D33*
X133480104Y-97887175D03*
D12*
X158776743Y-129442144D03*
D11*
X151323258Y-127857857D03*
D24*
X128251190Y-88795088D03*
D15*
X128331047Y-88515584D03*
D25*
X122384177Y-89101975D03*
D15*
X123176639Y-88524108D03*
D19*
X124790361Y-92956478D03*
D18*
X119821371Y-91900287D03*
X129759351Y-94012669D03*
D15*
X153716318Y-152338155D03*
D24*
X153636461Y-152617659D03*
D15*
X148561910Y-152346679D03*
D25*
X147769448Y-152924546D03*
D18*
X145206642Y-155722858D03*
X155144622Y-157835240D03*
D19*
X150175632Y-156779049D03*
D15*
X157677036Y-133704443D03*
D24*
X157597179Y-133983947D03*
D25*
X151730166Y-134290834D03*
D15*
X152522628Y-133712967D03*
D18*
X159105340Y-139201528D03*
D19*
X154136350Y-138145337D03*
D18*
X149167360Y-137089146D03*
D28*
X188745141Y-155407261D03*
D29*
X188745141Y-163027261D03*
D24*
X146884902Y-92755806D03*
D15*
X146964759Y-92476302D03*
D25*
X141017889Y-93062693D03*
D15*
X141810351Y-92484826D03*
D19*
X143424073Y-96917196D03*
D18*
X138455083Y-95861005D03*
X148393063Y-97973387D03*
D32*
X145611637Y-132438236D03*
D33*
X144027350Y-139891721D03*
D32*
X141660544Y-151035457D03*
D33*
X140076257Y-158488942D03*
D15*
X87102906Y-99227861D03*
D24*
X87023049Y-99507365D03*
D25*
X81156036Y-99814252D03*
D15*
X81948498Y-99236385D03*
D19*
X83562220Y-103668755D03*
D18*
X78593230Y-102612564D03*
X88531210Y-104724946D03*
D28*
X188700000Y-117590000D03*
D29*
X188700000Y-125210000D03*
D32*
X85755144Y-139097457D03*
D33*
X84170857Y-146550942D03*
D19*
X198270141Y-140834011D03*
D18*
X193190141Y-140834011D03*
X203350141Y-140834011D03*
D15*
X195770141Y-136834011D03*
D27*
X195115142Y-137564011D03*
D26*
X200790141Y-136044011D03*
D15*
X200810141Y-135754011D03*
D18*
X193190141Y-160011011D03*
D19*
X198270141Y-160011011D03*
D18*
X203350141Y-160011011D03*
D27*
X195115142Y-156741011D03*
D15*
X195770141Y-156011011D03*
X200810141Y-154931011D03*
D26*
X200790141Y-155221011D03*
D32*
X89710502Y-120556083D03*
D33*
X88126215Y-128009568D03*
D28*
X225800000Y-155340000D03*
D29*
X225800000Y-162960000D03*
D28*
X225850000Y-136240000D03*
D29*
X225850000Y-143860000D03*
D32*
X97616944Y-83369857D03*
D33*
X96032657Y-90823342D03*
D15*
X105736618Y-103188578D03*
D24*
X105656761Y-103468082D03*
D15*
X100582210Y-103197102D03*
D25*
X99789748Y-103774969D03*
D18*
X97226942Y-106573281D03*
D19*
X102195932Y-107629472D03*
D18*
X107164922Y-108685663D03*
D32*
X75037508Y-97961653D03*
D33*
X73453221Y-105415138D03*
D26*
X219840141Y-155221011D03*
D15*
X219860141Y-154931011D03*
D27*
X214165142Y-156741011D03*
D15*
X214820141Y-156011011D03*
D18*
X222400141Y-160011011D03*
D19*
X217320141Y-160011011D03*
D18*
X212240141Y-160011011D03*
X203350141Y-121657011D03*
D19*
X198270141Y-121657011D03*
D18*
X193190141Y-121657011D03*
D15*
X195770141Y-117657011D03*
D27*
X195115142Y-118387011D03*
D26*
X200790141Y-116867011D03*
D15*
X200810141Y-116577011D03*
D19*
X198270141Y-179188011D03*
D18*
X203350141Y-179188011D03*
X193190141Y-179188011D03*
D27*
X195115142Y-175918011D03*
D15*
X195770141Y-175188011D03*
D26*
X200790141Y-174398011D03*
D15*
X200810141Y-174108011D03*
D24*
X97735326Y-140735506D03*
D15*
X97815183Y-140456002D03*
D25*
X91868313Y-141042393D03*
D15*
X92660775Y-140464526D03*
D18*
X99243487Y-145953087D03*
D19*
X94274497Y-144896896D03*
D18*
X89305507Y-143840705D03*
D28*
X207795141Y-155407261D03*
D29*
X207795141Y-163027261D03*
D32*
X123016944Y-147174657D03*
D33*
X121432657Y-154628142D03*
D15*
X101775900Y-121822290D03*
D24*
X101696043Y-122101794D03*
D25*
X95829030Y-122408681D03*
D15*
X96621492Y-121830814D03*
D18*
X93266224Y-125206993D03*
X103204204Y-127319375D03*
D19*
X98235214Y-126263184D03*
D15*
X143004042Y-111110014D03*
D24*
X142924185Y-111389518D03*
D15*
X137849634Y-111118538D03*
D25*
X137057172Y-111696405D03*
D19*
X139463356Y-115550908D03*
D18*
X134494366Y-114494717D03*
X144432346Y-116607099D03*
D24*
X90983767Y-80873653D03*
D15*
X91063624Y-80594149D03*
D25*
X85116754Y-81180540D03*
D15*
X85909216Y-80602673D03*
D18*
X82553948Y-83978852D03*
X92491928Y-86091234D03*
D19*
X87522938Y-85035043D03*
D24*
X64428620Y-114180359D03*
D15*
X64508477Y-113900855D03*
D25*
X58561607Y-114487246D03*
D15*
X59354069Y-113909379D03*
D18*
X55998801Y-117285558D03*
X65936781Y-119397940D03*
D19*
X60967791Y-118341749D03*
D32*
X79163255Y-78551537D03*
D33*
X77578968Y-86005022D03*
D15*
X219860141Y-116577011D03*
D26*
X219840141Y-116867011D03*
D15*
X214820141Y-117657011D03*
D27*
X214165142Y-118387011D03*
D18*
X212240141Y-121657011D03*
D19*
X217320141Y-121657011D03*
D18*
X222400141Y-121657011D03*
D15*
X181760141Y-174108011D03*
D26*
X181740141Y-174398011D03*
D27*
X176065142Y-175918011D03*
D15*
X176720141Y-175188011D03*
D18*
X174140141Y-179188011D03*
D19*
X179220141Y-179188011D03*
D18*
X184300141Y-179188011D03*
D32*
X67116072Y-135229077D03*
D33*
X65531785Y-142682562D03*
D15*
X139043324Y-129743725D03*
D24*
X138963467Y-130023229D03*
D25*
X133096454Y-130330116D03*
D15*
X133888916Y-129752249D03*
D18*
X130533648Y-133128428D03*
X140471628Y-135240810D03*
D19*
X135502638Y-134184619D03*
D32*
X116235144Y-87357657D03*
D33*
X114650857Y-94811142D03*
D32*
X93671220Y-101922371D03*
D33*
X92086933Y-109375856D03*
D32*
X104398744Y-143059857D03*
D33*
X102814457Y-150513342D03*
D12*
X154803485Y-147784287D03*
D11*
X147350000Y-146200000D03*
D28*
X225450000Y-177440000D03*
D29*
X225450000Y-185060000D03*
D15*
X219860141Y-135754011D03*
D26*
X219840141Y-136044011D03*
D27*
X214165142Y-137564011D03*
D15*
X214820141Y-136834011D03*
D18*
X212240141Y-140834011D03*
X222400141Y-140834011D03*
D19*
X217320141Y-140834011D03*
D32*
X71076790Y-116595365D03*
D33*
X69492503Y-124048850D03*
D28*
X207922141Y-136230261D03*
D29*
X207922141Y-143850261D03*
D24*
X68389337Y-95546647D03*
D15*
X68469194Y-95267143D03*
D25*
X62522324Y-95853534D03*
D15*
X63314786Y-95275667D03*
D19*
X64928508Y-99708037D03*
D18*
X59959518Y-98651846D03*
X69897498Y-100764228D03*
D15*
X181760141Y-154931011D03*
D26*
X181740141Y-155221011D03*
D27*
X176065142Y-156741011D03*
D15*
X176720141Y-156011011D03*
D18*
X174140141Y-160011011D03*
X184300141Y-160011011D03*
D19*
X179220141Y-160011011D03*
D24*
X79101614Y-136774788D03*
D15*
X79181471Y-136495284D03*
X74027063Y-136503808D03*
D25*
X73234601Y-137081675D03*
D19*
X75640785Y-140936178D03*
D18*
X80609775Y-141992369D03*
X70671795Y-139879987D03*
D24*
X60467902Y-132814070D03*
D15*
X60547759Y-132534566D03*
D25*
X54600889Y-133120957D03*
D15*
X55393351Y-132543090D03*
D18*
X61976063Y-138031651D03*
X52038083Y-135919269D03*
D19*
X57007073Y-136975460D03*
D32*
X149572355Y-113804524D03*
D33*
X147988068Y-121258009D03*
D15*
X165598471Y-96437020D03*
D24*
X165518614Y-96716524D03*
D25*
X159651601Y-97023411D03*
D15*
X160444063Y-96445544D03*
D18*
X167026775Y-101934105D03*
X157088795Y-99821723D03*
D19*
X162057785Y-100877914D03*
D32*
X153698103Y-94394407D03*
D33*
X152113816Y-101847892D03*
D32*
X126977925Y-128477518D03*
D33*
X125393638Y-135931003D03*
D32*
X112304931Y-105883088D03*
D33*
X110720644Y-113336573D03*
D24*
X120329755Y-126062512D03*
D15*
X120409612Y-125783008D03*
D25*
X114462742Y-126369399D03*
D15*
X115255204Y-125791532D03*
D19*
X116868926Y-130223902D03*
D18*
X121837916Y-131280093D03*
X111899936Y-129167711D03*
D15*
X135082606Y-148377437D03*
D24*
X135002749Y-148656941D03*
D25*
X129135736Y-148963828D03*
D15*
X129928198Y-148385961D03*
D18*
X126572930Y-151762140D03*
D19*
X131541920Y-152818331D03*
D18*
X136510910Y-153874522D03*
D28*
X188872141Y-136230261D03*
D29*
X188872141Y-143850261D03*
D28*
X188745141Y-174743011D03*
D29*
X188745141Y-182363011D03*
D28*
X225650000Y-117790000D03*
D29*
X225650000Y-125410000D03*
D32*
X130938643Y-109843806D03*
D33*
X129354356Y-117297291D03*
D32*
X108344214Y-124516800D03*
D33*
X106759927Y-131970285D03*
D12*
X162726743Y-110542144D03*
D11*
X155273258Y-108957857D03*
D24*
X124290473Y-107428800D03*
D15*
X124370330Y-107149296D03*
X119215922Y-107157820D03*
D25*
X118423460Y-107735687D03*
D19*
X120829644Y-111590190D03*
D18*
X125798634Y-112646381D03*
X115860654Y-110533999D03*
D15*
X72429912Y-76633431D03*
D24*
X72350055Y-76912935D03*
D15*
X67275504Y-76641955D03*
D25*
X66483042Y-77219822D03*
D18*
X73858216Y-82130516D03*
X63920236Y-80018134D03*
D19*
X68889226Y-81074325D03*
D24*
X109617479Y-84834370D03*
D15*
X109697336Y-84554866D03*
X104542928Y-84563390D03*
D25*
X103750466Y-85141257D03*
D18*
X111125640Y-90051951D03*
D19*
X106156650Y-88995760D03*
D18*
X101187660Y-87939569D03*
D15*
X116448894Y-144416720D03*
D24*
X116369037Y-144696224D03*
D25*
X110502024Y-145003111D03*
D15*
X111294486Y-144425244D03*
D18*
X117877198Y-149913805D03*
D19*
X112908208Y-148857614D03*
D18*
X107939218Y-147801423D03*
D15*
X219860141Y-174108011D03*
D26*
X219840141Y-174398011D03*
D15*
X214820141Y-175188011D03*
D27*
X214165142Y-175918011D03*
D18*
X212240141Y-179188011D03*
D19*
X217320141Y-179188011D03*
D18*
X222400141Y-179188011D03*
M02*
