G04 #@! TF.GenerationSoftware,KiCad,Pcbnew,7.0.1*
G04 #@! TF.CreationDate,2023-04-09T22:51:23+02:00*
G04 #@! TF.ProjectId,t-rex,742d7265-782e-46b6-9963-61645f706362,rev?*
G04 #@! TF.SameCoordinates,Original*
G04 #@! TF.FileFunction,Copper,L1,Top*
G04 #@! TF.FilePolarity,Positive*
%FSLAX46Y46*%
G04 Gerber Fmt 4.6, Leading zero omitted, Abs format (unit mm)*
G04 Created by KiCad (PCBNEW 7.0.1) date 2023-04-09 22:51:23*
%MOMM*%
%LPD*%
G01*
G04 APERTURE LIST*
G04 Aperture macros list*
%AMHorizOval*
0 Thick line with rounded ends*
0 $1 width*
0 $2 $3 position (X,Y) of the first rounded end (center of the circle)*
0 $4 $5 position (X,Y) of the second rounded end (center of the circle)*
0 Add line between two ends*
20,1,$1,$2,$3,$4,$5,0*
0 Add two circle primitives to create the rounded ends*
1,1,$1,$2,$3*
1,1,$1,$4,$5*%
G04 Aperture macros list end*
%ADD10C,0.300000*%
G04 #@! TA.AperFunction,NonConductor*
%ADD11C,0.300000*%
G04 #@! TD*
G04 #@! TA.AperFunction,NonConductor*
%ADD12C,0.200000*%
G04 #@! TD*
G04 #@! TA.AperFunction,ComponentPad*
%ADD13R,1.600000X1.600000*%
G04 #@! TD*
G04 #@! TA.AperFunction,ComponentPad*
%ADD14O,1.600000X1.600000*%
G04 #@! TD*
G04 #@! TA.AperFunction,ComponentPad*
%ADD15HorizOval,2.250000X0.655001X0.730000X-0.655001X-0.730000X0*%
G04 #@! TD*
G04 #@! TA.AperFunction,ComponentPad*
%ADD16C,2.250000*%
G04 #@! TD*
G04 #@! TA.AperFunction,ComponentPad*
%ADD17HorizOval,2.250000X0.020000X0.290000X-0.020000X-0.290000X0*%
G04 #@! TD*
G04 #@! TA.AperFunction,ComponentPad*
%ADD18R,1.700000X1.700000*%
G04 #@! TD*
G04 #@! TA.AperFunction,ComponentPad*
%ADD19O,1.700000X1.700000*%
G04 #@! TD*
G04 #@! TA.AperFunction,ComponentPad*
%ADD20C,1.800000*%
G04 #@! TD*
G04 #@! TA.AperFunction,ComponentPad*
%ADD21R,1.752600X1.752600*%
G04 #@! TD*
G04 #@! TA.AperFunction,ComponentPad*
%ADD22C,1.752600*%
G04 #@! TD*
G04 #@! TA.AperFunction,ViaPad*
%ADD23C,0.800000*%
G04 #@! TD*
G04 #@! TA.AperFunction,Conductor*
%ADD24C,0.250000*%
G04 #@! TD*
G04 #@! TA.AperFunction,Conductor*
%ADD25C,0.508000*%
G04 #@! TD*
G04 APERTURE END LIST*
D10*
D11*
X139994644Y-127076785D02*
X140066072Y-127005357D01*
X140066072Y-127005357D02*
X140208930Y-126933928D01*
X140208930Y-126933928D02*
X140566072Y-126933928D01*
X140566072Y-126933928D02*
X140708930Y-127005357D01*
X140708930Y-127005357D02*
X140780358Y-127076785D01*
X140780358Y-127076785D02*
X140851787Y-127219642D01*
X140851787Y-127219642D02*
X140851787Y-127362500D01*
X140851787Y-127362500D02*
X140780358Y-127576785D01*
X140780358Y-127576785D02*
X139923215Y-128433928D01*
X139923215Y-128433928D02*
X140851787Y-128433928D01*
X141351786Y-126933928D02*
X142280358Y-126933928D01*
X142280358Y-126933928D02*
X141780358Y-127505357D01*
X141780358Y-127505357D02*
X141994643Y-127505357D01*
X141994643Y-127505357D02*
X142137501Y-127576785D01*
X142137501Y-127576785D02*
X142208929Y-127648214D01*
X142208929Y-127648214D02*
X142280358Y-127791071D01*
X142280358Y-127791071D02*
X142280358Y-128148214D01*
X142280358Y-128148214D02*
X142208929Y-128291071D01*
X142208929Y-128291071D02*
X142137501Y-128362500D01*
X142137501Y-128362500D02*
X141994643Y-128433928D01*
X141994643Y-128433928D02*
X141566072Y-128433928D01*
X141566072Y-128433928D02*
X141423215Y-128362500D01*
X141423215Y-128362500D02*
X141351786Y-128291071D01*
X143208929Y-126933928D02*
X143351786Y-126933928D01*
X143351786Y-126933928D02*
X143494643Y-127005357D01*
X143494643Y-127005357D02*
X143566072Y-127076785D01*
X143566072Y-127076785D02*
X143637500Y-127219642D01*
X143637500Y-127219642D02*
X143708929Y-127505357D01*
X143708929Y-127505357D02*
X143708929Y-127862500D01*
X143708929Y-127862500D02*
X143637500Y-128148214D01*
X143637500Y-128148214D02*
X143566072Y-128291071D01*
X143566072Y-128291071D02*
X143494643Y-128362500D01*
X143494643Y-128362500D02*
X143351786Y-128433928D01*
X143351786Y-128433928D02*
X143208929Y-128433928D01*
X143208929Y-128433928D02*
X143066072Y-128362500D01*
X143066072Y-128362500D02*
X142994643Y-128291071D01*
X142994643Y-128291071D02*
X142923214Y-128148214D01*
X142923214Y-128148214D02*
X142851786Y-127862500D01*
X142851786Y-127862500D02*
X142851786Y-127505357D01*
X142851786Y-127505357D02*
X142923214Y-127219642D01*
X142923214Y-127219642D02*
X142994643Y-127076785D01*
X142994643Y-127076785D02*
X143066072Y-127005357D01*
X143066072Y-127005357D02*
X143208929Y-126933928D01*
X144351785Y-128291071D02*
X144423214Y-128362500D01*
X144423214Y-128362500D02*
X144351785Y-128433928D01*
X144351785Y-128433928D02*
X144280357Y-128362500D01*
X144280357Y-128362500D02*
X144351785Y-128291071D01*
X144351785Y-128291071D02*
X144351785Y-128433928D01*
X145851786Y-128433928D02*
X144994643Y-128433928D01*
X145423214Y-128433928D02*
X145423214Y-126933928D01*
X145423214Y-126933928D02*
X145280357Y-127148214D01*
X145280357Y-127148214D02*
X145137500Y-127291071D01*
X145137500Y-127291071D02*
X144994643Y-127362500D01*
X146708928Y-127576785D02*
X146566071Y-127505357D01*
X146566071Y-127505357D02*
X146494642Y-127433928D01*
X146494642Y-127433928D02*
X146423214Y-127291071D01*
X146423214Y-127291071D02*
X146423214Y-127219642D01*
X146423214Y-127219642D02*
X146494642Y-127076785D01*
X146494642Y-127076785D02*
X146566071Y-127005357D01*
X146566071Y-127005357D02*
X146708928Y-126933928D01*
X146708928Y-126933928D02*
X146994642Y-126933928D01*
X146994642Y-126933928D02*
X147137500Y-127005357D01*
X147137500Y-127005357D02*
X147208928Y-127076785D01*
X147208928Y-127076785D02*
X147280357Y-127219642D01*
X147280357Y-127219642D02*
X147280357Y-127291071D01*
X147280357Y-127291071D02*
X147208928Y-127433928D01*
X147208928Y-127433928D02*
X147137500Y-127505357D01*
X147137500Y-127505357D02*
X146994642Y-127576785D01*
X146994642Y-127576785D02*
X146708928Y-127576785D01*
X146708928Y-127576785D02*
X146566071Y-127648214D01*
X146566071Y-127648214D02*
X146494642Y-127719642D01*
X146494642Y-127719642D02*
X146423214Y-127862500D01*
X146423214Y-127862500D02*
X146423214Y-128148214D01*
X146423214Y-128148214D02*
X146494642Y-128291071D01*
X146494642Y-128291071D02*
X146566071Y-128362500D01*
X146566071Y-128362500D02*
X146708928Y-128433928D01*
X146708928Y-128433928D02*
X146994642Y-128433928D01*
X146994642Y-128433928D02*
X147137500Y-128362500D01*
X147137500Y-128362500D02*
X147208928Y-128291071D01*
X147208928Y-128291071D02*
X147280357Y-128148214D01*
X147280357Y-128148214D02*
X147280357Y-127862500D01*
X147280357Y-127862500D02*
X147208928Y-127719642D01*
X147208928Y-127719642D02*
X147137500Y-127648214D01*
X147137500Y-127648214D02*
X146994642Y-127576785D01*
X147780356Y-126933928D02*
X148780356Y-126933928D01*
X148780356Y-126933928D02*
X148137499Y-128433928D01*
X150066070Y-126933928D02*
X149351784Y-126933928D01*
X149351784Y-126933928D02*
X149280356Y-127648214D01*
X149280356Y-127648214D02*
X149351784Y-127576785D01*
X149351784Y-127576785D02*
X149494642Y-127505357D01*
X149494642Y-127505357D02*
X149851784Y-127505357D01*
X149851784Y-127505357D02*
X149994642Y-127576785D01*
X149994642Y-127576785D02*
X150066070Y-127648214D01*
X150066070Y-127648214D02*
X150137499Y-127791071D01*
X150137499Y-127791071D02*
X150137499Y-128148214D01*
X150137499Y-128148214D02*
X150066070Y-128291071D01*
X150066070Y-128291071D02*
X149994642Y-128362500D01*
X149994642Y-128362500D02*
X149851784Y-128433928D01*
X149851784Y-128433928D02*
X149494642Y-128433928D01*
X149494642Y-128433928D02*
X149351784Y-128362500D01*
X149351784Y-128362500D02*
X149280356Y-128291071D01*
X151923212Y-128433928D02*
X151923212Y-127433928D01*
X151923212Y-127576785D02*
X151994641Y-127505357D01*
X151994641Y-127505357D02*
X152137498Y-127433928D01*
X152137498Y-127433928D02*
X152351784Y-127433928D01*
X152351784Y-127433928D02*
X152494641Y-127505357D01*
X152494641Y-127505357D02*
X152566070Y-127648214D01*
X152566070Y-127648214D02*
X152566070Y-128433928D01*
X152566070Y-127648214D02*
X152637498Y-127505357D01*
X152637498Y-127505357D02*
X152780355Y-127433928D01*
X152780355Y-127433928D02*
X152994641Y-127433928D01*
X152994641Y-127433928D02*
X153137498Y-127505357D01*
X153137498Y-127505357D02*
X153208927Y-127648214D01*
X153208927Y-127648214D02*
X153208927Y-128433928D01*
X153923212Y-128433928D02*
X153923212Y-127433928D01*
X153923212Y-127576785D02*
X153994641Y-127505357D01*
X153994641Y-127505357D02*
X154137498Y-127433928D01*
X154137498Y-127433928D02*
X154351784Y-127433928D01*
X154351784Y-127433928D02*
X154494641Y-127505357D01*
X154494641Y-127505357D02*
X154566070Y-127648214D01*
X154566070Y-127648214D02*
X154566070Y-128433928D01*
X154566070Y-127648214D02*
X154637498Y-127505357D01*
X154637498Y-127505357D02*
X154780355Y-127433928D01*
X154780355Y-127433928D02*
X154994641Y-127433928D01*
X154994641Y-127433928D02*
X155137498Y-127505357D01*
X155137498Y-127505357D02*
X155208927Y-127648214D01*
X155208927Y-127648214D02*
X155208927Y-128433928D01*
D12*
X32543750Y-117181250D02*
X32543750Y-130126420D01*
X262731250Y-117181250D02*
X262731250Y-130126420D01*
X32543750Y-129540000D02*
X262731250Y-129540000D01*
X32543750Y-129540000D02*
X262731250Y-129540000D01*
X32543750Y-129540000D02*
X33670254Y-128953579D01*
X32543750Y-129540000D02*
X33670254Y-130126421D01*
X262731250Y-129540000D02*
X261604746Y-130126421D01*
X262731250Y-129540000D02*
X261604746Y-128953579D01*
D10*
D11*
X271150178Y-78223212D02*
X271150178Y-77937498D01*
X271150178Y-77937498D02*
X271078750Y-77794641D01*
X271078750Y-77794641D02*
X271007321Y-77723212D01*
X271007321Y-77723212D02*
X270793035Y-77580355D01*
X270793035Y-77580355D02*
X270507321Y-77508926D01*
X270507321Y-77508926D02*
X269935892Y-77508926D01*
X269935892Y-77508926D02*
X269793035Y-77580355D01*
X269793035Y-77580355D02*
X269721607Y-77651784D01*
X269721607Y-77651784D02*
X269650178Y-77794641D01*
X269650178Y-77794641D02*
X269650178Y-78080355D01*
X269650178Y-78080355D02*
X269721607Y-78223212D01*
X269721607Y-78223212D02*
X269793035Y-78294641D01*
X269793035Y-78294641D02*
X269935892Y-78366069D01*
X269935892Y-78366069D02*
X270293035Y-78366069D01*
X270293035Y-78366069D02*
X270435892Y-78294641D01*
X270435892Y-78294641D02*
X270507321Y-78223212D01*
X270507321Y-78223212D02*
X270578750Y-78080355D01*
X270578750Y-78080355D02*
X270578750Y-77794641D01*
X270578750Y-77794641D02*
X270507321Y-77651784D01*
X270507321Y-77651784D02*
X270435892Y-77580355D01*
X270435892Y-77580355D02*
X270293035Y-77508926D01*
X269650178Y-76151784D02*
X269650178Y-76866070D01*
X269650178Y-76866070D02*
X270364464Y-76937498D01*
X270364464Y-76937498D02*
X270293035Y-76866070D01*
X270293035Y-76866070D02*
X270221607Y-76723213D01*
X270221607Y-76723213D02*
X270221607Y-76366070D01*
X270221607Y-76366070D02*
X270293035Y-76223213D01*
X270293035Y-76223213D02*
X270364464Y-76151784D01*
X270364464Y-76151784D02*
X270507321Y-76080355D01*
X270507321Y-76080355D02*
X270864464Y-76080355D01*
X270864464Y-76080355D02*
X271007321Y-76151784D01*
X271007321Y-76151784D02*
X271078750Y-76223213D01*
X271078750Y-76223213D02*
X271150178Y-76366070D01*
X271150178Y-76366070D02*
X271150178Y-76723213D01*
X271150178Y-76723213D02*
X271078750Y-76866070D01*
X271078750Y-76866070D02*
X271007321Y-76937498D01*
X271007321Y-75437499D02*
X271078750Y-75366070D01*
X271078750Y-75366070D02*
X271150178Y-75437499D01*
X271150178Y-75437499D02*
X271078750Y-75508927D01*
X271078750Y-75508927D02*
X271007321Y-75437499D01*
X271007321Y-75437499D02*
X271150178Y-75437499D01*
X269793035Y-74794641D02*
X269721607Y-74723213D01*
X269721607Y-74723213D02*
X269650178Y-74580356D01*
X269650178Y-74580356D02*
X269650178Y-74223213D01*
X269650178Y-74223213D02*
X269721607Y-74080356D01*
X269721607Y-74080356D02*
X269793035Y-74008927D01*
X269793035Y-74008927D02*
X269935892Y-73937498D01*
X269935892Y-73937498D02*
X270078750Y-73937498D01*
X270078750Y-73937498D02*
X270293035Y-74008927D01*
X270293035Y-74008927D02*
X271150178Y-74866070D01*
X271150178Y-74866070D02*
X271150178Y-73937498D01*
X269650178Y-72580356D02*
X269650178Y-73294642D01*
X269650178Y-73294642D02*
X270364464Y-73366070D01*
X270364464Y-73366070D02*
X270293035Y-73294642D01*
X270293035Y-73294642D02*
X270221607Y-73151785D01*
X270221607Y-73151785D02*
X270221607Y-72794642D01*
X270221607Y-72794642D02*
X270293035Y-72651785D01*
X270293035Y-72651785D02*
X270364464Y-72580356D01*
X270364464Y-72580356D02*
X270507321Y-72508927D01*
X270507321Y-72508927D02*
X270864464Y-72508927D01*
X270864464Y-72508927D02*
X271007321Y-72580356D01*
X271007321Y-72580356D02*
X271078750Y-72651785D01*
X271078750Y-72651785D02*
X271150178Y-72794642D01*
X271150178Y-72794642D02*
X271150178Y-73151785D01*
X271150178Y-73151785D02*
X271078750Y-73294642D01*
X271078750Y-73294642D02*
X271007321Y-73366070D01*
X269650178Y-71580356D02*
X269650178Y-71437499D01*
X269650178Y-71437499D02*
X269721607Y-71294642D01*
X269721607Y-71294642D02*
X269793035Y-71223214D01*
X269793035Y-71223214D02*
X269935892Y-71151785D01*
X269935892Y-71151785D02*
X270221607Y-71080356D01*
X270221607Y-71080356D02*
X270578750Y-71080356D01*
X270578750Y-71080356D02*
X270864464Y-71151785D01*
X270864464Y-71151785D02*
X271007321Y-71223214D01*
X271007321Y-71223214D02*
X271078750Y-71294642D01*
X271078750Y-71294642D02*
X271150178Y-71437499D01*
X271150178Y-71437499D02*
X271150178Y-71580356D01*
X271150178Y-71580356D02*
X271078750Y-71723214D01*
X271078750Y-71723214D02*
X271007321Y-71794642D01*
X271007321Y-71794642D02*
X270864464Y-71866071D01*
X270864464Y-71866071D02*
X270578750Y-71937499D01*
X270578750Y-71937499D02*
X270221607Y-71937499D01*
X270221607Y-71937499D02*
X269935892Y-71866071D01*
X269935892Y-71866071D02*
X269793035Y-71794642D01*
X269793035Y-71794642D02*
X269721607Y-71723214D01*
X269721607Y-71723214D02*
X269650178Y-71580356D01*
X269650178Y-70151785D02*
X269650178Y-70008928D01*
X269650178Y-70008928D02*
X269721607Y-69866071D01*
X269721607Y-69866071D02*
X269793035Y-69794643D01*
X269793035Y-69794643D02*
X269935892Y-69723214D01*
X269935892Y-69723214D02*
X270221607Y-69651785D01*
X270221607Y-69651785D02*
X270578750Y-69651785D01*
X270578750Y-69651785D02*
X270864464Y-69723214D01*
X270864464Y-69723214D02*
X271007321Y-69794643D01*
X271007321Y-69794643D02*
X271078750Y-69866071D01*
X271078750Y-69866071D02*
X271150178Y-70008928D01*
X271150178Y-70008928D02*
X271150178Y-70151785D01*
X271150178Y-70151785D02*
X271078750Y-70294643D01*
X271078750Y-70294643D02*
X271007321Y-70366071D01*
X271007321Y-70366071D02*
X270864464Y-70437500D01*
X270864464Y-70437500D02*
X270578750Y-70508928D01*
X270578750Y-70508928D02*
X270221607Y-70508928D01*
X270221607Y-70508928D02*
X269935892Y-70437500D01*
X269935892Y-70437500D02*
X269793035Y-70366071D01*
X269793035Y-70366071D02*
X269721607Y-70294643D01*
X269721607Y-70294643D02*
X269650178Y-70151785D01*
X271150178Y-67866072D02*
X270150178Y-67866072D01*
X270293035Y-67866072D02*
X270221607Y-67794643D01*
X270221607Y-67794643D02*
X270150178Y-67651786D01*
X270150178Y-67651786D02*
X270150178Y-67437500D01*
X270150178Y-67437500D02*
X270221607Y-67294643D01*
X270221607Y-67294643D02*
X270364464Y-67223215D01*
X270364464Y-67223215D02*
X271150178Y-67223215D01*
X270364464Y-67223215D02*
X270221607Y-67151786D01*
X270221607Y-67151786D02*
X270150178Y-67008929D01*
X270150178Y-67008929D02*
X270150178Y-66794643D01*
X270150178Y-66794643D02*
X270221607Y-66651786D01*
X270221607Y-66651786D02*
X270364464Y-66580357D01*
X270364464Y-66580357D02*
X271150178Y-66580357D01*
X271150178Y-65866072D02*
X270150178Y-65866072D01*
X270293035Y-65866072D02*
X270221607Y-65794643D01*
X270221607Y-65794643D02*
X270150178Y-65651786D01*
X270150178Y-65651786D02*
X270150178Y-65437500D01*
X270150178Y-65437500D02*
X270221607Y-65294643D01*
X270221607Y-65294643D02*
X270364464Y-65223215D01*
X270364464Y-65223215D02*
X271150178Y-65223215D01*
X270364464Y-65223215D02*
X270221607Y-65151786D01*
X270221607Y-65151786D02*
X270150178Y-65008929D01*
X270150178Y-65008929D02*
X270150178Y-64794643D01*
X270150178Y-64794643D02*
X270221607Y-64651786D01*
X270221607Y-64651786D02*
X270364464Y-64580357D01*
X270364464Y-64580357D02*
X271150178Y-64580357D01*
D12*
X262437500Y-23812500D02*
X272842670Y-23812500D01*
X262437500Y-119062500D02*
X272842670Y-119062500D01*
X272256250Y-23812500D02*
X272256250Y-119062500D01*
X272256250Y-23812500D02*
X272256250Y-119062500D01*
X272256250Y-23812500D02*
X272842671Y-24939004D01*
X272256250Y-23812500D02*
X271669829Y-24939004D01*
X272256250Y-119062500D02*
X271669829Y-117935996D01*
X272256250Y-119062500D02*
X272842671Y-117935996D01*
D10*
D11*
X139994644Y-122949285D02*
X140066072Y-122877857D01*
X140066072Y-122877857D02*
X140208930Y-122806428D01*
X140208930Y-122806428D02*
X140566072Y-122806428D01*
X140566072Y-122806428D02*
X140708930Y-122877857D01*
X140708930Y-122877857D02*
X140780358Y-122949285D01*
X140780358Y-122949285D02*
X140851787Y-123092142D01*
X140851787Y-123092142D02*
X140851787Y-123235000D01*
X140851787Y-123235000D02*
X140780358Y-123449285D01*
X140780358Y-123449285D02*
X139923215Y-124306428D01*
X139923215Y-124306428D02*
X140851787Y-124306428D01*
X141423215Y-122949285D02*
X141494643Y-122877857D01*
X141494643Y-122877857D02*
X141637501Y-122806428D01*
X141637501Y-122806428D02*
X141994643Y-122806428D01*
X141994643Y-122806428D02*
X142137501Y-122877857D01*
X142137501Y-122877857D02*
X142208929Y-122949285D01*
X142208929Y-122949285D02*
X142280358Y-123092142D01*
X142280358Y-123092142D02*
X142280358Y-123235000D01*
X142280358Y-123235000D02*
X142208929Y-123449285D01*
X142208929Y-123449285D02*
X141351786Y-124306428D01*
X141351786Y-124306428D02*
X142280358Y-124306428D01*
X143137500Y-123449285D02*
X142994643Y-123377857D01*
X142994643Y-123377857D02*
X142923214Y-123306428D01*
X142923214Y-123306428D02*
X142851786Y-123163571D01*
X142851786Y-123163571D02*
X142851786Y-123092142D01*
X142851786Y-123092142D02*
X142923214Y-122949285D01*
X142923214Y-122949285D02*
X142994643Y-122877857D01*
X142994643Y-122877857D02*
X143137500Y-122806428D01*
X143137500Y-122806428D02*
X143423214Y-122806428D01*
X143423214Y-122806428D02*
X143566072Y-122877857D01*
X143566072Y-122877857D02*
X143637500Y-122949285D01*
X143637500Y-122949285D02*
X143708929Y-123092142D01*
X143708929Y-123092142D02*
X143708929Y-123163571D01*
X143708929Y-123163571D02*
X143637500Y-123306428D01*
X143637500Y-123306428D02*
X143566072Y-123377857D01*
X143566072Y-123377857D02*
X143423214Y-123449285D01*
X143423214Y-123449285D02*
X143137500Y-123449285D01*
X143137500Y-123449285D02*
X142994643Y-123520714D01*
X142994643Y-123520714D02*
X142923214Y-123592142D01*
X142923214Y-123592142D02*
X142851786Y-123735000D01*
X142851786Y-123735000D02*
X142851786Y-124020714D01*
X142851786Y-124020714D02*
X142923214Y-124163571D01*
X142923214Y-124163571D02*
X142994643Y-124235000D01*
X142994643Y-124235000D02*
X143137500Y-124306428D01*
X143137500Y-124306428D02*
X143423214Y-124306428D01*
X143423214Y-124306428D02*
X143566072Y-124235000D01*
X143566072Y-124235000D02*
X143637500Y-124163571D01*
X143637500Y-124163571D02*
X143708929Y-124020714D01*
X143708929Y-124020714D02*
X143708929Y-123735000D01*
X143708929Y-123735000D02*
X143637500Y-123592142D01*
X143637500Y-123592142D02*
X143566072Y-123520714D01*
X143566072Y-123520714D02*
X143423214Y-123449285D01*
X144351785Y-124163571D02*
X144423214Y-124235000D01*
X144423214Y-124235000D02*
X144351785Y-124306428D01*
X144351785Y-124306428D02*
X144280357Y-124235000D01*
X144280357Y-124235000D02*
X144351785Y-124163571D01*
X144351785Y-124163571D02*
X144351785Y-124306428D01*
X145708929Y-122806428D02*
X145423214Y-122806428D01*
X145423214Y-122806428D02*
X145280357Y-122877857D01*
X145280357Y-122877857D02*
X145208929Y-122949285D01*
X145208929Y-122949285D02*
X145066071Y-123163571D01*
X145066071Y-123163571D02*
X144994643Y-123449285D01*
X144994643Y-123449285D02*
X144994643Y-124020714D01*
X144994643Y-124020714D02*
X145066071Y-124163571D01*
X145066071Y-124163571D02*
X145137500Y-124235000D01*
X145137500Y-124235000D02*
X145280357Y-124306428D01*
X145280357Y-124306428D02*
X145566071Y-124306428D01*
X145566071Y-124306428D02*
X145708929Y-124235000D01*
X145708929Y-124235000D02*
X145780357Y-124163571D01*
X145780357Y-124163571D02*
X145851786Y-124020714D01*
X145851786Y-124020714D02*
X145851786Y-123663571D01*
X145851786Y-123663571D02*
X145780357Y-123520714D01*
X145780357Y-123520714D02*
X145708929Y-123449285D01*
X145708929Y-123449285D02*
X145566071Y-123377857D01*
X145566071Y-123377857D02*
X145280357Y-123377857D01*
X145280357Y-123377857D02*
X145137500Y-123449285D01*
X145137500Y-123449285D02*
X145066071Y-123520714D01*
X145066071Y-123520714D02*
X144994643Y-123663571D01*
X146780357Y-122806428D02*
X146923214Y-122806428D01*
X146923214Y-122806428D02*
X147066071Y-122877857D01*
X147066071Y-122877857D02*
X147137500Y-122949285D01*
X147137500Y-122949285D02*
X147208928Y-123092142D01*
X147208928Y-123092142D02*
X147280357Y-123377857D01*
X147280357Y-123377857D02*
X147280357Y-123735000D01*
X147280357Y-123735000D02*
X147208928Y-124020714D01*
X147208928Y-124020714D02*
X147137500Y-124163571D01*
X147137500Y-124163571D02*
X147066071Y-124235000D01*
X147066071Y-124235000D02*
X146923214Y-124306428D01*
X146923214Y-124306428D02*
X146780357Y-124306428D01*
X146780357Y-124306428D02*
X146637500Y-124235000D01*
X146637500Y-124235000D02*
X146566071Y-124163571D01*
X146566071Y-124163571D02*
X146494642Y-124020714D01*
X146494642Y-124020714D02*
X146423214Y-123735000D01*
X146423214Y-123735000D02*
X146423214Y-123377857D01*
X146423214Y-123377857D02*
X146494642Y-123092142D01*
X146494642Y-123092142D02*
X146566071Y-122949285D01*
X146566071Y-122949285D02*
X146637500Y-122877857D01*
X146637500Y-122877857D02*
X146780357Y-122806428D01*
X148208928Y-122806428D02*
X148351785Y-122806428D01*
X148351785Y-122806428D02*
X148494642Y-122877857D01*
X148494642Y-122877857D02*
X148566071Y-122949285D01*
X148566071Y-122949285D02*
X148637499Y-123092142D01*
X148637499Y-123092142D02*
X148708928Y-123377857D01*
X148708928Y-123377857D02*
X148708928Y-123735000D01*
X148708928Y-123735000D02*
X148637499Y-124020714D01*
X148637499Y-124020714D02*
X148566071Y-124163571D01*
X148566071Y-124163571D02*
X148494642Y-124235000D01*
X148494642Y-124235000D02*
X148351785Y-124306428D01*
X148351785Y-124306428D02*
X148208928Y-124306428D01*
X148208928Y-124306428D02*
X148066071Y-124235000D01*
X148066071Y-124235000D02*
X147994642Y-124163571D01*
X147994642Y-124163571D02*
X147923213Y-124020714D01*
X147923213Y-124020714D02*
X147851785Y-123735000D01*
X147851785Y-123735000D02*
X147851785Y-123377857D01*
X147851785Y-123377857D02*
X147923213Y-123092142D01*
X147923213Y-123092142D02*
X147994642Y-122949285D01*
X147994642Y-122949285D02*
X148066071Y-122877857D01*
X148066071Y-122877857D02*
X148208928Y-122806428D01*
X149637499Y-122806428D02*
X149780356Y-122806428D01*
X149780356Y-122806428D02*
X149923213Y-122877857D01*
X149923213Y-122877857D02*
X149994642Y-122949285D01*
X149994642Y-122949285D02*
X150066070Y-123092142D01*
X150066070Y-123092142D02*
X150137499Y-123377857D01*
X150137499Y-123377857D02*
X150137499Y-123735000D01*
X150137499Y-123735000D02*
X150066070Y-124020714D01*
X150066070Y-124020714D02*
X149994642Y-124163571D01*
X149994642Y-124163571D02*
X149923213Y-124235000D01*
X149923213Y-124235000D02*
X149780356Y-124306428D01*
X149780356Y-124306428D02*
X149637499Y-124306428D01*
X149637499Y-124306428D02*
X149494642Y-124235000D01*
X149494642Y-124235000D02*
X149423213Y-124163571D01*
X149423213Y-124163571D02*
X149351784Y-124020714D01*
X149351784Y-124020714D02*
X149280356Y-123735000D01*
X149280356Y-123735000D02*
X149280356Y-123377857D01*
X149280356Y-123377857D02*
X149351784Y-123092142D01*
X149351784Y-123092142D02*
X149423213Y-122949285D01*
X149423213Y-122949285D02*
X149494642Y-122877857D01*
X149494642Y-122877857D02*
X149637499Y-122806428D01*
X151923212Y-124306428D02*
X151923212Y-123306428D01*
X151923212Y-123449285D02*
X151994641Y-123377857D01*
X151994641Y-123377857D02*
X152137498Y-123306428D01*
X152137498Y-123306428D02*
X152351784Y-123306428D01*
X152351784Y-123306428D02*
X152494641Y-123377857D01*
X152494641Y-123377857D02*
X152566070Y-123520714D01*
X152566070Y-123520714D02*
X152566070Y-124306428D01*
X152566070Y-123520714D02*
X152637498Y-123377857D01*
X152637498Y-123377857D02*
X152780355Y-123306428D01*
X152780355Y-123306428D02*
X152994641Y-123306428D01*
X152994641Y-123306428D02*
X153137498Y-123377857D01*
X153137498Y-123377857D02*
X153208927Y-123520714D01*
X153208927Y-123520714D02*
X153208927Y-124306428D01*
X153923212Y-124306428D02*
X153923212Y-123306428D01*
X153923212Y-123449285D02*
X153994641Y-123377857D01*
X153994641Y-123377857D02*
X154137498Y-123306428D01*
X154137498Y-123306428D02*
X154351784Y-123306428D01*
X154351784Y-123306428D02*
X154494641Y-123377857D01*
X154494641Y-123377857D02*
X154566070Y-123520714D01*
X154566070Y-123520714D02*
X154566070Y-124306428D01*
X154566070Y-123520714D02*
X154637498Y-123377857D01*
X154637498Y-123377857D02*
X154780355Y-123306428D01*
X154780355Y-123306428D02*
X154994641Y-123306428D01*
X154994641Y-123306428D02*
X155137498Y-123377857D01*
X155137498Y-123377857D02*
X155208927Y-123520714D01*
X155208927Y-123520714D02*
X155208927Y-124306428D01*
D12*
X33337500Y-118768750D02*
X33337500Y-125998920D01*
X261937500Y-118768750D02*
X261937500Y-125998920D01*
X33337500Y-125412500D02*
X261937500Y-125412500D01*
X33337500Y-125412500D02*
X261937500Y-125412500D01*
X33337500Y-125412500D02*
X34464004Y-124826079D01*
X33337500Y-125412500D02*
X34464004Y-125998921D01*
X261937500Y-125412500D02*
X260810996Y-125998921D01*
X261937500Y-125412500D02*
X260810996Y-124826079D01*
D10*
D11*
X274624654Y-77640715D02*
X274624746Y-77355000D01*
X274624746Y-77355000D02*
X274553364Y-77212120D01*
X274553364Y-77212120D02*
X274481959Y-77140668D01*
X274481959Y-77140668D02*
X274267719Y-76997742D01*
X274267719Y-76997742D02*
X273982028Y-76926221D01*
X273982028Y-76926221D02*
X273410600Y-76926035D01*
X273410600Y-76926035D02*
X273267719Y-76997418D01*
X273267719Y-76997418D02*
X273196268Y-77068823D01*
X273196268Y-77068823D02*
X273124793Y-77211657D01*
X273124793Y-77211657D02*
X273124700Y-77497371D01*
X273124700Y-77497371D02*
X273196083Y-77640252D01*
X273196083Y-77640252D02*
X273267488Y-77711703D01*
X273267488Y-77711703D02*
X273410322Y-77783178D01*
X273410322Y-77783178D02*
X273767465Y-77783294D01*
X273767465Y-77783294D02*
X273910345Y-77711912D01*
X273910345Y-77711912D02*
X273981797Y-77640506D01*
X273981797Y-77640506D02*
X274053272Y-77497672D01*
X274053272Y-77497672D02*
X274053364Y-77211958D01*
X274053364Y-77211958D02*
X273981982Y-77069078D01*
X273981982Y-77069078D02*
X273910576Y-76997626D01*
X273910576Y-76997626D02*
X273767742Y-76926151D01*
X273768020Y-76069009D02*
X273696545Y-76211843D01*
X273696545Y-76211843D02*
X273625094Y-76283248D01*
X273625094Y-76283248D02*
X273482213Y-76354631D01*
X273482213Y-76354631D02*
X273410785Y-76354607D01*
X273410785Y-76354607D02*
X273267951Y-76283133D01*
X273267951Y-76283133D02*
X273196545Y-76211681D01*
X273196545Y-76211681D02*
X273125163Y-76068801D01*
X273125163Y-76068801D02*
X273125256Y-75783086D01*
X273125256Y-75783086D02*
X273196730Y-75640252D01*
X273196730Y-75640252D02*
X273268182Y-75568847D01*
X273268182Y-75568847D02*
X273411062Y-75497465D01*
X273411062Y-75497465D02*
X273482491Y-75497488D01*
X273482491Y-75497488D02*
X273625325Y-75568963D01*
X273625325Y-75568963D02*
X273696730Y-75640414D01*
X273696730Y-75640414D02*
X273768113Y-75783295D01*
X273768113Y-75783295D02*
X273768020Y-76069009D01*
X273768020Y-76069009D02*
X273839402Y-76211889D01*
X273839402Y-76211889D02*
X273910808Y-76283341D01*
X273910808Y-76283341D02*
X274053642Y-76354816D01*
X274053642Y-76354816D02*
X274339356Y-76354908D01*
X274339356Y-76354908D02*
X274482236Y-76283526D01*
X274482236Y-76283526D02*
X274553688Y-76212120D01*
X274553688Y-76212120D02*
X274625163Y-76069286D01*
X274625163Y-76069286D02*
X274625255Y-75783572D01*
X274625255Y-75783572D02*
X274553873Y-75640692D01*
X274553873Y-75640692D02*
X274482468Y-75569240D01*
X274482468Y-75569240D02*
X274339634Y-75497765D01*
X274339634Y-75497765D02*
X274053919Y-75497673D01*
X274053919Y-75497673D02*
X273911039Y-75569055D01*
X273911039Y-75569055D02*
X273839588Y-75640461D01*
X273839588Y-75640461D02*
X273768113Y-75783295D01*
X274482699Y-74854955D02*
X274554151Y-74783550D01*
X274554151Y-74783550D02*
X274625556Y-74855001D01*
X274625556Y-74855001D02*
X274554105Y-74926407D01*
X274554105Y-74926407D02*
X274482699Y-74854955D01*
X274482699Y-74854955D02*
X274625556Y-74855001D01*
X273125880Y-73854515D02*
X273125927Y-73711658D01*
X273125927Y-73711658D02*
X273197401Y-73568824D01*
X273197401Y-73568824D02*
X273268853Y-73497419D01*
X273268853Y-73497419D02*
X273411733Y-73426036D01*
X273411733Y-73426036D02*
X273697471Y-73354700D01*
X273697471Y-73354700D02*
X274054614Y-73354816D01*
X274054614Y-73354816D02*
X274340305Y-73426337D01*
X274340305Y-73426337D02*
X274483139Y-73497812D01*
X274483139Y-73497812D02*
X274554544Y-73569264D01*
X274554544Y-73569264D02*
X274625926Y-73712144D01*
X274625926Y-73712144D02*
X274625880Y-73855001D01*
X274625880Y-73855001D02*
X274554405Y-73997835D01*
X274554405Y-73997835D02*
X274482954Y-74069240D01*
X274482954Y-74069240D02*
X274340073Y-74140623D01*
X274340073Y-74140623D02*
X274054336Y-74211959D01*
X274054336Y-74211959D02*
X273697193Y-74211843D01*
X273697193Y-74211843D02*
X273411502Y-74140322D01*
X273411502Y-74140322D02*
X273268668Y-74068847D01*
X273268668Y-74068847D02*
X273197263Y-73997395D01*
X273197263Y-73997395D02*
X273125880Y-73854515D01*
X274626505Y-71926430D02*
X274626227Y-72783573D01*
X274626366Y-72355001D02*
X273126366Y-72354516D01*
X273126366Y-72354516D02*
X273340606Y-72497442D01*
X273340606Y-72497442D02*
X273483416Y-72640346D01*
X273483416Y-72640346D02*
X273554799Y-72783226D01*
X273269547Y-71354562D02*
X273198142Y-71283111D01*
X273198142Y-71283111D02*
X273126760Y-71140230D01*
X273126760Y-71140230D02*
X273126875Y-70783088D01*
X273126875Y-70783088D02*
X273198350Y-70640254D01*
X273198350Y-70640254D02*
X273269802Y-70568848D01*
X273269802Y-70568848D02*
X273412682Y-70497466D01*
X273412682Y-70497466D02*
X273555539Y-70497512D01*
X273555539Y-70497512D02*
X273769802Y-70569010D01*
X273769802Y-70569010D02*
X274626667Y-71426431D01*
X274626667Y-71426431D02*
X274626968Y-70497859D01*
X273127130Y-69997374D02*
X273127431Y-69068802D01*
X273127431Y-69068802D02*
X273698697Y-69568987D01*
X273698697Y-69568987D02*
X273698767Y-69354702D01*
X273698767Y-69354702D02*
X273770241Y-69211868D01*
X273770241Y-69211868D02*
X273841693Y-69140462D01*
X273841693Y-69140462D02*
X273984573Y-69069080D01*
X273984573Y-69069080D02*
X274341716Y-69069196D01*
X274341716Y-69069196D02*
X274484550Y-69140671D01*
X274484550Y-69140671D02*
X274555956Y-69212122D01*
X274555956Y-69212122D02*
X274627338Y-69355003D01*
X274627338Y-69355003D02*
X274627199Y-69783574D01*
X274627199Y-69783574D02*
X274555724Y-69926408D01*
X274555724Y-69926408D02*
X274484273Y-69997813D01*
X274628009Y-67283575D02*
X273628009Y-67283251D01*
X273770866Y-67283297D02*
X273699461Y-67211845D01*
X273699461Y-67211845D02*
X273628078Y-67068965D01*
X273628078Y-67068965D02*
X273628148Y-66854679D01*
X273628148Y-66854679D02*
X273699623Y-66711845D01*
X273699623Y-66711845D02*
X273842503Y-66640463D01*
X273842503Y-66640463D02*
X274628217Y-66640718D01*
X273842503Y-66640463D02*
X273699669Y-66568988D01*
X273699669Y-66568988D02*
X273628287Y-66426108D01*
X273628287Y-66426108D02*
X273628356Y-66211822D01*
X273628356Y-66211822D02*
X273699831Y-66068988D01*
X273699831Y-66068988D02*
X273842711Y-65997606D01*
X273842711Y-65997606D02*
X274628425Y-65997860D01*
X274628657Y-65283575D02*
X273628657Y-65283251D01*
X273771514Y-65283297D02*
X273700109Y-65211845D01*
X273700109Y-65211845D02*
X273628726Y-65068965D01*
X273628726Y-65068965D02*
X273628796Y-64854679D01*
X273628796Y-64854679D02*
X273700271Y-64711845D01*
X273700271Y-64711845D02*
X273843151Y-64640463D01*
X273843151Y-64640463D02*
X274628865Y-64640718D01*
X273843151Y-64640463D02*
X273700317Y-64568988D01*
X273700317Y-64568988D02*
X273628935Y-64426108D01*
X273628935Y-64426108D02*
X273629004Y-64211822D01*
X273629004Y-64211822D02*
X273700479Y-64068988D01*
X273700479Y-64068988D02*
X273843359Y-63997606D01*
X273843359Y-63997606D02*
X274629073Y-63997861D01*
D12*
X260088000Y-21844163D02*
X276335219Y-21849426D01*
X260056250Y-119856412D02*
X276303469Y-119861675D01*
X275748799Y-21849236D02*
X275717049Y-119861485D01*
X275748799Y-21849236D02*
X275717049Y-119861485D01*
X275748799Y-21849236D02*
X276334855Y-22975930D01*
X275748799Y-21849236D02*
X275162013Y-22975550D01*
X275717049Y-119861485D02*
X275130993Y-118734791D01*
X275717049Y-119861485D02*
X276303835Y-118735171D01*
D13*
X57150000Y-42862500D03*
D14*
X64770000Y-42862500D03*
D15*
X211157501Y-87217500D03*
D16*
X211812500Y-86487500D03*
D17*
X216832500Y-85697500D03*
D16*
X216852500Y-85407500D03*
D13*
X242697000Y-36322000D03*
D14*
X242697000Y-28702000D03*
D15*
X58757501Y-87217500D03*
D16*
X59412500Y-86487500D03*
D17*
X64432500Y-85697500D03*
D16*
X64452500Y-85407500D03*
D18*
X46196250Y-42862500D03*
D19*
X43656250Y-42862500D03*
X41116250Y-42862500D03*
D13*
X242887500Y-75247500D03*
D14*
X242887500Y-67627500D03*
D15*
X154007501Y-30067500D03*
D16*
X154662500Y-29337500D03*
D17*
X159682500Y-28547500D03*
D16*
X159702500Y-28257500D03*
D13*
X204787500Y-75247500D03*
D14*
X204787500Y-67627500D03*
D13*
X242887500Y-113347500D03*
D14*
X242887500Y-105727500D03*
D15*
X249257501Y-87217500D03*
D16*
X249912500Y-86487500D03*
D17*
X254932500Y-85697500D03*
D16*
X254952500Y-85407500D03*
D13*
X109537500Y-55403750D03*
D14*
X109537500Y-47783750D03*
D15*
X154007501Y-49117500D03*
D16*
X154662500Y-48387500D03*
D17*
X159682500Y-47597500D03*
D16*
X159702500Y-47307500D03*
D13*
X166687500Y-94297500D03*
D14*
X166687500Y-86677500D03*
D13*
X147637500Y-94297500D03*
D14*
X147637500Y-86677500D03*
D15*
X96857501Y-49117500D03*
D16*
X97512500Y-48387500D03*
D17*
X102532500Y-47597500D03*
D16*
X102552500Y-47307500D03*
D15*
X134957501Y-106267500D03*
D16*
X135612500Y-105537500D03*
D17*
X140632500Y-104747500D03*
D16*
X140652500Y-104457500D03*
D15*
X134957501Y-87217500D03*
D16*
X135612500Y-86487500D03*
D17*
X140632500Y-85697500D03*
D16*
X140652500Y-85407500D03*
D13*
X109537500Y-36353750D03*
D14*
X109537500Y-28733750D03*
D15*
X154007501Y-87217500D03*
D16*
X154662500Y-86487500D03*
D17*
X159682500Y-85697500D03*
D16*
X159702500Y-85407500D03*
D15*
X173057501Y-49117500D03*
D16*
X173712500Y-48387500D03*
D17*
X178732500Y-47597500D03*
D16*
X178752500Y-47307500D03*
D15*
X115907501Y-49117500D03*
D16*
X116562500Y-48387500D03*
D17*
X121582500Y-47597500D03*
D16*
X121602500Y-47307500D03*
D13*
X128587500Y-94297500D03*
D14*
X128587500Y-86677500D03*
D15*
X173057501Y-87217500D03*
D16*
X173712500Y-86487500D03*
D17*
X178732500Y-85697500D03*
D16*
X178752500Y-85407500D03*
D13*
X128587500Y-113347500D03*
D14*
X128587500Y-105727500D03*
D13*
X185737500Y-113347500D03*
D14*
X185737500Y-105727500D03*
D15*
X58757501Y-68167500D03*
D16*
X59412500Y-67437500D03*
D17*
X64432500Y-66647500D03*
D16*
X64452500Y-66357500D03*
D15*
X192107501Y-49117500D03*
D16*
X192762500Y-48387500D03*
D17*
X197782500Y-47597500D03*
D16*
X197802500Y-47307500D03*
D13*
X223837500Y-36353750D03*
D14*
X223837500Y-28733750D03*
D13*
X247808750Y-100012500D03*
D14*
X255428750Y-100012500D03*
D13*
X71437500Y-113347500D03*
D14*
X71437500Y-105727500D03*
D15*
X173057501Y-30067500D03*
D16*
X173712500Y-29337500D03*
D17*
X178732500Y-28547500D03*
D16*
X178752500Y-28257500D03*
D13*
X204787500Y-94297500D03*
D14*
X204787500Y-86677500D03*
D15*
X115907501Y-30067500D03*
D16*
X116562500Y-29337500D03*
D17*
X121582500Y-28547500D03*
D16*
X121602500Y-28257500D03*
D15*
X192107501Y-87217500D03*
D16*
X192762500Y-86487500D03*
D17*
X197782500Y-85697500D03*
D16*
X197802500Y-85407500D03*
D13*
X71437500Y-94297500D03*
D14*
X71437500Y-86677500D03*
D13*
X185737500Y-75247500D03*
D14*
X185737500Y-67627500D03*
D13*
X147637500Y-36353750D03*
D14*
X147637500Y-28733750D03*
D13*
X204787500Y-36353750D03*
D14*
X204787500Y-28733750D03*
D13*
X62706250Y-61912500D03*
D14*
X70326250Y-61912500D03*
D15*
X77807501Y-68167500D03*
D16*
X78462500Y-67437500D03*
D17*
X83482500Y-66647500D03*
D16*
X83502500Y-66357500D03*
D15*
X230207501Y-68167500D03*
D16*
X230862500Y-67437500D03*
D17*
X235882500Y-66647500D03*
D16*
X235902500Y-66357500D03*
D13*
X228346000Y-98552000D03*
D14*
X235966000Y-98552000D03*
D15*
X154007501Y-106267500D03*
D16*
X154662500Y-105537500D03*
D17*
X159682500Y-104747500D03*
D16*
X159702500Y-104457500D03*
D13*
X52387500Y-75247500D03*
D14*
X52387500Y-67627500D03*
D13*
X223837500Y-94297500D03*
D14*
X223837500Y-86677500D03*
D15*
X230207501Y-106267500D03*
D16*
X230862500Y-105537500D03*
D17*
X235882500Y-104747500D03*
D16*
X235902500Y-104457500D03*
D13*
X247700800Y-61823600D03*
D14*
X255320800Y-61823600D03*
D15*
X134957501Y-30067500D03*
D16*
X135612500Y-29337500D03*
D17*
X140632500Y-28547500D03*
D16*
X140652500Y-28257500D03*
D15*
X230207501Y-30067500D03*
D16*
X230862500Y-29337500D03*
D17*
X235882500Y-28547500D03*
D16*
X235902500Y-28257500D03*
D15*
X211157501Y-30067500D03*
D16*
X211812500Y-29337500D03*
D17*
X216832500Y-28547500D03*
D16*
X216852500Y-28257500D03*
D15*
X58757501Y-30067500D03*
D16*
X59412500Y-29337500D03*
D17*
X64432500Y-28547500D03*
D16*
X64452500Y-28257500D03*
D15*
X77807501Y-106267500D03*
D16*
X78462500Y-105537500D03*
D17*
X83482500Y-104747500D03*
D16*
X83502500Y-104457500D03*
D13*
X128587500Y-36353750D03*
D14*
X128587500Y-28733750D03*
D13*
X109537500Y-113347500D03*
D14*
X109537500Y-105727500D03*
D15*
X77807501Y-87217500D03*
D16*
X78462500Y-86487500D03*
D17*
X83482500Y-85697500D03*
D16*
X83502500Y-85407500D03*
D15*
X115907501Y-68167500D03*
D16*
X116562500Y-67437500D03*
D17*
X121582500Y-66647500D03*
D16*
X121602500Y-66357500D03*
D15*
X58757501Y-49117500D03*
D16*
X59412500Y-48387500D03*
D17*
X64432500Y-47597500D03*
D16*
X64452500Y-47307500D03*
D15*
X211157501Y-106267500D03*
D16*
X211812500Y-105537500D03*
D17*
X216832500Y-104747500D03*
D16*
X216852500Y-104457500D03*
D15*
X39707501Y-87217500D03*
D16*
X40362500Y-86487500D03*
D17*
X45382500Y-85697500D03*
D16*
X45402500Y-85407500D03*
D13*
X223837500Y-55403750D03*
D14*
X223837500Y-47783750D03*
D13*
X52387500Y-55403750D03*
D14*
X52387500Y-47783750D03*
D15*
X249257501Y-30067500D03*
D16*
X249912500Y-29337500D03*
D17*
X254932500Y-28547500D03*
D16*
X254952500Y-28257500D03*
D15*
X39707501Y-30067500D03*
D16*
X40362500Y-29337500D03*
D17*
X45382500Y-28547500D03*
D16*
X45402500Y-28257500D03*
D13*
X52387500Y-113347500D03*
D14*
X52387500Y-105727500D03*
D13*
X185737500Y-55403750D03*
D14*
X185737500Y-47783750D03*
D15*
X115907501Y-87217500D03*
D16*
X116562500Y-86487500D03*
D17*
X121582500Y-85697500D03*
D16*
X121602500Y-85407500D03*
D13*
X166687500Y-75247500D03*
D14*
X166687500Y-67627500D03*
D13*
X86487000Y-61912500D03*
D14*
X94107000Y-61912500D03*
D15*
X230207501Y-87217500D03*
D16*
X230862500Y-86487500D03*
D17*
X235882500Y-85697500D03*
D16*
X235902500Y-85407500D03*
D15*
X211157501Y-68167500D03*
D16*
X211812500Y-67437500D03*
D17*
X216832500Y-66647500D03*
D16*
X216852500Y-66357500D03*
D13*
X147637500Y-75247500D03*
D14*
X147637500Y-67627500D03*
D13*
X71437500Y-75247500D03*
D14*
X71437500Y-67627500D03*
D13*
X90487500Y-113347500D03*
D14*
X90487500Y-105727500D03*
D13*
X204787500Y-55403750D03*
D14*
X204787500Y-47783750D03*
D13*
X147637500Y-113347500D03*
D14*
X147637500Y-105727500D03*
D13*
X75438000Y-61976000D03*
D14*
X83058000Y-61976000D03*
D15*
X249257501Y-68167500D03*
D16*
X249912500Y-67437500D03*
D17*
X254932500Y-66647500D03*
D16*
X254952500Y-66357500D03*
D15*
X192107501Y-30067500D03*
D16*
X192762500Y-29337500D03*
D17*
X197782500Y-28547500D03*
D16*
X197802500Y-28257500D03*
D13*
X52387500Y-94297500D03*
D14*
X52387500Y-86677500D03*
D13*
X185737500Y-36353750D03*
D14*
X185737500Y-28733750D03*
D15*
X249257501Y-49117500D03*
D16*
X249912500Y-48387500D03*
D17*
X254932500Y-47597500D03*
D16*
X254952500Y-47307500D03*
D15*
X39707501Y-68167500D03*
D16*
X40362500Y-67437500D03*
D17*
X45382500Y-66647500D03*
D16*
X45402500Y-66357500D03*
D15*
X96857501Y-30067500D03*
D16*
X97512500Y-29337500D03*
D17*
X102532500Y-28547500D03*
D16*
X102552500Y-28257500D03*
D15*
X154007501Y-68167500D03*
D16*
X154662500Y-67437500D03*
D17*
X159682500Y-66647500D03*
D16*
X159702500Y-66357500D03*
D15*
X58757501Y-106267500D03*
D16*
X59412500Y-105537500D03*
D17*
X64432500Y-104747500D03*
D16*
X64452500Y-104457500D03*
D15*
X39707501Y-106267500D03*
D16*
X40362500Y-105537500D03*
D17*
X45382500Y-104747500D03*
D16*
X45402500Y-104457500D03*
D15*
X134957501Y-68167500D03*
D16*
X135612500Y-67437500D03*
D17*
X140632500Y-66647500D03*
D16*
X140652500Y-66357500D03*
D13*
X128587500Y-75247500D03*
D14*
X128587500Y-67627500D03*
D15*
X192107501Y-68167500D03*
D16*
X192762500Y-67437500D03*
D17*
X197782500Y-66647500D03*
D16*
X197802500Y-66357500D03*
D15*
X134957501Y-49117500D03*
D16*
X135612500Y-48387500D03*
D17*
X140632500Y-47597500D03*
D16*
X140652500Y-47307500D03*
D13*
X128587500Y-55403750D03*
D14*
X128587500Y-47783750D03*
D15*
X249257501Y-106267500D03*
D16*
X249912500Y-105537500D03*
D17*
X254932500Y-104747500D03*
D16*
X254952500Y-104457500D03*
D13*
X166687500Y-55403750D03*
D14*
X166687500Y-47783750D03*
D13*
X223837500Y-113347500D03*
D14*
X223837500Y-105727500D03*
D13*
X223837500Y-75247500D03*
D14*
X223837500Y-67627500D03*
D13*
X109537500Y-94297500D03*
D14*
X109537500Y-86677500D03*
D13*
X90487500Y-75247500D03*
D14*
X90487500Y-67627500D03*
D15*
X96857501Y-87217500D03*
D16*
X97512500Y-86487500D03*
D17*
X102532500Y-85697500D03*
D16*
X102552500Y-85407500D03*
D13*
X247808750Y-80962500D03*
D14*
X255428750Y-80962500D03*
D15*
X115907501Y-106267500D03*
D16*
X116562500Y-105537500D03*
D17*
X121582500Y-104747500D03*
D16*
X121602500Y-104457500D03*
D13*
X166687500Y-36353750D03*
D14*
X166687500Y-28733750D03*
D13*
X166687500Y-113347500D03*
D14*
X166687500Y-105727500D03*
D13*
X52387500Y-36512500D03*
D14*
X52387500Y-28892500D03*
D13*
X204787500Y-113347500D03*
D14*
X204787500Y-105727500D03*
D13*
X247650000Y-42862500D03*
D14*
X255270000Y-42862500D03*
D13*
X109537500Y-75247500D03*
D14*
X109537500Y-67627500D03*
D13*
X90487500Y-94297500D03*
D14*
X90487500Y-86677500D03*
D13*
X147637500Y-55403750D03*
D14*
X147637500Y-47783750D03*
D15*
X96857501Y-68167500D03*
D16*
X97512500Y-67437500D03*
D17*
X102532500Y-66647500D03*
D16*
X102552500Y-66357500D03*
D15*
X173057501Y-106267500D03*
D16*
X173712500Y-105537500D03*
D17*
X178732500Y-104747500D03*
D16*
X178752500Y-104457500D03*
D13*
X242887500Y-55403750D03*
D14*
X242887500Y-47783750D03*
D13*
X185737500Y-94297500D03*
D14*
X185737500Y-86677500D03*
D15*
X230207501Y-49117500D03*
D16*
X230862500Y-48387500D03*
D17*
X235882500Y-47597500D03*
D16*
X235902500Y-47307500D03*
D13*
X242887500Y-93503750D03*
D14*
X242887500Y-85883750D03*
D15*
X39707501Y-49117500D03*
D16*
X40362500Y-48387500D03*
D17*
X45382500Y-47597500D03*
D16*
X45402500Y-47307500D03*
D15*
X192107501Y-106267500D03*
D16*
X192762500Y-105537500D03*
D17*
X197782500Y-104747500D03*
D16*
X197802500Y-104457500D03*
D15*
X77807501Y-49117500D03*
D16*
X78462500Y-48387500D03*
D17*
X83482500Y-47597500D03*
D16*
X83502500Y-47307500D03*
D15*
X96857501Y-106267500D03*
D16*
X97512500Y-105537500D03*
D17*
X102532500Y-104747500D03*
D16*
X102552500Y-104457500D03*
D15*
X77807501Y-30067500D03*
D16*
X78462500Y-29337500D03*
D17*
X83482500Y-28547500D03*
D16*
X83502500Y-28257500D03*
D15*
X211157501Y-49117500D03*
D16*
X211812500Y-48387500D03*
D17*
X216832500Y-47597500D03*
D16*
X216852500Y-47307500D03*
D15*
X173057501Y-68167500D03*
D16*
X173712500Y-67437500D03*
D17*
X178732500Y-66647500D03*
D16*
X178752500Y-66357500D03*
D20*
X54637500Y-58662500D03*
X50137500Y-65162500D03*
X50137500Y-58662500D03*
X54637500Y-65162500D03*
D21*
X88582500Y-26116750D03*
D22*
X88582500Y-28656750D03*
X88582500Y-31196750D03*
X88582500Y-33736750D03*
X88582500Y-36276750D03*
X88582500Y-38816750D03*
X88582500Y-41356750D03*
X88582500Y-43896750D03*
X88582500Y-46436750D03*
X88582500Y-48976750D03*
X88582500Y-51516750D03*
X88582500Y-54056750D03*
X73342500Y-54056750D03*
X73342500Y-51516750D03*
X73342500Y-48976750D03*
X73342500Y-46436750D03*
X73342500Y-43896750D03*
X73342500Y-41356750D03*
X73342500Y-38816750D03*
X73342500Y-36276750D03*
X73342500Y-33736750D03*
X73342500Y-31196750D03*
X73342500Y-28656750D03*
X73342500Y-26116750D03*
D23*
X68979326Y-27858174D03*
D24*
X39624000Y-50419000D02*
X39624000Y-62230000D01*
X39052500Y-49847500D02*
X39624000Y-50419000D01*
X40362500Y-62968500D02*
X40362500Y-67437500D01*
X40362500Y-29337500D02*
X45887500Y-23812500D01*
X40362500Y-29337500D02*
X40362500Y-38377500D01*
X38735000Y-40005000D02*
X38735000Y-46760000D01*
X38735000Y-46760000D02*
X40362500Y-48387500D01*
X40362500Y-38377500D02*
X38735000Y-40005000D01*
X40362500Y-67437500D02*
X40362500Y-105537500D01*
X64933652Y-23812500D02*
X68979326Y-27858174D01*
X45887500Y-23812500D02*
X64933652Y-23812500D01*
X39624000Y-62230000D02*
X40362500Y-62968500D01*
X59412500Y-29337500D02*
X59412500Y-48387500D01*
X59412500Y-48387500D02*
X59412500Y-67437500D01*
X59412500Y-86487500D02*
X59412500Y-105537500D01*
X59412500Y-67437500D02*
X59412500Y-86487500D01*
X78462500Y-29337500D02*
X78462500Y-105537500D01*
X83820000Y-51894867D02*
X83820000Y-53289200D01*
X80312633Y-48387500D02*
X83820000Y-51894867D01*
X83820000Y-53289200D02*
X84587550Y-54056750D01*
X84587550Y-54056750D02*
X88582500Y-54056750D01*
X78462500Y-48387500D02*
X80312633Y-48387500D01*
X97512500Y-29337500D02*
X97512500Y-105537500D01*
X116562500Y-29337500D02*
X116562500Y-105537500D01*
X135612500Y-29337500D02*
X135612500Y-105537500D01*
X154662500Y-29337500D02*
X154662500Y-105537500D01*
X173712500Y-29337500D02*
X173712500Y-105537500D01*
X192762500Y-29337500D02*
X192762500Y-105537500D01*
X211812500Y-29337500D02*
X211812500Y-105537500D01*
X230862500Y-29337500D02*
X230862500Y-105537500D01*
X248602500Y-30797500D02*
X249912500Y-32107500D01*
X249912500Y-32107500D02*
X249912500Y-105537500D01*
X64293750Y-30956250D02*
X64293750Y-36512500D01*
X64293750Y-36512500D02*
X71678000Y-43896750D01*
X71678000Y-43896750D02*
X73342500Y-43896750D01*
X58737500Y-26987500D02*
X60325000Y-26987500D01*
X46196250Y-42862500D02*
X46196250Y-39528750D01*
X60325000Y-26987500D02*
X64293750Y-30956250D01*
X46196250Y-39528750D02*
X58737500Y-26987500D01*
D25*
X75320750Y-26678500D02*
X84463500Y-26678500D01*
X73342500Y-28656750D02*
X75320750Y-26678500D01*
X88582500Y-30797500D02*
X88582500Y-31196750D01*
X88582500Y-31194259D02*
X88582500Y-31196750D01*
X84463500Y-26678500D02*
X88582500Y-30797500D01*
X40364599Y-51075401D02*
X43656250Y-47783750D01*
X40364599Y-55389599D02*
X40364599Y-51075401D01*
X50137500Y-65162500D02*
X40364599Y-55389599D01*
X88582500Y-31196750D02*
X88582500Y-33736750D01*
X43656250Y-47783750D02*
X43656250Y-42862500D01*
X41116250Y-42862500D02*
X41116250Y-42788657D01*
X58758907Y-25146000D02*
X64751750Y-25146000D01*
X41116250Y-42788657D02*
X58758907Y-25146000D01*
X64751750Y-25146000D02*
X73342500Y-33736750D01*
D24*
X72136000Y-47643250D02*
X73342500Y-46436750D01*
X72136000Y-49546854D02*
X72136000Y-47643250D01*
X64561300Y-61912500D02*
X70289000Y-56184800D01*
X70289000Y-51393854D02*
X72136000Y-49546854D01*
X62706250Y-61912500D02*
X64561300Y-61912500D01*
X70289000Y-56184800D02*
X70289000Y-51393854D01*
X69659500Y-75247500D02*
X68580000Y-74168000D01*
X70739000Y-56388000D02*
X70739000Y-51580250D01*
X71437500Y-75247500D02*
X69659500Y-75247500D01*
X68580000Y-58547000D02*
X70739000Y-56388000D01*
X70739000Y-51580250D02*
X73342500Y-48976750D01*
X68580000Y-74168000D02*
X68580000Y-58547000D01*
X73025000Y-65532000D02*
X73025000Y-92837000D01*
X73342500Y-51516750D02*
X72141200Y-52718050D01*
X73025000Y-92837000D02*
X71564500Y-94297500D01*
X72122950Y-52718050D02*
X72009000Y-52832000D01*
X72141200Y-52718050D02*
X72122950Y-52718050D01*
X72009000Y-64516000D02*
X73025000Y-65532000D01*
X71564500Y-94297500D02*
X71437500Y-94297500D01*
X72009000Y-52832000D02*
X72009000Y-64516000D01*
X73342500Y-54056750D02*
X73787000Y-54501250D01*
X73787000Y-110998000D02*
X71437500Y-113347500D01*
X73787000Y-54501250D02*
X73787000Y-110998000D01*
X103028750Y-28733750D02*
X102552500Y-28257500D01*
M02*
