G04 #@! TF.GenerationSoftware,KiCad,Pcbnew,(6.0.11)*
G04 #@! TF.CreationDate,2023-03-20T22:28:06+01:00*
G04 #@! TF.ProjectId,t-rex,742d7265-782e-46b6-9963-61645f706362,rev?*
G04 #@! TF.SameCoordinates,Original*
G04 #@! TF.FileFunction,Legend,Top*
G04 #@! TF.FilePolarity,Positive*
%FSLAX46Y46*%
G04 Gerber Fmt 4.6, Leading zero omitted, Abs format (unit mm)*
G04 Created by KiCad (PCBNEW (6.0.11)) date 2023-03-20 22:28:06*
%MOMM*%
%LPD*%
G01*
G04 APERTURE LIST*
G04 Aperture macros list*
%AMHorizOval*
0 Thick line with rounded ends*
0 $1 width*
0 $2 $3 position (X,Y) of the first rounded end (center of the circle)*
0 $4 $5 position (X,Y) of the second rounded end (center of the circle)*
0 Add line between two ends*
20,1,$1,$2,$3,$4,$5,0*
0 Add two circle primitives to create the rounded ends*
1,1,$1,$2,$3*
1,1,$1,$4,$5*%
%AMRotRect*
0 Rectangle, with rotation*
0 The origin of the aperture is its center*
0 $1 length*
0 $2 width*
0 $3 Rotation angle, in degrees counterclockwise*
0 Add horizontal line*
21,1,$1,$2,0,0,$3*%
G04 Aperture macros list end*
%ADD10C,0.300000*%
%ADD11C,0.150000*%
%ADD12C,0.120000*%
%ADD13C,0.381000*%
%ADD14R,1.752600X1.752600*%
%ADD15C,1.752600*%
%ADD16C,4.400000*%
%ADD17RotRect,1.600000X1.600000X348.000000*%
%ADD18HorizOval,1.600000X0.000000X0.000000X0.000000X0.000000X0*%
%ADD19C,1.750000*%
%ADD20C,3.987800*%
%ADD21HorizOval,1.600000X0.000000X0.000000X0.000000X0.000000X0*%
%ADD22RotRect,1.600000X1.600000X102.000000*%
%ADD23HorizOval,1.600000X0.000000X0.000000X0.000000X0.000000X0*%
%ADD24RotRect,1.600000X1.600000X12.000000*%
%ADD25O,1.600000X1.600000*%
%ADD26R,1.600000X1.600000*%
%ADD27O,1.700000X1.700000*%
%ADD28R,1.700000X1.700000*%
%ADD29HorizOval,1.600000X0.000000X0.000000X0.000000X0.000000X0*%
%ADD30RotRect,1.600000X1.600000X78.000000*%
%ADD31C,1.800000*%
G04 APERTURE END LIST*
D10*
X209921428Y-110614285D02*
X209850000Y-110542857D01*
X209707142Y-110471428D01*
X209564285Y-110471428D01*
X209421428Y-110542857D01*
X209350000Y-110614285D01*
X209278571Y-110757142D01*
X209278571Y-110900000D01*
X209350000Y-111042857D01*
X209421428Y-111114285D01*
X209564285Y-111185714D01*
X209707142Y-111185714D01*
X209850000Y-111114285D01*
X209921428Y-111042857D01*
X209921428Y-110471428D02*
X209921428Y-111042857D01*
X209992857Y-111114285D01*
X210064285Y-111114285D01*
X210207142Y-111042857D01*
X210278571Y-110900000D01*
X210278571Y-110542857D01*
X210135714Y-110328571D01*
X209921428Y-110185714D01*
X209635714Y-110114285D01*
X209350000Y-110185714D01*
X209135714Y-110328571D01*
X208992857Y-110542857D01*
X208921428Y-110828571D01*
X208992857Y-111114285D01*
X209135714Y-111328571D01*
X209350000Y-111471428D01*
X209635714Y-111542857D01*
X209921428Y-111471428D01*
X210135714Y-111328571D01*
X210850000Y-111257142D02*
X211064285Y-111328571D01*
X211421428Y-111328571D01*
X211564285Y-111257142D01*
X211635714Y-111185714D01*
X211707142Y-111042857D01*
X211707142Y-110900000D01*
X211635714Y-110757142D01*
X211564285Y-110685714D01*
X211421428Y-110614285D01*
X211135714Y-110542857D01*
X210992857Y-110471428D01*
X210921428Y-110400000D01*
X210850000Y-110257142D01*
X210850000Y-110114285D01*
X210921428Y-109971428D01*
X210992857Y-109900000D01*
X211135714Y-109828571D01*
X211492857Y-109828571D01*
X211707142Y-109900000D01*
X212207142Y-110328571D02*
X212564285Y-111328571D01*
X212921428Y-110328571D02*
X212564285Y-111328571D01*
X212421428Y-111685714D01*
X212350000Y-111757142D01*
X212207142Y-111828571D01*
X213707142Y-111328571D02*
X213564285Y-111257142D01*
X213492857Y-111114285D01*
X213492857Y-109828571D01*
X214278571Y-111328571D02*
X214278571Y-110328571D01*
X214278571Y-109828571D02*
X214207142Y-109900000D01*
X214278571Y-109971428D01*
X214350000Y-109900000D01*
X214278571Y-109828571D01*
X214278571Y-109971428D01*
X214850000Y-110328571D02*
X215207142Y-111328571D01*
X215564285Y-110328571D01*
X216778571Y-111328571D02*
X216778571Y-110542857D01*
X216707142Y-110400000D01*
X216564285Y-110328571D01*
X216278571Y-110328571D01*
X216135714Y-110400000D01*
X216778571Y-111257142D02*
X216635714Y-111328571D01*
X216278571Y-111328571D01*
X216135714Y-111257142D01*
X216064285Y-111114285D01*
X216064285Y-110971428D01*
X216135714Y-110828571D01*
X216278571Y-110757142D01*
X216635714Y-110757142D01*
X216778571Y-110685714D01*
X217492857Y-110328571D02*
X217492857Y-111328571D01*
X217492857Y-110471428D02*
X217564285Y-110400000D01*
X217707142Y-110328571D01*
X217921428Y-110328571D01*
X218064285Y-110400000D01*
X218135714Y-110542857D01*
X218135714Y-111328571D01*
X218850000Y-111328571D02*
X218850000Y-109828571D01*
X219707142Y-111328571D02*
X219064285Y-110471428D01*
X219707142Y-109828571D02*
X218850000Y-110685714D01*
X220921428Y-111257142D02*
X220778571Y-111328571D01*
X220492857Y-111328571D01*
X220350000Y-111257142D01*
X220278571Y-111114285D01*
X220278571Y-110542857D01*
X220350000Y-110400000D01*
X220492857Y-110328571D01*
X220778571Y-110328571D01*
X220921428Y-110400000D01*
X220992857Y-110542857D01*
X220992857Y-110685714D01*
X220278571Y-110828571D01*
X221635714Y-110328571D02*
X221635714Y-111328571D01*
X221635714Y-110471428D02*
X221707142Y-110400000D01*
X221850000Y-110328571D01*
X222064285Y-110328571D01*
X222207142Y-110400000D01*
X222278571Y-110542857D01*
X222278571Y-111328571D01*
X223207142Y-111328571D02*
X223064285Y-111257142D01*
X222992857Y-111185714D01*
X222921428Y-111042857D01*
X222921428Y-110614285D01*
X222992857Y-110471428D01*
X223064285Y-110400000D01*
X223207142Y-110328571D01*
X223421428Y-110328571D01*
X223564285Y-110400000D01*
X223635714Y-110471428D01*
X223707142Y-110614285D01*
X223707142Y-111042857D01*
X223635714Y-111185714D01*
X223564285Y-111257142D01*
X223421428Y-111328571D01*
X223207142Y-111328571D01*
X224350000Y-111328571D02*
X224350000Y-109828571D01*
X224350000Y-110400000D02*
X224492857Y-110328571D01*
X224778571Y-110328571D01*
X224921428Y-110400000D01*
X224992857Y-110471428D01*
X225064285Y-110614285D01*
X225064285Y-111042857D01*
X224992857Y-111185714D01*
X224921428Y-111257142D01*
X224778571Y-111328571D01*
X224492857Y-111328571D01*
X224350000Y-111257142D01*
X225707142Y-111328571D02*
X225707142Y-110328571D01*
X225707142Y-109828571D02*
X225635714Y-109900000D01*
X225707142Y-109971428D01*
X225778571Y-109900000D01*
X225707142Y-109828571D01*
X225707142Y-109971428D01*
D11*
X143068194Y-105040031D02*
X143276105Y-104061883D01*
X143508998Y-104111386D01*
X143638832Y-104187666D01*
X143712188Y-104300624D01*
X143738965Y-104403681D01*
X143745942Y-104599896D01*
X143716240Y-104739631D01*
X143630059Y-104916044D01*
X143563680Y-104999301D01*
X143450722Y-105072657D01*
X143301086Y-105089533D01*
X143068194Y-105040031D01*
X144187873Y-104353051D02*
X144244352Y-104316373D01*
X144347410Y-104289596D01*
X144580302Y-104339099D01*
X144663558Y-104405478D01*
X144700236Y-104461957D01*
X144727014Y-104565015D01*
X144707213Y-104658172D01*
X144630932Y-104788006D01*
X143953184Y-105228141D01*
X144558704Y-105356848D01*
X145024489Y-105455854D02*
X145210803Y-105495456D01*
X145313860Y-105468679D01*
X145370339Y-105432001D01*
X145493198Y-105312067D01*
X145579378Y-105135653D01*
X145658583Y-104763026D01*
X145631805Y-104659968D01*
X145595128Y-104603489D01*
X145511871Y-104537110D01*
X145325557Y-104497508D01*
X145222500Y-104524285D01*
X145166021Y-104560963D01*
X145099641Y-104644219D01*
X145050139Y-104877111D01*
X145076916Y-104980169D01*
X145113594Y-105036648D01*
X145196850Y-105103027D01*
X145383164Y-105142630D01*
X145486221Y-105115852D01*
X145542700Y-105079174D01*
X145609080Y-104995918D01*
X140897735Y-103759148D02*
X140689824Y-104737296D01*
X140338794Y-103640342D02*
X140639193Y-104288388D01*
X140130882Y-104618489D02*
X140808630Y-104178354D01*
X192398723Y-94332915D02*
X192398723Y-93532915D01*
X192589200Y-93532915D01*
X192703485Y-93571011D01*
X192779676Y-93647201D01*
X192817771Y-93723391D01*
X192855866Y-93875772D01*
X192855866Y-93990058D01*
X192817771Y-94142439D01*
X192779676Y-94218630D01*
X192703485Y-94294820D01*
X192589200Y-94332915D01*
X192398723Y-94332915D01*
X193351104Y-93532915D02*
X193427295Y-93532915D01*
X193503485Y-93571011D01*
X193541580Y-93609106D01*
X193579676Y-93685296D01*
X193617771Y-93837677D01*
X193617771Y-94028153D01*
X193579676Y-94180534D01*
X193541580Y-94256725D01*
X193503485Y-94294820D01*
X193427295Y-94332915D01*
X193351104Y-94332915D01*
X193274914Y-94294820D01*
X193236819Y-94256725D01*
X193198723Y-94180534D01*
X193160628Y-94028153D01*
X193160628Y-93837677D01*
X193198723Y-93685296D01*
X193236819Y-93609106D01*
X193274914Y-93571011D01*
X193351104Y-93532915D01*
X202533333Y-88511904D02*
X202800000Y-89311904D01*
X203066666Y-88511904D01*
X203790476Y-89235714D02*
X203752380Y-89273809D01*
X203638095Y-89311904D01*
X203561904Y-89311904D01*
X203447619Y-89273809D01*
X203371428Y-89197619D01*
X203333333Y-89121428D01*
X203295238Y-88969047D01*
X203295238Y-88854761D01*
X203333333Y-88702380D01*
X203371428Y-88626190D01*
X203447619Y-88550000D01*
X203561904Y-88511904D01*
X203638095Y-88511904D01*
X203752380Y-88550000D01*
X203790476Y-88588095D01*
X204590476Y-89235714D02*
X204552380Y-89273809D01*
X204438095Y-89311904D01*
X204361904Y-89311904D01*
X204247619Y-89273809D01*
X204171428Y-89197619D01*
X204133333Y-89121428D01*
X204095238Y-88969047D01*
X204095238Y-88854761D01*
X204133333Y-88702380D01*
X204171428Y-88626190D01*
X204247619Y-88550000D01*
X204361904Y-88511904D01*
X204438095Y-88511904D01*
X204552380Y-88550000D01*
X204590476Y-88588095D01*
X203587390Y-109153868D02*
X203701676Y-109191963D01*
X203739771Y-109230058D01*
X203777866Y-109306249D01*
X203777866Y-109420534D01*
X203739771Y-109496725D01*
X203701676Y-109534820D01*
X203625485Y-109572915D01*
X203320723Y-109572915D01*
X203320723Y-108772915D01*
X203587390Y-108772915D01*
X203663580Y-108811011D01*
X203701676Y-108849106D01*
X203739771Y-108925296D01*
X203739771Y-109001487D01*
X203701676Y-109077677D01*
X203663580Y-109115772D01*
X203587390Y-109153868D01*
X203320723Y-109153868D01*
X204463580Y-108772915D02*
X204311200Y-108772915D01*
X204235009Y-108811011D01*
X204196914Y-108849106D01*
X204120723Y-108963391D01*
X204082628Y-109115772D01*
X204082628Y-109420534D01*
X204120723Y-109496725D01*
X204158819Y-109534820D01*
X204235009Y-109572915D01*
X204387390Y-109572915D01*
X204463580Y-109534820D01*
X204501676Y-109496725D01*
X204539771Y-109420534D01*
X204539771Y-109230058D01*
X204501676Y-109153868D01*
X204463580Y-109115772D01*
X204387390Y-109077677D01*
X204235009Y-109077677D01*
X204158819Y-109115772D01*
X204120723Y-109153868D01*
X204082628Y-109230058D01*
X192626190Y-106642857D02*
X192740476Y-106680952D01*
X192778571Y-106719047D01*
X192816666Y-106795238D01*
X192816666Y-106909523D01*
X192778571Y-106985714D01*
X192740476Y-107023809D01*
X192664285Y-107061904D01*
X192359523Y-107061904D01*
X192359523Y-106261904D01*
X192626190Y-106261904D01*
X192702380Y-106300000D01*
X192740476Y-106338095D01*
X192778571Y-106414285D01*
X192778571Y-106490476D01*
X192740476Y-106566666D01*
X192702380Y-106604761D01*
X192626190Y-106642857D01*
X192359523Y-106642857D01*
X193502380Y-106528571D02*
X193502380Y-107061904D01*
X193311904Y-106223809D02*
X193121428Y-106795238D01*
X193616666Y-106795238D01*
X203649986Y-86644820D02*
X203764272Y-86682915D01*
X203954748Y-86682915D01*
X204030939Y-86644820D01*
X204069034Y-86606725D01*
X204107129Y-86530534D01*
X204107129Y-86454344D01*
X204069034Y-86378153D01*
X204030939Y-86340058D01*
X203954748Y-86301963D01*
X203802367Y-86263868D01*
X203726177Y-86225772D01*
X203688081Y-86187677D01*
X203649986Y-86111487D01*
X203649986Y-86035296D01*
X203688081Y-85959106D01*
X203726177Y-85921011D01*
X203802367Y-85882915D01*
X203992843Y-85882915D01*
X204107129Y-85921011D01*
X204335700Y-85882915D02*
X204792843Y-85882915D01*
X204564272Y-86682915D02*
X204564272Y-85882915D01*
X203644533Y-91373868D02*
X203377866Y-91373868D01*
X203377866Y-91792915D02*
X203377866Y-90992915D01*
X203758819Y-90992915D01*
X204406438Y-91259582D02*
X204406438Y-91792915D01*
X204215961Y-90954820D02*
X204025485Y-91526249D01*
X204520723Y-91526249D01*
X192665390Y-109153868D02*
X192779676Y-109191963D01*
X192817771Y-109230058D01*
X192855866Y-109306249D01*
X192855866Y-109420534D01*
X192817771Y-109496725D01*
X192779676Y-109534820D01*
X192703485Y-109572915D01*
X192398723Y-109572915D01*
X192398723Y-108772915D01*
X192665390Y-108772915D01*
X192741580Y-108811011D01*
X192779676Y-108849106D01*
X192817771Y-108925296D01*
X192817771Y-109001487D01*
X192779676Y-109077677D01*
X192741580Y-109115772D01*
X192665390Y-109153868D01*
X192398723Y-109153868D01*
X193579676Y-108772915D02*
X193198723Y-108772915D01*
X193160628Y-109153868D01*
X193198723Y-109115772D01*
X193274914Y-109077677D01*
X193465390Y-109077677D01*
X193541580Y-109115772D01*
X193579676Y-109153868D01*
X193617771Y-109230058D01*
X193617771Y-109420534D01*
X193579676Y-109496725D01*
X193541580Y-109534820D01*
X193465390Y-109572915D01*
X193274914Y-109572915D01*
X193198723Y-109534820D01*
X193160628Y-109496725D01*
X192379676Y-85951011D02*
X192303485Y-85912915D01*
X192189200Y-85912915D01*
X192074914Y-85951011D01*
X191998723Y-86027201D01*
X191960628Y-86103391D01*
X191922533Y-86255772D01*
X191922533Y-86370058D01*
X191960628Y-86522439D01*
X191998723Y-86598630D01*
X192074914Y-86674820D01*
X192189200Y-86712915D01*
X192265390Y-86712915D01*
X192379676Y-86674820D01*
X192417771Y-86636725D01*
X192417771Y-86370058D01*
X192265390Y-86370058D01*
X192760628Y-86712915D02*
X192760628Y-85912915D01*
X193217771Y-86712915D01*
X193217771Y-85912915D01*
X193598723Y-86712915D02*
X193598723Y-85912915D01*
X193789200Y-85912915D01*
X193903485Y-85951011D01*
X193979676Y-86027201D01*
X194017771Y-86103391D01*
X194055866Y-86255772D01*
X194055866Y-86370058D01*
X194017771Y-86522439D01*
X193979676Y-86598630D01*
X193903485Y-86674820D01*
X193789200Y-86712915D01*
X193598723Y-86712915D01*
X192540476Y-88500000D02*
X192464285Y-88461904D01*
X192350000Y-88461904D01*
X192235714Y-88500000D01*
X192159523Y-88576190D01*
X192121428Y-88652380D01*
X192083333Y-88804761D01*
X192083333Y-88919047D01*
X192121428Y-89071428D01*
X192159523Y-89147619D01*
X192235714Y-89223809D01*
X192350000Y-89261904D01*
X192426190Y-89261904D01*
X192540476Y-89223809D01*
X192578571Y-89185714D01*
X192578571Y-88919047D01*
X192426190Y-88919047D01*
X192921428Y-89261904D02*
X192921428Y-88461904D01*
X193378571Y-89261904D01*
X193378571Y-88461904D01*
X193759523Y-89261904D02*
X193759523Y-88461904D01*
X193950000Y-88461904D01*
X194064285Y-88500000D01*
X194140476Y-88576190D01*
X194178571Y-88652380D01*
X194216666Y-88804761D01*
X194216666Y-88919047D01*
X194178571Y-89071428D01*
X194140476Y-89147619D01*
X194064285Y-89223809D01*
X193950000Y-89261904D01*
X193759523Y-89261904D01*
X203644533Y-96453868D02*
X203377866Y-96453868D01*
X203377866Y-96872915D02*
X203377866Y-96072915D01*
X203758819Y-96072915D01*
X204406438Y-96072915D02*
X204254057Y-96072915D01*
X204177866Y-96111011D01*
X204139771Y-96149106D01*
X204063580Y-96263391D01*
X204025485Y-96415772D01*
X204025485Y-96720534D01*
X204063580Y-96796725D01*
X204101676Y-96834820D01*
X204177866Y-96872915D01*
X204330247Y-96872915D01*
X204406438Y-96834820D01*
X204444533Y-96796725D01*
X204482628Y-96720534D01*
X204482628Y-96530058D01*
X204444533Y-96453868D01*
X204406438Y-96415772D01*
X204330247Y-96377677D01*
X204177866Y-96377677D01*
X204101676Y-96415772D01*
X204063580Y-96453868D01*
X204025485Y-96530058D01*
X203854090Y-106692857D02*
X203968376Y-106730952D01*
X204006471Y-106769047D01*
X204044566Y-106845238D01*
X204044566Y-106959523D01*
X204006471Y-107035714D01*
X203968376Y-107073809D01*
X203892185Y-107111904D01*
X203587423Y-107111904D01*
X203587423Y-106311904D01*
X203854090Y-106311904D01*
X203930280Y-106350000D01*
X203968376Y-106388095D01*
X204006471Y-106464285D01*
X204006471Y-106540476D01*
X203968376Y-106616666D01*
X203930280Y-106654761D01*
X203854090Y-106692857D01*
X203587423Y-106692857D01*
X204349328Y-106388095D02*
X204387423Y-106350000D01*
X204463614Y-106311904D01*
X204654090Y-106311904D01*
X204730280Y-106350000D01*
X204768376Y-106388095D01*
X204806471Y-106464285D01*
X204806471Y-106540476D01*
X204768376Y-106654761D01*
X204311233Y-107111904D01*
X204806471Y-107111904D01*
X192398723Y-84172915D02*
X192398723Y-83372915D01*
X192589200Y-83372915D01*
X192703485Y-83411011D01*
X192779676Y-83487201D01*
X192817771Y-83563391D01*
X192855866Y-83715772D01*
X192855866Y-83830058D01*
X192817771Y-83982439D01*
X192779676Y-84058630D01*
X192703485Y-84134820D01*
X192589200Y-84172915D01*
X192398723Y-84172915D01*
X193160628Y-83449106D02*
X193198723Y-83411011D01*
X193274914Y-83372915D01*
X193465390Y-83372915D01*
X193541580Y-83411011D01*
X193579676Y-83449106D01*
X193617771Y-83525296D01*
X193617771Y-83601487D01*
X193579676Y-83715772D01*
X193122533Y-84172915D01*
X193617771Y-84172915D01*
X203358819Y-81632915D02*
X203092152Y-81251963D01*
X202901676Y-81632915D02*
X202901676Y-80832915D01*
X203206438Y-80832915D01*
X203282628Y-80871011D01*
X203320723Y-80909106D01*
X203358819Y-80985296D01*
X203358819Y-81099582D01*
X203320723Y-81175772D01*
X203282628Y-81213868D01*
X203206438Y-81251963D01*
X202901676Y-81251963D01*
X203663580Y-81404344D02*
X204044533Y-81404344D01*
X203587390Y-81632915D02*
X203854057Y-80832915D01*
X204120723Y-81632915D01*
X204311200Y-80832915D02*
X204501676Y-81632915D01*
X204654057Y-81061487D01*
X204806438Y-81632915D01*
X204996914Y-80832915D01*
X203803290Y-103966718D02*
X203917576Y-104004813D01*
X203955671Y-104042908D01*
X203993766Y-104119099D01*
X203993766Y-104233384D01*
X203955671Y-104309575D01*
X203917576Y-104347670D01*
X203841385Y-104385765D01*
X203536623Y-104385765D01*
X203536623Y-103585765D01*
X203803290Y-103585765D01*
X203879480Y-103623861D01*
X203917576Y-103661956D01*
X203955671Y-103738146D01*
X203955671Y-103814337D01*
X203917576Y-103890527D01*
X203879480Y-103928622D01*
X203803290Y-103966718D01*
X203536623Y-103966718D01*
X204260433Y-103585765D02*
X204755671Y-103585765D01*
X204489004Y-103890527D01*
X204603290Y-103890527D01*
X204679480Y-103928622D01*
X204717576Y-103966718D01*
X204755671Y-104042908D01*
X204755671Y-104233384D01*
X204717576Y-104309575D01*
X204679480Y-104347670D01*
X204603290Y-104385765D01*
X204374719Y-104385765D01*
X204298528Y-104347670D01*
X204260433Y-104309575D01*
X192436819Y-104073868D02*
X192703485Y-104073868D01*
X192817771Y-104492915D02*
X192436819Y-104492915D01*
X192436819Y-103692915D01*
X192817771Y-103692915D01*
X193503485Y-103692915D02*
X193351104Y-103692915D01*
X193274914Y-103731011D01*
X193236819Y-103769106D01*
X193160628Y-103883391D01*
X193122533Y-104035772D01*
X193122533Y-104340534D01*
X193160628Y-104416725D01*
X193198723Y-104454820D01*
X193274914Y-104492915D01*
X193427295Y-104492915D01*
X193503485Y-104454820D01*
X193541580Y-104416725D01*
X193579676Y-104340534D01*
X193579676Y-104150058D01*
X193541580Y-104073868D01*
X193503485Y-104035772D01*
X193427295Y-103997677D01*
X193274914Y-103997677D01*
X193198723Y-104035772D01*
X193160628Y-104073868D01*
X193122533Y-104150058D01*
X192398723Y-101952915D02*
X192398723Y-101152915D01*
X192589200Y-101152915D01*
X192703485Y-101191011D01*
X192779676Y-101267201D01*
X192817771Y-101343391D01*
X192855866Y-101495772D01*
X192855866Y-101610058D01*
X192817771Y-101762439D01*
X192779676Y-101838630D01*
X192703485Y-101914820D01*
X192589200Y-101952915D01*
X192398723Y-101952915D01*
X193122533Y-101152915D02*
X193655866Y-101152915D01*
X193313009Y-101952915D01*
X192855866Y-99336725D02*
X192817771Y-99374820D01*
X192703485Y-99412915D01*
X192627295Y-99412915D01*
X192513009Y-99374820D01*
X192436819Y-99298630D01*
X192398723Y-99222439D01*
X192360628Y-99070058D01*
X192360628Y-98955772D01*
X192398723Y-98803391D01*
X192436819Y-98727201D01*
X192513009Y-98651011D01*
X192627295Y-98612915D01*
X192703485Y-98612915D01*
X192817771Y-98651011D01*
X192855866Y-98689106D01*
X193541580Y-98612915D02*
X193389200Y-98612915D01*
X193313009Y-98651011D01*
X193274914Y-98689106D01*
X193198723Y-98803391D01*
X193160628Y-98955772D01*
X193160628Y-99260534D01*
X193198723Y-99336725D01*
X193236819Y-99374820D01*
X193313009Y-99412915D01*
X193465390Y-99412915D01*
X193541580Y-99374820D01*
X193579676Y-99336725D01*
X193617771Y-99260534D01*
X193617771Y-99070058D01*
X193579676Y-98993868D01*
X193541580Y-98955772D01*
X193465390Y-98917677D01*
X193313009Y-98917677D01*
X193236819Y-98955772D01*
X193198723Y-98993868D01*
X193160628Y-99070058D01*
X192687851Y-80832915D02*
X193144994Y-80832915D01*
X192916423Y-81632915D02*
X192916423Y-80832915D01*
X193335470Y-80832915D02*
X193868804Y-81632915D01*
X193868804Y-80832915D02*
X193335470Y-81632915D01*
X194325947Y-80832915D02*
X194402137Y-80832915D01*
X194478328Y-80871011D01*
X194516423Y-80909106D01*
X194554518Y-80985296D01*
X194592613Y-81137677D01*
X194592613Y-81328153D01*
X194554518Y-81480534D01*
X194516423Y-81556725D01*
X194478328Y-81594820D01*
X194402137Y-81632915D01*
X194325947Y-81632915D01*
X194249756Y-81594820D01*
X194211661Y-81556725D01*
X194173566Y-81480534D01*
X194135470Y-81328153D01*
X194135470Y-81137677D01*
X194173566Y-80985296D01*
X194211661Y-80909106D01*
X194249756Y-80871011D01*
X194325947Y-80832915D01*
X195506899Y-80794820D02*
X194821185Y-81823391D01*
X195773566Y-81632915D02*
X195773566Y-80832915D01*
X195964042Y-80832915D01*
X196078328Y-80871011D01*
X196154518Y-80947201D01*
X196192613Y-81023391D01*
X196230708Y-81175772D01*
X196230708Y-81290058D01*
X196192613Y-81442439D01*
X196154518Y-81518630D01*
X196078328Y-81594820D01*
X195964042Y-81632915D01*
X195773566Y-81632915D01*
X196497375Y-80832915D02*
X196992613Y-80832915D01*
X196725947Y-81137677D01*
X196840232Y-81137677D01*
X196916423Y-81175772D01*
X196954518Y-81213868D01*
X196992613Y-81290058D01*
X196992613Y-81480534D01*
X196954518Y-81556725D01*
X196916423Y-81594820D01*
X196840232Y-81632915D01*
X196611661Y-81632915D01*
X196535470Y-81594820D01*
X196497375Y-81556725D01*
X203644533Y-93913868D02*
X203377866Y-93913868D01*
X203377866Y-94332915D02*
X203377866Y-93532915D01*
X203758819Y-93532915D01*
X204444533Y-93532915D02*
X204063580Y-93532915D01*
X204025485Y-93913868D01*
X204063580Y-93875772D01*
X204139771Y-93837677D01*
X204330247Y-93837677D01*
X204406438Y-93875772D01*
X204444533Y-93913868D01*
X204482628Y-93990058D01*
X204482628Y-94180534D01*
X204444533Y-94256725D01*
X204406438Y-94294820D01*
X204330247Y-94332915D01*
X204139771Y-94332915D01*
X204063580Y-94294820D01*
X204025485Y-94256725D01*
X192398723Y-91792915D02*
X192398723Y-90992915D01*
X192589200Y-90992915D01*
X192703485Y-91031011D01*
X192779676Y-91107201D01*
X192817771Y-91183391D01*
X192855866Y-91335772D01*
X192855866Y-91450058D01*
X192817771Y-91602439D01*
X192779676Y-91678630D01*
X192703485Y-91754820D01*
X192589200Y-91792915D01*
X192398723Y-91792915D01*
X193617771Y-91792915D02*
X193160628Y-91792915D01*
X193389200Y-91792915D02*
X193389200Y-90992915D01*
X193313009Y-91107201D01*
X193236819Y-91183391D01*
X193160628Y-91221487D01*
X192398723Y-96872915D02*
X192398723Y-96072915D01*
X192589200Y-96072915D01*
X192703485Y-96111011D01*
X192779676Y-96187201D01*
X192817771Y-96263391D01*
X192855866Y-96415772D01*
X192855866Y-96530058D01*
X192817771Y-96682439D01*
X192779676Y-96758630D01*
X192703485Y-96834820D01*
X192589200Y-96872915D01*
X192398723Y-96872915D01*
X193541580Y-96339582D02*
X193541580Y-96872915D01*
X193351104Y-96034820D02*
X193160628Y-96606249D01*
X193655866Y-96606249D01*
X203644533Y-98993868D02*
X203377866Y-98993868D01*
X203377866Y-99412915D02*
X203377866Y-98612915D01*
X203758819Y-98612915D01*
X203987390Y-98612915D02*
X204520723Y-98612915D01*
X204177866Y-99412915D01*
X203301676Y-83411011D02*
X203225485Y-83372915D01*
X203111200Y-83372915D01*
X202996914Y-83411011D01*
X202920723Y-83487201D01*
X202882628Y-83563391D01*
X202844533Y-83715772D01*
X202844533Y-83830058D01*
X202882628Y-83982439D01*
X202920723Y-84058630D01*
X202996914Y-84134820D01*
X203111200Y-84172915D01*
X203187390Y-84172915D01*
X203301676Y-84134820D01*
X203339771Y-84096725D01*
X203339771Y-83830058D01*
X203187390Y-83830058D01*
X203682628Y-84172915D02*
X203682628Y-83372915D01*
X204139771Y-84172915D01*
X204139771Y-83372915D01*
X204520723Y-84172915D02*
X204520723Y-83372915D01*
X204711200Y-83372915D01*
X204825485Y-83411011D01*
X204901676Y-83487201D01*
X204939771Y-83563391D01*
X204977866Y-83715772D01*
X204977866Y-83830058D01*
X204939771Y-83982439D01*
X204901676Y-84058630D01*
X204825485Y-84134820D01*
X204711200Y-84172915D01*
X204520723Y-84172915D01*
X203587390Y-101533868D02*
X203701676Y-101571963D01*
X203739771Y-101610058D01*
X203777866Y-101686249D01*
X203777866Y-101800534D01*
X203739771Y-101876725D01*
X203701676Y-101914820D01*
X203625485Y-101952915D01*
X203320723Y-101952915D01*
X203320723Y-101152915D01*
X203587390Y-101152915D01*
X203663580Y-101191011D01*
X203701676Y-101229106D01*
X203739771Y-101305296D01*
X203739771Y-101381487D01*
X203701676Y-101457677D01*
X203663580Y-101495772D01*
X203587390Y-101533868D01*
X203320723Y-101533868D01*
X204539771Y-101952915D02*
X204082628Y-101952915D01*
X204311200Y-101952915D02*
X204311200Y-101152915D01*
X204235009Y-101267201D01*
X204158819Y-101343391D01*
X204082628Y-101381487D01*
X268934713Y-133598114D02*
X267956565Y-133806026D01*
X267907063Y-133573133D01*
X267923939Y-133423497D01*
X267997295Y-133310539D01*
X268080552Y-133244160D01*
X268256965Y-133157979D01*
X268396700Y-133128277D01*
X268592915Y-133135254D01*
X268695972Y-133162031D01*
X268808930Y-133235387D01*
X268885210Y-133365222D01*
X268934713Y-133598114D01*
X267985598Y-132339368D02*
X268637696Y-132200760D01*
X267662473Y-132651465D02*
X268410653Y-132735849D01*
X268281945Y-132130329D01*
X267570444Y-131989466D02*
X267441736Y-131383946D01*
X267883668Y-131630791D01*
X267853966Y-131491055D01*
X267880744Y-131387998D01*
X267917422Y-131331519D01*
X268000678Y-131265139D01*
X268233570Y-131215636D01*
X268336628Y-131242414D01*
X268393107Y-131279092D01*
X268459486Y-131362348D01*
X268518890Y-131641819D01*
X268492112Y-131744876D01*
X268455434Y-131801355D01*
X269841852Y-136326756D02*
X268863704Y-136534667D01*
X269723045Y-135767814D02*
X269253209Y-136305827D01*
X268744898Y-135975726D02*
X269422646Y-136415861D01*
X254261719Y-156192543D02*
X253283571Y-156400455D01*
X253234069Y-156167562D01*
X253250945Y-156017926D01*
X253324301Y-155904968D01*
X253407558Y-155838589D01*
X253583971Y-155752408D01*
X253723706Y-155722706D01*
X253919921Y-155729683D01*
X254022978Y-155756460D01*
X254135936Y-155829816D01*
X254212216Y-155959651D01*
X254261719Y-156192543D01*
X252976654Y-154956522D02*
X253075660Y-155422307D01*
X253551345Y-155369880D01*
X253494866Y-155333202D01*
X253428486Y-155249946D01*
X253378984Y-155017053D01*
X253405761Y-154913996D01*
X253442439Y-154857517D01*
X253525695Y-154791137D01*
X253758587Y-154741634D01*
X253861645Y-154768412D01*
X253918124Y-154805090D01*
X253984503Y-154888346D01*
X254034006Y-155121238D01*
X254007229Y-155224296D01*
X253970551Y-155280775D01*
X253114593Y-154002228D02*
X253766691Y-153863620D01*
X252791468Y-154314325D02*
X253539648Y-154398708D01*
X253410940Y-153793189D01*
X255168858Y-158921185D02*
X254190710Y-159129096D01*
X255050051Y-158362243D02*
X254580215Y-158900256D01*
X254071904Y-158570155D02*
X254749652Y-159010290D01*
X310162854Y-144310390D02*
X309184706Y-144518302D01*
X309135204Y-144285409D01*
X309152080Y-144135773D01*
X309225436Y-144022815D01*
X309308693Y-143956436D01*
X309485106Y-143870255D01*
X309624841Y-143840553D01*
X309821056Y-143847530D01*
X309924113Y-143874307D01*
X310037071Y-143947663D01*
X310113351Y-144077498D01*
X310162854Y-144310390D01*
X308877789Y-143074369D02*
X308976795Y-143540154D01*
X309452480Y-143487727D01*
X309396001Y-143451049D01*
X309329621Y-143367793D01*
X309280119Y-143134900D01*
X309306896Y-143031843D01*
X309343574Y-142975364D01*
X309426830Y-142908984D01*
X309659722Y-142859481D01*
X309762780Y-142886259D01*
X309819259Y-142922937D01*
X309885638Y-143006193D01*
X309935141Y-143239085D01*
X309908364Y-143342143D01*
X309871686Y-143398622D01*
X308798585Y-142701742D02*
X308659977Y-142049643D01*
X309727230Y-142260938D01*
X311069993Y-147039032D02*
X310091845Y-147246943D01*
X310951186Y-146480090D02*
X310481350Y-147018103D01*
X309973039Y-146688002D02*
X310650787Y-147128137D01*
X272895430Y-152231826D02*
X271917282Y-152439738D01*
X271867780Y-152206845D01*
X271884656Y-152057209D01*
X271958012Y-151944251D01*
X272041269Y-151877872D01*
X272217682Y-151791691D01*
X272357417Y-151761989D01*
X272553632Y-151768966D01*
X272656689Y-151795743D01*
X272769647Y-151869099D01*
X272845927Y-151998934D01*
X272895430Y-152231826D01*
X271610365Y-150995805D02*
X271709371Y-151461590D01*
X272185056Y-151409163D01*
X272128577Y-151372485D01*
X272062197Y-151289229D01*
X272012695Y-151056336D01*
X272039472Y-150953279D01*
X272076150Y-150896800D01*
X272159406Y-150830420D01*
X272392298Y-150780917D01*
X272495356Y-150807695D01*
X272551835Y-150844373D01*
X272618214Y-150927629D01*
X272667717Y-151160521D01*
X272640940Y-151263579D01*
X272604262Y-151320058D01*
X271412354Y-150064236D02*
X271511360Y-150530021D01*
X271987045Y-150477594D01*
X271930566Y-150440916D01*
X271864186Y-150357659D01*
X271814683Y-150124767D01*
X271841461Y-150021710D01*
X271878139Y-149965231D01*
X271961395Y-149898851D01*
X272194287Y-149849348D01*
X272297345Y-149876126D01*
X272353824Y-149912804D01*
X272420203Y-149996060D01*
X272469706Y-150228952D01*
X272442929Y-150332010D01*
X272406251Y-150388489D01*
X273802569Y-154960468D02*
X272824421Y-155168379D01*
X273683762Y-154401526D02*
X273213926Y-154939539D01*
X272705615Y-154609438D02*
X273383363Y-155049573D01*
X335200903Y-126304307D02*
X334992991Y-125326159D01*
X335225884Y-125276657D01*
X335375520Y-125293533D01*
X335488478Y-125366889D01*
X335554857Y-125450146D01*
X335641038Y-125626559D01*
X335670740Y-125766294D01*
X335663763Y-125962509D01*
X335636986Y-126065566D01*
X335563630Y-126178524D01*
X335433795Y-126254804D01*
X335200903Y-126304307D01*
X336436924Y-125019242D02*
X335971139Y-125118248D01*
X336023566Y-125593933D01*
X336060244Y-125537454D01*
X336143500Y-125471074D01*
X336376393Y-125421572D01*
X336479450Y-125448349D01*
X336535929Y-125485027D01*
X336602309Y-125568283D01*
X336651812Y-125801175D01*
X336625034Y-125904233D01*
X336588356Y-125960712D01*
X336505100Y-126027091D01*
X336272208Y-126076594D01*
X336169150Y-126049817D01*
X336112671Y-126013139D01*
X337157198Y-125888484D02*
X337343512Y-125848881D01*
X337426769Y-125782502D01*
X337463446Y-125726023D01*
X337526902Y-125566486D01*
X337533878Y-125370272D01*
X337454673Y-124997644D01*
X337388294Y-124914388D01*
X337331815Y-124877710D01*
X337228757Y-124850933D01*
X337042444Y-124890535D01*
X336959187Y-124956915D01*
X336922509Y-125013394D01*
X336895732Y-125116451D01*
X336945235Y-125349343D01*
X337011614Y-125432600D01*
X337068093Y-125469278D01*
X337171151Y-125496055D01*
X337357465Y-125456453D01*
X337440721Y-125390073D01*
X337477399Y-125333594D01*
X337504176Y-125230537D01*
X332472261Y-127211446D02*
X332264350Y-126233298D01*
X333031203Y-127092639D02*
X332493190Y-126622803D01*
X332823291Y-126114492D02*
X332383156Y-126792240D01*
X283607707Y-111003684D02*
X282629559Y-111211596D01*
X282580057Y-110978703D01*
X282596933Y-110829067D01*
X282670289Y-110716109D01*
X282753546Y-110649730D01*
X282929959Y-110563549D01*
X283069694Y-110533847D01*
X283265909Y-110540824D01*
X283368966Y-110567601D01*
X283481924Y-110640957D01*
X283558204Y-110770792D01*
X283607707Y-111003684D01*
X282441449Y-110326605D02*
X282312742Y-109721085D01*
X282754673Y-109967930D01*
X282724972Y-109828194D01*
X282751749Y-109725137D01*
X282788427Y-109668658D01*
X282871683Y-109602278D01*
X283104575Y-109552775D01*
X283207633Y-109579553D01*
X283264112Y-109616231D01*
X283330491Y-109699487D01*
X283389895Y-109978958D01*
X283363117Y-110082015D01*
X283326440Y-110138494D01*
X282326694Y-109328656D02*
X282270215Y-109291978D01*
X282203836Y-109208722D01*
X282154333Y-108975830D01*
X282181110Y-108872772D01*
X282217788Y-108816293D01*
X282301044Y-108749914D01*
X282394201Y-108730112D01*
X282543837Y-108746989D01*
X283221585Y-109187124D01*
X283092878Y-108581604D01*
X284514846Y-113732326D02*
X283536698Y-113940237D01*
X284396039Y-113173384D02*
X283926203Y-113711397D01*
X283417892Y-113381296D02*
X284095640Y-113821431D01*
X331240185Y-107670595D02*
X331032273Y-106692447D01*
X331265166Y-106642945D01*
X331414802Y-106659821D01*
X331527760Y-106733177D01*
X331594139Y-106816434D01*
X331680320Y-106992847D01*
X331710022Y-107132582D01*
X331703045Y-107328797D01*
X331676268Y-107431854D01*
X331602912Y-107544812D01*
X331473077Y-107621092D01*
X331240185Y-107670595D01*
X331917264Y-106504337D02*
X332522784Y-106375630D01*
X332275939Y-106817561D01*
X332415675Y-106787860D01*
X332518732Y-106814637D01*
X332575211Y-106851315D01*
X332641591Y-106934571D01*
X332691094Y-107167463D01*
X332664316Y-107270521D01*
X332627638Y-107327000D01*
X332544382Y-107393379D01*
X332264911Y-107452783D01*
X332161854Y-107426005D01*
X332105375Y-107389328D01*
X333407775Y-106187519D02*
X332941990Y-106286525D01*
X332994417Y-106762210D01*
X333031095Y-106705731D01*
X333114352Y-106639351D01*
X333347244Y-106589848D01*
X333450301Y-106616626D01*
X333506780Y-106653304D01*
X333573160Y-106736560D01*
X333622663Y-106969452D01*
X333595885Y-107072510D01*
X333559207Y-107128989D01*
X333475951Y-107195368D01*
X333243059Y-107244871D01*
X333140001Y-107218094D01*
X333083522Y-107181416D01*
X328511543Y-108577734D02*
X328303632Y-107599586D01*
X329070485Y-108458927D02*
X328532472Y-107989091D01*
X328862573Y-107480780D02*
X328422438Y-108158528D01*
X320875130Y-103082249D02*
X319896982Y-103290161D01*
X319847480Y-103057268D01*
X319864356Y-102907632D01*
X319937712Y-102794674D01*
X320020969Y-102728295D01*
X320197382Y-102642114D01*
X320337117Y-102612412D01*
X320533332Y-102619389D01*
X320636389Y-102646166D01*
X320749347Y-102719522D01*
X320825627Y-102849357D01*
X320875130Y-103082249D01*
X319708872Y-102405170D02*
X319580165Y-101799650D01*
X320022096Y-102046495D01*
X319992395Y-101906759D01*
X320019172Y-101803702D01*
X320055850Y-101747223D01*
X320139106Y-101680843D01*
X320371998Y-101631340D01*
X320475056Y-101658118D01*
X320531535Y-101694796D01*
X320597914Y-101778052D01*
X320657318Y-102057523D01*
X320630540Y-102160580D01*
X320593863Y-102217059D01*
X319728004Y-100891934D02*
X320380102Y-100753326D01*
X319404879Y-101204031D02*
X320153059Y-101288414D01*
X320024351Y-100682895D01*
X321782269Y-105810891D02*
X320804121Y-106018802D01*
X321663462Y-105251949D02*
X321193626Y-105789962D01*
X320685315Y-105459861D02*
X321363063Y-105899996D01*
X324670818Y-120939556D02*
X323692670Y-121147468D01*
X323643168Y-120914575D01*
X323660044Y-120764939D01*
X323733400Y-120651981D01*
X323816657Y-120585602D01*
X323993070Y-120499421D01*
X324132805Y-120469719D01*
X324329020Y-120476696D01*
X324432077Y-120503473D01*
X324545035Y-120576829D01*
X324621315Y-120706664D01*
X324670818Y-120939556D01*
X323721703Y-119680810D02*
X324373801Y-119542202D01*
X323398578Y-119992907D02*
X324146758Y-120077291D01*
X324018050Y-119471771D01*
X323306549Y-119330908D02*
X323167941Y-118678809D01*
X324235194Y-118890104D01*
X325577957Y-123668198D02*
X324599809Y-123876109D01*
X325459150Y-123109256D02*
X324989314Y-123647269D01*
X324481003Y-123317168D02*
X325158751Y-123757303D01*
X315859806Y-128922256D02*
X315651894Y-127944108D01*
X315884787Y-127894606D01*
X316034423Y-127911482D01*
X316147381Y-127984838D01*
X316213760Y-128068095D01*
X316299941Y-128244508D01*
X316329643Y-128384243D01*
X316322666Y-128580458D01*
X316295889Y-128683515D01*
X316222533Y-128796473D01*
X316092698Y-128872753D01*
X315859806Y-128922256D01*
X317118552Y-127973141D02*
X317257160Y-128625239D01*
X316806455Y-127650016D02*
X316722071Y-128398196D01*
X317327591Y-128269488D01*
X317980817Y-127449081D02*
X317794503Y-127488683D01*
X317711247Y-127555062D01*
X317674569Y-127611541D01*
X317611114Y-127771078D01*
X317604138Y-127967292D01*
X317683342Y-128339920D01*
X317749722Y-128423176D01*
X317806201Y-128459854D01*
X317909258Y-128486632D01*
X318095572Y-128447029D01*
X318178828Y-128380650D01*
X318215506Y-128324171D01*
X318242284Y-128221113D01*
X318192781Y-127988221D01*
X318126401Y-127904965D01*
X318069922Y-127868287D01*
X317966865Y-127841509D01*
X317780551Y-127881112D01*
X317697295Y-127947491D01*
X317660617Y-128003970D01*
X317633839Y-128107028D01*
X313131164Y-129829395D02*
X312923253Y-128851247D01*
X313690106Y-129710588D02*
X313152093Y-129240752D01*
X313482194Y-128732441D02*
X313042059Y-129410189D01*
X264973995Y-114964402D02*
X263995847Y-115172314D01*
X263946345Y-114939421D01*
X263963221Y-114789785D01*
X264036577Y-114676827D01*
X264119834Y-114610448D01*
X264296247Y-114524267D01*
X264435982Y-114494565D01*
X264632197Y-114501542D01*
X264735254Y-114528319D01*
X264848212Y-114601675D01*
X264924492Y-114731510D01*
X264973995Y-114964402D01*
X263807737Y-114287323D02*
X263679030Y-113681803D01*
X264120961Y-113928648D01*
X264091260Y-113788912D01*
X264118037Y-113685855D01*
X264154715Y-113629376D01*
X264237971Y-113562996D01*
X264470863Y-113513493D01*
X264573921Y-113540271D01*
X264630400Y-113576949D01*
X264696779Y-113660205D01*
X264756183Y-113939676D01*
X264729405Y-114042733D01*
X264692728Y-114099212D01*
X264459166Y-112542322D02*
X264577973Y-113101264D01*
X264518569Y-112821793D02*
X263540422Y-113029705D01*
X263699958Y-113093160D01*
X263812916Y-113166516D01*
X263879296Y-113249772D01*
X265881134Y-117693044D02*
X264902986Y-117900955D01*
X265762327Y-117134102D02*
X265292491Y-117672115D01*
X264784180Y-117342014D02*
X265461928Y-117782149D01*
X260848247Y-95554286D02*
X259870099Y-95762198D01*
X259820597Y-95529305D01*
X259837473Y-95379669D01*
X259910829Y-95266711D01*
X259994086Y-95200332D01*
X260170499Y-95114151D01*
X260310234Y-95084449D01*
X260506449Y-95091426D01*
X260609506Y-95118203D01*
X260722464Y-95191559D01*
X260798744Y-95321394D01*
X260848247Y-95554286D01*
X260531429Y-94063775D02*
X260650236Y-94622717D01*
X260590833Y-94343246D02*
X259612685Y-94551158D01*
X259772221Y-94614613D01*
X259885179Y-94687969D01*
X259951559Y-94771225D01*
X260432424Y-93597991D02*
X260392821Y-93411677D01*
X260326442Y-93328420D01*
X260269963Y-93291743D01*
X260110426Y-93228287D01*
X259914212Y-93221311D01*
X259541584Y-93300516D01*
X259458328Y-93366895D01*
X259421650Y-93423374D01*
X259394873Y-93526432D01*
X259434475Y-93712745D01*
X259500855Y-93796002D01*
X259557334Y-93832680D01*
X259660391Y-93859457D01*
X259893283Y-93809954D01*
X259976540Y-93743575D01*
X260013218Y-93687096D01*
X260039995Y-93584038D01*
X260000393Y-93397724D01*
X259934013Y-93314468D01*
X259877534Y-93277790D01*
X259774477Y-93251013D01*
X261755386Y-98282928D02*
X260777238Y-98490839D01*
X261636579Y-97723986D02*
X261166743Y-98261999D01*
X260658432Y-97931898D02*
X261336180Y-98372033D01*
X242214535Y-99515003D02*
X241236387Y-99722915D01*
X241186885Y-99490022D01*
X241203761Y-99340386D01*
X241277117Y-99227428D01*
X241360374Y-99161049D01*
X241536787Y-99074868D01*
X241676522Y-99045166D01*
X241872737Y-99052143D01*
X241975794Y-99078920D01*
X242088752Y-99152276D01*
X242165032Y-99282111D01*
X242214535Y-99515003D01*
X241897717Y-98024492D02*
X242016524Y-98583434D01*
X241957121Y-98303963D02*
X240978973Y-98511875D01*
X241138509Y-98575330D01*
X241251467Y-98648686D01*
X241317847Y-98731942D01*
X241219969Y-97584357D02*
X241193192Y-97687415D01*
X241156514Y-97743894D01*
X241073257Y-97810273D01*
X241026679Y-97820174D01*
X240923622Y-97793397D01*
X240867143Y-97756719D01*
X240800763Y-97673462D01*
X240761161Y-97487149D01*
X240787938Y-97384091D01*
X240824616Y-97327612D01*
X240907872Y-97261233D01*
X240954451Y-97251332D01*
X241057508Y-97278109D01*
X241113987Y-97314787D01*
X241180367Y-97398044D01*
X241219969Y-97584357D01*
X241286349Y-97667614D01*
X241342828Y-97704292D01*
X241445885Y-97731069D01*
X241632199Y-97691467D01*
X241715455Y-97625087D01*
X241752133Y-97568608D01*
X241778911Y-97465551D01*
X241739308Y-97279237D01*
X241672929Y-97195981D01*
X241616450Y-97159303D01*
X241513392Y-97132525D01*
X241327078Y-97172128D01*
X241243822Y-97238507D01*
X241207144Y-97294986D01*
X241180367Y-97398044D01*
X243121674Y-102243645D02*
X242143526Y-102451556D01*
X243002867Y-101684703D02*
X242533031Y-102222716D01*
X242024720Y-101892615D02*
X242702468Y-102332750D01*
X250301001Y-137558832D02*
X249322853Y-137766744D01*
X249273351Y-137533851D01*
X249290227Y-137384215D01*
X249363583Y-137271257D01*
X249446840Y-137204878D01*
X249623253Y-137118697D01*
X249762988Y-137088995D01*
X249959203Y-137095972D01*
X250062260Y-137122749D01*
X250175218Y-137196105D01*
X250251498Y-137325940D01*
X250301001Y-137558832D01*
X249351886Y-136300086D02*
X250003984Y-136161478D01*
X249028761Y-136612183D02*
X249776941Y-136696567D01*
X249648233Y-136091047D01*
X249019988Y-135883804D02*
X248963509Y-135847126D01*
X248897130Y-135763870D01*
X248847627Y-135530978D01*
X248874404Y-135427920D01*
X248911082Y-135371441D01*
X248994338Y-135305062D01*
X249087495Y-135285260D01*
X249237131Y-135302137D01*
X249914879Y-135742272D01*
X249786172Y-135136752D01*
X251208140Y-140287474D02*
X250229992Y-140495385D01*
X251089333Y-139728532D02*
X250619497Y-140266545D01*
X250111186Y-139936444D02*
X250788934Y-140376579D01*
X287568424Y-129637396D02*
X286590276Y-129845308D01*
X286540774Y-129612415D01*
X286557650Y-129462779D01*
X286631006Y-129349821D01*
X286714263Y-129283442D01*
X286890676Y-129197261D01*
X287030411Y-129167559D01*
X287226626Y-129174536D01*
X287329683Y-129201313D01*
X287442641Y-129274669D01*
X287518921Y-129404504D01*
X287568424Y-129637396D01*
X286619309Y-128378650D02*
X287271407Y-128240042D01*
X286296184Y-128690747D02*
X287044364Y-128775131D01*
X286915656Y-128169611D01*
X286421298Y-127447081D02*
X287073396Y-127308473D01*
X286098173Y-127759178D02*
X286846353Y-127843561D01*
X286717645Y-127238042D01*
X288475563Y-132366038D02*
X287497415Y-132573949D01*
X288356756Y-131807096D02*
X287886920Y-132345109D01*
X287378609Y-132015008D02*
X288056357Y-132455143D01*
X298115671Y-87632850D02*
X297137523Y-87840762D01*
X297088021Y-87607869D01*
X297104897Y-87458233D01*
X297178253Y-87345275D01*
X297261510Y-87278896D01*
X297437923Y-87192715D01*
X297577658Y-87163013D01*
X297773873Y-87169990D01*
X297876930Y-87196767D01*
X297989888Y-87270123D01*
X298066168Y-87399958D01*
X298115671Y-87632850D01*
X297032669Y-86889391D02*
X296976190Y-86852713D01*
X296909811Y-86769457D01*
X296860308Y-86536565D01*
X296887085Y-86433507D01*
X296923763Y-86377028D01*
X297007019Y-86310649D01*
X297100176Y-86290848D01*
X297249812Y-86307724D01*
X297927560Y-86747859D01*
X297798853Y-86142339D01*
X297600842Y-85210770D02*
X297719649Y-85769712D01*
X297660245Y-85490241D02*
X296682098Y-85698153D01*
X296841634Y-85761608D01*
X296954592Y-85834964D01*
X297020972Y-85918220D01*
X299022810Y-90361492D02*
X298044662Y-90569403D01*
X298904003Y-89802550D02*
X298434167Y-90340563D01*
X297925856Y-90010462D02*
X298603604Y-90450597D01*
X316749383Y-83672133D02*
X315771235Y-83880045D01*
X315721733Y-83647152D01*
X315738609Y-83497516D01*
X315811965Y-83384558D01*
X315895222Y-83318179D01*
X316071635Y-83231998D01*
X316211370Y-83202296D01*
X316407585Y-83209273D01*
X316510642Y-83236050D01*
X316623600Y-83309406D01*
X316699880Y-83439241D01*
X316749383Y-83672133D01*
X315666381Y-82928674D02*
X315609902Y-82891996D01*
X315543523Y-82808740D01*
X315494020Y-82575848D01*
X315520797Y-82472790D01*
X315557475Y-82416311D01*
X315640731Y-82349932D01*
X315733888Y-82330131D01*
X315883524Y-82347007D01*
X316561272Y-82787142D01*
X316432565Y-82181622D01*
X315468370Y-81997105D02*
X315411891Y-81960427D01*
X315345512Y-81877171D01*
X315296009Y-81644279D01*
X315322786Y-81541221D01*
X315359464Y-81484742D01*
X315442720Y-81418363D01*
X315535877Y-81398561D01*
X315685513Y-81415438D01*
X316363261Y-81855573D01*
X316234554Y-81250053D01*
X317656522Y-86400775D02*
X316678374Y-86608686D01*
X317537715Y-85841833D02*
X317067879Y-86379846D01*
X316559568Y-86049745D02*
X317237316Y-86489880D01*
X291529142Y-148271108D02*
X290550994Y-148479020D01*
X290501492Y-148246127D01*
X290518368Y-148096491D01*
X290591724Y-147983533D01*
X290674981Y-147917154D01*
X290851394Y-147830973D01*
X290991129Y-147801271D01*
X291187344Y-147808248D01*
X291290401Y-147835025D01*
X291403359Y-147908381D01*
X291479639Y-148038216D01*
X291529142Y-148271108D01*
X290244077Y-147035087D02*
X290343083Y-147500872D01*
X290818768Y-147448445D01*
X290762289Y-147411767D01*
X290695909Y-147328511D01*
X290646407Y-147095618D01*
X290673184Y-146992561D01*
X290709862Y-146936082D01*
X290793118Y-146869702D01*
X291026010Y-146820199D01*
X291129068Y-146846977D01*
X291185547Y-146883655D01*
X291251926Y-146966911D01*
X291301429Y-147199803D01*
X291274652Y-147302861D01*
X291237974Y-147359340D01*
X290055967Y-146150097D02*
X290095569Y-146336411D01*
X290161948Y-146419667D01*
X290218427Y-146456345D01*
X290377964Y-146519800D01*
X290574178Y-146526776D01*
X290946806Y-146447572D01*
X291030062Y-146381192D01*
X291066740Y-146324713D01*
X291093518Y-146221656D01*
X291053915Y-146035342D01*
X290987536Y-145952086D01*
X290931057Y-145915408D01*
X290827999Y-145888630D01*
X290595107Y-145938133D01*
X290511851Y-146004513D01*
X290475173Y-146060992D01*
X290448395Y-146164049D01*
X290487998Y-146350363D01*
X290554377Y-146433619D01*
X290610856Y-146470297D01*
X290713914Y-146497075D01*
X292436281Y-150999750D02*
X291458133Y-151207661D01*
X292317474Y-150440808D02*
X291847638Y-150978821D01*
X291339327Y-150648720D02*
X292017075Y-151088855D01*
X306202136Y-125676679D02*
X305223988Y-125884591D01*
X305174486Y-125651698D01*
X305191362Y-125502062D01*
X305264718Y-125389104D01*
X305347975Y-125322725D01*
X305524388Y-125236544D01*
X305664123Y-125206842D01*
X305860338Y-125213819D01*
X305963395Y-125240596D01*
X306076353Y-125313952D01*
X306152633Y-125443787D01*
X306202136Y-125676679D01*
X305253021Y-124417933D02*
X305905119Y-124279325D01*
X304929896Y-124730030D02*
X305678076Y-124814414D01*
X305549368Y-124208894D01*
X304719060Y-123509089D02*
X304818066Y-123974874D01*
X305293751Y-123922447D01*
X305237272Y-123885769D01*
X305170892Y-123802512D01*
X305121389Y-123569620D01*
X305148167Y-123466563D01*
X305184845Y-123410084D01*
X305268101Y-123343704D01*
X305500993Y-123294201D01*
X305604051Y-123320979D01*
X305660530Y-123357657D01*
X305726909Y-123440913D01*
X305776412Y-123673805D01*
X305749635Y-123776863D01*
X305712957Y-123833342D01*
X307109275Y-128405321D02*
X306131127Y-128613232D01*
X306990468Y-127846379D02*
X306520632Y-128384392D01*
X306012321Y-128054291D02*
X306690069Y-128494426D01*
X302241418Y-107042967D02*
X301263270Y-107250879D01*
X301213768Y-107017986D01*
X301230644Y-106868350D01*
X301304000Y-106755392D01*
X301387257Y-106689013D01*
X301563670Y-106602832D01*
X301703405Y-106573130D01*
X301899620Y-106580107D01*
X302002677Y-106606884D01*
X302115635Y-106680240D01*
X302191915Y-106810075D01*
X302241418Y-107042967D01*
X301075160Y-106365888D02*
X300946453Y-105760368D01*
X301388384Y-106007213D01*
X301358683Y-105867477D01*
X301385460Y-105764420D01*
X301422138Y-105707941D01*
X301505394Y-105641561D01*
X301738286Y-105592058D01*
X301841344Y-105618836D01*
X301897823Y-105655514D01*
X301964202Y-105738770D01*
X302023606Y-106018241D01*
X301996828Y-106121298D01*
X301960151Y-106177777D01*
X300877149Y-105434319D02*
X300748441Y-104828799D01*
X301190373Y-105075644D01*
X301160671Y-104935908D01*
X301187449Y-104832851D01*
X301224127Y-104776372D01*
X301307383Y-104709992D01*
X301540275Y-104660489D01*
X301643333Y-104687267D01*
X301699812Y-104723945D01*
X301766191Y-104807201D01*
X301825595Y-105086672D01*
X301798817Y-105189729D01*
X301762139Y-105246208D01*
X303148557Y-109771609D02*
X302170409Y-109979520D01*
X303029750Y-109212667D02*
X302559914Y-109750680D01*
X302051603Y-109420579D02*
X302729351Y-109860714D01*
X328796566Y-140349673D02*
X327818418Y-140557585D01*
X327768916Y-140324692D01*
X327785792Y-140175056D01*
X327859148Y-140062098D01*
X327942405Y-139995719D01*
X328118818Y-139909538D01*
X328258553Y-139879836D01*
X328454768Y-139886813D01*
X328557825Y-139913590D01*
X328670783Y-139986946D01*
X328747063Y-140116781D01*
X328796566Y-140349673D01*
X327511501Y-139113652D02*
X327610507Y-139579437D01*
X328086192Y-139527010D01*
X328029713Y-139490332D01*
X327963333Y-139407076D01*
X327913831Y-139174183D01*
X327940608Y-139071126D01*
X327977286Y-139014647D01*
X328060542Y-138948267D01*
X328293434Y-138898764D01*
X328396492Y-138925542D01*
X328452971Y-138962220D01*
X328519350Y-139045476D01*
X328568853Y-139278368D01*
X328542076Y-139381426D01*
X328505398Y-139437905D01*
X327802000Y-138419027D02*
X327775223Y-138522085D01*
X327738545Y-138578564D01*
X327655288Y-138644943D01*
X327608710Y-138654844D01*
X327505653Y-138628067D01*
X327449174Y-138591389D01*
X327382794Y-138508132D01*
X327343192Y-138321819D01*
X327369969Y-138218761D01*
X327406647Y-138162282D01*
X327489903Y-138095903D01*
X327536482Y-138086002D01*
X327639539Y-138112779D01*
X327696018Y-138149457D01*
X327762398Y-138232714D01*
X327802000Y-138419027D01*
X327868380Y-138502284D01*
X327924859Y-138538962D01*
X328027916Y-138565739D01*
X328214230Y-138526137D01*
X328297486Y-138459757D01*
X328334164Y-138403278D01*
X328360942Y-138300221D01*
X328321339Y-138113907D01*
X328254960Y-138030651D01*
X328198481Y-137993973D01*
X328095423Y-137967195D01*
X327909109Y-138006798D01*
X327825853Y-138073177D01*
X327789175Y-138129656D01*
X327762398Y-138232714D01*
X329703705Y-143078315D02*
X328725557Y-143286226D01*
X329584898Y-142519373D02*
X329115062Y-143057386D01*
X328606751Y-142727285D02*
X329284499Y-143167420D01*
X327155393Y-88972370D02*
X326947481Y-87994222D01*
X327180374Y-87944720D01*
X327330010Y-87961596D01*
X327442968Y-88034952D01*
X327509347Y-88118209D01*
X327595528Y-88294622D01*
X327625230Y-88434357D01*
X327618253Y-88630572D01*
X327591476Y-88733629D01*
X327518120Y-88846587D01*
X327388285Y-88922867D01*
X327155393Y-88972370D01*
X327898852Y-87889368D02*
X327935530Y-87832889D01*
X328018786Y-87766510D01*
X328251678Y-87717007D01*
X328354736Y-87743784D01*
X328411215Y-87780462D01*
X328477594Y-87863718D01*
X328497395Y-87956875D01*
X328480519Y-88106511D01*
X328040384Y-88784259D01*
X328645904Y-88655552D01*
X328764041Y-87608101D02*
X329369561Y-87479393D01*
X329122716Y-87921325D01*
X329262452Y-87891623D01*
X329365509Y-87918401D01*
X329421988Y-87955079D01*
X329488368Y-88038335D01*
X329537871Y-88271227D01*
X329511093Y-88374285D01*
X329474415Y-88430764D01*
X329391159Y-88497143D01*
X329111688Y-88556547D01*
X329008631Y-88529769D01*
X328952152Y-88493091D01*
X324426751Y-89879509D02*
X324218840Y-88901361D01*
X324985693Y-89760702D02*
X324447680Y-89290866D01*
X324777781Y-88782555D02*
X324337646Y-89460303D01*
X246340283Y-118925120D02*
X245362135Y-119133032D01*
X245312633Y-118900139D01*
X245329509Y-118750503D01*
X245402865Y-118637545D01*
X245486122Y-118571166D01*
X245662535Y-118484985D01*
X245802270Y-118455283D01*
X245998485Y-118462260D01*
X246101542Y-118489037D01*
X246214500Y-118562393D01*
X246290780Y-118692228D01*
X246340283Y-118925120D01*
X245174025Y-118248041D02*
X245045318Y-117642521D01*
X245487249Y-117889366D01*
X245457548Y-117749630D01*
X245484325Y-117646573D01*
X245521003Y-117590094D01*
X245604259Y-117523714D01*
X245837151Y-117474211D01*
X245940209Y-117500989D01*
X245996688Y-117537667D01*
X246063067Y-117620923D01*
X246122471Y-117900394D01*
X246095693Y-118003451D01*
X246059016Y-118059930D01*
X244916610Y-117037001D02*
X244896809Y-116943844D01*
X244923587Y-116840787D01*
X244960265Y-116784308D01*
X245043521Y-116717928D01*
X245219934Y-116631747D01*
X245452826Y-116582245D01*
X245649041Y-116589221D01*
X245752098Y-116615998D01*
X245808577Y-116652676D01*
X245874957Y-116735932D01*
X245894758Y-116829089D01*
X245867981Y-116932147D01*
X245831303Y-116988626D01*
X245748046Y-117055005D01*
X245571633Y-117141186D01*
X245338741Y-117190689D01*
X245142526Y-117183713D01*
X245039469Y-117156935D01*
X244982990Y-117120257D01*
X244916610Y-117037001D01*
X247247422Y-121653762D02*
X246269274Y-121861673D01*
X247128615Y-121094820D02*
X246658779Y-121632833D01*
X246150468Y-121302732D02*
X246828216Y-121742867D01*
X279481959Y-91593568D02*
X278503811Y-91801480D01*
X278454309Y-91568587D01*
X278471185Y-91418951D01*
X278544541Y-91305993D01*
X278627798Y-91239614D01*
X278804211Y-91153433D01*
X278943946Y-91123731D01*
X279140161Y-91130708D01*
X279243218Y-91157485D01*
X279356176Y-91230841D01*
X279432456Y-91360676D01*
X279481959Y-91593568D01*
X278398957Y-90850109D02*
X278342478Y-90813431D01*
X278276099Y-90730175D01*
X278226596Y-90497283D01*
X278253373Y-90394225D01*
X278290051Y-90337746D01*
X278373307Y-90271367D01*
X278466464Y-90251566D01*
X278616100Y-90268442D01*
X279293848Y-90708577D01*
X279165141Y-90103057D01*
X278058286Y-89705449D02*
X278038485Y-89612292D01*
X278065263Y-89509235D01*
X278101941Y-89452756D01*
X278185197Y-89386376D01*
X278361610Y-89300195D01*
X278594502Y-89250693D01*
X278790717Y-89257669D01*
X278893774Y-89284446D01*
X278950253Y-89321124D01*
X279016633Y-89404380D01*
X279036434Y-89497537D01*
X279009657Y-89600595D01*
X278972979Y-89657074D01*
X278889722Y-89723453D01*
X278713309Y-89809634D01*
X278480417Y-89859137D01*
X278284202Y-89852161D01*
X278181145Y-89825383D01*
X278124666Y-89788705D01*
X278058286Y-89705449D01*
X280389098Y-94322210D02*
X279410950Y-94530121D01*
X280270291Y-93763268D02*
X279800455Y-94301281D01*
X279292144Y-93971180D02*
X279969892Y-94411315D01*
X206104380Y-179300095D02*
X205104380Y-179300095D01*
X205104380Y-179062000D01*
X205152000Y-178919142D01*
X205247238Y-178823904D01*
X205342476Y-178776285D01*
X205532952Y-178728666D01*
X205675809Y-178728666D01*
X205866285Y-178776285D01*
X205961523Y-178823904D01*
X206056761Y-178919142D01*
X206104380Y-179062000D01*
X206104380Y-179300095D01*
X206104380Y-177776285D02*
X206104380Y-178347714D01*
X206104380Y-178062000D02*
X205104380Y-178062000D01*
X205247238Y-178157238D01*
X205342476Y-178252476D01*
X205390095Y-178347714D01*
X206424380Y-182633904D02*
X205424380Y-182633904D01*
X206424380Y-182062476D02*
X205852952Y-182491047D01*
X205424380Y-182062476D02*
X205995809Y-182633904D01*
X205832380Y-122414285D02*
X204832380Y-122414285D01*
X204832380Y-122176190D01*
X204880000Y-122033333D01*
X204975238Y-121938095D01*
X205070476Y-121890476D01*
X205260952Y-121842857D01*
X205403809Y-121842857D01*
X205594285Y-121890476D01*
X205689523Y-121938095D01*
X205784761Y-122033333D01*
X205832380Y-122176190D01*
X205832380Y-122414285D01*
X205832380Y-120890476D02*
X205832380Y-121461904D01*
X205832380Y-121176190D02*
X204832380Y-121176190D01*
X204975238Y-121271428D01*
X205070476Y-121366666D01*
X205118095Y-121461904D01*
X204832380Y-120271428D02*
X204832380Y-120176190D01*
X204880000Y-120080952D01*
X204927619Y-120033333D01*
X205022857Y-119985714D01*
X205213333Y-119938095D01*
X205451428Y-119938095D01*
X205641904Y-119985714D01*
X205737142Y-120033333D01*
X205784761Y-120080952D01*
X205832380Y-120176190D01*
X205832380Y-120271428D01*
X205784761Y-120366666D01*
X205737142Y-120414285D01*
X205641904Y-120461904D01*
X205451428Y-120509523D01*
X205213333Y-120509523D01*
X205022857Y-120461904D01*
X204927619Y-120414285D01*
X204880000Y-120366666D01*
X204832380Y-120271428D01*
X206152380Y-125271904D02*
X205152380Y-125271904D01*
X206152380Y-124700476D02*
X205580952Y-125129047D01*
X205152380Y-124700476D02*
X205723809Y-125271904D01*
X202452380Y-85333333D02*
X203166666Y-85333333D01*
X203309523Y-85380952D01*
X203404761Y-85476190D01*
X203452380Y-85619047D01*
X203452380Y-85714285D01*
X202452380Y-84666666D02*
X202452380Y-84571428D01*
X202500000Y-84476190D01*
X202547619Y-84428571D01*
X202642857Y-84380952D01*
X202833333Y-84333333D01*
X203071428Y-84333333D01*
X203261904Y-84380952D01*
X203357142Y-84428571D01*
X203404761Y-84476190D01*
X203452380Y-84571428D01*
X203452380Y-84666666D01*
X203404761Y-84761904D01*
X203357142Y-84809523D01*
X203261904Y-84857142D01*
X203071428Y-84904761D01*
X202833333Y-84904761D01*
X202642857Y-84857142D01*
X202547619Y-84809523D01*
X202500000Y-84761904D01*
X202452380Y-84666666D01*
X132388606Y-95001465D02*
X131410458Y-94793554D01*
X131459961Y-94560661D01*
X131536241Y-94430827D01*
X131649199Y-94357471D01*
X131752256Y-94330694D01*
X131948471Y-94323717D01*
X132088206Y-94353419D01*
X132264619Y-94439600D01*
X132347876Y-94505979D01*
X132421232Y-94618937D01*
X132438108Y-94768573D01*
X132388606Y-95001465D01*
X132705423Y-93510955D02*
X132586617Y-94069896D01*
X132646020Y-93790426D02*
X131667873Y-93582514D01*
X131787807Y-93705372D01*
X131861163Y-93818330D01*
X131887940Y-93921388D01*
X131915386Y-92418052D02*
X131816381Y-92883837D01*
X132272265Y-93029421D01*
X132235587Y-92972942D01*
X132208810Y-92869885D01*
X132258312Y-92636992D01*
X132324692Y-92553736D01*
X132381171Y-92517058D01*
X132484228Y-92490281D01*
X132717121Y-92539783D01*
X132800377Y-92606163D01*
X132837055Y-92662642D01*
X132863832Y-92765700D01*
X132814330Y-92998592D01*
X132747950Y-93081848D01*
X132691471Y-93118526D01*
X132107480Y-97863170D02*
X131129332Y-97655259D01*
X132226286Y-97304229D02*
X131578240Y-97604628D01*
X131248139Y-97096317D02*
X131688274Y-97774065D01*
X154208967Y-126766359D02*
X154416878Y-125788211D01*
X154649771Y-125837714D01*
X154779605Y-125913994D01*
X154852961Y-126026952D01*
X154879738Y-126130009D01*
X154886715Y-126326224D01*
X154857013Y-126465959D01*
X154770832Y-126642372D01*
X154704453Y-126725629D01*
X154591495Y-126798985D01*
X154441859Y-126815861D01*
X154208967Y-126766359D01*
X155744928Y-126411277D02*
X155606320Y-127063375D01*
X155591240Y-125989147D02*
X155209840Y-126638321D01*
X155815360Y-126767028D01*
X156631046Y-127281188D02*
X156072105Y-127162381D01*
X156351576Y-127221784D02*
X156559487Y-126243637D01*
X156436629Y-126363571D01*
X156323671Y-126436927D01*
X156220613Y-126463704D01*
X152047735Y-125709148D02*
X151839824Y-126687296D01*
X151488794Y-125590342D02*
X151789193Y-126238388D01*
X151280882Y-126568489D02*
X151958630Y-126128354D01*
X187077521Y-159955356D02*
X186077521Y-159955356D01*
X186077521Y-159717261D01*
X186125141Y-159574403D01*
X186220379Y-159479165D01*
X186315617Y-159431546D01*
X186506093Y-159383927D01*
X186648950Y-159383927D01*
X186839426Y-159431546D01*
X186934664Y-159479165D01*
X187029902Y-159574403D01*
X187077521Y-159717261D01*
X187077521Y-159955356D01*
X186077521Y-159050594D02*
X186077521Y-158431546D01*
X186458474Y-158764880D01*
X186458474Y-158622022D01*
X186506093Y-158526784D01*
X186553712Y-158479165D01*
X186648950Y-158431546D01*
X186887045Y-158431546D01*
X186982283Y-158479165D01*
X187029902Y-158526784D01*
X187077521Y-158622022D01*
X187077521Y-158907737D01*
X187029902Y-159002975D01*
X186982283Y-159050594D01*
X187397521Y-163289165D02*
X186397521Y-163289165D01*
X187397521Y-162717737D02*
X186826093Y-163146308D01*
X186397521Y-162717737D02*
X186968950Y-163289165D01*
X142935852Y-137006011D02*
X141957704Y-136798100D01*
X142007207Y-136565207D01*
X142083487Y-136435373D01*
X142196445Y-136362017D01*
X142299502Y-136335240D01*
X142495717Y-136328263D01*
X142635452Y-136357965D01*
X142811865Y-136444146D01*
X142895122Y-136510525D01*
X142968478Y-136623483D01*
X142985354Y-136773119D01*
X142935852Y-137006011D01*
X142580770Y-135470050D02*
X143232868Y-135608658D01*
X142158640Y-135623738D02*
X142807814Y-136005138D01*
X142936521Y-135399618D01*
X142403229Y-134702069D02*
X142423030Y-134608912D01*
X142489410Y-134525656D01*
X142545889Y-134488978D01*
X142648946Y-134462201D01*
X142845161Y-134455224D01*
X143078053Y-134504727D01*
X143254466Y-134590908D01*
X143337723Y-134657287D01*
X143374400Y-134713766D01*
X143401178Y-134816824D01*
X143381377Y-134909981D01*
X143314997Y-134993237D01*
X143258518Y-135029915D01*
X143155461Y-135056692D01*
X142959246Y-135063669D01*
X142726354Y-135014166D01*
X142549941Y-134927985D01*
X142466684Y-134861606D01*
X142430006Y-134805127D01*
X142403229Y-134702069D01*
X142654726Y-139867716D02*
X141676578Y-139659805D01*
X142773532Y-139308775D02*
X142125486Y-139609174D01*
X141795385Y-139100863D02*
X142235520Y-139778611D01*
X138984759Y-155603232D02*
X138006611Y-155395321D01*
X138056114Y-155162428D01*
X138132394Y-155032594D01*
X138245352Y-154959238D01*
X138348409Y-154932461D01*
X138544624Y-154925484D01*
X138684359Y-154955186D01*
X138860772Y-155041367D01*
X138944029Y-155107746D01*
X139017385Y-155220704D01*
X139034261Y-155370340D01*
X138984759Y-155603232D01*
X138313528Y-153951389D02*
X138214523Y-154417173D01*
X138670407Y-154562757D01*
X138633729Y-154506278D01*
X138606952Y-154403221D01*
X138656454Y-154170328D01*
X138722834Y-154087072D01*
X138779313Y-154050394D01*
X138882370Y-154023617D01*
X139115263Y-154073120D01*
X139198519Y-154139499D01*
X139235197Y-154195978D01*
X139261974Y-154299036D01*
X139212471Y-154531928D01*
X139146092Y-154615184D01*
X139089613Y-154651862D01*
X138495790Y-153551984D02*
X138459112Y-153495505D01*
X138432335Y-153392447D01*
X138481838Y-153159555D01*
X138548217Y-153076298D01*
X138604696Y-153039621D01*
X138707754Y-153012843D01*
X138800911Y-153032644D01*
X138930746Y-153108924D01*
X139370880Y-153786673D01*
X139499588Y-153181153D01*
X138703633Y-158464937D02*
X137725485Y-158257026D01*
X138822439Y-157905996D02*
X138174393Y-158206395D01*
X137844292Y-157698084D02*
X138284427Y-158375832D01*
X187032380Y-122138095D02*
X186032380Y-122138095D01*
X186032380Y-121900000D01*
X186080000Y-121757142D01*
X186175238Y-121661904D01*
X186270476Y-121614285D01*
X186460952Y-121566666D01*
X186603809Y-121566666D01*
X186794285Y-121614285D01*
X186889523Y-121661904D01*
X186984761Y-121757142D01*
X187032380Y-121900000D01*
X187032380Y-122138095D01*
X187032380Y-121090476D02*
X187032380Y-120900000D01*
X186984761Y-120804761D01*
X186937142Y-120757142D01*
X186794285Y-120661904D01*
X186603809Y-120614285D01*
X186222857Y-120614285D01*
X186127619Y-120661904D01*
X186080000Y-120709523D01*
X186032380Y-120804761D01*
X186032380Y-120995238D01*
X186080000Y-121090476D01*
X186127619Y-121138095D01*
X186222857Y-121185714D01*
X186460952Y-121185714D01*
X186556190Y-121138095D01*
X186603809Y-121090476D01*
X186651428Y-120995238D01*
X186651428Y-120804761D01*
X186603809Y-120709523D01*
X186556190Y-120661904D01*
X186460952Y-120614285D01*
X187352380Y-125471904D02*
X186352380Y-125471904D01*
X187352380Y-124900476D02*
X186780952Y-125329047D01*
X186352380Y-124900476D02*
X186923809Y-125471904D01*
X83079359Y-143665232D02*
X82101211Y-143457321D01*
X82150714Y-143224428D01*
X82226994Y-143094594D01*
X82339952Y-143021238D01*
X82443009Y-142994461D01*
X82639224Y-142987484D01*
X82778959Y-143017186D01*
X82955372Y-143103367D01*
X83038629Y-143169746D01*
X83111985Y-143282704D01*
X83128861Y-143432340D01*
X83079359Y-143665232D01*
X82724277Y-142129271D02*
X83376375Y-142267879D01*
X82302147Y-142282959D02*
X82951321Y-142664359D01*
X83080028Y-142058839D01*
X83495182Y-141708937D02*
X83534784Y-141522623D01*
X83508007Y-141419566D01*
X83471329Y-141363087D01*
X83351395Y-141240228D01*
X83174981Y-141154048D01*
X82802354Y-141074843D01*
X82699296Y-141101621D01*
X82642817Y-141138298D01*
X82576438Y-141221555D01*
X82536836Y-141407869D01*
X82563613Y-141510926D01*
X82600291Y-141567405D01*
X82683547Y-141633785D01*
X82916439Y-141683287D01*
X83019497Y-141656510D01*
X83075976Y-141619832D01*
X83142355Y-141536576D01*
X83181958Y-141350262D01*
X83155180Y-141247205D01*
X83118502Y-141190726D01*
X83035246Y-141124346D01*
X82798233Y-146526937D02*
X81820085Y-146319026D01*
X82917039Y-145967996D02*
X82268993Y-146268395D01*
X81938892Y-145760084D02*
X82379027Y-146437832D01*
X87034717Y-125123858D02*
X86056569Y-124915947D01*
X86106072Y-124683054D01*
X86182352Y-124553220D01*
X86295310Y-124479864D01*
X86398367Y-124453087D01*
X86594582Y-124446110D01*
X86734317Y-124475812D01*
X86910730Y-124561993D01*
X86993987Y-124628372D01*
X87067343Y-124741330D01*
X87084219Y-124890966D01*
X87034717Y-125123858D01*
X86244680Y-124030956D02*
X86373387Y-123425436D01*
X86676711Y-123830690D01*
X86706412Y-123690954D01*
X86772792Y-123607698D01*
X86829271Y-123571020D01*
X86932328Y-123544243D01*
X87165221Y-123593746D01*
X87248477Y-123660125D01*
X87285155Y-123716604D01*
X87311932Y-123819662D01*
X87252529Y-124099132D01*
X87186149Y-124182389D01*
X87129670Y-124219067D01*
X86442691Y-123099387D02*
X86581299Y-122447289D01*
X87470341Y-123074406D01*
X86753591Y-127985563D02*
X85775443Y-127777652D01*
X86872397Y-127426622D02*
X86224351Y-127727021D01*
X85894250Y-127218710D02*
X86334385Y-127896458D01*
X224132380Y-159888095D02*
X223132380Y-159888095D01*
X223132380Y-159650000D01*
X223180000Y-159507142D01*
X223275238Y-159411904D01*
X223370476Y-159364285D01*
X223560952Y-159316666D01*
X223703809Y-159316666D01*
X223894285Y-159364285D01*
X223989523Y-159411904D01*
X224084761Y-159507142D01*
X224132380Y-159650000D01*
X224132380Y-159888095D01*
X223132380Y-158411904D02*
X223132380Y-158888095D01*
X223608571Y-158935714D01*
X223560952Y-158888095D01*
X223513333Y-158792857D01*
X223513333Y-158554761D01*
X223560952Y-158459523D01*
X223608571Y-158411904D01*
X223703809Y-158364285D01*
X223941904Y-158364285D01*
X224037142Y-158411904D01*
X224084761Y-158459523D01*
X224132380Y-158554761D01*
X224132380Y-158792857D01*
X224084761Y-158888095D01*
X224037142Y-158935714D01*
X224452380Y-163221904D02*
X223452380Y-163221904D01*
X224452380Y-162650476D02*
X223880952Y-163079047D01*
X223452380Y-162650476D02*
X224023809Y-163221904D01*
X224182380Y-140788095D02*
X223182380Y-140788095D01*
X223182380Y-140550000D01*
X223230000Y-140407142D01*
X223325238Y-140311904D01*
X223420476Y-140264285D01*
X223610952Y-140216666D01*
X223753809Y-140216666D01*
X223944285Y-140264285D01*
X224039523Y-140311904D01*
X224134761Y-140407142D01*
X224182380Y-140550000D01*
X224182380Y-140788095D01*
X223610952Y-139645238D02*
X223563333Y-139740476D01*
X223515714Y-139788095D01*
X223420476Y-139835714D01*
X223372857Y-139835714D01*
X223277619Y-139788095D01*
X223230000Y-139740476D01*
X223182380Y-139645238D01*
X223182380Y-139454761D01*
X223230000Y-139359523D01*
X223277619Y-139311904D01*
X223372857Y-139264285D01*
X223420476Y-139264285D01*
X223515714Y-139311904D01*
X223563333Y-139359523D01*
X223610952Y-139454761D01*
X223610952Y-139645238D01*
X223658571Y-139740476D01*
X223706190Y-139788095D01*
X223801428Y-139835714D01*
X223991904Y-139835714D01*
X224087142Y-139788095D01*
X224134761Y-139740476D01*
X224182380Y-139645238D01*
X224182380Y-139454761D01*
X224134761Y-139359523D01*
X224087142Y-139311904D01*
X223991904Y-139264285D01*
X223801428Y-139264285D01*
X223706190Y-139311904D01*
X223658571Y-139359523D01*
X223610952Y-139454761D01*
X224502380Y-144121904D02*
X223502380Y-144121904D01*
X224502380Y-143550476D02*
X223930952Y-143979047D01*
X223502380Y-143550476D02*
X224073809Y-144121904D01*
X94941159Y-87937632D02*
X93963011Y-87729721D01*
X94012514Y-87496828D01*
X94088794Y-87366994D01*
X94201752Y-87293638D01*
X94304809Y-87266861D01*
X94501024Y-87259884D01*
X94640759Y-87289586D01*
X94817172Y-87375767D01*
X94900429Y-87442146D01*
X94973785Y-87555104D01*
X94990661Y-87704740D01*
X94941159Y-87937632D01*
X95257976Y-86447122D02*
X95139170Y-87006063D01*
X95198573Y-86726593D02*
X94220426Y-86518681D01*
X94340360Y-86641539D01*
X94413716Y-86754497D01*
X94440493Y-86857555D01*
X94349133Y-85913161D02*
X94477840Y-85307641D01*
X94781164Y-85712895D01*
X94810865Y-85573159D01*
X94877245Y-85489903D01*
X94933724Y-85453225D01*
X95036781Y-85426448D01*
X95269674Y-85475950D01*
X95352930Y-85542330D01*
X95389608Y-85598809D01*
X95416385Y-85701867D01*
X95356982Y-85981337D01*
X95290602Y-86064594D01*
X95234123Y-86101272D01*
X94660033Y-90799337D02*
X93681885Y-90591426D01*
X94778839Y-90240396D02*
X94130793Y-90540795D01*
X93800692Y-90032484D02*
X94240827Y-90710232D01*
X72361723Y-102529428D02*
X71383575Y-102321517D01*
X71433078Y-102088624D01*
X71509358Y-101958790D01*
X71622316Y-101885434D01*
X71725373Y-101858657D01*
X71921588Y-101851680D01*
X72061323Y-101881382D01*
X72237736Y-101967563D01*
X72320993Y-102033942D01*
X72394349Y-102146900D01*
X72411225Y-102296536D01*
X72361723Y-102529428D01*
X71674743Y-101409749D02*
X71638065Y-101353270D01*
X71611288Y-101250212D01*
X71660791Y-101017320D01*
X71727170Y-100934064D01*
X71783649Y-100897386D01*
X71886707Y-100870608D01*
X71979864Y-100890409D01*
X72109698Y-100966690D01*
X72549833Y-101644438D01*
X72678540Y-101038918D01*
X72204652Y-100061898D02*
X72856750Y-100200506D01*
X71782522Y-100215586D02*
X72431696Y-100596986D01*
X72560403Y-99991466D01*
X72080597Y-105391133D02*
X71102449Y-105183222D01*
X72199403Y-104832192D02*
X71551357Y-105132591D01*
X71221256Y-104624280D02*
X71661391Y-105302028D01*
X206127521Y-159955356D02*
X205127521Y-159955356D01*
X205127521Y-159717261D01*
X205175141Y-159574403D01*
X205270379Y-159479165D01*
X205365617Y-159431546D01*
X205556093Y-159383927D01*
X205698950Y-159383927D01*
X205889426Y-159431546D01*
X205984664Y-159479165D01*
X206079902Y-159574403D01*
X206127521Y-159717261D01*
X206127521Y-159955356D01*
X205460855Y-158526784D02*
X206127521Y-158526784D01*
X205079902Y-158764880D02*
X205794188Y-159002975D01*
X205794188Y-158383927D01*
X206447521Y-163289165D02*
X205447521Y-163289165D01*
X206447521Y-162717737D02*
X205876093Y-163146308D01*
X205447521Y-162717737D02*
X206018950Y-163289165D01*
X120341159Y-151742432D02*
X119363011Y-151534521D01*
X119412514Y-151301628D01*
X119488794Y-151171794D01*
X119601752Y-151098438D01*
X119704809Y-151071661D01*
X119901024Y-151064684D01*
X120040759Y-151094386D01*
X120217172Y-151180567D01*
X120300429Y-151246946D01*
X120373785Y-151359904D01*
X120390661Y-151509540D01*
X120341159Y-151742432D01*
X119669928Y-150090589D02*
X119570923Y-150556373D01*
X120026807Y-150701957D01*
X119990129Y-150645478D01*
X119963352Y-150542421D01*
X120012854Y-150309528D01*
X120079234Y-150226272D01*
X120135713Y-150189594D01*
X120238770Y-150162817D01*
X120471663Y-150212320D01*
X120554919Y-150278699D01*
X120591597Y-150335178D01*
X120618374Y-150438236D01*
X120568871Y-150671128D01*
X120502492Y-150754384D01*
X120446013Y-150791062D01*
X120855988Y-149320353D02*
X120737181Y-149879294D01*
X120796584Y-149599823D02*
X119818437Y-149391912D01*
X119938371Y-149514770D01*
X120011727Y-149627728D01*
X120038504Y-149730786D01*
X120060033Y-154604137D02*
X119081885Y-154396226D01*
X120178839Y-154045196D02*
X119530793Y-154345595D01*
X119200692Y-153837284D02*
X119640827Y-154515032D01*
X76487470Y-83119312D02*
X75509322Y-82911401D01*
X75558825Y-82678508D01*
X75635105Y-82548674D01*
X75748063Y-82475318D01*
X75851120Y-82448541D01*
X76047335Y-82441564D01*
X76187070Y-82471266D01*
X76363483Y-82557447D01*
X76446740Y-82623826D01*
X76520096Y-82736784D01*
X76536972Y-82886420D01*
X76487470Y-83119312D01*
X76804287Y-81628802D02*
X76685481Y-82187743D01*
X76744884Y-81908273D02*
X75766737Y-81700361D01*
X75886671Y-81823219D01*
X75960027Y-81936177D01*
X75986804Y-82039235D01*
X75998501Y-81068064D02*
X75961823Y-81011585D01*
X75935046Y-80908527D01*
X75984549Y-80675635D01*
X76050928Y-80592378D01*
X76107407Y-80555701D01*
X76210465Y-80528923D01*
X76303622Y-80548724D01*
X76433457Y-80625004D01*
X76873591Y-81302753D01*
X77002299Y-80697233D01*
X76206344Y-85981017D02*
X75228196Y-85773106D01*
X76325150Y-85422076D02*
X75677104Y-85722475D01*
X75347003Y-85214164D02*
X75787138Y-85891912D01*
X64440287Y-139796852D02*
X63462139Y-139588941D01*
X63511642Y-139356048D01*
X63587922Y-139226214D01*
X63700880Y-139152858D01*
X63803937Y-139126081D01*
X64000152Y-139119104D01*
X64139887Y-139148806D01*
X64316300Y-139234987D01*
X64399557Y-139301366D01*
X64472913Y-139414324D01*
X64489789Y-139563960D01*
X64440287Y-139796852D01*
X64085205Y-138260891D02*
X64737303Y-138399499D01*
X63663075Y-138414579D02*
X64312249Y-138795979D01*
X64440956Y-138190459D01*
X64316970Y-137628594D02*
X64250590Y-137711850D01*
X64194111Y-137748528D01*
X64091054Y-137775305D01*
X64044475Y-137765405D01*
X63961219Y-137699025D01*
X63924541Y-137642546D01*
X63897764Y-137539489D01*
X63937366Y-137353175D01*
X64003745Y-137269918D01*
X64060224Y-137233241D01*
X64163282Y-137206463D01*
X64209860Y-137216364D01*
X64293117Y-137282743D01*
X64329795Y-137339222D01*
X64356572Y-137442280D01*
X64316970Y-137628594D01*
X64343747Y-137731651D01*
X64380425Y-137788130D01*
X64463681Y-137854510D01*
X64649995Y-137894112D01*
X64753053Y-137867335D01*
X64809532Y-137830657D01*
X64875911Y-137747400D01*
X64915513Y-137561087D01*
X64888736Y-137458029D01*
X64852058Y-137401550D01*
X64768802Y-137335170D01*
X64582488Y-137295568D01*
X64479430Y-137322346D01*
X64422951Y-137359023D01*
X64356572Y-137442280D01*
X64159161Y-142658557D02*
X63181013Y-142450646D01*
X64277967Y-142099616D02*
X63629921Y-142400015D01*
X63299820Y-141891704D02*
X63739955Y-142569452D01*
X113559359Y-91925432D02*
X112581211Y-91717521D01*
X112630714Y-91484628D01*
X112706994Y-91354794D01*
X112819952Y-91281438D01*
X112923009Y-91254661D01*
X113119224Y-91247684D01*
X113258959Y-91277386D01*
X113435372Y-91363567D01*
X113518629Y-91429946D01*
X113591985Y-91542904D01*
X113608861Y-91692540D01*
X113559359Y-91925432D01*
X113876176Y-90434922D02*
X113757370Y-90993863D01*
X113816773Y-90714393D02*
X112838626Y-90506481D01*
X112958560Y-90629339D01*
X113031916Y-90742297D01*
X113058693Y-90845355D01*
X113402288Y-89457902D02*
X114054386Y-89596510D01*
X112980158Y-89611590D02*
X113629332Y-89992990D01*
X113758039Y-89387470D01*
X113278233Y-94787137D02*
X112300085Y-94579226D01*
X113397039Y-94228196D02*
X112748993Y-94528595D01*
X112418892Y-94020284D02*
X112859027Y-94698032D01*
X90995435Y-106490146D02*
X90017287Y-106282235D01*
X90066790Y-106049342D01*
X90143070Y-105919508D01*
X90256028Y-105846152D01*
X90359085Y-105819375D01*
X90555300Y-105812398D01*
X90695035Y-105842100D01*
X90871448Y-105928281D01*
X90954705Y-105994660D01*
X91028061Y-106107618D01*
X91044937Y-106257254D01*
X90995435Y-106490146D01*
X90308455Y-105370467D02*
X90271777Y-105313988D01*
X90245000Y-105210930D01*
X90294503Y-104978038D01*
X90360882Y-104894782D01*
X90417361Y-104858104D01*
X90520419Y-104831326D01*
X90613576Y-104851127D01*
X90743410Y-104927408D01*
X91183545Y-105605156D01*
X91312252Y-104999636D01*
X90522215Y-103906733D02*
X90423210Y-104372518D01*
X90879094Y-104518102D01*
X90842416Y-104461623D01*
X90815639Y-104358566D01*
X90865141Y-104125673D01*
X90931521Y-104042417D01*
X90988000Y-104005739D01*
X91091057Y-103978962D01*
X91323950Y-104028464D01*
X91407206Y-104094844D01*
X91443884Y-104151323D01*
X91470661Y-104254381D01*
X91421159Y-104487273D01*
X91354779Y-104570529D01*
X91298300Y-104607207D01*
X90714309Y-109351851D02*
X89736161Y-109143940D01*
X90833115Y-108792910D02*
X90185069Y-109093309D01*
X89854968Y-108584998D02*
X90295103Y-109262746D01*
X101722959Y-147627632D02*
X100744811Y-147419721D01*
X100794314Y-147186828D01*
X100870594Y-147056994D01*
X100983552Y-146983638D01*
X101086609Y-146956861D01*
X101282824Y-146949884D01*
X101422559Y-146979586D01*
X101598972Y-147065767D01*
X101682229Y-147132146D01*
X101755585Y-147245104D01*
X101772461Y-147394740D01*
X101722959Y-147627632D01*
X101051728Y-145975789D02*
X100952723Y-146441573D01*
X101408607Y-146587157D01*
X101371929Y-146530678D01*
X101345152Y-146427621D01*
X101394654Y-146194728D01*
X101461034Y-146111472D01*
X101517513Y-146074794D01*
X101620570Y-146048017D01*
X101853463Y-146097520D01*
X101936719Y-146163899D01*
X101973397Y-146220378D01*
X102000174Y-146323436D01*
X101950671Y-146556328D01*
X101884292Y-146639584D01*
X101827813Y-146676262D01*
X101190336Y-145323690D02*
X101210137Y-145230533D01*
X101276517Y-145147277D01*
X101332996Y-145110599D01*
X101436053Y-145083822D01*
X101632268Y-145076845D01*
X101865160Y-145126348D01*
X102041573Y-145212529D01*
X102124830Y-145278908D01*
X102161507Y-145335387D01*
X102188285Y-145438445D01*
X102168484Y-145531602D01*
X102102104Y-145614858D01*
X102045625Y-145651536D01*
X101942568Y-145678313D01*
X101746353Y-145685290D01*
X101513461Y-145635787D01*
X101337048Y-145549606D01*
X101253791Y-145483227D01*
X101217113Y-145426748D01*
X101190336Y-145323690D01*
X101441833Y-150489337D02*
X100463685Y-150281426D01*
X101560639Y-149930396D02*
X100912593Y-150230795D01*
X100582492Y-149722484D02*
X101022627Y-150400232D01*
X150235709Y-145108502D02*
X150443620Y-144130354D01*
X150676513Y-144179857D01*
X150806347Y-144256137D01*
X150879703Y-144369095D01*
X150906480Y-144472152D01*
X150913457Y-144668367D01*
X150883755Y-144808102D01*
X150797574Y-144984515D01*
X150731195Y-145067772D01*
X150618237Y-145141128D01*
X150468601Y-145158004D01*
X150235709Y-145108502D01*
X151887552Y-144437271D02*
X151421768Y-144338266D01*
X151276184Y-144794150D01*
X151332663Y-144757472D01*
X151435720Y-144730695D01*
X151668613Y-144780197D01*
X151751869Y-144846577D01*
X151788547Y-144903056D01*
X151815324Y-145006113D01*
X151765821Y-145239006D01*
X151699442Y-145322262D01*
X151642963Y-145358940D01*
X151539905Y-145385717D01*
X151307013Y-145336214D01*
X151223757Y-145269835D01*
X151187079Y-145213356D01*
X152260180Y-144516476D02*
X152865700Y-144645183D01*
X152460446Y-144948507D01*
X152600182Y-144978208D01*
X152683438Y-145044588D01*
X152720116Y-145101067D01*
X152746893Y-145204124D01*
X152697391Y-145437017D01*
X152631011Y-145520273D01*
X152574532Y-145556951D01*
X152471474Y-145583728D01*
X152192004Y-145524325D01*
X152108747Y-145457945D01*
X152072069Y-145401466D01*
X148074477Y-144051291D02*
X147866566Y-145029439D01*
X147515536Y-143932485D02*
X147815935Y-144580531D01*
X147307624Y-144910632D02*
X147985372Y-144470497D01*
X223782380Y-181988095D02*
X222782380Y-181988095D01*
X222782380Y-181750000D01*
X222830000Y-181607142D01*
X222925238Y-181511904D01*
X223020476Y-181464285D01*
X223210952Y-181416666D01*
X223353809Y-181416666D01*
X223544285Y-181464285D01*
X223639523Y-181511904D01*
X223734761Y-181607142D01*
X223782380Y-181750000D01*
X223782380Y-181988095D01*
X222877619Y-181035714D02*
X222830000Y-180988095D01*
X222782380Y-180892857D01*
X222782380Y-180654761D01*
X222830000Y-180559523D01*
X222877619Y-180511904D01*
X222972857Y-180464285D01*
X223068095Y-180464285D01*
X223210952Y-180511904D01*
X223782380Y-181083333D01*
X223782380Y-180464285D01*
X224102380Y-185321904D02*
X223102380Y-185321904D01*
X224102380Y-184750476D02*
X223530952Y-185179047D01*
X223102380Y-184750476D02*
X223673809Y-185321904D01*
X68401005Y-121163140D02*
X67422857Y-120955229D01*
X67472360Y-120722336D01*
X67548640Y-120592502D01*
X67661598Y-120519146D01*
X67764655Y-120492369D01*
X67960870Y-120485392D01*
X68100605Y-120515094D01*
X68277018Y-120601275D01*
X68360275Y-120667654D01*
X68433631Y-120780612D01*
X68450507Y-120930248D01*
X68401005Y-121163140D01*
X67610968Y-120070238D02*
X67739675Y-119464718D01*
X68042999Y-119869972D01*
X68072700Y-119730236D01*
X68139080Y-119646980D01*
X68195559Y-119610302D01*
X68298616Y-119583525D01*
X68531509Y-119633028D01*
X68614765Y-119699407D01*
X68651443Y-119755886D01*
X68678220Y-119858944D01*
X68618817Y-120138414D01*
X68552437Y-120221671D01*
X68495958Y-120258349D01*
X67917885Y-118626306D02*
X67878283Y-118812620D01*
X67905060Y-118915677D01*
X67941738Y-118972156D01*
X68061672Y-119095015D01*
X68238085Y-119181195D01*
X68610713Y-119260400D01*
X68713771Y-119233623D01*
X68770250Y-119196945D01*
X68836629Y-119113688D01*
X68876231Y-118927375D01*
X68849454Y-118824317D01*
X68812776Y-118767838D01*
X68729520Y-118701458D01*
X68496627Y-118651956D01*
X68393570Y-118678733D01*
X68337091Y-118715411D01*
X68270711Y-118798667D01*
X68231109Y-118984981D01*
X68257887Y-119088039D01*
X68294564Y-119144518D01*
X68377821Y-119210897D01*
X68119879Y-124024845D02*
X67141731Y-123816934D01*
X68238685Y-123465904D02*
X67590639Y-123766303D01*
X67260538Y-123257992D02*
X67700673Y-123935740D01*
X206254521Y-140778356D02*
X205254521Y-140778356D01*
X205254521Y-140540261D01*
X205302141Y-140397403D01*
X205397379Y-140302165D01*
X205492617Y-140254546D01*
X205683093Y-140206927D01*
X205825950Y-140206927D01*
X206016426Y-140254546D01*
X206111664Y-140302165D01*
X206206902Y-140397403D01*
X206254521Y-140540261D01*
X206254521Y-140778356D01*
X205254521Y-139873594D02*
X205254521Y-139206927D01*
X206254521Y-139635499D01*
X206574521Y-144112165D02*
X205574521Y-144112165D01*
X206574521Y-143540737D02*
X206003093Y-143969308D01*
X205574521Y-143540737D02*
X206145950Y-144112165D01*
X146896570Y-118372299D02*
X145918422Y-118164388D01*
X145967925Y-117931495D01*
X146044205Y-117801661D01*
X146157163Y-117728305D01*
X146260220Y-117701528D01*
X146456435Y-117694551D01*
X146596170Y-117724253D01*
X146772583Y-117810434D01*
X146855840Y-117876813D01*
X146929196Y-117989771D01*
X146946072Y-118139407D01*
X146896570Y-118372299D01*
X146209590Y-117252620D02*
X146172912Y-117196141D01*
X146146135Y-117093083D01*
X146195638Y-116860191D01*
X146262017Y-116776935D01*
X146318496Y-116740257D01*
X146421554Y-116713479D01*
X146514711Y-116733280D01*
X146644545Y-116809561D01*
X147084680Y-117487309D01*
X147213387Y-116881789D01*
X146773253Y-116204041D02*
X146706873Y-116287297D01*
X146650394Y-116323975D01*
X146547337Y-116350752D01*
X146500758Y-116340852D01*
X146417502Y-116274472D01*
X146380824Y-116217993D01*
X146354047Y-116114936D01*
X146393649Y-115928622D01*
X146460028Y-115845365D01*
X146516507Y-115808688D01*
X146619565Y-115781910D01*
X146666143Y-115791811D01*
X146749400Y-115858190D01*
X146786078Y-115914669D01*
X146812855Y-116017727D01*
X146773253Y-116204041D01*
X146800030Y-116307098D01*
X146836708Y-116363577D01*
X146919964Y-116429957D01*
X147106278Y-116469559D01*
X147209336Y-116442782D01*
X147265815Y-116406104D01*
X147332194Y-116322847D01*
X147371796Y-116136534D01*
X147345019Y-116033476D01*
X147308341Y-115976997D01*
X147225085Y-115910617D01*
X147038771Y-115871015D01*
X146935713Y-115897793D01*
X146879234Y-115934470D01*
X146812855Y-116017727D01*
X146615444Y-121234004D02*
X145637296Y-121026093D01*
X146734250Y-120675063D02*
X146086204Y-120975462D01*
X145756103Y-120467151D02*
X146196238Y-121144899D01*
X151022318Y-98962182D02*
X150044170Y-98754271D01*
X150093673Y-98521378D01*
X150169953Y-98391544D01*
X150282911Y-98318188D01*
X150385968Y-98291411D01*
X150582183Y-98284434D01*
X150721918Y-98314136D01*
X150898331Y-98400317D01*
X150981588Y-98466696D01*
X151054944Y-98579654D01*
X151071820Y-98729290D01*
X151022318Y-98962182D01*
X151339135Y-97471672D02*
X151220329Y-98030613D01*
X151279732Y-97751143D02*
X150301585Y-97543231D01*
X150421519Y-97666089D01*
X150494875Y-97779047D01*
X150521652Y-97882105D01*
X150539198Y-96425348D02*
X150499596Y-96611662D01*
X150526373Y-96714719D01*
X150563051Y-96771198D01*
X150682985Y-96894057D01*
X150859398Y-96980237D01*
X151232026Y-97059442D01*
X151335084Y-97032665D01*
X151391563Y-96995987D01*
X151457942Y-96912730D01*
X151497544Y-96726417D01*
X151470767Y-96623359D01*
X151434089Y-96566880D01*
X151350833Y-96500500D01*
X151117940Y-96450998D01*
X151014883Y-96477775D01*
X150958404Y-96514453D01*
X150892024Y-96597709D01*
X150852422Y-96784023D01*
X150879200Y-96887081D01*
X150915877Y-96943560D01*
X150999134Y-97009939D01*
X150741192Y-101823887D02*
X149763044Y-101615976D01*
X150859998Y-101264946D02*
X150211952Y-101565345D01*
X149881851Y-101057034D02*
X150321986Y-101734782D01*
X124302140Y-133045293D02*
X123323992Y-132837382D01*
X123373495Y-132604489D01*
X123449775Y-132474655D01*
X123562733Y-132401299D01*
X123665790Y-132374522D01*
X123862005Y-132367545D01*
X124001740Y-132397247D01*
X124178153Y-132483428D01*
X124261410Y-132549807D01*
X124334766Y-132662765D01*
X124351642Y-132812401D01*
X124302140Y-133045293D01*
X123512103Y-131952391D02*
X123640810Y-131346871D01*
X123944134Y-131752125D01*
X123973835Y-131612389D01*
X124040215Y-131529133D01*
X124096694Y-131492455D01*
X124199751Y-131465678D01*
X124432644Y-131515181D01*
X124515900Y-131581560D01*
X124552578Y-131638039D01*
X124579355Y-131741097D01*
X124519952Y-132020567D01*
X124453572Y-132103824D01*
X124397093Y-132140502D01*
X124717963Y-131088998D02*
X124757565Y-130902684D01*
X124730788Y-130799627D01*
X124694110Y-130743148D01*
X124574176Y-130620289D01*
X124397762Y-130534109D01*
X124025135Y-130454904D01*
X123922077Y-130481682D01*
X123865598Y-130518359D01*
X123799219Y-130601616D01*
X123759617Y-130787930D01*
X123786394Y-130890987D01*
X123823072Y-130947466D01*
X123906328Y-131013846D01*
X124139220Y-131063348D01*
X124242278Y-131036571D01*
X124298757Y-130999893D01*
X124365136Y-130916637D01*
X124404739Y-130730323D01*
X124377961Y-130627266D01*
X124341283Y-130570787D01*
X124258027Y-130504407D01*
X124021014Y-135906998D02*
X123042866Y-135699087D01*
X124139820Y-135348057D02*
X123491774Y-135648456D01*
X123161673Y-135140145D02*
X123601808Y-135817893D01*
X109629146Y-110450863D02*
X108650998Y-110242952D01*
X108700501Y-110010059D01*
X108776781Y-109880225D01*
X108889739Y-109806869D01*
X108992796Y-109780092D01*
X109189011Y-109773115D01*
X109328746Y-109802817D01*
X109505159Y-109888998D01*
X109588416Y-109955377D01*
X109661772Y-110068335D01*
X109678648Y-110217971D01*
X109629146Y-110450863D01*
X108942166Y-109331184D02*
X108905488Y-109274705D01*
X108878711Y-109171647D01*
X108928214Y-108938755D01*
X108994593Y-108855499D01*
X109051072Y-108818821D01*
X109154130Y-108792043D01*
X109247287Y-108811844D01*
X109377121Y-108888125D01*
X109817256Y-109565873D01*
X109945963Y-108960353D01*
X109146026Y-107914029D02*
X109106424Y-108100343D01*
X109133201Y-108203400D01*
X109169879Y-108259879D01*
X109289813Y-108382738D01*
X109466226Y-108468918D01*
X109838854Y-108548123D01*
X109941912Y-108521346D01*
X109998391Y-108484668D01*
X110064770Y-108401411D01*
X110104372Y-108215098D01*
X110077595Y-108112040D01*
X110040917Y-108055561D01*
X109957661Y-107989181D01*
X109724768Y-107939679D01*
X109621711Y-107966456D01*
X109565232Y-108003134D01*
X109498852Y-108086390D01*
X109459250Y-108272704D01*
X109486028Y-108375762D01*
X109522705Y-108432241D01*
X109605962Y-108498620D01*
X109348020Y-113312568D02*
X108369872Y-113104657D01*
X109466826Y-112753627D02*
X108818780Y-113054026D01*
X108488679Y-112545715D02*
X108928814Y-113223463D01*
X187204521Y-140778356D02*
X186204521Y-140778356D01*
X186204521Y-140540261D01*
X186252141Y-140397403D01*
X186347379Y-140302165D01*
X186442617Y-140254546D01*
X186633093Y-140206927D01*
X186775950Y-140206927D01*
X186966426Y-140254546D01*
X187061664Y-140302165D01*
X187156902Y-140397403D01*
X187204521Y-140540261D01*
X187204521Y-140778356D01*
X186204521Y-139349784D02*
X186204521Y-139540261D01*
X186252141Y-139635499D01*
X186299760Y-139683118D01*
X186442617Y-139778356D01*
X186633093Y-139825975D01*
X187014045Y-139825975D01*
X187109283Y-139778356D01*
X187156902Y-139730737D01*
X187204521Y-139635499D01*
X187204521Y-139445022D01*
X187156902Y-139349784D01*
X187109283Y-139302165D01*
X187014045Y-139254546D01*
X186775950Y-139254546D01*
X186680712Y-139302165D01*
X186633093Y-139349784D01*
X186585474Y-139445022D01*
X186585474Y-139635499D01*
X186633093Y-139730737D01*
X186680712Y-139778356D01*
X186775950Y-139825975D01*
X187524521Y-144112165D02*
X186524521Y-144112165D01*
X187524521Y-143540737D02*
X186953093Y-143969308D01*
X186524521Y-143540737D02*
X187095950Y-144112165D01*
X187077521Y-179291106D02*
X186077521Y-179291106D01*
X186077521Y-179053011D01*
X186125141Y-178910153D01*
X186220379Y-178814915D01*
X186315617Y-178767296D01*
X186506093Y-178719677D01*
X186648950Y-178719677D01*
X186839426Y-178767296D01*
X186934664Y-178814915D01*
X187029902Y-178910153D01*
X187077521Y-179053011D01*
X187077521Y-179291106D01*
X186077521Y-178100630D02*
X186077521Y-178005391D01*
X186125141Y-177910153D01*
X186172760Y-177862534D01*
X186267998Y-177814915D01*
X186458474Y-177767296D01*
X186696569Y-177767296D01*
X186887045Y-177814915D01*
X186982283Y-177862534D01*
X187029902Y-177910153D01*
X187077521Y-178005391D01*
X187077521Y-178100630D01*
X187029902Y-178195868D01*
X186982283Y-178243487D01*
X186887045Y-178291106D01*
X186696569Y-178338725D01*
X186458474Y-178338725D01*
X186267998Y-178291106D01*
X186172760Y-178243487D01*
X186125141Y-178195868D01*
X186077521Y-178100630D01*
X187397521Y-182624915D02*
X186397521Y-182624915D01*
X187397521Y-182053487D02*
X186826093Y-182482058D01*
X186397521Y-182053487D02*
X186968950Y-182624915D01*
X223982380Y-122814285D02*
X222982380Y-122814285D01*
X222982380Y-122576190D01*
X223030000Y-122433333D01*
X223125238Y-122338095D01*
X223220476Y-122290476D01*
X223410952Y-122242857D01*
X223553809Y-122242857D01*
X223744285Y-122290476D01*
X223839523Y-122338095D01*
X223934761Y-122433333D01*
X223982380Y-122576190D01*
X223982380Y-122814285D01*
X223982380Y-121290476D02*
X223982380Y-121861904D01*
X223982380Y-121576190D02*
X222982380Y-121576190D01*
X223125238Y-121671428D01*
X223220476Y-121766666D01*
X223268095Y-121861904D01*
X223982380Y-120338095D02*
X223982380Y-120909523D01*
X223982380Y-120623809D02*
X222982380Y-120623809D01*
X223125238Y-120719047D01*
X223220476Y-120814285D01*
X223268095Y-120909523D01*
X224302380Y-125671904D02*
X223302380Y-125671904D01*
X224302380Y-125100476D02*
X223730952Y-125529047D01*
X223302380Y-125100476D02*
X223873809Y-125671904D01*
X128262858Y-114411581D02*
X127284710Y-114203670D01*
X127334213Y-113970777D01*
X127410493Y-113840943D01*
X127523451Y-113767587D01*
X127626508Y-113740810D01*
X127822723Y-113733833D01*
X127962458Y-113763535D01*
X128138871Y-113849716D01*
X128222128Y-113916095D01*
X128295484Y-114029053D01*
X128312360Y-114178689D01*
X128262858Y-114411581D01*
X127575878Y-113291902D02*
X127539200Y-113235423D01*
X127512423Y-113132365D01*
X127561926Y-112899473D01*
X127628305Y-112816217D01*
X127684784Y-112779539D01*
X127787842Y-112752761D01*
X127880999Y-112772562D01*
X128010833Y-112848843D01*
X128450968Y-113526591D01*
X128579675Y-112921071D01*
X127670832Y-112387110D02*
X127809440Y-111735012D01*
X128698482Y-112362129D01*
X127981732Y-117273286D02*
X127003584Y-117065375D01*
X128100538Y-116714345D02*
X127452492Y-117014744D01*
X127122391Y-116506433D02*
X127562526Y-117184181D01*
X105668429Y-129084575D02*
X104690281Y-128876664D01*
X104739784Y-128643771D01*
X104816064Y-128513937D01*
X104929022Y-128440581D01*
X105032079Y-128413804D01*
X105228294Y-128406827D01*
X105368029Y-128436529D01*
X105544442Y-128522710D01*
X105627699Y-128589089D01*
X105701055Y-128702047D01*
X105717931Y-128851683D01*
X105668429Y-129084575D01*
X104878392Y-127991673D02*
X105007099Y-127386153D01*
X105310423Y-127791407D01*
X105340124Y-127651671D01*
X105406504Y-127568415D01*
X105462983Y-127531737D01*
X105566040Y-127504960D01*
X105798933Y-127554463D01*
X105882189Y-127620842D01*
X105918867Y-127677321D01*
X105945644Y-127780379D01*
X105886241Y-128059849D01*
X105819861Y-128143106D01*
X105763382Y-128179784D01*
X105545112Y-126916317D02*
X105478732Y-126999573D01*
X105422253Y-127036251D01*
X105319196Y-127063028D01*
X105272617Y-127053128D01*
X105189361Y-126986748D01*
X105152683Y-126930269D01*
X105125906Y-126827212D01*
X105165508Y-126640898D01*
X105231887Y-126557641D01*
X105288366Y-126520964D01*
X105391424Y-126494186D01*
X105438002Y-126504087D01*
X105521259Y-126570466D01*
X105557937Y-126626945D01*
X105584714Y-126730003D01*
X105545112Y-126916317D01*
X105571889Y-127019374D01*
X105608567Y-127075853D01*
X105691823Y-127142233D01*
X105878137Y-127181835D01*
X105981195Y-127155058D01*
X106037674Y-127118380D01*
X106104053Y-127035123D01*
X106143655Y-126848810D01*
X106116878Y-126745752D01*
X106080200Y-126689273D01*
X105996944Y-126622893D01*
X105810630Y-126583291D01*
X105707572Y-126610069D01*
X105651093Y-126646746D01*
X105584714Y-126730003D01*
X105387303Y-131946280D02*
X104409155Y-131738369D01*
X105506109Y-131387339D02*
X104858063Y-131687738D01*
X104527962Y-131179427D02*
X104968097Y-131857175D01*
X158158967Y-107866359D02*
X158366878Y-106888211D01*
X158599771Y-106937714D01*
X158729605Y-107013994D01*
X158802961Y-107126952D01*
X158829738Y-107230009D01*
X158836715Y-107426224D01*
X158807013Y-107565959D01*
X158720832Y-107742372D01*
X158654453Y-107825629D01*
X158541495Y-107898985D01*
X158391859Y-107915861D01*
X158158967Y-107866359D01*
X159649477Y-108183176D02*
X159090536Y-108064370D01*
X159370006Y-108123773D02*
X159577918Y-107145626D01*
X159455060Y-107265560D01*
X159342102Y-107338916D01*
X159239044Y-107365693D01*
X160183438Y-107274333D02*
X160835536Y-107412941D01*
X160208419Y-108301983D01*
X155997735Y-106809148D02*
X155789824Y-107787296D01*
X155438794Y-106690342D02*
X155739193Y-107338388D01*
X155230882Y-107668489D02*
X155908630Y-107228354D01*
D12*
X146206534Y-106045248D02*
X142059189Y-105163702D01*
X141593466Y-107354753D02*
X145740812Y-108236299D01*
X145740812Y-108236299D02*
X146206534Y-106045248D01*
X142059189Y-105163702D02*
X141593466Y-107354753D01*
X142880833Y-105338348D02*
X142415110Y-107529399D01*
X146609469Y-107275916D02*
X145973673Y-107140773D01*
X141190532Y-106124085D02*
X141826327Y-106259228D01*
X142763455Y-105313399D02*
X142297733Y-107504449D01*
X142646077Y-105288449D02*
X142180355Y-107479500D01*
D13*
X193878200Y-110481011D02*
X189560200Y-110481011D01*
X189560200Y-81779011D02*
X189560200Y-77461011D01*
X193878200Y-77461011D02*
X189560200Y-77461011D01*
X207340200Y-81780011D02*
X207340200Y-77462011D01*
X189560200Y-106163011D02*
X189560200Y-110481011D01*
X207340200Y-106163011D02*
X207340200Y-110481011D01*
X203022200Y-110481011D02*
X207340200Y-110481011D01*
X203022200Y-77462011D02*
X207340200Y-77462011D01*
G36*
X203381768Y-85980371D02*
G01*
X202881768Y-85980371D01*
X202881768Y-85880371D01*
X203381768Y-85880371D01*
X203381768Y-85980371D01*
G37*
D11*
X203381768Y-85980371D02*
X202881768Y-85980371D01*
X202881768Y-85880371D01*
X203381768Y-85880371D01*
X203381768Y-85980371D01*
G36*
X203381768Y-86680371D02*
G01*
X203281768Y-86680371D01*
X203281768Y-86480371D01*
X203381768Y-86480371D01*
X203381768Y-86680371D01*
G37*
X203381768Y-86680371D02*
X203281768Y-86680371D01*
X203281768Y-86480371D01*
X203381768Y-86480371D01*
X203381768Y-86680371D01*
G36*
X202981768Y-86680371D02*
G01*
X202881768Y-86680371D01*
X202881768Y-85880371D01*
X202981768Y-85880371D01*
X202981768Y-86680371D01*
G37*
X202981768Y-86680371D02*
X202881768Y-86680371D01*
X202881768Y-85880371D01*
X202981768Y-85880371D01*
X202981768Y-86680371D01*
G36*
X203381768Y-86180371D02*
G01*
X203281768Y-86180371D01*
X203281768Y-85880371D01*
X203381768Y-85880371D01*
X203381768Y-86180371D01*
G37*
X203381768Y-86180371D02*
X203281768Y-86180371D01*
X203281768Y-85880371D01*
X203381768Y-85880371D01*
X203381768Y-86180371D01*
G36*
X203181768Y-86380371D02*
G01*
X203081768Y-86380371D01*
X203081768Y-86280371D01*
X203181768Y-86280371D01*
X203181768Y-86380371D01*
G37*
X203181768Y-86380371D02*
X203081768Y-86380371D01*
X203081768Y-86280371D01*
X203181768Y-86280371D01*
X203181768Y-86380371D01*
D12*
X269658674Y-134370181D02*
X271849725Y-133904458D01*
X271849725Y-133904458D02*
X270968179Y-129757113D01*
X270889342Y-134773115D02*
X270754199Y-134137320D01*
X269484028Y-133548537D02*
X271675079Y-133082814D01*
X269737511Y-129354178D02*
X269872654Y-129989974D01*
X270968179Y-129757113D02*
X268777128Y-130222835D01*
X269533927Y-133783292D02*
X271724978Y-133317570D01*
X268777128Y-130222835D02*
X269658674Y-134370181D01*
X269508978Y-133665914D02*
X271700028Y-133200192D01*
X255064517Y-151948607D02*
X255199660Y-152584403D01*
X254860933Y-156377721D02*
X257051984Y-155911999D01*
X254835984Y-156260343D02*
X257027034Y-155794621D01*
X256295185Y-152351542D02*
X254104134Y-152817264D01*
X257176731Y-156498887D02*
X256295185Y-152351542D01*
X256216348Y-157367544D02*
X256081205Y-156731749D01*
X254104134Y-152817264D02*
X254985680Y-156964610D01*
X254985680Y-156964610D02*
X257176731Y-156498887D01*
X254811034Y-156142966D02*
X257002085Y-155677243D01*
X312117483Y-145485391D02*
X311982340Y-144849596D01*
X310886815Y-145082457D02*
X313077866Y-144616734D01*
X313077866Y-144616734D02*
X312196320Y-140469389D01*
X310005269Y-140935111D02*
X310886815Y-145082457D01*
X310762068Y-144495568D02*
X312953119Y-144029846D01*
X312196320Y-140469389D02*
X310005269Y-140935111D01*
X310737119Y-144378190D02*
X312928169Y-143912468D01*
X310712169Y-144260813D02*
X312903220Y-143795090D01*
X310965652Y-140066454D02*
X311100795Y-140702250D01*
X275810442Y-152538170D02*
X274928896Y-148390825D01*
X272737845Y-148856547D02*
X273619391Y-153003893D01*
X273494644Y-152417004D02*
X275685695Y-151951282D01*
X273469695Y-152299626D02*
X275660745Y-151833904D01*
X273619391Y-153003893D02*
X275810442Y-152538170D01*
X273444745Y-152182249D02*
X275635796Y-151716526D01*
X273698228Y-147987890D02*
X273833371Y-148623686D01*
X274928896Y-148390825D02*
X272737845Y-148856547D01*
X274850059Y-153406827D02*
X274714916Y-152771032D01*
X335250481Y-126853622D02*
X335716204Y-129044673D01*
X339444840Y-127107105D02*
X338809044Y-127242248D01*
X338576183Y-126146722D02*
X334428837Y-127028268D01*
X339041905Y-128337773D02*
X338576183Y-126146722D01*
X334428837Y-127028268D02*
X334894560Y-129219319D01*
X334025903Y-128258936D02*
X334661698Y-128123793D01*
X335133104Y-126878572D02*
X335598826Y-129069622D01*
X335015726Y-126903521D02*
X335481448Y-129094572D01*
X334894560Y-129219319D02*
X339041905Y-128337773D01*
X284331668Y-111775751D02*
X286522719Y-111310028D01*
X284181972Y-111071484D02*
X286373022Y-110605762D01*
X283450122Y-107628405D02*
X284331668Y-111775751D01*
X284206921Y-111188862D02*
X286397972Y-110723140D01*
X286522719Y-111310028D02*
X285641173Y-107162683D01*
X284157022Y-110954107D02*
X286348073Y-110488384D01*
X284410505Y-106759748D02*
X284545648Y-107395544D01*
X285641173Y-107162683D02*
X283450122Y-107628405D01*
X285562336Y-112178685D02*
X285427193Y-111542890D01*
X334615465Y-107513010D02*
X330468119Y-108394556D01*
X335484122Y-108473393D02*
X334848326Y-108608536D01*
X330065185Y-109625224D02*
X330700980Y-109490081D01*
X331172386Y-108244860D02*
X331638108Y-110435910D01*
X331289763Y-108219910D02*
X331755486Y-110410961D01*
X335081187Y-109704061D02*
X334615465Y-107513010D01*
X330468119Y-108394556D02*
X330933842Y-110585607D01*
X330933842Y-110585607D02*
X335081187Y-109704061D01*
X331055008Y-108269809D02*
X331520730Y-110460860D01*
X321677928Y-98838313D02*
X321813071Y-99474109D01*
X321424445Y-103032672D02*
X323615496Y-102566949D01*
X322829759Y-104257250D02*
X322694616Y-103621455D01*
X322908596Y-99241248D02*
X320717545Y-99706970D01*
X321474344Y-103267427D02*
X323665395Y-102801705D01*
X323790142Y-103388593D02*
X322908596Y-99241248D01*
X320717545Y-99706970D02*
X321599091Y-103854316D01*
X321599091Y-103854316D02*
X323790142Y-103388593D01*
X321449395Y-103150049D02*
X323640445Y-102684327D01*
X326625447Y-122114557D02*
X326490304Y-121478762D01*
X325394779Y-121711623D02*
X327585830Y-121245900D01*
X327585830Y-121245900D02*
X326704284Y-117098555D01*
X325270032Y-121124734D02*
X327461083Y-120659012D01*
X326704284Y-117098555D02*
X324513233Y-117564277D01*
X325473616Y-116695620D02*
X325608759Y-117331416D01*
X324513233Y-117564277D02*
X325394779Y-121711623D01*
X325220133Y-120889979D02*
X327411184Y-120424256D01*
X325245083Y-121007356D02*
X327436133Y-120541634D01*
X315792007Y-129496521D02*
X316257729Y-131687571D01*
X315674629Y-129521470D02*
X316140351Y-131712521D01*
X319235086Y-128764671D02*
X315087740Y-129646217D01*
X320103743Y-129725054D02*
X319467947Y-129860197D01*
X315553463Y-131837268D02*
X319700808Y-130955722D01*
X315087740Y-129646217D02*
X315553463Y-131837268D01*
X315909384Y-129471571D02*
X316375107Y-131662622D01*
X319700808Y-130955722D02*
X319235086Y-128764671D01*
X314684806Y-130876885D02*
X315320601Y-130741742D01*
X267007461Y-111123401D02*
X264816410Y-111589123D01*
X264816410Y-111589123D02*
X265697956Y-115736469D01*
X265573209Y-115149580D02*
X267764260Y-114683858D01*
X265697956Y-115736469D02*
X267889007Y-115270746D01*
X265523310Y-114914825D02*
X267714361Y-114449102D01*
X265548260Y-115032202D02*
X267739310Y-114566480D01*
X265776793Y-110720466D02*
X265911936Y-111356262D01*
X267889007Y-115270746D02*
X267007461Y-111123401D01*
X266928624Y-116139403D02*
X266793481Y-115503608D01*
X262802876Y-96729287D02*
X262667733Y-96093492D01*
X261572208Y-96326353D02*
X263763259Y-95860630D01*
X263763259Y-95860630D02*
X262881713Y-91713285D01*
X261447461Y-95739464D02*
X263638512Y-95273742D01*
X261397562Y-95504709D02*
X263588613Y-95038986D01*
X261422512Y-95622086D02*
X263613562Y-95156364D01*
X262881713Y-91713285D02*
X260690662Y-92179007D01*
X261651045Y-91310350D02*
X261786188Y-91946146D01*
X260690662Y-92179007D02*
X261572208Y-96326353D01*
X244169164Y-100690004D02*
X244034021Y-100054209D01*
X243017333Y-95271067D02*
X243152476Y-95906863D01*
X242056950Y-96139724D02*
X242938496Y-100287070D01*
X242763850Y-99465426D02*
X244954901Y-98999703D01*
X242938496Y-100287070D02*
X245129547Y-99821347D01*
X244248001Y-95674002D02*
X242056950Y-96139724D01*
X242813749Y-99700181D02*
X245004800Y-99234459D01*
X245129547Y-99821347D02*
X244248001Y-95674002D01*
X242788800Y-99582803D02*
X244979850Y-99117081D01*
X252255630Y-138733833D02*
X252120487Y-138098038D01*
X251024962Y-138330899D02*
X253216013Y-137865176D01*
X250850316Y-137509255D02*
X253041367Y-137043532D01*
X253216013Y-137865176D02*
X252334467Y-133717831D01*
X250875266Y-137626632D02*
X253066316Y-137160910D01*
X250143416Y-134183553D02*
X251024962Y-138330899D01*
X250900215Y-137744010D02*
X253091266Y-137278288D01*
X252334467Y-133717831D02*
X250143416Y-134183553D01*
X251103799Y-133314896D02*
X251238942Y-133950692D01*
X288292385Y-130409463D02*
X290483436Y-129943740D01*
X287410839Y-126262117D02*
X288292385Y-130409463D01*
X289601890Y-125796395D02*
X287410839Y-126262117D01*
X289523053Y-130812397D02*
X289387910Y-130176602D01*
X288142689Y-129705196D02*
X290333739Y-129239474D01*
X288371222Y-125393460D02*
X288506365Y-126029256D01*
X288167638Y-129822574D02*
X290358689Y-129356852D01*
X290483436Y-129943740D02*
X289601890Y-125796395D01*
X288117739Y-129587819D02*
X290308790Y-129122096D01*
X300149137Y-83791849D02*
X297958086Y-84257571D01*
X298839632Y-88404917D02*
X301030683Y-87939194D01*
X298664986Y-87583273D02*
X300856037Y-87117550D01*
X300070300Y-88807851D02*
X299935157Y-88172056D01*
X298689936Y-87700650D02*
X300880986Y-87234928D01*
X301030683Y-87939194D02*
X300149137Y-83791849D01*
X298714885Y-87818028D02*
X300905936Y-87352306D01*
X298918469Y-83388914D02*
X299053612Y-84024710D01*
X297958086Y-84257571D02*
X298839632Y-88404917D01*
X316591798Y-80296854D02*
X317473344Y-84444200D01*
X317473344Y-84444200D02*
X319664395Y-83978477D01*
X317323648Y-83739933D02*
X319514698Y-83274211D01*
X318704012Y-84847134D02*
X318568869Y-84211339D01*
X318782849Y-79831132D02*
X316591798Y-80296854D01*
X317348597Y-83857311D02*
X319539648Y-83391589D01*
X317552181Y-79428197D02*
X317687324Y-80063993D01*
X317298698Y-83622556D02*
X319489749Y-83156833D01*
X319664395Y-83978477D02*
X318782849Y-79831132D01*
X292128356Y-148456286D02*
X294319407Y-147990564D01*
X294444154Y-148577452D02*
X293562608Y-144430107D01*
X292253103Y-149043175D02*
X294444154Y-148577452D01*
X292103407Y-148338908D02*
X294294457Y-147873186D01*
X292331940Y-144027172D02*
X292467083Y-144662968D01*
X292078457Y-148221531D02*
X294269508Y-147755808D01*
X291371557Y-144895829D02*
X292253103Y-149043175D01*
X293562608Y-144430107D02*
X291371557Y-144895829D01*
X293483771Y-149446109D02*
X293348628Y-148810314D01*
X306776401Y-125744479D02*
X308967451Y-125278757D01*
X306751451Y-125627102D02*
X308942502Y-125161379D01*
X308235602Y-121835678D02*
X306044551Y-122301400D01*
X307004934Y-121432743D02*
X307140077Y-122068539D01*
X306801350Y-125861857D02*
X308992401Y-125396135D01*
X308156765Y-126851680D02*
X308021622Y-126215885D01*
X306926097Y-126448746D02*
X309117148Y-125983023D01*
X306044551Y-122301400D02*
X306926097Y-126448746D01*
X309117148Y-125983023D02*
X308235602Y-121835678D01*
X302790733Y-106993390D02*
X304981784Y-106527667D01*
X302965379Y-107815034D02*
X305156430Y-107349311D01*
X304196047Y-108217968D02*
X304060904Y-107582173D01*
X302815683Y-107110767D02*
X305006733Y-106645045D01*
X302840632Y-107228145D02*
X305031683Y-106762423D01*
X305156430Y-107349311D02*
X304274884Y-103201966D01*
X303044216Y-102799031D02*
X303179359Y-103434827D01*
X302083833Y-103667688D02*
X302965379Y-107815034D01*
X304274884Y-103201966D02*
X302083833Y-103667688D01*
X328638981Y-136974394D02*
X329520527Y-141121740D01*
X329345881Y-140300096D02*
X331536932Y-139834373D01*
X329395780Y-140534851D02*
X331586831Y-140069129D01*
X329520527Y-141121740D02*
X331711578Y-140656017D01*
X329599364Y-136105737D02*
X329734507Y-136741533D01*
X330751195Y-141524674D02*
X330616052Y-140888879D01*
X330830032Y-136508672D02*
X328638981Y-136974394D01*
X331711578Y-140656017D02*
X330830032Y-136508672D01*
X329370831Y-140417473D02*
X331561881Y-139951751D01*
X330996395Y-91005836D02*
X330530673Y-88814785D01*
X326970216Y-89571584D02*
X327435938Y-91762635D01*
X326383327Y-89696331D02*
X326849050Y-91887382D01*
X326849050Y-91887382D02*
X330996395Y-91005836D01*
X327087594Y-89546635D02*
X327553316Y-91737685D01*
X327204971Y-89521685D02*
X327670694Y-91712736D01*
X325980393Y-90926999D02*
X326616188Y-90791856D01*
X330530673Y-88814785D02*
X326383327Y-89696331D01*
X331399330Y-89775168D02*
X330763534Y-89910311D01*
X247143081Y-114681184D02*
X247278224Y-115316980D01*
X246939497Y-119110298D02*
X249130548Y-118644576D01*
X246889598Y-118875543D02*
X249080649Y-118409820D01*
X248294912Y-120100121D02*
X248159769Y-119464326D01*
X246182698Y-115549841D02*
X247064244Y-119697187D01*
X249255295Y-119231464D02*
X248373749Y-115084119D01*
X246914548Y-118992920D02*
X249105598Y-118527198D01*
X248373749Y-115084119D02*
X246182698Y-115549841D01*
X247064244Y-119697187D02*
X249255295Y-119231464D01*
X279324374Y-88218289D02*
X280205920Y-92365635D01*
X281436588Y-92768569D02*
X281301445Y-92132774D01*
X280056224Y-91661368D02*
X282247274Y-91195646D01*
X280081173Y-91778746D02*
X282272224Y-91313024D01*
X281515425Y-87752567D02*
X279324374Y-88218289D01*
X280284757Y-87349632D02*
X280419900Y-87985428D01*
X280031274Y-91543991D02*
X282222325Y-91078268D01*
X282396971Y-91899912D02*
X281515425Y-87752567D01*
X280205920Y-92365635D02*
X282396971Y-91899912D01*
G36*
X227685845Y-179048006D02*
G01*
X227685845Y-178835402D01*
X231087519Y-178835402D01*
X231087519Y-179048006D01*
X231400173Y-179048006D01*
X231400173Y-182312113D01*
X231712827Y-182312113D01*
X231712827Y-182687297D01*
X232363147Y-182687297D01*
X232363147Y-183062482D01*
X232888405Y-183062482D01*
X232888405Y-183437667D01*
X233563737Y-183437667D01*
X233563737Y-183062482D01*
X233938922Y-183062482D01*
X233938922Y-182687297D01*
X234414156Y-182687297D01*
X234414156Y-182311343D01*
X234567356Y-182314854D01*
X234720557Y-182318366D01*
X234726965Y-184238060D01*
X234464181Y-184238060D01*
X234464181Y-184613245D01*
X234088996Y-184613245D01*
X234088996Y-184988430D01*
X233763836Y-184988430D01*
X233763836Y-185413639D01*
X233338627Y-185413639D01*
X233338627Y-185776317D01*
X232888405Y-185776317D01*
X232888405Y-186200789D01*
X232888075Y-186308129D01*
X232887131Y-186404322D01*
X232885638Y-186486869D01*
X232883663Y-186553272D01*
X232881273Y-186601030D01*
X232878534Y-186627647D01*
X232876908Y-186632365D01*
X232861909Y-186633900D01*
X232825141Y-186634756D01*
X232769841Y-186634945D01*
X232699244Y-186634477D01*
X232616585Y-186633364D01*
X232525099Y-186631616D01*
X232501724Y-186631093D01*
X232138036Y-186622716D01*
X232138036Y-186351601D01*
X232613270Y-186351601D01*
X232613270Y-186113984D01*
X232062999Y-186113984D01*
X232062999Y-185738093D01*
X231891039Y-185741573D01*
X231719080Y-185745052D01*
X231712158Y-186113984D01*
X231500222Y-186113984D01*
X231500222Y-187364599D01*
X230749853Y-187364599D01*
X230749853Y-187089464D01*
X231225087Y-187089464D01*
X231225087Y-185376120D01*
X230762359Y-185376120D01*
X230762359Y-185000936D01*
X230362162Y-185000936D01*
X230362162Y-184225554D01*
X230037002Y-184225554D01*
X230037002Y-183462679D01*
X229549949Y-183462679D01*
X229546479Y-183640892D01*
X229543009Y-183819104D01*
X229377302Y-183822594D01*
X229211596Y-183826083D01*
X229211596Y-183037470D01*
X230037002Y-183037470D01*
X230037002Y-182074496D01*
X228385585Y-182074496D01*
X228389014Y-181865018D01*
X228392442Y-181655539D01*
X229033383Y-181652299D01*
X229674323Y-181649059D01*
X229674323Y-181136534D01*
X227373191Y-181136534D01*
X227373191Y-179786505D01*
X230299631Y-179786505D01*
X230496603Y-179783060D01*
X230693575Y-179779616D01*
X230700463Y-179385672D01*
X230299631Y-179385672D01*
X230299631Y-179786505D01*
X227373191Y-179786505D01*
X227373191Y-179048006D01*
X227685845Y-179048006D01*
G37*
G36*
X165362482Y-179098006D02*
G01*
X165362482Y-178885402D01*
X168764156Y-178885402D01*
X168764156Y-179098006D01*
X169076810Y-179098006D01*
X169076810Y-181186403D01*
X166781930Y-181192787D01*
X166778545Y-181446037D01*
X166775159Y-181699286D01*
X168063811Y-181699286D01*
X168063811Y-182124496D01*
X167510414Y-182124526D01*
X167382204Y-182124734D01*
X167250897Y-182125314D01*
X167120959Y-182126220D01*
X166996856Y-182127410D01*
X166883053Y-182128837D01*
X166784015Y-182130458D01*
X166704207Y-182132228D01*
X166685008Y-182132771D01*
X166412999Y-182140985D01*
X166412999Y-183087470D01*
X167238405Y-183087470D01*
X167238405Y-183875357D01*
X166900739Y-183875357D01*
X166900739Y-183512679D01*
X166412999Y-183512679D01*
X166412999Y-184275554D01*
X166087839Y-184275554D01*
X166087839Y-185050936D01*
X165687642Y-185050936D01*
X165687642Y-185426120D01*
X165224914Y-185426120D01*
X165224914Y-187139464D01*
X165700148Y-187139464D01*
X165700148Y-187414599D01*
X164949779Y-187414599D01*
X164949779Y-186163984D01*
X164724668Y-186163984D01*
X164724668Y-185801305D01*
X164387002Y-185801305D01*
X164387002Y-186163496D01*
X164114993Y-186166866D01*
X163842984Y-186170237D01*
X163835800Y-186401057D01*
X164077009Y-186404455D01*
X164318218Y-186407854D01*
X164318218Y-186682989D01*
X163561596Y-186689609D01*
X163561596Y-185826317D01*
X163111374Y-185826317D01*
X163111374Y-185463639D01*
X162686165Y-185463639D01*
X162686165Y-185038430D01*
X162361005Y-185038430D01*
X162361005Y-184663245D01*
X161985820Y-184663245D01*
X161985820Y-184288060D01*
X161723191Y-184288060D01*
X161723191Y-182362113D01*
X162035845Y-182362113D01*
X162035845Y-182737297D01*
X162511079Y-182737297D01*
X162511079Y-183112482D01*
X162886263Y-183112482D01*
X162886263Y-183487667D01*
X163548421Y-183487667D01*
X163555343Y-183118735D01*
X163821098Y-183115360D01*
X164086854Y-183111984D01*
X164086854Y-182737297D01*
X164723999Y-182737297D01*
X164727460Y-182552831D01*
X164730921Y-182368366D01*
X164890375Y-182364865D01*
X165049828Y-182361365D01*
X165049828Y-179627433D01*
X165750173Y-179627433D01*
X165750690Y-179694303D01*
X165752117Y-179752131D01*
X165754265Y-179796390D01*
X165756945Y-179822556D01*
X165758510Y-179827532D01*
X165773299Y-179830417D01*
X165808573Y-179832869D01*
X165859804Y-179834700D01*
X165922465Y-179835721D01*
X165958609Y-179835869D01*
X166150370Y-179835869D01*
X166150370Y-179435672D01*
X165750173Y-179435672D01*
X165750173Y-179627433D01*
X165049828Y-179627433D01*
X165049828Y-179098006D01*
X165362482Y-179098006D01*
G37*
X206652000Y-180082000D02*
X208892000Y-180082000D01*
X208892000Y-176442000D02*
X206652000Y-176442000D01*
X206652000Y-179842000D02*
X208892000Y-179842000D01*
X207772000Y-175792000D02*
X207772000Y-176442000D01*
X206652000Y-180682000D02*
X208892000Y-180682000D01*
X207772000Y-181332000D02*
X207772000Y-180682000D01*
X206652000Y-176442000D02*
X206652000Y-180682000D01*
X208892000Y-180682000D02*
X208892000Y-176442000D01*
X206652000Y-179962000D02*
X208892000Y-179962000D01*
X206380000Y-123320000D02*
X208620000Y-123320000D01*
X207500000Y-118430000D02*
X207500000Y-119080000D01*
X206380000Y-122480000D02*
X208620000Y-122480000D01*
X208620000Y-123320000D02*
X208620000Y-119080000D01*
X206380000Y-122720000D02*
X208620000Y-122720000D01*
X208620000Y-119080000D02*
X206380000Y-119080000D01*
X206380000Y-122600000D02*
X208620000Y-122600000D01*
X206380000Y-119080000D02*
X206380000Y-123320000D01*
X207500000Y-123970000D02*
X207500000Y-123320000D01*
X199605000Y-82820000D02*
X199605000Y-85480000D01*
X199605000Y-85480000D02*
X194465000Y-85480000D01*
X200875000Y-82820000D02*
X202205000Y-82820000D01*
X199605000Y-82820000D02*
X194465000Y-82820000D01*
X194465000Y-82820000D02*
X194465000Y-85480000D01*
X202205000Y-82820000D02*
X202205000Y-84150000D01*
X132885646Y-95296978D02*
X135076696Y-95762700D01*
X133696332Y-96869901D02*
X133831475Y-96234106D01*
X134927000Y-96466967D02*
X135808546Y-92319621D01*
X135808546Y-92319621D02*
X133617495Y-91853899D01*
X132735949Y-96001244D02*
X134927000Y-96466967D01*
X132910595Y-95179600D02*
X135101646Y-95645323D01*
X132860696Y-95414356D02*
X135051747Y-95880078D01*
X134848163Y-91450964D02*
X134713020Y-92086760D01*
X133617495Y-91853899D02*
X132735949Y-96001244D01*
X153209189Y-127113702D02*
X152743466Y-129304753D01*
X153796077Y-127238449D02*
X153330355Y-129429500D01*
X154030833Y-127288348D02*
X153565110Y-129479399D01*
X152743466Y-129304753D02*
X156890812Y-130186299D01*
X156890812Y-130186299D02*
X157356534Y-127995248D01*
X157759469Y-129225916D02*
X157123673Y-129090773D01*
X157356534Y-127995248D02*
X153209189Y-127113702D01*
X152340532Y-128074085D02*
X152976327Y-128209228D01*
X153913455Y-127263399D02*
X153447733Y-129454449D01*
X187625141Y-160617261D02*
X189865141Y-160617261D01*
X187625141Y-157097261D02*
X187625141Y-161337261D01*
X188745141Y-156447261D02*
X188745141Y-157097261D01*
X187625141Y-161337261D02*
X189865141Y-161337261D01*
X189865141Y-157097261D02*
X187625141Y-157097261D01*
X187625141Y-160497261D02*
X189865141Y-160497261D01*
X189865141Y-161337261D02*
X189865141Y-157097261D01*
X187625141Y-160737261D02*
X189865141Y-160737261D01*
X188745141Y-161987261D02*
X188745141Y-161337261D01*
X144164741Y-133858445D02*
X143283195Y-138005790D01*
X143283195Y-138005790D02*
X145474246Y-138471513D01*
X144243578Y-138874447D02*
X144378721Y-138238652D01*
X146355792Y-134324167D02*
X144164741Y-133858445D01*
X143407942Y-137418902D02*
X145598993Y-137884624D01*
X145474246Y-138471513D02*
X146355792Y-134324167D01*
X143457841Y-137184146D02*
X145648892Y-137649869D01*
X143432892Y-137301524D02*
X145623942Y-137767246D01*
X145395409Y-133455510D02*
X145260266Y-134091306D01*
X141444316Y-152052731D02*
X141309173Y-152688527D01*
X140292485Y-157471668D02*
X140427628Y-156835873D01*
X139332102Y-156603011D02*
X141523153Y-157068734D01*
X140213648Y-152455666D02*
X139332102Y-156603011D01*
X139506748Y-155781367D02*
X141697799Y-156247090D01*
X139456849Y-156016123D02*
X141647900Y-156481845D01*
X139481799Y-155898745D02*
X141672849Y-156364467D01*
X142404699Y-152921388D02*
X140213648Y-152455666D01*
X141523153Y-157068734D02*
X142404699Y-152921388D01*
X188700000Y-118630000D02*
X188700000Y-119280000D01*
X187580000Y-123520000D02*
X189820000Y-123520000D01*
X187580000Y-122920000D02*
X189820000Y-122920000D01*
X189820000Y-123520000D02*
X189820000Y-119280000D01*
X187580000Y-122680000D02*
X189820000Y-122680000D01*
X187580000Y-122800000D02*
X189820000Y-122800000D01*
X189820000Y-119280000D02*
X187580000Y-119280000D01*
X187580000Y-119280000D02*
X187580000Y-123520000D01*
X188700000Y-124170000D02*
X188700000Y-123520000D01*
X84308248Y-140517666D02*
X83426702Y-144665011D01*
X83576399Y-143960745D02*
X85767449Y-144426467D01*
X85617753Y-145130734D02*
X86499299Y-140983388D01*
X85538916Y-140114731D02*
X85403773Y-140750527D01*
X86499299Y-140983388D02*
X84308248Y-140517666D01*
X83601348Y-143843367D02*
X85792399Y-144309090D01*
X83426702Y-144665011D02*
X85617753Y-145130734D01*
X83551449Y-144078123D02*
X85742500Y-144543845D01*
X84387085Y-145533668D02*
X84522228Y-144897873D01*
X89573111Y-126589360D02*
X90454657Y-122442014D01*
X89494274Y-121573357D02*
X89359131Y-122209153D01*
X87556706Y-125301993D02*
X89747757Y-125767716D01*
X88342443Y-126992294D02*
X88477586Y-126356499D01*
X87506807Y-125536749D02*
X89697858Y-126002471D01*
X90454657Y-122442014D02*
X88263606Y-121976292D01*
X87531757Y-125419371D02*
X89722807Y-125885093D01*
X88263606Y-121976292D02*
X87382060Y-126123637D01*
X87382060Y-126123637D02*
X89573111Y-126589360D01*
X226920000Y-161270000D02*
X226920000Y-157030000D01*
X225800000Y-161920000D02*
X225800000Y-161270000D01*
X224680000Y-157030000D02*
X224680000Y-161270000D01*
X224680000Y-160670000D02*
X226920000Y-160670000D01*
X224680000Y-161270000D02*
X226920000Y-161270000D01*
X225800000Y-156380000D02*
X225800000Y-157030000D01*
X226920000Y-157030000D02*
X224680000Y-157030000D01*
X224680000Y-160430000D02*
X226920000Y-160430000D01*
X224680000Y-160550000D02*
X226920000Y-160550000D01*
X224730000Y-137930000D02*
X224730000Y-142170000D01*
X224730000Y-141450000D02*
X226970000Y-141450000D01*
X224730000Y-141330000D02*
X226970000Y-141330000D01*
X226970000Y-137930000D02*
X224730000Y-137930000D01*
X224730000Y-141570000D02*
X226970000Y-141570000D01*
X224730000Y-142170000D02*
X226970000Y-142170000D01*
X226970000Y-142170000D02*
X226970000Y-137930000D01*
X225850000Y-142820000D02*
X225850000Y-142170000D01*
X225850000Y-137280000D02*
X225850000Y-137930000D01*
X96248885Y-89806068D02*
X96384028Y-89170273D01*
X97400716Y-84387131D02*
X97265573Y-85022927D01*
X98361099Y-85255788D02*
X96170048Y-84790066D01*
X95413249Y-88350523D02*
X97604300Y-88816245D01*
X96170048Y-84790066D02*
X95288502Y-88937411D01*
X95288502Y-88937411D02*
X97479553Y-89403134D01*
X95463148Y-88115767D02*
X97654199Y-88581490D01*
X95438199Y-88233145D02*
X97629249Y-88698867D01*
X97479553Y-89403134D02*
X98361099Y-85255788D01*
X72858763Y-102824941D02*
X75049813Y-103290663D01*
X74821280Y-98978927D02*
X74686137Y-99614723D01*
X72833813Y-102942319D02*
X75024864Y-103408041D01*
X72709066Y-103529207D02*
X74900117Y-103994930D01*
X75781663Y-99847584D02*
X73590612Y-99381862D01*
X73669449Y-104397864D02*
X73804592Y-103762069D01*
X73590612Y-99381862D02*
X72709066Y-103529207D01*
X72883712Y-102707563D02*
X75074763Y-103173286D01*
X74900117Y-103994930D02*
X75781663Y-99847584D01*
X206675141Y-160617261D02*
X208915141Y-160617261D01*
X206675141Y-160497261D02*
X208915141Y-160497261D01*
X206675141Y-157097261D02*
X206675141Y-161337261D01*
X208915141Y-157097261D02*
X206675141Y-157097261D01*
X208915141Y-161337261D02*
X208915141Y-157097261D01*
X207795141Y-156447261D02*
X207795141Y-157097261D01*
X206675141Y-160737261D02*
X208915141Y-160737261D01*
X207795141Y-161987261D02*
X207795141Y-161337261D01*
X206675141Y-161337261D02*
X208915141Y-161337261D01*
X122879553Y-153207934D02*
X123761099Y-149060588D01*
X120813249Y-152155323D02*
X123004300Y-152621045D01*
X120688502Y-152742211D02*
X122879553Y-153207934D01*
X123761099Y-149060588D02*
X121570048Y-148594866D01*
X121570048Y-148594866D02*
X120688502Y-152742211D01*
X121648885Y-153610868D02*
X121784028Y-152975073D01*
X122800716Y-148191931D02*
X122665573Y-148827727D01*
X120838199Y-152037945D02*
X123029249Y-152503667D01*
X120863148Y-151920567D02*
X123054199Y-152386290D01*
X76959560Y-83532203D02*
X79150611Y-83997925D01*
X77716359Y-79971746D02*
X76834813Y-84119091D01*
X79907410Y-80437468D02*
X77716359Y-79971746D01*
X79025864Y-84584814D02*
X79907410Y-80437468D01*
X78947027Y-79568811D02*
X78811884Y-80204607D01*
X77009459Y-83297447D02*
X79200510Y-83763170D01*
X76834813Y-84119091D02*
X79025864Y-84584814D01*
X76984510Y-83414825D02*
X79175560Y-83880547D01*
X77795196Y-84987748D02*
X77930339Y-84351953D01*
X64787630Y-140796631D02*
X66978681Y-141262354D01*
X66899844Y-136246351D02*
X66764701Y-136882147D01*
X65669176Y-136649286D02*
X64787630Y-140796631D01*
X64937327Y-140092365D02*
X67128377Y-140558087D01*
X65748013Y-141665288D02*
X65883156Y-141029493D01*
X67860227Y-137115008D02*
X65669176Y-136649286D01*
X64962276Y-139974987D02*
X67153327Y-140440710D01*
X66978681Y-141262354D02*
X67860227Y-137115008D01*
X64912377Y-140209743D02*
X67103428Y-140675465D01*
X114056399Y-92220945D02*
X116247449Y-92686667D01*
X114788248Y-88777866D02*
X113906702Y-92925211D01*
X116097753Y-93390934D02*
X116979299Y-89243588D01*
X114081348Y-92103567D02*
X116272399Y-92569290D01*
X114031449Y-92338323D02*
X116222500Y-92804045D01*
X116018916Y-88374931D02*
X115883773Y-89010727D01*
X116979299Y-89243588D02*
X114788248Y-88777866D01*
X114867085Y-93793868D02*
X115002228Y-93158073D01*
X113906702Y-92925211D02*
X116097753Y-93390934D01*
X91342778Y-107489925D02*
X93533829Y-107955648D01*
X91492475Y-106785659D02*
X93683525Y-107251381D01*
X91467525Y-106903037D02*
X93658576Y-107368759D01*
X93454992Y-102939645D02*
X93319849Y-103575441D01*
X92224324Y-103342580D02*
X91342778Y-107489925D01*
X91517424Y-106668281D02*
X93708475Y-107134004D01*
X93533829Y-107955648D02*
X94415375Y-103808302D01*
X92303161Y-108358582D02*
X92438304Y-107722787D01*
X94415375Y-103808302D02*
X92224324Y-103342580D01*
X103030685Y-149496068D02*
X103165828Y-148860273D01*
X102951848Y-144480066D02*
X102070302Y-148627411D01*
X104261353Y-149093134D02*
X105142899Y-144945788D01*
X104182516Y-144077131D02*
X104047373Y-144712927D01*
X105142899Y-144945788D02*
X102951848Y-144480066D01*
X102244948Y-147805767D02*
X104435999Y-148271490D01*
X102195049Y-148040523D02*
X104386100Y-148506245D01*
X102219999Y-147923145D02*
X104411049Y-148388867D01*
X102070302Y-148627411D02*
X104261353Y-149093134D01*
X153786211Y-147568059D02*
X153150415Y-147432916D01*
X148367274Y-146416228D02*
X149003069Y-146551371D01*
X149235931Y-145455845D02*
X148770208Y-147646896D01*
X153383276Y-146337391D02*
X149235931Y-145455845D01*
X149822819Y-145580592D02*
X149357097Y-147771643D01*
X152917554Y-148528442D02*
X153383276Y-146337391D01*
X150057575Y-145630491D02*
X149591852Y-147821542D01*
X149940197Y-145605542D02*
X149474475Y-147796592D01*
X148770208Y-147646896D02*
X152917554Y-148528442D01*
X226570000Y-179130000D02*
X224330000Y-179130000D01*
X224330000Y-182650000D02*
X226570000Y-182650000D01*
X224330000Y-182770000D02*
X226570000Y-182770000D01*
X224330000Y-182530000D02*
X226570000Y-182530000D01*
X224330000Y-179130000D02*
X224330000Y-183370000D01*
X224330000Y-183370000D02*
X226570000Y-183370000D01*
X226570000Y-183370000D02*
X226570000Y-179130000D01*
X225450000Y-184020000D02*
X225450000Y-183370000D01*
X225450000Y-178480000D02*
X225450000Y-179130000D01*
X70860562Y-117612639D02*
X70725419Y-118248435D01*
X71820945Y-118481296D02*
X69629894Y-118015574D01*
X69708731Y-123031576D02*
X69843874Y-122395781D01*
X69629894Y-118015574D02*
X68748348Y-122162919D01*
X70939399Y-122628642D02*
X71820945Y-118481296D01*
X68922994Y-121341275D02*
X71114045Y-121806998D01*
X68873095Y-121576031D02*
X71064146Y-122041753D01*
X68748348Y-122162919D02*
X70939399Y-122628642D01*
X68898045Y-121458653D02*
X71089095Y-121924375D01*
X206802141Y-141440261D02*
X209042141Y-141440261D01*
X209042141Y-137920261D02*
X206802141Y-137920261D01*
X206802141Y-142160261D02*
X209042141Y-142160261D01*
X206802141Y-137920261D02*
X206802141Y-142160261D01*
X209042141Y-142160261D02*
X209042141Y-137920261D01*
X206802141Y-141320261D02*
X209042141Y-141320261D01*
X207922141Y-137270261D02*
X207922141Y-137920261D01*
X206802141Y-141560261D02*
X209042141Y-141560261D01*
X207922141Y-142810261D02*
X207922141Y-142160261D01*
X149434964Y-119837801D02*
X150316510Y-115690455D01*
X147418559Y-118550434D02*
X149609610Y-119016157D01*
X147368660Y-118785190D02*
X149559711Y-119250912D01*
X148204296Y-120240735D02*
X148339439Y-119604940D01*
X149356127Y-114821798D02*
X149220984Y-115457594D01*
X147393610Y-118667812D02*
X149584660Y-119133534D01*
X148125459Y-115224733D02*
X147243913Y-119372078D01*
X147243913Y-119372078D02*
X149434964Y-119837801D01*
X150316510Y-115690455D02*
X148125459Y-115224733D01*
X151494408Y-99375073D02*
X153685459Y-99840795D01*
X151544307Y-99140317D02*
X153735358Y-99606040D01*
X152330044Y-100830618D02*
X152465187Y-100194823D01*
X151519358Y-99257695D02*
X153710408Y-99723417D01*
X153481875Y-95411681D02*
X153346732Y-96047477D01*
X152251207Y-95814616D02*
X151369661Y-99961961D01*
X151369661Y-99961961D02*
X153560712Y-100427684D01*
X154442258Y-96280338D02*
X152251207Y-95814616D01*
X153560712Y-100427684D02*
X154442258Y-96280338D01*
X124824129Y-133223428D02*
X127015180Y-133689151D01*
X125609866Y-134913729D02*
X125745009Y-134277934D01*
X125531029Y-129897727D02*
X124649483Y-134045072D01*
X124649483Y-134045072D02*
X126840534Y-134510795D01*
X126840534Y-134510795D02*
X127722080Y-130363449D01*
X124774230Y-133458184D02*
X126965281Y-133923906D01*
X124799180Y-133340806D02*
X126990230Y-133806528D01*
X127722080Y-130363449D02*
X125531029Y-129897727D01*
X126761697Y-129494792D02*
X126626554Y-130130588D01*
X110126186Y-110746376D02*
X112317236Y-111212098D01*
X110936872Y-112319299D02*
X111072015Y-111683504D01*
X112088703Y-106900362D02*
X111953560Y-107536158D01*
X110858035Y-107303297D02*
X109976489Y-111450642D01*
X112167540Y-111916365D02*
X113049086Y-107769019D01*
X110151135Y-110628998D02*
X112342186Y-111094721D01*
X110101236Y-110863754D02*
X112292287Y-111329476D01*
X113049086Y-107769019D02*
X110858035Y-107303297D01*
X109976489Y-111450642D02*
X112167540Y-111916365D01*
X189992141Y-137920261D02*
X187752141Y-137920261D01*
X187752141Y-142160261D02*
X189992141Y-142160261D01*
X187752141Y-141440261D02*
X189992141Y-141440261D01*
X187752141Y-141320261D02*
X189992141Y-141320261D01*
X189992141Y-142160261D02*
X189992141Y-137920261D01*
X187752141Y-137920261D02*
X187752141Y-142160261D01*
X187752141Y-141560261D02*
X189992141Y-141560261D01*
X188872141Y-137270261D02*
X188872141Y-137920261D01*
X188872141Y-142810261D02*
X188872141Y-142160261D01*
X188745141Y-181323011D02*
X188745141Y-180673011D01*
X189865141Y-176433011D02*
X187625141Y-176433011D01*
X187625141Y-179833011D02*
X189865141Y-179833011D01*
X187625141Y-176433011D02*
X187625141Y-180673011D01*
X188745141Y-175783011D02*
X188745141Y-176433011D01*
X187625141Y-179953011D02*
X189865141Y-179953011D01*
X187625141Y-180073011D02*
X189865141Y-180073011D01*
X187625141Y-180673011D02*
X189865141Y-180673011D01*
X189865141Y-180673011D02*
X189865141Y-176433011D01*
X224530000Y-123000000D02*
X226770000Y-123000000D01*
X224530000Y-122880000D02*
X226770000Y-122880000D01*
X226770000Y-119480000D02*
X224530000Y-119480000D01*
X225650000Y-124370000D02*
X225650000Y-123720000D01*
X224530000Y-123120000D02*
X226770000Y-123120000D01*
X225650000Y-118830000D02*
X225650000Y-119480000D01*
X226770000Y-123720000D02*
X226770000Y-119480000D01*
X224530000Y-119480000D02*
X224530000Y-123720000D01*
X224530000Y-123720000D02*
X226770000Y-123720000D01*
X128734948Y-114824472D02*
X130925999Y-115290194D01*
X128610201Y-115411360D02*
X130801252Y-115877083D01*
X128759898Y-114707094D02*
X130950948Y-115172816D01*
X128784847Y-114589716D02*
X130975898Y-115055439D01*
X129570584Y-116280017D02*
X129705727Y-115644222D01*
X131682798Y-111729737D02*
X129491747Y-111264015D01*
X129491747Y-111264015D02*
X128610201Y-115411360D01*
X130801252Y-115877083D02*
X131682798Y-111729737D01*
X130722415Y-110861080D02*
X130587272Y-111496876D01*
X108127986Y-125534074D02*
X107992843Y-126169870D01*
X109088369Y-126402731D02*
X106897318Y-125937009D01*
X106190418Y-129262710D02*
X108381469Y-129728433D01*
X106140519Y-129497466D02*
X108331570Y-129963188D01*
X106165469Y-129380088D02*
X108356519Y-129845810D01*
X106976155Y-130953011D02*
X107111298Y-130317216D01*
X108206823Y-130550077D02*
X109088369Y-126402731D01*
X106897318Y-125937009D02*
X106015772Y-130084354D01*
X106015772Y-130084354D02*
X108206823Y-130550077D01*
X157863455Y-108363399D02*
X157397733Y-110554449D01*
X161306534Y-109095248D02*
X157159189Y-108213702D01*
X157746077Y-108338449D02*
X157280355Y-110529500D01*
X156693466Y-110404753D02*
X160840812Y-111286299D01*
X156290532Y-109174085D02*
X156926327Y-109309228D01*
X160840812Y-111286299D02*
X161306534Y-109095248D01*
X157159189Y-108213702D02*
X156693466Y-110404753D01*
X157980833Y-108388348D02*
X157515110Y-110579399D01*
X161709469Y-110325916D02*
X161073673Y-110190773D01*
D14*
X190830200Y-81271011D03*
D15*
X190830200Y-83811011D03*
X190830200Y-86351011D03*
X190830200Y-88891011D03*
X190830200Y-91431011D03*
X190830200Y-93971011D03*
X190830200Y-96511011D03*
X190830200Y-99051011D03*
X190830200Y-101591011D03*
X190830200Y-104131011D03*
X190830200Y-106671011D03*
X190830200Y-109211011D03*
X206070200Y-109211011D03*
X206070200Y-106671011D03*
X206070200Y-104131011D03*
X206070200Y-101591011D03*
X206070200Y-99051011D03*
X206070200Y-96511011D03*
X206070200Y-93971011D03*
X206070200Y-91431011D03*
X206070200Y-88891011D03*
X206070200Y-86351011D03*
X206070200Y-83811011D03*
X206070200Y-81271011D03*
%LPC*%
D16*
X198270141Y-169536011D03*
X198450000Y-103800000D03*
X68304287Y-129638963D03*
X76225723Y-92371540D03*
X320273485Y-92230926D03*
X328194921Y-129498349D03*
D17*
X140173258Y-105907857D03*
D18*
X147626743Y-107492144D03*
D14*
X190830200Y-81271011D03*
D15*
X190830200Y-83811011D03*
X190830200Y-86351011D03*
X190830200Y-88891011D03*
X190830200Y-91431011D03*
X190830200Y-93971011D03*
X190830200Y-96511011D03*
X190830200Y-99051011D03*
X190830200Y-101591011D03*
X190830200Y-104131011D03*
X190830200Y-106671011D03*
X190830200Y-109211011D03*
X206070200Y-109211011D03*
X206070200Y-106671011D03*
X206070200Y-104131011D03*
X206070200Y-101591011D03*
X206070200Y-99051011D03*
X206070200Y-96511011D03*
X206070200Y-93971011D03*
X206070200Y-91431011D03*
X206070200Y-88891011D03*
X206070200Y-86351011D03*
X206070200Y-83811011D03*
X206070200Y-81271011D03*
D19*
X262004842Y-114354103D03*
X252066862Y-116466485D03*
D20*
X257035852Y-115410294D03*
X308976270Y-84894429D03*
D19*
X304007280Y-85950620D03*
X313945260Y-83838238D03*
D21*
X269521283Y-128336904D03*
D22*
X271105570Y-135790389D03*
D19*
X259988298Y-153733908D03*
X269926278Y-151621526D03*
D20*
X264957288Y-152677717D03*
D21*
X254848289Y-150931333D03*
D22*
X256432576Y-158384818D03*
D20*
X290342558Y-88855146D03*
D19*
X295311548Y-87798955D03*
X285373568Y-89911337D03*
D21*
X310749424Y-139049180D03*
D22*
X312333711Y-146502665D03*
D19*
X344461125Y-135778655D03*
X334523145Y-137891037D03*
D20*
X339492135Y-136834846D03*
D19*
X270700574Y-112505767D03*
D20*
X275669564Y-111449576D03*
D19*
X280638554Y-110393385D03*
X233433151Y-120427202D03*
X243371131Y-118314820D03*
D20*
X238402141Y-119371011D03*
D19*
X322640992Y-81989902D03*
X332578972Y-79877520D03*
D20*
X327609982Y-80933711D03*
D21*
X273482000Y-146970616D03*
D22*
X275066287Y-154424101D03*
D23*
X340462114Y-126890877D03*
D24*
X333008629Y-128475164D03*
D19*
X256027580Y-135100196D03*
D20*
X260996570Y-134044005D03*
D19*
X265965560Y-132987814D03*
X248106145Y-97832773D03*
X258044125Y-95720391D03*
D20*
X253075135Y-96776582D03*
D19*
X336539690Y-98511232D03*
D20*
X331570700Y-99567423D03*
D19*
X326601710Y-100623614D03*
D21*
X284194277Y-105742474D03*
D22*
X285778564Y-113195959D03*
D19*
X229472433Y-101793491D03*
D20*
X234441423Y-100737300D03*
D19*
X239410413Y-99681109D03*
D23*
X336501396Y-108257165D03*
D24*
X329047911Y-109841452D03*
D21*
X321461700Y-97821039D03*
D22*
X323045987Y-105274524D03*
D21*
X325257388Y-115678346D03*
D22*
X326841675Y-123131831D03*
D19*
X307967998Y-104584332D03*
X317905978Y-102471950D03*
D20*
X312936988Y-103528141D03*
D23*
X321121017Y-129508826D03*
D24*
X313667532Y-131093113D03*
D21*
X265560565Y-109703192D03*
D22*
X267144852Y-117156677D03*
D21*
X261434817Y-90293076D03*
D22*
X263019104Y-97746561D03*
D19*
X278622010Y-149773191D03*
D20*
X283591000Y-148717000D03*
D19*
X288559990Y-147660809D03*
D21*
X242801105Y-94253793D03*
D22*
X244385392Y-101707278D03*
D21*
X250887571Y-132297622D03*
D22*
X252471858Y-139751107D03*
D20*
X279630282Y-130083288D03*
D19*
X284599272Y-129027097D03*
X274661292Y-131139479D03*
D20*
X298263994Y-126122570D03*
D19*
X293295004Y-127178761D03*
X303232984Y-125066379D03*
X299272266Y-106432667D03*
X289334286Y-108545049D03*
D20*
X294303276Y-107488858D03*
D21*
X288154994Y-124376186D03*
D22*
X289739281Y-131829671D03*
D21*
X298702241Y-82371640D03*
D22*
X300286528Y-89825125D03*
D21*
X317335953Y-78410923D03*
D22*
X318920240Y-85864408D03*
D21*
X292115712Y-143009898D03*
D22*
X293699999Y-150463383D03*
D19*
X241354586Y-157694626D03*
X251292566Y-155582244D03*
D20*
X246323576Y-156638435D03*
X335531417Y-118201135D03*
D19*
X330562427Y-119257326D03*
X340500407Y-117144944D03*
D21*
X306788706Y-120415469D03*
D22*
X308372993Y-127868954D03*
D21*
X302827988Y-101781757D03*
D22*
X304412275Y-109235242D03*
D21*
X329383136Y-135088463D03*
D22*
X330967423Y-142541948D03*
D19*
X315889433Y-141851755D03*
D20*
X320858423Y-140795564D03*
D19*
X325827413Y-139739373D03*
D20*
X271708847Y-92815864D03*
D19*
X276677837Y-91759673D03*
X266739857Y-93872055D03*
X247331848Y-136948532D03*
D20*
X242362858Y-138004723D03*
D19*
X237393868Y-139060914D03*
D23*
X332416604Y-89558940D03*
D24*
X324963119Y-91143227D03*
D20*
X302224711Y-144756282D03*
D19*
X307193701Y-143700091D03*
X297255721Y-145812473D03*
D21*
X246926853Y-113663910D03*
D22*
X248511140Y-121117395D03*
D19*
X311928716Y-123218043D03*
X321866696Y-121105661D03*
D20*
X316897706Y-122161852D03*
D21*
X280068529Y-86332358D03*
D22*
X281652816Y-93785843D03*
D20*
X158097067Y-119511625D03*
D19*
X163066057Y-120567816D03*
X153128077Y-118455434D03*
D20*
X179220141Y-121657011D03*
D19*
X174140141Y-121657011D03*
X184300141Y-121657011D03*
D25*
X207772000Y-174752000D03*
D26*
X207772000Y-182372000D03*
D25*
X207500000Y-117390000D03*
D26*
X207500000Y-125010000D03*
D20*
X79601502Y-122302466D03*
D19*
X84570492Y-123358657D03*
X74632512Y-121246275D03*
D27*
X195795000Y-84150000D03*
X198335000Y-84150000D03*
D28*
X200875000Y-84150000D03*
D19*
X174140141Y-140834011D03*
X184300141Y-140834011D03*
D20*
X179220141Y-140834011D03*
D29*
X135064391Y-90433690D03*
D30*
X133480104Y-97887175D03*
D18*
X158776743Y-129442144D03*
D17*
X151323258Y-127857857D03*
D20*
X124790361Y-92956478D03*
D19*
X119821371Y-91900287D03*
X129759351Y-94012669D03*
X145206642Y-155722858D03*
X155144622Y-157835240D03*
D20*
X150175632Y-156779049D03*
D19*
X159105340Y-139201528D03*
D20*
X154136350Y-138145337D03*
D19*
X149167360Y-137089146D03*
D25*
X188745141Y-155407261D03*
D26*
X188745141Y-163027261D03*
D20*
X143424073Y-96917196D03*
D19*
X138455083Y-95861005D03*
X148393063Y-97973387D03*
D29*
X145611637Y-132438236D03*
D30*
X144027350Y-139891721D03*
D29*
X141660544Y-151035457D03*
D30*
X140076257Y-158488942D03*
D20*
X83562220Y-103668755D03*
D19*
X78593230Y-102612564D03*
X88531210Y-104724946D03*
D25*
X188700000Y-117590000D03*
D26*
X188700000Y-125210000D03*
D29*
X85755144Y-139097457D03*
D30*
X84170857Y-146550942D03*
D20*
X198270141Y-140834011D03*
D19*
X193190141Y-140834011D03*
X203350141Y-140834011D03*
X193190141Y-160011011D03*
D20*
X198270141Y-160011011D03*
D19*
X203350141Y-160011011D03*
D29*
X89710502Y-120556083D03*
D30*
X88126215Y-128009568D03*
D25*
X225800000Y-155340000D03*
D26*
X225800000Y-162960000D03*
D25*
X225850000Y-136240000D03*
D26*
X225850000Y-143860000D03*
D29*
X97616944Y-83369857D03*
D30*
X96032657Y-90823342D03*
D19*
X97226942Y-106573281D03*
D20*
X102195932Y-107629472D03*
D19*
X107164922Y-108685663D03*
D29*
X75037508Y-97961653D03*
D30*
X73453221Y-105415138D03*
D19*
X222400141Y-160011011D03*
D20*
X217320141Y-160011011D03*
D19*
X212240141Y-160011011D03*
X203350141Y-121657011D03*
D20*
X198270141Y-121657011D03*
D19*
X193190141Y-121657011D03*
D20*
X198270141Y-179188011D03*
D19*
X203350141Y-179188011D03*
X193190141Y-179188011D03*
X99243487Y-145953087D03*
D20*
X94274497Y-144896896D03*
D19*
X89305507Y-143840705D03*
D25*
X207795141Y-155407261D03*
D26*
X207795141Y-163027261D03*
D29*
X123016944Y-147174657D03*
D30*
X121432657Y-154628142D03*
D19*
X93266224Y-125206993D03*
X103204204Y-127319375D03*
D20*
X98235214Y-126263184D03*
X139463356Y-115550908D03*
D19*
X134494366Y-114494717D03*
X144432346Y-116607099D03*
X82553948Y-83978852D03*
X92491928Y-86091234D03*
D20*
X87522938Y-85035043D03*
D19*
X55998801Y-117285558D03*
X65936781Y-119397940D03*
D20*
X60967791Y-118341749D03*
D29*
X79163255Y-78551537D03*
D30*
X77578968Y-86005022D03*
D19*
X212240141Y-121657011D03*
D20*
X217320141Y-121657011D03*
D19*
X222400141Y-121657011D03*
X174140141Y-179188011D03*
D20*
X179220141Y-179188011D03*
D19*
X184300141Y-179188011D03*
D29*
X67116072Y-135229077D03*
D30*
X65531785Y-142682562D03*
D19*
X130533648Y-133128428D03*
X140471628Y-135240810D03*
D20*
X135502638Y-134184619D03*
D29*
X116235144Y-87357657D03*
D30*
X114650857Y-94811142D03*
D29*
X93671220Y-101922371D03*
D30*
X92086933Y-109375856D03*
D29*
X104398744Y-143059857D03*
D30*
X102814457Y-150513342D03*
D18*
X154803485Y-147784287D03*
D17*
X147350000Y-146200000D03*
D25*
X225450000Y-177440000D03*
D26*
X225450000Y-185060000D03*
D19*
X212240141Y-140834011D03*
X222400141Y-140834011D03*
D20*
X217320141Y-140834011D03*
D29*
X71076790Y-116595365D03*
D30*
X69492503Y-124048850D03*
D25*
X207922141Y-136230261D03*
D26*
X207922141Y-143850261D03*
D20*
X64928508Y-99708037D03*
D19*
X59959518Y-98651846D03*
X69897498Y-100764228D03*
X174140141Y-160011011D03*
X184300141Y-160011011D03*
D20*
X179220141Y-160011011D03*
X75640785Y-140936178D03*
D19*
X80609775Y-141992369D03*
X70671795Y-139879987D03*
X61976063Y-138031651D03*
X52038083Y-135919269D03*
D20*
X57007073Y-136975460D03*
D29*
X149572355Y-113804524D03*
D30*
X147988068Y-121258009D03*
D19*
X167026775Y-101934105D03*
X157088795Y-99821723D03*
D20*
X162057785Y-100877914D03*
D29*
X153698103Y-94394407D03*
D30*
X152113816Y-101847892D03*
D29*
X126977925Y-128477518D03*
D30*
X125393638Y-135931003D03*
D29*
X112304931Y-105883088D03*
D30*
X110720644Y-113336573D03*
D20*
X116868926Y-130223902D03*
D19*
X121837916Y-131280093D03*
X111899936Y-129167711D03*
X126572930Y-151762140D03*
D20*
X131541920Y-152818331D03*
D19*
X136510910Y-153874522D03*
D25*
X188872141Y-136230261D03*
D26*
X188872141Y-143850261D03*
D25*
X188745141Y-174743011D03*
D26*
X188745141Y-182363011D03*
D25*
X225650000Y-117790000D03*
D26*
X225650000Y-125410000D03*
D29*
X130938643Y-109843806D03*
D30*
X129354356Y-117297291D03*
D29*
X108344214Y-124516800D03*
D30*
X106759927Y-131970285D03*
D18*
X162726743Y-110542144D03*
D17*
X155273258Y-108957857D03*
D20*
X120829644Y-111590190D03*
D19*
X125798634Y-112646381D03*
X115860654Y-110533999D03*
X73858216Y-82130516D03*
X63920236Y-80018134D03*
D20*
X68889226Y-81074325D03*
D19*
X111125640Y-90051951D03*
D20*
X106156650Y-88995760D03*
D19*
X101187660Y-87939569D03*
X117877198Y-149913805D03*
D20*
X112908208Y-148857614D03*
D19*
X107939218Y-147801423D03*
X212240141Y-179188011D03*
D20*
X217320141Y-179188011D03*
D19*
X222400141Y-179188011D03*
D31*
X195000000Y-97850000D03*
X201500000Y-93350000D03*
X195000000Y-93350000D03*
X201500000Y-97850000D03*
M02*
