G04 #@! TF.GenerationSoftware,KiCad,Pcbnew,7.0.3*
G04 #@! TF.CreationDate,2023-06-14T18:23:53+02:00*
G04 #@! TF.ProjectId,t-rex,742d7265-782e-46b6-9963-61645f706362,rev?*
G04 #@! TF.SameCoordinates,Original*
G04 #@! TF.FileFunction,Copper,L1,Top*
G04 #@! TF.FilePolarity,Positive*
%FSLAX46Y46*%
G04 Gerber Fmt 4.6, Leading zero omitted, Abs format (unit mm)*
G04 Created by KiCad (PCBNEW 7.0.3) date 2023-06-14 18:23:53*
%MOMM*%
%LPD*%
G01*
G04 APERTURE LIST*
G04 Aperture macros list*
%AMHorizOval*
0 Thick line with rounded ends*
0 $1 width*
0 $2 $3 position (X,Y) of the first rounded end (center of the circle)*
0 $4 $5 position (X,Y) of the second rounded end (center of the circle)*
0 Add line between two ends*
20,1,$1,$2,$3,$4,$5,0*
0 Add two circle primitives to create the rounded ends*
1,1,$1,$2,$3*
1,1,$1,$4,$5*%
G04 Aperture macros list end*
%ADD10C,0.300000*%
G04 #@! TA.AperFunction,NonConductor*
%ADD11C,0.300000*%
G04 #@! TD*
G04 #@! TA.AperFunction,NonConductor*
%ADD12C,0.200000*%
G04 #@! TD*
G04 #@! TA.AperFunction,ComponentPad*
%ADD13C,4.400000*%
G04 #@! TD*
G04 #@! TA.AperFunction,ComponentPad*
%ADD14R,1.600000X1.600000*%
G04 #@! TD*
G04 #@! TA.AperFunction,ComponentPad*
%ADD15O,1.600000X1.600000*%
G04 #@! TD*
G04 #@! TA.AperFunction,ComponentPad*
%ADD16HorizOval,2.250000X0.655001X0.730000X-0.655001X-0.730000X0*%
G04 #@! TD*
G04 #@! TA.AperFunction,ComponentPad*
%ADD17C,2.250000*%
G04 #@! TD*
G04 #@! TA.AperFunction,ComponentPad*
%ADD18HorizOval,2.250000X0.020000X0.290000X-0.020000X-0.290000X0*%
G04 #@! TD*
G04 #@! TA.AperFunction,ComponentPad*
%ADD19R,1.700000X1.700000*%
G04 #@! TD*
G04 #@! TA.AperFunction,ComponentPad*
%ADD20O,1.700000X1.700000*%
G04 #@! TD*
G04 #@! TA.AperFunction,ComponentPad*
%ADD21C,1.800000*%
G04 #@! TD*
G04 #@! TA.AperFunction,ComponentPad*
%ADD22R,1.752600X1.752600*%
G04 #@! TD*
G04 #@! TA.AperFunction,ComponentPad*
%ADD23C,1.752600*%
G04 #@! TD*
G04 #@! TA.AperFunction,ViaPad*
%ADD24C,0.800000*%
G04 #@! TD*
G04 #@! TA.AperFunction,Conductor*
%ADD25C,0.250000*%
G04 #@! TD*
G04 #@! TA.AperFunction,Conductor*
%ADD26C,0.508000*%
G04 #@! TD*
G04 APERTURE END LIST*
D10*
D11*
X140192012Y-127061185D02*
X140263440Y-126989757D01*
X140263440Y-126989757D02*
X140406298Y-126918328D01*
X140406298Y-126918328D02*
X140763440Y-126918328D01*
X140763440Y-126918328D02*
X140906298Y-126989757D01*
X140906298Y-126989757D02*
X140977726Y-127061185D01*
X140977726Y-127061185D02*
X141049155Y-127204042D01*
X141049155Y-127204042D02*
X141049155Y-127346900D01*
X141049155Y-127346900D02*
X140977726Y-127561185D01*
X140977726Y-127561185D02*
X140120583Y-128418328D01*
X140120583Y-128418328D02*
X141049155Y-128418328D01*
X141549154Y-126918328D02*
X142477726Y-126918328D01*
X142477726Y-126918328D02*
X141977726Y-127489757D01*
X141977726Y-127489757D02*
X142192011Y-127489757D01*
X142192011Y-127489757D02*
X142334869Y-127561185D01*
X142334869Y-127561185D02*
X142406297Y-127632614D01*
X142406297Y-127632614D02*
X142477726Y-127775471D01*
X142477726Y-127775471D02*
X142477726Y-128132614D01*
X142477726Y-128132614D02*
X142406297Y-128275471D01*
X142406297Y-128275471D02*
X142334869Y-128346900D01*
X142334869Y-128346900D02*
X142192011Y-128418328D01*
X142192011Y-128418328D02*
X141763440Y-128418328D01*
X141763440Y-128418328D02*
X141620583Y-128346900D01*
X141620583Y-128346900D02*
X141549154Y-128275471D01*
X143406297Y-126918328D02*
X143549154Y-126918328D01*
X143549154Y-126918328D02*
X143692011Y-126989757D01*
X143692011Y-126989757D02*
X143763440Y-127061185D01*
X143763440Y-127061185D02*
X143834868Y-127204042D01*
X143834868Y-127204042D02*
X143906297Y-127489757D01*
X143906297Y-127489757D02*
X143906297Y-127846900D01*
X143906297Y-127846900D02*
X143834868Y-128132614D01*
X143834868Y-128132614D02*
X143763440Y-128275471D01*
X143763440Y-128275471D02*
X143692011Y-128346900D01*
X143692011Y-128346900D02*
X143549154Y-128418328D01*
X143549154Y-128418328D02*
X143406297Y-128418328D01*
X143406297Y-128418328D02*
X143263440Y-128346900D01*
X143263440Y-128346900D02*
X143192011Y-128275471D01*
X143192011Y-128275471D02*
X143120582Y-128132614D01*
X143120582Y-128132614D02*
X143049154Y-127846900D01*
X143049154Y-127846900D02*
X143049154Y-127489757D01*
X143049154Y-127489757D02*
X143120582Y-127204042D01*
X143120582Y-127204042D02*
X143192011Y-127061185D01*
X143192011Y-127061185D02*
X143263440Y-126989757D01*
X143263440Y-126989757D02*
X143406297Y-126918328D01*
X144549153Y-128275471D02*
X144620582Y-128346900D01*
X144620582Y-128346900D02*
X144549153Y-128418328D01*
X144549153Y-128418328D02*
X144477725Y-128346900D01*
X144477725Y-128346900D02*
X144549153Y-128275471D01*
X144549153Y-128275471D02*
X144549153Y-128418328D01*
X146049154Y-128418328D02*
X145192011Y-128418328D01*
X145620582Y-128418328D02*
X145620582Y-126918328D01*
X145620582Y-126918328D02*
X145477725Y-127132614D01*
X145477725Y-127132614D02*
X145334868Y-127275471D01*
X145334868Y-127275471D02*
X145192011Y-127346900D01*
X146906296Y-127561185D02*
X146763439Y-127489757D01*
X146763439Y-127489757D02*
X146692010Y-127418328D01*
X146692010Y-127418328D02*
X146620582Y-127275471D01*
X146620582Y-127275471D02*
X146620582Y-127204042D01*
X146620582Y-127204042D02*
X146692010Y-127061185D01*
X146692010Y-127061185D02*
X146763439Y-126989757D01*
X146763439Y-126989757D02*
X146906296Y-126918328D01*
X146906296Y-126918328D02*
X147192010Y-126918328D01*
X147192010Y-126918328D02*
X147334868Y-126989757D01*
X147334868Y-126989757D02*
X147406296Y-127061185D01*
X147406296Y-127061185D02*
X147477725Y-127204042D01*
X147477725Y-127204042D02*
X147477725Y-127275471D01*
X147477725Y-127275471D02*
X147406296Y-127418328D01*
X147406296Y-127418328D02*
X147334868Y-127489757D01*
X147334868Y-127489757D02*
X147192010Y-127561185D01*
X147192010Y-127561185D02*
X146906296Y-127561185D01*
X146906296Y-127561185D02*
X146763439Y-127632614D01*
X146763439Y-127632614D02*
X146692010Y-127704042D01*
X146692010Y-127704042D02*
X146620582Y-127846900D01*
X146620582Y-127846900D02*
X146620582Y-128132614D01*
X146620582Y-128132614D02*
X146692010Y-128275471D01*
X146692010Y-128275471D02*
X146763439Y-128346900D01*
X146763439Y-128346900D02*
X146906296Y-128418328D01*
X146906296Y-128418328D02*
X147192010Y-128418328D01*
X147192010Y-128418328D02*
X147334868Y-128346900D01*
X147334868Y-128346900D02*
X147406296Y-128275471D01*
X147406296Y-128275471D02*
X147477725Y-128132614D01*
X147477725Y-128132614D02*
X147477725Y-127846900D01*
X147477725Y-127846900D02*
X147406296Y-127704042D01*
X147406296Y-127704042D02*
X147334868Y-127632614D01*
X147334868Y-127632614D02*
X147192010Y-127561185D01*
X147977724Y-126918328D02*
X148977724Y-126918328D01*
X148977724Y-126918328D02*
X148334867Y-128418328D01*
X150263438Y-126918328D02*
X149549152Y-126918328D01*
X149549152Y-126918328D02*
X149477724Y-127632614D01*
X149477724Y-127632614D02*
X149549152Y-127561185D01*
X149549152Y-127561185D02*
X149692010Y-127489757D01*
X149692010Y-127489757D02*
X150049152Y-127489757D01*
X150049152Y-127489757D02*
X150192010Y-127561185D01*
X150192010Y-127561185D02*
X150263438Y-127632614D01*
X150263438Y-127632614D02*
X150334867Y-127775471D01*
X150334867Y-127775471D02*
X150334867Y-128132614D01*
X150334867Y-128132614D02*
X150263438Y-128275471D01*
X150263438Y-128275471D02*
X150192010Y-128346900D01*
X150192010Y-128346900D02*
X150049152Y-128418328D01*
X150049152Y-128418328D02*
X149692010Y-128418328D01*
X149692010Y-128418328D02*
X149549152Y-128346900D01*
X149549152Y-128346900D02*
X149477724Y-128275471D01*
X152120580Y-128418328D02*
X152120580Y-127418328D01*
X152120580Y-127561185D02*
X152192009Y-127489757D01*
X152192009Y-127489757D02*
X152334866Y-127418328D01*
X152334866Y-127418328D02*
X152549152Y-127418328D01*
X152549152Y-127418328D02*
X152692009Y-127489757D01*
X152692009Y-127489757D02*
X152763438Y-127632614D01*
X152763438Y-127632614D02*
X152763438Y-128418328D01*
X152763438Y-127632614D02*
X152834866Y-127489757D01*
X152834866Y-127489757D02*
X152977723Y-127418328D01*
X152977723Y-127418328D02*
X153192009Y-127418328D01*
X153192009Y-127418328D02*
X153334866Y-127489757D01*
X153334866Y-127489757D02*
X153406295Y-127632614D01*
X153406295Y-127632614D02*
X153406295Y-128418328D01*
X154120580Y-128418328D02*
X154120580Y-127418328D01*
X154120580Y-127561185D02*
X154192009Y-127489757D01*
X154192009Y-127489757D02*
X154334866Y-127418328D01*
X154334866Y-127418328D02*
X154549152Y-127418328D01*
X154549152Y-127418328D02*
X154692009Y-127489757D01*
X154692009Y-127489757D02*
X154763438Y-127632614D01*
X154763438Y-127632614D02*
X154763438Y-128418328D01*
X154763438Y-127632614D02*
X154834866Y-127489757D01*
X154834866Y-127489757D02*
X154977723Y-127418328D01*
X154977723Y-127418328D02*
X155192009Y-127418328D01*
X155192009Y-127418328D02*
X155334866Y-127489757D01*
X155334866Y-127489757D02*
X155406295Y-127632614D01*
X155406295Y-127632614D02*
X155406295Y-128418328D01*
D12*
X32543750Y-117181250D02*
X32543750Y-130126420D01*
X262731250Y-117181250D02*
X262731250Y-130126420D01*
X32543750Y-129540000D02*
X262731250Y-129540000D01*
X32543750Y-129540000D02*
X262731250Y-129540000D01*
X32543750Y-129540000D02*
X33670254Y-128953579D01*
X32543750Y-129540000D02*
X33670254Y-130126421D01*
X262731250Y-129540000D02*
X261604746Y-130126421D01*
X262731250Y-129540000D02*
X261604746Y-128953579D01*
D10*
D11*
X271134578Y-78025844D02*
X271134578Y-77740130D01*
X271134578Y-77740130D02*
X271063150Y-77597273D01*
X271063150Y-77597273D02*
X270991721Y-77525844D01*
X270991721Y-77525844D02*
X270777435Y-77382987D01*
X270777435Y-77382987D02*
X270491721Y-77311558D01*
X270491721Y-77311558D02*
X269920292Y-77311558D01*
X269920292Y-77311558D02*
X269777435Y-77382987D01*
X269777435Y-77382987D02*
X269706007Y-77454416D01*
X269706007Y-77454416D02*
X269634578Y-77597273D01*
X269634578Y-77597273D02*
X269634578Y-77882987D01*
X269634578Y-77882987D02*
X269706007Y-78025844D01*
X269706007Y-78025844D02*
X269777435Y-78097273D01*
X269777435Y-78097273D02*
X269920292Y-78168701D01*
X269920292Y-78168701D02*
X270277435Y-78168701D01*
X270277435Y-78168701D02*
X270420292Y-78097273D01*
X270420292Y-78097273D02*
X270491721Y-78025844D01*
X270491721Y-78025844D02*
X270563150Y-77882987D01*
X270563150Y-77882987D02*
X270563150Y-77597273D01*
X270563150Y-77597273D02*
X270491721Y-77454416D01*
X270491721Y-77454416D02*
X270420292Y-77382987D01*
X270420292Y-77382987D02*
X270277435Y-77311558D01*
X269634578Y-75954416D02*
X269634578Y-76668702D01*
X269634578Y-76668702D02*
X270348864Y-76740130D01*
X270348864Y-76740130D02*
X270277435Y-76668702D01*
X270277435Y-76668702D02*
X270206007Y-76525845D01*
X270206007Y-76525845D02*
X270206007Y-76168702D01*
X270206007Y-76168702D02*
X270277435Y-76025845D01*
X270277435Y-76025845D02*
X270348864Y-75954416D01*
X270348864Y-75954416D02*
X270491721Y-75882987D01*
X270491721Y-75882987D02*
X270848864Y-75882987D01*
X270848864Y-75882987D02*
X270991721Y-75954416D01*
X270991721Y-75954416D02*
X271063150Y-76025845D01*
X271063150Y-76025845D02*
X271134578Y-76168702D01*
X271134578Y-76168702D02*
X271134578Y-76525845D01*
X271134578Y-76525845D02*
X271063150Y-76668702D01*
X271063150Y-76668702D02*
X270991721Y-76740130D01*
X270991721Y-75240131D02*
X271063150Y-75168702D01*
X271063150Y-75168702D02*
X271134578Y-75240131D01*
X271134578Y-75240131D02*
X271063150Y-75311559D01*
X271063150Y-75311559D02*
X270991721Y-75240131D01*
X270991721Y-75240131D02*
X271134578Y-75240131D01*
X269777435Y-74597273D02*
X269706007Y-74525845D01*
X269706007Y-74525845D02*
X269634578Y-74382988D01*
X269634578Y-74382988D02*
X269634578Y-74025845D01*
X269634578Y-74025845D02*
X269706007Y-73882988D01*
X269706007Y-73882988D02*
X269777435Y-73811559D01*
X269777435Y-73811559D02*
X269920292Y-73740130D01*
X269920292Y-73740130D02*
X270063150Y-73740130D01*
X270063150Y-73740130D02*
X270277435Y-73811559D01*
X270277435Y-73811559D02*
X271134578Y-74668702D01*
X271134578Y-74668702D02*
X271134578Y-73740130D01*
X269634578Y-72382988D02*
X269634578Y-73097274D01*
X269634578Y-73097274D02*
X270348864Y-73168702D01*
X270348864Y-73168702D02*
X270277435Y-73097274D01*
X270277435Y-73097274D02*
X270206007Y-72954417D01*
X270206007Y-72954417D02*
X270206007Y-72597274D01*
X270206007Y-72597274D02*
X270277435Y-72454417D01*
X270277435Y-72454417D02*
X270348864Y-72382988D01*
X270348864Y-72382988D02*
X270491721Y-72311559D01*
X270491721Y-72311559D02*
X270848864Y-72311559D01*
X270848864Y-72311559D02*
X270991721Y-72382988D01*
X270991721Y-72382988D02*
X271063150Y-72454417D01*
X271063150Y-72454417D02*
X271134578Y-72597274D01*
X271134578Y-72597274D02*
X271134578Y-72954417D01*
X271134578Y-72954417D02*
X271063150Y-73097274D01*
X271063150Y-73097274D02*
X270991721Y-73168702D01*
X269634578Y-71382988D02*
X269634578Y-71240131D01*
X269634578Y-71240131D02*
X269706007Y-71097274D01*
X269706007Y-71097274D02*
X269777435Y-71025846D01*
X269777435Y-71025846D02*
X269920292Y-70954417D01*
X269920292Y-70954417D02*
X270206007Y-70882988D01*
X270206007Y-70882988D02*
X270563150Y-70882988D01*
X270563150Y-70882988D02*
X270848864Y-70954417D01*
X270848864Y-70954417D02*
X270991721Y-71025846D01*
X270991721Y-71025846D02*
X271063150Y-71097274D01*
X271063150Y-71097274D02*
X271134578Y-71240131D01*
X271134578Y-71240131D02*
X271134578Y-71382988D01*
X271134578Y-71382988D02*
X271063150Y-71525846D01*
X271063150Y-71525846D02*
X270991721Y-71597274D01*
X270991721Y-71597274D02*
X270848864Y-71668703D01*
X270848864Y-71668703D02*
X270563150Y-71740131D01*
X270563150Y-71740131D02*
X270206007Y-71740131D01*
X270206007Y-71740131D02*
X269920292Y-71668703D01*
X269920292Y-71668703D02*
X269777435Y-71597274D01*
X269777435Y-71597274D02*
X269706007Y-71525846D01*
X269706007Y-71525846D02*
X269634578Y-71382988D01*
X269634578Y-69954417D02*
X269634578Y-69811560D01*
X269634578Y-69811560D02*
X269706007Y-69668703D01*
X269706007Y-69668703D02*
X269777435Y-69597275D01*
X269777435Y-69597275D02*
X269920292Y-69525846D01*
X269920292Y-69525846D02*
X270206007Y-69454417D01*
X270206007Y-69454417D02*
X270563150Y-69454417D01*
X270563150Y-69454417D02*
X270848864Y-69525846D01*
X270848864Y-69525846D02*
X270991721Y-69597275D01*
X270991721Y-69597275D02*
X271063150Y-69668703D01*
X271063150Y-69668703D02*
X271134578Y-69811560D01*
X271134578Y-69811560D02*
X271134578Y-69954417D01*
X271134578Y-69954417D02*
X271063150Y-70097275D01*
X271063150Y-70097275D02*
X270991721Y-70168703D01*
X270991721Y-70168703D02*
X270848864Y-70240132D01*
X270848864Y-70240132D02*
X270563150Y-70311560D01*
X270563150Y-70311560D02*
X270206007Y-70311560D01*
X270206007Y-70311560D02*
X269920292Y-70240132D01*
X269920292Y-70240132D02*
X269777435Y-70168703D01*
X269777435Y-70168703D02*
X269706007Y-70097275D01*
X269706007Y-70097275D02*
X269634578Y-69954417D01*
X271134578Y-67668704D02*
X270134578Y-67668704D01*
X270277435Y-67668704D02*
X270206007Y-67597275D01*
X270206007Y-67597275D02*
X270134578Y-67454418D01*
X270134578Y-67454418D02*
X270134578Y-67240132D01*
X270134578Y-67240132D02*
X270206007Y-67097275D01*
X270206007Y-67097275D02*
X270348864Y-67025847D01*
X270348864Y-67025847D02*
X271134578Y-67025847D01*
X270348864Y-67025847D02*
X270206007Y-66954418D01*
X270206007Y-66954418D02*
X270134578Y-66811561D01*
X270134578Y-66811561D02*
X270134578Y-66597275D01*
X270134578Y-66597275D02*
X270206007Y-66454418D01*
X270206007Y-66454418D02*
X270348864Y-66382989D01*
X270348864Y-66382989D02*
X271134578Y-66382989D01*
X271134578Y-65668704D02*
X270134578Y-65668704D01*
X270277435Y-65668704D02*
X270206007Y-65597275D01*
X270206007Y-65597275D02*
X270134578Y-65454418D01*
X270134578Y-65454418D02*
X270134578Y-65240132D01*
X270134578Y-65240132D02*
X270206007Y-65097275D01*
X270206007Y-65097275D02*
X270348864Y-65025847D01*
X270348864Y-65025847D02*
X271134578Y-65025847D01*
X270348864Y-65025847D02*
X270206007Y-64954418D01*
X270206007Y-64954418D02*
X270134578Y-64811561D01*
X270134578Y-64811561D02*
X270134578Y-64597275D01*
X270134578Y-64597275D02*
X270206007Y-64454418D01*
X270206007Y-64454418D02*
X270348864Y-64382989D01*
X270348864Y-64382989D02*
X271134578Y-64382989D01*
D12*
X262437500Y-23812500D02*
X272842670Y-23812500D01*
X262437500Y-119062500D02*
X272842670Y-119062500D01*
X272256250Y-23812500D02*
X272256250Y-119062500D01*
X272256250Y-23812500D02*
X272256250Y-119062500D01*
X272256250Y-23812500D02*
X272842671Y-24939004D01*
X272256250Y-23812500D02*
X271669829Y-24939004D01*
X272256250Y-119062500D02*
X271669829Y-117935996D01*
X272256250Y-119062500D02*
X272842671Y-117935996D01*
D10*
D11*
X140192012Y-122933685D02*
X140263440Y-122862257D01*
X140263440Y-122862257D02*
X140406298Y-122790828D01*
X140406298Y-122790828D02*
X140763440Y-122790828D01*
X140763440Y-122790828D02*
X140906298Y-122862257D01*
X140906298Y-122862257D02*
X140977726Y-122933685D01*
X140977726Y-122933685D02*
X141049155Y-123076542D01*
X141049155Y-123076542D02*
X141049155Y-123219400D01*
X141049155Y-123219400D02*
X140977726Y-123433685D01*
X140977726Y-123433685D02*
X140120583Y-124290828D01*
X140120583Y-124290828D02*
X141049155Y-124290828D01*
X141620583Y-122933685D02*
X141692011Y-122862257D01*
X141692011Y-122862257D02*
X141834869Y-122790828D01*
X141834869Y-122790828D02*
X142192011Y-122790828D01*
X142192011Y-122790828D02*
X142334869Y-122862257D01*
X142334869Y-122862257D02*
X142406297Y-122933685D01*
X142406297Y-122933685D02*
X142477726Y-123076542D01*
X142477726Y-123076542D02*
X142477726Y-123219400D01*
X142477726Y-123219400D02*
X142406297Y-123433685D01*
X142406297Y-123433685D02*
X141549154Y-124290828D01*
X141549154Y-124290828D02*
X142477726Y-124290828D01*
X143334868Y-123433685D02*
X143192011Y-123362257D01*
X143192011Y-123362257D02*
X143120582Y-123290828D01*
X143120582Y-123290828D02*
X143049154Y-123147971D01*
X143049154Y-123147971D02*
X143049154Y-123076542D01*
X143049154Y-123076542D02*
X143120582Y-122933685D01*
X143120582Y-122933685D02*
X143192011Y-122862257D01*
X143192011Y-122862257D02*
X143334868Y-122790828D01*
X143334868Y-122790828D02*
X143620582Y-122790828D01*
X143620582Y-122790828D02*
X143763440Y-122862257D01*
X143763440Y-122862257D02*
X143834868Y-122933685D01*
X143834868Y-122933685D02*
X143906297Y-123076542D01*
X143906297Y-123076542D02*
X143906297Y-123147971D01*
X143906297Y-123147971D02*
X143834868Y-123290828D01*
X143834868Y-123290828D02*
X143763440Y-123362257D01*
X143763440Y-123362257D02*
X143620582Y-123433685D01*
X143620582Y-123433685D02*
X143334868Y-123433685D01*
X143334868Y-123433685D02*
X143192011Y-123505114D01*
X143192011Y-123505114D02*
X143120582Y-123576542D01*
X143120582Y-123576542D02*
X143049154Y-123719400D01*
X143049154Y-123719400D02*
X143049154Y-124005114D01*
X143049154Y-124005114D02*
X143120582Y-124147971D01*
X143120582Y-124147971D02*
X143192011Y-124219400D01*
X143192011Y-124219400D02*
X143334868Y-124290828D01*
X143334868Y-124290828D02*
X143620582Y-124290828D01*
X143620582Y-124290828D02*
X143763440Y-124219400D01*
X143763440Y-124219400D02*
X143834868Y-124147971D01*
X143834868Y-124147971D02*
X143906297Y-124005114D01*
X143906297Y-124005114D02*
X143906297Y-123719400D01*
X143906297Y-123719400D02*
X143834868Y-123576542D01*
X143834868Y-123576542D02*
X143763440Y-123505114D01*
X143763440Y-123505114D02*
X143620582Y-123433685D01*
X144549153Y-124147971D02*
X144620582Y-124219400D01*
X144620582Y-124219400D02*
X144549153Y-124290828D01*
X144549153Y-124290828D02*
X144477725Y-124219400D01*
X144477725Y-124219400D02*
X144549153Y-124147971D01*
X144549153Y-124147971D02*
X144549153Y-124290828D01*
X145906297Y-122790828D02*
X145620582Y-122790828D01*
X145620582Y-122790828D02*
X145477725Y-122862257D01*
X145477725Y-122862257D02*
X145406297Y-122933685D01*
X145406297Y-122933685D02*
X145263439Y-123147971D01*
X145263439Y-123147971D02*
X145192011Y-123433685D01*
X145192011Y-123433685D02*
X145192011Y-124005114D01*
X145192011Y-124005114D02*
X145263439Y-124147971D01*
X145263439Y-124147971D02*
X145334868Y-124219400D01*
X145334868Y-124219400D02*
X145477725Y-124290828D01*
X145477725Y-124290828D02*
X145763439Y-124290828D01*
X145763439Y-124290828D02*
X145906297Y-124219400D01*
X145906297Y-124219400D02*
X145977725Y-124147971D01*
X145977725Y-124147971D02*
X146049154Y-124005114D01*
X146049154Y-124005114D02*
X146049154Y-123647971D01*
X146049154Y-123647971D02*
X145977725Y-123505114D01*
X145977725Y-123505114D02*
X145906297Y-123433685D01*
X145906297Y-123433685D02*
X145763439Y-123362257D01*
X145763439Y-123362257D02*
X145477725Y-123362257D01*
X145477725Y-123362257D02*
X145334868Y-123433685D01*
X145334868Y-123433685D02*
X145263439Y-123505114D01*
X145263439Y-123505114D02*
X145192011Y-123647971D01*
X146977725Y-122790828D02*
X147120582Y-122790828D01*
X147120582Y-122790828D02*
X147263439Y-122862257D01*
X147263439Y-122862257D02*
X147334868Y-122933685D01*
X147334868Y-122933685D02*
X147406296Y-123076542D01*
X147406296Y-123076542D02*
X147477725Y-123362257D01*
X147477725Y-123362257D02*
X147477725Y-123719400D01*
X147477725Y-123719400D02*
X147406296Y-124005114D01*
X147406296Y-124005114D02*
X147334868Y-124147971D01*
X147334868Y-124147971D02*
X147263439Y-124219400D01*
X147263439Y-124219400D02*
X147120582Y-124290828D01*
X147120582Y-124290828D02*
X146977725Y-124290828D01*
X146977725Y-124290828D02*
X146834868Y-124219400D01*
X146834868Y-124219400D02*
X146763439Y-124147971D01*
X146763439Y-124147971D02*
X146692010Y-124005114D01*
X146692010Y-124005114D02*
X146620582Y-123719400D01*
X146620582Y-123719400D02*
X146620582Y-123362257D01*
X146620582Y-123362257D02*
X146692010Y-123076542D01*
X146692010Y-123076542D02*
X146763439Y-122933685D01*
X146763439Y-122933685D02*
X146834868Y-122862257D01*
X146834868Y-122862257D02*
X146977725Y-122790828D01*
X148406296Y-122790828D02*
X148549153Y-122790828D01*
X148549153Y-122790828D02*
X148692010Y-122862257D01*
X148692010Y-122862257D02*
X148763439Y-122933685D01*
X148763439Y-122933685D02*
X148834867Y-123076542D01*
X148834867Y-123076542D02*
X148906296Y-123362257D01*
X148906296Y-123362257D02*
X148906296Y-123719400D01*
X148906296Y-123719400D02*
X148834867Y-124005114D01*
X148834867Y-124005114D02*
X148763439Y-124147971D01*
X148763439Y-124147971D02*
X148692010Y-124219400D01*
X148692010Y-124219400D02*
X148549153Y-124290828D01*
X148549153Y-124290828D02*
X148406296Y-124290828D01*
X148406296Y-124290828D02*
X148263439Y-124219400D01*
X148263439Y-124219400D02*
X148192010Y-124147971D01*
X148192010Y-124147971D02*
X148120581Y-124005114D01*
X148120581Y-124005114D02*
X148049153Y-123719400D01*
X148049153Y-123719400D02*
X148049153Y-123362257D01*
X148049153Y-123362257D02*
X148120581Y-123076542D01*
X148120581Y-123076542D02*
X148192010Y-122933685D01*
X148192010Y-122933685D02*
X148263439Y-122862257D01*
X148263439Y-122862257D02*
X148406296Y-122790828D01*
X149834867Y-122790828D02*
X149977724Y-122790828D01*
X149977724Y-122790828D02*
X150120581Y-122862257D01*
X150120581Y-122862257D02*
X150192010Y-122933685D01*
X150192010Y-122933685D02*
X150263438Y-123076542D01*
X150263438Y-123076542D02*
X150334867Y-123362257D01*
X150334867Y-123362257D02*
X150334867Y-123719400D01*
X150334867Y-123719400D02*
X150263438Y-124005114D01*
X150263438Y-124005114D02*
X150192010Y-124147971D01*
X150192010Y-124147971D02*
X150120581Y-124219400D01*
X150120581Y-124219400D02*
X149977724Y-124290828D01*
X149977724Y-124290828D02*
X149834867Y-124290828D01*
X149834867Y-124290828D02*
X149692010Y-124219400D01*
X149692010Y-124219400D02*
X149620581Y-124147971D01*
X149620581Y-124147971D02*
X149549152Y-124005114D01*
X149549152Y-124005114D02*
X149477724Y-123719400D01*
X149477724Y-123719400D02*
X149477724Y-123362257D01*
X149477724Y-123362257D02*
X149549152Y-123076542D01*
X149549152Y-123076542D02*
X149620581Y-122933685D01*
X149620581Y-122933685D02*
X149692010Y-122862257D01*
X149692010Y-122862257D02*
X149834867Y-122790828D01*
X152120580Y-124290828D02*
X152120580Y-123290828D01*
X152120580Y-123433685D02*
X152192009Y-123362257D01*
X152192009Y-123362257D02*
X152334866Y-123290828D01*
X152334866Y-123290828D02*
X152549152Y-123290828D01*
X152549152Y-123290828D02*
X152692009Y-123362257D01*
X152692009Y-123362257D02*
X152763438Y-123505114D01*
X152763438Y-123505114D02*
X152763438Y-124290828D01*
X152763438Y-123505114D02*
X152834866Y-123362257D01*
X152834866Y-123362257D02*
X152977723Y-123290828D01*
X152977723Y-123290828D02*
X153192009Y-123290828D01*
X153192009Y-123290828D02*
X153334866Y-123362257D01*
X153334866Y-123362257D02*
X153406295Y-123505114D01*
X153406295Y-123505114D02*
X153406295Y-124290828D01*
X154120580Y-124290828D02*
X154120580Y-123290828D01*
X154120580Y-123433685D02*
X154192009Y-123362257D01*
X154192009Y-123362257D02*
X154334866Y-123290828D01*
X154334866Y-123290828D02*
X154549152Y-123290828D01*
X154549152Y-123290828D02*
X154692009Y-123362257D01*
X154692009Y-123362257D02*
X154763438Y-123505114D01*
X154763438Y-123505114D02*
X154763438Y-124290828D01*
X154763438Y-123505114D02*
X154834866Y-123362257D01*
X154834866Y-123362257D02*
X154977723Y-123290828D01*
X154977723Y-123290828D02*
X155192009Y-123290828D01*
X155192009Y-123290828D02*
X155334866Y-123362257D01*
X155334866Y-123362257D02*
X155406295Y-123505114D01*
X155406295Y-123505114D02*
X155406295Y-124290828D01*
D12*
X33337500Y-118768750D02*
X33337500Y-125998920D01*
X261937500Y-118768750D02*
X261937500Y-125998920D01*
X33337500Y-125412500D02*
X261937500Y-125412500D01*
X33337500Y-125412500D02*
X261937500Y-125412500D01*
X33337500Y-125412500D02*
X34464004Y-124826079D01*
X33337500Y-125412500D02*
X34464004Y-125998921D01*
X261937500Y-125412500D02*
X260810996Y-125998921D01*
X261937500Y-125412500D02*
X260810996Y-124826079D01*
D10*
D11*
X274609118Y-77443341D02*
X274609210Y-77157627D01*
X274609210Y-77157627D02*
X274537828Y-77014747D01*
X274537828Y-77014747D02*
X274466423Y-76943295D01*
X274466423Y-76943295D02*
X274252183Y-76800369D01*
X274252183Y-76800369D02*
X273966492Y-76728848D01*
X273966492Y-76728848D02*
X273395064Y-76728662D01*
X273395064Y-76728662D02*
X273252183Y-76800045D01*
X273252183Y-76800045D02*
X273180732Y-76871450D01*
X273180732Y-76871450D02*
X273109257Y-77014284D01*
X273109257Y-77014284D02*
X273109164Y-77299998D01*
X273109164Y-77299998D02*
X273180546Y-77442879D01*
X273180546Y-77442879D02*
X273251952Y-77514330D01*
X273251952Y-77514330D02*
X273394786Y-77585805D01*
X273394786Y-77585805D02*
X273751929Y-77585921D01*
X273751929Y-77585921D02*
X273894809Y-77514539D01*
X273894809Y-77514539D02*
X273966261Y-77443133D01*
X273966261Y-77443133D02*
X274037736Y-77300299D01*
X274037736Y-77300299D02*
X274037828Y-77014585D01*
X274037828Y-77014585D02*
X273966446Y-76871705D01*
X273966446Y-76871705D02*
X273895040Y-76800253D01*
X273895040Y-76800253D02*
X273752206Y-76728778D01*
X273752484Y-75871636D02*
X273681009Y-76014470D01*
X273681009Y-76014470D02*
X273609557Y-76085875D01*
X273609557Y-76085875D02*
X273466677Y-76157257D01*
X273466677Y-76157257D02*
X273395249Y-76157234D01*
X273395249Y-76157234D02*
X273252415Y-76085759D01*
X273252415Y-76085759D02*
X273181009Y-76014308D01*
X273181009Y-76014308D02*
X273109627Y-75871427D01*
X273109627Y-75871427D02*
X273109719Y-75585713D01*
X273109719Y-75585713D02*
X273181194Y-75442879D01*
X273181194Y-75442879D02*
X273252646Y-75371474D01*
X273252646Y-75371474D02*
X273395526Y-75300092D01*
X273395526Y-75300092D02*
X273466955Y-75300115D01*
X273466955Y-75300115D02*
X273609789Y-75371589D01*
X273609789Y-75371589D02*
X273681194Y-75443041D01*
X273681194Y-75443041D02*
X273752577Y-75585921D01*
X273752577Y-75585921D02*
X273752484Y-75871636D01*
X273752484Y-75871636D02*
X273823866Y-76014516D01*
X273823866Y-76014516D02*
X273895272Y-76085968D01*
X273895272Y-76085968D02*
X274038106Y-76157443D01*
X274038106Y-76157443D02*
X274323820Y-76157535D01*
X274323820Y-76157535D02*
X274466700Y-76086153D01*
X274466700Y-76086153D02*
X274538152Y-76014747D01*
X274538152Y-76014747D02*
X274609627Y-75871913D01*
X274609627Y-75871913D02*
X274609719Y-75586199D01*
X274609719Y-75586199D02*
X274538337Y-75443319D01*
X274538337Y-75443319D02*
X274466932Y-75371867D01*
X274466932Y-75371867D02*
X274324098Y-75300392D01*
X274324098Y-75300392D02*
X274038383Y-75300300D01*
X274038383Y-75300300D02*
X273895503Y-75371682D01*
X273895503Y-75371682D02*
X273824051Y-75443087D01*
X273824051Y-75443087D02*
X273752577Y-75585921D01*
X274467163Y-74657582D02*
X274538615Y-74586176D01*
X274538615Y-74586176D02*
X274610020Y-74657628D01*
X274610020Y-74657628D02*
X274538569Y-74729034D01*
X274538569Y-74729034D02*
X274467163Y-74657582D01*
X274467163Y-74657582D02*
X274610020Y-74657628D01*
X273110344Y-73657142D02*
X273110391Y-73514285D01*
X273110391Y-73514285D02*
X273181865Y-73371451D01*
X273181865Y-73371451D02*
X273253317Y-73300045D01*
X273253317Y-73300045D02*
X273396197Y-73228663D01*
X273396197Y-73228663D02*
X273681935Y-73157327D01*
X273681935Y-73157327D02*
X274039078Y-73157443D01*
X274039078Y-73157443D02*
X274324769Y-73228964D01*
X274324769Y-73228964D02*
X274467603Y-73300439D01*
X274467603Y-73300439D02*
X274539008Y-73371891D01*
X274539008Y-73371891D02*
X274610390Y-73514771D01*
X274610390Y-73514771D02*
X274610344Y-73657628D01*
X274610344Y-73657628D02*
X274538869Y-73800462D01*
X274538869Y-73800462D02*
X274467418Y-73871867D01*
X274467418Y-73871867D02*
X274324537Y-73943250D01*
X274324537Y-73943250D02*
X274038800Y-74014586D01*
X274038800Y-74014586D02*
X273681657Y-74014470D01*
X273681657Y-74014470D02*
X273395966Y-73942949D01*
X273395966Y-73942949D02*
X273253132Y-73871474D01*
X273253132Y-73871474D02*
X273181727Y-73800022D01*
X273181727Y-73800022D02*
X273110344Y-73657142D01*
X274610969Y-71729057D02*
X274610691Y-72586200D01*
X274610830Y-72157628D02*
X273110830Y-72157143D01*
X273110830Y-72157143D02*
X273325070Y-72300069D01*
X273325070Y-72300069D02*
X273467880Y-72442973D01*
X273467880Y-72442973D02*
X273539263Y-72585853D01*
X273254011Y-71157189D02*
X273182606Y-71085738D01*
X273182606Y-71085738D02*
X273111223Y-70942857D01*
X273111223Y-70942857D02*
X273111339Y-70585714D01*
X273111339Y-70585714D02*
X273182814Y-70442880D01*
X273182814Y-70442880D02*
X273254266Y-70371475D01*
X273254266Y-70371475D02*
X273397146Y-70300093D01*
X273397146Y-70300093D02*
X273540003Y-70300139D01*
X273540003Y-70300139D02*
X273754266Y-70371637D01*
X273754266Y-70371637D02*
X274611131Y-71229058D01*
X274611131Y-71229058D02*
X274611432Y-70300486D01*
X273111594Y-69800001D02*
X273111895Y-68871429D01*
X273111895Y-68871429D02*
X273683161Y-69371614D01*
X273683161Y-69371614D02*
X273683230Y-69157329D01*
X273683230Y-69157329D02*
X273754705Y-69014495D01*
X273754705Y-69014495D02*
X273826157Y-68943089D01*
X273826157Y-68943089D02*
X273969037Y-68871707D01*
X273969037Y-68871707D02*
X274326180Y-68871823D01*
X274326180Y-68871823D02*
X274469014Y-68943297D01*
X274469014Y-68943297D02*
X274540420Y-69014749D01*
X274540420Y-69014749D02*
X274611802Y-69157629D01*
X274611802Y-69157629D02*
X274611663Y-69586201D01*
X274611663Y-69586201D02*
X274540188Y-69729035D01*
X274540188Y-69729035D02*
X274468736Y-69800440D01*
X274612473Y-67086202D02*
X273612473Y-67085878D01*
X273755330Y-67085924D02*
X273683925Y-67014472D01*
X273683925Y-67014472D02*
X273612542Y-66871592D01*
X273612542Y-66871592D02*
X273612612Y-66657306D01*
X273612612Y-66657306D02*
X273684087Y-66514472D01*
X273684087Y-66514472D02*
X273826967Y-66443090D01*
X273826967Y-66443090D02*
X274612681Y-66443344D01*
X273826967Y-66443090D02*
X273684133Y-66371615D01*
X273684133Y-66371615D02*
X273612751Y-66228735D01*
X273612751Y-66228735D02*
X273612820Y-66014449D01*
X273612820Y-66014449D02*
X273684295Y-65871615D01*
X273684295Y-65871615D02*
X273827175Y-65800233D01*
X273827175Y-65800233D02*
X274612889Y-65800487D01*
X274613121Y-65086202D02*
X273613121Y-65085878D01*
X273755978Y-65085924D02*
X273684573Y-65014472D01*
X273684573Y-65014472D02*
X273613190Y-64871592D01*
X273613190Y-64871592D02*
X273613260Y-64657306D01*
X273613260Y-64657306D02*
X273684735Y-64514472D01*
X273684735Y-64514472D02*
X273827615Y-64443090D01*
X273827615Y-64443090D02*
X274613329Y-64443345D01*
X273827615Y-64443090D02*
X273684781Y-64371615D01*
X273684781Y-64371615D02*
X273613398Y-64228735D01*
X273613398Y-64228735D02*
X273613468Y-64014449D01*
X273613468Y-64014449D02*
X273684943Y-63871615D01*
X273684943Y-63871615D02*
X273827823Y-63800233D01*
X273827823Y-63800233D02*
X274613537Y-63800487D01*
D12*
X260088000Y-21844163D02*
X276335219Y-21849426D01*
X260056250Y-119856412D02*
X276303469Y-119861675D01*
X275748799Y-21849236D02*
X275717049Y-119861485D01*
X275748799Y-21849236D02*
X275717049Y-119861485D01*
X275748799Y-21849236D02*
X276334855Y-22975930D01*
X275748799Y-21849236D02*
X275162013Y-22975550D01*
X275717049Y-119861485D02*
X275130993Y-118734791D01*
X275717049Y-119861485D02*
X276303835Y-118735171D01*
D13*
X242887500Y-42862500D03*
X242887500Y-100012500D03*
X147637500Y-61912500D03*
X147486914Y-100010649D03*
X52387500Y-100012500D03*
X52387500Y-42862500D03*
D14*
X57150000Y-42862500D03*
D15*
X64770000Y-42862500D03*
D16*
X211157501Y-87217500D03*
D17*
X211812500Y-86487500D03*
D18*
X216832500Y-85697500D03*
D17*
X216852500Y-85407500D03*
D14*
X242697000Y-36322000D03*
D15*
X242697000Y-28702000D03*
D16*
X58757501Y-87217500D03*
D17*
X59412500Y-86487500D03*
D18*
X64432500Y-85697500D03*
D17*
X64452500Y-85407500D03*
D19*
X46196250Y-42862500D03*
D20*
X43656250Y-42862500D03*
X41116250Y-42862500D03*
D14*
X242887500Y-75247500D03*
D15*
X242887500Y-67627500D03*
D16*
X154007501Y-30067500D03*
D17*
X154662500Y-29337500D03*
D18*
X159682500Y-28547500D03*
D17*
X159702500Y-28257500D03*
D14*
X204787500Y-75247500D03*
D15*
X204787500Y-67627500D03*
D14*
X242887500Y-113347500D03*
D15*
X242887500Y-105727500D03*
D16*
X249257501Y-87217500D03*
D17*
X249912500Y-86487500D03*
D18*
X254932500Y-85697500D03*
D17*
X254952500Y-85407500D03*
D14*
X109537500Y-55403750D03*
D15*
X109537500Y-47783750D03*
D16*
X154007501Y-49117500D03*
D17*
X154662500Y-48387500D03*
D18*
X159682500Y-47597500D03*
D17*
X159702500Y-47307500D03*
D14*
X166687500Y-94297500D03*
D15*
X166687500Y-86677500D03*
D14*
X147637500Y-94297500D03*
D15*
X147637500Y-86677500D03*
D16*
X96857501Y-49117500D03*
D17*
X97512500Y-48387500D03*
D18*
X102532500Y-47597500D03*
D17*
X102552500Y-47307500D03*
D16*
X134957501Y-106267500D03*
D17*
X135612500Y-105537500D03*
D18*
X140632500Y-104747500D03*
D17*
X140652500Y-104457500D03*
D16*
X134957501Y-87217500D03*
D17*
X135612500Y-86487500D03*
D18*
X140632500Y-85697500D03*
D17*
X140652500Y-85407500D03*
D14*
X109537500Y-36353750D03*
D15*
X109537500Y-28733750D03*
D16*
X154007501Y-87217500D03*
D17*
X154662500Y-86487500D03*
D18*
X159682500Y-85697500D03*
D17*
X159702500Y-85407500D03*
D16*
X173057501Y-49117500D03*
D17*
X173712500Y-48387500D03*
D18*
X178732500Y-47597500D03*
D17*
X178752500Y-47307500D03*
D16*
X115907501Y-49117500D03*
D17*
X116562500Y-48387500D03*
D18*
X121582500Y-47597500D03*
D17*
X121602500Y-47307500D03*
D14*
X128587500Y-94297500D03*
D15*
X128587500Y-86677500D03*
D16*
X173057501Y-87217500D03*
D17*
X173712500Y-86487500D03*
D18*
X178732500Y-85697500D03*
D17*
X178752500Y-85407500D03*
D14*
X128587500Y-113347500D03*
D15*
X128587500Y-105727500D03*
D14*
X185737500Y-113347500D03*
D15*
X185737500Y-105727500D03*
D16*
X58757501Y-68167500D03*
D17*
X59412500Y-67437500D03*
D18*
X64432500Y-66647500D03*
D17*
X64452500Y-66357500D03*
D16*
X192107501Y-49117500D03*
D17*
X192762500Y-48387500D03*
D18*
X197782500Y-47597500D03*
D17*
X197802500Y-47307500D03*
D14*
X223837500Y-36353750D03*
D15*
X223837500Y-28733750D03*
D14*
X247808750Y-100012500D03*
D15*
X255428750Y-100012500D03*
D14*
X71437500Y-113347500D03*
D15*
X71437500Y-105727500D03*
D16*
X173057501Y-30067500D03*
D17*
X173712500Y-29337500D03*
D18*
X178732500Y-28547500D03*
D17*
X178752500Y-28257500D03*
D14*
X204787500Y-94297500D03*
D15*
X204787500Y-86677500D03*
D16*
X115907501Y-30067500D03*
D17*
X116562500Y-29337500D03*
D18*
X121582500Y-28547500D03*
D17*
X121602500Y-28257500D03*
D16*
X192107501Y-87217500D03*
D17*
X192762500Y-86487500D03*
D18*
X197782500Y-85697500D03*
D17*
X197802500Y-85407500D03*
D14*
X71437500Y-94297500D03*
D15*
X71437500Y-86677500D03*
D14*
X185737500Y-75247500D03*
D15*
X185737500Y-67627500D03*
D14*
X147637500Y-36353750D03*
D15*
X147637500Y-28733750D03*
D14*
X204787500Y-36353750D03*
D15*
X204787500Y-28733750D03*
D14*
X62706250Y-61912500D03*
D15*
X70326250Y-61912500D03*
D16*
X77807501Y-68167500D03*
D17*
X78462500Y-67437500D03*
D18*
X83482500Y-66647500D03*
D17*
X83502500Y-66357500D03*
D16*
X230207501Y-68167500D03*
D17*
X230862500Y-67437500D03*
D18*
X235882500Y-66647500D03*
D17*
X235902500Y-66357500D03*
D14*
X228346000Y-98552000D03*
D15*
X235966000Y-98552000D03*
D16*
X154007501Y-106267500D03*
D17*
X154662500Y-105537500D03*
D18*
X159682500Y-104747500D03*
D17*
X159702500Y-104457500D03*
D14*
X52387500Y-75247500D03*
D15*
X52387500Y-67627500D03*
D14*
X223837500Y-94297500D03*
D15*
X223837500Y-86677500D03*
D16*
X230207501Y-106267500D03*
D17*
X230862500Y-105537500D03*
D18*
X235882500Y-104747500D03*
D17*
X235902500Y-104457500D03*
D14*
X247700800Y-61823600D03*
D15*
X255320800Y-61823600D03*
D16*
X134957501Y-30067500D03*
D17*
X135612500Y-29337500D03*
D18*
X140632500Y-28547500D03*
D17*
X140652500Y-28257500D03*
D16*
X230207501Y-30067500D03*
D17*
X230862500Y-29337500D03*
D18*
X235882500Y-28547500D03*
D17*
X235902500Y-28257500D03*
D16*
X211157501Y-30067500D03*
D17*
X211812500Y-29337500D03*
D18*
X216832500Y-28547500D03*
D17*
X216852500Y-28257500D03*
D16*
X58757501Y-30067500D03*
D17*
X59412500Y-29337500D03*
D18*
X64432500Y-28547500D03*
D17*
X64452500Y-28257500D03*
D16*
X77807501Y-106267500D03*
D17*
X78462500Y-105537500D03*
D18*
X83482500Y-104747500D03*
D17*
X83502500Y-104457500D03*
D14*
X128587500Y-36353750D03*
D15*
X128587500Y-28733750D03*
D14*
X109537500Y-113347500D03*
D15*
X109537500Y-105727500D03*
D16*
X77807501Y-87217500D03*
D17*
X78462500Y-86487500D03*
D18*
X83482500Y-85697500D03*
D17*
X83502500Y-85407500D03*
D16*
X115907501Y-68167500D03*
D17*
X116562500Y-67437500D03*
D18*
X121582500Y-66647500D03*
D17*
X121602500Y-66357500D03*
D16*
X58757501Y-49117500D03*
D17*
X59412500Y-48387500D03*
D18*
X64432500Y-47597500D03*
D17*
X64452500Y-47307500D03*
D16*
X211157501Y-106267500D03*
D17*
X211812500Y-105537500D03*
D18*
X216832500Y-104747500D03*
D17*
X216852500Y-104457500D03*
D16*
X39707501Y-87217500D03*
D17*
X40362500Y-86487500D03*
D18*
X45382500Y-85697500D03*
D17*
X45402500Y-85407500D03*
D14*
X223837500Y-55403750D03*
D15*
X223837500Y-47783750D03*
D14*
X52387500Y-55403750D03*
D15*
X52387500Y-47783750D03*
D16*
X249257501Y-30067500D03*
D17*
X249912500Y-29337500D03*
D18*
X254932500Y-28547500D03*
D17*
X254952500Y-28257500D03*
D16*
X39707501Y-30067500D03*
D17*
X40362500Y-29337500D03*
D18*
X45382500Y-28547500D03*
D17*
X45402500Y-28257500D03*
D14*
X52387500Y-113347500D03*
D15*
X52387500Y-105727500D03*
D14*
X185737500Y-55403750D03*
D15*
X185737500Y-47783750D03*
D16*
X115907501Y-87217500D03*
D17*
X116562500Y-86487500D03*
D18*
X121582500Y-85697500D03*
D17*
X121602500Y-85407500D03*
D14*
X166687500Y-75247500D03*
D15*
X166687500Y-67627500D03*
D14*
X86487000Y-61912500D03*
D15*
X94107000Y-61912500D03*
D16*
X230207501Y-87217500D03*
D17*
X230862500Y-86487500D03*
D18*
X235882500Y-85697500D03*
D17*
X235902500Y-85407500D03*
D16*
X211157501Y-68167500D03*
D17*
X211812500Y-67437500D03*
D18*
X216832500Y-66647500D03*
D17*
X216852500Y-66357500D03*
D14*
X147637500Y-75247500D03*
D15*
X147637500Y-67627500D03*
D14*
X71437500Y-75247500D03*
D15*
X71437500Y-67627500D03*
D14*
X90487500Y-113347500D03*
D15*
X90487500Y-105727500D03*
D14*
X204787500Y-55403750D03*
D15*
X204787500Y-47783750D03*
D14*
X147637500Y-113347500D03*
D15*
X147637500Y-105727500D03*
D14*
X75438000Y-61976000D03*
D15*
X83058000Y-61976000D03*
D16*
X249257501Y-68167500D03*
D17*
X249912500Y-67437500D03*
D18*
X254932500Y-66647500D03*
D17*
X254952500Y-66357500D03*
D16*
X192107501Y-30067500D03*
D17*
X192762500Y-29337500D03*
D18*
X197782500Y-28547500D03*
D17*
X197802500Y-28257500D03*
D14*
X52387500Y-94297500D03*
D15*
X52387500Y-86677500D03*
D14*
X185737500Y-36353750D03*
D15*
X185737500Y-28733750D03*
D16*
X249257501Y-49117500D03*
D17*
X249912500Y-48387500D03*
D18*
X254932500Y-47597500D03*
D17*
X254952500Y-47307500D03*
D16*
X39707501Y-68167500D03*
D17*
X40362500Y-67437500D03*
D18*
X45382500Y-66647500D03*
D17*
X45402500Y-66357500D03*
D16*
X96857501Y-30067500D03*
D17*
X97512500Y-29337500D03*
D18*
X102532500Y-28547500D03*
D17*
X102552500Y-28257500D03*
D16*
X154007501Y-68167500D03*
D17*
X154662500Y-67437500D03*
D18*
X159682500Y-66647500D03*
D17*
X159702500Y-66357500D03*
D16*
X58757501Y-106267500D03*
D17*
X59412500Y-105537500D03*
D18*
X64432500Y-104747500D03*
D17*
X64452500Y-104457500D03*
D16*
X39707501Y-106267500D03*
D17*
X40362500Y-105537500D03*
D18*
X45382500Y-104747500D03*
D17*
X45402500Y-104457500D03*
D16*
X134957501Y-68167500D03*
D17*
X135612500Y-67437500D03*
D18*
X140632500Y-66647500D03*
D17*
X140652500Y-66357500D03*
D14*
X128587500Y-75247500D03*
D15*
X128587500Y-67627500D03*
D16*
X192107501Y-68167500D03*
D17*
X192762500Y-67437500D03*
D18*
X197782500Y-66647500D03*
D17*
X197802500Y-66357500D03*
D16*
X134957501Y-49117500D03*
D17*
X135612500Y-48387500D03*
D18*
X140632500Y-47597500D03*
D17*
X140652500Y-47307500D03*
D14*
X128587500Y-55403750D03*
D15*
X128587500Y-47783750D03*
D16*
X249257501Y-106267500D03*
D17*
X249912500Y-105537500D03*
D18*
X254932500Y-104747500D03*
D17*
X254952500Y-104457500D03*
D14*
X166687500Y-55403750D03*
D15*
X166687500Y-47783750D03*
D14*
X223837500Y-113347500D03*
D15*
X223837500Y-105727500D03*
D14*
X223837500Y-75247500D03*
D15*
X223837500Y-67627500D03*
D14*
X109537500Y-94297500D03*
D15*
X109537500Y-86677500D03*
D14*
X90487500Y-75247500D03*
D15*
X90487500Y-67627500D03*
D16*
X96857501Y-87217500D03*
D17*
X97512500Y-86487500D03*
D18*
X102532500Y-85697500D03*
D17*
X102552500Y-85407500D03*
D14*
X247808750Y-80962500D03*
D15*
X255428750Y-80962500D03*
D16*
X115907501Y-106267500D03*
D17*
X116562500Y-105537500D03*
D18*
X121582500Y-104747500D03*
D17*
X121602500Y-104457500D03*
D14*
X166687500Y-36353750D03*
D15*
X166687500Y-28733750D03*
D14*
X166687500Y-113347500D03*
D15*
X166687500Y-105727500D03*
D14*
X52387500Y-36512500D03*
D15*
X52387500Y-28892500D03*
D14*
X204787500Y-113347500D03*
D15*
X204787500Y-105727500D03*
D14*
X247650000Y-42862500D03*
D15*
X255270000Y-42862500D03*
D14*
X109537500Y-75247500D03*
D15*
X109537500Y-67627500D03*
D14*
X90487500Y-94297500D03*
D15*
X90487500Y-86677500D03*
D14*
X147637500Y-55403750D03*
D15*
X147637500Y-47783750D03*
D16*
X96857501Y-68167500D03*
D17*
X97512500Y-67437500D03*
D18*
X102532500Y-66647500D03*
D17*
X102552500Y-66357500D03*
D16*
X173057501Y-106267500D03*
D17*
X173712500Y-105537500D03*
D18*
X178732500Y-104747500D03*
D17*
X178752500Y-104457500D03*
D14*
X242887500Y-55403750D03*
D15*
X242887500Y-47783750D03*
D14*
X185737500Y-94297500D03*
D15*
X185737500Y-86677500D03*
D16*
X230207501Y-49117500D03*
D17*
X230862500Y-48387500D03*
D18*
X235882500Y-47597500D03*
D17*
X235902500Y-47307500D03*
D14*
X242887500Y-93503750D03*
D15*
X242887500Y-85883750D03*
D16*
X39707501Y-49117500D03*
D17*
X40362500Y-48387500D03*
D18*
X45382500Y-47597500D03*
D17*
X45402500Y-47307500D03*
D16*
X192107501Y-106267500D03*
D17*
X192762500Y-105537500D03*
D18*
X197782500Y-104747500D03*
D17*
X197802500Y-104457500D03*
D16*
X77807501Y-49117500D03*
D17*
X78462500Y-48387500D03*
D18*
X83482500Y-47597500D03*
D17*
X83502500Y-47307500D03*
D16*
X96857501Y-106267500D03*
D17*
X97512500Y-105537500D03*
D18*
X102532500Y-104747500D03*
D17*
X102552500Y-104457500D03*
D16*
X77807501Y-30067500D03*
D17*
X78462500Y-29337500D03*
D18*
X83482500Y-28547500D03*
D17*
X83502500Y-28257500D03*
D16*
X211157501Y-49117500D03*
D17*
X211812500Y-48387500D03*
D18*
X216832500Y-47597500D03*
D17*
X216852500Y-47307500D03*
D16*
X173057501Y-68167500D03*
D17*
X173712500Y-67437500D03*
D18*
X178732500Y-66647500D03*
D17*
X178752500Y-66357500D03*
D21*
X54637500Y-58662500D03*
X50137500Y-65162500D03*
X50137500Y-58662500D03*
X54637500Y-65162500D03*
D22*
X88582500Y-26116750D03*
D23*
X88582500Y-28656750D03*
X88582500Y-31196750D03*
X88582500Y-33736750D03*
X88582500Y-36276750D03*
X88582500Y-38816750D03*
X88582500Y-41356750D03*
X88582500Y-43896750D03*
X88582500Y-46436750D03*
X88582500Y-48976750D03*
X88582500Y-51516750D03*
X88582500Y-54056750D03*
X73342500Y-54056750D03*
X73342500Y-51516750D03*
X73342500Y-48976750D03*
X73342500Y-46436750D03*
X73342500Y-43896750D03*
X73342500Y-41356750D03*
X73342500Y-38816750D03*
X73342500Y-36276750D03*
X73342500Y-33736750D03*
X73342500Y-31196750D03*
X73342500Y-28656750D03*
X73342500Y-26116750D03*
D24*
X68979326Y-27858174D03*
D25*
X39624000Y-50419000D02*
X39624000Y-62230000D01*
X39052500Y-49847500D02*
X39624000Y-50419000D01*
X40362500Y-62968500D02*
X40362500Y-67437500D01*
X40362500Y-29337500D02*
X45887500Y-23812500D01*
X40362500Y-29337500D02*
X40362500Y-38377500D01*
X38735000Y-40005000D02*
X38735000Y-46760000D01*
X38735000Y-46760000D02*
X40362500Y-48387500D01*
X40362500Y-38377500D02*
X38735000Y-40005000D01*
X40362500Y-67437500D02*
X40362500Y-105537500D01*
X64933652Y-23812500D02*
X68979326Y-27858174D01*
X45887500Y-23812500D02*
X64933652Y-23812500D01*
X39624000Y-62230000D02*
X40362500Y-62968500D01*
X59412500Y-29337500D02*
X59412500Y-48387500D01*
X59412500Y-48387500D02*
X59412500Y-67437500D01*
X59412500Y-86487500D02*
X59412500Y-105537500D01*
X59412500Y-67437500D02*
X59412500Y-86487500D01*
X78462500Y-29337500D02*
X78462500Y-105537500D01*
X83820000Y-51894867D02*
X83820000Y-53289200D01*
X80312633Y-48387500D02*
X83820000Y-51894867D01*
X83820000Y-53289200D02*
X84587550Y-54056750D01*
X84587550Y-54056750D02*
X88582500Y-54056750D01*
X78462500Y-48387500D02*
X80312633Y-48387500D01*
X97512500Y-29337500D02*
X97512500Y-105537500D01*
X116562500Y-29337500D02*
X116562500Y-105537500D01*
X135612500Y-29337500D02*
X135612500Y-105537500D01*
X154662500Y-29337500D02*
X154662500Y-105537500D01*
X173712500Y-29337500D02*
X173712500Y-105537500D01*
X192762500Y-29337500D02*
X192762500Y-105537500D01*
X211812500Y-29337500D02*
X211812500Y-105537500D01*
X230862500Y-29337500D02*
X230862500Y-105537500D01*
X248602500Y-30797500D02*
X249912500Y-32107500D01*
X249912500Y-32107500D02*
X249912500Y-105537500D01*
X64293750Y-30956250D02*
X64293750Y-36512500D01*
X64293750Y-36512500D02*
X71678000Y-43896750D01*
X71678000Y-43896750D02*
X73342500Y-43896750D01*
X58737500Y-26987500D02*
X60325000Y-26987500D01*
X46196250Y-42862500D02*
X46196250Y-39528750D01*
X60325000Y-26987500D02*
X64293750Y-30956250D01*
X46196250Y-39528750D02*
X58737500Y-26987500D01*
D26*
X75320750Y-26678500D02*
X84463500Y-26678500D01*
X73342500Y-28656750D02*
X75320750Y-26678500D01*
X88582500Y-30797500D02*
X88582500Y-31196750D01*
X88582500Y-31194259D02*
X88582500Y-31196750D01*
X84463500Y-26678500D02*
X88582500Y-30797500D01*
X40364599Y-51075401D02*
X43656250Y-47783750D01*
X40364599Y-55389599D02*
X40364599Y-51075401D01*
X50137500Y-65162500D02*
X40364599Y-55389599D01*
X88582500Y-31196750D02*
X88582500Y-33736750D01*
X43656250Y-47783750D02*
X43656250Y-42862500D01*
X41116250Y-42862500D02*
X41116250Y-42788657D01*
X58758907Y-25146000D02*
X64751750Y-25146000D01*
X41116250Y-42788657D02*
X58758907Y-25146000D01*
X64751750Y-25146000D02*
X73342500Y-33736750D01*
D25*
X72136000Y-47643250D02*
X73342500Y-46436750D01*
X72136000Y-49546854D02*
X72136000Y-47643250D01*
X64561300Y-61912500D02*
X70289000Y-56184800D01*
X70289000Y-51393854D02*
X72136000Y-49546854D01*
X62706250Y-61912500D02*
X64561300Y-61912500D01*
X70289000Y-56184800D02*
X70289000Y-51393854D01*
X69659500Y-75247500D02*
X68580000Y-74168000D01*
X70739000Y-56388000D02*
X70739000Y-51580250D01*
X71437500Y-75247500D02*
X69659500Y-75247500D01*
X68580000Y-58547000D02*
X70739000Y-56388000D01*
X70739000Y-51580250D02*
X73342500Y-48976750D01*
X68580000Y-74168000D02*
X68580000Y-58547000D01*
X73025000Y-65532000D02*
X73025000Y-92837000D01*
X73342500Y-51516750D02*
X72141200Y-52718050D01*
X73025000Y-92837000D02*
X71564500Y-94297500D01*
X72122950Y-52718050D02*
X72009000Y-52832000D01*
X72141200Y-52718050D02*
X72122950Y-52718050D01*
X72009000Y-64516000D02*
X73025000Y-65532000D01*
X71564500Y-94297500D02*
X71437500Y-94297500D01*
X72009000Y-52832000D02*
X72009000Y-64516000D01*
X73342500Y-54056750D02*
X73787000Y-54501250D01*
X73787000Y-110998000D02*
X71437500Y-113347500D01*
X73787000Y-54501250D02*
X73787000Y-110998000D01*
X103028750Y-28733750D02*
X102552500Y-28257500D01*
M02*
