M48
; DRILL file {KiCad (6.0.11)} date Mon 20 Mar 2023 22:28:08 CET
; FORMAT={-:-/ absolute / metric / decimal}
; #@! TF.CreationDate,2023-03-20T22:28:08+01:00
; #@! TF.GenerationSoftware,Kicad,Pcbnew,(6.0.11)
; #@! TF.FileFunction,Plated,1,2,PTH
FMAT,2
METRIC
; #@! TA.AperFunction,Plated,PTH,ViaDrill
T1C0.400
; #@! TA.AperFunction,Plated,PTH,ComponentDrill
T2C0.800
; #@! TA.AperFunction,Plated,PTH,ComponentDrill
T3C1.000
; #@! TA.AperFunction,Plated,PTH,ComponentDrill
T4C1.092
; #@! TA.AperFunction,Plated,PTH,ComponentDrill
T5C1.470
; #@! TA.AperFunction,Plated,PTH,ComponentDrill
T6C2.200
%
G90
G05
T1
X191.238Y-113.712
T2
X65.532Y-142.683
X67.116Y-135.229
X69.493Y-124.049
X71.077Y-116.595
X73.453Y-105.415
X75.038Y-97.962
X77.579Y-86.005
X79.163Y-78.552
X84.171Y-146.551
X85.755Y-139.097
X88.126Y-128.01
X89.711Y-120.556
X92.087Y-109.376
X93.671Y-101.922
X96.033Y-90.823
X97.617Y-83.37
X102.814Y-150.513
X104.399Y-143.06
X106.76Y-131.97
X108.344Y-124.517
X110.721Y-113.337
X112.305Y-105.883
X114.651Y-94.811
X116.235Y-87.358
X121.433Y-154.628
X123.017Y-147.175
X125.394Y-135.931
X126.978Y-128.478
X129.354Y-117.297
X130.939Y-109.844
X133.48Y-97.887
X135.064Y-90.434
X140.076Y-158.489
X140.173Y-105.908
X141.661Y-151.035
X144.027Y-139.892
X145.612Y-132.438
X147.35Y-146.2
X147.627Y-107.492
X147.988Y-121.258
X149.572Y-113.805
X151.323Y-127.858
X152.114Y-101.848
X153.698Y-94.394
X154.803Y-147.784
X155.273Y-108.958
X158.777Y-129.442
X162.727Y-110.542
X188.7Y-117.59
X188.7Y-125.21
X188.745Y-155.407
X188.745Y-163.027
X188.745Y-174.743
X188.745Y-182.363
X188.872Y-136.23
X188.872Y-143.85
X207.5Y-117.39
X207.5Y-125.01
X207.772Y-174.752
X207.772Y-182.372
X207.795Y-155.407
X207.795Y-163.027
X207.922Y-136.23
X207.922Y-143.85
X225.45Y-177.44
X225.45Y-185.06
X225.65Y-117.79
X225.65Y-125.41
X225.8Y-155.34
X225.8Y-162.96
X225.85Y-136.24
X225.85Y-143.86
X242.801Y-94.254
X244.385Y-101.707
X246.927Y-113.664
X248.511Y-121.117
X250.888Y-132.298
X252.472Y-139.751
X254.848Y-150.931
X256.433Y-158.385
X261.435Y-90.293
X263.019Y-97.747
X265.561Y-109.703
X267.145Y-117.157
X269.521Y-128.337
X271.106Y-135.79
X273.482Y-146.971
X275.066Y-154.424
X280.069Y-86.332
X281.653Y-93.786
X284.194Y-105.742
X285.779Y-113.196
X288.155Y-124.376
X289.739Y-131.83
X292.116Y-143.01
X293.7Y-150.463
X298.702Y-82.372
X300.287Y-89.825
X302.828Y-101.782
X304.412Y-109.235
X306.789Y-120.415
X308.373Y-127.869
X310.749Y-139.049
X312.334Y-146.503
X313.668Y-131.093
X317.336Y-78.411
X318.92Y-85.864
X321.121Y-129.509
X321.462Y-97.821
X323.046Y-105.275
X324.963Y-91.143
X325.257Y-115.678
X326.842Y-123.132
X329.048Y-109.841
X329.383Y-135.088
X330.967Y-142.542
X332.417Y-89.559
X333.009Y-128.475
X336.501Y-108.257
X340.462Y-126.891
T3
X195.0Y-93.35
X195.0Y-97.85
X195.795Y-84.15
X198.335Y-84.15
X200.875Y-84.15
X201.5Y-93.35
X201.5Y-97.85
T4
X190.83Y-81.271
X190.83Y-83.811
X190.83Y-86.351
X190.83Y-88.891
X190.83Y-91.431
X190.83Y-93.971
X190.83Y-96.511
X190.83Y-99.051
X190.83Y-101.591
X190.83Y-104.131
X190.83Y-106.671
X190.83Y-109.211
X206.07Y-81.271
X206.07Y-83.811
X206.07Y-86.351
X206.07Y-88.891
X206.07Y-91.431
X206.07Y-93.971
X206.07Y-96.511
X206.07Y-99.051
X206.07Y-101.591
X206.07Y-104.131
X206.07Y-106.671
X206.07Y-109.211
T5
X53.808Y-133.699
X55.393Y-132.543
X57.769Y-115.065
X59.354Y-113.909
X60.388Y-133.094
X60.548Y-132.535
X61.73Y-96.431
X63.315Y-95.276
X64.349Y-114.46
X64.508Y-113.901
X65.691Y-77.798
X67.276Y-76.642
X68.309Y-95.826
X68.469Y-95.267
X72.27Y-77.192
X72.43Y-76.633
X72.442Y-137.66
X74.027Y-136.504
X76.403Y-119.026
X77.988Y-117.87
X79.022Y-137.054
X79.181Y-136.495
X80.364Y-100.392
X81.948Y-99.236
X82.982Y-118.421
X83.142Y-117.862
X84.324Y-81.758
X85.909Y-80.603
X86.943Y-99.787
X87.103Y-99.228
X90.904Y-81.153
X91.064Y-80.594
X91.076Y-141.62
X92.661Y-140.465
X95.037Y-122.987
X96.621Y-121.831
X97.655Y-141.015
X97.815Y-140.456
X98.997Y-104.353
X100.582Y-103.197
X101.616Y-122.381
X101.776Y-121.822
X102.958Y-85.719
X104.543Y-84.563
X105.577Y-103.748
X105.737Y-103.189
X109.538Y-85.114
X109.697Y-84.555
X109.71Y-145.581
X111.294Y-144.425
X113.67Y-126.947
X115.255Y-125.792
X116.289Y-144.976
X116.449Y-144.417
X117.631Y-108.314
X119.216Y-107.158
X120.25Y-126.342
X120.41Y-125.783
X121.592Y-89.68
X123.177Y-88.524
X124.211Y-107.708
X124.37Y-107.149
X128.171Y-89.075
X128.331Y-88.516
X128.343Y-149.542
X129.928Y-148.386
X132.304Y-130.908
X133.889Y-129.752
X134.923Y-148.936
X135.083Y-148.377
X136.265Y-112.274
X137.85Y-111.119
X138.884Y-130.303
X139.043Y-129.744
X140.225Y-93.641
X141.81Y-92.485
X142.844Y-111.669
X143.004Y-111.11
X146.805Y-93.035
X146.965Y-92.476
X146.977Y-153.502
X148.562Y-152.347
X150.938Y-134.869
X152.523Y-133.713
X153.557Y-152.897
X153.716Y-152.338
X154.898Y-116.235
X156.483Y-115.079
X157.517Y-134.263
X157.677Y-133.704
X158.859Y-97.601
X160.444Y-96.446
X161.478Y-115.63
X161.638Y-115.071
X165.439Y-96.996
X165.598Y-96.437
X175.41Y-119.117
X175.41Y-138.294
X175.41Y-157.471
X175.41Y-176.648
X176.72Y-117.657
X176.72Y-136.834
X176.72Y-156.011
X176.72Y-175.188
X181.72Y-117.157
X181.72Y-136.334
X181.72Y-155.511
X181.72Y-174.688
X181.76Y-116.577
X181.76Y-135.754
X181.76Y-154.931
X181.76Y-174.108
X194.46Y-119.117
X194.46Y-138.294
X194.46Y-157.471
X194.46Y-176.648
X195.77Y-117.657
X195.77Y-136.834
X195.77Y-156.011
X195.77Y-175.188
X200.77Y-117.157
X200.77Y-136.334
X200.77Y-155.511
X200.77Y-174.688
X200.81Y-116.577
X200.81Y-135.754
X200.81Y-154.931
X200.81Y-174.108
X213.51Y-119.117
X213.51Y-138.294
X213.51Y-157.471
X213.51Y-176.648
X214.82Y-117.657
X214.82Y-136.834
X214.82Y-156.011
X214.82Y-175.188
X219.82Y-117.157
X219.82Y-136.334
X219.82Y-155.511
X219.82Y-174.688
X219.86Y-116.577
X219.86Y-135.754
X219.86Y-154.931
X219.86Y-174.108
X230.187Y-99.045
X231.164Y-97.344
X234.147Y-117.679
X235.125Y-115.978
X235.87Y-95.24
X235.951Y-95.816
X238.108Y-136.312
X239.086Y-134.612
X239.83Y-113.874
X239.912Y-114.45
X242.069Y-154.946
X243.047Y-153.246
X243.791Y-132.508
X243.873Y-133.083
X247.752Y-151.141
X247.833Y-151.717
X248.82Y-95.084
X249.798Y-93.384
X252.781Y-113.718
X253.759Y-112.017
X254.503Y-91.279
X254.585Y-91.855
X256.742Y-132.352
X257.72Y-130.651
X258.464Y-109.913
X258.546Y-110.489
X260.702Y-150.985
X261.68Y-149.285
X262.425Y-128.547
X262.506Y-129.123
X266.386Y-147.181
X266.467Y-147.756
X267.454Y-91.124
X268.432Y-89.423
X271.415Y-109.757
X272.393Y-108.057
X273.137Y-87.319
X273.219Y-87.894
X275.375Y-128.391
X276.353Y-126.69
X277.098Y-105.952
X277.179Y-106.528
X279.336Y-147.025
X280.314Y-145.324
X281.059Y-124.586
X281.14Y-125.162
X285.019Y-143.22
X285.101Y-143.796
X286.088Y-87.163
X287.066Y-85.462
X290.048Y-105.797
X291.026Y-104.096
X291.771Y-83.358
X291.852Y-83.934
X294.009Y-124.43
X294.987Y-122.73
X295.732Y-101.992
X295.813Y-102.567
X297.97Y-143.064
X298.948Y-141.363
X299.692Y-120.625
X299.774Y-121.201
X303.653Y-139.259
X303.734Y-139.835
X304.721Y-83.202
X305.699Y-81.502
X308.682Y-101.836
X309.66Y-100.135
X310.405Y-79.397
X310.486Y-79.973
X312.643Y-120.47
X313.621Y-118.769
X314.365Y-98.031
X314.447Y-98.607
X316.604Y-139.103
X317.581Y-137.403
X318.326Y-116.665
X318.407Y-117.24
X322.287Y-135.298
X322.368Y-135.874
X323.355Y-79.241
X324.333Y-77.541
X327.316Y-97.875
X328.294Y-96.175
X329.038Y-75.437
X329.12Y-76.012
X331.277Y-116.509
X332.254Y-114.808
X332.999Y-94.07
X333.08Y-94.646
X335.237Y-135.142
X336.215Y-133.442
X336.96Y-112.704
X337.041Y-113.28
X340.92Y-131.338
X341.002Y-131.913
T6
X68.304Y-129.639
X76.226Y-92.372
X198.27Y-169.536
X198.45Y-103.8
X320.273Y-92.231
X328.195Y-129.498
T0
M30
