G04 #@! TF.GenerationSoftware,KiCad,Pcbnew,7.0.1*
G04 #@! TF.CreationDate,2023-04-09T22:51:23+02:00*
G04 #@! TF.ProjectId,t-rex,742d7265-782e-46b6-9963-61645f706362,rev?*
G04 #@! TF.SameCoordinates,Original*
G04 #@! TF.FileFunction,Copper,L2,Bot*
G04 #@! TF.FilePolarity,Positive*
%FSLAX46Y46*%
G04 Gerber Fmt 4.6, Leading zero omitted, Abs format (unit mm)*
G04 Created by KiCad (PCBNEW 7.0.1) date 2023-04-09 22:51:23*
%MOMM*%
%LPD*%
G01*
G04 APERTURE LIST*
G04 Aperture macros list*
%AMHorizOval*
0 Thick line with rounded ends*
0 $1 width*
0 $2 $3 position (X,Y) of the first rounded end (center of the circle)*
0 $4 $5 position (X,Y) of the second rounded end (center of the circle)*
0 Add line between two ends*
20,1,$1,$2,$3,$4,$5,0*
0 Add two circle primitives to create the rounded ends*
1,1,$1,$2,$3*
1,1,$1,$4,$5*%
G04 Aperture macros list end*
G04 #@! TA.AperFunction,ComponentPad*
%ADD10R,1.600000X1.600000*%
G04 #@! TD*
G04 #@! TA.AperFunction,ComponentPad*
%ADD11O,1.600000X1.600000*%
G04 #@! TD*
G04 #@! TA.AperFunction,ComponentPad*
%ADD12HorizOval,2.250000X0.655001X0.730000X-0.655001X-0.730000X0*%
G04 #@! TD*
G04 #@! TA.AperFunction,ComponentPad*
%ADD13C,2.250000*%
G04 #@! TD*
G04 #@! TA.AperFunction,ComponentPad*
%ADD14HorizOval,2.250000X0.020000X0.290000X-0.020000X-0.290000X0*%
G04 #@! TD*
G04 #@! TA.AperFunction,ComponentPad*
%ADD15R,1.700000X1.700000*%
G04 #@! TD*
G04 #@! TA.AperFunction,ComponentPad*
%ADD16O,1.700000X1.700000*%
G04 #@! TD*
G04 #@! TA.AperFunction,ComponentPad*
%ADD17C,1.800000*%
G04 #@! TD*
G04 #@! TA.AperFunction,ComponentPad*
%ADD18R,1.752600X1.752600*%
G04 #@! TD*
G04 #@! TA.AperFunction,ComponentPad*
%ADD19C,1.752600*%
G04 #@! TD*
G04 #@! TA.AperFunction,ViaPad*
%ADD20C,0.800000*%
G04 #@! TD*
G04 #@! TA.AperFunction,Conductor*
%ADD21C,0.250000*%
G04 #@! TD*
G04 #@! TA.AperFunction,Conductor*
%ADD22C,0.508000*%
G04 #@! TD*
G04 APERTURE END LIST*
D10*
X57150000Y-42862500D03*
D11*
X64770000Y-42862500D03*
D12*
X211157501Y-87217500D03*
D13*
X211812500Y-86487500D03*
D14*
X216832500Y-85697500D03*
D13*
X216852500Y-85407500D03*
D10*
X242697000Y-36322000D03*
D11*
X242697000Y-28702000D03*
D12*
X58757501Y-87217500D03*
D13*
X59412500Y-86487500D03*
D14*
X64432500Y-85697500D03*
D13*
X64452500Y-85407500D03*
D15*
X46196250Y-42862500D03*
D16*
X43656250Y-42862500D03*
X41116250Y-42862500D03*
D10*
X242887500Y-75247500D03*
D11*
X242887500Y-67627500D03*
D12*
X154007501Y-30067500D03*
D13*
X154662500Y-29337500D03*
D14*
X159682500Y-28547500D03*
D13*
X159702500Y-28257500D03*
D10*
X204787500Y-75247500D03*
D11*
X204787500Y-67627500D03*
D10*
X242887500Y-113347500D03*
D11*
X242887500Y-105727500D03*
D12*
X249257501Y-87217500D03*
D13*
X249912500Y-86487500D03*
D14*
X254932500Y-85697500D03*
D13*
X254952500Y-85407500D03*
D10*
X109537500Y-55403750D03*
D11*
X109537500Y-47783750D03*
D12*
X154007501Y-49117500D03*
D13*
X154662500Y-48387500D03*
D14*
X159682500Y-47597500D03*
D13*
X159702500Y-47307500D03*
D10*
X166687500Y-94297500D03*
D11*
X166687500Y-86677500D03*
D10*
X147637500Y-94297500D03*
D11*
X147637500Y-86677500D03*
D12*
X96857501Y-49117500D03*
D13*
X97512500Y-48387500D03*
D14*
X102532500Y-47597500D03*
D13*
X102552500Y-47307500D03*
D12*
X134957501Y-106267500D03*
D13*
X135612500Y-105537500D03*
D14*
X140632500Y-104747500D03*
D13*
X140652500Y-104457500D03*
D12*
X134957501Y-87217500D03*
D13*
X135612500Y-86487500D03*
D14*
X140632500Y-85697500D03*
D13*
X140652500Y-85407500D03*
D10*
X109537500Y-36353750D03*
D11*
X109537500Y-28733750D03*
D12*
X154007501Y-87217500D03*
D13*
X154662500Y-86487500D03*
D14*
X159682500Y-85697500D03*
D13*
X159702500Y-85407500D03*
D12*
X173057501Y-49117500D03*
D13*
X173712500Y-48387500D03*
D14*
X178732500Y-47597500D03*
D13*
X178752500Y-47307500D03*
D12*
X115907501Y-49117500D03*
D13*
X116562500Y-48387500D03*
D14*
X121582500Y-47597500D03*
D13*
X121602500Y-47307500D03*
D10*
X128587500Y-94297500D03*
D11*
X128587500Y-86677500D03*
D12*
X173057501Y-87217500D03*
D13*
X173712500Y-86487500D03*
D14*
X178732500Y-85697500D03*
D13*
X178752500Y-85407500D03*
D10*
X128587500Y-113347500D03*
D11*
X128587500Y-105727500D03*
D10*
X185737500Y-113347500D03*
D11*
X185737500Y-105727500D03*
D12*
X58757501Y-68167500D03*
D13*
X59412500Y-67437500D03*
D14*
X64432500Y-66647500D03*
D13*
X64452500Y-66357500D03*
D12*
X192107501Y-49117500D03*
D13*
X192762500Y-48387500D03*
D14*
X197782500Y-47597500D03*
D13*
X197802500Y-47307500D03*
D10*
X223837500Y-36353750D03*
D11*
X223837500Y-28733750D03*
D10*
X247808750Y-100012500D03*
D11*
X255428750Y-100012500D03*
D10*
X71437500Y-113347500D03*
D11*
X71437500Y-105727500D03*
D12*
X173057501Y-30067500D03*
D13*
X173712500Y-29337500D03*
D14*
X178732500Y-28547500D03*
D13*
X178752500Y-28257500D03*
D10*
X204787500Y-94297500D03*
D11*
X204787500Y-86677500D03*
D12*
X115907501Y-30067500D03*
D13*
X116562500Y-29337500D03*
D14*
X121582500Y-28547500D03*
D13*
X121602500Y-28257500D03*
D12*
X192107501Y-87217500D03*
D13*
X192762500Y-86487500D03*
D14*
X197782500Y-85697500D03*
D13*
X197802500Y-85407500D03*
D10*
X71437500Y-94297500D03*
D11*
X71437500Y-86677500D03*
D10*
X185737500Y-75247500D03*
D11*
X185737500Y-67627500D03*
D10*
X147637500Y-36353750D03*
D11*
X147637500Y-28733750D03*
D10*
X204787500Y-36353750D03*
D11*
X204787500Y-28733750D03*
D10*
X62706250Y-61912500D03*
D11*
X70326250Y-61912500D03*
D12*
X77807501Y-68167500D03*
D13*
X78462500Y-67437500D03*
D14*
X83482500Y-66647500D03*
D13*
X83502500Y-66357500D03*
D12*
X230207501Y-68167500D03*
D13*
X230862500Y-67437500D03*
D14*
X235882500Y-66647500D03*
D13*
X235902500Y-66357500D03*
D10*
X228346000Y-98552000D03*
D11*
X235966000Y-98552000D03*
D12*
X154007501Y-106267500D03*
D13*
X154662500Y-105537500D03*
D14*
X159682500Y-104747500D03*
D13*
X159702500Y-104457500D03*
D10*
X52387500Y-75247500D03*
D11*
X52387500Y-67627500D03*
D10*
X223837500Y-94297500D03*
D11*
X223837500Y-86677500D03*
D12*
X230207501Y-106267500D03*
D13*
X230862500Y-105537500D03*
D14*
X235882500Y-104747500D03*
D13*
X235902500Y-104457500D03*
D10*
X247700800Y-61823600D03*
D11*
X255320800Y-61823600D03*
D12*
X134957501Y-30067500D03*
D13*
X135612500Y-29337500D03*
D14*
X140632500Y-28547500D03*
D13*
X140652500Y-28257500D03*
D12*
X230207501Y-30067500D03*
D13*
X230862500Y-29337500D03*
D14*
X235882500Y-28547500D03*
D13*
X235902500Y-28257500D03*
D12*
X211157501Y-30067500D03*
D13*
X211812500Y-29337500D03*
D14*
X216832500Y-28547500D03*
D13*
X216852500Y-28257500D03*
D12*
X58757501Y-30067500D03*
D13*
X59412500Y-29337500D03*
D14*
X64432500Y-28547500D03*
D13*
X64452500Y-28257500D03*
D12*
X77807501Y-106267500D03*
D13*
X78462500Y-105537500D03*
D14*
X83482500Y-104747500D03*
D13*
X83502500Y-104457500D03*
D10*
X128587500Y-36353750D03*
D11*
X128587500Y-28733750D03*
D10*
X109537500Y-113347500D03*
D11*
X109537500Y-105727500D03*
D12*
X77807501Y-87217500D03*
D13*
X78462500Y-86487500D03*
D14*
X83482500Y-85697500D03*
D13*
X83502500Y-85407500D03*
D12*
X115907501Y-68167500D03*
D13*
X116562500Y-67437500D03*
D14*
X121582500Y-66647500D03*
D13*
X121602500Y-66357500D03*
D12*
X58757501Y-49117500D03*
D13*
X59412500Y-48387500D03*
D14*
X64432500Y-47597500D03*
D13*
X64452500Y-47307500D03*
D12*
X211157501Y-106267500D03*
D13*
X211812500Y-105537500D03*
D14*
X216832500Y-104747500D03*
D13*
X216852500Y-104457500D03*
D12*
X39707501Y-87217500D03*
D13*
X40362500Y-86487500D03*
D14*
X45382500Y-85697500D03*
D13*
X45402500Y-85407500D03*
D10*
X223837500Y-55403750D03*
D11*
X223837500Y-47783750D03*
D10*
X52387500Y-55403750D03*
D11*
X52387500Y-47783750D03*
D12*
X249257501Y-30067500D03*
D13*
X249912500Y-29337500D03*
D14*
X254932500Y-28547500D03*
D13*
X254952500Y-28257500D03*
D12*
X39707501Y-30067500D03*
D13*
X40362500Y-29337500D03*
D14*
X45382500Y-28547500D03*
D13*
X45402500Y-28257500D03*
D10*
X52387500Y-113347500D03*
D11*
X52387500Y-105727500D03*
D10*
X185737500Y-55403750D03*
D11*
X185737500Y-47783750D03*
D12*
X115907501Y-87217500D03*
D13*
X116562500Y-86487500D03*
D14*
X121582500Y-85697500D03*
D13*
X121602500Y-85407500D03*
D10*
X166687500Y-75247500D03*
D11*
X166687500Y-67627500D03*
D10*
X86487000Y-61912500D03*
D11*
X94107000Y-61912500D03*
D12*
X230207501Y-87217500D03*
D13*
X230862500Y-86487500D03*
D14*
X235882500Y-85697500D03*
D13*
X235902500Y-85407500D03*
D12*
X211157501Y-68167500D03*
D13*
X211812500Y-67437500D03*
D14*
X216832500Y-66647500D03*
D13*
X216852500Y-66357500D03*
D10*
X147637500Y-75247500D03*
D11*
X147637500Y-67627500D03*
D10*
X71437500Y-75247500D03*
D11*
X71437500Y-67627500D03*
D10*
X90487500Y-113347500D03*
D11*
X90487500Y-105727500D03*
D10*
X204787500Y-55403750D03*
D11*
X204787500Y-47783750D03*
D10*
X147637500Y-113347500D03*
D11*
X147637500Y-105727500D03*
D10*
X75438000Y-61976000D03*
D11*
X83058000Y-61976000D03*
D12*
X249257501Y-68167500D03*
D13*
X249912500Y-67437500D03*
D14*
X254932500Y-66647500D03*
D13*
X254952500Y-66357500D03*
D12*
X192107501Y-30067500D03*
D13*
X192762500Y-29337500D03*
D14*
X197782500Y-28547500D03*
D13*
X197802500Y-28257500D03*
D10*
X52387500Y-94297500D03*
D11*
X52387500Y-86677500D03*
D10*
X185737500Y-36353750D03*
D11*
X185737500Y-28733750D03*
D12*
X249257501Y-49117500D03*
D13*
X249912500Y-48387500D03*
D14*
X254932500Y-47597500D03*
D13*
X254952500Y-47307500D03*
D12*
X39707501Y-68167500D03*
D13*
X40362500Y-67437500D03*
D14*
X45382500Y-66647500D03*
D13*
X45402500Y-66357500D03*
D12*
X96857501Y-30067500D03*
D13*
X97512500Y-29337500D03*
D14*
X102532500Y-28547500D03*
D13*
X102552500Y-28257500D03*
D12*
X154007501Y-68167500D03*
D13*
X154662500Y-67437500D03*
D14*
X159682500Y-66647500D03*
D13*
X159702500Y-66357500D03*
D12*
X58757501Y-106267500D03*
D13*
X59412500Y-105537500D03*
D14*
X64432500Y-104747500D03*
D13*
X64452500Y-104457500D03*
D12*
X39707501Y-106267500D03*
D13*
X40362500Y-105537500D03*
D14*
X45382500Y-104747500D03*
D13*
X45402500Y-104457500D03*
D12*
X134957501Y-68167500D03*
D13*
X135612500Y-67437500D03*
D14*
X140632500Y-66647500D03*
D13*
X140652500Y-66357500D03*
D10*
X128587500Y-75247500D03*
D11*
X128587500Y-67627500D03*
D12*
X192107501Y-68167500D03*
D13*
X192762500Y-67437500D03*
D14*
X197782500Y-66647500D03*
D13*
X197802500Y-66357500D03*
D12*
X134957501Y-49117500D03*
D13*
X135612500Y-48387500D03*
D14*
X140632500Y-47597500D03*
D13*
X140652500Y-47307500D03*
D10*
X128587500Y-55403750D03*
D11*
X128587500Y-47783750D03*
D12*
X249257501Y-106267500D03*
D13*
X249912500Y-105537500D03*
D14*
X254932500Y-104747500D03*
D13*
X254952500Y-104457500D03*
D10*
X166687500Y-55403750D03*
D11*
X166687500Y-47783750D03*
D10*
X223837500Y-113347500D03*
D11*
X223837500Y-105727500D03*
D10*
X223837500Y-75247500D03*
D11*
X223837500Y-67627500D03*
D10*
X109537500Y-94297500D03*
D11*
X109537500Y-86677500D03*
D10*
X90487500Y-75247500D03*
D11*
X90487500Y-67627500D03*
D12*
X96857501Y-87217500D03*
D13*
X97512500Y-86487500D03*
D14*
X102532500Y-85697500D03*
D13*
X102552500Y-85407500D03*
D10*
X247808750Y-80962500D03*
D11*
X255428750Y-80962500D03*
D12*
X115907501Y-106267500D03*
D13*
X116562500Y-105537500D03*
D14*
X121582500Y-104747500D03*
D13*
X121602500Y-104457500D03*
D10*
X166687500Y-36353750D03*
D11*
X166687500Y-28733750D03*
D10*
X166687500Y-113347500D03*
D11*
X166687500Y-105727500D03*
D10*
X52387500Y-36512500D03*
D11*
X52387500Y-28892500D03*
D10*
X204787500Y-113347500D03*
D11*
X204787500Y-105727500D03*
D10*
X247650000Y-42862500D03*
D11*
X255270000Y-42862500D03*
D10*
X109537500Y-75247500D03*
D11*
X109537500Y-67627500D03*
D10*
X90487500Y-94297500D03*
D11*
X90487500Y-86677500D03*
D10*
X147637500Y-55403750D03*
D11*
X147637500Y-47783750D03*
D12*
X96857501Y-68167500D03*
D13*
X97512500Y-67437500D03*
D14*
X102532500Y-66647500D03*
D13*
X102552500Y-66357500D03*
D12*
X173057501Y-106267500D03*
D13*
X173712500Y-105537500D03*
D14*
X178732500Y-104747500D03*
D13*
X178752500Y-104457500D03*
D10*
X242887500Y-55403750D03*
D11*
X242887500Y-47783750D03*
D10*
X185737500Y-94297500D03*
D11*
X185737500Y-86677500D03*
D12*
X230207501Y-49117500D03*
D13*
X230862500Y-48387500D03*
D14*
X235882500Y-47597500D03*
D13*
X235902500Y-47307500D03*
D10*
X242887500Y-93503750D03*
D11*
X242887500Y-85883750D03*
D12*
X39707501Y-49117500D03*
D13*
X40362500Y-48387500D03*
D14*
X45382500Y-47597500D03*
D13*
X45402500Y-47307500D03*
D12*
X192107501Y-106267500D03*
D13*
X192762500Y-105537500D03*
D14*
X197782500Y-104747500D03*
D13*
X197802500Y-104457500D03*
D12*
X77807501Y-49117500D03*
D13*
X78462500Y-48387500D03*
D14*
X83482500Y-47597500D03*
D13*
X83502500Y-47307500D03*
D12*
X96857501Y-106267500D03*
D13*
X97512500Y-105537500D03*
D14*
X102532500Y-104747500D03*
D13*
X102552500Y-104457500D03*
D12*
X77807501Y-30067500D03*
D13*
X78462500Y-29337500D03*
D14*
X83482500Y-28547500D03*
D13*
X83502500Y-28257500D03*
D12*
X211157501Y-49117500D03*
D13*
X211812500Y-48387500D03*
D14*
X216832500Y-47597500D03*
D13*
X216852500Y-47307500D03*
D12*
X173057501Y-68167500D03*
D13*
X173712500Y-67437500D03*
D14*
X178732500Y-66647500D03*
D13*
X178752500Y-66357500D03*
D17*
X54637500Y-58662500D03*
X50137500Y-65162500D03*
X50137500Y-58662500D03*
X54637500Y-65162500D03*
D18*
X88582500Y-26116750D03*
D19*
X88582500Y-28656750D03*
X88582500Y-31196750D03*
X88582500Y-33736750D03*
X88582500Y-36276750D03*
X88582500Y-38816750D03*
X88582500Y-41356750D03*
X88582500Y-43896750D03*
X88582500Y-46436750D03*
X88582500Y-48976750D03*
X88582500Y-51516750D03*
X88582500Y-54056750D03*
X73342500Y-54056750D03*
X73342500Y-51516750D03*
X73342500Y-48976750D03*
X73342500Y-46436750D03*
X73342500Y-43896750D03*
X73342500Y-41356750D03*
X73342500Y-38816750D03*
X73342500Y-36276750D03*
X73342500Y-33736750D03*
X73342500Y-31196750D03*
X73342500Y-28656750D03*
X73342500Y-26116750D03*
D20*
X68979326Y-27858174D03*
D21*
X73342500Y-36276750D02*
X70408000Y-36276750D01*
X70408000Y-36276750D02*
X69056250Y-34925000D01*
X69056250Y-27935098D02*
X69056250Y-34925000D01*
X68979326Y-27858174D02*
X69056250Y-27935098D01*
X68242501Y-36355270D02*
X70703981Y-38816750D01*
X66675000Y-28067000D02*
X68242501Y-29634501D01*
X59412500Y-29487500D02*
X58102500Y-30797500D01*
X70703981Y-38816750D02*
X73342500Y-38816750D01*
X59412500Y-29337500D02*
X62106250Y-26643750D01*
X66675000Y-28040750D02*
X66675000Y-28067000D01*
X59412500Y-29337500D02*
X59412500Y-29487500D01*
X62106250Y-26643750D02*
X65278000Y-26643750D01*
X68242501Y-29634501D02*
X68242501Y-36355270D01*
X65278000Y-26643750D02*
X66675000Y-28040750D01*
X91711750Y-48387500D02*
X97512500Y-48387500D01*
X88582500Y-51516750D02*
X91711750Y-48387500D01*
X92762500Y-44796750D02*
X112971750Y-44796750D01*
X112971750Y-44796750D02*
X116562500Y-48387500D01*
X88582500Y-48976750D02*
X92762500Y-44796750D01*
X90672500Y-44346750D02*
X131571750Y-44346750D01*
X131571750Y-44346750D02*
X135612500Y-48387500D01*
X88582500Y-46436750D02*
X90672500Y-44346750D01*
X150171750Y-43896750D02*
X154662500Y-48387500D01*
X88582500Y-43896750D02*
X150171750Y-43896750D01*
X90672500Y-43446750D02*
X168771750Y-43446750D01*
X168771750Y-43446750D02*
X173712500Y-48387500D01*
X88582500Y-41356750D02*
X90672500Y-43446750D01*
X90858896Y-42996750D02*
X187371750Y-42996750D01*
X89920273Y-40154523D02*
X89920273Y-42058127D01*
X88582500Y-38816750D02*
X89920273Y-40154523D01*
X89920273Y-42058127D02*
X90858896Y-42996750D01*
X187371750Y-42996750D02*
X192762500Y-48387500D01*
X88582500Y-36276750D02*
X90373200Y-38067450D01*
X90373200Y-38067450D02*
X90373200Y-41808400D01*
X205971750Y-42546750D02*
X211812500Y-48387500D01*
X90373200Y-41808400D02*
X91111550Y-42546750D01*
X91111550Y-42546750D02*
X205971750Y-42546750D01*
X90823200Y-41622004D02*
X91297946Y-42096750D01*
X221801750Y-42096750D02*
X229552500Y-49847500D01*
X88582500Y-28656750D02*
X90823200Y-30897450D01*
X91297946Y-42096750D02*
X221801750Y-42096750D01*
X90823200Y-30897450D02*
X90823200Y-41622004D01*
X91735550Y-41646750D02*
X226215290Y-41646750D01*
X88582500Y-26116750D02*
X91273200Y-28807450D01*
X91273200Y-41184400D02*
X91735550Y-41646750D01*
X247372000Y-45847000D02*
X249912500Y-48387500D01*
X226215290Y-41646750D02*
X230415540Y-45847000D01*
X230415540Y-45847000D02*
X247372000Y-45847000D01*
X91273200Y-28807450D02*
X91273200Y-41184400D01*
D22*
X43656250Y-42862500D02*
X43656250Y-41660419D01*
X43656250Y-41660419D02*
X59701919Y-25614750D01*
X59701919Y-25614750D02*
X70300500Y-25614750D01*
X70300500Y-25614750D02*
X73342500Y-28656750D01*
D21*
X52387500Y-38100000D02*
X57150000Y-42862500D01*
X78105000Y-32639000D02*
X78105000Y-38862000D01*
X78105000Y-38862000D02*
X75610250Y-41356750D01*
X242697000Y-36322000D02*
X242697000Y-37909500D01*
X90487500Y-24606250D02*
X84105750Y-24606250D01*
X109537500Y-36353750D02*
X223837500Y-36353750D01*
X57150000Y-44450000D02*
X57943750Y-45243750D01*
X92075000Y-26193750D02*
X90487500Y-24606250D01*
X223869250Y-36322000D02*
X223837500Y-36353750D01*
X84105750Y-24606250D02*
X81100214Y-27611786D01*
X75610250Y-41356750D02*
X73342500Y-41356750D01*
X58275000Y-43987500D02*
X70711750Y-43987500D01*
X57150000Y-42862500D02*
X58275000Y-43987500D01*
X94519750Y-36353750D02*
X92075000Y-33909000D01*
X57943750Y-45243750D02*
X67468750Y-45243750D01*
X81100214Y-29643786D02*
X78105000Y-32639000D01*
X68386855Y-55686855D02*
X74676000Y-61976000D01*
X67468750Y-45243750D02*
X68386855Y-46161855D01*
X242697000Y-36322000D02*
X223869250Y-36322000D01*
X68386855Y-46161855D02*
X68386855Y-55686855D01*
X109537500Y-36353750D02*
X94519750Y-36353750D01*
X242697000Y-37909500D02*
X247650000Y-42862500D01*
X57150000Y-42862500D02*
X57150000Y-44450000D01*
X70711750Y-43987500D02*
X73342500Y-41356750D01*
X92075000Y-33909000D02*
X92075000Y-26193750D01*
X52387500Y-36512500D02*
X52387500Y-38100000D01*
X81100214Y-27611786D02*
X81100214Y-29643786D01*
X74676000Y-61976000D02*
X75438000Y-61976000D01*
X242887500Y-55403750D02*
X109537500Y-55403750D01*
X84105750Y-64293750D02*
X63500000Y-64293750D01*
X63500000Y-64293750D02*
X62706250Y-63500000D01*
X247700800Y-61823600D02*
X247091200Y-61823600D01*
X86487000Y-61912500D02*
X84105750Y-64293750D01*
X52387500Y-55403750D02*
X56197500Y-55403750D01*
X89773653Y-65199153D02*
X99742097Y-65199153D01*
X86487000Y-61912500D02*
X89773653Y-65199153D01*
X62706250Y-63500000D02*
X62706250Y-61912500D01*
X99742097Y-65199153D02*
X109537500Y-55403750D01*
X56197500Y-55403750D02*
X62706250Y-61912500D01*
X242887500Y-57619900D02*
X242887500Y-55403750D01*
X247091200Y-61823600D02*
X242887500Y-57619900D01*
X242887500Y-75247500D02*
X247808750Y-80168750D01*
X242887500Y-75247500D02*
X52387500Y-75247500D01*
X247808750Y-80168750D02*
X247808750Y-80962500D01*
X242887500Y-93503750D02*
X236714250Y-99677000D01*
X228092000Y-98552000D02*
X228346000Y-98552000D01*
X236714250Y-99677000D02*
X229471000Y-99677000D01*
X229471000Y-99677000D02*
X228346000Y-98552000D01*
X223837500Y-94297500D02*
X228092000Y-98552000D01*
X223837500Y-94297500D02*
X52387500Y-94297500D01*
X247808750Y-100012500D02*
X247808750Y-103981250D01*
X242887500Y-113347500D02*
X71437500Y-113347500D01*
X71437500Y-113347500D02*
X52387500Y-113347500D01*
X242887500Y-108902500D02*
X242887500Y-113347500D01*
X247808750Y-103981250D02*
X242887500Y-108902500D01*
X51752500Y-28257500D02*
X52387500Y-28892500D01*
X45402500Y-28257500D02*
X51752500Y-28257500D01*
X64770000Y-42862500D02*
X64770000Y-29195000D01*
X64770000Y-29195000D02*
X64412500Y-28837500D01*
X83820000Y-59055000D02*
X83058000Y-59817000D01*
X83462500Y-28837500D02*
X83462500Y-35409500D01*
X81280000Y-37592000D02*
X81280000Y-48768000D01*
X83820000Y-51308000D02*
X83820000Y-59055000D01*
X83462500Y-35409500D02*
X81280000Y-37592000D01*
X81280000Y-48768000D02*
X83820000Y-51308000D01*
X83058000Y-59817000D02*
X83058000Y-61976000D01*
X102616250Y-28733750D02*
X102512500Y-28837500D01*
X103028750Y-28733750D02*
X102552500Y-28257500D01*
X109537500Y-28733750D02*
X103028750Y-28733750D01*
X128587500Y-28733750D02*
X121666250Y-28733750D01*
X121666250Y-28733750D02*
X121562500Y-28837500D01*
X147637500Y-28733750D02*
X140716250Y-28733750D01*
X140716250Y-28733750D02*
X140612500Y-28837500D01*
X166687500Y-28733750D02*
X159766250Y-28733750D01*
X159766250Y-28733750D02*
X159662500Y-28837500D01*
X185737500Y-28733750D02*
X178816250Y-28733750D01*
X178816250Y-28733750D02*
X178712500Y-28837500D01*
X204787500Y-28733750D02*
X197866250Y-28733750D01*
X197866250Y-28733750D02*
X197762500Y-28837500D01*
X223837500Y-28733750D02*
X216916250Y-28733750D01*
X216916250Y-28733750D02*
X216812500Y-28837500D01*
X242697000Y-28702000D02*
X236347000Y-28702000D01*
X236347000Y-28702000D02*
X235902500Y-28257500D01*
X255270000Y-42862500D02*
X255270000Y-29195000D01*
X255270000Y-29195000D02*
X254912500Y-28837500D01*
X45362500Y-47887500D02*
X45466250Y-47783750D01*
X45466250Y-47783750D02*
X52387500Y-47783750D01*
X64412500Y-47887500D02*
X64412500Y-54093750D01*
X70326250Y-60007500D02*
X70326250Y-61912500D01*
X64412500Y-54093750D02*
X70326250Y-60007500D01*
X84792499Y-53423499D02*
X93281500Y-61912500D01*
X93281500Y-61912500D02*
X94107000Y-61912500D01*
X84792499Y-49217499D02*
X84792499Y-53423499D01*
X83462500Y-47887500D02*
X84792499Y-49217499D01*
X102616250Y-47783750D02*
X109537500Y-47783750D01*
X102512500Y-47887500D02*
X102616250Y-47783750D01*
X121562500Y-47887500D02*
X121666250Y-47783750D01*
X121666250Y-47783750D02*
X128587500Y-47783750D01*
X140612500Y-47887500D02*
X140716250Y-47783750D01*
X140716250Y-47783750D02*
X147637500Y-47783750D01*
X159766250Y-47783750D02*
X166687500Y-47783750D01*
X159662500Y-47887500D02*
X159766250Y-47783750D01*
X178712500Y-47887500D02*
X178816250Y-47783750D01*
X178816250Y-47783750D02*
X185737500Y-47783750D01*
X197866250Y-47783750D02*
X204787500Y-47783750D01*
X197762500Y-47887500D02*
X197866250Y-47783750D01*
X216916250Y-47783750D02*
X223837500Y-47783750D01*
X216812500Y-47887500D02*
X216916250Y-47783750D01*
X235966250Y-47783750D02*
X242887500Y-47783750D01*
X235862500Y-47887500D02*
X235966250Y-47783750D01*
X255320800Y-48295800D02*
X255320800Y-61823600D01*
X254912500Y-47887500D02*
X255320800Y-48295800D01*
X46052500Y-67627500D02*
X52387500Y-67627500D01*
X45362500Y-66937500D02*
X46052500Y-67627500D01*
X64412500Y-66937500D02*
X65102500Y-67627500D01*
X65102500Y-67627500D02*
X71437500Y-67627500D01*
X83462500Y-66937500D02*
X84152500Y-67627500D01*
X84152500Y-67627500D02*
X90487500Y-67627500D01*
X103202500Y-67627500D02*
X109537500Y-67627500D01*
X102512500Y-66937500D02*
X103202500Y-67627500D01*
X122252500Y-67627500D02*
X128587500Y-67627500D01*
X121562500Y-66937500D02*
X122252500Y-67627500D01*
X141302500Y-67627500D02*
X147637500Y-67627500D01*
X140612500Y-66937500D02*
X141302500Y-67627500D01*
X160352500Y-67627500D02*
X166687500Y-67627500D01*
X159662500Y-66937500D02*
X160352500Y-67627500D01*
X178712500Y-66937500D02*
X179402500Y-67627500D01*
X179402500Y-67627500D02*
X185737500Y-67627500D01*
X204787500Y-67627500D02*
X198452500Y-67627500D01*
X198452500Y-67627500D02*
X197762500Y-66937500D01*
X217502500Y-67627500D02*
X223837500Y-67627500D01*
X216812500Y-66937500D02*
X217502500Y-67627500D01*
X242887500Y-67627500D02*
X236552500Y-67627500D01*
X236552500Y-67627500D02*
X235862500Y-66937500D01*
X255428750Y-67453750D02*
X255428750Y-80962500D01*
X254912500Y-66937500D02*
X255428750Y-67453750D01*
X52387500Y-86677500D02*
X46052500Y-86677500D01*
X46052500Y-86677500D02*
X45362500Y-85987500D01*
X65102500Y-86677500D02*
X64412500Y-85987500D01*
X71437500Y-86677500D02*
X65102500Y-86677500D01*
X84152500Y-86677500D02*
X83462500Y-85987500D01*
X90487500Y-86677500D02*
X84152500Y-86677500D01*
X109537500Y-86677500D02*
X103202500Y-86677500D01*
X103202500Y-86677500D02*
X102512500Y-85987500D01*
X128587500Y-86677500D02*
X122252500Y-86677500D01*
X122252500Y-86677500D02*
X121562500Y-85987500D01*
X147637500Y-86677500D02*
X141302500Y-86677500D01*
X141302500Y-86677500D02*
X140612500Y-85987500D01*
X166687500Y-86677500D02*
X160352500Y-86677500D01*
X160352500Y-86677500D02*
X159662500Y-85987500D01*
X185737500Y-86677500D02*
X179402500Y-86677500D01*
X179402500Y-86677500D02*
X178712500Y-85987500D01*
X204787500Y-86677500D02*
X198452500Y-86677500D01*
X198452500Y-86677500D02*
X197762500Y-85987500D01*
X223837500Y-86677500D02*
X217502500Y-86677500D01*
X217502500Y-86677500D02*
X216812500Y-85987500D01*
X235862500Y-85987500D02*
X235966000Y-86091000D01*
X235966000Y-86091000D02*
X235966000Y-98552000D01*
X253111000Y-83566000D02*
X245205250Y-83566000D01*
X245205250Y-83566000D02*
X242887500Y-85883750D01*
X254952500Y-85407500D02*
X253111000Y-83566000D01*
X52387500Y-105727500D02*
X46052500Y-105727500D01*
X46052500Y-105727500D02*
X45362500Y-105037500D01*
X65102500Y-105727500D02*
X71437500Y-105727500D01*
X64412500Y-105037500D02*
X65102500Y-105727500D01*
X84152500Y-105727500D02*
X90487500Y-105727500D01*
X83462500Y-105037500D02*
X84152500Y-105727500D01*
X102512500Y-105037500D02*
X103202500Y-105727500D01*
X103202500Y-105727500D02*
X109537500Y-105727500D01*
X122252500Y-105727500D02*
X128587500Y-105727500D01*
X121562500Y-105037500D02*
X122252500Y-105727500D01*
X141302500Y-105727500D02*
X147637500Y-105727500D01*
X140612500Y-105037500D02*
X141302500Y-105727500D01*
X160352500Y-105727500D02*
X166687500Y-105727500D01*
X159662500Y-105037500D02*
X160352500Y-105727500D01*
X179402500Y-105727500D02*
X185737500Y-105727500D01*
X178712500Y-105037500D02*
X179402500Y-105727500D01*
X198452500Y-105727500D02*
X204787500Y-105727500D01*
X197762500Y-105037500D02*
X198452500Y-105727500D01*
X217502500Y-105727500D02*
X223837500Y-105727500D01*
X216812500Y-105037500D02*
X217502500Y-105727500D01*
X236552500Y-105727500D02*
X242887500Y-105727500D01*
X235862500Y-105037500D02*
X236552500Y-105727500D01*
X254952500Y-100488750D02*
X255428750Y-100012500D01*
X254952500Y-104457500D02*
X254952500Y-100488750D01*
X45231401Y-53962651D02*
X45231401Y-49993901D01*
X45231401Y-49993901D02*
X43874613Y-48637113D01*
X45021250Y-44037500D02*
X45021250Y-41497500D01*
X45021250Y-41497500D02*
X60325000Y-26193750D01*
X48418750Y-57150000D02*
X45231401Y-53962651D01*
X68339500Y-26193750D02*
X73342500Y-31196750D01*
X53125000Y-57150000D02*
X48418750Y-57150000D01*
X43874613Y-48637113D02*
X43874613Y-45184137D01*
X43874613Y-45184137D02*
X45021250Y-44037500D01*
X60325000Y-26193750D02*
X68339500Y-26193750D01*
X54637500Y-58662500D02*
X53125000Y-57150000D01*
M02*
