G04 #@! TF.GenerationSoftware,KiCad,Pcbnew,7.0.1*
G04 #@! TF.CreationDate,2023-04-09T22:51:23+02:00*
G04 #@! TF.ProjectId,t-rex,742d7265-782e-46b6-9963-61645f706362,rev?*
G04 #@! TF.SameCoordinates,Original*
G04 #@! TF.FileFunction,Legend,Bot*
G04 #@! TF.FilePolarity,Positive*
%FSLAX46Y46*%
G04 Gerber Fmt 4.6, Leading zero omitted, Abs format (unit mm)*
G04 Created by KiCad (PCBNEW 7.0.1) date 2023-04-09 22:51:23*
%MOMM*%
%LPD*%
G01*
G04 APERTURE LIST*
G04 Aperture macros list*
%AMHorizOval*
0 Thick line with rounded ends*
0 $1 width*
0 $2 $3 position (X,Y) of the first rounded end (center of the circle)*
0 $4 $5 position (X,Y) of the second rounded end (center of the circle)*
0 Add line between two ends*
20,1,$1,$2,$3,$4,$5,0*
0 Add two circle primitives to create the rounded ends*
1,1,$1,$2,$3*
1,1,$1,$4,$5*%
G04 Aperture macros list end*
%ADD10C,0.300000*%
%ADD11C,0.150000*%
%ADD12C,0.381000*%
%ADD13R,1.752600X1.752600*%
%ADD14C,1.752600*%
%ADD15R,1.600000X1.600000*%
%ADD16O,1.600000X1.600000*%
%ADD17C,1.750000*%
%ADD18C,3.987800*%
%ADD19HorizOval,2.250000X0.655001X0.730000X-0.655001X-0.730000X0*%
%ADD20C,2.250000*%
%ADD21HorizOval,2.250000X0.020000X0.290000X-0.020000X-0.290000X0*%
%ADD22R,1.700000X1.700000*%
%ADD23O,1.700000X1.700000*%
G04 APERTURE END LIST*
D10*
X172407574Y-76767124D02*
X172552717Y-76694553D01*
X172552717Y-76694553D02*
X172770431Y-76694553D01*
X172770431Y-76694553D02*
X172988145Y-76767124D01*
X172988145Y-76767124D02*
X173133288Y-76912267D01*
X173133288Y-76912267D02*
X173205859Y-77057410D01*
X173205859Y-77057410D02*
X173278431Y-77347696D01*
X173278431Y-77347696D02*
X173278431Y-77565410D01*
X173278431Y-77565410D02*
X173205859Y-77855696D01*
X173205859Y-77855696D02*
X173133288Y-78000839D01*
X173133288Y-78000839D02*
X172988145Y-78145982D01*
X172988145Y-78145982D02*
X172770431Y-78218553D01*
X172770431Y-78218553D02*
X172625288Y-78218553D01*
X172625288Y-78218553D02*
X172407574Y-78145982D01*
X172407574Y-78145982D02*
X172335002Y-78073410D01*
X172335002Y-78073410D02*
X172335002Y-77565410D01*
X172335002Y-77565410D02*
X172625288Y-77565410D01*
X171464145Y-76694553D02*
X171464145Y-77057410D01*
X171827002Y-76912267D02*
X171464145Y-77057410D01*
X171464145Y-77057410D02*
X171101288Y-76912267D01*
X171681859Y-77347696D02*
X171464145Y-77057410D01*
X171464145Y-77057410D02*
X171246431Y-77347696D01*
X170303002Y-76694553D02*
X170303002Y-77057410D01*
X170665859Y-76912267D02*
X170303002Y-77057410D01*
X170303002Y-77057410D02*
X169940145Y-76912267D01*
X170520716Y-77347696D02*
X170303002Y-77057410D01*
X170303002Y-77057410D02*
X170085288Y-77347696D01*
X169141859Y-76694553D02*
X169141859Y-77057410D01*
X169504716Y-76912267D02*
X169141859Y-77057410D01*
X169141859Y-77057410D02*
X168779002Y-76912267D01*
X169359573Y-77347696D02*
X169141859Y-77057410D01*
X169141859Y-77057410D02*
X168924145Y-77347696D01*
D11*
X87013975Y-39186845D02*
X87013975Y-38386845D01*
X87013975Y-38386845D02*
X86823499Y-38386845D01*
X86823499Y-38386845D02*
X86709213Y-38424940D01*
X86709213Y-38424940D02*
X86633023Y-38501130D01*
X86633023Y-38501130D02*
X86594928Y-38577321D01*
X86594928Y-38577321D02*
X86556832Y-38729702D01*
X86556832Y-38729702D02*
X86556832Y-38843988D01*
X86556832Y-38843988D02*
X86594928Y-38996369D01*
X86594928Y-38996369D02*
X86633023Y-39072559D01*
X86633023Y-39072559D02*
X86709213Y-39148750D01*
X86709213Y-39148750D02*
X86823499Y-39186845D01*
X86823499Y-39186845D02*
X87013975Y-39186845D01*
X86061594Y-38386845D02*
X85985404Y-38386845D01*
X85985404Y-38386845D02*
X85909213Y-38424940D01*
X85909213Y-38424940D02*
X85871118Y-38463035D01*
X85871118Y-38463035D02*
X85833023Y-38539226D01*
X85833023Y-38539226D02*
X85794928Y-38691607D01*
X85794928Y-38691607D02*
X85794928Y-38882083D01*
X85794928Y-38882083D02*
X85833023Y-39034464D01*
X85833023Y-39034464D02*
X85871118Y-39110654D01*
X85871118Y-39110654D02*
X85909213Y-39148750D01*
X85909213Y-39148750D02*
X85985404Y-39186845D01*
X85985404Y-39186845D02*
X86061594Y-39186845D01*
X86061594Y-39186845D02*
X86137785Y-39148750D01*
X86137785Y-39148750D02*
X86175880Y-39110654D01*
X86175880Y-39110654D02*
X86213975Y-39034464D01*
X86213975Y-39034464D02*
X86252071Y-38882083D01*
X86252071Y-38882083D02*
X86252071Y-38691607D01*
X86252071Y-38691607D02*
X86213975Y-38539226D01*
X86213975Y-38539226D02*
X86175880Y-38463035D01*
X86175880Y-38463035D02*
X86137785Y-38424940D01*
X86137785Y-38424940D02*
X86061594Y-38386845D01*
X76606266Y-34520495D02*
X76339599Y-35320495D01*
X76339599Y-35320495D02*
X76072933Y-34520495D01*
X75349123Y-35244304D02*
X75387219Y-35282400D01*
X75387219Y-35282400D02*
X75501504Y-35320495D01*
X75501504Y-35320495D02*
X75577695Y-35320495D01*
X75577695Y-35320495D02*
X75691981Y-35282400D01*
X75691981Y-35282400D02*
X75768171Y-35206209D01*
X75768171Y-35206209D02*
X75806266Y-35130019D01*
X75806266Y-35130019D02*
X75844362Y-34977638D01*
X75844362Y-34977638D02*
X75844362Y-34863352D01*
X75844362Y-34863352D02*
X75806266Y-34710971D01*
X75806266Y-34710971D02*
X75768171Y-34634780D01*
X75768171Y-34634780D02*
X75691981Y-34558590D01*
X75691981Y-34558590D02*
X75577695Y-34520495D01*
X75577695Y-34520495D02*
X75501504Y-34520495D01*
X75501504Y-34520495D02*
X75387219Y-34558590D01*
X75387219Y-34558590D02*
X75349123Y-34596685D01*
X74549123Y-35244304D02*
X74587219Y-35282400D01*
X74587219Y-35282400D02*
X74701504Y-35320495D01*
X74701504Y-35320495D02*
X74777695Y-35320495D01*
X74777695Y-35320495D02*
X74891981Y-35282400D01*
X74891981Y-35282400D02*
X74968171Y-35206209D01*
X74968171Y-35206209D02*
X75006266Y-35130019D01*
X75006266Y-35130019D02*
X75044362Y-34977638D01*
X75044362Y-34977638D02*
X75044362Y-34863352D01*
X75044362Y-34863352D02*
X75006266Y-34710971D01*
X75006266Y-34710971D02*
X74968171Y-34634780D01*
X74968171Y-34634780D02*
X74891981Y-34558590D01*
X74891981Y-34558590D02*
X74777695Y-34520495D01*
X74777695Y-34520495D02*
X74701504Y-34520495D01*
X74701504Y-34520495D02*
X74587219Y-34558590D01*
X74587219Y-34558590D02*
X74549123Y-34596685D01*
X75825309Y-54007797D02*
X75711023Y-54045892D01*
X75711023Y-54045892D02*
X75672928Y-54083988D01*
X75672928Y-54083988D02*
X75634832Y-54160178D01*
X75634832Y-54160178D02*
X75634832Y-54274464D01*
X75634832Y-54274464D02*
X75672928Y-54350654D01*
X75672928Y-54350654D02*
X75711023Y-54388750D01*
X75711023Y-54388750D02*
X75787213Y-54426845D01*
X75787213Y-54426845D02*
X76091975Y-54426845D01*
X76091975Y-54426845D02*
X76091975Y-53626845D01*
X76091975Y-53626845D02*
X75825309Y-53626845D01*
X75825309Y-53626845D02*
X75749118Y-53664940D01*
X75749118Y-53664940D02*
X75711023Y-53703035D01*
X75711023Y-53703035D02*
X75672928Y-53779226D01*
X75672928Y-53779226D02*
X75672928Y-53855416D01*
X75672928Y-53855416D02*
X75711023Y-53931607D01*
X75711023Y-53931607D02*
X75749118Y-53969702D01*
X75749118Y-53969702D02*
X75825309Y-54007797D01*
X75825309Y-54007797D02*
X76091975Y-54007797D01*
X74949118Y-53626845D02*
X75101499Y-53626845D01*
X75101499Y-53626845D02*
X75177690Y-53664940D01*
X75177690Y-53664940D02*
X75215785Y-53703035D01*
X75215785Y-53703035D02*
X75291975Y-53817321D01*
X75291975Y-53817321D02*
X75330071Y-53969702D01*
X75330071Y-53969702D02*
X75330071Y-54274464D01*
X75330071Y-54274464D02*
X75291975Y-54350654D01*
X75291975Y-54350654D02*
X75253880Y-54388750D01*
X75253880Y-54388750D02*
X75177690Y-54426845D01*
X75177690Y-54426845D02*
X75025309Y-54426845D01*
X75025309Y-54426845D02*
X74949118Y-54388750D01*
X74949118Y-54388750D02*
X74911023Y-54350654D01*
X74911023Y-54350654D02*
X74872928Y-54274464D01*
X74872928Y-54274464D02*
X74872928Y-54083988D01*
X74872928Y-54083988D02*
X74911023Y-54007797D01*
X74911023Y-54007797D02*
X74949118Y-53969702D01*
X74949118Y-53969702D02*
X75025309Y-53931607D01*
X75025309Y-53931607D02*
X75177690Y-53931607D01*
X75177690Y-53931607D02*
X75253880Y-53969702D01*
X75253880Y-53969702D02*
X75291975Y-54007797D01*
X75291975Y-54007797D02*
X75330071Y-54083988D01*
X86785409Y-50903447D02*
X86671123Y-50941542D01*
X86671123Y-50941542D02*
X86633028Y-50979638D01*
X86633028Y-50979638D02*
X86594932Y-51055828D01*
X86594932Y-51055828D02*
X86594932Y-51170114D01*
X86594932Y-51170114D02*
X86633028Y-51246304D01*
X86633028Y-51246304D02*
X86671123Y-51284400D01*
X86671123Y-51284400D02*
X86747313Y-51322495D01*
X86747313Y-51322495D02*
X87052075Y-51322495D01*
X87052075Y-51322495D02*
X87052075Y-50522495D01*
X87052075Y-50522495D02*
X86785409Y-50522495D01*
X86785409Y-50522495D02*
X86709218Y-50560590D01*
X86709218Y-50560590D02*
X86671123Y-50598685D01*
X86671123Y-50598685D02*
X86633028Y-50674876D01*
X86633028Y-50674876D02*
X86633028Y-50751066D01*
X86633028Y-50751066D02*
X86671123Y-50827257D01*
X86671123Y-50827257D02*
X86709218Y-50865352D01*
X86709218Y-50865352D02*
X86785409Y-50903447D01*
X86785409Y-50903447D02*
X87052075Y-50903447D01*
X85909218Y-50789161D02*
X85909218Y-51322495D01*
X86099694Y-50484400D02*
X86290171Y-51055828D01*
X86290171Y-51055828D02*
X85794932Y-51055828D01*
X75762713Y-31498750D02*
X75648427Y-31536845D01*
X75648427Y-31536845D02*
X75457951Y-31536845D01*
X75457951Y-31536845D02*
X75381760Y-31498750D01*
X75381760Y-31498750D02*
X75343665Y-31460654D01*
X75343665Y-31460654D02*
X75305570Y-31384464D01*
X75305570Y-31384464D02*
X75305570Y-31308273D01*
X75305570Y-31308273D02*
X75343665Y-31232083D01*
X75343665Y-31232083D02*
X75381760Y-31193988D01*
X75381760Y-31193988D02*
X75457951Y-31155892D01*
X75457951Y-31155892D02*
X75610332Y-31117797D01*
X75610332Y-31117797D02*
X75686522Y-31079702D01*
X75686522Y-31079702D02*
X75724617Y-31041607D01*
X75724617Y-31041607D02*
X75762713Y-30965416D01*
X75762713Y-30965416D02*
X75762713Y-30889226D01*
X75762713Y-30889226D02*
X75724617Y-30813035D01*
X75724617Y-30813035D02*
X75686522Y-30774940D01*
X75686522Y-30774940D02*
X75610332Y-30736845D01*
X75610332Y-30736845D02*
X75419855Y-30736845D01*
X75419855Y-30736845D02*
X75305570Y-30774940D01*
X75076998Y-30736845D02*
X74619855Y-30736845D01*
X74848427Y-31536845D02*
X74848427Y-30736845D01*
X75768166Y-36227797D02*
X76034832Y-36227797D01*
X76034832Y-36646845D02*
X76034832Y-35846845D01*
X76034832Y-35846845D02*
X75653880Y-35846845D01*
X75006261Y-36113511D02*
X75006261Y-36646845D01*
X75196737Y-35808750D02*
X75387214Y-36380178D01*
X75387214Y-36380178D02*
X74891975Y-36380178D01*
X86747309Y-54007797D02*
X86633023Y-54045892D01*
X86633023Y-54045892D02*
X86594928Y-54083988D01*
X86594928Y-54083988D02*
X86556832Y-54160178D01*
X86556832Y-54160178D02*
X86556832Y-54274464D01*
X86556832Y-54274464D02*
X86594928Y-54350654D01*
X86594928Y-54350654D02*
X86633023Y-54388750D01*
X86633023Y-54388750D02*
X86709213Y-54426845D01*
X86709213Y-54426845D02*
X87013975Y-54426845D01*
X87013975Y-54426845D02*
X87013975Y-53626845D01*
X87013975Y-53626845D02*
X86747309Y-53626845D01*
X86747309Y-53626845D02*
X86671118Y-53664940D01*
X86671118Y-53664940D02*
X86633023Y-53703035D01*
X86633023Y-53703035D02*
X86594928Y-53779226D01*
X86594928Y-53779226D02*
X86594928Y-53855416D01*
X86594928Y-53855416D02*
X86633023Y-53931607D01*
X86633023Y-53931607D02*
X86671118Y-53969702D01*
X86671118Y-53969702D02*
X86747309Y-54007797D01*
X86747309Y-54007797D02*
X87013975Y-54007797D01*
X85833023Y-53626845D02*
X86213975Y-53626845D01*
X86213975Y-53626845D02*
X86252071Y-54007797D01*
X86252071Y-54007797D02*
X86213975Y-53969702D01*
X86213975Y-53969702D02*
X86137785Y-53931607D01*
X86137785Y-53931607D02*
X85947309Y-53931607D01*
X85947309Y-53931607D02*
X85871118Y-53969702D01*
X85871118Y-53969702D02*
X85833023Y-54007797D01*
X85833023Y-54007797D02*
X85794928Y-54083988D01*
X85794928Y-54083988D02*
X85794928Y-54274464D01*
X85794928Y-54274464D02*
X85833023Y-54350654D01*
X85833023Y-54350654D02*
X85871118Y-54388750D01*
X85871118Y-54388750D02*
X85947309Y-54426845D01*
X85947309Y-54426845D02*
X86137785Y-54426845D01*
X86137785Y-54426845D02*
X86213975Y-54388750D01*
X86213975Y-54388750D02*
X86252071Y-54350654D01*
X87033023Y-30804940D02*
X87109213Y-30766845D01*
X87109213Y-30766845D02*
X87223499Y-30766845D01*
X87223499Y-30766845D02*
X87337785Y-30804940D01*
X87337785Y-30804940D02*
X87413975Y-30881130D01*
X87413975Y-30881130D02*
X87452070Y-30957321D01*
X87452070Y-30957321D02*
X87490166Y-31109702D01*
X87490166Y-31109702D02*
X87490166Y-31223988D01*
X87490166Y-31223988D02*
X87452070Y-31376369D01*
X87452070Y-31376369D02*
X87413975Y-31452559D01*
X87413975Y-31452559D02*
X87337785Y-31528750D01*
X87337785Y-31528750D02*
X87223499Y-31566845D01*
X87223499Y-31566845D02*
X87147308Y-31566845D01*
X87147308Y-31566845D02*
X87033023Y-31528750D01*
X87033023Y-31528750D02*
X86994927Y-31490654D01*
X86994927Y-31490654D02*
X86994927Y-31223988D01*
X86994927Y-31223988D02*
X87147308Y-31223988D01*
X86652070Y-31566845D02*
X86652070Y-30766845D01*
X86652070Y-30766845D02*
X86194927Y-31566845D01*
X86194927Y-31566845D02*
X86194927Y-30766845D01*
X85813975Y-31566845D02*
X85813975Y-30766845D01*
X85813975Y-30766845D02*
X85623499Y-30766845D01*
X85623499Y-30766845D02*
X85509213Y-30804940D01*
X85509213Y-30804940D02*
X85433023Y-30881130D01*
X85433023Y-30881130D02*
X85394928Y-30957321D01*
X85394928Y-30957321D02*
X85356832Y-31109702D01*
X85356832Y-31109702D02*
X85356832Y-31223988D01*
X85356832Y-31223988D02*
X85394928Y-31376369D01*
X85394928Y-31376369D02*
X85433023Y-31452559D01*
X85433023Y-31452559D02*
X85509213Y-31528750D01*
X85509213Y-31528750D02*
X85623499Y-31566845D01*
X85623499Y-31566845D02*
X85813975Y-31566845D01*
X87152023Y-34644940D02*
X87228213Y-34606845D01*
X87228213Y-34606845D02*
X87342499Y-34606845D01*
X87342499Y-34606845D02*
X87456785Y-34644940D01*
X87456785Y-34644940D02*
X87532975Y-34721130D01*
X87532975Y-34721130D02*
X87571070Y-34797321D01*
X87571070Y-34797321D02*
X87609166Y-34949702D01*
X87609166Y-34949702D02*
X87609166Y-35063988D01*
X87609166Y-35063988D02*
X87571070Y-35216369D01*
X87571070Y-35216369D02*
X87532975Y-35292559D01*
X87532975Y-35292559D02*
X87456785Y-35368750D01*
X87456785Y-35368750D02*
X87342499Y-35406845D01*
X87342499Y-35406845D02*
X87266308Y-35406845D01*
X87266308Y-35406845D02*
X87152023Y-35368750D01*
X87152023Y-35368750D02*
X87113927Y-35330654D01*
X87113927Y-35330654D02*
X87113927Y-35063988D01*
X87113927Y-35063988D02*
X87266308Y-35063988D01*
X86771070Y-35406845D02*
X86771070Y-34606845D01*
X86771070Y-34606845D02*
X86313927Y-35406845D01*
X86313927Y-35406845D02*
X86313927Y-34606845D01*
X85932975Y-35406845D02*
X85932975Y-34606845D01*
X85932975Y-34606845D02*
X85742499Y-34606845D01*
X85742499Y-34606845D02*
X85628213Y-34644940D01*
X85628213Y-34644940D02*
X85552023Y-34721130D01*
X85552023Y-34721130D02*
X85513928Y-34797321D01*
X85513928Y-34797321D02*
X85475832Y-34949702D01*
X85475832Y-34949702D02*
X85475832Y-35063988D01*
X85475832Y-35063988D02*
X85513928Y-35216369D01*
X85513928Y-35216369D02*
X85552023Y-35292559D01*
X85552023Y-35292559D02*
X85628213Y-35368750D01*
X85628213Y-35368750D02*
X85742499Y-35406845D01*
X85742499Y-35406845D02*
X85932975Y-35406845D01*
X75768166Y-41307797D02*
X76034832Y-41307797D01*
X76034832Y-41726845D02*
X76034832Y-40926845D01*
X76034832Y-40926845D02*
X75653880Y-40926845D01*
X75006261Y-40926845D02*
X75158642Y-40926845D01*
X75158642Y-40926845D02*
X75234833Y-40964940D01*
X75234833Y-40964940D02*
X75272928Y-41003035D01*
X75272928Y-41003035D02*
X75349118Y-41117321D01*
X75349118Y-41117321D02*
X75387214Y-41269702D01*
X75387214Y-41269702D02*
X75387214Y-41574464D01*
X75387214Y-41574464D02*
X75349118Y-41650654D01*
X75349118Y-41650654D02*
X75311023Y-41688750D01*
X75311023Y-41688750D02*
X75234833Y-41726845D01*
X75234833Y-41726845D02*
X75082452Y-41726845D01*
X75082452Y-41726845D02*
X75006261Y-41688750D01*
X75006261Y-41688750D02*
X74968166Y-41650654D01*
X74968166Y-41650654D02*
X74930071Y-41574464D01*
X74930071Y-41574464D02*
X74930071Y-41383988D01*
X74930071Y-41383988D02*
X74968166Y-41307797D01*
X74968166Y-41307797D02*
X75006261Y-41269702D01*
X75006261Y-41269702D02*
X75082452Y-41231607D01*
X75082452Y-41231607D02*
X75234833Y-41231607D01*
X75234833Y-41231607D02*
X75311023Y-41269702D01*
X75311023Y-41269702D02*
X75349118Y-41307797D01*
X75349118Y-41307797D02*
X75387214Y-41383988D01*
X75558609Y-50903447D02*
X75444323Y-50941542D01*
X75444323Y-50941542D02*
X75406228Y-50979638D01*
X75406228Y-50979638D02*
X75368132Y-51055828D01*
X75368132Y-51055828D02*
X75368132Y-51170114D01*
X75368132Y-51170114D02*
X75406228Y-51246304D01*
X75406228Y-51246304D02*
X75444323Y-51284400D01*
X75444323Y-51284400D02*
X75520513Y-51322495D01*
X75520513Y-51322495D02*
X75825275Y-51322495D01*
X75825275Y-51322495D02*
X75825275Y-50522495D01*
X75825275Y-50522495D02*
X75558609Y-50522495D01*
X75558609Y-50522495D02*
X75482418Y-50560590D01*
X75482418Y-50560590D02*
X75444323Y-50598685D01*
X75444323Y-50598685D02*
X75406228Y-50674876D01*
X75406228Y-50674876D02*
X75406228Y-50751066D01*
X75406228Y-50751066D02*
X75444323Y-50827257D01*
X75444323Y-50827257D02*
X75482418Y-50865352D01*
X75482418Y-50865352D02*
X75558609Y-50903447D01*
X75558609Y-50903447D02*
X75825275Y-50903447D01*
X75063371Y-50598685D02*
X75025275Y-50560590D01*
X75025275Y-50560590D02*
X74949085Y-50522495D01*
X74949085Y-50522495D02*
X74758609Y-50522495D01*
X74758609Y-50522495D02*
X74682418Y-50560590D01*
X74682418Y-50560590D02*
X74644323Y-50598685D01*
X74644323Y-50598685D02*
X74606228Y-50674876D01*
X74606228Y-50674876D02*
X74606228Y-50751066D01*
X74606228Y-50751066D02*
X74644323Y-50865352D01*
X74644323Y-50865352D02*
X75101466Y-51322495D01*
X75101466Y-51322495D02*
X74606228Y-51322495D01*
X87013975Y-29026845D02*
X87013975Y-28226845D01*
X87013975Y-28226845D02*
X86823499Y-28226845D01*
X86823499Y-28226845D02*
X86709213Y-28264940D01*
X86709213Y-28264940D02*
X86633023Y-28341130D01*
X86633023Y-28341130D02*
X86594928Y-28417321D01*
X86594928Y-28417321D02*
X86556832Y-28569702D01*
X86556832Y-28569702D02*
X86556832Y-28683988D01*
X86556832Y-28683988D02*
X86594928Y-28836369D01*
X86594928Y-28836369D02*
X86633023Y-28912559D01*
X86633023Y-28912559D02*
X86709213Y-28988750D01*
X86709213Y-28988750D02*
X86823499Y-29026845D01*
X86823499Y-29026845D02*
X87013975Y-29026845D01*
X86252071Y-28303035D02*
X86213975Y-28264940D01*
X86213975Y-28264940D02*
X86137785Y-28226845D01*
X86137785Y-28226845D02*
X85947309Y-28226845D01*
X85947309Y-28226845D02*
X85871118Y-28264940D01*
X85871118Y-28264940D02*
X85833023Y-28303035D01*
X85833023Y-28303035D02*
X85794928Y-28379226D01*
X85794928Y-28379226D02*
X85794928Y-28455416D01*
X85794928Y-28455416D02*
X85833023Y-28569702D01*
X85833023Y-28569702D02*
X86290166Y-29026845D01*
X86290166Y-29026845D02*
X85794928Y-29026845D01*
X76053880Y-26486845D02*
X76320547Y-26105892D01*
X76511023Y-26486845D02*
X76511023Y-25686845D01*
X76511023Y-25686845D02*
X76206261Y-25686845D01*
X76206261Y-25686845D02*
X76130071Y-25724940D01*
X76130071Y-25724940D02*
X76091976Y-25763035D01*
X76091976Y-25763035D02*
X76053880Y-25839226D01*
X76053880Y-25839226D02*
X76053880Y-25953511D01*
X76053880Y-25953511D02*
X76091976Y-26029702D01*
X76091976Y-26029702D02*
X76130071Y-26067797D01*
X76130071Y-26067797D02*
X76206261Y-26105892D01*
X76206261Y-26105892D02*
X76511023Y-26105892D01*
X75749119Y-26258273D02*
X75368166Y-26258273D01*
X75825309Y-26486845D02*
X75558642Y-25686845D01*
X75558642Y-25686845D02*
X75291976Y-26486845D01*
X75101500Y-25686845D02*
X74911024Y-26486845D01*
X74911024Y-26486845D02*
X74758643Y-25915416D01*
X74758643Y-25915416D02*
X74606262Y-26486845D01*
X74606262Y-26486845D02*
X74415786Y-25686845D01*
X75609409Y-48820647D02*
X75495123Y-48858742D01*
X75495123Y-48858742D02*
X75457028Y-48896838D01*
X75457028Y-48896838D02*
X75418932Y-48973028D01*
X75418932Y-48973028D02*
X75418932Y-49087314D01*
X75418932Y-49087314D02*
X75457028Y-49163504D01*
X75457028Y-49163504D02*
X75495123Y-49201600D01*
X75495123Y-49201600D02*
X75571313Y-49239695D01*
X75571313Y-49239695D02*
X75876075Y-49239695D01*
X75876075Y-49239695D02*
X75876075Y-48439695D01*
X75876075Y-48439695D02*
X75609409Y-48439695D01*
X75609409Y-48439695D02*
X75533218Y-48477790D01*
X75533218Y-48477790D02*
X75495123Y-48515885D01*
X75495123Y-48515885D02*
X75457028Y-48592076D01*
X75457028Y-48592076D02*
X75457028Y-48668266D01*
X75457028Y-48668266D02*
X75495123Y-48744457D01*
X75495123Y-48744457D02*
X75533218Y-48782552D01*
X75533218Y-48782552D02*
X75609409Y-48820647D01*
X75609409Y-48820647D02*
X75876075Y-48820647D01*
X75152266Y-48439695D02*
X74657028Y-48439695D01*
X74657028Y-48439695D02*
X74923694Y-48744457D01*
X74923694Y-48744457D02*
X74809409Y-48744457D01*
X74809409Y-48744457D02*
X74733218Y-48782552D01*
X74733218Y-48782552D02*
X74695123Y-48820647D01*
X74695123Y-48820647D02*
X74657028Y-48896838D01*
X74657028Y-48896838D02*
X74657028Y-49087314D01*
X74657028Y-49087314D02*
X74695123Y-49163504D01*
X74695123Y-49163504D02*
X74733218Y-49201600D01*
X74733218Y-49201600D02*
X74809409Y-49239695D01*
X74809409Y-49239695D02*
X75037980Y-49239695D01*
X75037980Y-49239695D02*
X75114171Y-49201600D01*
X75114171Y-49201600D02*
X75152266Y-49163504D01*
X86975880Y-48927797D02*
X86709214Y-48927797D01*
X86594928Y-49346845D02*
X86975880Y-49346845D01*
X86975880Y-49346845D02*
X86975880Y-48546845D01*
X86975880Y-48546845D02*
X86594928Y-48546845D01*
X85909213Y-48546845D02*
X86061594Y-48546845D01*
X86061594Y-48546845D02*
X86137785Y-48584940D01*
X86137785Y-48584940D02*
X86175880Y-48623035D01*
X86175880Y-48623035D02*
X86252070Y-48737321D01*
X86252070Y-48737321D02*
X86290166Y-48889702D01*
X86290166Y-48889702D02*
X86290166Y-49194464D01*
X86290166Y-49194464D02*
X86252070Y-49270654D01*
X86252070Y-49270654D02*
X86213975Y-49308750D01*
X86213975Y-49308750D02*
X86137785Y-49346845D01*
X86137785Y-49346845D02*
X85985404Y-49346845D01*
X85985404Y-49346845D02*
X85909213Y-49308750D01*
X85909213Y-49308750D02*
X85871118Y-49270654D01*
X85871118Y-49270654D02*
X85833023Y-49194464D01*
X85833023Y-49194464D02*
X85833023Y-49003988D01*
X85833023Y-49003988D02*
X85871118Y-48927797D01*
X85871118Y-48927797D02*
X85909213Y-48889702D01*
X85909213Y-48889702D02*
X85985404Y-48851607D01*
X85985404Y-48851607D02*
X86137785Y-48851607D01*
X86137785Y-48851607D02*
X86213975Y-48889702D01*
X86213975Y-48889702D02*
X86252070Y-48927797D01*
X86252070Y-48927797D02*
X86290166Y-49003988D01*
X87013975Y-46806845D02*
X87013975Y-46006845D01*
X87013975Y-46006845D02*
X86823499Y-46006845D01*
X86823499Y-46006845D02*
X86709213Y-46044940D01*
X86709213Y-46044940D02*
X86633023Y-46121130D01*
X86633023Y-46121130D02*
X86594928Y-46197321D01*
X86594928Y-46197321D02*
X86556832Y-46349702D01*
X86556832Y-46349702D02*
X86556832Y-46463988D01*
X86556832Y-46463988D02*
X86594928Y-46616369D01*
X86594928Y-46616369D02*
X86633023Y-46692559D01*
X86633023Y-46692559D02*
X86709213Y-46768750D01*
X86709213Y-46768750D02*
X86823499Y-46806845D01*
X86823499Y-46806845D02*
X87013975Y-46806845D01*
X86290166Y-46006845D02*
X85756832Y-46006845D01*
X85756832Y-46006845D02*
X86099690Y-46806845D01*
X86556832Y-44190654D02*
X86594928Y-44228750D01*
X86594928Y-44228750D02*
X86709213Y-44266845D01*
X86709213Y-44266845D02*
X86785404Y-44266845D01*
X86785404Y-44266845D02*
X86899690Y-44228750D01*
X86899690Y-44228750D02*
X86975880Y-44152559D01*
X86975880Y-44152559D02*
X87013975Y-44076369D01*
X87013975Y-44076369D02*
X87052071Y-43923988D01*
X87052071Y-43923988D02*
X87052071Y-43809702D01*
X87052071Y-43809702D02*
X87013975Y-43657321D01*
X87013975Y-43657321D02*
X86975880Y-43581130D01*
X86975880Y-43581130D02*
X86899690Y-43504940D01*
X86899690Y-43504940D02*
X86785404Y-43466845D01*
X86785404Y-43466845D02*
X86709213Y-43466845D01*
X86709213Y-43466845D02*
X86594928Y-43504940D01*
X86594928Y-43504940D02*
X86556832Y-43543035D01*
X85871118Y-43466845D02*
X86023499Y-43466845D01*
X86023499Y-43466845D02*
X86099690Y-43504940D01*
X86099690Y-43504940D02*
X86137785Y-43543035D01*
X86137785Y-43543035D02*
X86213975Y-43657321D01*
X86213975Y-43657321D02*
X86252071Y-43809702D01*
X86252071Y-43809702D02*
X86252071Y-44114464D01*
X86252071Y-44114464D02*
X86213975Y-44190654D01*
X86213975Y-44190654D02*
X86175880Y-44228750D01*
X86175880Y-44228750D02*
X86099690Y-44266845D01*
X86099690Y-44266845D02*
X85947309Y-44266845D01*
X85947309Y-44266845D02*
X85871118Y-44228750D01*
X85871118Y-44228750D02*
X85833023Y-44190654D01*
X85833023Y-44190654D02*
X85794928Y-44114464D01*
X85794928Y-44114464D02*
X85794928Y-43923988D01*
X85794928Y-43923988D02*
X85833023Y-43847797D01*
X85833023Y-43847797D02*
X85871118Y-43809702D01*
X85871118Y-43809702D02*
X85947309Y-43771607D01*
X85947309Y-43771607D02*
X86099690Y-43771607D01*
X86099690Y-43771607D02*
X86175880Y-43809702D01*
X86175880Y-43809702D02*
X86213975Y-43847797D01*
X86213975Y-43847797D02*
X86252071Y-43923988D01*
X86724848Y-25686845D02*
X86267705Y-25686845D01*
X86496277Y-26486845D02*
X86496277Y-25686845D01*
X86077229Y-25686845D02*
X85543895Y-26486845D01*
X85543895Y-25686845D02*
X86077229Y-26486845D01*
X85086752Y-25686845D02*
X85010562Y-25686845D01*
X85010562Y-25686845D02*
X84934371Y-25724940D01*
X84934371Y-25724940D02*
X84896276Y-25763035D01*
X84896276Y-25763035D02*
X84858181Y-25839226D01*
X84858181Y-25839226D02*
X84820086Y-25991607D01*
X84820086Y-25991607D02*
X84820086Y-26182083D01*
X84820086Y-26182083D02*
X84858181Y-26334464D01*
X84858181Y-26334464D02*
X84896276Y-26410654D01*
X84896276Y-26410654D02*
X84934371Y-26448750D01*
X84934371Y-26448750D02*
X85010562Y-26486845D01*
X85010562Y-26486845D02*
X85086752Y-26486845D01*
X85086752Y-26486845D02*
X85162943Y-26448750D01*
X85162943Y-26448750D02*
X85201038Y-26410654D01*
X85201038Y-26410654D02*
X85239133Y-26334464D01*
X85239133Y-26334464D02*
X85277229Y-26182083D01*
X85277229Y-26182083D02*
X85277229Y-25991607D01*
X85277229Y-25991607D02*
X85239133Y-25839226D01*
X85239133Y-25839226D02*
X85201038Y-25763035D01*
X85201038Y-25763035D02*
X85162943Y-25724940D01*
X85162943Y-25724940D02*
X85086752Y-25686845D01*
X83905800Y-25648750D02*
X84591514Y-26677321D01*
X83639133Y-26486845D02*
X83639133Y-25686845D01*
X83639133Y-25686845D02*
X83448657Y-25686845D01*
X83448657Y-25686845D02*
X83334371Y-25724940D01*
X83334371Y-25724940D02*
X83258181Y-25801130D01*
X83258181Y-25801130D02*
X83220086Y-25877321D01*
X83220086Y-25877321D02*
X83181990Y-26029702D01*
X83181990Y-26029702D02*
X83181990Y-26143988D01*
X83181990Y-26143988D02*
X83220086Y-26296369D01*
X83220086Y-26296369D02*
X83258181Y-26372559D01*
X83258181Y-26372559D02*
X83334371Y-26448750D01*
X83334371Y-26448750D02*
X83448657Y-26486845D01*
X83448657Y-26486845D02*
X83639133Y-26486845D01*
X82915324Y-25686845D02*
X82420086Y-25686845D01*
X82420086Y-25686845D02*
X82686752Y-25991607D01*
X82686752Y-25991607D02*
X82572467Y-25991607D01*
X82572467Y-25991607D02*
X82496276Y-26029702D01*
X82496276Y-26029702D02*
X82458181Y-26067797D01*
X82458181Y-26067797D02*
X82420086Y-26143988D01*
X82420086Y-26143988D02*
X82420086Y-26334464D01*
X82420086Y-26334464D02*
X82458181Y-26410654D01*
X82458181Y-26410654D02*
X82496276Y-26448750D01*
X82496276Y-26448750D02*
X82572467Y-26486845D01*
X82572467Y-26486845D02*
X82801038Y-26486845D01*
X82801038Y-26486845D02*
X82877229Y-26448750D01*
X82877229Y-26448750D02*
X82915324Y-26410654D01*
X75768166Y-38767797D02*
X76034832Y-38767797D01*
X76034832Y-39186845D02*
X76034832Y-38386845D01*
X76034832Y-38386845D02*
X75653880Y-38386845D01*
X74968166Y-38386845D02*
X75349118Y-38386845D01*
X75349118Y-38386845D02*
X75387214Y-38767797D01*
X75387214Y-38767797D02*
X75349118Y-38729702D01*
X75349118Y-38729702D02*
X75272928Y-38691607D01*
X75272928Y-38691607D02*
X75082452Y-38691607D01*
X75082452Y-38691607D02*
X75006261Y-38729702D01*
X75006261Y-38729702D02*
X74968166Y-38767797D01*
X74968166Y-38767797D02*
X74930071Y-38843988D01*
X74930071Y-38843988D02*
X74930071Y-39034464D01*
X74930071Y-39034464D02*
X74968166Y-39110654D01*
X74968166Y-39110654D02*
X75006261Y-39148750D01*
X75006261Y-39148750D02*
X75082452Y-39186845D01*
X75082452Y-39186845D02*
X75272928Y-39186845D01*
X75272928Y-39186845D02*
X75349118Y-39148750D01*
X75349118Y-39148750D02*
X75387214Y-39110654D01*
X87013975Y-36646845D02*
X87013975Y-35846845D01*
X87013975Y-35846845D02*
X86823499Y-35846845D01*
X86823499Y-35846845D02*
X86709213Y-35884940D01*
X86709213Y-35884940D02*
X86633023Y-35961130D01*
X86633023Y-35961130D02*
X86594928Y-36037321D01*
X86594928Y-36037321D02*
X86556832Y-36189702D01*
X86556832Y-36189702D02*
X86556832Y-36303988D01*
X86556832Y-36303988D02*
X86594928Y-36456369D01*
X86594928Y-36456369D02*
X86633023Y-36532559D01*
X86633023Y-36532559D02*
X86709213Y-36608750D01*
X86709213Y-36608750D02*
X86823499Y-36646845D01*
X86823499Y-36646845D02*
X87013975Y-36646845D01*
X85794928Y-36646845D02*
X86252071Y-36646845D01*
X86023499Y-36646845D02*
X86023499Y-35846845D01*
X86023499Y-35846845D02*
X86099690Y-35961130D01*
X86099690Y-35961130D02*
X86175880Y-36037321D01*
X86175880Y-36037321D02*
X86252071Y-36075416D01*
X87013975Y-41726845D02*
X87013975Y-40926845D01*
X87013975Y-40926845D02*
X86823499Y-40926845D01*
X86823499Y-40926845D02*
X86709213Y-40964940D01*
X86709213Y-40964940D02*
X86633023Y-41041130D01*
X86633023Y-41041130D02*
X86594928Y-41117321D01*
X86594928Y-41117321D02*
X86556832Y-41269702D01*
X86556832Y-41269702D02*
X86556832Y-41383988D01*
X86556832Y-41383988D02*
X86594928Y-41536369D01*
X86594928Y-41536369D02*
X86633023Y-41612559D01*
X86633023Y-41612559D02*
X86709213Y-41688750D01*
X86709213Y-41688750D02*
X86823499Y-41726845D01*
X86823499Y-41726845D02*
X87013975Y-41726845D01*
X85871118Y-41193511D02*
X85871118Y-41726845D01*
X86061594Y-40888750D02*
X86252071Y-41460178D01*
X86252071Y-41460178D02*
X85756832Y-41460178D01*
X75768166Y-43847797D02*
X76034832Y-43847797D01*
X76034832Y-44266845D02*
X76034832Y-43466845D01*
X76034832Y-43466845D02*
X75653880Y-43466845D01*
X75425309Y-43466845D02*
X74891975Y-43466845D01*
X74891975Y-43466845D02*
X75234833Y-44266845D01*
X76111023Y-28264940D02*
X76187213Y-28226845D01*
X76187213Y-28226845D02*
X76301499Y-28226845D01*
X76301499Y-28226845D02*
X76415785Y-28264940D01*
X76415785Y-28264940D02*
X76491975Y-28341130D01*
X76491975Y-28341130D02*
X76530070Y-28417321D01*
X76530070Y-28417321D02*
X76568166Y-28569702D01*
X76568166Y-28569702D02*
X76568166Y-28683988D01*
X76568166Y-28683988D02*
X76530070Y-28836369D01*
X76530070Y-28836369D02*
X76491975Y-28912559D01*
X76491975Y-28912559D02*
X76415785Y-28988750D01*
X76415785Y-28988750D02*
X76301499Y-29026845D01*
X76301499Y-29026845D02*
X76225308Y-29026845D01*
X76225308Y-29026845D02*
X76111023Y-28988750D01*
X76111023Y-28988750D02*
X76072927Y-28950654D01*
X76072927Y-28950654D02*
X76072927Y-28683988D01*
X76072927Y-28683988D02*
X76225308Y-28683988D01*
X75730070Y-29026845D02*
X75730070Y-28226845D01*
X75730070Y-28226845D02*
X75272927Y-29026845D01*
X75272927Y-29026845D02*
X75272927Y-28226845D01*
X74891975Y-29026845D02*
X74891975Y-28226845D01*
X74891975Y-28226845D02*
X74701499Y-28226845D01*
X74701499Y-28226845D02*
X74587213Y-28264940D01*
X74587213Y-28264940D02*
X74511023Y-28341130D01*
X74511023Y-28341130D02*
X74472928Y-28417321D01*
X74472928Y-28417321D02*
X74434832Y-28569702D01*
X74434832Y-28569702D02*
X74434832Y-28683988D01*
X74434832Y-28683988D02*
X74472928Y-28836369D01*
X74472928Y-28836369D02*
X74511023Y-28912559D01*
X74511023Y-28912559D02*
X74587213Y-28988750D01*
X74587213Y-28988750D02*
X74701499Y-29026845D01*
X74701499Y-29026845D02*
X74891975Y-29026845D01*
X75825309Y-46387797D02*
X75711023Y-46425892D01*
X75711023Y-46425892D02*
X75672928Y-46463988D01*
X75672928Y-46463988D02*
X75634832Y-46540178D01*
X75634832Y-46540178D02*
X75634832Y-46654464D01*
X75634832Y-46654464D02*
X75672928Y-46730654D01*
X75672928Y-46730654D02*
X75711023Y-46768750D01*
X75711023Y-46768750D02*
X75787213Y-46806845D01*
X75787213Y-46806845D02*
X76091975Y-46806845D01*
X76091975Y-46806845D02*
X76091975Y-46006845D01*
X76091975Y-46006845D02*
X75825309Y-46006845D01*
X75825309Y-46006845D02*
X75749118Y-46044940D01*
X75749118Y-46044940D02*
X75711023Y-46083035D01*
X75711023Y-46083035D02*
X75672928Y-46159226D01*
X75672928Y-46159226D02*
X75672928Y-46235416D01*
X75672928Y-46235416D02*
X75711023Y-46311607D01*
X75711023Y-46311607D02*
X75749118Y-46349702D01*
X75749118Y-46349702D02*
X75825309Y-46387797D01*
X75825309Y-46387797D02*
X76091975Y-46387797D01*
X74872928Y-46806845D02*
X75330071Y-46806845D01*
X75101499Y-46806845D02*
X75101499Y-46006845D01*
X75101499Y-46006845D02*
X75177690Y-46121130D01*
X75177690Y-46121130D02*
X75253880Y-46197321D01*
X75253880Y-46197321D02*
X75330071Y-46235416D01*
G36*
X171366785Y-56638330D02*
G01*
X171366785Y-73135359D01*
X172259557Y-73149094D01*
X173152329Y-73162828D01*
X173165922Y-74205858D01*
X173179515Y-75248887D01*
X174976615Y-75262095D01*
X176773716Y-75275304D01*
X176787310Y-76318967D01*
X176800905Y-77362630D01*
X179764348Y-77362630D01*
X179777943Y-78406294D01*
X179791537Y-79449957D01*
X181665102Y-79463144D01*
X183538666Y-79476330D01*
X183538666Y-77362630D01*
X185651141Y-77362630D01*
X185651141Y-75251798D01*
X186996587Y-75238402D01*
X188342032Y-75225007D01*
X188355627Y-74181343D01*
X188369222Y-73137680D01*
X190077731Y-73137680D01*
X190052131Y-83976690D01*
X189335399Y-83990645D01*
X188618666Y-84004600D01*
X188618666Y-85028927D01*
X188618291Y-85275925D01*
X188615907Y-85566042D01*
X188610481Y-85776952D01*
X188601051Y-85921417D01*
X188586653Y-86012203D01*
X188566326Y-86062070D01*
X188539107Y-86083784D01*
X188536934Y-86084512D01*
X188456868Y-86093931D01*
X188294445Y-86102112D01*
X188066648Y-86108564D01*
X187790461Y-86112794D01*
X187482869Y-86114314D01*
X186506191Y-86114314D01*
X186506191Y-88174171D01*
X185613418Y-88187906D01*
X184720646Y-88201640D01*
X184707162Y-89396195D01*
X184693677Y-90590749D01*
X182281240Y-90590749D01*
X182281240Y-92652927D01*
X179766389Y-92652927D01*
X179766389Y-95043615D01*
X179766384Y-95101699D01*
X179765766Y-95667406D01*
X179763966Y-96140388D01*
X179760794Y-96527835D01*
X179756059Y-96836937D01*
X179749571Y-97074883D01*
X179741137Y-97248863D01*
X179730569Y-97366068D01*
X179717674Y-97433687D01*
X179702262Y-97458910D01*
X179687940Y-97460986D01*
X179586904Y-97464514D01*
X179400775Y-97465971D01*
X179140509Y-97465431D01*
X178817063Y-97462967D01*
X178441394Y-97458651D01*
X178024458Y-97452557D01*
X177577212Y-97444757D01*
X175516290Y-97405997D01*
X175501780Y-96752135D01*
X175501174Y-96723542D01*
X175498299Y-96469385D01*
X175499971Y-96246114D01*
X175505778Y-96076949D01*
X175515312Y-95985106D01*
X175543355Y-95871937D01*
X178207181Y-95871937D01*
X178207181Y-94565690D01*
X175164211Y-94539066D01*
X175139062Y-93507977D01*
X175113914Y-92476888D01*
X174146719Y-92463231D01*
X173179525Y-92449574D01*
X173152329Y-94539066D01*
X172536191Y-94553188D01*
X171920052Y-94567311D01*
X171920052Y-101621865D01*
X170750646Y-101588799D01*
X170721104Y-101587972D01*
X170306822Y-101577774D01*
X169857492Y-101568908D01*
X169407010Y-101561904D01*
X168989271Y-101557297D01*
X168638171Y-101555617D01*
X167695102Y-101555502D01*
X167695102Y-100046591D01*
X170360844Y-100046591D01*
X170360844Y-90339264D01*
X167797737Y-90339264D01*
X167784142Y-89295601D01*
X167770547Y-88251937D01*
X166651438Y-88238401D01*
X165532329Y-88224864D01*
X165532329Y-83901244D01*
X163721636Y-83901244D01*
X163721636Y-79625997D01*
X160955300Y-79625997D01*
X160954529Y-80569066D01*
X160952228Y-80868022D01*
X160946235Y-81136488D01*
X160937249Y-81355333D01*
X160925971Y-81507568D01*
X160913099Y-81576203D01*
X160906940Y-81583283D01*
X160853674Y-81605219D01*
X160744592Y-81619913D01*
X160568529Y-81627960D01*
X160314320Y-81629957D01*
X159970800Y-81626500D01*
X159069161Y-81612729D01*
X159056040Y-79453264D01*
X159054365Y-79150417D01*
X159052641Y-78654180D01*
X159052923Y-78247011D01*
X159055381Y-77921392D01*
X159060187Y-77669809D01*
X159067514Y-77484748D01*
X159077534Y-77358692D01*
X159090417Y-77284128D01*
X159106337Y-77253539D01*
X159147630Y-77246919D01*
X159281894Y-77239022D01*
X159498145Y-77231816D01*
X159785996Y-77225482D01*
X160135062Y-77220202D01*
X160534958Y-77216159D01*
X160975297Y-77213534D01*
X161445696Y-77212510D01*
X163721636Y-77211739D01*
X163721636Y-71846190D01*
X162175003Y-71813013D01*
X161975957Y-71809187D01*
X161577955Y-71803196D01*
X161104006Y-71797646D01*
X160569416Y-71792647D01*
X159989489Y-71788309D01*
X159379531Y-71784741D01*
X158754848Y-71782052D01*
X158130745Y-71780351D01*
X157522527Y-71779748D01*
X154416686Y-71779660D01*
X154416686Y-69415700D01*
X161659458Y-69415700D01*
X161659458Y-66549150D01*
X155208864Y-66536385D01*
X148758270Y-66523621D01*
X148758270Y-58025851D01*
X165137639Y-58025851D01*
X165137945Y-58306981D01*
X165140976Y-58539720D01*
X165146524Y-58706675D01*
X165154377Y-58790452D01*
X165165472Y-58827198D01*
X165187014Y-58855442D01*
X165231708Y-58875697D01*
X165312462Y-58889291D01*
X165442182Y-58897552D01*
X165633776Y-58901809D01*
X165900150Y-58903389D01*
X166254212Y-58903621D01*
X166367299Y-58903435D01*
X166675783Y-58900940D01*
X166944474Y-58895897D01*
X167158171Y-58888766D01*
X167301676Y-58880010D01*
X167359788Y-58870089D01*
X167363946Y-58857461D01*
X167373337Y-58762267D01*
X167381413Y-58587672D01*
X167387732Y-58348673D01*
X167391849Y-58060265D01*
X167393319Y-57737444D01*
X167393319Y-56638330D01*
X166274211Y-56651866D01*
X165155102Y-56665403D01*
X165140845Y-57671343D01*
X165140270Y-57713725D01*
X165137639Y-58025851D01*
X148758270Y-58025851D01*
X148758270Y-54754116D01*
X149625894Y-54740354D01*
X150493517Y-54726592D01*
X150493517Y-53572135D01*
X169606389Y-53572135D01*
X169606389Y-54728967D01*
X171366785Y-54728967D01*
X171366785Y-56638330D01*
G37*
X49387500Y-64912500D02*
X55387500Y-64912500D01*
X55387500Y-64912500D02*
X55387500Y-58912500D01*
X49387500Y-58912500D02*
X49387500Y-64912500D01*
X55387500Y-58912500D02*
X49387500Y-58912500D01*
X54183551Y-61912500D02*
G75*
G03*
X54183551Y-61912500I-1796051J0D01*
G01*
D12*
X85534500Y-22306750D02*
X89852500Y-22306750D01*
X76390500Y-22307750D02*
X72072500Y-22307750D01*
X89852500Y-26624750D02*
X89852500Y-22306750D01*
X72072500Y-26625750D02*
X72072500Y-22307750D01*
X89852500Y-51008750D02*
X89852500Y-55326750D01*
X72072500Y-51008750D02*
X72072500Y-55326750D01*
X85534500Y-55326750D02*
X89852500Y-55326750D01*
X76390500Y-55326750D02*
X72072500Y-55326750D01*
D11*
X76530932Y-31526110D02*
X76430932Y-31526110D01*
X76430932Y-30726110D01*
X76530932Y-30726110D01*
X76530932Y-31526110D01*
G36*
X76530932Y-31526110D02*
G01*
X76430932Y-31526110D01*
X76430932Y-30726110D01*
X76530932Y-30726110D01*
X76530932Y-31526110D01*
G37*
X76530932Y-30826110D02*
X76030932Y-30826110D01*
X76030932Y-30726110D01*
X76530932Y-30726110D01*
X76530932Y-30826110D01*
G36*
X76530932Y-30826110D02*
G01*
X76030932Y-30826110D01*
X76030932Y-30726110D01*
X76530932Y-30726110D01*
X76530932Y-30826110D01*
G37*
X76130932Y-31026110D02*
X76030932Y-31026110D01*
X76030932Y-30726110D01*
X76130932Y-30726110D01*
X76130932Y-31026110D01*
G36*
X76130932Y-31026110D02*
G01*
X76030932Y-31026110D01*
X76030932Y-30726110D01*
X76130932Y-30726110D01*
X76130932Y-31026110D01*
G37*
X76330932Y-31226110D02*
X76230932Y-31226110D01*
X76230932Y-31126110D01*
X76330932Y-31126110D01*
X76330932Y-31226110D01*
G36*
X76330932Y-31226110D02*
G01*
X76230932Y-31226110D01*
X76230932Y-31126110D01*
X76330932Y-31126110D01*
X76330932Y-31226110D01*
G37*
X76130932Y-31526110D02*
X76030932Y-31526110D01*
X76030932Y-31326110D01*
X76130932Y-31326110D01*
X76130932Y-31526110D01*
G36*
X76130932Y-31526110D02*
G01*
X76030932Y-31526110D01*
X76030932Y-31326110D01*
X76130932Y-31326110D01*
X76130932Y-31526110D01*
G37*
D13*
X88582500Y-26116750D03*
D14*
X88582500Y-28656750D03*
X88582500Y-31196750D03*
X88582500Y-33736750D03*
X88582500Y-36276750D03*
X88582500Y-38816750D03*
X88582500Y-41356750D03*
X88582500Y-43896750D03*
X88582500Y-46436750D03*
X88582500Y-48976750D03*
X88582500Y-51516750D03*
X88582500Y-54056750D03*
X73342500Y-54056750D03*
X73342500Y-51516750D03*
X73342500Y-48976750D03*
X73342500Y-46436750D03*
X73342500Y-43896750D03*
X73342500Y-41356750D03*
X73342500Y-38816750D03*
X73342500Y-36276750D03*
X73342500Y-33736750D03*
X73342500Y-31196750D03*
X73342500Y-28656750D03*
X73342500Y-26116750D03*
%LPC*%
D15*
X57150000Y-42862500D03*
D16*
X64770000Y-42862500D03*
D17*
X209232500Y-90487500D03*
D18*
X214312500Y-90487500D03*
D17*
X219392500Y-90487500D03*
D19*
X211157501Y-87217500D03*
D20*
X211812500Y-86487500D03*
D21*
X216832500Y-85697500D03*
D20*
X216852500Y-85407500D03*
D15*
X242697000Y-36322000D03*
D16*
X242697000Y-28702000D03*
D17*
X56832500Y-90487500D03*
D18*
X61912500Y-90487500D03*
D17*
X66992500Y-90487500D03*
D19*
X58757501Y-87217500D03*
D20*
X59412500Y-86487500D03*
D21*
X64432500Y-85697500D03*
D20*
X64452500Y-85407500D03*
D22*
X46196250Y-42862500D03*
D23*
X43656250Y-42862500D03*
X41116250Y-42862500D03*
D15*
X242887500Y-75247500D03*
D16*
X242887500Y-67627500D03*
D17*
X152082500Y-33337500D03*
D18*
X157162500Y-33337500D03*
D17*
X162242500Y-33337500D03*
D19*
X154007501Y-30067500D03*
D20*
X154662500Y-29337500D03*
D21*
X159682500Y-28547500D03*
D20*
X159702500Y-28257500D03*
D15*
X204787500Y-75247500D03*
D16*
X204787500Y-67627500D03*
D15*
X242887500Y-113347500D03*
D16*
X242887500Y-105727500D03*
D17*
X247332500Y-90487500D03*
D18*
X252412500Y-90487500D03*
D17*
X257492500Y-90487500D03*
D19*
X249257501Y-87217500D03*
D20*
X249912500Y-86487500D03*
D21*
X254932500Y-85697500D03*
D20*
X254952500Y-85407500D03*
D15*
X109537500Y-55403750D03*
D16*
X109537500Y-47783750D03*
D17*
X152082500Y-52387500D03*
D18*
X157162500Y-52387500D03*
D17*
X162242500Y-52387500D03*
D19*
X154007501Y-49117500D03*
D20*
X154662500Y-48387500D03*
D21*
X159682500Y-47597500D03*
D20*
X159702500Y-47307500D03*
D15*
X166687500Y-94297500D03*
D16*
X166687500Y-86677500D03*
D15*
X147637500Y-94297500D03*
D16*
X147637500Y-86677500D03*
D17*
X94932500Y-52387500D03*
D18*
X100012500Y-52387500D03*
D17*
X105092500Y-52387500D03*
D19*
X96857501Y-49117500D03*
D20*
X97512500Y-48387500D03*
D21*
X102532500Y-47597500D03*
D20*
X102552500Y-47307500D03*
D17*
X133032500Y-109537500D03*
D18*
X138112500Y-109537500D03*
D17*
X143192500Y-109537500D03*
D19*
X134957501Y-106267500D03*
D20*
X135612500Y-105537500D03*
D21*
X140632500Y-104747500D03*
D20*
X140652500Y-104457500D03*
D17*
X133032500Y-90487500D03*
D18*
X138112500Y-90487500D03*
D17*
X143192500Y-90487500D03*
D19*
X134957501Y-87217500D03*
D20*
X135612500Y-86487500D03*
D21*
X140632500Y-85697500D03*
D20*
X140652500Y-85407500D03*
D15*
X109537500Y-36353750D03*
D16*
X109537500Y-28733750D03*
D17*
X152082500Y-90487500D03*
D18*
X157162500Y-90487500D03*
D17*
X162242500Y-90487500D03*
D19*
X154007501Y-87217500D03*
D20*
X154662500Y-86487500D03*
D21*
X159682500Y-85697500D03*
D20*
X159702500Y-85407500D03*
D17*
X171132500Y-52387500D03*
D18*
X176212500Y-52387500D03*
D17*
X181292500Y-52387500D03*
D19*
X173057501Y-49117500D03*
D20*
X173712500Y-48387500D03*
D21*
X178732500Y-47597500D03*
D20*
X178752500Y-47307500D03*
D17*
X113982500Y-52387500D03*
D18*
X119062500Y-52387500D03*
D17*
X124142500Y-52387500D03*
D19*
X115907501Y-49117500D03*
D20*
X116562500Y-48387500D03*
D21*
X121582500Y-47597500D03*
D20*
X121602500Y-47307500D03*
D15*
X128587500Y-94297500D03*
D16*
X128587500Y-86677500D03*
D17*
X171132500Y-90487500D03*
D18*
X176212500Y-90487500D03*
D17*
X181292500Y-90487500D03*
D19*
X173057501Y-87217500D03*
D20*
X173712500Y-86487500D03*
D21*
X178732500Y-85697500D03*
D20*
X178752500Y-85407500D03*
D15*
X128587500Y-113347500D03*
D16*
X128587500Y-105727500D03*
D15*
X185737500Y-113347500D03*
D16*
X185737500Y-105727500D03*
D17*
X56832500Y-71437500D03*
D18*
X61912500Y-71437500D03*
D17*
X66992500Y-71437500D03*
D19*
X58757501Y-68167500D03*
D20*
X59412500Y-67437500D03*
D21*
X64432500Y-66647500D03*
D20*
X64452500Y-66357500D03*
D17*
X190182500Y-52387500D03*
D18*
X195262500Y-52387500D03*
D17*
X200342500Y-52387500D03*
D19*
X192107501Y-49117500D03*
D20*
X192762500Y-48387500D03*
D21*
X197782500Y-47597500D03*
D20*
X197802500Y-47307500D03*
D15*
X223837500Y-36353750D03*
D16*
X223837500Y-28733750D03*
D15*
X247808750Y-100012500D03*
D16*
X255428750Y-100012500D03*
D15*
X71437500Y-113347500D03*
D16*
X71437500Y-105727500D03*
D17*
X171132500Y-33337500D03*
D18*
X176212500Y-33337500D03*
D17*
X181292500Y-33337500D03*
D19*
X173057501Y-30067500D03*
D20*
X173712500Y-29337500D03*
D21*
X178732500Y-28547500D03*
D20*
X178752500Y-28257500D03*
D15*
X204787500Y-94297500D03*
D16*
X204787500Y-86677500D03*
D17*
X113982500Y-33337500D03*
D18*
X119062500Y-33337500D03*
D17*
X124142500Y-33337500D03*
D19*
X115907501Y-30067500D03*
D20*
X116562500Y-29337500D03*
D21*
X121582500Y-28547500D03*
D20*
X121602500Y-28257500D03*
D17*
X190182500Y-90487500D03*
D18*
X195262500Y-90487500D03*
D17*
X200342500Y-90487500D03*
D19*
X192107501Y-87217500D03*
D20*
X192762500Y-86487500D03*
D21*
X197782500Y-85697500D03*
D20*
X197802500Y-85407500D03*
D15*
X71437500Y-94297500D03*
D16*
X71437500Y-86677500D03*
D15*
X185737500Y-75247500D03*
D16*
X185737500Y-67627500D03*
D15*
X147637500Y-36353750D03*
D16*
X147637500Y-28733750D03*
D15*
X204787500Y-36353750D03*
D16*
X204787500Y-28733750D03*
D15*
X62706250Y-61912500D03*
D16*
X70326250Y-61912500D03*
D17*
X75882500Y-71437500D03*
D18*
X80962500Y-71437500D03*
D17*
X86042500Y-71437500D03*
D19*
X77807501Y-68167500D03*
D20*
X78462500Y-67437500D03*
D21*
X83482500Y-66647500D03*
D20*
X83502500Y-66357500D03*
D17*
X228282500Y-71437500D03*
D18*
X233362500Y-71437500D03*
D17*
X238442500Y-71437500D03*
D19*
X230207501Y-68167500D03*
D20*
X230862500Y-67437500D03*
D21*
X235882500Y-66647500D03*
D20*
X235902500Y-66357500D03*
D15*
X228346000Y-98552000D03*
D16*
X235966000Y-98552000D03*
D17*
X152082500Y-109537500D03*
D18*
X157162500Y-109537500D03*
D17*
X162242500Y-109537500D03*
D19*
X154007501Y-106267500D03*
D20*
X154662500Y-105537500D03*
D21*
X159682500Y-104747500D03*
D20*
X159702500Y-104457500D03*
D15*
X52387500Y-75247500D03*
D16*
X52387500Y-67627500D03*
D15*
X223837500Y-94297500D03*
D16*
X223837500Y-86677500D03*
D17*
X228282500Y-109537500D03*
D18*
X233362500Y-109537500D03*
D17*
X238442500Y-109537500D03*
D19*
X230207501Y-106267500D03*
D20*
X230862500Y-105537500D03*
D21*
X235882500Y-104747500D03*
D20*
X235902500Y-104457500D03*
D15*
X247700800Y-61823600D03*
D16*
X255320800Y-61823600D03*
D17*
X133032500Y-33337500D03*
D18*
X138112500Y-33337500D03*
D17*
X143192500Y-33337500D03*
D19*
X134957501Y-30067500D03*
D20*
X135612500Y-29337500D03*
D21*
X140632500Y-28547500D03*
D20*
X140652500Y-28257500D03*
D17*
X228282500Y-33337500D03*
D18*
X233362500Y-33337500D03*
D17*
X238442500Y-33337500D03*
D19*
X230207501Y-30067500D03*
D20*
X230862500Y-29337500D03*
D21*
X235882500Y-28547500D03*
D20*
X235902500Y-28257500D03*
D17*
X209232500Y-33337500D03*
D18*
X214312500Y-33337500D03*
D17*
X219392500Y-33337500D03*
D19*
X211157501Y-30067500D03*
D20*
X211812500Y-29337500D03*
D21*
X216832500Y-28547500D03*
D20*
X216852500Y-28257500D03*
D17*
X56832500Y-33337500D03*
D18*
X61912500Y-33337500D03*
D17*
X66992500Y-33337500D03*
D19*
X58757501Y-30067500D03*
D20*
X59412500Y-29337500D03*
D21*
X64432500Y-28547500D03*
D20*
X64452500Y-28257500D03*
D17*
X75882500Y-109537500D03*
D18*
X80962500Y-109537500D03*
D17*
X86042500Y-109537500D03*
D19*
X77807501Y-106267500D03*
D20*
X78462500Y-105537500D03*
D21*
X83482500Y-104747500D03*
D20*
X83502500Y-104457500D03*
D15*
X128587500Y-36353750D03*
D16*
X128587500Y-28733750D03*
D15*
X109537500Y-113347500D03*
D16*
X109537500Y-105727500D03*
D17*
X75882500Y-90487500D03*
D18*
X80962500Y-90487500D03*
D17*
X86042500Y-90487500D03*
D19*
X77807501Y-87217500D03*
D20*
X78462500Y-86487500D03*
D21*
X83482500Y-85697500D03*
D20*
X83502500Y-85407500D03*
D17*
X113982500Y-71437500D03*
D18*
X119062500Y-71437500D03*
D17*
X124142500Y-71437500D03*
D19*
X115907501Y-68167500D03*
D20*
X116562500Y-67437500D03*
D21*
X121582500Y-66647500D03*
D20*
X121602500Y-66357500D03*
D17*
X56832500Y-52387500D03*
D18*
X61912500Y-52387500D03*
D17*
X66992500Y-52387500D03*
D19*
X58757501Y-49117500D03*
D20*
X59412500Y-48387500D03*
D21*
X64432500Y-47597500D03*
D20*
X64452500Y-47307500D03*
D17*
X209232500Y-109537500D03*
D18*
X214312500Y-109537500D03*
D17*
X219392500Y-109537500D03*
D19*
X211157501Y-106267500D03*
D20*
X211812500Y-105537500D03*
D21*
X216832500Y-104747500D03*
D20*
X216852500Y-104457500D03*
D17*
X37782500Y-90487500D03*
D18*
X42862500Y-90487500D03*
D17*
X47942500Y-90487500D03*
D19*
X39707501Y-87217500D03*
D20*
X40362500Y-86487500D03*
D21*
X45382500Y-85697500D03*
D20*
X45402500Y-85407500D03*
D15*
X223837500Y-55403750D03*
D16*
X223837500Y-47783750D03*
D15*
X52387500Y-55403750D03*
D16*
X52387500Y-47783750D03*
D17*
X247332500Y-33337500D03*
D18*
X252412500Y-33337500D03*
D17*
X257492500Y-33337500D03*
D19*
X249257501Y-30067500D03*
D20*
X249912500Y-29337500D03*
D21*
X254932500Y-28547500D03*
D20*
X254952500Y-28257500D03*
D17*
X37782500Y-33337500D03*
D18*
X42862500Y-33337500D03*
D17*
X47942500Y-33337500D03*
D19*
X39707501Y-30067500D03*
D20*
X40362500Y-29337500D03*
D21*
X45382500Y-28547500D03*
D20*
X45402500Y-28257500D03*
D15*
X52387500Y-113347500D03*
D16*
X52387500Y-105727500D03*
D15*
X185737500Y-55403750D03*
D16*
X185737500Y-47783750D03*
D17*
X113982500Y-90487500D03*
D18*
X119062500Y-90487500D03*
D17*
X124142500Y-90487500D03*
D19*
X115907501Y-87217500D03*
D20*
X116562500Y-86487500D03*
D21*
X121582500Y-85697500D03*
D20*
X121602500Y-85407500D03*
D15*
X166687500Y-75247500D03*
D16*
X166687500Y-67627500D03*
D15*
X86487000Y-61912500D03*
D16*
X94107000Y-61912500D03*
D17*
X228282500Y-90487500D03*
D18*
X233362500Y-90487500D03*
D17*
X238442500Y-90487500D03*
D19*
X230207501Y-87217500D03*
D20*
X230862500Y-86487500D03*
D21*
X235882500Y-85697500D03*
D20*
X235902500Y-85407500D03*
D17*
X209232500Y-71437500D03*
D18*
X214312500Y-71437500D03*
D17*
X219392500Y-71437500D03*
D19*
X211157501Y-68167500D03*
D20*
X211812500Y-67437500D03*
D21*
X216832500Y-66647500D03*
D20*
X216852500Y-66357500D03*
D15*
X147637500Y-75247500D03*
D16*
X147637500Y-67627500D03*
D15*
X71437500Y-75247500D03*
D16*
X71437500Y-67627500D03*
D15*
X90487500Y-113347500D03*
D16*
X90487500Y-105727500D03*
D15*
X204787500Y-55403750D03*
D16*
X204787500Y-47783750D03*
D15*
X147637500Y-113347500D03*
D16*
X147637500Y-105727500D03*
D15*
X75438000Y-61976000D03*
D16*
X83058000Y-61976000D03*
D17*
X247332500Y-71437500D03*
D18*
X252412500Y-71437500D03*
D17*
X257492500Y-71437500D03*
D19*
X249257501Y-68167500D03*
D20*
X249912500Y-67437500D03*
D21*
X254932500Y-66647500D03*
D20*
X254952500Y-66357500D03*
D17*
X190182500Y-33337500D03*
D18*
X195262500Y-33337500D03*
D17*
X200342500Y-33337500D03*
D19*
X192107501Y-30067500D03*
D20*
X192762500Y-29337500D03*
D21*
X197782500Y-28547500D03*
D20*
X197802500Y-28257500D03*
D15*
X52387500Y-94297500D03*
D16*
X52387500Y-86677500D03*
D15*
X185737500Y-36353750D03*
D16*
X185737500Y-28733750D03*
D17*
X247332500Y-52387500D03*
D18*
X252412500Y-52387500D03*
D17*
X257492500Y-52387500D03*
D19*
X249257501Y-49117500D03*
D20*
X249912500Y-48387500D03*
D21*
X254932500Y-47597500D03*
D20*
X254952500Y-47307500D03*
D17*
X37782500Y-71437500D03*
D18*
X42862500Y-71437500D03*
D17*
X47942500Y-71437500D03*
D19*
X39707501Y-68167500D03*
D20*
X40362500Y-67437500D03*
D21*
X45382500Y-66647500D03*
D20*
X45402500Y-66357500D03*
D17*
X94932500Y-33337500D03*
D18*
X100012500Y-33337500D03*
D17*
X105092500Y-33337500D03*
D19*
X96857501Y-30067500D03*
D20*
X97512500Y-29337500D03*
D21*
X102532500Y-28547500D03*
D20*
X102552500Y-28257500D03*
D17*
X152082500Y-71437500D03*
D18*
X157162500Y-71437500D03*
D17*
X162242500Y-71437500D03*
D19*
X154007501Y-68167500D03*
D20*
X154662500Y-67437500D03*
D21*
X159682500Y-66647500D03*
D20*
X159702500Y-66357500D03*
D17*
X56832500Y-109537500D03*
D18*
X61912500Y-109537500D03*
D17*
X66992500Y-109537500D03*
D19*
X58757501Y-106267500D03*
D20*
X59412500Y-105537500D03*
D21*
X64432500Y-104747500D03*
D20*
X64452500Y-104457500D03*
D17*
X37782500Y-109537500D03*
D18*
X42862500Y-109537500D03*
D17*
X47942500Y-109537500D03*
D19*
X39707501Y-106267500D03*
D20*
X40362500Y-105537500D03*
D21*
X45382500Y-104747500D03*
D20*
X45402500Y-104457500D03*
D17*
X133032500Y-71437500D03*
D18*
X138112500Y-71437500D03*
D17*
X143192500Y-71437500D03*
D19*
X134957501Y-68167500D03*
D20*
X135612500Y-67437500D03*
D21*
X140632500Y-66647500D03*
D20*
X140652500Y-66357500D03*
D15*
X128587500Y-75247500D03*
D16*
X128587500Y-67627500D03*
D17*
X190182500Y-71437500D03*
D18*
X195262500Y-71437500D03*
D17*
X200342500Y-71437500D03*
D19*
X192107501Y-68167500D03*
D20*
X192762500Y-67437500D03*
D21*
X197782500Y-66647500D03*
D20*
X197802500Y-66357500D03*
D17*
X133032500Y-52387500D03*
D18*
X138112500Y-52387500D03*
D17*
X143192500Y-52387500D03*
D19*
X134957501Y-49117500D03*
D20*
X135612500Y-48387500D03*
D21*
X140632500Y-47597500D03*
D20*
X140652500Y-47307500D03*
D15*
X128587500Y-55403750D03*
D16*
X128587500Y-47783750D03*
D17*
X247332500Y-109537500D03*
D18*
X252412500Y-109537500D03*
D17*
X257492500Y-109537500D03*
D19*
X249257501Y-106267500D03*
D20*
X249912500Y-105537500D03*
D21*
X254932500Y-104747500D03*
D20*
X254952500Y-104457500D03*
D15*
X166687500Y-55403750D03*
D16*
X166687500Y-47783750D03*
D15*
X223837500Y-113347500D03*
D16*
X223837500Y-105727500D03*
D15*
X223837500Y-75247500D03*
D16*
X223837500Y-67627500D03*
D15*
X109537500Y-94297500D03*
D16*
X109537500Y-86677500D03*
D15*
X90487500Y-75247500D03*
D16*
X90487500Y-67627500D03*
D17*
X94932500Y-90487500D03*
D18*
X100012500Y-90487500D03*
D17*
X105092500Y-90487500D03*
D19*
X96857501Y-87217500D03*
D20*
X97512500Y-86487500D03*
D21*
X102532500Y-85697500D03*
D20*
X102552500Y-85407500D03*
D15*
X247808750Y-80962500D03*
D16*
X255428750Y-80962500D03*
D17*
X113982500Y-109537500D03*
D18*
X119062500Y-109537500D03*
D17*
X124142500Y-109537500D03*
D19*
X115907501Y-106267500D03*
D20*
X116562500Y-105537500D03*
D21*
X121582500Y-104747500D03*
D20*
X121602500Y-104457500D03*
D15*
X166687500Y-36353750D03*
D16*
X166687500Y-28733750D03*
D15*
X166687500Y-113347500D03*
D16*
X166687500Y-105727500D03*
D15*
X52387500Y-36512500D03*
D16*
X52387500Y-28892500D03*
D15*
X204787500Y-113347500D03*
D16*
X204787500Y-105727500D03*
D15*
X247650000Y-42862500D03*
D16*
X255270000Y-42862500D03*
D15*
X109537500Y-75247500D03*
D16*
X109537500Y-67627500D03*
D15*
X90487500Y-94297500D03*
D16*
X90487500Y-86677500D03*
D15*
X147637500Y-55403750D03*
D16*
X147637500Y-47783750D03*
D17*
X94932500Y-71437500D03*
D18*
X100012500Y-71437500D03*
D17*
X105092500Y-71437500D03*
D19*
X96857501Y-68167500D03*
D20*
X97512500Y-67437500D03*
D21*
X102532500Y-66647500D03*
D20*
X102552500Y-66357500D03*
D17*
X171132500Y-109537500D03*
D18*
X176212500Y-109537500D03*
D17*
X181292500Y-109537500D03*
D19*
X173057501Y-106267500D03*
D20*
X173712500Y-105537500D03*
D21*
X178732500Y-104747500D03*
D20*
X178752500Y-104457500D03*
D15*
X242887500Y-55403750D03*
D16*
X242887500Y-47783750D03*
D15*
X185737500Y-94297500D03*
D16*
X185737500Y-86677500D03*
D17*
X228282500Y-52387500D03*
D18*
X233362500Y-52387500D03*
D17*
X238442500Y-52387500D03*
D19*
X230207501Y-49117500D03*
D20*
X230862500Y-48387500D03*
D21*
X235882500Y-47597500D03*
D20*
X235902500Y-47307500D03*
D15*
X242887500Y-93503750D03*
D16*
X242887500Y-85883750D03*
D17*
X37782500Y-52387500D03*
D18*
X42862500Y-52387500D03*
D17*
X47942500Y-52387500D03*
D19*
X39707501Y-49117500D03*
D20*
X40362500Y-48387500D03*
D21*
X45382500Y-47597500D03*
D20*
X45402500Y-47307500D03*
D17*
X190182500Y-109537500D03*
D18*
X195262500Y-109537500D03*
D17*
X200342500Y-109537500D03*
D19*
X192107501Y-106267500D03*
D20*
X192762500Y-105537500D03*
D21*
X197782500Y-104747500D03*
D20*
X197802500Y-104457500D03*
D17*
X75882500Y-52387500D03*
D18*
X80962500Y-52387500D03*
D17*
X86042500Y-52387500D03*
D19*
X77807501Y-49117500D03*
D20*
X78462500Y-48387500D03*
D21*
X83482500Y-47597500D03*
D20*
X83502500Y-47307500D03*
D17*
X94932500Y-109537500D03*
D18*
X100012500Y-109537500D03*
D17*
X105092500Y-109537500D03*
D19*
X96857501Y-106267500D03*
D20*
X97512500Y-105537500D03*
D21*
X102532500Y-104747500D03*
D20*
X102552500Y-104457500D03*
D17*
X75882500Y-33337500D03*
D18*
X80962500Y-33337500D03*
D17*
X86042500Y-33337500D03*
D19*
X77807501Y-30067500D03*
D20*
X78462500Y-29337500D03*
D21*
X83482500Y-28547500D03*
D20*
X83502500Y-28257500D03*
D17*
X209232500Y-52387500D03*
D18*
X214312500Y-52387500D03*
D17*
X219392500Y-52387500D03*
D19*
X211157501Y-49117500D03*
D20*
X211812500Y-48387500D03*
D21*
X216832500Y-47597500D03*
D20*
X216852500Y-47307500D03*
D17*
X171132500Y-71437500D03*
D18*
X176212500Y-71437500D03*
D17*
X181292500Y-71437500D03*
D19*
X173057501Y-68167500D03*
D20*
X173712500Y-67437500D03*
D21*
X178732500Y-66647500D03*
D20*
X178752500Y-66357500D03*
D13*
X88582500Y-26116750D03*
D14*
X88582500Y-28656750D03*
X88582500Y-31196750D03*
X88582500Y-33736750D03*
X88582500Y-36276750D03*
X88582500Y-38816750D03*
X88582500Y-41356750D03*
X88582500Y-43896750D03*
X88582500Y-46436750D03*
X88582500Y-48976750D03*
X88582500Y-51516750D03*
X88582500Y-54056750D03*
X73342500Y-54056750D03*
X73342500Y-51516750D03*
X73342500Y-48976750D03*
X73342500Y-46436750D03*
X73342500Y-43896750D03*
X73342500Y-41356750D03*
X73342500Y-38816750D03*
X73342500Y-36276750D03*
X73342500Y-33736750D03*
X73342500Y-31196750D03*
X73342500Y-28656750D03*
X73342500Y-26116750D03*
M02*
