%TF.GenerationSoftware,KiCad,Pcbnew,(6.0.9)*%
%TF.CreationDate,2023-01-17T20:01:59+01:00*%
%TF.ProjectId,t-rex,742d7265-782e-46b6-9963-61645f706362,rev?*%
%TF.SameCoordinates,Original*%
%TF.FileFunction,Drillmap*%
%TF.FilePolarity,Positive*%
%FSLAX45Y45*%
G04 Gerber Fmt 4.5, Leading zero omitted, Abs format (unit mm)*
G04 Created by KiCad (PCBNEW (6.0.9)) date 2023-01-17 20:01:59*
%MOMM*%
%LPD*%
G01*
G04 APERTURE LIST*
%ADD10C,0.100000*%
%ADD11C,0.200000*%
%ADD12C,0.175000*%
%ADD13C,0.398780*%
G04 APERTURE END LIST*
D10*
X3570279Y-2185980D02*
X25958800Y-2184400D01*
X3570279Y-2185980D02*
G75*
G03*
X3254375Y-2501900I-1572J-314333D01*
G01*
X3254375Y-11668125D02*
G75*
G03*
X3571875Y-11985625I317500J0D01*
G01*
X25955625Y-11985625D02*
G75*
G03*
X26273125Y-11668125I-5J317505D01*
G01*
X25955625Y-11985625D02*
X3571875Y-11985625D01*
X3254375Y-11668125D02*
X3254375Y-2501900D01*
X26273125Y-11668125D02*
X26273125Y-2501900D01*
X26273140Y-2501900D02*
G75*
G03*
X25958800Y-2184400I-315920J1580D01*
G01*
D11*
D12*
X3690750Y-3246250D02*
X3865750Y-3421250D01*
X3865750Y-3246250D02*
X3690750Y-3421250D01*
X3690750Y-5151250D02*
X3865750Y-5326250D01*
X3865750Y-5151250D02*
X3690750Y-5326250D01*
X3690750Y-7056250D02*
X3865750Y-7231250D01*
X3865750Y-7056250D02*
X3690750Y-7231250D01*
X3690750Y-8961250D02*
X3865750Y-9136250D01*
X3865750Y-8961250D02*
X3690750Y-9136250D01*
X3690750Y-10866250D02*
X3865750Y-11041250D01*
X3865750Y-10866250D02*
X3690750Y-11041250D01*
X4706750Y-3246250D02*
X4881750Y-3421250D01*
X4881750Y-3246250D02*
X4706750Y-3421250D01*
X4706750Y-5151250D02*
X4881750Y-5326250D01*
X4881750Y-5151250D02*
X4706750Y-5326250D01*
X4706750Y-7056250D02*
X4881750Y-7231250D01*
X4881750Y-7056250D02*
X4706750Y-7231250D01*
X4706750Y-8961250D02*
X4881750Y-9136250D01*
X4881750Y-8961250D02*
X4706750Y-9136250D01*
X4706750Y-10866250D02*
X4881750Y-11041250D01*
X4881750Y-10866250D02*
X4706750Y-11041250D01*
X5595750Y-3246250D02*
X5770750Y-3421250D01*
X5770750Y-3246250D02*
X5595750Y-3421250D01*
X5595750Y-5151250D02*
X5770750Y-5326250D01*
X5770750Y-5151250D02*
X5595750Y-5326250D01*
X5595750Y-7056250D02*
X5770750Y-7231250D01*
X5770750Y-7056250D02*
X5595750Y-7231250D01*
X5595750Y-8961250D02*
X5770750Y-9136250D01*
X5770750Y-8961250D02*
X5595750Y-9136250D01*
X5595750Y-10866250D02*
X5770750Y-11041250D01*
X5770750Y-10866250D02*
X5595750Y-11041250D01*
X6611750Y-3246250D02*
X6786750Y-3421250D01*
X6786750Y-3246250D02*
X6611750Y-3421250D01*
X6611750Y-5151250D02*
X6786750Y-5326250D01*
X6786750Y-5151250D02*
X6611750Y-5326250D01*
X6611750Y-7056250D02*
X6786750Y-7231250D01*
X6786750Y-7056250D02*
X6611750Y-7231250D01*
X6611750Y-8961250D02*
X6786750Y-9136250D01*
X6786750Y-8961250D02*
X6611750Y-9136250D01*
X6611750Y-10866250D02*
X6786750Y-11041250D01*
X6786750Y-10866250D02*
X6611750Y-11041250D01*
X7500750Y-3246250D02*
X7675750Y-3421250D01*
X7675750Y-3246250D02*
X7500750Y-3421250D01*
X7500750Y-5151250D02*
X7675750Y-5326250D01*
X7675750Y-5151250D02*
X7500750Y-5326250D01*
X7500750Y-7056250D02*
X7675750Y-7231250D01*
X7675750Y-7056250D02*
X7500750Y-7231250D01*
X7500750Y-8961250D02*
X7675750Y-9136250D01*
X7675750Y-8961250D02*
X7500750Y-9136250D01*
X7500750Y-10866250D02*
X7675750Y-11041250D01*
X7675750Y-10866250D02*
X7500750Y-11041250D01*
X8516750Y-3246250D02*
X8691750Y-3421250D01*
X8691750Y-3246250D02*
X8516750Y-3421250D01*
X8516750Y-5151250D02*
X8691750Y-5326250D01*
X8691750Y-5151250D02*
X8516750Y-5326250D01*
X8516750Y-7056250D02*
X8691750Y-7231250D01*
X8691750Y-7056250D02*
X8516750Y-7231250D01*
X8516750Y-8961250D02*
X8691750Y-9136250D01*
X8691750Y-8961250D02*
X8516750Y-9136250D01*
X8516750Y-10866250D02*
X8691750Y-11041250D01*
X8691750Y-10866250D02*
X8516750Y-11041250D01*
X9405750Y-3246250D02*
X9580750Y-3421250D01*
X9580750Y-3246250D02*
X9405750Y-3421250D01*
X9405750Y-5151250D02*
X9580750Y-5326250D01*
X9580750Y-5151250D02*
X9405750Y-5326250D01*
X9405750Y-7056250D02*
X9580750Y-7231250D01*
X9580750Y-7056250D02*
X9405750Y-7231250D01*
X9405750Y-8961250D02*
X9580750Y-9136250D01*
X9580750Y-8961250D02*
X9405750Y-9136250D01*
X9405750Y-10866250D02*
X9580750Y-11041250D01*
X9580750Y-10866250D02*
X9405750Y-11041250D01*
X10421750Y-3246250D02*
X10596750Y-3421250D01*
X10596750Y-3246250D02*
X10421750Y-3421250D01*
X10421750Y-5151250D02*
X10596750Y-5326250D01*
X10596750Y-5151250D02*
X10421750Y-5326250D01*
X10421750Y-7056250D02*
X10596750Y-7231250D01*
X10596750Y-7056250D02*
X10421750Y-7231250D01*
X10421750Y-8961250D02*
X10596750Y-9136250D01*
X10596750Y-8961250D02*
X10421750Y-9136250D01*
X10421750Y-10866250D02*
X10596750Y-11041250D01*
X10596750Y-10866250D02*
X10421750Y-11041250D01*
X11310750Y-3246250D02*
X11485750Y-3421250D01*
X11485750Y-3246250D02*
X11310750Y-3421250D01*
X11310750Y-5151250D02*
X11485750Y-5326250D01*
X11485750Y-5151250D02*
X11310750Y-5326250D01*
X11310750Y-7056250D02*
X11485750Y-7231250D01*
X11485750Y-7056250D02*
X11310750Y-7231250D01*
X11310750Y-8961250D02*
X11485750Y-9136250D01*
X11485750Y-8961250D02*
X11310750Y-9136250D01*
X11310750Y-10866250D02*
X11485750Y-11041250D01*
X11485750Y-10866250D02*
X11310750Y-11041250D01*
X12326750Y-3246250D02*
X12501750Y-3421250D01*
X12501750Y-3246250D02*
X12326750Y-3421250D01*
X12326750Y-5151250D02*
X12501750Y-5326250D01*
X12501750Y-5151250D02*
X12326750Y-5326250D01*
X12326750Y-7056250D02*
X12501750Y-7231250D01*
X12501750Y-7056250D02*
X12326750Y-7231250D01*
X12326750Y-8961250D02*
X12501750Y-9136250D01*
X12501750Y-8961250D02*
X12326750Y-9136250D01*
X12326750Y-10866250D02*
X12501750Y-11041250D01*
X12501750Y-10866250D02*
X12326750Y-11041250D01*
X13215750Y-3246250D02*
X13390750Y-3421250D01*
X13390750Y-3246250D02*
X13215750Y-3421250D01*
X13215750Y-5151250D02*
X13390750Y-5326250D01*
X13390750Y-5151250D02*
X13215750Y-5326250D01*
X13215750Y-7056250D02*
X13390750Y-7231250D01*
X13390750Y-7056250D02*
X13215750Y-7231250D01*
X13215750Y-8961250D02*
X13390750Y-9136250D01*
X13390750Y-8961250D02*
X13215750Y-9136250D01*
X13215750Y-10866250D02*
X13390750Y-11041250D01*
X13390750Y-10866250D02*
X13215750Y-11041250D01*
X14231750Y-3246250D02*
X14406750Y-3421250D01*
X14406750Y-3246250D02*
X14231750Y-3421250D01*
X14231750Y-5151250D02*
X14406750Y-5326250D01*
X14406750Y-5151250D02*
X14231750Y-5326250D01*
X14231750Y-7056250D02*
X14406750Y-7231250D01*
X14406750Y-7056250D02*
X14231750Y-7231250D01*
X14231750Y-8961250D02*
X14406750Y-9136250D01*
X14406750Y-8961250D02*
X14231750Y-9136250D01*
X14231750Y-10866250D02*
X14406750Y-11041250D01*
X14406750Y-10866250D02*
X14231750Y-11041250D01*
X15120750Y-3246250D02*
X15295750Y-3421250D01*
X15295750Y-3246250D02*
X15120750Y-3421250D01*
X15120750Y-5151250D02*
X15295750Y-5326250D01*
X15295750Y-5151250D02*
X15120750Y-5326250D01*
X15120750Y-7056250D02*
X15295750Y-7231250D01*
X15295750Y-7056250D02*
X15120750Y-7231250D01*
X15120750Y-8961250D02*
X15295750Y-9136250D01*
X15295750Y-8961250D02*
X15120750Y-9136250D01*
X15120750Y-10866250D02*
X15295750Y-11041250D01*
X15295750Y-10866250D02*
X15120750Y-11041250D01*
X16136750Y-3246250D02*
X16311750Y-3421250D01*
X16311750Y-3246250D02*
X16136750Y-3421250D01*
X16136750Y-5151250D02*
X16311750Y-5326250D01*
X16311750Y-5151250D02*
X16136750Y-5326250D01*
X16136750Y-7056250D02*
X16311750Y-7231250D01*
X16311750Y-7056250D02*
X16136750Y-7231250D01*
X16136750Y-8961250D02*
X16311750Y-9136250D01*
X16311750Y-8961250D02*
X16136750Y-9136250D01*
X16136750Y-10866250D02*
X16311750Y-11041250D01*
X16311750Y-10866250D02*
X16136750Y-11041250D01*
X17025750Y-3246250D02*
X17200750Y-3421250D01*
X17200750Y-3246250D02*
X17025750Y-3421250D01*
X17025750Y-5151250D02*
X17200750Y-5326250D01*
X17200750Y-5151250D02*
X17025750Y-5326250D01*
X17025750Y-7056250D02*
X17200750Y-7231250D01*
X17200750Y-7056250D02*
X17025750Y-7231250D01*
X17025750Y-8961250D02*
X17200750Y-9136250D01*
X17200750Y-8961250D02*
X17025750Y-9136250D01*
X17025750Y-10866250D02*
X17200750Y-11041250D01*
X17200750Y-10866250D02*
X17025750Y-11041250D01*
X18041750Y-3246250D02*
X18216750Y-3421250D01*
X18216750Y-3246250D02*
X18041750Y-3421250D01*
X18041750Y-5151250D02*
X18216750Y-5326250D01*
X18216750Y-5151250D02*
X18041750Y-5326250D01*
X18041750Y-7056250D02*
X18216750Y-7231250D01*
X18216750Y-7056250D02*
X18041750Y-7231250D01*
X18041750Y-8961250D02*
X18216750Y-9136250D01*
X18216750Y-8961250D02*
X18041750Y-9136250D01*
X18041750Y-10866250D02*
X18216750Y-11041250D01*
X18216750Y-10866250D02*
X18041750Y-11041250D01*
X18930750Y-3246250D02*
X19105750Y-3421250D01*
X19105750Y-3246250D02*
X18930750Y-3421250D01*
X18930750Y-5151250D02*
X19105750Y-5326250D01*
X19105750Y-5151250D02*
X18930750Y-5326250D01*
X18930750Y-7056250D02*
X19105750Y-7231250D01*
X19105750Y-7056250D02*
X18930750Y-7231250D01*
X18930750Y-8961250D02*
X19105750Y-9136250D01*
X19105750Y-8961250D02*
X18930750Y-9136250D01*
X18930750Y-10866250D02*
X19105750Y-11041250D01*
X19105750Y-10866250D02*
X18930750Y-11041250D01*
X19946750Y-3246250D02*
X20121750Y-3421250D01*
X20121750Y-3246250D02*
X19946750Y-3421250D01*
X19946750Y-5151250D02*
X20121750Y-5326250D01*
X20121750Y-5151250D02*
X19946750Y-5326250D01*
X19946750Y-7056250D02*
X20121750Y-7231250D01*
X20121750Y-7056250D02*
X19946750Y-7231250D01*
X19946750Y-8961250D02*
X20121750Y-9136250D01*
X20121750Y-8961250D02*
X19946750Y-9136250D01*
X19946750Y-10866250D02*
X20121750Y-11041250D01*
X20121750Y-10866250D02*
X19946750Y-11041250D01*
X20835750Y-3246250D02*
X21010750Y-3421250D01*
X21010750Y-3246250D02*
X20835750Y-3421250D01*
X20835750Y-5151250D02*
X21010750Y-5326250D01*
X21010750Y-5151250D02*
X20835750Y-5326250D01*
X20835750Y-7056250D02*
X21010750Y-7231250D01*
X21010750Y-7056250D02*
X20835750Y-7231250D01*
X20835750Y-8961250D02*
X21010750Y-9136250D01*
X21010750Y-8961250D02*
X20835750Y-9136250D01*
X20835750Y-10866250D02*
X21010750Y-11041250D01*
X21010750Y-10866250D02*
X20835750Y-11041250D01*
X21851750Y-3246250D02*
X22026750Y-3421250D01*
X22026750Y-3246250D02*
X21851750Y-3421250D01*
X21851750Y-5151250D02*
X22026750Y-5326250D01*
X22026750Y-5151250D02*
X21851750Y-5326250D01*
X21851750Y-7056250D02*
X22026750Y-7231250D01*
X22026750Y-7056250D02*
X21851750Y-7231250D01*
X21851750Y-8961250D02*
X22026750Y-9136250D01*
X22026750Y-8961250D02*
X21851750Y-9136250D01*
X21851750Y-10866250D02*
X22026750Y-11041250D01*
X22026750Y-10866250D02*
X21851750Y-11041250D01*
X22740750Y-3246250D02*
X22915750Y-3421250D01*
X22915750Y-3246250D02*
X22740750Y-3421250D01*
X22740750Y-5151250D02*
X22915750Y-5326250D01*
X22915750Y-5151250D02*
X22740750Y-5326250D01*
X22740750Y-7056250D02*
X22915750Y-7231250D01*
X22915750Y-7056250D02*
X22740750Y-7231250D01*
X22740750Y-8961250D02*
X22915750Y-9136250D01*
X22915750Y-8961250D02*
X22740750Y-9136250D01*
X22740750Y-10866250D02*
X22915750Y-11041250D01*
X22915750Y-10866250D02*
X22740750Y-11041250D01*
X23756750Y-3246250D02*
X23931750Y-3421250D01*
X23931750Y-3246250D02*
X23756750Y-3421250D01*
X23756750Y-5151250D02*
X23931750Y-5326250D01*
X23931750Y-5151250D02*
X23756750Y-5326250D01*
X23756750Y-7056250D02*
X23931750Y-7231250D01*
X23931750Y-7056250D02*
X23756750Y-7231250D01*
X23756750Y-8961250D02*
X23931750Y-9136250D01*
X23931750Y-8961250D02*
X23756750Y-9136250D01*
X23756750Y-10866250D02*
X23931750Y-11041250D01*
X23931750Y-10866250D02*
X23756750Y-11041250D01*
X24645750Y-3246250D02*
X24820750Y-3421250D01*
X24820750Y-3246250D02*
X24645750Y-3421250D01*
X24645750Y-5151250D02*
X24820750Y-5326250D01*
X24820750Y-5151250D02*
X24645750Y-5326250D01*
X24645750Y-7056250D02*
X24820750Y-7231250D01*
X24820750Y-7056250D02*
X24645750Y-7231250D01*
X24645750Y-8961250D02*
X24820750Y-9136250D01*
X24820750Y-8961250D02*
X24645750Y-9136250D01*
X24645750Y-10866250D02*
X24820750Y-11041250D01*
X24820750Y-10866250D02*
X24645750Y-11041250D01*
X25661750Y-3246250D02*
X25836750Y-3421250D01*
X25836750Y-3246250D02*
X25661750Y-3421250D01*
X25661750Y-5151250D02*
X25836750Y-5326250D01*
X25836750Y-5151250D02*
X25661750Y-5326250D01*
X25661750Y-7056250D02*
X25836750Y-7231250D01*
X25836750Y-7056250D02*
X25661750Y-7231250D01*
X25661750Y-8961250D02*
X25836750Y-9136250D01*
X25836750Y-8961250D02*
X25661750Y-9136250D01*
X25661750Y-10866250D02*
X25836750Y-11041250D01*
X25836750Y-10866250D02*
X25661750Y-11041250D01*
D13*
X4485640Y-3333750D02*
G75*
G03*
X4485640Y-3333750I-199390J0D01*
G01*
X4485640Y-5238750D02*
G75*
G03*
X4485640Y-5238750I-199390J0D01*
G01*
X4485640Y-7143750D02*
G75*
G03*
X4485640Y-7143750I-199390J0D01*
G01*
X4485640Y-9048750D02*
G75*
G03*
X4485640Y-9048750I-199390J0D01*
G01*
X4485640Y-10953750D02*
G75*
G03*
X4485640Y-10953750I-199390J0D01*
G01*
X6390640Y-3333750D02*
G75*
G03*
X6390640Y-3333750I-199390J0D01*
G01*
X6390640Y-5238750D02*
G75*
G03*
X6390640Y-5238750I-199390J0D01*
G01*
X6390640Y-7143750D02*
G75*
G03*
X6390640Y-7143750I-199390J0D01*
G01*
X6390640Y-9048750D02*
G75*
G03*
X6390640Y-9048750I-199390J0D01*
G01*
X6390640Y-10953750D02*
G75*
G03*
X6390640Y-10953750I-199390J0D01*
G01*
X8295640Y-3333750D02*
G75*
G03*
X8295640Y-3333750I-199390J0D01*
G01*
X8295640Y-5238750D02*
G75*
G03*
X8295640Y-5238750I-199390J0D01*
G01*
X8295640Y-7143750D02*
G75*
G03*
X8295640Y-7143750I-199390J0D01*
G01*
X8295640Y-9048750D02*
G75*
G03*
X8295640Y-9048750I-199390J0D01*
G01*
X8295640Y-10953750D02*
G75*
G03*
X8295640Y-10953750I-199390J0D01*
G01*
X10200640Y-3333750D02*
G75*
G03*
X10200640Y-3333750I-199390J0D01*
G01*
X10200640Y-5238750D02*
G75*
G03*
X10200640Y-5238750I-199390J0D01*
G01*
X10200640Y-7143750D02*
G75*
G03*
X10200640Y-7143750I-199390J0D01*
G01*
X10200640Y-9048750D02*
G75*
G03*
X10200640Y-9048750I-199390J0D01*
G01*
X10200640Y-10953750D02*
G75*
G03*
X10200640Y-10953750I-199390J0D01*
G01*
X12105640Y-3333750D02*
G75*
G03*
X12105640Y-3333750I-199390J0D01*
G01*
X12105640Y-5238750D02*
G75*
G03*
X12105640Y-5238750I-199390J0D01*
G01*
X12105640Y-7143750D02*
G75*
G03*
X12105640Y-7143750I-199390J0D01*
G01*
X12105640Y-9048750D02*
G75*
G03*
X12105640Y-9048750I-199390J0D01*
G01*
X12105640Y-10953750D02*
G75*
G03*
X12105640Y-10953750I-199390J0D01*
G01*
X14010640Y-3333750D02*
G75*
G03*
X14010640Y-3333750I-199390J0D01*
G01*
X14010640Y-5238750D02*
G75*
G03*
X14010640Y-5238750I-199390J0D01*
G01*
X14010640Y-7143750D02*
G75*
G03*
X14010640Y-7143750I-199390J0D01*
G01*
X14010640Y-9048750D02*
G75*
G03*
X14010640Y-9048750I-199390J0D01*
G01*
X14010640Y-10953750D02*
G75*
G03*
X14010640Y-10953750I-199390J0D01*
G01*
X15915640Y-3333750D02*
G75*
G03*
X15915640Y-3333750I-199390J0D01*
G01*
X15915640Y-5238750D02*
G75*
G03*
X15915640Y-5238750I-199390J0D01*
G01*
X15915640Y-7143750D02*
G75*
G03*
X15915640Y-7143750I-199390J0D01*
G01*
X15915640Y-9048750D02*
G75*
G03*
X15915640Y-9048750I-199390J0D01*
G01*
X15915640Y-10953750D02*
G75*
G03*
X15915640Y-10953750I-199390J0D01*
G01*
X17820640Y-3333750D02*
G75*
G03*
X17820640Y-3333750I-199390J0D01*
G01*
X17820640Y-5238750D02*
G75*
G03*
X17820640Y-5238750I-199390J0D01*
G01*
X17820640Y-7143750D02*
G75*
G03*
X17820640Y-7143750I-199390J0D01*
G01*
X17820640Y-9048750D02*
G75*
G03*
X17820640Y-9048750I-199390J0D01*
G01*
X17820640Y-10953750D02*
G75*
G03*
X17820640Y-10953750I-199390J0D01*
G01*
X19725640Y-3333750D02*
G75*
G03*
X19725640Y-3333750I-199390J0D01*
G01*
X19725640Y-5238750D02*
G75*
G03*
X19725640Y-5238750I-199390J0D01*
G01*
X19725640Y-7143750D02*
G75*
G03*
X19725640Y-7143750I-199390J0D01*
G01*
X19725640Y-9048750D02*
G75*
G03*
X19725640Y-9048750I-199390J0D01*
G01*
X19725640Y-10953750D02*
G75*
G03*
X19725640Y-10953750I-199390J0D01*
G01*
X21630640Y-3333750D02*
G75*
G03*
X21630640Y-3333750I-199390J0D01*
G01*
X21630640Y-5238750D02*
G75*
G03*
X21630640Y-5238750I-199390J0D01*
G01*
X21630640Y-7143750D02*
G75*
G03*
X21630640Y-7143750I-199390J0D01*
G01*
X21630640Y-9048750D02*
G75*
G03*
X21630640Y-9048750I-199390J0D01*
G01*
X21630640Y-10953750D02*
G75*
G03*
X21630640Y-10953750I-199390J0D01*
G01*
X23535640Y-3333750D02*
G75*
G03*
X23535640Y-3333750I-199390J0D01*
G01*
X23535640Y-5238750D02*
G75*
G03*
X23535640Y-5238750I-199390J0D01*
G01*
X23535640Y-7143750D02*
G75*
G03*
X23535640Y-7143750I-199390J0D01*
G01*
X23535640Y-9048750D02*
G75*
G03*
X23535640Y-9048750I-199390J0D01*
G01*
X23535640Y-10953750D02*
G75*
G03*
X23535640Y-10953750I-199390J0D01*
G01*
X25440640Y-3333750D02*
G75*
G03*
X25440640Y-3333750I-199390J0D01*
G01*
X25440640Y-5238750D02*
G75*
G03*
X25440640Y-5238750I-199390J0D01*
G01*
X25440640Y-7143750D02*
G75*
G03*
X25440640Y-7143750I-199390J0D01*
G01*
X25440640Y-9048750D02*
G75*
G03*
X25440640Y-9048750I-199390J0D01*
G01*
X25440640Y-10953750D02*
G75*
G03*
X25440640Y-10953750I-199390J0D01*
G01*
D11*
X3506990Y-12301101D02*
X3506990Y-12101101D01*
X3554609Y-12101101D01*
X3583180Y-12110625D01*
X3602228Y-12129673D01*
X3611752Y-12148720D01*
X3621276Y-12186815D01*
X3621276Y-12215387D01*
X3611752Y-12253482D01*
X3602228Y-12272530D01*
X3583180Y-12291577D01*
X3554609Y-12301101D01*
X3506990Y-12301101D01*
X3706990Y-12301101D02*
X3706990Y-12167768D01*
X3706990Y-12205863D02*
X3716514Y-12186815D01*
X3726038Y-12177292D01*
X3745085Y-12167768D01*
X3764133Y-12167768D01*
X3830799Y-12301101D02*
X3830799Y-12167768D01*
X3830799Y-12101101D02*
X3821276Y-12110625D01*
X3830799Y-12120149D01*
X3840323Y-12110625D01*
X3830799Y-12101101D01*
X3830799Y-12120149D01*
X3954609Y-12301101D02*
X3935561Y-12291577D01*
X3926038Y-12272530D01*
X3926038Y-12101101D01*
X4059371Y-12301101D02*
X4040323Y-12291577D01*
X4030799Y-12272530D01*
X4030799Y-12101101D01*
X4287942Y-12301101D02*
X4287942Y-12101101D01*
X4354609Y-12243958D01*
X4421276Y-12101101D01*
X4421276Y-12301101D01*
X4602228Y-12301101D02*
X4602228Y-12196339D01*
X4592704Y-12177292D01*
X4573657Y-12167768D01*
X4535561Y-12167768D01*
X4516514Y-12177292D01*
X4602228Y-12291577D02*
X4583181Y-12301101D01*
X4535561Y-12301101D01*
X4516514Y-12291577D01*
X4506990Y-12272530D01*
X4506990Y-12253482D01*
X4516514Y-12234434D01*
X4535561Y-12224911D01*
X4583181Y-12224911D01*
X4602228Y-12215387D01*
X4697466Y-12167768D02*
X4697466Y-12367768D01*
X4697466Y-12177292D02*
X4716514Y-12167768D01*
X4754609Y-12167768D01*
X4773657Y-12177292D01*
X4783181Y-12186815D01*
X4792704Y-12205863D01*
X4792704Y-12263006D01*
X4783181Y-12282053D01*
X4773657Y-12291577D01*
X4754609Y-12301101D01*
X4716514Y-12301101D01*
X4697466Y-12291577D01*
X4878419Y-12282053D02*
X4887942Y-12291577D01*
X4878419Y-12301101D01*
X4868895Y-12291577D01*
X4878419Y-12282053D01*
X4878419Y-12301101D01*
X4878419Y-12177292D02*
X4887942Y-12186815D01*
X4878419Y-12196339D01*
X4868895Y-12186815D01*
X4878419Y-12177292D01*
X4878419Y-12196339D01*
D12*
X3074371Y-12543125D02*
X3249371Y-12718125D01*
X3249371Y-12543125D02*
X3074371Y-12718125D01*
D11*
X3611752Y-12721101D02*
X3497466Y-12721101D01*
X3554609Y-12721101D02*
X3554609Y-12521101D01*
X3535561Y-12549673D01*
X3516514Y-12568720D01*
X3497466Y-12578244D01*
X3697466Y-12702053D02*
X3706990Y-12711577D01*
X3697466Y-12721101D01*
X3687942Y-12711577D01*
X3697466Y-12702053D01*
X3697466Y-12721101D01*
X3773657Y-12521101D02*
X3906990Y-12521101D01*
X3821276Y-12721101D01*
X4078419Y-12521101D02*
X3983180Y-12521101D01*
X3973657Y-12616339D01*
X3983180Y-12606815D01*
X4002228Y-12597292D01*
X4049847Y-12597292D01*
X4068895Y-12606815D01*
X4078419Y-12616339D01*
X4087942Y-12635387D01*
X4087942Y-12683006D01*
X4078419Y-12702053D01*
X4068895Y-12711577D01*
X4049847Y-12721101D01*
X4002228Y-12721101D01*
X3983180Y-12711577D01*
X3973657Y-12702053D01*
X4211752Y-12521101D02*
X4230800Y-12521101D01*
X4249847Y-12530625D01*
X4259371Y-12540149D01*
X4268895Y-12559196D01*
X4278419Y-12597292D01*
X4278419Y-12644911D01*
X4268895Y-12683006D01*
X4259371Y-12702053D01*
X4249847Y-12711577D01*
X4230800Y-12721101D01*
X4211752Y-12721101D01*
X4192704Y-12711577D01*
X4183180Y-12702053D01*
X4173657Y-12683006D01*
X4164133Y-12644911D01*
X4164133Y-12597292D01*
X4173657Y-12559196D01*
X4183180Y-12540149D01*
X4192704Y-12530625D01*
X4211752Y-12521101D01*
X4364133Y-12721101D02*
X4364133Y-12587768D01*
X4364133Y-12606815D02*
X4373657Y-12597292D01*
X4392704Y-12587768D01*
X4421276Y-12587768D01*
X4440323Y-12597292D01*
X4449847Y-12616339D01*
X4449847Y-12721101D01*
X4449847Y-12616339D02*
X4459371Y-12597292D01*
X4478419Y-12587768D01*
X4506990Y-12587768D01*
X4526038Y-12597292D01*
X4535561Y-12616339D01*
X4535561Y-12721101D01*
X4630800Y-12721101D02*
X4630800Y-12587768D01*
X4630800Y-12606815D02*
X4640323Y-12597292D01*
X4659371Y-12587768D01*
X4687942Y-12587768D01*
X4706990Y-12597292D01*
X4716514Y-12616339D01*
X4716514Y-12721101D01*
X4716514Y-12616339D02*
X4726038Y-12597292D01*
X4745085Y-12587768D01*
X4773657Y-12587768D01*
X4792704Y-12597292D01*
X4802228Y-12616339D01*
X4802228Y-12721101D01*
X5192704Y-12511577D02*
X5021276Y-12768720D01*
X5449847Y-12521101D02*
X5468895Y-12521101D01*
X5487942Y-12530625D01*
X5497466Y-12540149D01*
X5506990Y-12559196D01*
X5516514Y-12597292D01*
X5516514Y-12644911D01*
X5506990Y-12683006D01*
X5497466Y-12702053D01*
X5487942Y-12711577D01*
X5468895Y-12721101D01*
X5449847Y-12721101D01*
X5430800Y-12711577D01*
X5421276Y-12702053D01*
X5411752Y-12683006D01*
X5402228Y-12644911D01*
X5402228Y-12597292D01*
X5411752Y-12559196D01*
X5421276Y-12540149D01*
X5430800Y-12530625D01*
X5449847Y-12521101D01*
X5602228Y-12702053D02*
X5611752Y-12711577D01*
X5602228Y-12721101D01*
X5592704Y-12711577D01*
X5602228Y-12702053D01*
X5602228Y-12721101D01*
X5735561Y-12521101D02*
X5754609Y-12521101D01*
X5773657Y-12530625D01*
X5783180Y-12540149D01*
X5792704Y-12559196D01*
X5802228Y-12597292D01*
X5802228Y-12644911D01*
X5792704Y-12683006D01*
X5783180Y-12702053D01*
X5773657Y-12711577D01*
X5754609Y-12721101D01*
X5735561Y-12721101D01*
X5716514Y-12711577D01*
X5706990Y-12702053D01*
X5697466Y-12683006D01*
X5687942Y-12644911D01*
X5687942Y-12597292D01*
X5697466Y-12559196D01*
X5706990Y-12540149D01*
X5716514Y-12530625D01*
X5735561Y-12521101D01*
X5973657Y-12521101D02*
X5935561Y-12521101D01*
X5916514Y-12530625D01*
X5906990Y-12540149D01*
X5887942Y-12568720D01*
X5878419Y-12606815D01*
X5878419Y-12683006D01*
X5887942Y-12702053D01*
X5897466Y-12711577D01*
X5916514Y-12721101D01*
X5954609Y-12721101D01*
X5973657Y-12711577D01*
X5983180Y-12702053D01*
X5992704Y-12683006D01*
X5992704Y-12635387D01*
X5983180Y-12616339D01*
X5973657Y-12606815D01*
X5954609Y-12597292D01*
X5916514Y-12597292D01*
X5897466Y-12606815D01*
X5887942Y-12616339D01*
X5878419Y-12635387D01*
X6106990Y-12606815D02*
X6087942Y-12597292D01*
X6078419Y-12587768D01*
X6068895Y-12568720D01*
X6068895Y-12559196D01*
X6078419Y-12540149D01*
X6087942Y-12530625D01*
X6106990Y-12521101D01*
X6145085Y-12521101D01*
X6164133Y-12530625D01*
X6173657Y-12540149D01*
X6183180Y-12559196D01*
X6183180Y-12568720D01*
X6173657Y-12587768D01*
X6164133Y-12597292D01*
X6145085Y-12606815D01*
X6106990Y-12606815D01*
X6087942Y-12616339D01*
X6078419Y-12625863D01*
X6068895Y-12644911D01*
X6068895Y-12683006D01*
X6078419Y-12702053D01*
X6087942Y-12711577D01*
X6106990Y-12721101D01*
X6145085Y-12721101D01*
X6164133Y-12711577D01*
X6173657Y-12702053D01*
X6183180Y-12683006D01*
X6183180Y-12644911D01*
X6173657Y-12625863D01*
X6164133Y-12616339D01*
X6145085Y-12606815D01*
X6278419Y-12721101D02*
X6316514Y-12721101D01*
X6335561Y-12711577D01*
X6345085Y-12702053D01*
X6364133Y-12673482D01*
X6373657Y-12635387D01*
X6373657Y-12559196D01*
X6364133Y-12540149D01*
X6354609Y-12530625D01*
X6335561Y-12521101D01*
X6297466Y-12521101D01*
X6278419Y-12530625D01*
X6268895Y-12540149D01*
X6259371Y-12559196D01*
X6259371Y-12606815D01*
X6268895Y-12625863D01*
X6278419Y-12635387D01*
X6297466Y-12644911D01*
X6335561Y-12644911D01*
X6354609Y-12635387D01*
X6364133Y-12625863D01*
X6373657Y-12606815D01*
X6449847Y-12521101D02*
X6449847Y-12559196D01*
X6526038Y-12521101D02*
X6526038Y-12559196D01*
X6821276Y-12797292D02*
X6811752Y-12787768D01*
X6792704Y-12759196D01*
X6783180Y-12740149D01*
X6773657Y-12711577D01*
X6764133Y-12663958D01*
X6764133Y-12625863D01*
X6773657Y-12578244D01*
X6783180Y-12549673D01*
X6792704Y-12530625D01*
X6811752Y-12502053D01*
X6821276Y-12492530D01*
X7002228Y-12721101D02*
X6887942Y-12721101D01*
X6945085Y-12721101D02*
X6945085Y-12521101D01*
X6926038Y-12549673D01*
X6906990Y-12568720D01*
X6887942Y-12578244D01*
X7078419Y-12540149D02*
X7087942Y-12530625D01*
X7106990Y-12521101D01*
X7154609Y-12521101D01*
X7173657Y-12530625D01*
X7183180Y-12540149D01*
X7192704Y-12559196D01*
X7192704Y-12578244D01*
X7183180Y-12606815D01*
X7068895Y-12721101D01*
X7192704Y-12721101D01*
X7316514Y-12521101D02*
X7335561Y-12521101D01*
X7354609Y-12530625D01*
X7364133Y-12540149D01*
X7373657Y-12559196D01*
X7383180Y-12597292D01*
X7383180Y-12644911D01*
X7373657Y-12683006D01*
X7364133Y-12702053D01*
X7354609Y-12711577D01*
X7335561Y-12721101D01*
X7316514Y-12721101D01*
X7297466Y-12711577D01*
X7287942Y-12702053D01*
X7278419Y-12683006D01*
X7268895Y-12644911D01*
X7268895Y-12597292D01*
X7278419Y-12559196D01*
X7287942Y-12540149D01*
X7297466Y-12530625D01*
X7316514Y-12521101D01*
X7621276Y-12721101D02*
X7621276Y-12521101D01*
X7706990Y-12721101D02*
X7706990Y-12616339D01*
X7697466Y-12597292D01*
X7678419Y-12587768D01*
X7649847Y-12587768D01*
X7630799Y-12597292D01*
X7621276Y-12606815D01*
X7830799Y-12721101D02*
X7811752Y-12711577D01*
X7802228Y-12702053D01*
X7792704Y-12683006D01*
X7792704Y-12625863D01*
X7802228Y-12606815D01*
X7811752Y-12597292D01*
X7830799Y-12587768D01*
X7859371Y-12587768D01*
X7878419Y-12597292D01*
X7887942Y-12606815D01*
X7897466Y-12625863D01*
X7897466Y-12683006D01*
X7887942Y-12702053D01*
X7878419Y-12711577D01*
X7859371Y-12721101D01*
X7830799Y-12721101D01*
X8011752Y-12721101D02*
X7992704Y-12711577D01*
X7983180Y-12692530D01*
X7983180Y-12521101D01*
X8164133Y-12711577D02*
X8145085Y-12721101D01*
X8106990Y-12721101D01*
X8087942Y-12711577D01*
X8078419Y-12692530D01*
X8078419Y-12616339D01*
X8087942Y-12597292D01*
X8106990Y-12587768D01*
X8145085Y-12587768D01*
X8164133Y-12597292D01*
X8173657Y-12616339D01*
X8173657Y-12635387D01*
X8078419Y-12654434D01*
X8249847Y-12711577D02*
X8268895Y-12721101D01*
X8306990Y-12721101D01*
X8326038Y-12711577D01*
X8335561Y-12692530D01*
X8335561Y-12683006D01*
X8326038Y-12663958D01*
X8306990Y-12654434D01*
X8278419Y-12654434D01*
X8259371Y-12644911D01*
X8249847Y-12625863D01*
X8249847Y-12616339D01*
X8259371Y-12597292D01*
X8278419Y-12587768D01*
X8306990Y-12587768D01*
X8326038Y-12597292D01*
X8402228Y-12797292D02*
X8411752Y-12787768D01*
X8430800Y-12759196D01*
X8440323Y-12740149D01*
X8449847Y-12711577D01*
X8459371Y-12663958D01*
X8459371Y-12625863D01*
X8449847Y-12578244D01*
X8440323Y-12549673D01*
X8430800Y-12530625D01*
X8411752Y-12502053D01*
X8402228Y-12492530D01*
X8764133Y-12797292D02*
X8754609Y-12787768D01*
X8735561Y-12759196D01*
X8726038Y-12740149D01*
X8716514Y-12711577D01*
X8706990Y-12663958D01*
X8706990Y-12625863D01*
X8716514Y-12578244D01*
X8726038Y-12549673D01*
X8735561Y-12530625D01*
X8754609Y-12502053D01*
X8764133Y-12492530D01*
X8840323Y-12587768D02*
X8840323Y-12721101D01*
X8840323Y-12606815D02*
X8849847Y-12597292D01*
X8868895Y-12587768D01*
X8897466Y-12587768D01*
X8916514Y-12597292D01*
X8926038Y-12616339D01*
X8926038Y-12721101D01*
X9049847Y-12721101D02*
X9030800Y-12711577D01*
X9021276Y-12702053D01*
X9011752Y-12683006D01*
X9011752Y-12625863D01*
X9021276Y-12606815D01*
X9030800Y-12597292D01*
X9049847Y-12587768D01*
X9078419Y-12587768D01*
X9097466Y-12597292D01*
X9106990Y-12606815D01*
X9116514Y-12625863D01*
X9116514Y-12683006D01*
X9106990Y-12702053D01*
X9097466Y-12711577D01*
X9078419Y-12721101D01*
X9049847Y-12721101D01*
X9173657Y-12587768D02*
X9249847Y-12587768D01*
X9202228Y-12521101D02*
X9202228Y-12692530D01*
X9211752Y-12711577D01*
X9230800Y-12721101D01*
X9249847Y-12721101D01*
X9468895Y-12587768D02*
X9468895Y-12787768D01*
X9468895Y-12597292D02*
X9487942Y-12587768D01*
X9526038Y-12587768D01*
X9545085Y-12597292D01*
X9554609Y-12606815D01*
X9564133Y-12625863D01*
X9564133Y-12683006D01*
X9554609Y-12702053D01*
X9545085Y-12711577D01*
X9526038Y-12721101D01*
X9487942Y-12721101D01*
X9468895Y-12711577D01*
X9678419Y-12721101D02*
X9659371Y-12711577D01*
X9649847Y-12692530D01*
X9649847Y-12521101D01*
X9840323Y-12721101D02*
X9840323Y-12616339D01*
X9830800Y-12597292D01*
X9811752Y-12587768D01*
X9773657Y-12587768D01*
X9754609Y-12597292D01*
X9840323Y-12711577D02*
X9821276Y-12721101D01*
X9773657Y-12721101D01*
X9754609Y-12711577D01*
X9745085Y-12692530D01*
X9745085Y-12673482D01*
X9754609Y-12654434D01*
X9773657Y-12644911D01*
X9821276Y-12644911D01*
X9840323Y-12635387D01*
X9906990Y-12587768D02*
X9983181Y-12587768D01*
X9935561Y-12521101D02*
X9935561Y-12692530D01*
X9945085Y-12711577D01*
X9964133Y-12721101D01*
X9983181Y-12721101D01*
X10126038Y-12711577D02*
X10106990Y-12721101D01*
X10068895Y-12721101D01*
X10049847Y-12711577D01*
X10040323Y-12692530D01*
X10040323Y-12616339D01*
X10049847Y-12597292D01*
X10068895Y-12587768D01*
X10106990Y-12587768D01*
X10126038Y-12597292D01*
X10135561Y-12616339D01*
X10135561Y-12635387D01*
X10040323Y-12654434D01*
X10306990Y-12721101D02*
X10306990Y-12521101D01*
X10306990Y-12711577D02*
X10287942Y-12721101D01*
X10249847Y-12721101D01*
X10230800Y-12711577D01*
X10221276Y-12702053D01*
X10211752Y-12683006D01*
X10211752Y-12625863D01*
X10221276Y-12606815D01*
X10230800Y-12597292D01*
X10249847Y-12587768D01*
X10287942Y-12587768D01*
X10306990Y-12597292D01*
X10383181Y-12797292D02*
X10392704Y-12787768D01*
X10411752Y-12759196D01*
X10421276Y-12740149D01*
X10430800Y-12711577D01*
X10440323Y-12663958D01*
X10440323Y-12625863D01*
X10430800Y-12578244D01*
X10421276Y-12549673D01*
X10411752Y-12530625D01*
X10392704Y-12502053D01*
X10383181Y-12492530D01*
X3249371Y-12925625D02*
G75*
G03*
X3249371Y-12925625I-100000J0D01*
G01*
X3487942Y-12816101D02*
X3611752Y-12816101D01*
X3545085Y-12892292D01*
X3573657Y-12892292D01*
X3592704Y-12901815D01*
X3602228Y-12911339D01*
X3611752Y-12930387D01*
X3611752Y-12978006D01*
X3602228Y-12997053D01*
X3592704Y-13006577D01*
X3573657Y-13016101D01*
X3516514Y-13016101D01*
X3497466Y-13006577D01*
X3487942Y-12997053D01*
X3697466Y-12997053D02*
X3706990Y-13006577D01*
X3697466Y-13016101D01*
X3687942Y-13006577D01*
X3697466Y-12997053D01*
X3697466Y-13016101D01*
X3802228Y-13016101D02*
X3840323Y-13016101D01*
X3859371Y-13006577D01*
X3868895Y-12997053D01*
X3887942Y-12968482D01*
X3897466Y-12930387D01*
X3897466Y-12854196D01*
X3887942Y-12835149D01*
X3878419Y-12825625D01*
X3859371Y-12816101D01*
X3821276Y-12816101D01*
X3802228Y-12825625D01*
X3792704Y-12835149D01*
X3783180Y-12854196D01*
X3783180Y-12901815D01*
X3792704Y-12920863D01*
X3802228Y-12930387D01*
X3821276Y-12939911D01*
X3859371Y-12939911D01*
X3878419Y-12930387D01*
X3887942Y-12920863D01*
X3897466Y-12901815D01*
X4011752Y-12901815D02*
X3992704Y-12892292D01*
X3983180Y-12882768D01*
X3973657Y-12863720D01*
X3973657Y-12854196D01*
X3983180Y-12835149D01*
X3992704Y-12825625D01*
X4011752Y-12816101D01*
X4049847Y-12816101D01*
X4068895Y-12825625D01*
X4078419Y-12835149D01*
X4087942Y-12854196D01*
X4087942Y-12863720D01*
X4078419Y-12882768D01*
X4068895Y-12892292D01*
X4049847Y-12901815D01*
X4011752Y-12901815D01*
X3992704Y-12911339D01*
X3983180Y-12920863D01*
X3973657Y-12939911D01*
X3973657Y-12978006D01*
X3983180Y-12997053D01*
X3992704Y-13006577D01*
X4011752Y-13016101D01*
X4049847Y-13016101D01*
X4068895Y-13006577D01*
X4078419Y-12997053D01*
X4087942Y-12978006D01*
X4087942Y-12939911D01*
X4078419Y-12920863D01*
X4068895Y-12911339D01*
X4049847Y-12901815D01*
X4202228Y-12901815D02*
X4183180Y-12892292D01*
X4173657Y-12882768D01*
X4164133Y-12863720D01*
X4164133Y-12854196D01*
X4173657Y-12835149D01*
X4183180Y-12825625D01*
X4202228Y-12816101D01*
X4240323Y-12816101D01*
X4259371Y-12825625D01*
X4268895Y-12835149D01*
X4278419Y-12854196D01*
X4278419Y-12863720D01*
X4268895Y-12882768D01*
X4259371Y-12892292D01*
X4240323Y-12901815D01*
X4202228Y-12901815D01*
X4183180Y-12911339D01*
X4173657Y-12920863D01*
X4164133Y-12939911D01*
X4164133Y-12978006D01*
X4173657Y-12997053D01*
X4183180Y-13006577D01*
X4202228Y-13016101D01*
X4240323Y-13016101D01*
X4259371Y-13006577D01*
X4268895Y-12997053D01*
X4278419Y-12978006D01*
X4278419Y-12939911D01*
X4268895Y-12920863D01*
X4259371Y-12911339D01*
X4240323Y-12901815D01*
X4364133Y-13016101D02*
X4364133Y-12882768D01*
X4364133Y-12901815D02*
X4373657Y-12892292D01*
X4392704Y-12882768D01*
X4421276Y-12882768D01*
X4440323Y-12892292D01*
X4449847Y-12911339D01*
X4449847Y-13016101D01*
X4449847Y-12911339D02*
X4459371Y-12892292D01*
X4478419Y-12882768D01*
X4506990Y-12882768D01*
X4526038Y-12892292D01*
X4535561Y-12911339D01*
X4535561Y-13016101D01*
X4630800Y-13016101D02*
X4630800Y-12882768D01*
X4630800Y-12901815D02*
X4640323Y-12892292D01*
X4659371Y-12882768D01*
X4687942Y-12882768D01*
X4706990Y-12892292D01*
X4716514Y-12911339D01*
X4716514Y-13016101D01*
X4716514Y-12911339D02*
X4726038Y-12892292D01*
X4745085Y-12882768D01*
X4773657Y-12882768D01*
X4792704Y-12892292D01*
X4802228Y-12911339D01*
X4802228Y-13016101D01*
X5192704Y-12806577D02*
X5021276Y-13063720D01*
X5449847Y-12816101D02*
X5468895Y-12816101D01*
X5487942Y-12825625D01*
X5497466Y-12835149D01*
X5506990Y-12854196D01*
X5516514Y-12892292D01*
X5516514Y-12939911D01*
X5506990Y-12978006D01*
X5497466Y-12997053D01*
X5487942Y-13006577D01*
X5468895Y-13016101D01*
X5449847Y-13016101D01*
X5430800Y-13006577D01*
X5421276Y-12997053D01*
X5411752Y-12978006D01*
X5402228Y-12939911D01*
X5402228Y-12892292D01*
X5411752Y-12854196D01*
X5421276Y-12835149D01*
X5430800Y-12825625D01*
X5449847Y-12816101D01*
X5602228Y-12997053D02*
X5611752Y-13006577D01*
X5602228Y-13016101D01*
X5592704Y-13006577D01*
X5602228Y-12997053D01*
X5602228Y-13016101D01*
X5802228Y-13016101D02*
X5687942Y-13016101D01*
X5745085Y-13016101D02*
X5745085Y-12816101D01*
X5726038Y-12844673D01*
X5706990Y-12863720D01*
X5687942Y-12873244D01*
X5983180Y-12816101D02*
X5887942Y-12816101D01*
X5878419Y-12911339D01*
X5887942Y-12901815D01*
X5906990Y-12892292D01*
X5954609Y-12892292D01*
X5973657Y-12901815D01*
X5983180Y-12911339D01*
X5992704Y-12930387D01*
X5992704Y-12978006D01*
X5983180Y-12997053D01*
X5973657Y-13006577D01*
X5954609Y-13016101D01*
X5906990Y-13016101D01*
X5887942Y-13006577D01*
X5878419Y-12997053D01*
X6059371Y-12816101D02*
X6192704Y-12816101D01*
X6106990Y-13016101D01*
X6306990Y-12816101D02*
X6326038Y-12816101D01*
X6345085Y-12825625D01*
X6354609Y-12835149D01*
X6364133Y-12854196D01*
X6373657Y-12892292D01*
X6373657Y-12939911D01*
X6364133Y-12978006D01*
X6354609Y-12997053D01*
X6345085Y-13006577D01*
X6326038Y-13016101D01*
X6306990Y-13016101D01*
X6287942Y-13006577D01*
X6278419Y-12997053D01*
X6268895Y-12978006D01*
X6259371Y-12939911D01*
X6259371Y-12892292D01*
X6268895Y-12854196D01*
X6278419Y-12835149D01*
X6287942Y-12825625D01*
X6306990Y-12816101D01*
X6449847Y-12816101D02*
X6449847Y-12854196D01*
X6526038Y-12816101D02*
X6526038Y-12854196D01*
X6821276Y-13092292D02*
X6811752Y-13082768D01*
X6792704Y-13054196D01*
X6783180Y-13035149D01*
X6773657Y-13006577D01*
X6764133Y-12958958D01*
X6764133Y-12920863D01*
X6773657Y-12873244D01*
X6783180Y-12844673D01*
X6792704Y-12825625D01*
X6811752Y-12797053D01*
X6821276Y-12787530D01*
X6983180Y-12816101D02*
X6945085Y-12816101D01*
X6926038Y-12825625D01*
X6916514Y-12835149D01*
X6897466Y-12863720D01*
X6887942Y-12901815D01*
X6887942Y-12978006D01*
X6897466Y-12997053D01*
X6906990Y-13006577D01*
X6926038Y-13016101D01*
X6964133Y-13016101D01*
X6983180Y-13006577D01*
X6992704Y-12997053D01*
X7002228Y-12978006D01*
X7002228Y-12930387D01*
X6992704Y-12911339D01*
X6983180Y-12901815D01*
X6964133Y-12892292D01*
X6926038Y-12892292D01*
X6906990Y-12901815D01*
X6897466Y-12911339D01*
X6887942Y-12930387D01*
X7126038Y-12816101D02*
X7145085Y-12816101D01*
X7164133Y-12825625D01*
X7173657Y-12835149D01*
X7183180Y-12854196D01*
X7192704Y-12892292D01*
X7192704Y-12939911D01*
X7183180Y-12978006D01*
X7173657Y-12997053D01*
X7164133Y-13006577D01*
X7145085Y-13016101D01*
X7126038Y-13016101D01*
X7106990Y-13006577D01*
X7097466Y-12997053D01*
X7087942Y-12978006D01*
X7078419Y-12939911D01*
X7078419Y-12892292D01*
X7087942Y-12854196D01*
X7097466Y-12835149D01*
X7106990Y-12825625D01*
X7126038Y-12816101D01*
X7430799Y-13016101D02*
X7430799Y-12816101D01*
X7516514Y-13016101D02*
X7516514Y-12911339D01*
X7506990Y-12892292D01*
X7487942Y-12882768D01*
X7459371Y-12882768D01*
X7440323Y-12892292D01*
X7430799Y-12901815D01*
X7640323Y-13016101D02*
X7621276Y-13006577D01*
X7611752Y-12997053D01*
X7602228Y-12978006D01*
X7602228Y-12920863D01*
X7611752Y-12901815D01*
X7621276Y-12892292D01*
X7640323Y-12882768D01*
X7668895Y-12882768D01*
X7687942Y-12892292D01*
X7697466Y-12901815D01*
X7706990Y-12920863D01*
X7706990Y-12978006D01*
X7697466Y-12997053D01*
X7687942Y-13006577D01*
X7668895Y-13016101D01*
X7640323Y-13016101D01*
X7821276Y-13016101D02*
X7802228Y-13006577D01*
X7792704Y-12987530D01*
X7792704Y-12816101D01*
X7973657Y-13006577D02*
X7954609Y-13016101D01*
X7916514Y-13016101D01*
X7897466Y-13006577D01*
X7887942Y-12987530D01*
X7887942Y-12911339D01*
X7897466Y-12892292D01*
X7916514Y-12882768D01*
X7954609Y-12882768D01*
X7973657Y-12892292D01*
X7983180Y-12911339D01*
X7983180Y-12930387D01*
X7887942Y-12949434D01*
X8059371Y-13006577D02*
X8078419Y-13016101D01*
X8116514Y-13016101D01*
X8135561Y-13006577D01*
X8145085Y-12987530D01*
X8145085Y-12978006D01*
X8135561Y-12958958D01*
X8116514Y-12949434D01*
X8087942Y-12949434D01*
X8068895Y-12939911D01*
X8059371Y-12920863D01*
X8059371Y-12911339D01*
X8068895Y-12892292D01*
X8087942Y-12882768D01*
X8116514Y-12882768D01*
X8135561Y-12892292D01*
X8211752Y-13092292D02*
X8221276Y-13082768D01*
X8240323Y-13054196D01*
X8249847Y-13035149D01*
X8259371Y-13006577D01*
X8268895Y-12958958D01*
X8268895Y-12920863D01*
X8259371Y-12873244D01*
X8249847Y-12844673D01*
X8240323Y-12825625D01*
X8221276Y-12797053D01*
X8211752Y-12787530D01*
X8573657Y-13092292D02*
X8564133Y-13082768D01*
X8545085Y-13054196D01*
X8535561Y-13035149D01*
X8526038Y-13006577D01*
X8516514Y-12958958D01*
X8516514Y-12920863D01*
X8526038Y-12873244D01*
X8535561Y-12844673D01*
X8545085Y-12825625D01*
X8564133Y-12797053D01*
X8573657Y-12787530D01*
X8649847Y-12882768D02*
X8649847Y-13016101D01*
X8649847Y-12901815D02*
X8659371Y-12892292D01*
X8678419Y-12882768D01*
X8706990Y-12882768D01*
X8726038Y-12892292D01*
X8735561Y-12911339D01*
X8735561Y-13016101D01*
X8859371Y-13016101D02*
X8840323Y-13006577D01*
X8830800Y-12997053D01*
X8821276Y-12978006D01*
X8821276Y-12920863D01*
X8830800Y-12901815D01*
X8840323Y-12892292D01*
X8859371Y-12882768D01*
X8887942Y-12882768D01*
X8906990Y-12892292D01*
X8916514Y-12901815D01*
X8926038Y-12920863D01*
X8926038Y-12978006D01*
X8916514Y-12997053D01*
X8906990Y-13006577D01*
X8887942Y-13016101D01*
X8859371Y-13016101D01*
X8983181Y-12882768D02*
X9059371Y-12882768D01*
X9011752Y-12816101D02*
X9011752Y-12987530D01*
X9021276Y-13006577D01*
X9040323Y-13016101D01*
X9059371Y-13016101D01*
X9278419Y-12882768D02*
X9278419Y-13082768D01*
X9278419Y-12892292D02*
X9297466Y-12882768D01*
X9335561Y-12882768D01*
X9354609Y-12892292D01*
X9364133Y-12901815D01*
X9373657Y-12920863D01*
X9373657Y-12978006D01*
X9364133Y-12997053D01*
X9354609Y-13006577D01*
X9335561Y-13016101D01*
X9297466Y-13016101D01*
X9278419Y-13006577D01*
X9487942Y-13016101D02*
X9468895Y-13006577D01*
X9459371Y-12987530D01*
X9459371Y-12816101D01*
X9649847Y-13016101D02*
X9649847Y-12911339D01*
X9640323Y-12892292D01*
X9621276Y-12882768D01*
X9583181Y-12882768D01*
X9564133Y-12892292D01*
X9649847Y-13006577D02*
X9630800Y-13016101D01*
X9583181Y-13016101D01*
X9564133Y-13006577D01*
X9554609Y-12987530D01*
X9554609Y-12968482D01*
X9564133Y-12949434D01*
X9583181Y-12939911D01*
X9630800Y-12939911D01*
X9649847Y-12930387D01*
X9716514Y-12882768D02*
X9792704Y-12882768D01*
X9745085Y-12816101D02*
X9745085Y-12987530D01*
X9754609Y-13006577D01*
X9773657Y-13016101D01*
X9792704Y-13016101D01*
X9935561Y-13006577D02*
X9916514Y-13016101D01*
X9878419Y-13016101D01*
X9859371Y-13006577D01*
X9849847Y-12987530D01*
X9849847Y-12911339D01*
X9859371Y-12892292D01*
X9878419Y-12882768D01*
X9916514Y-12882768D01*
X9935561Y-12892292D01*
X9945085Y-12911339D01*
X9945085Y-12930387D01*
X9849847Y-12949434D01*
X10116514Y-13016101D02*
X10116514Y-12816101D01*
X10116514Y-13006577D02*
X10097466Y-13016101D01*
X10059371Y-13016101D01*
X10040323Y-13006577D01*
X10030800Y-12997053D01*
X10021276Y-12978006D01*
X10021276Y-12920863D01*
X10030800Y-12901815D01*
X10040323Y-12892292D01*
X10059371Y-12882768D01*
X10097466Y-12882768D01*
X10116514Y-12892292D01*
X10192704Y-13092292D02*
X10202228Y-13082768D01*
X10221276Y-13054196D01*
X10230800Y-13035149D01*
X10240323Y-13006577D01*
X10249847Y-12958958D01*
X10249847Y-12920863D01*
X10240323Y-12873244D01*
X10230800Y-12844673D01*
X10221276Y-12825625D01*
X10202228Y-12797053D01*
X10192704Y-12787530D01*
M02*
