M48
; DRILL file {KiCad (6.0.9)} date Wed 21 Dec 2022 21:09:17 CET
; FORMAT={-:-/ absolute / metric / decimal}
; #@! TF.CreationDate,2022-12-21T21:09:17+01:00
; #@! TF.GenerationSoftware,Kicad,Pcbnew,(6.0.9)
; #@! TF.FileFunction,NonPlated,1,2,NPTH
FMAT,2
METRIC
; #@! TA.AperFunction,NonPlated,NPTH,ComponentDrill
T1C1.750
; #@! TA.AperFunction,NonPlated,NPTH,ComponentDrill
T2C3.988
%
G90
G05
T1
X37.782Y-33.337
X37.782Y-52.387
X37.782Y-71.438
X37.782Y-90.487
X37.782Y-109.537
X47.942Y-33.337
X47.942Y-52.387
X47.942Y-71.438
X47.942Y-90.487
X47.942Y-109.537
X56.832Y-33.337
X56.832Y-52.387
X56.832Y-71.438
X56.832Y-90.487
X56.832Y-109.537
X66.992Y-33.337
X66.992Y-52.387
X66.992Y-71.438
X66.992Y-90.487
X66.992Y-109.537
X75.882Y-33.337
X75.882Y-52.387
X75.882Y-71.438
X75.882Y-90.487
X75.882Y-109.537
X86.042Y-33.337
X86.042Y-52.387
X86.042Y-71.438
X86.042Y-90.487
X86.042Y-109.537
X94.932Y-33.337
X94.932Y-52.387
X94.932Y-71.438
X94.932Y-90.487
X94.932Y-109.537
X105.093Y-33.337
X105.093Y-52.387
X105.093Y-71.438
X105.093Y-90.487
X105.093Y-109.537
X113.983Y-33.337
X113.983Y-52.387
X113.983Y-71.438
X113.983Y-90.487
X113.983Y-109.537
X124.142Y-33.337
X124.142Y-52.387
X124.142Y-71.438
X124.142Y-90.487
X124.142Y-109.537
X133.032Y-33.337
X133.032Y-52.387
X133.032Y-71.438
X133.032Y-90.487
X133.032Y-109.537
X143.192Y-33.337
X143.192Y-52.387
X143.192Y-71.438
X143.192Y-90.487
X143.192Y-109.537
X152.082Y-33.337
X152.082Y-52.387
X152.082Y-71.438
X152.082Y-90.487
X152.082Y-109.537
X162.243Y-33.337
X162.243Y-52.387
X162.243Y-71.438
X162.243Y-90.487
X162.243Y-109.537
X171.132Y-33.337
X171.132Y-52.387
X171.132Y-71.438
X171.132Y-90.487
X171.132Y-109.537
X181.292Y-33.337
X181.292Y-52.387
X181.292Y-71.438
X181.292Y-90.487
X181.292Y-109.537
X190.183Y-33.337
X190.183Y-52.387
X190.183Y-71.438
X190.183Y-90.487
X190.183Y-109.537
X200.343Y-33.337
X200.343Y-52.387
X200.343Y-71.438
X200.343Y-90.487
X200.343Y-109.537
X209.232Y-33.337
X209.232Y-52.387
X209.232Y-71.438
X209.232Y-90.487
X209.232Y-109.537
X219.392Y-33.337
X219.392Y-52.387
X219.392Y-71.438
X219.392Y-90.487
X219.392Y-109.537
X228.282Y-33.337
X228.282Y-52.387
X228.282Y-71.438
X228.282Y-90.487
X228.282Y-109.537
X238.442Y-33.337
X238.442Y-52.387
X238.442Y-71.438
X238.442Y-90.487
X238.442Y-109.537
X247.332Y-33.337
X247.332Y-52.387
X247.332Y-71.438
X247.332Y-90.487
X247.332Y-109.537
X257.493Y-33.337
X257.493Y-52.387
X257.493Y-71.438
X257.493Y-90.487
X257.493Y-109.537
T2
X42.862Y-33.337
X42.862Y-52.387
X42.862Y-71.438
X42.862Y-90.487
X42.862Y-109.537
X61.912Y-33.337
X61.912Y-52.387
X61.912Y-71.438
X61.912Y-90.487
X61.912Y-109.537
X80.962Y-33.337
X80.962Y-52.387
X80.962Y-71.438
X80.962Y-90.487
X80.962Y-109.537
X100.012Y-33.337
X100.012Y-52.387
X100.012Y-71.438
X100.012Y-90.487
X100.012Y-109.537
X119.062Y-33.337
X119.062Y-52.387
X119.062Y-71.438
X119.062Y-90.487
X119.062Y-109.537
X138.112Y-33.337
X138.112Y-52.387
X138.112Y-71.438
X138.112Y-90.487
X138.112Y-109.537
X157.162Y-33.337
X157.162Y-52.387
X157.162Y-71.438
X157.162Y-90.487
X157.162Y-109.537
X176.213Y-33.337
X176.213Y-52.387
X176.213Y-71.438
X176.213Y-90.487
X176.213Y-109.537
X195.262Y-33.337
X195.262Y-52.387
X195.262Y-71.438
X195.262Y-90.487
X195.262Y-109.537
X214.312Y-33.337
X214.312Y-52.387
X214.312Y-71.438
X214.312Y-90.487
X214.312Y-109.537
X233.362Y-33.337
X233.362Y-52.387
X233.362Y-71.438
X233.362Y-90.487
X233.362Y-109.537
X252.412Y-33.337
X252.412Y-52.387
X252.412Y-71.438
X252.412Y-90.487
X252.412Y-109.537
T0
M30
