M48
; DRILL file {KiCad (6.0.11)} date Mon 20 Mar 2023 22:28:08 CET
; FORMAT={-:-/ absolute / metric / decimal}
; #@! TF.CreationDate,2023-03-20T22:28:08+01:00
; #@! TF.GenerationSoftware,Kicad,Pcbnew,(6.0.11)
; #@! TF.FileFunction,NonPlated,1,2,NPTH
FMAT,2
METRIC
; #@! TA.AperFunction,NonPlated,NPTH,ComponentDrill
T1C1.750
; #@! TA.AperFunction,NonPlated,NPTH,ComponentDrill
T2C3.988
%
G90
G05
T1
X52.038Y-135.919
X55.999Y-117.286
X59.96Y-98.652
X61.976Y-138.032
X63.92Y-80.018
X65.937Y-119.398
X69.897Y-100.764
X70.672Y-139.88
X73.858Y-82.131
X74.633Y-121.246
X78.593Y-102.613
X80.61Y-141.992
X82.554Y-83.979
X84.57Y-123.359
X88.531Y-104.725
X89.306Y-143.841
X92.492Y-86.091
X93.266Y-125.207
X97.227Y-106.573
X99.243Y-145.953
X101.188Y-87.94
X103.204Y-127.319
X107.165Y-108.686
X107.939Y-147.801
X111.126Y-90.052
X111.9Y-129.168
X115.861Y-110.534
X117.877Y-149.914
X119.821Y-91.9
X121.838Y-131.28
X125.799Y-112.646
X126.573Y-151.762
X129.759Y-94.013
X130.534Y-133.128
X134.494Y-114.495
X136.511Y-153.875
X138.455Y-95.861
X140.472Y-135.241
X144.432Y-116.607
X145.207Y-155.723
X148.393Y-97.973
X149.167Y-137.089
X153.128Y-118.455
X155.145Y-157.835
X157.089Y-99.822
X159.105Y-139.202
X163.066Y-120.568
X167.027Y-101.934
X174.14Y-121.657
X174.14Y-140.834
X174.14Y-160.011
X174.14Y-179.188
X184.3Y-121.657
X184.3Y-140.834
X184.3Y-160.011
X184.3Y-179.188
X193.19Y-121.657
X193.19Y-140.834
X193.19Y-160.011
X193.19Y-179.188
X203.35Y-121.657
X203.35Y-140.834
X203.35Y-160.011
X203.35Y-179.188
X212.24Y-121.657
X212.24Y-140.834
X212.24Y-160.011
X212.24Y-179.188
X222.4Y-121.657
X222.4Y-140.834
X222.4Y-160.011
X222.4Y-179.188
X229.472Y-101.793
X233.433Y-120.427
X237.394Y-139.061
X239.41Y-99.681
X241.355Y-157.695
X243.371Y-118.315
X247.332Y-136.949
X248.106Y-97.833
X251.293Y-155.582
X252.067Y-116.466
X256.028Y-135.1
X258.044Y-95.72
X259.988Y-153.734
X262.005Y-114.354
X265.966Y-132.988
X266.74Y-93.872
X269.926Y-151.622
X270.701Y-112.506
X274.661Y-131.139
X276.678Y-91.76
X278.622Y-149.773
X280.639Y-110.393
X284.599Y-129.027
X285.374Y-89.911
X288.56Y-147.661
X289.334Y-108.545
X293.295Y-127.179
X295.312Y-87.799
X297.256Y-145.812
X299.272Y-106.433
X303.233Y-125.066
X304.007Y-85.951
X307.194Y-143.7
X307.968Y-104.584
X311.929Y-123.218
X313.945Y-83.838
X315.889Y-141.852
X317.906Y-102.472
X321.867Y-121.106
X322.641Y-81.99
X325.827Y-139.739
X326.602Y-100.624
X330.562Y-119.257
X332.579Y-79.878
X334.523Y-137.891
X336.54Y-98.511
X340.5Y-117.145
X344.461Y-135.779
T2
X57.007Y-136.975
X60.968Y-118.342
X64.929Y-99.708
X68.889Y-81.074
X75.641Y-140.936
X79.602Y-122.302
X83.562Y-103.669
X87.523Y-85.035
X94.274Y-144.897
X98.235Y-126.263
X102.196Y-107.629
X106.157Y-88.996
X112.908Y-148.858
X116.869Y-130.224
X120.83Y-111.59
X124.79Y-92.956
X131.542Y-152.818
X135.503Y-134.185
X139.463Y-115.551
X143.424Y-96.917
X150.176Y-156.779
X154.136Y-138.145
X158.097Y-119.512
X162.058Y-100.878
X179.22Y-121.657
X179.22Y-140.834
X179.22Y-160.011
X179.22Y-179.188
X198.27Y-121.657
X198.27Y-140.834
X198.27Y-160.011
X198.27Y-179.188
X217.32Y-121.657
X217.32Y-140.834
X217.32Y-160.011
X217.32Y-179.188
X234.441Y-100.737
X238.402Y-119.371
X242.363Y-138.005
X246.324Y-156.638
X253.075Y-96.777
X257.036Y-115.41
X260.997Y-134.044
X264.957Y-152.678
X271.709Y-92.816
X275.67Y-111.45
X279.63Y-130.083
X283.591Y-148.717
X290.343Y-88.855
X294.303Y-107.489
X298.264Y-126.123
X302.225Y-144.756
X308.976Y-84.894
X312.937Y-103.528
X316.898Y-122.162
X320.858Y-140.796
X327.61Y-80.934
X331.571Y-99.567
X335.531Y-118.201
X339.492Y-136.835
T0
M30
