G04 #@! TF.GenerationSoftware,KiCad,Pcbnew,(6.0.11)*
G04 #@! TF.CreationDate,2023-03-20T22:28:06+01:00*
G04 #@! TF.ProjectId,t-rex,742d7265-782e-46b6-9963-61645f706362,rev?*
G04 #@! TF.SameCoordinates,Original*
G04 #@! TF.FileFunction,Profile,NP*
%FSLAX46Y46*%
G04 Gerber Fmt 4.6, Leading zero omitted, Abs format (unit mm)*
G04 Created by KiCad (PCBNEW (6.0.11)) date 2023-03-20 22:28:06*
%MOMM*%
%LPD*%
G01*
G04 APERTURE LIST*
G04 #@! TA.AperFunction,Profile*
%ADD10C,0.200000*%
G04 #@! TD*
G04 APERTURE END LIST*
D10*
X161140820Y-185710620D02*
X161140000Y-180338000D01*
X159740000Y-178688000D02*
X44289586Y-150685538D01*
X161139997Y-180338000D02*
G75*
G03*
X159740000Y-178688000I-1735091J-53258D01*
G01*
X161140820Y-185710620D02*
G75*
G03*
X164140000Y-188760000I3024290J-25090D01*
G01*
X236800000Y-178650000D02*
G75*
G03*
X235400000Y-180300000I335092J-1703260D01*
G01*
X235400000Y-180300000D02*
X235399180Y-185672620D01*
X232400000Y-188722001D02*
G75*
G03*
X235399180Y-185672620I-25112J3024292D01*
G01*
X43309580Y-148735013D02*
G75*
G03*
X44289586Y-150685538I1738281J-348088D01*
G01*
X43309580Y-148735013D02*
X60096400Y-69596000D01*
X352175976Y-150308254D02*
X236800000Y-178650000D01*
X181500000Y-93599999D02*
G75*
G03*
X183545072Y-92565025I500000J1549999D01*
G01*
X213454928Y-92515024D02*
G75*
G03*
X215500000Y-93549999I1545072J515024D01*
G01*
X336369180Y-69218711D02*
G75*
G03*
X334418637Y-68238709I-1433880J-422789D01*
G01*
X164140000Y-188760000D02*
X232400000Y-188722000D01*
X186450620Y-77000820D02*
X210450200Y-77000000D01*
X186450620Y-77000840D02*
G75*
G03*
X183451440Y-80050200I25080J-3024260D01*
G01*
X183545072Y-92565025D02*
X183451440Y-80050200D01*
X61920373Y-68396799D02*
G75*
G03*
X60096400Y-69596000I-350773J-1453201D01*
G01*
X336369162Y-69218716D02*
X353155982Y-148357729D01*
X213450200Y-80000000D02*
G75*
G03*
X210450200Y-77000000I-3000000J0D01*
G01*
X352175976Y-150308253D02*
G75*
G03*
X353155982Y-148357729I-758276J1602437D01*
G01*
X181500000Y-93600000D02*
X61920373Y-68396799D01*
X215500000Y-93549999D02*
X334418637Y-68238709D01*
X213450200Y-80000000D02*
X213454928Y-92515024D01*
M02*
