%TF.GenerationSoftware,KiCad,Pcbnew,7.0.3*%
%TF.CreationDate,2023-06-14T18:24:08+02:00*%
%TF.ProjectId,t-rex,742d7265-782e-46b6-9963-61645f706362,rev?*%
%TF.SameCoordinates,Original*%
%TF.FileFunction,Drillmap*%
%TF.FilePolarity,Positive*%
%FSLAX45Y45*%
G04 Gerber Fmt 4.5, Leading zero omitted, Abs format (unit mm)*
G04 Created by KiCad (PCBNEW 7.0.3) date 2023-06-14 18:24:08*
%MOMM*%
%LPD*%
G01*
G04 APERTURE LIST*
%ADD10C,0.100000*%
%ADD11C,0.200000*%
%ADD12C,0.040000*%
%ADD13C,0.080000*%
%ADD14C,0.109220*%
%ADD15C,0.147000*%
%ADD16C,0.220000*%
G04 APERTURE END LIST*
D10*
X3570279Y-2185980D02*
X25958800Y-2184400D01*
X3570279Y-2185980D02*
G75*
G03*
X3254375Y-2501900I-1572J-314333D01*
G01*
X3254375Y-11668125D02*
G75*
G03*
X3571875Y-11985625I317500J0D01*
G01*
X25955625Y-11985625D02*
G75*
G03*
X26273125Y-11668125I-5J317505D01*
G01*
X25955625Y-11985625D02*
X3571875Y-11985625D01*
X3254375Y-11668125D02*
X3254375Y-2501900D01*
X26273125Y-11668125D02*
X26273125Y-2501900D01*
X26273140Y-2501900D02*
G75*
G03*
X25958800Y-2184400I-315920J1580D01*
G01*
D11*
D12*
X6877933Y-2765817D02*
X6917933Y-2805817D01*
X6917933Y-2765817D02*
X6877933Y-2805817D01*
D13*
X5278750Y-2889250D02*
G75*
G03*
X5278750Y-2889250I-40000J0D01*
G01*
X5278750Y-3651250D02*
G75*
G03*
X5278750Y-3651250I-40000J0D01*
G01*
X5278750Y-4778375D02*
G75*
G03*
X5278750Y-4778375I-40000J0D01*
G01*
X5278750Y-5540375D02*
G75*
G03*
X5278750Y-5540375I-40000J0D01*
G01*
X5278750Y-6762750D02*
G75*
G03*
X5278750Y-6762750I-40000J0D01*
G01*
X5278750Y-7524750D02*
G75*
G03*
X5278750Y-7524750I-40000J0D01*
G01*
X5278750Y-8667750D02*
G75*
G03*
X5278750Y-8667750I-40000J0D01*
G01*
X5278750Y-9429750D02*
G75*
G03*
X5278750Y-9429750I-40000J0D01*
G01*
X5278750Y-10572750D02*
G75*
G03*
X5278750Y-10572750I-40000J0D01*
G01*
X5278750Y-11334750D02*
G75*
G03*
X5278750Y-11334750I-40000J0D01*
G01*
X5755000Y-4286250D02*
G75*
G03*
X5755000Y-4286250I-40000J0D01*
G01*
X6310625Y-6191250D02*
G75*
G03*
X6310625Y-6191250I-40000J0D01*
G01*
X6517000Y-4286250D02*
G75*
G03*
X6517000Y-4286250I-40000J0D01*
G01*
X7072625Y-6191250D02*
G75*
G03*
X7072625Y-6191250I-40000J0D01*
G01*
X7183750Y-6762750D02*
G75*
G03*
X7183750Y-6762750I-40000J0D01*
G01*
X7183750Y-7524750D02*
G75*
G03*
X7183750Y-7524750I-40000J0D01*
G01*
X7183750Y-8667750D02*
G75*
G03*
X7183750Y-8667750I-40000J0D01*
G01*
X7183750Y-9429750D02*
G75*
G03*
X7183750Y-9429750I-40000J0D01*
G01*
X7183750Y-10572750D02*
G75*
G03*
X7183750Y-10572750I-40000J0D01*
G01*
X7183750Y-11334750D02*
G75*
G03*
X7183750Y-11334750I-40000J0D01*
G01*
X7583800Y-6197600D02*
G75*
G03*
X7583800Y-6197600I-40000J0D01*
G01*
X8345800Y-6197600D02*
G75*
G03*
X8345800Y-6197600I-40000J0D01*
G01*
X8688700Y-6191250D02*
G75*
G03*
X8688700Y-6191250I-40000J0D01*
G01*
X9088750Y-6762750D02*
G75*
G03*
X9088750Y-6762750I-40000J0D01*
G01*
X9088750Y-7524750D02*
G75*
G03*
X9088750Y-7524750I-40000J0D01*
G01*
X9088750Y-8667750D02*
G75*
G03*
X9088750Y-8667750I-40000J0D01*
G01*
X9088750Y-9429750D02*
G75*
G03*
X9088750Y-9429750I-40000J0D01*
G01*
X9088750Y-10572750D02*
G75*
G03*
X9088750Y-10572750I-40000J0D01*
G01*
X9088750Y-11334750D02*
G75*
G03*
X9088750Y-11334750I-40000J0D01*
G01*
X9450700Y-6191250D02*
G75*
G03*
X9450700Y-6191250I-40000J0D01*
G01*
X10993750Y-2873375D02*
G75*
G03*
X10993750Y-2873375I-40000J0D01*
G01*
X10993750Y-3635375D02*
G75*
G03*
X10993750Y-3635375I-40000J0D01*
G01*
X10993750Y-4778375D02*
G75*
G03*
X10993750Y-4778375I-40000J0D01*
G01*
X10993750Y-5540375D02*
G75*
G03*
X10993750Y-5540375I-40000J0D01*
G01*
X10993750Y-6762750D02*
G75*
G03*
X10993750Y-6762750I-40000J0D01*
G01*
X10993750Y-7524750D02*
G75*
G03*
X10993750Y-7524750I-40000J0D01*
G01*
X10993750Y-8667750D02*
G75*
G03*
X10993750Y-8667750I-40000J0D01*
G01*
X10993750Y-9429750D02*
G75*
G03*
X10993750Y-9429750I-40000J0D01*
G01*
X10993750Y-10572750D02*
G75*
G03*
X10993750Y-10572750I-40000J0D01*
G01*
X10993750Y-11334750D02*
G75*
G03*
X10993750Y-11334750I-40000J0D01*
G01*
X12898750Y-2873375D02*
G75*
G03*
X12898750Y-2873375I-40000J0D01*
G01*
X12898750Y-3635375D02*
G75*
G03*
X12898750Y-3635375I-40000J0D01*
G01*
X12898750Y-4778375D02*
G75*
G03*
X12898750Y-4778375I-40000J0D01*
G01*
X12898750Y-5540375D02*
G75*
G03*
X12898750Y-5540375I-40000J0D01*
G01*
X12898750Y-6762750D02*
G75*
G03*
X12898750Y-6762750I-40000J0D01*
G01*
X12898750Y-7524750D02*
G75*
G03*
X12898750Y-7524750I-40000J0D01*
G01*
X12898750Y-8667750D02*
G75*
G03*
X12898750Y-8667750I-40000J0D01*
G01*
X12898750Y-9429750D02*
G75*
G03*
X12898750Y-9429750I-40000J0D01*
G01*
X12898750Y-10572750D02*
G75*
G03*
X12898750Y-10572750I-40000J0D01*
G01*
X12898750Y-11334750D02*
G75*
G03*
X12898750Y-11334750I-40000J0D01*
G01*
X14803750Y-2873375D02*
G75*
G03*
X14803750Y-2873375I-40000J0D01*
G01*
X14803750Y-3635375D02*
G75*
G03*
X14803750Y-3635375I-40000J0D01*
G01*
X14803750Y-4778375D02*
G75*
G03*
X14803750Y-4778375I-40000J0D01*
G01*
X14803750Y-5540375D02*
G75*
G03*
X14803750Y-5540375I-40000J0D01*
G01*
X14803750Y-6762750D02*
G75*
G03*
X14803750Y-6762750I-40000J0D01*
G01*
X14803750Y-7524750D02*
G75*
G03*
X14803750Y-7524750I-40000J0D01*
G01*
X14803750Y-8667750D02*
G75*
G03*
X14803750Y-8667750I-40000J0D01*
G01*
X14803750Y-9429750D02*
G75*
G03*
X14803750Y-9429750I-40000J0D01*
G01*
X14803750Y-10572750D02*
G75*
G03*
X14803750Y-10572750I-40000J0D01*
G01*
X14803750Y-11334750D02*
G75*
G03*
X14803750Y-11334750I-40000J0D01*
G01*
X16708750Y-2873375D02*
G75*
G03*
X16708750Y-2873375I-40000J0D01*
G01*
X16708750Y-3635375D02*
G75*
G03*
X16708750Y-3635375I-40000J0D01*
G01*
X16708750Y-4778375D02*
G75*
G03*
X16708750Y-4778375I-40000J0D01*
G01*
X16708750Y-5540375D02*
G75*
G03*
X16708750Y-5540375I-40000J0D01*
G01*
X16708750Y-6762750D02*
G75*
G03*
X16708750Y-6762750I-40000J0D01*
G01*
X16708750Y-7524750D02*
G75*
G03*
X16708750Y-7524750I-40000J0D01*
G01*
X16708750Y-8667750D02*
G75*
G03*
X16708750Y-8667750I-40000J0D01*
G01*
X16708750Y-9429750D02*
G75*
G03*
X16708750Y-9429750I-40000J0D01*
G01*
X16708750Y-10572750D02*
G75*
G03*
X16708750Y-10572750I-40000J0D01*
G01*
X16708750Y-11334750D02*
G75*
G03*
X16708750Y-11334750I-40000J0D01*
G01*
X18613750Y-2873375D02*
G75*
G03*
X18613750Y-2873375I-40000J0D01*
G01*
X18613750Y-3635375D02*
G75*
G03*
X18613750Y-3635375I-40000J0D01*
G01*
X18613750Y-4778375D02*
G75*
G03*
X18613750Y-4778375I-40000J0D01*
G01*
X18613750Y-5540375D02*
G75*
G03*
X18613750Y-5540375I-40000J0D01*
G01*
X18613750Y-6762750D02*
G75*
G03*
X18613750Y-6762750I-40000J0D01*
G01*
X18613750Y-7524750D02*
G75*
G03*
X18613750Y-7524750I-40000J0D01*
G01*
X18613750Y-8667750D02*
G75*
G03*
X18613750Y-8667750I-40000J0D01*
G01*
X18613750Y-9429750D02*
G75*
G03*
X18613750Y-9429750I-40000J0D01*
G01*
X18613750Y-10572750D02*
G75*
G03*
X18613750Y-10572750I-40000J0D01*
G01*
X18613750Y-11334750D02*
G75*
G03*
X18613750Y-11334750I-40000J0D01*
G01*
X20518750Y-2873375D02*
G75*
G03*
X20518750Y-2873375I-40000J0D01*
G01*
X20518750Y-3635375D02*
G75*
G03*
X20518750Y-3635375I-40000J0D01*
G01*
X20518750Y-4778375D02*
G75*
G03*
X20518750Y-4778375I-40000J0D01*
G01*
X20518750Y-5540375D02*
G75*
G03*
X20518750Y-5540375I-40000J0D01*
G01*
X20518750Y-6762750D02*
G75*
G03*
X20518750Y-6762750I-40000J0D01*
G01*
X20518750Y-7524750D02*
G75*
G03*
X20518750Y-7524750I-40000J0D01*
G01*
X20518750Y-8667750D02*
G75*
G03*
X20518750Y-8667750I-40000J0D01*
G01*
X20518750Y-9429750D02*
G75*
G03*
X20518750Y-9429750I-40000J0D01*
G01*
X20518750Y-10572750D02*
G75*
G03*
X20518750Y-10572750I-40000J0D01*
G01*
X20518750Y-11334750D02*
G75*
G03*
X20518750Y-11334750I-40000J0D01*
G01*
X22423750Y-2873375D02*
G75*
G03*
X22423750Y-2873375I-40000J0D01*
G01*
X22423750Y-3635375D02*
G75*
G03*
X22423750Y-3635375I-40000J0D01*
G01*
X22423750Y-4778375D02*
G75*
G03*
X22423750Y-4778375I-40000J0D01*
G01*
X22423750Y-5540375D02*
G75*
G03*
X22423750Y-5540375I-40000J0D01*
G01*
X22423750Y-6762750D02*
G75*
G03*
X22423750Y-6762750I-40000J0D01*
G01*
X22423750Y-7524750D02*
G75*
G03*
X22423750Y-7524750I-40000J0D01*
G01*
X22423750Y-8667750D02*
G75*
G03*
X22423750Y-8667750I-40000J0D01*
G01*
X22423750Y-9429750D02*
G75*
G03*
X22423750Y-9429750I-40000J0D01*
G01*
X22423750Y-10572750D02*
G75*
G03*
X22423750Y-10572750I-40000J0D01*
G01*
X22423750Y-11334750D02*
G75*
G03*
X22423750Y-11334750I-40000J0D01*
G01*
X22874600Y-9855200D02*
G75*
G03*
X22874600Y-9855200I-40000J0D01*
G01*
X23636600Y-9855200D02*
G75*
G03*
X23636600Y-9855200I-40000J0D01*
G01*
X24309700Y-2870200D02*
G75*
G03*
X24309700Y-2870200I-40000J0D01*
G01*
X24309700Y-3632200D02*
G75*
G03*
X24309700Y-3632200I-40000J0D01*
G01*
X24328750Y-4778375D02*
G75*
G03*
X24328750Y-4778375I-40000J0D01*
G01*
X24328750Y-5540375D02*
G75*
G03*
X24328750Y-5540375I-40000J0D01*
G01*
X24328750Y-6762750D02*
G75*
G03*
X24328750Y-6762750I-40000J0D01*
G01*
X24328750Y-7524750D02*
G75*
G03*
X24328750Y-7524750I-40000J0D01*
G01*
X24328750Y-8588375D02*
G75*
G03*
X24328750Y-8588375I-40000J0D01*
G01*
X24328750Y-9350375D02*
G75*
G03*
X24328750Y-9350375I-40000J0D01*
G01*
X24328750Y-10572750D02*
G75*
G03*
X24328750Y-10572750I-40000J0D01*
G01*
X24328750Y-11334750D02*
G75*
G03*
X24328750Y-11334750I-40000J0D01*
G01*
X24805000Y-4286250D02*
G75*
G03*
X24805000Y-4286250I-40000J0D01*
G01*
X24810080Y-6182360D02*
G75*
G03*
X24810080Y-6182360I-40000J0D01*
G01*
X24820875Y-8096250D02*
G75*
G03*
X24820875Y-8096250I-40000J0D01*
G01*
X24820875Y-10001250D02*
G75*
G03*
X24820875Y-10001250I-40000J0D01*
G01*
X25567000Y-4286250D02*
G75*
G03*
X25567000Y-4286250I-40000J0D01*
G01*
X25572080Y-6182360D02*
G75*
G03*
X25572080Y-6182360I-40000J0D01*
G01*
X25582875Y-8096250D02*
G75*
G03*
X25582875Y-8096250I-40000J0D01*
G01*
X25582875Y-10001250D02*
G75*
G03*
X25582875Y-10001250I-40000J0D01*
G01*
D10*
X4111625Y-4236250D02*
X4111625Y-4336250D01*
X4061625Y-4286250D02*
X4161625Y-4286250D01*
X4365625Y-4236250D02*
X4365625Y-4336250D01*
X4315625Y-4286250D02*
X4415625Y-4286250D01*
X4619625Y-4236250D02*
X4619625Y-4336250D01*
X4569625Y-4286250D02*
X4669625Y-4286250D01*
X5013750Y-5816250D02*
X5013750Y-5916250D01*
X4963750Y-5866250D02*
X5063750Y-5866250D01*
X5013750Y-6466250D02*
X5013750Y-6566250D01*
X4963750Y-6516250D02*
X5063750Y-6516250D01*
X5463750Y-5816250D02*
X5463750Y-5916250D01*
X5413750Y-5866250D02*
X5513750Y-5866250D01*
X5463750Y-6466250D02*
X5463750Y-6566250D01*
X5413750Y-6516250D02*
X5513750Y-6516250D01*
D14*
X7372865Y-2650291D02*
X7372865Y-2573060D01*
X7295634Y-2573060D01*
X7295634Y-2650291D01*
X7372865Y-2650291D01*
X7372865Y-2904290D02*
X7372865Y-2827059D01*
X7295634Y-2827059D01*
X7295634Y-2904290D01*
X7372865Y-2904290D01*
X7372865Y-3158290D02*
X7372865Y-3081059D01*
X7295634Y-3081059D01*
X7295634Y-3158290D01*
X7372865Y-3158290D01*
X7372865Y-3412290D02*
X7372865Y-3335059D01*
X7295634Y-3335059D01*
X7295634Y-3412290D01*
X7372865Y-3412290D01*
X7372865Y-3666290D02*
X7372865Y-3589059D01*
X7295634Y-3589059D01*
X7295634Y-3666290D01*
X7372865Y-3666290D01*
X7372865Y-3920290D02*
X7372865Y-3843059D01*
X7295634Y-3843059D01*
X7295634Y-3920290D01*
X7372865Y-3920290D01*
X7372865Y-4174290D02*
X7372865Y-4097059D01*
X7295634Y-4097059D01*
X7295634Y-4174290D01*
X7372865Y-4174290D01*
X7372865Y-4428291D02*
X7372865Y-4351060D01*
X7295634Y-4351060D01*
X7295634Y-4428291D01*
X7372865Y-4428291D01*
X7372865Y-4682291D02*
X7372865Y-4605060D01*
X7295634Y-4605060D01*
X7295634Y-4682291D01*
X7372865Y-4682291D01*
X7372865Y-4936291D02*
X7372865Y-4859060D01*
X7295634Y-4859060D01*
X7295634Y-4936291D01*
X7372865Y-4936291D01*
X7372865Y-5190291D02*
X7372865Y-5113060D01*
X7295634Y-5113060D01*
X7295634Y-5190291D01*
X7372865Y-5190291D01*
X7372865Y-5444291D02*
X7372865Y-5367060D01*
X7295634Y-5367060D01*
X7295634Y-5444291D01*
X7372865Y-5444291D01*
X8896866Y-2650291D02*
X8896866Y-2573060D01*
X8819635Y-2573060D01*
X8819635Y-2650291D01*
X8896866Y-2650291D01*
X8896866Y-2904290D02*
X8896866Y-2827059D01*
X8819635Y-2827059D01*
X8819635Y-2904290D01*
X8896866Y-2904290D01*
X8896866Y-3158290D02*
X8896866Y-3081059D01*
X8819635Y-3081059D01*
X8819635Y-3158290D01*
X8896866Y-3158290D01*
X8896866Y-3412290D02*
X8896866Y-3335059D01*
X8819635Y-3335059D01*
X8819635Y-3412290D01*
X8896866Y-3412290D01*
X8896866Y-3666290D02*
X8896866Y-3589059D01*
X8819635Y-3589059D01*
X8819635Y-3666290D01*
X8896866Y-3666290D01*
X8896866Y-3920290D02*
X8896866Y-3843059D01*
X8819635Y-3843059D01*
X8819635Y-3920290D01*
X8896866Y-3920290D01*
X8896866Y-4174290D02*
X8896866Y-4097059D01*
X8819635Y-4097059D01*
X8819635Y-4174290D01*
X8896866Y-4174290D01*
X8896866Y-4428291D02*
X8896866Y-4351060D01*
X8819635Y-4351060D01*
X8819635Y-4428291D01*
X8896866Y-4428291D01*
X8896866Y-4682291D02*
X8896866Y-4605060D01*
X8819635Y-4605060D01*
X8819635Y-4682291D01*
X8896866Y-4682291D01*
X8896866Y-4936291D02*
X8896866Y-4859060D01*
X8819635Y-4859060D01*
X8819635Y-4936291D01*
X8896866Y-4936291D01*
X8896866Y-5190291D02*
X8896866Y-5113060D01*
X8819635Y-5113060D01*
X8819635Y-5190291D01*
X8896866Y-5190291D01*
X8896866Y-5444291D02*
X8896866Y-5367060D01*
X8819635Y-5367060D01*
X8819635Y-5444291D01*
X8896866Y-5444291D01*
D15*
X3905250Y-3153250D02*
X3978750Y-3079750D01*
X3905250Y-3006250D01*
X3831750Y-3079750D01*
X3905250Y-3153250D01*
X3905250Y-5058250D02*
X3978750Y-4984750D01*
X3905250Y-4911250D01*
X3831750Y-4984750D01*
X3905250Y-5058250D01*
X3905250Y-6963250D02*
X3978750Y-6889750D01*
X3905250Y-6816250D01*
X3831750Y-6889750D01*
X3905250Y-6963250D01*
X3905250Y-8868250D02*
X3978750Y-8794750D01*
X3905250Y-8721250D01*
X3831750Y-8794750D01*
X3905250Y-8868250D01*
X3905250Y-10773250D02*
X3978750Y-10699750D01*
X3905250Y-10626250D01*
X3831750Y-10699750D01*
X3905250Y-10773250D01*
X4036250Y-3007250D02*
X4109750Y-2933750D01*
X4036250Y-2860250D01*
X3962750Y-2933750D01*
X4036250Y-3007250D01*
X4036250Y-4912250D02*
X4109750Y-4838750D01*
X4036250Y-4765250D01*
X3962750Y-4838750D01*
X4036250Y-4912250D01*
X4036250Y-6817250D02*
X4109750Y-6743750D01*
X4036250Y-6670250D01*
X3962750Y-6743750D01*
X4036250Y-6817250D01*
X4036250Y-8722250D02*
X4109750Y-8648750D01*
X4036250Y-8575250D01*
X3962750Y-8648750D01*
X4036250Y-8722250D01*
X4036250Y-10627250D02*
X4109750Y-10553750D01*
X4036250Y-10480250D01*
X3962750Y-10553750D01*
X4036250Y-10627250D01*
X4536250Y-2957250D02*
X4609750Y-2883750D01*
X4536250Y-2810250D01*
X4462750Y-2883750D01*
X4536250Y-2957250D01*
X4536250Y-4862250D02*
X4609750Y-4788750D01*
X4536250Y-4715250D01*
X4462750Y-4788750D01*
X4536250Y-4862250D01*
X4536250Y-6767250D02*
X4609750Y-6693750D01*
X4536250Y-6620250D01*
X4462750Y-6693750D01*
X4536250Y-6767250D01*
X4536250Y-8672250D02*
X4609750Y-8598750D01*
X4536250Y-8525250D01*
X4462750Y-8598750D01*
X4536250Y-8672250D01*
X4536250Y-10577250D02*
X4609750Y-10503750D01*
X4536250Y-10430250D01*
X4462750Y-10503750D01*
X4536250Y-10577250D01*
X4540250Y-2899250D02*
X4613750Y-2825750D01*
X4540250Y-2752250D01*
X4466750Y-2825750D01*
X4540250Y-2899250D01*
X4540250Y-4804250D02*
X4613750Y-4730750D01*
X4540250Y-4657250D01*
X4466750Y-4730750D01*
X4540250Y-4804250D01*
X4540250Y-6709250D02*
X4613750Y-6635750D01*
X4540250Y-6562250D01*
X4466750Y-6635750D01*
X4540250Y-6709250D01*
X4540250Y-8614250D02*
X4613750Y-8540750D01*
X4540250Y-8467250D01*
X4466750Y-8540750D01*
X4540250Y-8614250D01*
X4540250Y-10519250D02*
X4613750Y-10445750D01*
X4540250Y-10372250D01*
X4466750Y-10445750D01*
X4540250Y-10519250D01*
X5810250Y-3153250D02*
X5883750Y-3079750D01*
X5810250Y-3006250D01*
X5736750Y-3079750D01*
X5810250Y-3153250D01*
X5810250Y-5058250D02*
X5883750Y-4984750D01*
X5810250Y-4911250D01*
X5736750Y-4984750D01*
X5810250Y-5058250D01*
X5810250Y-6963250D02*
X5883750Y-6889750D01*
X5810250Y-6816250D01*
X5736750Y-6889750D01*
X5810250Y-6963250D01*
X5810250Y-8868250D02*
X5883750Y-8794750D01*
X5810250Y-8721250D01*
X5736750Y-8794750D01*
X5810250Y-8868250D01*
X5810250Y-10773250D02*
X5883750Y-10699750D01*
X5810250Y-10626250D01*
X5736750Y-10699750D01*
X5810250Y-10773250D01*
X5941250Y-3007250D02*
X6014750Y-2933750D01*
X5941250Y-2860250D01*
X5867750Y-2933750D01*
X5941250Y-3007250D01*
X5941250Y-4912250D02*
X6014750Y-4838750D01*
X5941250Y-4765250D01*
X5867750Y-4838750D01*
X5941250Y-4912250D01*
X5941250Y-6817250D02*
X6014750Y-6743750D01*
X5941250Y-6670250D01*
X5867750Y-6743750D01*
X5941250Y-6817250D01*
X5941250Y-8722250D02*
X6014750Y-8648750D01*
X5941250Y-8575250D01*
X5867750Y-8648750D01*
X5941250Y-8722250D01*
X5941250Y-10627250D02*
X6014750Y-10553750D01*
X5941250Y-10480250D01*
X5867750Y-10553750D01*
X5941250Y-10627250D01*
X6441250Y-2957250D02*
X6514750Y-2883750D01*
X6441250Y-2810250D01*
X6367750Y-2883750D01*
X6441250Y-2957250D01*
X6441250Y-4862250D02*
X6514750Y-4788750D01*
X6441250Y-4715250D01*
X6367750Y-4788750D01*
X6441250Y-4862250D01*
X6441250Y-6767250D02*
X6514750Y-6693750D01*
X6441250Y-6620250D01*
X6367750Y-6693750D01*
X6441250Y-6767250D01*
X6441250Y-8672250D02*
X6514750Y-8598750D01*
X6441250Y-8525250D01*
X6367750Y-8598750D01*
X6441250Y-8672250D01*
X6441250Y-10577250D02*
X6514750Y-10503750D01*
X6441250Y-10430250D01*
X6367750Y-10503750D01*
X6441250Y-10577250D01*
X6445250Y-2899250D02*
X6518750Y-2825750D01*
X6445250Y-2752250D01*
X6371750Y-2825750D01*
X6445250Y-2899250D01*
X6445250Y-4804250D02*
X6518750Y-4730750D01*
X6445250Y-4657250D01*
X6371750Y-4730750D01*
X6445250Y-4804250D01*
X6445250Y-6709250D02*
X6518750Y-6635750D01*
X6445250Y-6562250D01*
X6371750Y-6635750D01*
X6445250Y-6709250D01*
X6445250Y-8614250D02*
X6518750Y-8540750D01*
X6445250Y-8467250D01*
X6371750Y-8540750D01*
X6445250Y-8614250D01*
X6445250Y-10519250D02*
X6518750Y-10445750D01*
X6445250Y-10372250D01*
X6371750Y-10445750D01*
X6445250Y-10519250D01*
X7715250Y-3153250D02*
X7788750Y-3079750D01*
X7715250Y-3006250D01*
X7641750Y-3079750D01*
X7715250Y-3153250D01*
X7715250Y-5058250D02*
X7788750Y-4984750D01*
X7715250Y-4911250D01*
X7641750Y-4984750D01*
X7715250Y-5058250D01*
X7715250Y-6963250D02*
X7788750Y-6889750D01*
X7715250Y-6816250D01*
X7641750Y-6889750D01*
X7715250Y-6963250D01*
X7715250Y-8868250D02*
X7788750Y-8794750D01*
X7715250Y-8721250D01*
X7641750Y-8794750D01*
X7715250Y-8868250D01*
X7715250Y-10773250D02*
X7788750Y-10699750D01*
X7715250Y-10626250D01*
X7641750Y-10699750D01*
X7715250Y-10773250D01*
X7846250Y-3007250D02*
X7919750Y-2933750D01*
X7846250Y-2860250D01*
X7772750Y-2933750D01*
X7846250Y-3007250D01*
X7846250Y-4912250D02*
X7919750Y-4838750D01*
X7846250Y-4765250D01*
X7772750Y-4838750D01*
X7846250Y-4912250D01*
X7846250Y-6817250D02*
X7919750Y-6743750D01*
X7846250Y-6670250D01*
X7772750Y-6743750D01*
X7846250Y-6817250D01*
X7846250Y-8722250D02*
X7919750Y-8648750D01*
X7846250Y-8575250D01*
X7772750Y-8648750D01*
X7846250Y-8722250D01*
X7846250Y-10627250D02*
X7919750Y-10553750D01*
X7846250Y-10480250D01*
X7772750Y-10553750D01*
X7846250Y-10627250D01*
X8346250Y-2957250D02*
X8419750Y-2883750D01*
X8346250Y-2810250D01*
X8272750Y-2883750D01*
X8346250Y-2957250D01*
X8346250Y-4862250D02*
X8419750Y-4788750D01*
X8346250Y-4715250D01*
X8272750Y-4788750D01*
X8346250Y-4862250D01*
X8346250Y-6767250D02*
X8419750Y-6693750D01*
X8346250Y-6620250D01*
X8272750Y-6693750D01*
X8346250Y-6767250D01*
X8346250Y-8672250D02*
X8419750Y-8598750D01*
X8346250Y-8525250D01*
X8272750Y-8598750D01*
X8346250Y-8672250D01*
X8346250Y-10577250D02*
X8419750Y-10503750D01*
X8346250Y-10430250D01*
X8272750Y-10503750D01*
X8346250Y-10577250D01*
X8350250Y-2899250D02*
X8423750Y-2825750D01*
X8350250Y-2752250D01*
X8276750Y-2825750D01*
X8350250Y-2899250D01*
X8350250Y-4804250D02*
X8423750Y-4730750D01*
X8350250Y-4657250D01*
X8276750Y-4730750D01*
X8350250Y-4804250D01*
X8350250Y-6709250D02*
X8423750Y-6635750D01*
X8350250Y-6562250D01*
X8276750Y-6635750D01*
X8350250Y-6709250D01*
X8350250Y-8614250D02*
X8423750Y-8540750D01*
X8350250Y-8467250D01*
X8276750Y-8540750D01*
X8350250Y-8614250D01*
X8350250Y-10519250D02*
X8423750Y-10445750D01*
X8350250Y-10372250D01*
X8276750Y-10445750D01*
X8350250Y-10519250D01*
X9620250Y-3153250D02*
X9693750Y-3079750D01*
X9620250Y-3006250D01*
X9546750Y-3079750D01*
X9620250Y-3153250D01*
X9620250Y-5058250D02*
X9693750Y-4984750D01*
X9620250Y-4911250D01*
X9546750Y-4984750D01*
X9620250Y-5058250D01*
X9620250Y-6963250D02*
X9693750Y-6889750D01*
X9620250Y-6816250D01*
X9546750Y-6889750D01*
X9620250Y-6963250D01*
X9620250Y-8868250D02*
X9693750Y-8794750D01*
X9620250Y-8721250D01*
X9546750Y-8794750D01*
X9620250Y-8868250D01*
X9620250Y-10773250D02*
X9693750Y-10699750D01*
X9620250Y-10626250D01*
X9546750Y-10699750D01*
X9620250Y-10773250D01*
X9751250Y-3007250D02*
X9824750Y-2933750D01*
X9751250Y-2860250D01*
X9677750Y-2933750D01*
X9751250Y-3007250D01*
X9751250Y-4912250D02*
X9824750Y-4838750D01*
X9751250Y-4765250D01*
X9677750Y-4838750D01*
X9751250Y-4912250D01*
X9751250Y-6817250D02*
X9824750Y-6743750D01*
X9751250Y-6670250D01*
X9677750Y-6743750D01*
X9751250Y-6817250D01*
X9751250Y-8722250D02*
X9824750Y-8648750D01*
X9751250Y-8575250D01*
X9677750Y-8648750D01*
X9751250Y-8722250D01*
X9751250Y-10627250D02*
X9824750Y-10553750D01*
X9751250Y-10480250D01*
X9677750Y-10553750D01*
X9751250Y-10627250D01*
X10251250Y-2957250D02*
X10324750Y-2883750D01*
X10251250Y-2810250D01*
X10177750Y-2883750D01*
X10251250Y-2957250D01*
X10251250Y-4862250D02*
X10324750Y-4788750D01*
X10251250Y-4715250D01*
X10177750Y-4788750D01*
X10251250Y-4862250D01*
X10251250Y-6767250D02*
X10324750Y-6693750D01*
X10251250Y-6620250D01*
X10177750Y-6693750D01*
X10251250Y-6767250D01*
X10251250Y-8672250D02*
X10324750Y-8598750D01*
X10251250Y-8525250D01*
X10177750Y-8598750D01*
X10251250Y-8672250D01*
X10251250Y-10577250D02*
X10324750Y-10503750D01*
X10251250Y-10430250D01*
X10177750Y-10503750D01*
X10251250Y-10577250D01*
X10255250Y-2899250D02*
X10328750Y-2825750D01*
X10255250Y-2752250D01*
X10181750Y-2825750D01*
X10255250Y-2899250D01*
X10255250Y-4804250D02*
X10328750Y-4730750D01*
X10255250Y-4657250D01*
X10181750Y-4730750D01*
X10255250Y-4804250D01*
X10255250Y-6709250D02*
X10328750Y-6635750D01*
X10255250Y-6562250D01*
X10181750Y-6635750D01*
X10255250Y-6709250D01*
X10255250Y-8614250D02*
X10328750Y-8540750D01*
X10255250Y-8467250D01*
X10181750Y-8540750D01*
X10255250Y-8614250D01*
X10255250Y-10519250D02*
X10328750Y-10445750D01*
X10255250Y-10372250D01*
X10181750Y-10445750D01*
X10255250Y-10519250D01*
X11525250Y-3153250D02*
X11598750Y-3079750D01*
X11525250Y-3006250D01*
X11451750Y-3079750D01*
X11525250Y-3153250D01*
X11525250Y-5058250D02*
X11598750Y-4984750D01*
X11525250Y-4911250D01*
X11451750Y-4984750D01*
X11525250Y-5058250D01*
X11525250Y-6963250D02*
X11598750Y-6889750D01*
X11525250Y-6816250D01*
X11451750Y-6889750D01*
X11525250Y-6963250D01*
X11525250Y-8868250D02*
X11598750Y-8794750D01*
X11525250Y-8721250D01*
X11451750Y-8794750D01*
X11525250Y-8868250D01*
X11525250Y-10773250D02*
X11598750Y-10699750D01*
X11525250Y-10626250D01*
X11451750Y-10699750D01*
X11525250Y-10773250D01*
X11656250Y-3007250D02*
X11729750Y-2933750D01*
X11656250Y-2860250D01*
X11582750Y-2933750D01*
X11656250Y-3007250D01*
X11656250Y-4912250D02*
X11729750Y-4838750D01*
X11656250Y-4765250D01*
X11582750Y-4838750D01*
X11656250Y-4912250D01*
X11656250Y-6817250D02*
X11729750Y-6743750D01*
X11656250Y-6670250D01*
X11582750Y-6743750D01*
X11656250Y-6817250D01*
X11656250Y-8722250D02*
X11729750Y-8648750D01*
X11656250Y-8575250D01*
X11582750Y-8648750D01*
X11656250Y-8722250D01*
X11656250Y-10627250D02*
X11729750Y-10553750D01*
X11656250Y-10480250D01*
X11582750Y-10553750D01*
X11656250Y-10627250D01*
X12156250Y-2957250D02*
X12229750Y-2883750D01*
X12156250Y-2810250D01*
X12082750Y-2883750D01*
X12156250Y-2957250D01*
X12156250Y-4862250D02*
X12229750Y-4788750D01*
X12156250Y-4715250D01*
X12082750Y-4788750D01*
X12156250Y-4862250D01*
X12156250Y-6767250D02*
X12229750Y-6693750D01*
X12156250Y-6620250D01*
X12082750Y-6693750D01*
X12156250Y-6767250D01*
X12156250Y-8672250D02*
X12229750Y-8598750D01*
X12156250Y-8525250D01*
X12082750Y-8598750D01*
X12156250Y-8672250D01*
X12156250Y-10577250D02*
X12229750Y-10503750D01*
X12156250Y-10430250D01*
X12082750Y-10503750D01*
X12156250Y-10577250D01*
X12160250Y-2899250D02*
X12233750Y-2825750D01*
X12160250Y-2752250D01*
X12086750Y-2825750D01*
X12160250Y-2899250D01*
X12160250Y-4804250D02*
X12233750Y-4730750D01*
X12160250Y-4657250D01*
X12086750Y-4730750D01*
X12160250Y-4804250D01*
X12160250Y-6709250D02*
X12233750Y-6635750D01*
X12160250Y-6562250D01*
X12086750Y-6635750D01*
X12160250Y-6709250D01*
X12160250Y-8614250D02*
X12233750Y-8540750D01*
X12160250Y-8467250D01*
X12086750Y-8540750D01*
X12160250Y-8614250D01*
X12160250Y-10519250D02*
X12233750Y-10445750D01*
X12160250Y-10372250D01*
X12086750Y-10445750D01*
X12160250Y-10519250D01*
X13430250Y-3153250D02*
X13503750Y-3079750D01*
X13430250Y-3006250D01*
X13356750Y-3079750D01*
X13430250Y-3153250D01*
X13430250Y-5058250D02*
X13503750Y-4984750D01*
X13430250Y-4911250D01*
X13356750Y-4984750D01*
X13430250Y-5058250D01*
X13430250Y-6963250D02*
X13503750Y-6889750D01*
X13430250Y-6816250D01*
X13356750Y-6889750D01*
X13430250Y-6963250D01*
X13430250Y-8868250D02*
X13503750Y-8794750D01*
X13430250Y-8721250D01*
X13356750Y-8794750D01*
X13430250Y-8868250D01*
X13430250Y-10773250D02*
X13503750Y-10699750D01*
X13430250Y-10626250D01*
X13356750Y-10699750D01*
X13430250Y-10773250D01*
X13561250Y-3007250D02*
X13634750Y-2933750D01*
X13561250Y-2860250D01*
X13487750Y-2933750D01*
X13561250Y-3007250D01*
X13561250Y-4912250D02*
X13634750Y-4838750D01*
X13561250Y-4765250D01*
X13487750Y-4838750D01*
X13561250Y-4912250D01*
X13561250Y-6817250D02*
X13634750Y-6743750D01*
X13561250Y-6670250D01*
X13487750Y-6743750D01*
X13561250Y-6817250D01*
X13561250Y-8722250D02*
X13634750Y-8648750D01*
X13561250Y-8575250D01*
X13487750Y-8648750D01*
X13561250Y-8722250D01*
X13561250Y-10627250D02*
X13634750Y-10553750D01*
X13561250Y-10480250D01*
X13487750Y-10553750D01*
X13561250Y-10627250D01*
X14061250Y-2957250D02*
X14134750Y-2883750D01*
X14061250Y-2810250D01*
X13987750Y-2883750D01*
X14061250Y-2957250D01*
X14061250Y-4862250D02*
X14134750Y-4788750D01*
X14061250Y-4715250D01*
X13987750Y-4788750D01*
X14061250Y-4862250D01*
X14061250Y-6767250D02*
X14134750Y-6693750D01*
X14061250Y-6620250D01*
X13987750Y-6693750D01*
X14061250Y-6767250D01*
X14061250Y-8672250D02*
X14134750Y-8598750D01*
X14061250Y-8525250D01*
X13987750Y-8598750D01*
X14061250Y-8672250D01*
X14061250Y-10577250D02*
X14134750Y-10503750D01*
X14061250Y-10430250D01*
X13987750Y-10503750D01*
X14061250Y-10577250D01*
X14065250Y-2899250D02*
X14138750Y-2825750D01*
X14065250Y-2752250D01*
X13991750Y-2825750D01*
X14065250Y-2899250D01*
X14065250Y-4804250D02*
X14138750Y-4730750D01*
X14065250Y-4657250D01*
X13991750Y-4730750D01*
X14065250Y-4804250D01*
X14065250Y-6709250D02*
X14138750Y-6635750D01*
X14065250Y-6562250D01*
X13991750Y-6635750D01*
X14065250Y-6709250D01*
X14065250Y-8614250D02*
X14138750Y-8540750D01*
X14065250Y-8467250D01*
X13991750Y-8540750D01*
X14065250Y-8614250D01*
X14065250Y-10519250D02*
X14138750Y-10445750D01*
X14065250Y-10372250D01*
X13991750Y-10445750D01*
X14065250Y-10519250D01*
X15335250Y-3153250D02*
X15408750Y-3079750D01*
X15335250Y-3006250D01*
X15261750Y-3079750D01*
X15335250Y-3153250D01*
X15335250Y-5058250D02*
X15408750Y-4984750D01*
X15335250Y-4911250D01*
X15261750Y-4984750D01*
X15335250Y-5058250D01*
X15335250Y-6963250D02*
X15408750Y-6889750D01*
X15335250Y-6816250D01*
X15261750Y-6889750D01*
X15335250Y-6963250D01*
X15335250Y-8868250D02*
X15408750Y-8794750D01*
X15335250Y-8721250D01*
X15261750Y-8794750D01*
X15335250Y-8868250D01*
X15335250Y-10773250D02*
X15408750Y-10699750D01*
X15335250Y-10626250D01*
X15261750Y-10699750D01*
X15335250Y-10773250D01*
X15466250Y-3007250D02*
X15539750Y-2933750D01*
X15466250Y-2860250D01*
X15392750Y-2933750D01*
X15466250Y-3007250D01*
X15466250Y-4912250D02*
X15539750Y-4838750D01*
X15466250Y-4765250D01*
X15392750Y-4838750D01*
X15466250Y-4912250D01*
X15466250Y-6817250D02*
X15539750Y-6743750D01*
X15466250Y-6670250D01*
X15392750Y-6743750D01*
X15466250Y-6817250D01*
X15466250Y-8722250D02*
X15539750Y-8648750D01*
X15466250Y-8575250D01*
X15392750Y-8648750D01*
X15466250Y-8722250D01*
X15466250Y-10627250D02*
X15539750Y-10553750D01*
X15466250Y-10480250D01*
X15392750Y-10553750D01*
X15466250Y-10627250D01*
X15966250Y-2957250D02*
X16039750Y-2883750D01*
X15966250Y-2810250D01*
X15892750Y-2883750D01*
X15966250Y-2957250D01*
X15966250Y-4862250D02*
X16039750Y-4788750D01*
X15966250Y-4715250D01*
X15892750Y-4788750D01*
X15966250Y-4862250D01*
X15966250Y-6767250D02*
X16039750Y-6693750D01*
X15966250Y-6620250D01*
X15892750Y-6693750D01*
X15966250Y-6767250D01*
X15966250Y-8672250D02*
X16039750Y-8598750D01*
X15966250Y-8525250D01*
X15892750Y-8598750D01*
X15966250Y-8672250D01*
X15966250Y-10577250D02*
X16039750Y-10503750D01*
X15966250Y-10430250D01*
X15892750Y-10503750D01*
X15966250Y-10577250D01*
X15970250Y-2899250D02*
X16043750Y-2825750D01*
X15970250Y-2752250D01*
X15896750Y-2825750D01*
X15970250Y-2899250D01*
X15970250Y-4804250D02*
X16043750Y-4730750D01*
X15970250Y-4657250D01*
X15896750Y-4730750D01*
X15970250Y-4804250D01*
X15970250Y-6709250D02*
X16043750Y-6635750D01*
X15970250Y-6562250D01*
X15896750Y-6635750D01*
X15970250Y-6709250D01*
X15970250Y-8614250D02*
X16043750Y-8540750D01*
X15970250Y-8467250D01*
X15896750Y-8540750D01*
X15970250Y-8614250D01*
X15970250Y-10519250D02*
X16043750Y-10445750D01*
X15970250Y-10372250D01*
X15896750Y-10445750D01*
X15970250Y-10519250D01*
X17240250Y-3153250D02*
X17313750Y-3079750D01*
X17240250Y-3006250D01*
X17166750Y-3079750D01*
X17240250Y-3153250D01*
X17240250Y-5058250D02*
X17313750Y-4984750D01*
X17240250Y-4911250D01*
X17166750Y-4984750D01*
X17240250Y-5058250D01*
X17240250Y-6963250D02*
X17313750Y-6889750D01*
X17240250Y-6816250D01*
X17166750Y-6889750D01*
X17240250Y-6963250D01*
X17240250Y-8868250D02*
X17313750Y-8794750D01*
X17240250Y-8721250D01*
X17166750Y-8794750D01*
X17240250Y-8868250D01*
X17240250Y-10773250D02*
X17313750Y-10699750D01*
X17240250Y-10626250D01*
X17166750Y-10699750D01*
X17240250Y-10773250D01*
X17371250Y-3007250D02*
X17444750Y-2933750D01*
X17371250Y-2860250D01*
X17297750Y-2933750D01*
X17371250Y-3007250D01*
X17371250Y-4912250D02*
X17444750Y-4838750D01*
X17371250Y-4765250D01*
X17297750Y-4838750D01*
X17371250Y-4912250D01*
X17371250Y-6817250D02*
X17444750Y-6743750D01*
X17371250Y-6670250D01*
X17297750Y-6743750D01*
X17371250Y-6817250D01*
X17371250Y-8722250D02*
X17444750Y-8648750D01*
X17371250Y-8575250D01*
X17297750Y-8648750D01*
X17371250Y-8722250D01*
X17371250Y-10627250D02*
X17444750Y-10553750D01*
X17371250Y-10480250D01*
X17297750Y-10553750D01*
X17371250Y-10627250D01*
X17871250Y-2957250D02*
X17944750Y-2883750D01*
X17871250Y-2810250D01*
X17797750Y-2883750D01*
X17871250Y-2957250D01*
X17871250Y-4862250D02*
X17944750Y-4788750D01*
X17871250Y-4715250D01*
X17797750Y-4788750D01*
X17871250Y-4862250D01*
X17871250Y-6767250D02*
X17944750Y-6693750D01*
X17871250Y-6620250D01*
X17797750Y-6693750D01*
X17871250Y-6767250D01*
X17871250Y-8672250D02*
X17944750Y-8598750D01*
X17871250Y-8525250D01*
X17797750Y-8598750D01*
X17871250Y-8672250D01*
X17871250Y-10577250D02*
X17944750Y-10503750D01*
X17871250Y-10430250D01*
X17797750Y-10503750D01*
X17871250Y-10577250D01*
X17875250Y-2899250D02*
X17948750Y-2825750D01*
X17875250Y-2752250D01*
X17801750Y-2825750D01*
X17875250Y-2899250D01*
X17875250Y-4804250D02*
X17948750Y-4730750D01*
X17875250Y-4657250D01*
X17801750Y-4730750D01*
X17875250Y-4804250D01*
X17875250Y-6709250D02*
X17948750Y-6635750D01*
X17875250Y-6562250D01*
X17801750Y-6635750D01*
X17875250Y-6709250D01*
X17875250Y-8614250D02*
X17948750Y-8540750D01*
X17875250Y-8467250D01*
X17801750Y-8540750D01*
X17875250Y-8614250D01*
X17875250Y-10519250D02*
X17948750Y-10445750D01*
X17875250Y-10372250D01*
X17801750Y-10445750D01*
X17875250Y-10519250D01*
X19145250Y-3153250D02*
X19218750Y-3079750D01*
X19145250Y-3006250D01*
X19071750Y-3079750D01*
X19145250Y-3153250D01*
X19145250Y-5058250D02*
X19218750Y-4984750D01*
X19145250Y-4911250D01*
X19071750Y-4984750D01*
X19145250Y-5058250D01*
X19145250Y-6963250D02*
X19218750Y-6889750D01*
X19145250Y-6816250D01*
X19071750Y-6889750D01*
X19145250Y-6963250D01*
X19145250Y-8868250D02*
X19218750Y-8794750D01*
X19145250Y-8721250D01*
X19071750Y-8794750D01*
X19145250Y-8868250D01*
X19145250Y-10773250D02*
X19218750Y-10699750D01*
X19145250Y-10626250D01*
X19071750Y-10699750D01*
X19145250Y-10773250D01*
X19276250Y-3007250D02*
X19349750Y-2933750D01*
X19276250Y-2860250D01*
X19202750Y-2933750D01*
X19276250Y-3007250D01*
X19276250Y-4912250D02*
X19349750Y-4838750D01*
X19276250Y-4765250D01*
X19202750Y-4838750D01*
X19276250Y-4912250D01*
X19276250Y-6817250D02*
X19349750Y-6743750D01*
X19276250Y-6670250D01*
X19202750Y-6743750D01*
X19276250Y-6817250D01*
X19276250Y-8722250D02*
X19349750Y-8648750D01*
X19276250Y-8575250D01*
X19202750Y-8648750D01*
X19276250Y-8722250D01*
X19276250Y-10627250D02*
X19349750Y-10553750D01*
X19276250Y-10480250D01*
X19202750Y-10553750D01*
X19276250Y-10627250D01*
X19776250Y-2957250D02*
X19849750Y-2883750D01*
X19776250Y-2810250D01*
X19702750Y-2883750D01*
X19776250Y-2957250D01*
X19776250Y-4862250D02*
X19849750Y-4788750D01*
X19776250Y-4715250D01*
X19702750Y-4788750D01*
X19776250Y-4862250D01*
X19776250Y-6767250D02*
X19849750Y-6693750D01*
X19776250Y-6620250D01*
X19702750Y-6693750D01*
X19776250Y-6767250D01*
X19776250Y-8672250D02*
X19849750Y-8598750D01*
X19776250Y-8525250D01*
X19702750Y-8598750D01*
X19776250Y-8672250D01*
X19776250Y-10577250D02*
X19849750Y-10503750D01*
X19776250Y-10430250D01*
X19702750Y-10503750D01*
X19776250Y-10577250D01*
X19780250Y-2899250D02*
X19853750Y-2825750D01*
X19780250Y-2752250D01*
X19706750Y-2825750D01*
X19780250Y-2899250D01*
X19780250Y-4804250D02*
X19853750Y-4730750D01*
X19780250Y-4657250D01*
X19706750Y-4730750D01*
X19780250Y-4804250D01*
X19780250Y-6709250D02*
X19853750Y-6635750D01*
X19780250Y-6562250D01*
X19706750Y-6635750D01*
X19780250Y-6709250D01*
X19780250Y-8614250D02*
X19853750Y-8540750D01*
X19780250Y-8467250D01*
X19706750Y-8540750D01*
X19780250Y-8614250D01*
X19780250Y-10519250D02*
X19853750Y-10445750D01*
X19780250Y-10372250D01*
X19706750Y-10445750D01*
X19780250Y-10519250D01*
X21050250Y-3153250D02*
X21123750Y-3079750D01*
X21050250Y-3006250D01*
X20976750Y-3079750D01*
X21050250Y-3153250D01*
X21050250Y-5058250D02*
X21123750Y-4984750D01*
X21050250Y-4911250D01*
X20976750Y-4984750D01*
X21050250Y-5058250D01*
X21050250Y-6963250D02*
X21123750Y-6889750D01*
X21050250Y-6816250D01*
X20976750Y-6889750D01*
X21050250Y-6963250D01*
X21050250Y-8868250D02*
X21123750Y-8794750D01*
X21050250Y-8721250D01*
X20976750Y-8794750D01*
X21050250Y-8868250D01*
X21050250Y-10773250D02*
X21123750Y-10699750D01*
X21050250Y-10626250D01*
X20976750Y-10699750D01*
X21050250Y-10773250D01*
X21181250Y-3007250D02*
X21254750Y-2933750D01*
X21181250Y-2860250D01*
X21107750Y-2933750D01*
X21181250Y-3007250D01*
X21181250Y-4912250D02*
X21254750Y-4838750D01*
X21181250Y-4765250D01*
X21107750Y-4838750D01*
X21181250Y-4912250D01*
X21181250Y-6817250D02*
X21254750Y-6743750D01*
X21181250Y-6670250D01*
X21107750Y-6743750D01*
X21181250Y-6817250D01*
X21181250Y-8722250D02*
X21254750Y-8648750D01*
X21181250Y-8575250D01*
X21107750Y-8648750D01*
X21181250Y-8722250D01*
X21181250Y-10627250D02*
X21254750Y-10553750D01*
X21181250Y-10480250D01*
X21107750Y-10553750D01*
X21181250Y-10627250D01*
X21681250Y-2957250D02*
X21754750Y-2883750D01*
X21681250Y-2810250D01*
X21607750Y-2883750D01*
X21681250Y-2957250D01*
X21681250Y-4862250D02*
X21754750Y-4788750D01*
X21681250Y-4715250D01*
X21607750Y-4788750D01*
X21681250Y-4862250D01*
X21681250Y-6767250D02*
X21754750Y-6693750D01*
X21681250Y-6620250D01*
X21607750Y-6693750D01*
X21681250Y-6767250D01*
X21681250Y-8672250D02*
X21754750Y-8598750D01*
X21681250Y-8525250D01*
X21607750Y-8598750D01*
X21681250Y-8672250D01*
X21681250Y-10577250D02*
X21754750Y-10503750D01*
X21681250Y-10430250D01*
X21607750Y-10503750D01*
X21681250Y-10577250D01*
X21685250Y-2899250D02*
X21758750Y-2825750D01*
X21685250Y-2752250D01*
X21611750Y-2825750D01*
X21685250Y-2899250D01*
X21685250Y-4804250D02*
X21758750Y-4730750D01*
X21685250Y-4657250D01*
X21611750Y-4730750D01*
X21685250Y-4804250D01*
X21685250Y-6709250D02*
X21758750Y-6635750D01*
X21685250Y-6562250D01*
X21611750Y-6635750D01*
X21685250Y-6709250D01*
X21685250Y-8614250D02*
X21758750Y-8540750D01*
X21685250Y-8467250D01*
X21611750Y-8540750D01*
X21685250Y-8614250D01*
X21685250Y-10519250D02*
X21758750Y-10445750D01*
X21685250Y-10372250D01*
X21611750Y-10445750D01*
X21685250Y-10519250D01*
X22955250Y-3153250D02*
X23028750Y-3079750D01*
X22955250Y-3006250D01*
X22881750Y-3079750D01*
X22955250Y-3153250D01*
X22955250Y-5058250D02*
X23028750Y-4984750D01*
X22955250Y-4911250D01*
X22881750Y-4984750D01*
X22955250Y-5058250D01*
X22955250Y-6963250D02*
X23028750Y-6889750D01*
X22955250Y-6816250D01*
X22881750Y-6889750D01*
X22955250Y-6963250D01*
X22955250Y-8868250D02*
X23028750Y-8794750D01*
X22955250Y-8721250D01*
X22881750Y-8794750D01*
X22955250Y-8868250D01*
X22955250Y-10773250D02*
X23028750Y-10699750D01*
X22955250Y-10626250D01*
X22881750Y-10699750D01*
X22955250Y-10773250D01*
X23086250Y-3007250D02*
X23159750Y-2933750D01*
X23086250Y-2860250D01*
X23012750Y-2933750D01*
X23086250Y-3007250D01*
X23086250Y-4912250D02*
X23159750Y-4838750D01*
X23086250Y-4765250D01*
X23012750Y-4838750D01*
X23086250Y-4912250D01*
X23086250Y-6817250D02*
X23159750Y-6743750D01*
X23086250Y-6670250D01*
X23012750Y-6743750D01*
X23086250Y-6817250D01*
X23086250Y-8722250D02*
X23159750Y-8648750D01*
X23086250Y-8575250D01*
X23012750Y-8648750D01*
X23086250Y-8722250D01*
X23086250Y-10627250D02*
X23159750Y-10553750D01*
X23086250Y-10480250D01*
X23012750Y-10553750D01*
X23086250Y-10627250D01*
X23586250Y-2957250D02*
X23659750Y-2883750D01*
X23586250Y-2810250D01*
X23512750Y-2883750D01*
X23586250Y-2957250D01*
X23586250Y-4862250D02*
X23659750Y-4788750D01*
X23586250Y-4715250D01*
X23512750Y-4788750D01*
X23586250Y-4862250D01*
X23586250Y-6767250D02*
X23659750Y-6693750D01*
X23586250Y-6620250D01*
X23512750Y-6693750D01*
X23586250Y-6767250D01*
X23586250Y-8672250D02*
X23659750Y-8598750D01*
X23586250Y-8525250D01*
X23512750Y-8598750D01*
X23586250Y-8672250D01*
X23586250Y-10577250D02*
X23659750Y-10503750D01*
X23586250Y-10430250D01*
X23512750Y-10503750D01*
X23586250Y-10577250D01*
X23590250Y-2899250D02*
X23663750Y-2825750D01*
X23590250Y-2752250D01*
X23516750Y-2825750D01*
X23590250Y-2899250D01*
X23590250Y-4804250D02*
X23663750Y-4730750D01*
X23590250Y-4657250D01*
X23516750Y-4730750D01*
X23590250Y-4804250D01*
X23590250Y-6709250D02*
X23663750Y-6635750D01*
X23590250Y-6562250D01*
X23516750Y-6635750D01*
X23590250Y-6709250D01*
X23590250Y-8614250D02*
X23663750Y-8540750D01*
X23590250Y-8467250D01*
X23516750Y-8540750D01*
X23590250Y-8614250D01*
X23590250Y-10519250D02*
X23663750Y-10445750D01*
X23590250Y-10372250D01*
X23516750Y-10445750D01*
X23590250Y-10519250D01*
X24860250Y-3153250D02*
X24933750Y-3079750D01*
X24860250Y-3006250D01*
X24786750Y-3079750D01*
X24860250Y-3153250D01*
X24860250Y-5058250D02*
X24933750Y-4984750D01*
X24860250Y-4911250D01*
X24786750Y-4984750D01*
X24860250Y-5058250D01*
X24860250Y-6963250D02*
X24933750Y-6889750D01*
X24860250Y-6816250D01*
X24786750Y-6889750D01*
X24860250Y-6963250D01*
X24860250Y-8868250D02*
X24933750Y-8794750D01*
X24860250Y-8721250D01*
X24786750Y-8794750D01*
X24860250Y-8868250D01*
X24860250Y-10773250D02*
X24933750Y-10699750D01*
X24860250Y-10626250D01*
X24786750Y-10699750D01*
X24860250Y-10773250D01*
X24991250Y-3007250D02*
X25064750Y-2933750D01*
X24991250Y-2860250D01*
X24917750Y-2933750D01*
X24991250Y-3007250D01*
X24991250Y-4912250D02*
X25064750Y-4838750D01*
X24991250Y-4765250D01*
X24917750Y-4838750D01*
X24991250Y-4912250D01*
X24991250Y-6817250D02*
X25064750Y-6743750D01*
X24991250Y-6670250D01*
X24917750Y-6743750D01*
X24991250Y-6817250D01*
X24991250Y-8722250D02*
X25064750Y-8648750D01*
X24991250Y-8575250D01*
X24917750Y-8648750D01*
X24991250Y-8722250D01*
X24991250Y-10627250D02*
X25064750Y-10553750D01*
X24991250Y-10480250D01*
X24917750Y-10553750D01*
X24991250Y-10627250D01*
X25491250Y-2957250D02*
X25564750Y-2883750D01*
X25491250Y-2810250D01*
X25417750Y-2883750D01*
X25491250Y-2957250D01*
X25491250Y-4862250D02*
X25564750Y-4788750D01*
X25491250Y-4715250D01*
X25417750Y-4788750D01*
X25491250Y-4862250D01*
X25491250Y-6767250D02*
X25564750Y-6693750D01*
X25491250Y-6620250D01*
X25417750Y-6693750D01*
X25491250Y-6767250D01*
X25491250Y-8672250D02*
X25564750Y-8598750D01*
X25491250Y-8525250D01*
X25417750Y-8598750D01*
X25491250Y-8672250D01*
X25491250Y-10577250D02*
X25564750Y-10503750D01*
X25491250Y-10430250D01*
X25417750Y-10503750D01*
X25491250Y-10577250D01*
X25495250Y-2899250D02*
X25568750Y-2825750D01*
X25495250Y-2752250D01*
X25421750Y-2825750D01*
X25495250Y-2899250D01*
X25495250Y-4804250D02*
X25568750Y-4730750D01*
X25495250Y-4657250D01*
X25421750Y-4730750D01*
X25495250Y-4804250D01*
X25495250Y-6709250D02*
X25568750Y-6635750D01*
X25495250Y-6562250D01*
X25421750Y-6635750D01*
X25495250Y-6709250D01*
X25495250Y-8614250D02*
X25568750Y-8540750D01*
X25495250Y-8467250D01*
X25421750Y-8540750D01*
X25495250Y-8614250D01*
X25495250Y-10519250D02*
X25568750Y-10445750D01*
X25495250Y-10372250D01*
X25421750Y-10445750D01*
X25495250Y-10519250D01*
D16*
X5128750Y-4176250D02*
X5348750Y-4396250D01*
X5348750Y-4176250D02*
X5128750Y-4396250D01*
X5348750Y-4286250D02*
G75*
G03*
X5348750Y-4286250I-110000J0D01*
G01*
X5128750Y-9891250D02*
X5348750Y-10111250D01*
X5348750Y-9891250D02*
X5128750Y-10111250D01*
X5348750Y-10001250D02*
G75*
G03*
X5348750Y-10001250I-110000J0D01*
G01*
X14638691Y-9891065D02*
X14858691Y-10111065D01*
X14858691Y-9891065D02*
X14638691Y-10111065D01*
X14858691Y-10001065D02*
G75*
G03*
X14858691Y-10001065I-110000J0D01*
G01*
X14653750Y-6081250D02*
X14873750Y-6301250D01*
X14873750Y-6081250D02*
X14653750Y-6301250D01*
X14873750Y-6191250D02*
G75*
G03*
X14873750Y-6191250I-110000J0D01*
G01*
X24178750Y-4176250D02*
X24398750Y-4396250D01*
X24398750Y-4176250D02*
X24178750Y-4396250D01*
X24398750Y-4286250D02*
G75*
G03*
X24398750Y-4286250I-110000J0D01*
G01*
X24178750Y-9891250D02*
X24398750Y-10111250D01*
X24398750Y-9891250D02*
X24178750Y-10111250D01*
X24398750Y-10001250D02*
G75*
G03*
X24398750Y-10001250I-110000J0D01*
G01*
D11*
X3510148Y-12302109D02*
X3510148Y-12102109D01*
X3510148Y-12102109D02*
X3557767Y-12102109D01*
X3557767Y-12102109D02*
X3586338Y-12111633D01*
X3586338Y-12111633D02*
X3605386Y-12130680D01*
X3605386Y-12130680D02*
X3614910Y-12149728D01*
X3614910Y-12149728D02*
X3624433Y-12187823D01*
X3624433Y-12187823D02*
X3624433Y-12216394D01*
X3624433Y-12216394D02*
X3614910Y-12254490D01*
X3614910Y-12254490D02*
X3605386Y-12273537D01*
X3605386Y-12273537D02*
X3586338Y-12292585D01*
X3586338Y-12292585D02*
X3557767Y-12302109D01*
X3557767Y-12302109D02*
X3510148Y-12302109D01*
X3710148Y-12302109D02*
X3710148Y-12168775D01*
X3710148Y-12206871D02*
X3719672Y-12187823D01*
X3719672Y-12187823D02*
X3729195Y-12178299D01*
X3729195Y-12178299D02*
X3748243Y-12168775D01*
X3748243Y-12168775D02*
X3767291Y-12168775D01*
X3833957Y-12302109D02*
X3833957Y-12168775D01*
X3833957Y-12102109D02*
X3824433Y-12111633D01*
X3824433Y-12111633D02*
X3833957Y-12121156D01*
X3833957Y-12121156D02*
X3843481Y-12111633D01*
X3843481Y-12111633D02*
X3833957Y-12102109D01*
X3833957Y-12102109D02*
X3833957Y-12121156D01*
X3957767Y-12302109D02*
X3938719Y-12292585D01*
X3938719Y-12292585D02*
X3929195Y-12273537D01*
X3929195Y-12273537D02*
X3929195Y-12102109D01*
X4062529Y-12302109D02*
X4043481Y-12292585D01*
X4043481Y-12292585D02*
X4033957Y-12273537D01*
X4033957Y-12273537D02*
X4033957Y-12102109D01*
X4291100Y-12302109D02*
X4291100Y-12102109D01*
X4291100Y-12102109D02*
X4357767Y-12244966D01*
X4357767Y-12244966D02*
X4424434Y-12102109D01*
X4424434Y-12102109D02*
X4424434Y-12302109D01*
X4605386Y-12302109D02*
X4605386Y-12197347D01*
X4605386Y-12197347D02*
X4595862Y-12178299D01*
X4595862Y-12178299D02*
X4576815Y-12168775D01*
X4576815Y-12168775D02*
X4538719Y-12168775D01*
X4538719Y-12168775D02*
X4519672Y-12178299D01*
X4605386Y-12292585D02*
X4586338Y-12302109D01*
X4586338Y-12302109D02*
X4538719Y-12302109D01*
X4538719Y-12302109D02*
X4519672Y-12292585D01*
X4519672Y-12292585D02*
X4510148Y-12273537D01*
X4510148Y-12273537D02*
X4510148Y-12254490D01*
X4510148Y-12254490D02*
X4519672Y-12235442D01*
X4519672Y-12235442D02*
X4538719Y-12225918D01*
X4538719Y-12225918D02*
X4586338Y-12225918D01*
X4586338Y-12225918D02*
X4605386Y-12216394D01*
X4700624Y-12168775D02*
X4700624Y-12368775D01*
X4700624Y-12178299D02*
X4719672Y-12168775D01*
X4719672Y-12168775D02*
X4757767Y-12168775D01*
X4757767Y-12168775D02*
X4776815Y-12178299D01*
X4776815Y-12178299D02*
X4786338Y-12187823D01*
X4786338Y-12187823D02*
X4795862Y-12206871D01*
X4795862Y-12206871D02*
X4795862Y-12264013D01*
X4795862Y-12264013D02*
X4786338Y-12283061D01*
X4786338Y-12283061D02*
X4776815Y-12292585D01*
X4776815Y-12292585D02*
X4757767Y-12302109D01*
X4757767Y-12302109D02*
X4719672Y-12302109D01*
X4719672Y-12302109D02*
X4700624Y-12292585D01*
X4881576Y-12283061D02*
X4891100Y-12292585D01*
X4891100Y-12292585D02*
X4881576Y-12302109D01*
X4881576Y-12302109D02*
X4872053Y-12292585D01*
X4872053Y-12292585D02*
X4881576Y-12283061D01*
X4881576Y-12283061D02*
X4881576Y-12302109D01*
X4881576Y-12178299D02*
X4891100Y-12187823D01*
X4891100Y-12187823D02*
X4881576Y-12197347D01*
X4881576Y-12197347D02*
X4872053Y-12187823D01*
X4872053Y-12187823D02*
X4881576Y-12178299D01*
X4881576Y-12178299D02*
X4881576Y-12197347D01*
D12*
X3209371Y-12610625D02*
X3249371Y-12650625D01*
X3249371Y-12610625D02*
X3209371Y-12650625D01*
D11*
X3548243Y-12522109D02*
X3567291Y-12522109D01*
X3567291Y-12522109D02*
X3586338Y-12531633D01*
X3586338Y-12531633D02*
X3595862Y-12541156D01*
X3595862Y-12541156D02*
X3605386Y-12560204D01*
X3605386Y-12560204D02*
X3614910Y-12598299D01*
X3614910Y-12598299D02*
X3614910Y-12645918D01*
X3614910Y-12645918D02*
X3605386Y-12684013D01*
X3605386Y-12684013D02*
X3595862Y-12703061D01*
X3595862Y-12703061D02*
X3586338Y-12712585D01*
X3586338Y-12712585D02*
X3567291Y-12722109D01*
X3567291Y-12722109D02*
X3548243Y-12722109D01*
X3548243Y-12722109D02*
X3529195Y-12712585D01*
X3529195Y-12712585D02*
X3519672Y-12703061D01*
X3519672Y-12703061D02*
X3510148Y-12684013D01*
X3510148Y-12684013D02*
X3500624Y-12645918D01*
X3500624Y-12645918D02*
X3500624Y-12598299D01*
X3500624Y-12598299D02*
X3510148Y-12560204D01*
X3510148Y-12560204D02*
X3519672Y-12541156D01*
X3519672Y-12541156D02*
X3529195Y-12531633D01*
X3529195Y-12531633D02*
X3548243Y-12522109D01*
X3700624Y-12703061D02*
X3710148Y-12712585D01*
X3710148Y-12712585D02*
X3700624Y-12722109D01*
X3700624Y-12722109D02*
X3691100Y-12712585D01*
X3691100Y-12712585D02*
X3700624Y-12703061D01*
X3700624Y-12703061D02*
X3700624Y-12722109D01*
X3881576Y-12588775D02*
X3881576Y-12722109D01*
X3833957Y-12512585D02*
X3786338Y-12655442D01*
X3786338Y-12655442D02*
X3910148Y-12655442D01*
X4024433Y-12522109D02*
X4043481Y-12522109D01*
X4043481Y-12522109D02*
X4062529Y-12531633D01*
X4062529Y-12531633D02*
X4072053Y-12541156D01*
X4072053Y-12541156D02*
X4081576Y-12560204D01*
X4081576Y-12560204D02*
X4091100Y-12598299D01*
X4091100Y-12598299D02*
X4091100Y-12645918D01*
X4091100Y-12645918D02*
X4081576Y-12684013D01*
X4081576Y-12684013D02*
X4072053Y-12703061D01*
X4072053Y-12703061D02*
X4062529Y-12712585D01*
X4062529Y-12712585D02*
X4043481Y-12722109D01*
X4043481Y-12722109D02*
X4024433Y-12722109D01*
X4024433Y-12722109D02*
X4005386Y-12712585D01*
X4005386Y-12712585D02*
X3995862Y-12703061D01*
X3995862Y-12703061D02*
X3986338Y-12684013D01*
X3986338Y-12684013D02*
X3976814Y-12645918D01*
X3976814Y-12645918D02*
X3976814Y-12598299D01*
X3976814Y-12598299D02*
X3986338Y-12560204D01*
X3986338Y-12560204D02*
X3995862Y-12541156D01*
X3995862Y-12541156D02*
X4005386Y-12531633D01*
X4005386Y-12531633D02*
X4024433Y-12522109D01*
X4214910Y-12522109D02*
X4233957Y-12522109D01*
X4233957Y-12522109D02*
X4253005Y-12531633D01*
X4253005Y-12531633D02*
X4262529Y-12541156D01*
X4262529Y-12541156D02*
X4272053Y-12560204D01*
X4272053Y-12560204D02*
X4281576Y-12598299D01*
X4281576Y-12598299D02*
X4281576Y-12645918D01*
X4281576Y-12645918D02*
X4272053Y-12684013D01*
X4272053Y-12684013D02*
X4262529Y-12703061D01*
X4262529Y-12703061D02*
X4253005Y-12712585D01*
X4253005Y-12712585D02*
X4233957Y-12722109D01*
X4233957Y-12722109D02*
X4214910Y-12722109D01*
X4214910Y-12722109D02*
X4195862Y-12712585D01*
X4195862Y-12712585D02*
X4186338Y-12703061D01*
X4186338Y-12703061D02*
X4176814Y-12684013D01*
X4176814Y-12684013D02*
X4167291Y-12645918D01*
X4167291Y-12645918D02*
X4167291Y-12598299D01*
X4167291Y-12598299D02*
X4176814Y-12560204D01*
X4176814Y-12560204D02*
X4186338Y-12541156D01*
X4186338Y-12541156D02*
X4195862Y-12531633D01*
X4195862Y-12531633D02*
X4214910Y-12522109D01*
X4367291Y-12722109D02*
X4367291Y-12588775D01*
X4367291Y-12607823D02*
X4376815Y-12598299D01*
X4376815Y-12598299D02*
X4395862Y-12588775D01*
X4395862Y-12588775D02*
X4424434Y-12588775D01*
X4424434Y-12588775D02*
X4443481Y-12598299D01*
X4443481Y-12598299D02*
X4453005Y-12617347D01*
X4453005Y-12617347D02*
X4453005Y-12722109D01*
X4453005Y-12617347D02*
X4462529Y-12598299D01*
X4462529Y-12598299D02*
X4481576Y-12588775D01*
X4481576Y-12588775D02*
X4510148Y-12588775D01*
X4510148Y-12588775D02*
X4529196Y-12598299D01*
X4529196Y-12598299D02*
X4538719Y-12617347D01*
X4538719Y-12617347D02*
X4538719Y-12722109D01*
X4633957Y-12722109D02*
X4633957Y-12588775D01*
X4633957Y-12607823D02*
X4643481Y-12598299D01*
X4643481Y-12598299D02*
X4662529Y-12588775D01*
X4662529Y-12588775D02*
X4691100Y-12588775D01*
X4691100Y-12588775D02*
X4710148Y-12598299D01*
X4710148Y-12598299D02*
X4719672Y-12617347D01*
X4719672Y-12617347D02*
X4719672Y-12722109D01*
X4719672Y-12617347D02*
X4729196Y-12598299D01*
X4729196Y-12598299D02*
X4748243Y-12588775D01*
X4748243Y-12588775D02*
X4776815Y-12588775D01*
X4776815Y-12588775D02*
X4795862Y-12598299D01*
X4795862Y-12598299D02*
X4805386Y-12617347D01*
X4805386Y-12617347D02*
X4805386Y-12722109D01*
X5195862Y-12512585D02*
X5024434Y-12769728D01*
X5453005Y-12522109D02*
X5472053Y-12522109D01*
X5472053Y-12522109D02*
X5491100Y-12531633D01*
X5491100Y-12531633D02*
X5500624Y-12541156D01*
X5500624Y-12541156D02*
X5510148Y-12560204D01*
X5510148Y-12560204D02*
X5519672Y-12598299D01*
X5519672Y-12598299D02*
X5519672Y-12645918D01*
X5519672Y-12645918D02*
X5510148Y-12684013D01*
X5510148Y-12684013D02*
X5500624Y-12703061D01*
X5500624Y-12703061D02*
X5491100Y-12712585D01*
X5491100Y-12712585D02*
X5472053Y-12722109D01*
X5472053Y-12722109D02*
X5453005Y-12722109D01*
X5453005Y-12722109D02*
X5433958Y-12712585D01*
X5433958Y-12712585D02*
X5424434Y-12703061D01*
X5424434Y-12703061D02*
X5414910Y-12684013D01*
X5414910Y-12684013D02*
X5405386Y-12645918D01*
X5405386Y-12645918D02*
X5405386Y-12598299D01*
X5405386Y-12598299D02*
X5414910Y-12560204D01*
X5414910Y-12560204D02*
X5424434Y-12541156D01*
X5424434Y-12541156D02*
X5433958Y-12531633D01*
X5433958Y-12531633D02*
X5453005Y-12522109D01*
X5605386Y-12703061D02*
X5614910Y-12712585D01*
X5614910Y-12712585D02*
X5605386Y-12722109D01*
X5605386Y-12722109D02*
X5595862Y-12712585D01*
X5595862Y-12712585D02*
X5605386Y-12703061D01*
X5605386Y-12703061D02*
X5605386Y-12722109D01*
X5738719Y-12522109D02*
X5757767Y-12522109D01*
X5757767Y-12522109D02*
X5776815Y-12531633D01*
X5776815Y-12531633D02*
X5786338Y-12541156D01*
X5786338Y-12541156D02*
X5795862Y-12560204D01*
X5795862Y-12560204D02*
X5805386Y-12598299D01*
X5805386Y-12598299D02*
X5805386Y-12645918D01*
X5805386Y-12645918D02*
X5795862Y-12684013D01*
X5795862Y-12684013D02*
X5786338Y-12703061D01*
X5786338Y-12703061D02*
X5776815Y-12712585D01*
X5776815Y-12712585D02*
X5757767Y-12722109D01*
X5757767Y-12722109D02*
X5738719Y-12722109D01*
X5738719Y-12722109D02*
X5719672Y-12712585D01*
X5719672Y-12712585D02*
X5710148Y-12703061D01*
X5710148Y-12703061D02*
X5700624Y-12684013D01*
X5700624Y-12684013D02*
X5691100Y-12645918D01*
X5691100Y-12645918D02*
X5691100Y-12598299D01*
X5691100Y-12598299D02*
X5700624Y-12560204D01*
X5700624Y-12560204D02*
X5710148Y-12541156D01*
X5710148Y-12541156D02*
X5719672Y-12531633D01*
X5719672Y-12531633D02*
X5738719Y-12522109D01*
X5995862Y-12722109D02*
X5881577Y-12722109D01*
X5938719Y-12722109D02*
X5938719Y-12522109D01*
X5938719Y-12522109D02*
X5919672Y-12550680D01*
X5919672Y-12550680D02*
X5900624Y-12569728D01*
X5900624Y-12569728D02*
X5881577Y-12579252D01*
X6176815Y-12522109D02*
X6081577Y-12522109D01*
X6081577Y-12522109D02*
X6072053Y-12617347D01*
X6072053Y-12617347D02*
X6081577Y-12607823D01*
X6081577Y-12607823D02*
X6100624Y-12598299D01*
X6100624Y-12598299D02*
X6148243Y-12598299D01*
X6148243Y-12598299D02*
X6167291Y-12607823D01*
X6167291Y-12607823D02*
X6176815Y-12617347D01*
X6176815Y-12617347D02*
X6186338Y-12636394D01*
X6186338Y-12636394D02*
X6186338Y-12684013D01*
X6186338Y-12684013D02*
X6176815Y-12703061D01*
X6176815Y-12703061D02*
X6167291Y-12712585D01*
X6167291Y-12712585D02*
X6148243Y-12722109D01*
X6148243Y-12722109D02*
X6100624Y-12722109D01*
X6100624Y-12722109D02*
X6081577Y-12712585D01*
X6081577Y-12712585D02*
X6072053Y-12703061D01*
X6253005Y-12522109D02*
X6386338Y-12522109D01*
X6386338Y-12522109D02*
X6300624Y-12722109D01*
X6453005Y-12522109D02*
X6453005Y-12560204D01*
X6529196Y-12522109D02*
X6529196Y-12560204D01*
X6824434Y-12798299D02*
X6814910Y-12788775D01*
X6814910Y-12788775D02*
X6795862Y-12760204D01*
X6795862Y-12760204D02*
X6786339Y-12741156D01*
X6786339Y-12741156D02*
X6776815Y-12712585D01*
X6776815Y-12712585D02*
X6767291Y-12664966D01*
X6767291Y-12664966D02*
X6767291Y-12626871D01*
X6767291Y-12626871D02*
X6776815Y-12579252D01*
X6776815Y-12579252D02*
X6786339Y-12550680D01*
X6786339Y-12550680D02*
X6795862Y-12531633D01*
X6795862Y-12531633D02*
X6814910Y-12503061D01*
X6814910Y-12503061D02*
X6824434Y-12493537D01*
X7005386Y-12722109D02*
X6891100Y-12722109D01*
X6948243Y-12722109D02*
X6948243Y-12522109D01*
X6948243Y-12522109D02*
X6929196Y-12550680D01*
X6929196Y-12550680D02*
X6910148Y-12569728D01*
X6910148Y-12569728D02*
X6891100Y-12579252D01*
X7243481Y-12722109D02*
X7243481Y-12522109D01*
X7329196Y-12722109D02*
X7329196Y-12617347D01*
X7329196Y-12617347D02*
X7319672Y-12598299D01*
X7319672Y-12598299D02*
X7300624Y-12588775D01*
X7300624Y-12588775D02*
X7272053Y-12588775D01*
X7272053Y-12588775D02*
X7253005Y-12598299D01*
X7253005Y-12598299D02*
X7243481Y-12607823D01*
X7453005Y-12722109D02*
X7433958Y-12712585D01*
X7433958Y-12712585D02*
X7424434Y-12703061D01*
X7424434Y-12703061D02*
X7414910Y-12684013D01*
X7414910Y-12684013D02*
X7414910Y-12626871D01*
X7414910Y-12626871D02*
X7424434Y-12607823D01*
X7424434Y-12607823D02*
X7433958Y-12598299D01*
X7433958Y-12598299D02*
X7453005Y-12588775D01*
X7453005Y-12588775D02*
X7481577Y-12588775D01*
X7481577Y-12588775D02*
X7500624Y-12598299D01*
X7500624Y-12598299D02*
X7510148Y-12607823D01*
X7510148Y-12607823D02*
X7519672Y-12626871D01*
X7519672Y-12626871D02*
X7519672Y-12684013D01*
X7519672Y-12684013D02*
X7510148Y-12703061D01*
X7510148Y-12703061D02*
X7500624Y-12712585D01*
X7500624Y-12712585D02*
X7481577Y-12722109D01*
X7481577Y-12722109D02*
X7453005Y-12722109D01*
X7633958Y-12722109D02*
X7614910Y-12712585D01*
X7614910Y-12712585D02*
X7605386Y-12693537D01*
X7605386Y-12693537D02*
X7605386Y-12522109D01*
X7786339Y-12712585D02*
X7767291Y-12722109D01*
X7767291Y-12722109D02*
X7729196Y-12722109D01*
X7729196Y-12722109D02*
X7710148Y-12712585D01*
X7710148Y-12712585D02*
X7700624Y-12693537D01*
X7700624Y-12693537D02*
X7700624Y-12617347D01*
X7700624Y-12617347D02*
X7710148Y-12598299D01*
X7710148Y-12598299D02*
X7729196Y-12588775D01*
X7729196Y-12588775D02*
X7767291Y-12588775D01*
X7767291Y-12588775D02*
X7786339Y-12598299D01*
X7786339Y-12598299D02*
X7795862Y-12617347D01*
X7795862Y-12617347D02*
X7795862Y-12636394D01*
X7795862Y-12636394D02*
X7700624Y-12655442D01*
X7862529Y-12798299D02*
X7872053Y-12788775D01*
X7872053Y-12788775D02*
X7891101Y-12760204D01*
X7891101Y-12760204D02*
X7900624Y-12741156D01*
X7900624Y-12741156D02*
X7910148Y-12712585D01*
X7910148Y-12712585D02*
X7919672Y-12664966D01*
X7919672Y-12664966D02*
X7919672Y-12626871D01*
X7919672Y-12626871D02*
X7910148Y-12579252D01*
X7910148Y-12579252D02*
X7900624Y-12550680D01*
X7900624Y-12550680D02*
X7891101Y-12531633D01*
X7891101Y-12531633D02*
X7872053Y-12503061D01*
X7872053Y-12503061D02*
X7862529Y-12493537D01*
D13*
X3249371Y-12894625D02*
G75*
G03*
X3249371Y-12894625I-40000J0D01*
G01*
D11*
X3548243Y-12786109D02*
X3567291Y-12786109D01*
X3567291Y-12786109D02*
X3586338Y-12795633D01*
X3586338Y-12795633D02*
X3595862Y-12805156D01*
X3595862Y-12805156D02*
X3605386Y-12824204D01*
X3605386Y-12824204D02*
X3614910Y-12862299D01*
X3614910Y-12862299D02*
X3614910Y-12909918D01*
X3614910Y-12909918D02*
X3605386Y-12948013D01*
X3605386Y-12948013D02*
X3595862Y-12967061D01*
X3595862Y-12967061D02*
X3586338Y-12976585D01*
X3586338Y-12976585D02*
X3567291Y-12986109D01*
X3567291Y-12986109D02*
X3548243Y-12986109D01*
X3548243Y-12986109D02*
X3529195Y-12976585D01*
X3529195Y-12976585D02*
X3519672Y-12967061D01*
X3519672Y-12967061D02*
X3510148Y-12948013D01*
X3510148Y-12948013D02*
X3500624Y-12909918D01*
X3500624Y-12909918D02*
X3500624Y-12862299D01*
X3500624Y-12862299D02*
X3510148Y-12824204D01*
X3510148Y-12824204D02*
X3519672Y-12805156D01*
X3519672Y-12805156D02*
X3529195Y-12795633D01*
X3529195Y-12795633D02*
X3548243Y-12786109D01*
X3700624Y-12967061D02*
X3710148Y-12976585D01*
X3710148Y-12976585D02*
X3700624Y-12986109D01*
X3700624Y-12986109D02*
X3691100Y-12976585D01*
X3691100Y-12976585D02*
X3700624Y-12967061D01*
X3700624Y-12967061D02*
X3700624Y-12986109D01*
X3824433Y-12871823D02*
X3805386Y-12862299D01*
X3805386Y-12862299D02*
X3795862Y-12852775D01*
X3795862Y-12852775D02*
X3786338Y-12833728D01*
X3786338Y-12833728D02*
X3786338Y-12824204D01*
X3786338Y-12824204D02*
X3795862Y-12805156D01*
X3795862Y-12805156D02*
X3805386Y-12795633D01*
X3805386Y-12795633D02*
X3824433Y-12786109D01*
X3824433Y-12786109D02*
X3862529Y-12786109D01*
X3862529Y-12786109D02*
X3881576Y-12795633D01*
X3881576Y-12795633D02*
X3891100Y-12805156D01*
X3891100Y-12805156D02*
X3900624Y-12824204D01*
X3900624Y-12824204D02*
X3900624Y-12833728D01*
X3900624Y-12833728D02*
X3891100Y-12852775D01*
X3891100Y-12852775D02*
X3881576Y-12862299D01*
X3881576Y-12862299D02*
X3862529Y-12871823D01*
X3862529Y-12871823D02*
X3824433Y-12871823D01*
X3824433Y-12871823D02*
X3805386Y-12881347D01*
X3805386Y-12881347D02*
X3795862Y-12890871D01*
X3795862Y-12890871D02*
X3786338Y-12909918D01*
X3786338Y-12909918D02*
X3786338Y-12948013D01*
X3786338Y-12948013D02*
X3795862Y-12967061D01*
X3795862Y-12967061D02*
X3805386Y-12976585D01*
X3805386Y-12976585D02*
X3824433Y-12986109D01*
X3824433Y-12986109D02*
X3862529Y-12986109D01*
X3862529Y-12986109D02*
X3881576Y-12976585D01*
X3881576Y-12976585D02*
X3891100Y-12967061D01*
X3891100Y-12967061D02*
X3900624Y-12948013D01*
X3900624Y-12948013D02*
X3900624Y-12909918D01*
X3900624Y-12909918D02*
X3891100Y-12890871D01*
X3891100Y-12890871D02*
X3881576Y-12881347D01*
X3881576Y-12881347D02*
X3862529Y-12871823D01*
X4024433Y-12786109D02*
X4043481Y-12786109D01*
X4043481Y-12786109D02*
X4062529Y-12795633D01*
X4062529Y-12795633D02*
X4072053Y-12805156D01*
X4072053Y-12805156D02*
X4081576Y-12824204D01*
X4081576Y-12824204D02*
X4091100Y-12862299D01*
X4091100Y-12862299D02*
X4091100Y-12909918D01*
X4091100Y-12909918D02*
X4081576Y-12948013D01*
X4081576Y-12948013D02*
X4072053Y-12967061D01*
X4072053Y-12967061D02*
X4062529Y-12976585D01*
X4062529Y-12976585D02*
X4043481Y-12986109D01*
X4043481Y-12986109D02*
X4024433Y-12986109D01*
X4024433Y-12986109D02*
X4005386Y-12976585D01*
X4005386Y-12976585D02*
X3995862Y-12967061D01*
X3995862Y-12967061D02*
X3986338Y-12948013D01*
X3986338Y-12948013D02*
X3976814Y-12909918D01*
X3976814Y-12909918D02*
X3976814Y-12862299D01*
X3976814Y-12862299D02*
X3986338Y-12824204D01*
X3986338Y-12824204D02*
X3995862Y-12805156D01*
X3995862Y-12805156D02*
X4005386Y-12795633D01*
X4005386Y-12795633D02*
X4024433Y-12786109D01*
X4214910Y-12786109D02*
X4233957Y-12786109D01*
X4233957Y-12786109D02*
X4253005Y-12795633D01*
X4253005Y-12795633D02*
X4262529Y-12805156D01*
X4262529Y-12805156D02*
X4272053Y-12824204D01*
X4272053Y-12824204D02*
X4281576Y-12862299D01*
X4281576Y-12862299D02*
X4281576Y-12909918D01*
X4281576Y-12909918D02*
X4272053Y-12948013D01*
X4272053Y-12948013D02*
X4262529Y-12967061D01*
X4262529Y-12967061D02*
X4253005Y-12976585D01*
X4253005Y-12976585D02*
X4233957Y-12986109D01*
X4233957Y-12986109D02*
X4214910Y-12986109D01*
X4214910Y-12986109D02*
X4195862Y-12976585D01*
X4195862Y-12976585D02*
X4186338Y-12967061D01*
X4186338Y-12967061D02*
X4176814Y-12948013D01*
X4176814Y-12948013D02*
X4167291Y-12909918D01*
X4167291Y-12909918D02*
X4167291Y-12862299D01*
X4167291Y-12862299D02*
X4176814Y-12824204D01*
X4176814Y-12824204D02*
X4186338Y-12805156D01*
X4186338Y-12805156D02*
X4195862Y-12795633D01*
X4195862Y-12795633D02*
X4214910Y-12786109D01*
X4367291Y-12986109D02*
X4367291Y-12852775D01*
X4367291Y-12871823D02*
X4376815Y-12862299D01*
X4376815Y-12862299D02*
X4395862Y-12852775D01*
X4395862Y-12852775D02*
X4424434Y-12852775D01*
X4424434Y-12852775D02*
X4443481Y-12862299D01*
X4443481Y-12862299D02*
X4453005Y-12881347D01*
X4453005Y-12881347D02*
X4453005Y-12986109D01*
X4453005Y-12881347D02*
X4462529Y-12862299D01*
X4462529Y-12862299D02*
X4481576Y-12852775D01*
X4481576Y-12852775D02*
X4510148Y-12852775D01*
X4510148Y-12852775D02*
X4529196Y-12862299D01*
X4529196Y-12862299D02*
X4538719Y-12881347D01*
X4538719Y-12881347D02*
X4538719Y-12986109D01*
X4633957Y-12986109D02*
X4633957Y-12852775D01*
X4633957Y-12871823D02*
X4643481Y-12862299D01*
X4643481Y-12862299D02*
X4662529Y-12852775D01*
X4662529Y-12852775D02*
X4691100Y-12852775D01*
X4691100Y-12852775D02*
X4710148Y-12862299D01*
X4710148Y-12862299D02*
X4719672Y-12881347D01*
X4719672Y-12881347D02*
X4719672Y-12986109D01*
X4719672Y-12881347D02*
X4729196Y-12862299D01*
X4729196Y-12862299D02*
X4748243Y-12852775D01*
X4748243Y-12852775D02*
X4776815Y-12852775D01*
X4776815Y-12852775D02*
X4795862Y-12862299D01*
X4795862Y-12862299D02*
X4805386Y-12881347D01*
X4805386Y-12881347D02*
X4805386Y-12986109D01*
X5195862Y-12776585D02*
X5024434Y-13033728D01*
X5453005Y-12786109D02*
X5472053Y-12786109D01*
X5472053Y-12786109D02*
X5491100Y-12795633D01*
X5491100Y-12795633D02*
X5500624Y-12805156D01*
X5500624Y-12805156D02*
X5510148Y-12824204D01*
X5510148Y-12824204D02*
X5519672Y-12862299D01*
X5519672Y-12862299D02*
X5519672Y-12909918D01*
X5519672Y-12909918D02*
X5510148Y-12948013D01*
X5510148Y-12948013D02*
X5500624Y-12967061D01*
X5500624Y-12967061D02*
X5491100Y-12976585D01*
X5491100Y-12976585D02*
X5472053Y-12986109D01*
X5472053Y-12986109D02*
X5453005Y-12986109D01*
X5453005Y-12986109D02*
X5433958Y-12976585D01*
X5433958Y-12976585D02*
X5424434Y-12967061D01*
X5424434Y-12967061D02*
X5414910Y-12948013D01*
X5414910Y-12948013D02*
X5405386Y-12909918D01*
X5405386Y-12909918D02*
X5405386Y-12862299D01*
X5405386Y-12862299D02*
X5414910Y-12824204D01*
X5414910Y-12824204D02*
X5424434Y-12805156D01*
X5424434Y-12805156D02*
X5433958Y-12795633D01*
X5433958Y-12795633D02*
X5453005Y-12786109D01*
X5605386Y-12967061D02*
X5614910Y-12976585D01*
X5614910Y-12976585D02*
X5605386Y-12986109D01*
X5605386Y-12986109D02*
X5595862Y-12976585D01*
X5595862Y-12976585D02*
X5605386Y-12967061D01*
X5605386Y-12967061D02*
X5605386Y-12986109D01*
X5738719Y-12786109D02*
X5757767Y-12786109D01*
X5757767Y-12786109D02*
X5776815Y-12795633D01*
X5776815Y-12795633D02*
X5786338Y-12805156D01*
X5786338Y-12805156D02*
X5795862Y-12824204D01*
X5795862Y-12824204D02*
X5805386Y-12862299D01*
X5805386Y-12862299D02*
X5805386Y-12909918D01*
X5805386Y-12909918D02*
X5795862Y-12948013D01*
X5795862Y-12948013D02*
X5786338Y-12967061D01*
X5786338Y-12967061D02*
X5776815Y-12976585D01*
X5776815Y-12976585D02*
X5757767Y-12986109D01*
X5757767Y-12986109D02*
X5738719Y-12986109D01*
X5738719Y-12986109D02*
X5719672Y-12976585D01*
X5719672Y-12976585D02*
X5710148Y-12967061D01*
X5710148Y-12967061D02*
X5700624Y-12948013D01*
X5700624Y-12948013D02*
X5691100Y-12909918D01*
X5691100Y-12909918D02*
X5691100Y-12862299D01*
X5691100Y-12862299D02*
X5700624Y-12824204D01*
X5700624Y-12824204D02*
X5710148Y-12805156D01*
X5710148Y-12805156D02*
X5719672Y-12795633D01*
X5719672Y-12795633D02*
X5738719Y-12786109D01*
X5872053Y-12786109D02*
X5995862Y-12786109D01*
X5995862Y-12786109D02*
X5929196Y-12862299D01*
X5929196Y-12862299D02*
X5957767Y-12862299D01*
X5957767Y-12862299D02*
X5976815Y-12871823D01*
X5976815Y-12871823D02*
X5986338Y-12881347D01*
X5986338Y-12881347D02*
X5995862Y-12900394D01*
X5995862Y-12900394D02*
X5995862Y-12948013D01*
X5995862Y-12948013D02*
X5986338Y-12967061D01*
X5986338Y-12967061D02*
X5976815Y-12976585D01*
X5976815Y-12976585D02*
X5957767Y-12986109D01*
X5957767Y-12986109D02*
X5900624Y-12986109D01*
X5900624Y-12986109D02*
X5881577Y-12976585D01*
X5881577Y-12976585D02*
X5872053Y-12967061D01*
X6186338Y-12986109D02*
X6072053Y-12986109D01*
X6129196Y-12986109D02*
X6129196Y-12786109D01*
X6129196Y-12786109D02*
X6110148Y-12814680D01*
X6110148Y-12814680D02*
X6091100Y-12833728D01*
X6091100Y-12833728D02*
X6072053Y-12843252D01*
X6367291Y-12786109D02*
X6272053Y-12786109D01*
X6272053Y-12786109D02*
X6262529Y-12881347D01*
X6262529Y-12881347D02*
X6272053Y-12871823D01*
X6272053Y-12871823D02*
X6291100Y-12862299D01*
X6291100Y-12862299D02*
X6338719Y-12862299D01*
X6338719Y-12862299D02*
X6357767Y-12871823D01*
X6357767Y-12871823D02*
X6367291Y-12881347D01*
X6367291Y-12881347D02*
X6376815Y-12900394D01*
X6376815Y-12900394D02*
X6376815Y-12948013D01*
X6376815Y-12948013D02*
X6367291Y-12967061D01*
X6367291Y-12967061D02*
X6357767Y-12976585D01*
X6357767Y-12976585D02*
X6338719Y-12986109D01*
X6338719Y-12986109D02*
X6291100Y-12986109D01*
X6291100Y-12986109D02*
X6272053Y-12976585D01*
X6272053Y-12976585D02*
X6262529Y-12967061D01*
X6453005Y-12786109D02*
X6453005Y-12824204D01*
X6529196Y-12786109D02*
X6529196Y-12824204D01*
X6824434Y-13062299D02*
X6814910Y-13052775D01*
X6814910Y-13052775D02*
X6795862Y-13024204D01*
X6795862Y-13024204D02*
X6786339Y-13005156D01*
X6786339Y-13005156D02*
X6776815Y-12976585D01*
X6776815Y-12976585D02*
X6767291Y-12928966D01*
X6767291Y-12928966D02*
X6767291Y-12890871D01*
X6767291Y-12890871D02*
X6776815Y-12843252D01*
X6776815Y-12843252D02*
X6786339Y-12814680D01*
X6786339Y-12814680D02*
X6795862Y-12795633D01*
X6795862Y-12795633D02*
X6814910Y-12767061D01*
X6814910Y-12767061D02*
X6824434Y-12757537D01*
X7005386Y-12986109D02*
X6891100Y-12986109D01*
X6948243Y-12986109D02*
X6948243Y-12786109D01*
X6948243Y-12786109D02*
X6929196Y-12814680D01*
X6929196Y-12814680D02*
X6910148Y-12833728D01*
X6910148Y-12833728D02*
X6891100Y-12843252D01*
X7081577Y-12805156D02*
X7091100Y-12795633D01*
X7091100Y-12795633D02*
X7110148Y-12786109D01*
X7110148Y-12786109D02*
X7157767Y-12786109D01*
X7157767Y-12786109D02*
X7176815Y-12795633D01*
X7176815Y-12795633D02*
X7186339Y-12805156D01*
X7186339Y-12805156D02*
X7195862Y-12824204D01*
X7195862Y-12824204D02*
X7195862Y-12843252D01*
X7195862Y-12843252D02*
X7186339Y-12871823D01*
X7186339Y-12871823D02*
X7072053Y-12986109D01*
X7072053Y-12986109D02*
X7195862Y-12986109D01*
X7319672Y-12786109D02*
X7338720Y-12786109D01*
X7338720Y-12786109D02*
X7357767Y-12795633D01*
X7357767Y-12795633D02*
X7367291Y-12805156D01*
X7367291Y-12805156D02*
X7376815Y-12824204D01*
X7376815Y-12824204D02*
X7386339Y-12862299D01*
X7386339Y-12862299D02*
X7386339Y-12909918D01*
X7386339Y-12909918D02*
X7376815Y-12948013D01*
X7376815Y-12948013D02*
X7367291Y-12967061D01*
X7367291Y-12967061D02*
X7357767Y-12976585D01*
X7357767Y-12976585D02*
X7338720Y-12986109D01*
X7338720Y-12986109D02*
X7319672Y-12986109D01*
X7319672Y-12986109D02*
X7300624Y-12976585D01*
X7300624Y-12976585D02*
X7291100Y-12967061D01*
X7291100Y-12967061D02*
X7281577Y-12948013D01*
X7281577Y-12948013D02*
X7272053Y-12909918D01*
X7272053Y-12909918D02*
X7272053Y-12862299D01*
X7272053Y-12862299D02*
X7281577Y-12824204D01*
X7281577Y-12824204D02*
X7291100Y-12805156D01*
X7291100Y-12805156D02*
X7300624Y-12795633D01*
X7300624Y-12795633D02*
X7319672Y-12786109D01*
X7624434Y-12986109D02*
X7624434Y-12786109D01*
X7710148Y-12986109D02*
X7710148Y-12881347D01*
X7710148Y-12881347D02*
X7700624Y-12862299D01*
X7700624Y-12862299D02*
X7681577Y-12852775D01*
X7681577Y-12852775D02*
X7653005Y-12852775D01*
X7653005Y-12852775D02*
X7633958Y-12862299D01*
X7633958Y-12862299D02*
X7624434Y-12871823D01*
X7833958Y-12986109D02*
X7814910Y-12976585D01*
X7814910Y-12976585D02*
X7805386Y-12967061D01*
X7805386Y-12967061D02*
X7795862Y-12948013D01*
X7795862Y-12948013D02*
X7795862Y-12890871D01*
X7795862Y-12890871D02*
X7805386Y-12871823D01*
X7805386Y-12871823D02*
X7814910Y-12862299D01*
X7814910Y-12862299D02*
X7833958Y-12852775D01*
X7833958Y-12852775D02*
X7862529Y-12852775D01*
X7862529Y-12852775D02*
X7881577Y-12862299D01*
X7881577Y-12862299D02*
X7891101Y-12871823D01*
X7891101Y-12871823D02*
X7900624Y-12890871D01*
X7900624Y-12890871D02*
X7900624Y-12948013D01*
X7900624Y-12948013D02*
X7891101Y-12967061D01*
X7891101Y-12967061D02*
X7881577Y-12976585D01*
X7881577Y-12976585D02*
X7862529Y-12986109D01*
X7862529Y-12986109D02*
X7833958Y-12986109D01*
X8014910Y-12986109D02*
X7995862Y-12976585D01*
X7995862Y-12976585D02*
X7986339Y-12957537D01*
X7986339Y-12957537D02*
X7986339Y-12786109D01*
X8167291Y-12976585D02*
X8148243Y-12986109D01*
X8148243Y-12986109D02*
X8110148Y-12986109D01*
X8110148Y-12986109D02*
X8091101Y-12976585D01*
X8091101Y-12976585D02*
X8081577Y-12957537D01*
X8081577Y-12957537D02*
X8081577Y-12881347D01*
X8081577Y-12881347D02*
X8091101Y-12862299D01*
X8091101Y-12862299D02*
X8110148Y-12852775D01*
X8110148Y-12852775D02*
X8148243Y-12852775D01*
X8148243Y-12852775D02*
X8167291Y-12862299D01*
X8167291Y-12862299D02*
X8176815Y-12881347D01*
X8176815Y-12881347D02*
X8176815Y-12900394D01*
X8176815Y-12900394D02*
X8081577Y-12919442D01*
X8253005Y-12976585D02*
X8272053Y-12986109D01*
X8272053Y-12986109D02*
X8310148Y-12986109D01*
X8310148Y-12986109D02*
X8329196Y-12976585D01*
X8329196Y-12976585D02*
X8338720Y-12957537D01*
X8338720Y-12957537D02*
X8338720Y-12948013D01*
X8338720Y-12948013D02*
X8329196Y-12928966D01*
X8329196Y-12928966D02*
X8310148Y-12919442D01*
X8310148Y-12919442D02*
X8281577Y-12919442D01*
X8281577Y-12919442D02*
X8262529Y-12909918D01*
X8262529Y-12909918D02*
X8253005Y-12890871D01*
X8253005Y-12890871D02*
X8253005Y-12881347D01*
X8253005Y-12881347D02*
X8262529Y-12862299D01*
X8262529Y-12862299D02*
X8281577Y-12852775D01*
X8281577Y-12852775D02*
X8310148Y-12852775D01*
X8310148Y-12852775D02*
X8329196Y-12862299D01*
X8405386Y-13062299D02*
X8414910Y-13052775D01*
X8414910Y-13052775D02*
X8433958Y-13024204D01*
X8433958Y-13024204D02*
X8443482Y-13005156D01*
X8443482Y-13005156D02*
X8453005Y-12976585D01*
X8453005Y-12976585D02*
X8462529Y-12928966D01*
X8462529Y-12928966D02*
X8462529Y-12890871D01*
X8462529Y-12890871D02*
X8453005Y-12843252D01*
X8453005Y-12843252D02*
X8443482Y-12814680D01*
X8443482Y-12814680D02*
X8433958Y-12795633D01*
X8433958Y-12795633D02*
X8414910Y-12767061D01*
X8414910Y-12767061D02*
X8405386Y-12757537D01*
D10*
X3199371Y-13108625D02*
X3199371Y-13208625D01*
X3149371Y-13158625D02*
X3249371Y-13158625D01*
D11*
X3614910Y-13250109D02*
X3500624Y-13250109D01*
X3557767Y-13250109D02*
X3557767Y-13050109D01*
X3557767Y-13050109D02*
X3538719Y-13078680D01*
X3538719Y-13078680D02*
X3519672Y-13097728D01*
X3519672Y-13097728D02*
X3500624Y-13107252D01*
X3700624Y-13231061D02*
X3710148Y-13240585D01*
X3710148Y-13240585D02*
X3700624Y-13250109D01*
X3700624Y-13250109D02*
X3691100Y-13240585D01*
X3691100Y-13240585D02*
X3700624Y-13231061D01*
X3700624Y-13231061D02*
X3700624Y-13250109D01*
X3833957Y-13050109D02*
X3853005Y-13050109D01*
X3853005Y-13050109D02*
X3872053Y-13059633D01*
X3872053Y-13059633D02*
X3881576Y-13069156D01*
X3881576Y-13069156D02*
X3891100Y-13088204D01*
X3891100Y-13088204D02*
X3900624Y-13126299D01*
X3900624Y-13126299D02*
X3900624Y-13173918D01*
X3900624Y-13173918D02*
X3891100Y-13212013D01*
X3891100Y-13212013D02*
X3881576Y-13231061D01*
X3881576Y-13231061D02*
X3872053Y-13240585D01*
X3872053Y-13240585D02*
X3853005Y-13250109D01*
X3853005Y-13250109D02*
X3833957Y-13250109D01*
X3833957Y-13250109D02*
X3814910Y-13240585D01*
X3814910Y-13240585D02*
X3805386Y-13231061D01*
X3805386Y-13231061D02*
X3795862Y-13212013D01*
X3795862Y-13212013D02*
X3786338Y-13173918D01*
X3786338Y-13173918D02*
X3786338Y-13126299D01*
X3786338Y-13126299D02*
X3795862Y-13088204D01*
X3795862Y-13088204D02*
X3805386Y-13069156D01*
X3805386Y-13069156D02*
X3814910Y-13059633D01*
X3814910Y-13059633D02*
X3833957Y-13050109D01*
X4024433Y-13050109D02*
X4043481Y-13050109D01*
X4043481Y-13050109D02*
X4062529Y-13059633D01*
X4062529Y-13059633D02*
X4072053Y-13069156D01*
X4072053Y-13069156D02*
X4081576Y-13088204D01*
X4081576Y-13088204D02*
X4091100Y-13126299D01*
X4091100Y-13126299D02*
X4091100Y-13173918D01*
X4091100Y-13173918D02*
X4081576Y-13212013D01*
X4081576Y-13212013D02*
X4072053Y-13231061D01*
X4072053Y-13231061D02*
X4062529Y-13240585D01*
X4062529Y-13240585D02*
X4043481Y-13250109D01*
X4043481Y-13250109D02*
X4024433Y-13250109D01*
X4024433Y-13250109D02*
X4005386Y-13240585D01*
X4005386Y-13240585D02*
X3995862Y-13231061D01*
X3995862Y-13231061D02*
X3986338Y-13212013D01*
X3986338Y-13212013D02*
X3976814Y-13173918D01*
X3976814Y-13173918D02*
X3976814Y-13126299D01*
X3976814Y-13126299D02*
X3986338Y-13088204D01*
X3986338Y-13088204D02*
X3995862Y-13069156D01*
X3995862Y-13069156D02*
X4005386Y-13059633D01*
X4005386Y-13059633D02*
X4024433Y-13050109D01*
X4214910Y-13050109D02*
X4233957Y-13050109D01*
X4233957Y-13050109D02*
X4253005Y-13059633D01*
X4253005Y-13059633D02*
X4262529Y-13069156D01*
X4262529Y-13069156D02*
X4272053Y-13088204D01*
X4272053Y-13088204D02*
X4281576Y-13126299D01*
X4281576Y-13126299D02*
X4281576Y-13173918D01*
X4281576Y-13173918D02*
X4272053Y-13212013D01*
X4272053Y-13212013D02*
X4262529Y-13231061D01*
X4262529Y-13231061D02*
X4253005Y-13240585D01*
X4253005Y-13240585D02*
X4233957Y-13250109D01*
X4233957Y-13250109D02*
X4214910Y-13250109D01*
X4214910Y-13250109D02*
X4195862Y-13240585D01*
X4195862Y-13240585D02*
X4186338Y-13231061D01*
X4186338Y-13231061D02*
X4176814Y-13212013D01*
X4176814Y-13212013D02*
X4167291Y-13173918D01*
X4167291Y-13173918D02*
X4167291Y-13126299D01*
X4167291Y-13126299D02*
X4176814Y-13088204D01*
X4176814Y-13088204D02*
X4186338Y-13069156D01*
X4186338Y-13069156D02*
X4195862Y-13059633D01*
X4195862Y-13059633D02*
X4214910Y-13050109D01*
X4367291Y-13250109D02*
X4367291Y-13116775D01*
X4367291Y-13135823D02*
X4376815Y-13126299D01*
X4376815Y-13126299D02*
X4395862Y-13116775D01*
X4395862Y-13116775D02*
X4424434Y-13116775D01*
X4424434Y-13116775D02*
X4443481Y-13126299D01*
X4443481Y-13126299D02*
X4453005Y-13145347D01*
X4453005Y-13145347D02*
X4453005Y-13250109D01*
X4453005Y-13145347D02*
X4462529Y-13126299D01*
X4462529Y-13126299D02*
X4481576Y-13116775D01*
X4481576Y-13116775D02*
X4510148Y-13116775D01*
X4510148Y-13116775D02*
X4529196Y-13126299D01*
X4529196Y-13126299D02*
X4538719Y-13145347D01*
X4538719Y-13145347D02*
X4538719Y-13250109D01*
X4633957Y-13250109D02*
X4633957Y-13116775D01*
X4633957Y-13135823D02*
X4643481Y-13126299D01*
X4643481Y-13126299D02*
X4662529Y-13116775D01*
X4662529Y-13116775D02*
X4691100Y-13116775D01*
X4691100Y-13116775D02*
X4710148Y-13126299D01*
X4710148Y-13126299D02*
X4719672Y-13145347D01*
X4719672Y-13145347D02*
X4719672Y-13250109D01*
X4719672Y-13145347D02*
X4729196Y-13126299D01*
X4729196Y-13126299D02*
X4748243Y-13116775D01*
X4748243Y-13116775D02*
X4776815Y-13116775D01*
X4776815Y-13116775D02*
X4795862Y-13126299D01*
X4795862Y-13126299D02*
X4805386Y-13145347D01*
X4805386Y-13145347D02*
X4805386Y-13250109D01*
X5195862Y-13040585D02*
X5024434Y-13297728D01*
X5453005Y-13050109D02*
X5472053Y-13050109D01*
X5472053Y-13050109D02*
X5491100Y-13059633D01*
X5491100Y-13059633D02*
X5500624Y-13069156D01*
X5500624Y-13069156D02*
X5510148Y-13088204D01*
X5510148Y-13088204D02*
X5519672Y-13126299D01*
X5519672Y-13126299D02*
X5519672Y-13173918D01*
X5519672Y-13173918D02*
X5510148Y-13212013D01*
X5510148Y-13212013D02*
X5500624Y-13231061D01*
X5500624Y-13231061D02*
X5491100Y-13240585D01*
X5491100Y-13240585D02*
X5472053Y-13250109D01*
X5472053Y-13250109D02*
X5453005Y-13250109D01*
X5453005Y-13250109D02*
X5433958Y-13240585D01*
X5433958Y-13240585D02*
X5424434Y-13231061D01*
X5424434Y-13231061D02*
X5414910Y-13212013D01*
X5414910Y-13212013D02*
X5405386Y-13173918D01*
X5405386Y-13173918D02*
X5405386Y-13126299D01*
X5405386Y-13126299D02*
X5414910Y-13088204D01*
X5414910Y-13088204D02*
X5424434Y-13069156D01*
X5424434Y-13069156D02*
X5433958Y-13059633D01*
X5433958Y-13059633D02*
X5453005Y-13050109D01*
X5605386Y-13231061D02*
X5614910Y-13240585D01*
X5614910Y-13240585D02*
X5605386Y-13250109D01*
X5605386Y-13250109D02*
X5595862Y-13240585D01*
X5595862Y-13240585D02*
X5605386Y-13231061D01*
X5605386Y-13231061D02*
X5605386Y-13250109D01*
X5738719Y-13050109D02*
X5757767Y-13050109D01*
X5757767Y-13050109D02*
X5776815Y-13059633D01*
X5776815Y-13059633D02*
X5786338Y-13069156D01*
X5786338Y-13069156D02*
X5795862Y-13088204D01*
X5795862Y-13088204D02*
X5805386Y-13126299D01*
X5805386Y-13126299D02*
X5805386Y-13173918D01*
X5805386Y-13173918D02*
X5795862Y-13212013D01*
X5795862Y-13212013D02*
X5786338Y-13231061D01*
X5786338Y-13231061D02*
X5776815Y-13240585D01*
X5776815Y-13240585D02*
X5757767Y-13250109D01*
X5757767Y-13250109D02*
X5738719Y-13250109D01*
X5738719Y-13250109D02*
X5719672Y-13240585D01*
X5719672Y-13240585D02*
X5710148Y-13231061D01*
X5710148Y-13231061D02*
X5700624Y-13212013D01*
X5700624Y-13212013D02*
X5691100Y-13173918D01*
X5691100Y-13173918D02*
X5691100Y-13126299D01*
X5691100Y-13126299D02*
X5700624Y-13088204D01*
X5700624Y-13088204D02*
X5710148Y-13069156D01*
X5710148Y-13069156D02*
X5719672Y-13059633D01*
X5719672Y-13059633D02*
X5738719Y-13050109D01*
X5872053Y-13050109D02*
X5995862Y-13050109D01*
X5995862Y-13050109D02*
X5929196Y-13126299D01*
X5929196Y-13126299D02*
X5957767Y-13126299D01*
X5957767Y-13126299D02*
X5976815Y-13135823D01*
X5976815Y-13135823D02*
X5986338Y-13145347D01*
X5986338Y-13145347D02*
X5995862Y-13164394D01*
X5995862Y-13164394D02*
X5995862Y-13212013D01*
X5995862Y-13212013D02*
X5986338Y-13231061D01*
X5986338Y-13231061D02*
X5976815Y-13240585D01*
X5976815Y-13240585D02*
X5957767Y-13250109D01*
X5957767Y-13250109D02*
X5900624Y-13250109D01*
X5900624Y-13250109D02*
X5881577Y-13240585D01*
X5881577Y-13240585D02*
X5872053Y-13231061D01*
X6091100Y-13250109D02*
X6129196Y-13250109D01*
X6129196Y-13250109D02*
X6148243Y-13240585D01*
X6148243Y-13240585D02*
X6157767Y-13231061D01*
X6157767Y-13231061D02*
X6176815Y-13202490D01*
X6176815Y-13202490D02*
X6186338Y-13164394D01*
X6186338Y-13164394D02*
X6186338Y-13088204D01*
X6186338Y-13088204D02*
X6176815Y-13069156D01*
X6176815Y-13069156D02*
X6167291Y-13059633D01*
X6167291Y-13059633D02*
X6148243Y-13050109D01*
X6148243Y-13050109D02*
X6110148Y-13050109D01*
X6110148Y-13050109D02*
X6091100Y-13059633D01*
X6091100Y-13059633D02*
X6081577Y-13069156D01*
X6081577Y-13069156D02*
X6072053Y-13088204D01*
X6072053Y-13088204D02*
X6072053Y-13135823D01*
X6072053Y-13135823D02*
X6081577Y-13154871D01*
X6081577Y-13154871D02*
X6091100Y-13164394D01*
X6091100Y-13164394D02*
X6110148Y-13173918D01*
X6110148Y-13173918D02*
X6148243Y-13173918D01*
X6148243Y-13173918D02*
X6167291Y-13164394D01*
X6167291Y-13164394D02*
X6176815Y-13154871D01*
X6176815Y-13154871D02*
X6186338Y-13135823D01*
X6357767Y-13116775D02*
X6357767Y-13250109D01*
X6310148Y-13040585D02*
X6262529Y-13183442D01*
X6262529Y-13183442D02*
X6386338Y-13183442D01*
X6453005Y-13050109D02*
X6453005Y-13088204D01*
X6529196Y-13050109D02*
X6529196Y-13088204D01*
X6824434Y-13326299D02*
X6814910Y-13316775D01*
X6814910Y-13316775D02*
X6795862Y-13288204D01*
X6795862Y-13288204D02*
X6786339Y-13269156D01*
X6786339Y-13269156D02*
X6776815Y-13240585D01*
X6776815Y-13240585D02*
X6767291Y-13192966D01*
X6767291Y-13192966D02*
X6767291Y-13154871D01*
X6767291Y-13154871D02*
X6776815Y-13107252D01*
X6776815Y-13107252D02*
X6786339Y-13078680D01*
X6786339Y-13078680D02*
X6795862Y-13059633D01*
X6795862Y-13059633D02*
X6814910Y-13031061D01*
X6814910Y-13031061D02*
X6824434Y-13021537D01*
X6881577Y-13050109D02*
X7014910Y-13050109D01*
X7014910Y-13050109D02*
X6929196Y-13250109D01*
X7243481Y-13250109D02*
X7243481Y-13050109D01*
X7329196Y-13250109D02*
X7329196Y-13145347D01*
X7329196Y-13145347D02*
X7319672Y-13126299D01*
X7319672Y-13126299D02*
X7300624Y-13116775D01*
X7300624Y-13116775D02*
X7272053Y-13116775D01*
X7272053Y-13116775D02*
X7253005Y-13126299D01*
X7253005Y-13126299D02*
X7243481Y-13135823D01*
X7453005Y-13250109D02*
X7433958Y-13240585D01*
X7433958Y-13240585D02*
X7424434Y-13231061D01*
X7424434Y-13231061D02*
X7414910Y-13212013D01*
X7414910Y-13212013D02*
X7414910Y-13154871D01*
X7414910Y-13154871D02*
X7424434Y-13135823D01*
X7424434Y-13135823D02*
X7433958Y-13126299D01*
X7433958Y-13126299D02*
X7453005Y-13116775D01*
X7453005Y-13116775D02*
X7481577Y-13116775D01*
X7481577Y-13116775D02*
X7500624Y-13126299D01*
X7500624Y-13126299D02*
X7510148Y-13135823D01*
X7510148Y-13135823D02*
X7519672Y-13154871D01*
X7519672Y-13154871D02*
X7519672Y-13212013D01*
X7519672Y-13212013D02*
X7510148Y-13231061D01*
X7510148Y-13231061D02*
X7500624Y-13240585D01*
X7500624Y-13240585D02*
X7481577Y-13250109D01*
X7481577Y-13250109D02*
X7453005Y-13250109D01*
X7633958Y-13250109D02*
X7614910Y-13240585D01*
X7614910Y-13240585D02*
X7605386Y-13221537D01*
X7605386Y-13221537D02*
X7605386Y-13050109D01*
X7786339Y-13240585D02*
X7767291Y-13250109D01*
X7767291Y-13250109D02*
X7729196Y-13250109D01*
X7729196Y-13250109D02*
X7710148Y-13240585D01*
X7710148Y-13240585D02*
X7700624Y-13221537D01*
X7700624Y-13221537D02*
X7700624Y-13145347D01*
X7700624Y-13145347D02*
X7710148Y-13126299D01*
X7710148Y-13126299D02*
X7729196Y-13116775D01*
X7729196Y-13116775D02*
X7767291Y-13116775D01*
X7767291Y-13116775D02*
X7786339Y-13126299D01*
X7786339Y-13126299D02*
X7795862Y-13145347D01*
X7795862Y-13145347D02*
X7795862Y-13164394D01*
X7795862Y-13164394D02*
X7700624Y-13183442D01*
X7872053Y-13240585D02*
X7891101Y-13250109D01*
X7891101Y-13250109D02*
X7929196Y-13250109D01*
X7929196Y-13250109D02*
X7948243Y-13240585D01*
X7948243Y-13240585D02*
X7957767Y-13221537D01*
X7957767Y-13221537D02*
X7957767Y-13212013D01*
X7957767Y-13212013D02*
X7948243Y-13192966D01*
X7948243Y-13192966D02*
X7929196Y-13183442D01*
X7929196Y-13183442D02*
X7900624Y-13183442D01*
X7900624Y-13183442D02*
X7881577Y-13173918D01*
X7881577Y-13173918D02*
X7872053Y-13154871D01*
X7872053Y-13154871D02*
X7872053Y-13145347D01*
X7872053Y-13145347D02*
X7881577Y-13126299D01*
X7881577Y-13126299D02*
X7900624Y-13116775D01*
X7900624Y-13116775D02*
X7929196Y-13116775D01*
X7929196Y-13116775D02*
X7948243Y-13126299D01*
X8024434Y-13326299D02*
X8033958Y-13316775D01*
X8033958Y-13316775D02*
X8053005Y-13288204D01*
X8053005Y-13288204D02*
X8062529Y-13269156D01*
X8062529Y-13269156D02*
X8072053Y-13240585D01*
X8072053Y-13240585D02*
X8081577Y-13192966D01*
X8081577Y-13192966D02*
X8081577Y-13154871D01*
X8081577Y-13154871D02*
X8072053Y-13107252D01*
X8072053Y-13107252D02*
X8062529Y-13078680D01*
X8062529Y-13078680D02*
X8053005Y-13059633D01*
X8053005Y-13059633D02*
X8033958Y-13031061D01*
X8033958Y-13031061D02*
X8024434Y-13021537D01*
D14*
X3233376Y-13461240D02*
X3233376Y-13384009D01*
X3156145Y-13384009D01*
X3156145Y-13461240D01*
X3233376Y-13461240D01*
D11*
X3614910Y-13514109D02*
X3500624Y-13514109D01*
X3557767Y-13514109D02*
X3557767Y-13314109D01*
X3557767Y-13314109D02*
X3538719Y-13342680D01*
X3538719Y-13342680D02*
X3519672Y-13361728D01*
X3519672Y-13361728D02*
X3500624Y-13371252D01*
X3700624Y-13495061D02*
X3710148Y-13504585D01*
X3710148Y-13504585D02*
X3700624Y-13514109D01*
X3700624Y-13514109D02*
X3691100Y-13504585D01*
X3691100Y-13504585D02*
X3700624Y-13495061D01*
X3700624Y-13495061D02*
X3700624Y-13514109D01*
X3833957Y-13314109D02*
X3853005Y-13314109D01*
X3853005Y-13314109D02*
X3872053Y-13323633D01*
X3872053Y-13323633D02*
X3881576Y-13333156D01*
X3881576Y-13333156D02*
X3891100Y-13352204D01*
X3891100Y-13352204D02*
X3900624Y-13390299D01*
X3900624Y-13390299D02*
X3900624Y-13437918D01*
X3900624Y-13437918D02*
X3891100Y-13476013D01*
X3891100Y-13476013D02*
X3881576Y-13495061D01*
X3881576Y-13495061D02*
X3872053Y-13504585D01*
X3872053Y-13504585D02*
X3853005Y-13514109D01*
X3853005Y-13514109D02*
X3833957Y-13514109D01*
X3833957Y-13514109D02*
X3814910Y-13504585D01*
X3814910Y-13504585D02*
X3805386Y-13495061D01*
X3805386Y-13495061D02*
X3795862Y-13476013D01*
X3795862Y-13476013D02*
X3786338Y-13437918D01*
X3786338Y-13437918D02*
X3786338Y-13390299D01*
X3786338Y-13390299D02*
X3795862Y-13352204D01*
X3795862Y-13352204D02*
X3805386Y-13333156D01*
X3805386Y-13333156D02*
X3814910Y-13323633D01*
X3814910Y-13323633D02*
X3833957Y-13314109D01*
X3995862Y-13514109D02*
X4033957Y-13514109D01*
X4033957Y-13514109D02*
X4053005Y-13504585D01*
X4053005Y-13504585D02*
X4062529Y-13495061D01*
X4062529Y-13495061D02*
X4081576Y-13466490D01*
X4081576Y-13466490D02*
X4091100Y-13428394D01*
X4091100Y-13428394D02*
X4091100Y-13352204D01*
X4091100Y-13352204D02*
X4081576Y-13333156D01*
X4081576Y-13333156D02*
X4072053Y-13323633D01*
X4072053Y-13323633D02*
X4053005Y-13314109D01*
X4053005Y-13314109D02*
X4014910Y-13314109D01*
X4014910Y-13314109D02*
X3995862Y-13323633D01*
X3995862Y-13323633D02*
X3986338Y-13333156D01*
X3986338Y-13333156D02*
X3976814Y-13352204D01*
X3976814Y-13352204D02*
X3976814Y-13399823D01*
X3976814Y-13399823D02*
X3986338Y-13418871D01*
X3986338Y-13418871D02*
X3995862Y-13428394D01*
X3995862Y-13428394D02*
X4014910Y-13437918D01*
X4014910Y-13437918D02*
X4053005Y-13437918D01*
X4053005Y-13437918D02*
X4072053Y-13428394D01*
X4072053Y-13428394D02*
X4081576Y-13418871D01*
X4081576Y-13418871D02*
X4091100Y-13399823D01*
X4167291Y-13333156D02*
X4176814Y-13323633D01*
X4176814Y-13323633D02*
X4195862Y-13314109D01*
X4195862Y-13314109D02*
X4243481Y-13314109D01*
X4243481Y-13314109D02*
X4262529Y-13323633D01*
X4262529Y-13323633D02*
X4272053Y-13333156D01*
X4272053Y-13333156D02*
X4281576Y-13352204D01*
X4281576Y-13352204D02*
X4281576Y-13371252D01*
X4281576Y-13371252D02*
X4272053Y-13399823D01*
X4272053Y-13399823D02*
X4157767Y-13514109D01*
X4157767Y-13514109D02*
X4281576Y-13514109D01*
X4367291Y-13514109D02*
X4367291Y-13380775D01*
X4367291Y-13399823D02*
X4376815Y-13390299D01*
X4376815Y-13390299D02*
X4395862Y-13380775D01*
X4395862Y-13380775D02*
X4424434Y-13380775D01*
X4424434Y-13380775D02*
X4443481Y-13390299D01*
X4443481Y-13390299D02*
X4453005Y-13409347D01*
X4453005Y-13409347D02*
X4453005Y-13514109D01*
X4453005Y-13409347D02*
X4462529Y-13390299D01*
X4462529Y-13390299D02*
X4481576Y-13380775D01*
X4481576Y-13380775D02*
X4510148Y-13380775D01*
X4510148Y-13380775D02*
X4529196Y-13390299D01*
X4529196Y-13390299D02*
X4538719Y-13409347D01*
X4538719Y-13409347D02*
X4538719Y-13514109D01*
X4633957Y-13514109D02*
X4633957Y-13380775D01*
X4633957Y-13399823D02*
X4643481Y-13390299D01*
X4643481Y-13390299D02*
X4662529Y-13380775D01*
X4662529Y-13380775D02*
X4691100Y-13380775D01*
X4691100Y-13380775D02*
X4710148Y-13390299D01*
X4710148Y-13390299D02*
X4719672Y-13409347D01*
X4719672Y-13409347D02*
X4719672Y-13514109D01*
X4719672Y-13409347D02*
X4729196Y-13390299D01*
X4729196Y-13390299D02*
X4748243Y-13380775D01*
X4748243Y-13380775D02*
X4776815Y-13380775D01*
X4776815Y-13380775D02*
X4795862Y-13390299D01*
X4795862Y-13390299D02*
X4805386Y-13409347D01*
X4805386Y-13409347D02*
X4805386Y-13514109D01*
X5195862Y-13304585D02*
X5024434Y-13561728D01*
X5453005Y-13314109D02*
X5472053Y-13314109D01*
X5472053Y-13314109D02*
X5491100Y-13323633D01*
X5491100Y-13323633D02*
X5500624Y-13333156D01*
X5500624Y-13333156D02*
X5510148Y-13352204D01*
X5510148Y-13352204D02*
X5519672Y-13390299D01*
X5519672Y-13390299D02*
X5519672Y-13437918D01*
X5519672Y-13437918D02*
X5510148Y-13476013D01*
X5510148Y-13476013D02*
X5500624Y-13495061D01*
X5500624Y-13495061D02*
X5491100Y-13504585D01*
X5491100Y-13504585D02*
X5472053Y-13514109D01*
X5472053Y-13514109D02*
X5453005Y-13514109D01*
X5453005Y-13514109D02*
X5433958Y-13504585D01*
X5433958Y-13504585D02*
X5424434Y-13495061D01*
X5424434Y-13495061D02*
X5414910Y-13476013D01*
X5414910Y-13476013D02*
X5405386Y-13437918D01*
X5405386Y-13437918D02*
X5405386Y-13390299D01*
X5405386Y-13390299D02*
X5414910Y-13352204D01*
X5414910Y-13352204D02*
X5424434Y-13333156D01*
X5424434Y-13333156D02*
X5433958Y-13323633D01*
X5433958Y-13323633D02*
X5453005Y-13314109D01*
X5605386Y-13495061D02*
X5614910Y-13504585D01*
X5614910Y-13504585D02*
X5605386Y-13514109D01*
X5605386Y-13514109D02*
X5595862Y-13504585D01*
X5595862Y-13504585D02*
X5605386Y-13495061D01*
X5605386Y-13495061D02*
X5605386Y-13514109D01*
X5738719Y-13314109D02*
X5757767Y-13314109D01*
X5757767Y-13314109D02*
X5776815Y-13323633D01*
X5776815Y-13323633D02*
X5786338Y-13333156D01*
X5786338Y-13333156D02*
X5795862Y-13352204D01*
X5795862Y-13352204D02*
X5805386Y-13390299D01*
X5805386Y-13390299D02*
X5805386Y-13437918D01*
X5805386Y-13437918D02*
X5795862Y-13476013D01*
X5795862Y-13476013D02*
X5786338Y-13495061D01*
X5786338Y-13495061D02*
X5776815Y-13504585D01*
X5776815Y-13504585D02*
X5757767Y-13514109D01*
X5757767Y-13514109D02*
X5738719Y-13514109D01*
X5738719Y-13514109D02*
X5719672Y-13504585D01*
X5719672Y-13504585D02*
X5710148Y-13495061D01*
X5710148Y-13495061D02*
X5700624Y-13476013D01*
X5700624Y-13476013D02*
X5691100Y-13437918D01*
X5691100Y-13437918D02*
X5691100Y-13390299D01*
X5691100Y-13390299D02*
X5700624Y-13352204D01*
X5700624Y-13352204D02*
X5710148Y-13333156D01*
X5710148Y-13333156D02*
X5719672Y-13323633D01*
X5719672Y-13323633D02*
X5738719Y-13314109D01*
X5976815Y-13380775D02*
X5976815Y-13514109D01*
X5929196Y-13304585D02*
X5881577Y-13447442D01*
X5881577Y-13447442D02*
X6005386Y-13447442D01*
X6062529Y-13314109D02*
X6186338Y-13314109D01*
X6186338Y-13314109D02*
X6119672Y-13390299D01*
X6119672Y-13390299D02*
X6148243Y-13390299D01*
X6148243Y-13390299D02*
X6167291Y-13399823D01*
X6167291Y-13399823D02*
X6176815Y-13409347D01*
X6176815Y-13409347D02*
X6186338Y-13428394D01*
X6186338Y-13428394D02*
X6186338Y-13476013D01*
X6186338Y-13476013D02*
X6176815Y-13495061D01*
X6176815Y-13495061D02*
X6167291Y-13504585D01*
X6167291Y-13504585D02*
X6148243Y-13514109D01*
X6148243Y-13514109D02*
X6091100Y-13514109D01*
X6091100Y-13514109D02*
X6072053Y-13504585D01*
X6072053Y-13504585D02*
X6062529Y-13495061D01*
X6310148Y-13314109D02*
X6329196Y-13314109D01*
X6329196Y-13314109D02*
X6348243Y-13323633D01*
X6348243Y-13323633D02*
X6357767Y-13333156D01*
X6357767Y-13333156D02*
X6367291Y-13352204D01*
X6367291Y-13352204D02*
X6376815Y-13390299D01*
X6376815Y-13390299D02*
X6376815Y-13437918D01*
X6376815Y-13437918D02*
X6367291Y-13476013D01*
X6367291Y-13476013D02*
X6357767Y-13495061D01*
X6357767Y-13495061D02*
X6348243Y-13504585D01*
X6348243Y-13504585D02*
X6329196Y-13514109D01*
X6329196Y-13514109D02*
X6310148Y-13514109D01*
X6310148Y-13514109D02*
X6291100Y-13504585D01*
X6291100Y-13504585D02*
X6281577Y-13495061D01*
X6281577Y-13495061D02*
X6272053Y-13476013D01*
X6272053Y-13476013D02*
X6262529Y-13437918D01*
X6262529Y-13437918D02*
X6262529Y-13390299D01*
X6262529Y-13390299D02*
X6272053Y-13352204D01*
X6272053Y-13352204D02*
X6281577Y-13333156D01*
X6281577Y-13333156D02*
X6291100Y-13323633D01*
X6291100Y-13323633D02*
X6310148Y-13314109D01*
X6453005Y-13314109D02*
X6453005Y-13352204D01*
X6529196Y-13314109D02*
X6529196Y-13352204D01*
X6824434Y-13590299D02*
X6814910Y-13580775D01*
X6814910Y-13580775D02*
X6795862Y-13552204D01*
X6795862Y-13552204D02*
X6786339Y-13533156D01*
X6786339Y-13533156D02*
X6776815Y-13504585D01*
X6776815Y-13504585D02*
X6767291Y-13456966D01*
X6767291Y-13456966D02*
X6767291Y-13418871D01*
X6767291Y-13418871D02*
X6776815Y-13371252D01*
X6776815Y-13371252D02*
X6786339Y-13342680D01*
X6786339Y-13342680D02*
X6795862Y-13323633D01*
X6795862Y-13323633D02*
X6814910Y-13295061D01*
X6814910Y-13295061D02*
X6824434Y-13285537D01*
X6891100Y-13333156D02*
X6900624Y-13323633D01*
X6900624Y-13323633D02*
X6919672Y-13314109D01*
X6919672Y-13314109D02*
X6967291Y-13314109D01*
X6967291Y-13314109D02*
X6986339Y-13323633D01*
X6986339Y-13323633D02*
X6995862Y-13333156D01*
X6995862Y-13333156D02*
X7005386Y-13352204D01*
X7005386Y-13352204D02*
X7005386Y-13371252D01*
X7005386Y-13371252D02*
X6995862Y-13399823D01*
X6995862Y-13399823D02*
X6881577Y-13514109D01*
X6881577Y-13514109D02*
X7005386Y-13514109D01*
X7176815Y-13380775D02*
X7176815Y-13514109D01*
X7129196Y-13304585D02*
X7081577Y-13447442D01*
X7081577Y-13447442D02*
X7205386Y-13447442D01*
X7433958Y-13514109D02*
X7433958Y-13314109D01*
X7519672Y-13514109D02*
X7519672Y-13409347D01*
X7519672Y-13409347D02*
X7510148Y-13390299D01*
X7510148Y-13390299D02*
X7491101Y-13380775D01*
X7491101Y-13380775D02*
X7462529Y-13380775D01*
X7462529Y-13380775D02*
X7443481Y-13390299D01*
X7443481Y-13390299D02*
X7433958Y-13399823D01*
X7643481Y-13514109D02*
X7624434Y-13504585D01*
X7624434Y-13504585D02*
X7614910Y-13495061D01*
X7614910Y-13495061D02*
X7605386Y-13476013D01*
X7605386Y-13476013D02*
X7605386Y-13418871D01*
X7605386Y-13418871D02*
X7614910Y-13399823D01*
X7614910Y-13399823D02*
X7624434Y-13390299D01*
X7624434Y-13390299D02*
X7643481Y-13380775D01*
X7643481Y-13380775D02*
X7672053Y-13380775D01*
X7672053Y-13380775D02*
X7691101Y-13390299D01*
X7691101Y-13390299D02*
X7700624Y-13399823D01*
X7700624Y-13399823D02*
X7710148Y-13418871D01*
X7710148Y-13418871D02*
X7710148Y-13476013D01*
X7710148Y-13476013D02*
X7700624Y-13495061D01*
X7700624Y-13495061D02*
X7691101Y-13504585D01*
X7691101Y-13504585D02*
X7672053Y-13514109D01*
X7672053Y-13514109D02*
X7643481Y-13514109D01*
X7824434Y-13514109D02*
X7805386Y-13504585D01*
X7805386Y-13504585D02*
X7795862Y-13485537D01*
X7795862Y-13485537D02*
X7795862Y-13314109D01*
X7976815Y-13504585D02*
X7957767Y-13514109D01*
X7957767Y-13514109D02*
X7919672Y-13514109D01*
X7919672Y-13514109D02*
X7900624Y-13504585D01*
X7900624Y-13504585D02*
X7891101Y-13485537D01*
X7891101Y-13485537D02*
X7891101Y-13409347D01*
X7891101Y-13409347D02*
X7900624Y-13390299D01*
X7900624Y-13390299D02*
X7919672Y-13380775D01*
X7919672Y-13380775D02*
X7957767Y-13380775D01*
X7957767Y-13380775D02*
X7976815Y-13390299D01*
X7976815Y-13390299D02*
X7986339Y-13409347D01*
X7986339Y-13409347D02*
X7986339Y-13428394D01*
X7986339Y-13428394D02*
X7891101Y-13447442D01*
X8062529Y-13504585D02*
X8081577Y-13514109D01*
X8081577Y-13514109D02*
X8119672Y-13514109D01*
X8119672Y-13514109D02*
X8138720Y-13504585D01*
X8138720Y-13504585D02*
X8148243Y-13485537D01*
X8148243Y-13485537D02*
X8148243Y-13476013D01*
X8148243Y-13476013D02*
X8138720Y-13456966D01*
X8138720Y-13456966D02*
X8119672Y-13447442D01*
X8119672Y-13447442D02*
X8091101Y-13447442D01*
X8091101Y-13447442D02*
X8072053Y-13437918D01*
X8072053Y-13437918D02*
X8062529Y-13418871D01*
X8062529Y-13418871D02*
X8062529Y-13409347D01*
X8062529Y-13409347D02*
X8072053Y-13390299D01*
X8072053Y-13390299D02*
X8091101Y-13380775D01*
X8091101Y-13380775D02*
X8119672Y-13380775D01*
X8119672Y-13380775D02*
X8138720Y-13390299D01*
X8214910Y-13590299D02*
X8224434Y-13580775D01*
X8224434Y-13580775D02*
X8243482Y-13552204D01*
X8243482Y-13552204D02*
X8253005Y-13533156D01*
X8253005Y-13533156D02*
X8262529Y-13504585D01*
X8262529Y-13504585D02*
X8272053Y-13456966D01*
X8272053Y-13456966D02*
X8272053Y-13418871D01*
X8272053Y-13418871D02*
X8262529Y-13371252D01*
X8262529Y-13371252D02*
X8253005Y-13342680D01*
X8253005Y-13342680D02*
X8243482Y-13323633D01*
X8243482Y-13323633D02*
X8224434Y-13295061D01*
X8224434Y-13295061D02*
X8214910Y-13285537D01*
D15*
X3175871Y-13760125D02*
X3249371Y-13686625D01*
X3175871Y-13613125D01*
X3102371Y-13686625D01*
X3175871Y-13760125D01*
D11*
X3614910Y-13778109D02*
X3500624Y-13778109D01*
X3557767Y-13778109D02*
X3557767Y-13578109D01*
X3557767Y-13578109D02*
X3538719Y-13606680D01*
X3538719Y-13606680D02*
X3519672Y-13625728D01*
X3519672Y-13625728D02*
X3500624Y-13635252D01*
X3700624Y-13759061D02*
X3710148Y-13768585D01*
X3710148Y-13768585D02*
X3700624Y-13778109D01*
X3700624Y-13778109D02*
X3691100Y-13768585D01*
X3691100Y-13768585D02*
X3700624Y-13759061D01*
X3700624Y-13759061D02*
X3700624Y-13778109D01*
X3881576Y-13644775D02*
X3881576Y-13778109D01*
X3833957Y-13568585D02*
X3786338Y-13711442D01*
X3786338Y-13711442D02*
X3910148Y-13711442D01*
X3967291Y-13578109D02*
X4100624Y-13578109D01*
X4100624Y-13578109D02*
X4014910Y-13778109D01*
X4214910Y-13578109D02*
X4233957Y-13578109D01*
X4233957Y-13578109D02*
X4253005Y-13587633D01*
X4253005Y-13587633D02*
X4262529Y-13597156D01*
X4262529Y-13597156D02*
X4272053Y-13616204D01*
X4272053Y-13616204D02*
X4281576Y-13654299D01*
X4281576Y-13654299D02*
X4281576Y-13701918D01*
X4281576Y-13701918D02*
X4272053Y-13740013D01*
X4272053Y-13740013D02*
X4262529Y-13759061D01*
X4262529Y-13759061D02*
X4253005Y-13768585D01*
X4253005Y-13768585D02*
X4233957Y-13778109D01*
X4233957Y-13778109D02*
X4214910Y-13778109D01*
X4214910Y-13778109D02*
X4195862Y-13768585D01*
X4195862Y-13768585D02*
X4186338Y-13759061D01*
X4186338Y-13759061D02*
X4176814Y-13740013D01*
X4176814Y-13740013D02*
X4167291Y-13701918D01*
X4167291Y-13701918D02*
X4167291Y-13654299D01*
X4167291Y-13654299D02*
X4176814Y-13616204D01*
X4176814Y-13616204D02*
X4186338Y-13597156D01*
X4186338Y-13597156D02*
X4195862Y-13587633D01*
X4195862Y-13587633D02*
X4214910Y-13578109D01*
X4367291Y-13778109D02*
X4367291Y-13644775D01*
X4367291Y-13663823D02*
X4376815Y-13654299D01*
X4376815Y-13654299D02*
X4395862Y-13644775D01*
X4395862Y-13644775D02*
X4424434Y-13644775D01*
X4424434Y-13644775D02*
X4443481Y-13654299D01*
X4443481Y-13654299D02*
X4453005Y-13673347D01*
X4453005Y-13673347D02*
X4453005Y-13778109D01*
X4453005Y-13673347D02*
X4462529Y-13654299D01*
X4462529Y-13654299D02*
X4481576Y-13644775D01*
X4481576Y-13644775D02*
X4510148Y-13644775D01*
X4510148Y-13644775D02*
X4529196Y-13654299D01*
X4529196Y-13654299D02*
X4538719Y-13673347D01*
X4538719Y-13673347D02*
X4538719Y-13778109D01*
X4633957Y-13778109D02*
X4633957Y-13644775D01*
X4633957Y-13663823D02*
X4643481Y-13654299D01*
X4643481Y-13654299D02*
X4662529Y-13644775D01*
X4662529Y-13644775D02*
X4691100Y-13644775D01*
X4691100Y-13644775D02*
X4710148Y-13654299D01*
X4710148Y-13654299D02*
X4719672Y-13673347D01*
X4719672Y-13673347D02*
X4719672Y-13778109D01*
X4719672Y-13673347D02*
X4729196Y-13654299D01*
X4729196Y-13654299D02*
X4748243Y-13644775D01*
X4748243Y-13644775D02*
X4776815Y-13644775D01*
X4776815Y-13644775D02*
X4795862Y-13654299D01*
X4795862Y-13654299D02*
X4805386Y-13673347D01*
X4805386Y-13673347D02*
X4805386Y-13778109D01*
X5195862Y-13568585D02*
X5024434Y-13825728D01*
X5453005Y-13578109D02*
X5472053Y-13578109D01*
X5472053Y-13578109D02*
X5491100Y-13587633D01*
X5491100Y-13587633D02*
X5500624Y-13597156D01*
X5500624Y-13597156D02*
X5510148Y-13616204D01*
X5510148Y-13616204D02*
X5519672Y-13654299D01*
X5519672Y-13654299D02*
X5519672Y-13701918D01*
X5519672Y-13701918D02*
X5510148Y-13740013D01*
X5510148Y-13740013D02*
X5500624Y-13759061D01*
X5500624Y-13759061D02*
X5491100Y-13768585D01*
X5491100Y-13768585D02*
X5472053Y-13778109D01*
X5472053Y-13778109D02*
X5453005Y-13778109D01*
X5453005Y-13778109D02*
X5433958Y-13768585D01*
X5433958Y-13768585D02*
X5424434Y-13759061D01*
X5424434Y-13759061D02*
X5414910Y-13740013D01*
X5414910Y-13740013D02*
X5405386Y-13701918D01*
X5405386Y-13701918D02*
X5405386Y-13654299D01*
X5405386Y-13654299D02*
X5414910Y-13616204D01*
X5414910Y-13616204D02*
X5424434Y-13597156D01*
X5424434Y-13597156D02*
X5433958Y-13587633D01*
X5433958Y-13587633D02*
X5453005Y-13578109D01*
X5605386Y-13759061D02*
X5614910Y-13768585D01*
X5614910Y-13768585D02*
X5605386Y-13778109D01*
X5605386Y-13778109D02*
X5595862Y-13768585D01*
X5595862Y-13768585D02*
X5605386Y-13759061D01*
X5605386Y-13759061D02*
X5605386Y-13778109D01*
X5738719Y-13578109D02*
X5757767Y-13578109D01*
X5757767Y-13578109D02*
X5776815Y-13587633D01*
X5776815Y-13587633D02*
X5786338Y-13597156D01*
X5786338Y-13597156D02*
X5795862Y-13616204D01*
X5795862Y-13616204D02*
X5805386Y-13654299D01*
X5805386Y-13654299D02*
X5805386Y-13701918D01*
X5805386Y-13701918D02*
X5795862Y-13740013D01*
X5795862Y-13740013D02*
X5786338Y-13759061D01*
X5786338Y-13759061D02*
X5776815Y-13768585D01*
X5776815Y-13768585D02*
X5757767Y-13778109D01*
X5757767Y-13778109D02*
X5738719Y-13778109D01*
X5738719Y-13778109D02*
X5719672Y-13768585D01*
X5719672Y-13768585D02*
X5710148Y-13759061D01*
X5710148Y-13759061D02*
X5700624Y-13740013D01*
X5700624Y-13740013D02*
X5691100Y-13701918D01*
X5691100Y-13701918D02*
X5691100Y-13654299D01*
X5691100Y-13654299D02*
X5700624Y-13616204D01*
X5700624Y-13616204D02*
X5710148Y-13597156D01*
X5710148Y-13597156D02*
X5719672Y-13587633D01*
X5719672Y-13587633D02*
X5738719Y-13578109D01*
X5986338Y-13578109D02*
X5891100Y-13578109D01*
X5891100Y-13578109D02*
X5881577Y-13673347D01*
X5881577Y-13673347D02*
X5891100Y-13663823D01*
X5891100Y-13663823D02*
X5910148Y-13654299D01*
X5910148Y-13654299D02*
X5957767Y-13654299D01*
X5957767Y-13654299D02*
X5976815Y-13663823D01*
X5976815Y-13663823D02*
X5986338Y-13673347D01*
X5986338Y-13673347D02*
X5995862Y-13692394D01*
X5995862Y-13692394D02*
X5995862Y-13740013D01*
X5995862Y-13740013D02*
X5986338Y-13759061D01*
X5986338Y-13759061D02*
X5976815Y-13768585D01*
X5976815Y-13768585D02*
X5957767Y-13778109D01*
X5957767Y-13778109D02*
X5910148Y-13778109D01*
X5910148Y-13778109D02*
X5891100Y-13768585D01*
X5891100Y-13768585D02*
X5881577Y-13759061D01*
X6062529Y-13578109D02*
X6195862Y-13578109D01*
X6195862Y-13578109D02*
X6110148Y-13778109D01*
X6281577Y-13778109D02*
X6319672Y-13778109D01*
X6319672Y-13778109D02*
X6338719Y-13768585D01*
X6338719Y-13768585D02*
X6348243Y-13759061D01*
X6348243Y-13759061D02*
X6367291Y-13730490D01*
X6367291Y-13730490D02*
X6376815Y-13692394D01*
X6376815Y-13692394D02*
X6376815Y-13616204D01*
X6376815Y-13616204D02*
X6367291Y-13597156D01*
X6367291Y-13597156D02*
X6357767Y-13587633D01*
X6357767Y-13587633D02*
X6338719Y-13578109D01*
X6338719Y-13578109D02*
X6300624Y-13578109D01*
X6300624Y-13578109D02*
X6281577Y-13587633D01*
X6281577Y-13587633D02*
X6272053Y-13597156D01*
X6272053Y-13597156D02*
X6262529Y-13616204D01*
X6262529Y-13616204D02*
X6262529Y-13663823D01*
X6262529Y-13663823D02*
X6272053Y-13682871D01*
X6272053Y-13682871D02*
X6281577Y-13692394D01*
X6281577Y-13692394D02*
X6300624Y-13701918D01*
X6300624Y-13701918D02*
X6338719Y-13701918D01*
X6338719Y-13701918D02*
X6357767Y-13692394D01*
X6357767Y-13692394D02*
X6367291Y-13682871D01*
X6367291Y-13682871D02*
X6376815Y-13663823D01*
X6453005Y-13578109D02*
X6453005Y-13616204D01*
X6529196Y-13578109D02*
X6529196Y-13616204D01*
X6824434Y-13854299D02*
X6814910Y-13844775D01*
X6814910Y-13844775D02*
X6795862Y-13816204D01*
X6795862Y-13816204D02*
X6786339Y-13797156D01*
X6786339Y-13797156D02*
X6776815Y-13768585D01*
X6776815Y-13768585D02*
X6767291Y-13720966D01*
X6767291Y-13720966D02*
X6767291Y-13682871D01*
X6767291Y-13682871D02*
X6776815Y-13635252D01*
X6776815Y-13635252D02*
X6786339Y-13606680D01*
X6786339Y-13606680D02*
X6795862Y-13587633D01*
X6795862Y-13587633D02*
X6814910Y-13559061D01*
X6814910Y-13559061D02*
X6824434Y-13549537D01*
X6891100Y-13597156D02*
X6900624Y-13587633D01*
X6900624Y-13587633D02*
X6919672Y-13578109D01*
X6919672Y-13578109D02*
X6967291Y-13578109D01*
X6967291Y-13578109D02*
X6986339Y-13587633D01*
X6986339Y-13587633D02*
X6995862Y-13597156D01*
X6995862Y-13597156D02*
X7005386Y-13616204D01*
X7005386Y-13616204D02*
X7005386Y-13635252D01*
X7005386Y-13635252D02*
X6995862Y-13663823D01*
X6995862Y-13663823D02*
X6881577Y-13778109D01*
X6881577Y-13778109D02*
X7005386Y-13778109D01*
X7176815Y-13644775D02*
X7176815Y-13778109D01*
X7129196Y-13568585D02*
X7081577Y-13711442D01*
X7081577Y-13711442D02*
X7205386Y-13711442D01*
X7319672Y-13578109D02*
X7338720Y-13578109D01*
X7338720Y-13578109D02*
X7357767Y-13587633D01*
X7357767Y-13587633D02*
X7367291Y-13597156D01*
X7367291Y-13597156D02*
X7376815Y-13616204D01*
X7376815Y-13616204D02*
X7386339Y-13654299D01*
X7386339Y-13654299D02*
X7386339Y-13701918D01*
X7386339Y-13701918D02*
X7376815Y-13740013D01*
X7376815Y-13740013D02*
X7367291Y-13759061D01*
X7367291Y-13759061D02*
X7357767Y-13768585D01*
X7357767Y-13768585D02*
X7338720Y-13778109D01*
X7338720Y-13778109D02*
X7319672Y-13778109D01*
X7319672Y-13778109D02*
X7300624Y-13768585D01*
X7300624Y-13768585D02*
X7291100Y-13759061D01*
X7291100Y-13759061D02*
X7281577Y-13740013D01*
X7281577Y-13740013D02*
X7272053Y-13701918D01*
X7272053Y-13701918D02*
X7272053Y-13654299D01*
X7272053Y-13654299D02*
X7281577Y-13616204D01*
X7281577Y-13616204D02*
X7291100Y-13597156D01*
X7291100Y-13597156D02*
X7300624Y-13587633D01*
X7300624Y-13587633D02*
X7319672Y-13578109D01*
X7624434Y-13778109D02*
X7624434Y-13578109D01*
X7710148Y-13778109D02*
X7710148Y-13673347D01*
X7710148Y-13673347D02*
X7700624Y-13654299D01*
X7700624Y-13654299D02*
X7681577Y-13644775D01*
X7681577Y-13644775D02*
X7653005Y-13644775D01*
X7653005Y-13644775D02*
X7633958Y-13654299D01*
X7633958Y-13654299D02*
X7624434Y-13663823D01*
X7833958Y-13778109D02*
X7814910Y-13768585D01*
X7814910Y-13768585D02*
X7805386Y-13759061D01*
X7805386Y-13759061D02*
X7795862Y-13740013D01*
X7795862Y-13740013D02*
X7795862Y-13682871D01*
X7795862Y-13682871D02*
X7805386Y-13663823D01*
X7805386Y-13663823D02*
X7814910Y-13654299D01*
X7814910Y-13654299D02*
X7833958Y-13644775D01*
X7833958Y-13644775D02*
X7862529Y-13644775D01*
X7862529Y-13644775D02*
X7881577Y-13654299D01*
X7881577Y-13654299D02*
X7891101Y-13663823D01*
X7891101Y-13663823D02*
X7900624Y-13682871D01*
X7900624Y-13682871D02*
X7900624Y-13740013D01*
X7900624Y-13740013D02*
X7891101Y-13759061D01*
X7891101Y-13759061D02*
X7881577Y-13768585D01*
X7881577Y-13768585D02*
X7862529Y-13778109D01*
X7862529Y-13778109D02*
X7833958Y-13778109D01*
X8014910Y-13778109D02*
X7995862Y-13768585D01*
X7995862Y-13768585D02*
X7986339Y-13749537D01*
X7986339Y-13749537D02*
X7986339Y-13578109D01*
X8167291Y-13768585D02*
X8148243Y-13778109D01*
X8148243Y-13778109D02*
X8110148Y-13778109D01*
X8110148Y-13778109D02*
X8091101Y-13768585D01*
X8091101Y-13768585D02*
X8081577Y-13749537D01*
X8081577Y-13749537D02*
X8081577Y-13673347D01*
X8081577Y-13673347D02*
X8091101Y-13654299D01*
X8091101Y-13654299D02*
X8110148Y-13644775D01*
X8110148Y-13644775D02*
X8148243Y-13644775D01*
X8148243Y-13644775D02*
X8167291Y-13654299D01*
X8167291Y-13654299D02*
X8176815Y-13673347D01*
X8176815Y-13673347D02*
X8176815Y-13692394D01*
X8176815Y-13692394D02*
X8081577Y-13711442D01*
X8253005Y-13768585D02*
X8272053Y-13778109D01*
X8272053Y-13778109D02*
X8310148Y-13778109D01*
X8310148Y-13778109D02*
X8329196Y-13768585D01*
X8329196Y-13768585D02*
X8338720Y-13749537D01*
X8338720Y-13749537D02*
X8338720Y-13740013D01*
X8338720Y-13740013D02*
X8329196Y-13720966D01*
X8329196Y-13720966D02*
X8310148Y-13711442D01*
X8310148Y-13711442D02*
X8281577Y-13711442D01*
X8281577Y-13711442D02*
X8262529Y-13701918D01*
X8262529Y-13701918D02*
X8253005Y-13682871D01*
X8253005Y-13682871D02*
X8253005Y-13673347D01*
X8253005Y-13673347D02*
X8262529Y-13654299D01*
X8262529Y-13654299D02*
X8281577Y-13644775D01*
X8281577Y-13644775D02*
X8310148Y-13644775D01*
X8310148Y-13644775D02*
X8329196Y-13654299D01*
X8405386Y-13854299D02*
X8414910Y-13844775D01*
X8414910Y-13844775D02*
X8433958Y-13816204D01*
X8433958Y-13816204D02*
X8443482Y-13797156D01*
X8443482Y-13797156D02*
X8453005Y-13768585D01*
X8453005Y-13768585D02*
X8462529Y-13720966D01*
X8462529Y-13720966D02*
X8462529Y-13682871D01*
X8462529Y-13682871D02*
X8453005Y-13635252D01*
X8453005Y-13635252D02*
X8443482Y-13606680D01*
X8443482Y-13606680D02*
X8433958Y-13587633D01*
X8433958Y-13587633D02*
X8414910Y-13559061D01*
X8414910Y-13559061D02*
X8405386Y-13549537D01*
X3049371Y-13853625D02*
X3249371Y-14053625D01*
X3249371Y-13853625D02*
X3049371Y-14053625D01*
X3249371Y-13953625D02*
G75*
G03*
X3249371Y-13953625I-100000J0D01*
G01*
X3500624Y-13864156D02*
X3510148Y-13854633D01*
X3510148Y-13854633D02*
X3529195Y-13845109D01*
X3529195Y-13845109D02*
X3576814Y-13845109D01*
X3576814Y-13845109D02*
X3595862Y-13854633D01*
X3595862Y-13854633D02*
X3605386Y-13864156D01*
X3605386Y-13864156D02*
X3614910Y-13883204D01*
X3614910Y-13883204D02*
X3614910Y-13902252D01*
X3614910Y-13902252D02*
X3605386Y-13930823D01*
X3605386Y-13930823D02*
X3491100Y-14045109D01*
X3491100Y-14045109D02*
X3614910Y-14045109D01*
X3700624Y-14026061D02*
X3710148Y-14035585D01*
X3710148Y-14035585D02*
X3700624Y-14045109D01*
X3700624Y-14045109D02*
X3691100Y-14035585D01*
X3691100Y-14035585D02*
X3700624Y-14026061D01*
X3700624Y-14026061D02*
X3700624Y-14045109D01*
X3786338Y-13864156D02*
X3795862Y-13854633D01*
X3795862Y-13854633D02*
X3814910Y-13845109D01*
X3814910Y-13845109D02*
X3862529Y-13845109D01*
X3862529Y-13845109D02*
X3881576Y-13854633D01*
X3881576Y-13854633D02*
X3891100Y-13864156D01*
X3891100Y-13864156D02*
X3900624Y-13883204D01*
X3900624Y-13883204D02*
X3900624Y-13902252D01*
X3900624Y-13902252D02*
X3891100Y-13930823D01*
X3891100Y-13930823D02*
X3776814Y-14045109D01*
X3776814Y-14045109D02*
X3900624Y-14045109D01*
X4024433Y-13845109D02*
X4043481Y-13845109D01*
X4043481Y-13845109D02*
X4062529Y-13854633D01*
X4062529Y-13854633D02*
X4072053Y-13864156D01*
X4072053Y-13864156D02*
X4081576Y-13883204D01*
X4081576Y-13883204D02*
X4091100Y-13921299D01*
X4091100Y-13921299D02*
X4091100Y-13968918D01*
X4091100Y-13968918D02*
X4081576Y-14007013D01*
X4081576Y-14007013D02*
X4072053Y-14026061D01*
X4072053Y-14026061D02*
X4062529Y-14035585D01*
X4062529Y-14035585D02*
X4043481Y-14045109D01*
X4043481Y-14045109D02*
X4024433Y-14045109D01*
X4024433Y-14045109D02*
X4005386Y-14035585D01*
X4005386Y-14035585D02*
X3995862Y-14026061D01*
X3995862Y-14026061D02*
X3986338Y-14007013D01*
X3986338Y-14007013D02*
X3976814Y-13968918D01*
X3976814Y-13968918D02*
X3976814Y-13921299D01*
X3976814Y-13921299D02*
X3986338Y-13883204D01*
X3986338Y-13883204D02*
X3995862Y-13864156D01*
X3995862Y-13864156D02*
X4005386Y-13854633D01*
X4005386Y-13854633D02*
X4024433Y-13845109D01*
X4214910Y-13845109D02*
X4233957Y-13845109D01*
X4233957Y-13845109D02*
X4253005Y-13854633D01*
X4253005Y-13854633D02*
X4262529Y-13864156D01*
X4262529Y-13864156D02*
X4272053Y-13883204D01*
X4272053Y-13883204D02*
X4281576Y-13921299D01*
X4281576Y-13921299D02*
X4281576Y-13968918D01*
X4281576Y-13968918D02*
X4272053Y-14007013D01*
X4272053Y-14007013D02*
X4262529Y-14026061D01*
X4262529Y-14026061D02*
X4253005Y-14035585D01*
X4253005Y-14035585D02*
X4233957Y-14045109D01*
X4233957Y-14045109D02*
X4214910Y-14045109D01*
X4214910Y-14045109D02*
X4195862Y-14035585D01*
X4195862Y-14035585D02*
X4186338Y-14026061D01*
X4186338Y-14026061D02*
X4176814Y-14007013D01*
X4176814Y-14007013D02*
X4167291Y-13968918D01*
X4167291Y-13968918D02*
X4167291Y-13921299D01*
X4167291Y-13921299D02*
X4176814Y-13883204D01*
X4176814Y-13883204D02*
X4186338Y-13864156D01*
X4186338Y-13864156D02*
X4195862Y-13854633D01*
X4195862Y-13854633D02*
X4214910Y-13845109D01*
X4367291Y-14045109D02*
X4367291Y-13911775D01*
X4367291Y-13930823D02*
X4376815Y-13921299D01*
X4376815Y-13921299D02*
X4395862Y-13911775D01*
X4395862Y-13911775D02*
X4424434Y-13911775D01*
X4424434Y-13911775D02*
X4443481Y-13921299D01*
X4443481Y-13921299D02*
X4453005Y-13940347D01*
X4453005Y-13940347D02*
X4453005Y-14045109D01*
X4453005Y-13940347D02*
X4462529Y-13921299D01*
X4462529Y-13921299D02*
X4481576Y-13911775D01*
X4481576Y-13911775D02*
X4510148Y-13911775D01*
X4510148Y-13911775D02*
X4529196Y-13921299D01*
X4529196Y-13921299D02*
X4538719Y-13940347D01*
X4538719Y-13940347D02*
X4538719Y-14045109D01*
X4633957Y-14045109D02*
X4633957Y-13911775D01*
X4633957Y-13930823D02*
X4643481Y-13921299D01*
X4643481Y-13921299D02*
X4662529Y-13911775D01*
X4662529Y-13911775D02*
X4691100Y-13911775D01*
X4691100Y-13911775D02*
X4710148Y-13921299D01*
X4710148Y-13921299D02*
X4719672Y-13940347D01*
X4719672Y-13940347D02*
X4719672Y-14045109D01*
X4719672Y-13940347D02*
X4729196Y-13921299D01*
X4729196Y-13921299D02*
X4748243Y-13911775D01*
X4748243Y-13911775D02*
X4776815Y-13911775D01*
X4776815Y-13911775D02*
X4795862Y-13921299D01*
X4795862Y-13921299D02*
X4805386Y-13940347D01*
X4805386Y-13940347D02*
X4805386Y-14045109D01*
X5195862Y-13835585D02*
X5024434Y-14092728D01*
X5453005Y-13845109D02*
X5472053Y-13845109D01*
X5472053Y-13845109D02*
X5491100Y-13854633D01*
X5491100Y-13854633D02*
X5500624Y-13864156D01*
X5500624Y-13864156D02*
X5510148Y-13883204D01*
X5510148Y-13883204D02*
X5519672Y-13921299D01*
X5519672Y-13921299D02*
X5519672Y-13968918D01*
X5519672Y-13968918D02*
X5510148Y-14007013D01*
X5510148Y-14007013D02*
X5500624Y-14026061D01*
X5500624Y-14026061D02*
X5491100Y-14035585D01*
X5491100Y-14035585D02*
X5472053Y-14045109D01*
X5472053Y-14045109D02*
X5453005Y-14045109D01*
X5453005Y-14045109D02*
X5433958Y-14035585D01*
X5433958Y-14035585D02*
X5424434Y-14026061D01*
X5424434Y-14026061D02*
X5414910Y-14007013D01*
X5414910Y-14007013D02*
X5405386Y-13968918D01*
X5405386Y-13968918D02*
X5405386Y-13921299D01*
X5405386Y-13921299D02*
X5414910Y-13883204D01*
X5414910Y-13883204D02*
X5424434Y-13864156D01*
X5424434Y-13864156D02*
X5433958Y-13854633D01*
X5433958Y-13854633D02*
X5453005Y-13845109D01*
X5605386Y-14026061D02*
X5614910Y-14035585D01*
X5614910Y-14035585D02*
X5605386Y-14045109D01*
X5605386Y-14045109D02*
X5595862Y-14035585D01*
X5595862Y-14035585D02*
X5605386Y-14026061D01*
X5605386Y-14026061D02*
X5605386Y-14045109D01*
X5738719Y-13845109D02*
X5757767Y-13845109D01*
X5757767Y-13845109D02*
X5776815Y-13854633D01*
X5776815Y-13854633D02*
X5786338Y-13864156D01*
X5786338Y-13864156D02*
X5795862Y-13883204D01*
X5795862Y-13883204D02*
X5805386Y-13921299D01*
X5805386Y-13921299D02*
X5805386Y-13968918D01*
X5805386Y-13968918D02*
X5795862Y-14007013D01*
X5795862Y-14007013D02*
X5786338Y-14026061D01*
X5786338Y-14026061D02*
X5776815Y-14035585D01*
X5776815Y-14035585D02*
X5757767Y-14045109D01*
X5757767Y-14045109D02*
X5738719Y-14045109D01*
X5738719Y-14045109D02*
X5719672Y-14035585D01*
X5719672Y-14035585D02*
X5710148Y-14026061D01*
X5710148Y-14026061D02*
X5700624Y-14007013D01*
X5700624Y-14007013D02*
X5691100Y-13968918D01*
X5691100Y-13968918D02*
X5691100Y-13921299D01*
X5691100Y-13921299D02*
X5700624Y-13883204D01*
X5700624Y-13883204D02*
X5710148Y-13864156D01*
X5710148Y-13864156D02*
X5719672Y-13854633D01*
X5719672Y-13854633D02*
X5738719Y-13845109D01*
X5919672Y-13930823D02*
X5900624Y-13921299D01*
X5900624Y-13921299D02*
X5891100Y-13911775D01*
X5891100Y-13911775D02*
X5881577Y-13892728D01*
X5881577Y-13892728D02*
X5881577Y-13883204D01*
X5881577Y-13883204D02*
X5891100Y-13864156D01*
X5891100Y-13864156D02*
X5900624Y-13854633D01*
X5900624Y-13854633D02*
X5919672Y-13845109D01*
X5919672Y-13845109D02*
X5957767Y-13845109D01*
X5957767Y-13845109D02*
X5976815Y-13854633D01*
X5976815Y-13854633D02*
X5986338Y-13864156D01*
X5986338Y-13864156D02*
X5995862Y-13883204D01*
X5995862Y-13883204D02*
X5995862Y-13892728D01*
X5995862Y-13892728D02*
X5986338Y-13911775D01*
X5986338Y-13911775D02*
X5976815Y-13921299D01*
X5976815Y-13921299D02*
X5957767Y-13930823D01*
X5957767Y-13930823D02*
X5919672Y-13930823D01*
X5919672Y-13930823D02*
X5900624Y-13940347D01*
X5900624Y-13940347D02*
X5891100Y-13949871D01*
X5891100Y-13949871D02*
X5881577Y-13968918D01*
X5881577Y-13968918D02*
X5881577Y-14007013D01*
X5881577Y-14007013D02*
X5891100Y-14026061D01*
X5891100Y-14026061D02*
X5900624Y-14035585D01*
X5900624Y-14035585D02*
X5919672Y-14045109D01*
X5919672Y-14045109D02*
X5957767Y-14045109D01*
X5957767Y-14045109D02*
X5976815Y-14035585D01*
X5976815Y-14035585D02*
X5986338Y-14026061D01*
X5986338Y-14026061D02*
X5995862Y-14007013D01*
X5995862Y-14007013D02*
X5995862Y-13968918D01*
X5995862Y-13968918D02*
X5986338Y-13949871D01*
X5986338Y-13949871D02*
X5976815Y-13940347D01*
X5976815Y-13940347D02*
X5957767Y-13930823D01*
X6167291Y-13845109D02*
X6129196Y-13845109D01*
X6129196Y-13845109D02*
X6110148Y-13854633D01*
X6110148Y-13854633D02*
X6100624Y-13864156D01*
X6100624Y-13864156D02*
X6081577Y-13892728D01*
X6081577Y-13892728D02*
X6072053Y-13930823D01*
X6072053Y-13930823D02*
X6072053Y-14007013D01*
X6072053Y-14007013D02*
X6081577Y-14026061D01*
X6081577Y-14026061D02*
X6091100Y-14035585D01*
X6091100Y-14035585D02*
X6110148Y-14045109D01*
X6110148Y-14045109D02*
X6148243Y-14045109D01*
X6148243Y-14045109D02*
X6167291Y-14035585D01*
X6167291Y-14035585D02*
X6176815Y-14026061D01*
X6176815Y-14026061D02*
X6186338Y-14007013D01*
X6186338Y-14007013D02*
X6186338Y-13959394D01*
X6186338Y-13959394D02*
X6176815Y-13940347D01*
X6176815Y-13940347D02*
X6167291Y-13930823D01*
X6167291Y-13930823D02*
X6148243Y-13921299D01*
X6148243Y-13921299D02*
X6110148Y-13921299D01*
X6110148Y-13921299D02*
X6091100Y-13930823D01*
X6091100Y-13930823D02*
X6081577Y-13940347D01*
X6081577Y-13940347D02*
X6072053Y-13959394D01*
X6357767Y-13845109D02*
X6319672Y-13845109D01*
X6319672Y-13845109D02*
X6300624Y-13854633D01*
X6300624Y-13854633D02*
X6291100Y-13864156D01*
X6291100Y-13864156D02*
X6272053Y-13892728D01*
X6272053Y-13892728D02*
X6262529Y-13930823D01*
X6262529Y-13930823D02*
X6262529Y-14007013D01*
X6262529Y-14007013D02*
X6272053Y-14026061D01*
X6272053Y-14026061D02*
X6281577Y-14035585D01*
X6281577Y-14035585D02*
X6300624Y-14045109D01*
X6300624Y-14045109D02*
X6338719Y-14045109D01*
X6338719Y-14045109D02*
X6357767Y-14035585D01*
X6357767Y-14035585D02*
X6367291Y-14026061D01*
X6367291Y-14026061D02*
X6376815Y-14007013D01*
X6376815Y-14007013D02*
X6376815Y-13959394D01*
X6376815Y-13959394D02*
X6367291Y-13940347D01*
X6367291Y-13940347D02*
X6357767Y-13930823D01*
X6357767Y-13930823D02*
X6338719Y-13921299D01*
X6338719Y-13921299D02*
X6300624Y-13921299D01*
X6300624Y-13921299D02*
X6281577Y-13930823D01*
X6281577Y-13930823D02*
X6272053Y-13940347D01*
X6272053Y-13940347D02*
X6262529Y-13959394D01*
X6453005Y-13845109D02*
X6453005Y-13883204D01*
X6529196Y-13845109D02*
X6529196Y-13883204D01*
X6824434Y-14121299D02*
X6814910Y-14111775D01*
X6814910Y-14111775D02*
X6795862Y-14083204D01*
X6795862Y-14083204D02*
X6786339Y-14064156D01*
X6786339Y-14064156D02*
X6776815Y-14035585D01*
X6776815Y-14035585D02*
X6767291Y-13987966D01*
X6767291Y-13987966D02*
X6767291Y-13949871D01*
X6767291Y-13949871D02*
X6776815Y-13902252D01*
X6776815Y-13902252D02*
X6786339Y-13873680D01*
X6786339Y-13873680D02*
X6795862Y-13854633D01*
X6795862Y-13854633D02*
X6814910Y-13826061D01*
X6814910Y-13826061D02*
X6824434Y-13816537D01*
X6986339Y-13845109D02*
X6948243Y-13845109D01*
X6948243Y-13845109D02*
X6929196Y-13854633D01*
X6929196Y-13854633D02*
X6919672Y-13864156D01*
X6919672Y-13864156D02*
X6900624Y-13892728D01*
X6900624Y-13892728D02*
X6891100Y-13930823D01*
X6891100Y-13930823D02*
X6891100Y-14007013D01*
X6891100Y-14007013D02*
X6900624Y-14026061D01*
X6900624Y-14026061D02*
X6910148Y-14035585D01*
X6910148Y-14035585D02*
X6929196Y-14045109D01*
X6929196Y-14045109D02*
X6967291Y-14045109D01*
X6967291Y-14045109D02*
X6986339Y-14035585D01*
X6986339Y-14035585D02*
X6995862Y-14026061D01*
X6995862Y-14026061D02*
X7005386Y-14007013D01*
X7005386Y-14007013D02*
X7005386Y-13959394D01*
X7005386Y-13959394D02*
X6995862Y-13940347D01*
X6995862Y-13940347D02*
X6986339Y-13930823D01*
X6986339Y-13930823D02*
X6967291Y-13921299D01*
X6967291Y-13921299D02*
X6929196Y-13921299D01*
X6929196Y-13921299D02*
X6910148Y-13930823D01*
X6910148Y-13930823D02*
X6900624Y-13940347D01*
X6900624Y-13940347D02*
X6891100Y-13959394D01*
X7243481Y-14045109D02*
X7243481Y-13845109D01*
X7329196Y-14045109D02*
X7329196Y-13940347D01*
X7329196Y-13940347D02*
X7319672Y-13921299D01*
X7319672Y-13921299D02*
X7300624Y-13911775D01*
X7300624Y-13911775D02*
X7272053Y-13911775D01*
X7272053Y-13911775D02*
X7253005Y-13921299D01*
X7253005Y-13921299D02*
X7243481Y-13930823D01*
X7453005Y-14045109D02*
X7433958Y-14035585D01*
X7433958Y-14035585D02*
X7424434Y-14026061D01*
X7424434Y-14026061D02*
X7414910Y-14007013D01*
X7414910Y-14007013D02*
X7414910Y-13949871D01*
X7414910Y-13949871D02*
X7424434Y-13930823D01*
X7424434Y-13930823D02*
X7433958Y-13921299D01*
X7433958Y-13921299D02*
X7453005Y-13911775D01*
X7453005Y-13911775D02*
X7481577Y-13911775D01*
X7481577Y-13911775D02*
X7500624Y-13921299D01*
X7500624Y-13921299D02*
X7510148Y-13930823D01*
X7510148Y-13930823D02*
X7519672Y-13949871D01*
X7519672Y-13949871D02*
X7519672Y-14007013D01*
X7519672Y-14007013D02*
X7510148Y-14026061D01*
X7510148Y-14026061D02*
X7500624Y-14035585D01*
X7500624Y-14035585D02*
X7481577Y-14045109D01*
X7481577Y-14045109D02*
X7453005Y-14045109D01*
X7633958Y-14045109D02*
X7614910Y-14035585D01*
X7614910Y-14035585D02*
X7605386Y-14016537D01*
X7605386Y-14016537D02*
X7605386Y-13845109D01*
X7786339Y-14035585D02*
X7767291Y-14045109D01*
X7767291Y-14045109D02*
X7729196Y-14045109D01*
X7729196Y-14045109D02*
X7710148Y-14035585D01*
X7710148Y-14035585D02*
X7700624Y-14016537D01*
X7700624Y-14016537D02*
X7700624Y-13940347D01*
X7700624Y-13940347D02*
X7710148Y-13921299D01*
X7710148Y-13921299D02*
X7729196Y-13911775D01*
X7729196Y-13911775D02*
X7767291Y-13911775D01*
X7767291Y-13911775D02*
X7786339Y-13921299D01*
X7786339Y-13921299D02*
X7795862Y-13940347D01*
X7795862Y-13940347D02*
X7795862Y-13959394D01*
X7795862Y-13959394D02*
X7700624Y-13978442D01*
X7872053Y-14035585D02*
X7891101Y-14045109D01*
X7891101Y-14045109D02*
X7929196Y-14045109D01*
X7929196Y-14045109D02*
X7948243Y-14035585D01*
X7948243Y-14035585D02*
X7957767Y-14016537D01*
X7957767Y-14016537D02*
X7957767Y-14007013D01*
X7957767Y-14007013D02*
X7948243Y-13987966D01*
X7948243Y-13987966D02*
X7929196Y-13978442D01*
X7929196Y-13978442D02*
X7900624Y-13978442D01*
X7900624Y-13978442D02*
X7881577Y-13968918D01*
X7881577Y-13968918D02*
X7872053Y-13949871D01*
X7872053Y-13949871D02*
X7872053Y-13940347D01*
X7872053Y-13940347D02*
X7881577Y-13921299D01*
X7881577Y-13921299D02*
X7900624Y-13911775D01*
X7900624Y-13911775D02*
X7929196Y-13911775D01*
X7929196Y-13911775D02*
X7948243Y-13921299D01*
X8024434Y-14121299D02*
X8033958Y-14111775D01*
X8033958Y-14111775D02*
X8053005Y-14083204D01*
X8053005Y-14083204D02*
X8062529Y-14064156D01*
X8062529Y-14064156D02*
X8072053Y-14035585D01*
X8072053Y-14035585D02*
X8081577Y-13987966D01*
X8081577Y-13987966D02*
X8081577Y-13949871D01*
X8081577Y-13949871D02*
X8072053Y-13902252D01*
X8072053Y-13902252D02*
X8062529Y-13873680D01*
X8062529Y-13873680D02*
X8053005Y-13854633D01*
X8053005Y-13854633D02*
X8033958Y-13826061D01*
X8033958Y-13826061D02*
X8024434Y-13816537D01*
M02*
