G04 #@! TF.GenerationSoftware,KiCad,Pcbnew,(6.0.9)*
G04 #@! TF.CreationDate,2023-01-17T20:01:01+01:00*
G04 #@! TF.ProjectId,t-rex,742d7265-782e-46b6-9963-61645f706362,rev?*
G04 #@! TF.SameCoordinates,Original*
G04 #@! TF.FileFunction,Soldermask,Top*
G04 #@! TF.FilePolarity,Negative*
%FSLAX46Y46*%
G04 Gerber Fmt 4.6, Leading zero omitted, Abs format (unit mm)*
G04 Created by KiCad (PCBNEW (6.0.9)) date 2023-01-17 20:01:01*
%MOMM*%
%LPD*%
G01*
G04 APERTURE LIST*
%ADD10R,1.600000X1.600000*%
%ADD11O,1.600000X1.600000*%
%ADD12C,1.750000*%
%ADD13C,3.987800*%
%ADD14R,1.700000X1.700000*%
%ADD15O,1.700000X1.700000*%
%ADD16C,4.400000*%
%ADD17C,1.800000*%
%ADD18R,1.752600X1.752600*%
%ADD19C,1.752600*%
G04 APERTURE END LIST*
D10*
X57150000Y-42862500D03*
D11*
X64770000Y-42862500D03*
D12*
X219392500Y-90487500D03*
D13*
X214312500Y-90487500D03*
D12*
X209232500Y-90487500D03*
D10*
X242697000Y-36322000D03*
D11*
X242697000Y-28702000D03*
D12*
X66992500Y-90487500D03*
D13*
X61912500Y-90487500D03*
D12*
X56832500Y-90487500D03*
D14*
X46196250Y-42862500D03*
D15*
X43656250Y-42862500D03*
X41116250Y-42862500D03*
D10*
X242887500Y-75247500D03*
D11*
X242887500Y-67627500D03*
D13*
X157162500Y-33337500D03*
D12*
X162242500Y-33337500D03*
X152082500Y-33337500D03*
D10*
X204787500Y-75247500D03*
D11*
X204787500Y-67627500D03*
D10*
X242887500Y-113347500D03*
D11*
X242887500Y-105727500D03*
D12*
X247332500Y-90487500D03*
D13*
X252412500Y-90487500D03*
D12*
X257492500Y-90487500D03*
D10*
X109537500Y-55403750D03*
D11*
X109537500Y-47783750D03*
D16*
X242887500Y-42862500D03*
D12*
X162242500Y-52387500D03*
X152082500Y-52387500D03*
D13*
X157162500Y-52387500D03*
D10*
X166687500Y-94297500D03*
D11*
X166687500Y-86677500D03*
D10*
X147637500Y-94297500D03*
D11*
X147637500Y-86677500D03*
D13*
X100012500Y-52387500D03*
D12*
X94932500Y-52387500D03*
X105092500Y-52387500D03*
D13*
X138112500Y-109537500D03*
D12*
X133032500Y-109537500D03*
X143192500Y-109537500D03*
X143192500Y-90487500D03*
X133032500Y-90487500D03*
D13*
X138112500Y-90487500D03*
D10*
X109537500Y-36353750D03*
D11*
X109537500Y-28733750D03*
D13*
X157162500Y-90487500D03*
D12*
X152082500Y-90487500D03*
X162242500Y-90487500D03*
D13*
X176212500Y-52387500D03*
D12*
X171132500Y-52387500D03*
X181292500Y-52387500D03*
X124142500Y-52387500D03*
D13*
X119062500Y-52387500D03*
D12*
X113982500Y-52387500D03*
D10*
X128587500Y-94297500D03*
D11*
X128587500Y-86677500D03*
D12*
X171132500Y-90487500D03*
D13*
X176212500Y-90487500D03*
D12*
X181292500Y-90487500D03*
D10*
X128587500Y-113347500D03*
D11*
X128587500Y-105727500D03*
D10*
X185737500Y-113347500D03*
D11*
X185737500Y-105727500D03*
D12*
X56832500Y-71437500D03*
X66992500Y-71437500D03*
D13*
X61912500Y-71437500D03*
X195262500Y-52387500D03*
D12*
X190182500Y-52387500D03*
X200342500Y-52387500D03*
D10*
X223837500Y-36353750D03*
D11*
X223837500Y-28733750D03*
D10*
X247808750Y-100012500D03*
D11*
X255428750Y-100012500D03*
D10*
X71437500Y-113347500D03*
D11*
X71437500Y-105727500D03*
D13*
X176212500Y-33337500D03*
D12*
X181292500Y-33337500D03*
X171132500Y-33337500D03*
D10*
X204787500Y-94297500D03*
D11*
X204787500Y-86677500D03*
D16*
X52387500Y-42862500D03*
D12*
X124142500Y-33337500D03*
D13*
X119062500Y-33337500D03*
D12*
X113982500Y-33337500D03*
X190182500Y-90487500D03*
D13*
X195262500Y-90487500D03*
D12*
X200342500Y-90487500D03*
D10*
X71437500Y-94297500D03*
D11*
X71437500Y-86677500D03*
D10*
X185737500Y-75247500D03*
D11*
X185737500Y-67627500D03*
D10*
X147637500Y-36353750D03*
D11*
X147637500Y-28733750D03*
D10*
X204787500Y-36353750D03*
D11*
X204787500Y-28733750D03*
D10*
X62706250Y-61912500D03*
D11*
X70326250Y-61912500D03*
D13*
X80962500Y-71437500D03*
D12*
X75882500Y-71437500D03*
X86042500Y-71437500D03*
D13*
X233362500Y-71437500D03*
D12*
X228282500Y-71437500D03*
X238442500Y-71437500D03*
D10*
X228346000Y-98552000D03*
D11*
X235966000Y-98552000D03*
D12*
X162242500Y-109537500D03*
D13*
X157162500Y-109537500D03*
D12*
X152082500Y-109537500D03*
D10*
X52387500Y-75247500D03*
D11*
X52387500Y-67627500D03*
D10*
X223837500Y-94297500D03*
D11*
X223837500Y-86677500D03*
D12*
X238442500Y-109537500D03*
D13*
X233362500Y-109537500D03*
D12*
X228282500Y-109537500D03*
D10*
X248443750Y-61912500D03*
D11*
X256063750Y-61912500D03*
D13*
X138112500Y-33337500D03*
D12*
X133032500Y-33337500D03*
X143192500Y-33337500D03*
D13*
X233362500Y-33337500D03*
D12*
X228282500Y-33337500D03*
X238442500Y-33337500D03*
X209232500Y-33337500D03*
D13*
X214312500Y-33337500D03*
D12*
X219392500Y-33337500D03*
D13*
X61912500Y-33337500D03*
D12*
X56832500Y-33337500D03*
X66992500Y-33337500D03*
X75882500Y-109537500D03*
X86042500Y-109537500D03*
D13*
X80962500Y-109537500D03*
D10*
X128587500Y-36353750D03*
D11*
X128587500Y-28733750D03*
D10*
X109537500Y-113347500D03*
D11*
X109537500Y-105727500D03*
D12*
X86042500Y-90487500D03*
D13*
X80962500Y-90487500D03*
D12*
X75882500Y-90487500D03*
D13*
X119062500Y-71437500D03*
D12*
X124142500Y-71437500D03*
X113982500Y-71437500D03*
D13*
X61912500Y-52387500D03*
D12*
X66992500Y-52387500D03*
X56832500Y-52387500D03*
X209232500Y-109537500D03*
D13*
X214312500Y-109537500D03*
D12*
X219392500Y-109537500D03*
X47942500Y-90487500D03*
D13*
X42862500Y-90487500D03*
D12*
X37782500Y-90487500D03*
D10*
X223837500Y-55403750D03*
D11*
X223837500Y-47783750D03*
D16*
X147637500Y-61912500D03*
D10*
X52387500Y-55403750D03*
D11*
X52387500Y-47783750D03*
D16*
X52387500Y-100012500D03*
D13*
X252412500Y-33337500D03*
D12*
X247332500Y-33337500D03*
X257492500Y-33337500D03*
X37782500Y-33337500D03*
D13*
X42862500Y-33337500D03*
D12*
X47942500Y-33337500D03*
D10*
X52387500Y-113347500D03*
D11*
X52387500Y-105727500D03*
D10*
X185737500Y-55403750D03*
D11*
X185737500Y-47783750D03*
D12*
X124142500Y-90487500D03*
D13*
X119062500Y-90487500D03*
D12*
X113982500Y-90487500D03*
D10*
X166687500Y-75247500D03*
D11*
X166687500Y-67627500D03*
D10*
X86487000Y-61912500D03*
D11*
X94107000Y-61912500D03*
D12*
X228282500Y-90487500D03*
D13*
X233362500Y-90487500D03*
D12*
X238442500Y-90487500D03*
X209232500Y-71437500D03*
D13*
X214312500Y-71437500D03*
D12*
X219392500Y-71437500D03*
D10*
X147637500Y-75247500D03*
D11*
X147637500Y-67627500D03*
D10*
X71437500Y-75247500D03*
D11*
X71437500Y-67627500D03*
D10*
X90487500Y-113347500D03*
D11*
X90487500Y-105727500D03*
D10*
X204787500Y-55403750D03*
D11*
X204787500Y-47783750D03*
D10*
X147637500Y-113347500D03*
D11*
X147637500Y-105727500D03*
D10*
X74612500Y-61912500D03*
D11*
X82232500Y-61912500D03*
D12*
X257492500Y-71437500D03*
X247332500Y-71437500D03*
D13*
X252412500Y-71437500D03*
D12*
X200342500Y-33337500D03*
D13*
X195262500Y-33337500D03*
D12*
X190182500Y-33337500D03*
D10*
X52387500Y-94297500D03*
D11*
X52387500Y-86677500D03*
D10*
X185737500Y-36353750D03*
D11*
X185737500Y-28733750D03*
D12*
X257492500Y-52387500D03*
D13*
X252412500Y-52387500D03*
D12*
X247332500Y-52387500D03*
D13*
X42862500Y-71437500D03*
D12*
X47942500Y-71437500D03*
X37782500Y-71437500D03*
X105092500Y-33337500D03*
X94932500Y-33337500D03*
D13*
X100012500Y-33337500D03*
X157162500Y-71437500D03*
D12*
X162242500Y-71437500D03*
X152082500Y-71437500D03*
X66992500Y-109537500D03*
D13*
X61912500Y-109537500D03*
D12*
X56832500Y-109537500D03*
X47942500Y-109537500D03*
D13*
X42862500Y-109537500D03*
D12*
X37782500Y-109537500D03*
D13*
X138112500Y-71437500D03*
D12*
X143192500Y-71437500D03*
X133032500Y-71437500D03*
D16*
X242887500Y-100012500D03*
D10*
X128587500Y-75247500D03*
D11*
X128587500Y-67627500D03*
D12*
X200342500Y-71437500D03*
X190182500Y-71437500D03*
D13*
X195262500Y-71437500D03*
D12*
X133032500Y-52387500D03*
D13*
X138112500Y-52387500D03*
D12*
X143192500Y-52387500D03*
D10*
X128587500Y-55403750D03*
D11*
X128587500Y-47783750D03*
D13*
X252412500Y-109537500D03*
D12*
X247332500Y-109537500D03*
X257492500Y-109537500D03*
D10*
X166687500Y-55403750D03*
D11*
X166687500Y-47783750D03*
D10*
X223837500Y-113347500D03*
D11*
X223837500Y-105727500D03*
D10*
X223837500Y-75247500D03*
D11*
X223837500Y-67627500D03*
D10*
X109537500Y-94297500D03*
D11*
X109537500Y-86677500D03*
D10*
X90487500Y-75247500D03*
D11*
X90487500Y-67627500D03*
D12*
X94932500Y-90487500D03*
X105092500Y-90487500D03*
D13*
X100012500Y-90487500D03*
D10*
X247808750Y-80962500D03*
D11*
X255428750Y-80962500D03*
D12*
X113982500Y-109537500D03*
D13*
X119062500Y-109537500D03*
D12*
X124142500Y-109537500D03*
D10*
X166687500Y-36353750D03*
D11*
X166687500Y-28733750D03*
D10*
X166687500Y-113347500D03*
D11*
X166687500Y-105727500D03*
D10*
X52387500Y-36512500D03*
D11*
X52387500Y-28892500D03*
D10*
X204787500Y-113347500D03*
D11*
X204787500Y-105727500D03*
D10*
X247650000Y-42862500D03*
D11*
X255270000Y-42862500D03*
D10*
X109537500Y-75247500D03*
D11*
X109537500Y-67627500D03*
D10*
X90487500Y-94297500D03*
D11*
X90487500Y-86677500D03*
D10*
X147637500Y-55403750D03*
D11*
X147637500Y-47783750D03*
D13*
X100012500Y-71437500D03*
D12*
X94932500Y-71437500D03*
X105092500Y-71437500D03*
X181292500Y-109537500D03*
D13*
X176212500Y-109537500D03*
D12*
X171132500Y-109537500D03*
D16*
X147486914Y-100010649D03*
D10*
X242887500Y-55403750D03*
D11*
X242887500Y-47783750D03*
D10*
X185737500Y-94297500D03*
D11*
X185737500Y-86677500D03*
D12*
X238442500Y-52387500D03*
X228282500Y-52387500D03*
D13*
X233362500Y-52387500D03*
D10*
X242887500Y-93503750D03*
D11*
X242887500Y-85883750D03*
D12*
X47942500Y-52387500D03*
D13*
X42862500Y-52387500D03*
D12*
X37782500Y-52387500D03*
X190182500Y-109537500D03*
X200342500Y-109537500D03*
D13*
X195262500Y-109537500D03*
D12*
X86042500Y-52387500D03*
D13*
X80962500Y-52387500D03*
D12*
X75882500Y-52387500D03*
X94932500Y-109537500D03*
X105092500Y-109537500D03*
D13*
X100012500Y-109537500D03*
D12*
X86042500Y-33337500D03*
X75882500Y-33337500D03*
D13*
X80962500Y-33337500D03*
D12*
X219392500Y-52387500D03*
D13*
X214312500Y-52387500D03*
D12*
X209232500Y-52387500D03*
X181292500Y-71437500D03*
X171132500Y-71437500D03*
D13*
X176212500Y-71437500D03*
D17*
X54637500Y-58662500D03*
X50137500Y-65162500D03*
X50137500Y-58662500D03*
X54637500Y-65162500D03*
D18*
X88582500Y-26116750D03*
D19*
X88582500Y-28656750D03*
X88582500Y-31196750D03*
X88582500Y-33736750D03*
X88582500Y-36276750D03*
X88582500Y-38816750D03*
X88582500Y-41356750D03*
X88582500Y-43896750D03*
X88582500Y-46436750D03*
X88582500Y-48976750D03*
X88582500Y-51516750D03*
X88582500Y-54056750D03*
X73342500Y-54056750D03*
X73342500Y-51516750D03*
X73342500Y-48976750D03*
X73342500Y-46436750D03*
X73342500Y-43896750D03*
X73342500Y-41356750D03*
X73342500Y-38816750D03*
X73342500Y-36276750D03*
X73342500Y-33736750D03*
X73342500Y-31196750D03*
X73342500Y-28656750D03*
X73342500Y-26116750D03*
M02*
