G04 #@! TF.GenerationSoftware,KiCad,Pcbnew,(6.0.11)*
G04 #@! TF.CreationDate,2023-03-20T22:28:06+01:00*
G04 #@! TF.ProjectId,t-rex,742d7265-782e-46b6-9963-61645f706362,rev?*
G04 #@! TF.SameCoordinates,Original*
G04 #@! TF.FileFunction,Copper,L2,Bot*
G04 #@! TF.FilePolarity,Positive*
%FSLAX46Y46*%
G04 Gerber Fmt 4.6, Leading zero omitted, Abs format (unit mm)*
G04 Created by KiCad (PCBNEW (6.0.11)) date 2023-03-20 22:28:06*
%MOMM*%
%LPD*%
G01*
G04 APERTURE LIST*
G04 Aperture macros list*
%AMHorizOval*
0 Thick line with rounded ends*
0 $1 width*
0 $2 $3 position (X,Y) of the first rounded end (center of the circle)*
0 $4 $5 position (X,Y) of the second rounded end (center of the circle)*
0 Add line between two ends*
20,1,$1,$2,$3,$4,$5,0*
0 Add two circle primitives to create the rounded ends*
1,1,$1,$2,$3*
1,1,$1,$4,$5*%
%AMRotRect*
0 Rectangle, with rotation*
0 The origin of the aperture is its center*
0 $1 length*
0 $2 width*
0 $3 Rotation angle, in degrees counterclockwise*
0 Add horizontal line*
21,1,$1,$2,0,0,$3*%
G04 Aperture macros list end*
G04 #@! TA.AperFunction,ComponentPad*
%ADD10C,4.400000*%
G04 #@! TD*
G04 #@! TA.AperFunction,ComponentPad*
%ADD11RotRect,1.600000X1.600000X348.000000*%
G04 #@! TD*
G04 #@! TA.AperFunction,ComponentPad*
%ADD12HorizOval,1.600000X0.000000X0.000000X0.000000X0.000000X0*%
G04 #@! TD*
G04 #@! TA.AperFunction,ComponentPad*
%ADD13R,1.752600X1.752600*%
G04 #@! TD*
G04 #@! TA.AperFunction,ComponentPad*
%ADD14C,1.752600*%
G04 #@! TD*
G04 #@! TA.AperFunction,ComponentPad*
%ADD15C,2.250000*%
G04 #@! TD*
G04 #@! TA.AperFunction,ComponentPad*
%ADD16HorizOval,2.250000X-0.040731X0.287821X0.040731X-0.287821X0*%
G04 #@! TD*
G04 #@! TA.AperFunction,ComponentPad*
%ADD17HorizOval,2.250000X0.488912X0.850230X-0.488912X-0.850230X0*%
G04 #@! TD*
G04 #@! TA.AperFunction,ComponentPad*
%ADD18HorizOval,1.600000X0.000000X0.000000X0.000000X0.000000X0*%
G04 #@! TD*
G04 #@! TA.AperFunction,ComponentPad*
%ADD19RotRect,1.600000X1.600000X102.000000*%
G04 #@! TD*
G04 #@! TA.AperFunction,ComponentPad*
%ADD20HorizOval,1.600000X0.000000X0.000000X0.000000X0.000000X0*%
G04 #@! TD*
G04 #@! TA.AperFunction,ComponentPad*
%ADD21RotRect,1.600000X1.600000X12.000000*%
G04 #@! TD*
G04 #@! TA.AperFunction,ComponentPad*
%ADD22HorizOval,2.250000X0.079857X0.279505X-0.079857X-0.279505X0*%
G04 #@! TD*
G04 #@! TA.AperFunction,ComponentPad*
%ADD23HorizOval,2.250000X0.792463X0.577865X-0.792463X-0.577865X0*%
G04 #@! TD*
G04 #@! TA.AperFunction,ComponentPad*
%ADD24HorizOval,2.250000X0.020000X0.290000X-0.020000X-0.290000X0*%
G04 #@! TD*
G04 #@! TA.AperFunction,ComponentPad*
%ADD25HorizOval,2.250000X0.655001X0.730000X-0.655001X-0.730000X0*%
G04 #@! TD*
G04 #@! TA.AperFunction,ComponentPad*
%ADD26O,1.600000X1.600000*%
G04 #@! TD*
G04 #@! TA.AperFunction,ComponentPad*
%ADD27R,1.600000X1.600000*%
G04 #@! TD*
G04 #@! TA.AperFunction,ComponentPad*
%ADD28O,1.700000X1.700000*%
G04 #@! TD*
G04 #@! TA.AperFunction,ComponentPad*
%ADD29R,1.700000X1.700000*%
G04 #@! TD*
G04 #@! TA.AperFunction,ComponentPad*
%ADD30HorizOval,1.600000X0.000000X0.000000X0.000000X0.000000X0*%
G04 #@! TD*
G04 #@! TA.AperFunction,ComponentPad*
%ADD31RotRect,1.600000X1.600000X78.000000*%
G04 #@! TD*
G04 #@! TA.AperFunction,ComponentPad*
%ADD32C,1.800000*%
G04 #@! TD*
G04 #@! TA.AperFunction,ViaPad*
%ADD33C,0.800000*%
G04 #@! TD*
G04 #@! TA.AperFunction,Conductor*
%ADD34C,0.250000*%
G04 #@! TD*
G04 #@! TA.AperFunction,Conductor*
%ADD35C,0.508000*%
G04 #@! TD*
G04 APERTURE END LIST*
D10*
X198270141Y-169536011D03*
X198450000Y-103800000D03*
X68304287Y-129638963D03*
X76225723Y-92371540D03*
X320273485Y-92230926D03*
X328194921Y-129498349D03*
D11*
X140173258Y-105907857D03*
D12*
X147626743Y-107492144D03*
D13*
X190830200Y-81271011D03*
D14*
X190830200Y-83811011D03*
X190830200Y-86351011D03*
X190830200Y-88891011D03*
X190830200Y-91431011D03*
X190830200Y-93971011D03*
X190830200Y-96511011D03*
X190830200Y-99051011D03*
X190830200Y-101591011D03*
X190830200Y-104131011D03*
X190830200Y-106671011D03*
X190830200Y-109211011D03*
X206070200Y-109211011D03*
X206070200Y-106671011D03*
X206070200Y-104131011D03*
X206070200Y-101591011D03*
X206070200Y-99051011D03*
X206070200Y-96511011D03*
X206070200Y-93971011D03*
X206070200Y-91431011D03*
X206070200Y-88891011D03*
X206070200Y-86351011D03*
X206070200Y-83811011D03*
X206070200Y-81271011D03*
D15*
X258464156Y-109913208D03*
D16*
X258504887Y-110201030D03*
D17*
X253269926Y-112867713D03*
D15*
X253758836Y-112017483D03*
D16*
X310445305Y-79685165D03*
D15*
X310404574Y-79397343D03*
D17*
X305210344Y-82351848D03*
D15*
X305699254Y-81501618D03*
D18*
X269521283Y-128336904D03*
D19*
X271105570Y-135790389D03*
D16*
X266426323Y-147468453D03*
D15*
X266385592Y-147180631D03*
D17*
X261191362Y-150135136D03*
D15*
X261680272Y-149284906D03*
D18*
X254848289Y-150931333D03*
D19*
X256432576Y-158384818D03*
D15*
X291770862Y-83358060D03*
D16*
X291811593Y-83645882D03*
D17*
X286576632Y-86312565D03*
D15*
X287065542Y-85462335D03*
D18*
X310749424Y-139049180D03*
D19*
X312333711Y-146502665D03*
D16*
X340961170Y-131625582D03*
D15*
X340920439Y-131337760D03*
D17*
X335726209Y-134292265D03*
D15*
X336215119Y-133442035D03*
X277097868Y-105952490D03*
D16*
X277138599Y-106240312D03*
D17*
X271903638Y-108906995D03*
D15*
X272392548Y-108056765D03*
D16*
X239871176Y-114161747D03*
D15*
X239830445Y-113873925D03*
D17*
X234636215Y-116828430D03*
D15*
X235125125Y-115978200D03*
D16*
X329079017Y-75724447D03*
D15*
X329038286Y-75436625D03*
X324332966Y-77540900D03*
D17*
X323844056Y-78391130D03*
D18*
X273482000Y-146970616D03*
D19*
X275066287Y-154424101D03*
D20*
X340462114Y-126890877D03*
D21*
X333008629Y-128475164D03*
D15*
X262424874Y-128546919D03*
D16*
X262465605Y-128834741D03*
D17*
X257230644Y-131501424D03*
D15*
X257719554Y-130651194D03*
D16*
X254544170Y-91567318D03*
D15*
X254503439Y-91279496D03*
X249798119Y-93383771D03*
D17*
X249309209Y-94234001D03*
D16*
X333039735Y-94358159D03*
D15*
X332999004Y-94070337D03*
X328293684Y-96174612D03*
D17*
X327804774Y-97024842D03*
D18*
X284194277Y-105742474D03*
D19*
X285778564Y-113195959D03*
D15*
X235869727Y-95240214D03*
D16*
X235910458Y-95528036D03*
D17*
X230675497Y-98194719D03*
D15*
X231164407Y-97344489D03*
D20*
X336501396Y-108257165D03*
D21*
X329047911Y-109841452D03*
D18*
X321461700Y-97821039D03*
D19*
X323045987Y-105274524D03*
D18*
X325257388Y-115678346D03*
D19*
X326841675Y-123131831D03*
D15*
X314365292Y-98031055D03*
D16*
X314406023Y-98318877D03*
D17*
X309171062Y-100985560D03*
D15*
X309659972Y-100135330D03*
D20*
X321121017Y-129508826D03*
D21*
X313667532Y-131093113D03*
D18*
X265560565Y-109703192D03*
D19*
X267144852Y-117156677D03*
D18*
X261434817Y-90293076D03*
D19*
X263019104Y-97746561D03*
D16*
X285060035Y-143507736D03*
D15*
X285019304Y-143219914D03*
X280313984Y-145324189D03*
D17*
X279825074Y-146174419D03*
D18*
X242801105Y-94253793D03*
D19*
X244385392Y-101707278D03*
D18*
X250887571Y-132297622D03*
D19*
X252471858Y-139751107D03*
D16*
X281099317Y-124874024D03*
D15*
X281058586Y-124586202D03*
D17*
X275864356Y-127540707D03*
D15*
X276353266Y-126690477D03*
D16*
X299733029Y-120913306D03*
D15*
X299692298Y-120625484D03*
X294986978Y-122729759D03*
D17*
X294498068Y-123579989D03*
D15*
X295731580Y-101991772D03*
D16*
X295772311Y-102279594D03*
D17*
X290537350Y-104946277D03*
D15*
X291026260Y-104096047D03*
D18*
X288154994Y-124376186D03*
D19*
X289739281Y-131829671D03*
D18*
X298702241Y-82371640D03*
D19*
X300286528Y-89825125D03*
D18*
X317335953Y-78410923D03*
D19*
X318920240Y-85864408D03*
D18*
X292115712Y-143009898D03*
D19*
X293699999Y-150463383D03*
D16*
X247792611Y-151429171D03*
D15*
X247751880Y-151141349D03*
D17*
X242557650Y-154095854D03*
D15*
X243046560Y-153245624D03*
X336959721Y-112704049D03*
D16*
X337000452Y-112991871D03*
D17*
X331765491Y-115658554D03*
D15*
X332254401Y-114808324D03*
D18*
X306788706Y-120415469D03*
D19*
X308372993Y-127868954D03*
D18*
X302827988Y-101781757D03*
D19*
X304412275Y-109235242D03*
D18*
X329383136Y-135088463D03*
D19*
X330967423Y-142541948D03*
D15*
X322286727Y-135298478D03*
D16*
X322327458Y-135586300D03*
D17*
X317092497Y-138252983D03*
D15*
X317581407Y-137402753D03*
D16*
X273177882Y-87606600D03*
D15*
X273137151Y-87318778D03*
D17*
X267942921Y-90273283D03*
D15*
X268431831Y-89423053D03*
D16*
X243831893Y-132795459D03*
D15*
X243791162Y-132507637D03*
D17*
X238596932Y-135462142D03*
D15*
X239085842Y-134611912D03*
D20*
X332416604Y-89558940D03*
D21*
X324963119Y-91143227D03*
D15*
X303653015Y-139259196D03*
D16*
X303693746Y-139547018D03*
D15*
X298947695Y-141363471D03*
D17*
X298458785Y-142213701D03*
D18*
X246926853Y-113663910D03*
D19*
X248511140Y-121117395D03*
D15*
X318326010Y-116664766D03*
D16*
X318366741Y-116952588D03*
D15*
X313620690Y-118769041D03*
D17*
X313131780Y-119619271D03*
D18*
X280068529Y-86332358D03*
D19*
X281652816Y-93785843D03*
D15*
X161637753Y-115070731D03*
D22*
X161557896Y-115350235D03*
D15*
X156483345Y-115079255D03*
D23*
X155690883Y-115657122D03*
D15*
X181760141Y-116577011D03*
D24*
X181740141Y-116867011D03*
D15*
X176720141Y-117657011D03*
D25*
X176065142Y-118387011D03*
D26*
X207772000Y-174752000D03*
D27*
X207772000Y-182372000D03*
D26*
X207500000Y-117390000D03*
D27*
X207500000Y-125010000D03*
D15*
X83142188Y-117861572D03*
D22*
X83062331Y-118141076D03*
D23*
X77195318Y-118447963D03*
D15*
X77987780Y-117870096D03*
D28*
X195795000Y-84150000D03*
X198335000Y-84150000D03*
D29*
X200875000Y-84150000D03*
D24*
X181740141Y-136044011D03*
D15*
X181760141Y-135754011D03*
D25*
X176065142Y-137564011D03*
D15*
X176720141Y-136834011D03*
D30*
X135064391Y-90433690D03*
D31*
X133480104Y-97887175D03*
D12*
X158776743Y-129442144D03*
D11*
X151323258Y-127857857D03*
D22*
X128251190Y-88795088D03*
D15*
X128331047Y-88515584D03*
D23*
X122384177Y-89101975D03*
D15*
X123176639Y-88524108D03*
X153716318Y-152338155D03*
D22*
X153636461Y-152617659D03*
D15*
X148561910Y-152346679D03*
D23*
X147769448Y-152924546D03*
D15*
X157677036Y-133704443D03*
D22*
X157597179Y-133983947D03*
D23*
X151730166Y-134290834D03*
D15*
X152522628Y-133712967D03*
D26*
X188745141Y-155407261D03*
D27*
X188745141Y-163027261D03*
D22*
X146884902Y-92755806D03*
D15*
X146964759Y-92476302D03*
D23*
X141017889Y-93062693D03*
D15*
X141810351Y-92484826D03*
D30*
X145611637Y-132438236D03*
D31*
X144027350Y-139891721D03*
D30*
X141660544Y-151035457D03*
D31*
X140076257Y-158488942D03*
D15*
X87102906Y-99227861D03*
D22*
X87023049Y-99507365D03*
D23*
X81156036Y-99814252D03*
D15*
X81948498Y-99236385D03*
D26*
X188700000Y-117590000D03*
D27*
X188700000Y-125210000D03*
D30*
X85755144Y-139097457D03*
D31*
X84170857Y-146550942D03*
D15*
X195770141Y-136834011D03*
D25*
X195115142Y-137564011D03*
D24*
X200790141Y-136044011D03*
D15*
X200810141Y-135754011D03*
D25*
X195115142Y-156741011D03*
D15*
X195770141Y-156011011D03*
X200810141Y-154931011D03*
D24*
X200790141Y-155221011D03*
D30*
X89710502Y-120556083D03*
D31*
X88126215Y-128009568D03*
D26*
X225800000Y-155340000D03*
D27*
X225800000Y-162960000D03*
D26*
X225850000Y-136240000D03*
D27*
X225850000Y-143860000D03*
D30*
X97616944Y-83369857D03*
D31*
X96032657Y-90823342D03*
D15*
X105736618Y-103188578D03*
D22*
X105656761Y-103468082D03*
D15*
X100582210Y-103197102D03*
D23*
X99789748Y-103774969D03*
D30*
X75037508Y-97961653D03*
D31*
X73453221Y-105415138D03*
D24*
X219840141Y-155221011D03*
D15*
X219860141Y-154931011D03*
D25*
X214165142Y-156741011D03*
D15*
X214820141Y-156011011D03*
X195770141Y-117657011D03*
D25*
X195115142Y-118387011D03*
D24*
X200790141Y-116867011D03*
D15*
X200810141Y-116577011D03*
D25*
X195115142Y-175918011D03*
D15*
X195770141Y-175188011D03*
D24*
X200790141Y-174398011D03*
D15*
X200810141Y-174108011D03*
D22*
X97735326Y-140735506D03*
D15*
X97815183Y-140456002D03*
D23*
X91868313Y-141042393D03*
D15*
X92660775Y-140464526D03*
D26*
X207795141Y-155407261D03*
D27*
X207795141Y-163027261D03*
D30*
X123016944Y-147174657D03*
D31*
X121432657Y-154628142D03*
D15*
X101775900Y-121822290D03*
D22*
X101696043Y-122101794D03*
D23*
X95829030Y-122408681D03*
D15*
X96621492Y-121830814D03*
X143004042Y-111110014D03*
D22*
X142924185Y-111389518D03*
D15*
X137849634Y-111118538D03*
D23*
X137057172Y-111696405D03*
D22*
X90983767Y-80873653D03*
D15*
X91063624Y-80594149D03*
D23*
X85116754Y-81180540D03*
D15*
X85909216Y-80602673D03*
D22*
X64428620Y-114180359D03*
D15*
X64508477Y-113900855D03*
D23*
X58561607Y-114487246D03*
D15*
X59354069Y-113909379D03*
D30*
X79163255Y-78551537D03*
D31*
X77578968Y-86005022D03*
D15*
X219860141Y-116577011D03*
D24*
X219840141Y-116867011D03*
D15*
X214820141Y-117657011D03*
D25*
X214165142Y-118387011D03*
D15*
X181760141Y-174108011D03*
D24*
X181740141Y-174398011D03*
D25*
X176065142Y-175918011D03*
D15*
X176720141Y-175188011D03*
D30*
X67116072Y-135229077D03*
D31*
X65531785Y-142682562D03*
D15*
X139043324Y-129743725D03*
D22*
X138963467Y-130023229D03*
D23*
X133096454Y-130330116D03*
D15*
X133888916Y-129752249D03*
D30*
X116235144Y-87357657D03*
D31*
X114650857Y-94811142D03*
D30*
X93671220Y-101922371D03*
D31*
X92086933Y-109375856D03*
D30*
X104398744Y-143059857D03*
D31*
X102814457Y-150513342D03*
D12*
X154803485Y-147784287D03*
D11*
X147350000Y-146200000D03*
D26*
X225450000Y-177440000D03*
D27*
X225450000Y-185060000D03*
D15*
X219860141Y-135754011D03*
D24*
X219840141Y-136044011D03*
D25*
X214165142Y-137564011D03*
D15*
X214820141Y-136834011D03*
D30*
X71076790Y-116595365D03*
D31*
X69492503Y-124048850D03*
D26*
X207922141Y-136230261D03*
D27*
X207922141Y-143850261D03*
D22*
X68389337Y-95546647D03*
D15*
X68469194Y-95267143D03*
D23*
X62522324Y-95853534D03*
D15*
X63314786Y-95275667D03*
X181760141Y-154931011D03*
D24*
X181740141Y-155221011D03*
D25*
X176065142Y-156741011D03*
D15*
X176720141Y-156011011D03*
D22*
X79101614Y-136774788D03*
D15*
X79181471Y-136495284D03*
X74027063Y-136503808D03*
D23*
X73234601Y-137081675D03*
D22*
X60467902Y-132814070D03*
D15*
X60547759Y-132534566D03*
D23*
X54600889Y-133120957D03*
D15*
X55393351Y-132543090D03*
D30*
X149572355Y-113804524D03*
D31*
X147988068Y-121258009D03*
D15*
X165598471Y-96437020D03*
D22*
X165518614Y-96716524D03*
D23*
X159651601Y-97023411D03*
D15*
X160444063Y-96445544D03*
D30*
X153698103Y-94394407D03*
D31*
X152113816Y-101847892D03*
D30*
X126977925Y-128477518D03*
D31*
X125393638Y-135931003D03*
D30*
X112304931Y-105883088D03*
D31*
X110720644Y-113336573D03*
D22*
X120329755Y-126062512D03*
D15*
X120409612Y-125783008D03*
D23*
X114462742Y-126369399D03*
D15*
X115255204Y-125791532D03*
X135082606Y-148377437D03*
D22*
X135002749Y-148656941D03*
D23*
X129135736Y-148963828D03*
D15*
X129928198Y-148385961D03*
D26*
X188872141Y-136230261D03*
D27*
X188872141Y-143850261D03*
D26*
X188745141Y-174743011D03*
D27*
X188745141Y-182363011D03*
D26*
X225650000Y-117790000D03*
D27*
X225650000Y-125410000D03*
D30*
X130938643Y-109843806D03*
D31*
X129354356Y-117297291D03*
D30*
X108344214Y-124516800D03*
D31*
X106759927Y-131970285D03*
D12*
X162726743Y-110542144D03*
D11*
X155273258Y-108957857D03*
D22*
X124290473Y-107428800D03*
D15*
X124370330Y-107149296D03*
X119215922Y-107157820D03*
D23*
X118423460Y-107735687D03*
D15*
X72429912Y-76633431D03*
D22*
X72350055Y-76912935D03*
D15*
X67275504Y-76641955D03*
D23*
X66483042Y-77219822D03*
D22*
X109617479Y-84834370D03*
D15*
X109697336Y-84554866D03*
X104542928Y-84563390D03*
D23*
X103750466Y-85141257D03*
D15*
X116448894Y-144416720D03*
D22*
X116369037Y-144696224D03*
D23*
X110502024Y-145003111D03*
D15*
X111294486Y-144425244D03*
X219860141Y-174108011D03*
D24*
X219840141Y-174398011D03*
D15*
X214820141Y-175188011D03*
D25*
X214165142Y-175918011D03*
D32*
X195000000Y-97850000D03*
X201500000Y-93350000D03*
X195000000Y-93350000D03*
X201500000Y-97850000D03*
D33*
X191237701Y-113712299D03*
D34*
X191237701Y-120238128D02*
X191237701Y-113712299D01*
X188700000Y-122775829D02*
X191237701Y-120238128D01*
X188700000Y-125210000D02*
X188700000Y-122775829D01*
X236621277Y-142678723D02*
X228547141Y-134604587D01*
X228547141Y-134604587D02*
X228547141Y-126036242D01*
X213263740Y-114050000D02*
X192600000Y-114050000D01*
X228547141Y-126036242D02*
X222917909Y-120407010D01*
X222917909Y-120407010D02*
X219620750Y-120407010D01*
X219620750Y-120407010D02*
X213263740Y-114050000D01*
X192600000Y-114050000D02*
X190830200Y-112280200D01*
X190830200Y-112280200D02*
X190830200Y-109211011D01*
X206070200Y-106671011D02*
X194171011Y-106671011D01*
X163803587Y-111667144D02*
X160967144Y-111667144D01*
X194171011Y-106671011D02*
X192969711Y-105469711D01*
X192969711Y-105469711D02*
X170001020Y-105469711D01*
X170001020Y-105469711D02*
X163803587Y-111667144D01*
X190830200Y-106671011D02*
X184742593Y-106671011D01*
X184742593Y-106671011D02*
X164005747Y-127407857D01*
X164005747Y-127407857D02*
X154137916Y-127407857D01*
X154137916Y-127407857D02*
X147988068Y-121258009D01*
X208496243Y-108009711D02*
X193496107Y-108009711D01*
X193496107Y-108009711D02*
X192157407Y-106671011D01*
X192157407Y-106671011D02*
X190830200Y-106671011D01*
X192859711Y-108009711D02*
X194100000Y-109250000D01*
X184040289Y-108009711D02*
X192859711Y-108009711D01*
X194138989Y-109211011D02*
X206070200Y-109211011D01*
X194100000Y-109250000D02*
X194138989Y-109211011D01*
X151323258Y-127857857D02*
X164192143Y-127857857D01*
X164192143Y-127857857D02*
X184040289Y-108009711D01*
X244385392Y-101707278D02*
X239421659Y-106671011D01*
X239421659Y-106671011D02*
X206070200Y-106671011D01*
X248511140Y-121117395D02*
X247888623Y-121739912D01*
X226900000Y-116300000D02*
X225727011Y-115127011D01*
X247888623Y-121739912D02*
X229839912Y-121739912D01*
X229839912Y-121739912D02*
X226900000Y-118800000D01*
X215643266Y-115156734D02*
X208496243Y-108009711D01*
X226900000Y-118800000D02*
X226900000Y-116300000D01*
X225727011Y-115127011D02*
X215672989Y-115127011D01*
X215672989Y-115127011D02*
X215643266Y-115156734D01*
X252471858Y-139751107D02*
X251849341Y-140373624D01*
X251849341Y-140373624D02*
X234952574Y-140373624D01*
X234952574Y-140373624D02*
X228997141Y-134418191D01*
X228997141Y-134418191D02*
X228997141Y-125849846D01*
X228997141Y-125849846D02*
X223047295Y-119900000D01*
X223047295Y-119900000D02*
X219750136Y-119900000D01*
X219750136Y-119900000D02*
X209061147Y-109211011D01*
X209061147Y-109211011D02*
X206070200Y-109211011D01*
X252327371Y-158384818D02*
X236621277Y-142678723D01*
X256432576Y-158384818D02*
X252327371Y-158384818D01*
X147350000Y-146200000D02*
X158027285Y-146200000D01*
X158027285Y-146200000D02*
X176851240Y-127376045D01*
X176851240Y-127376045D02*
X176851240Y-119798760D01*
X185338989Y-109211011D02*
X190830200Y-109211011D01*
X176851240Y-119798760D02*
X179250000Y-117400000D01*
X179250000Y-117400000D02*
X179250000Y-115300000D01*
X179250000Y-115300000D02*
X185338989Y-109211011D01*
X157982545Y-111667144D02*
X160967144Y-111667144D01*
X155273258Y-108957857D02*
X157982545Y-111667144D01*
X324963119Y-91143227D02*
X324199059Y-91143227D01*
X324199059Y-91143227D02*
X318920240Y-85864408D01*
X200875000Y-84150000D02*
X200875000Y-82575000D01*
X200875000Y-82575000D02*
X199571011Y-81271011D01*
X199571011Y-81271011D02*
X190830200Y-81271011D01*
D35*
X190830200Y-86351011D02*
X199501011Y-86351011D01*
X198335000Y-84150000D02*
X199501011Y-85316011D01*
X199501011Y-86351011D02*
X203530200Y-86351011D01*
X199501011Y-85316011D02*
X199501011Y-86351011D01*
D34*
X206070200Y-86351011D02*
X202725000Y-89696211D01*
X202725000Y-89696211D02*
X202725000Y-96625000D01*
X202725000Y-96625000D02*
X201500000Y-97850000D01*
D35*
X195000000Y-93350000D02*
X190830200Y-89180200D01*
X190830200Y-89180200D02*
X190830200Y-88891011D01*
D34*
X225800000Y-155340000D02*
X219991152Y-155340000D01*
X219991152Y-155340000D02*
X219820141Y-155511011D01*
X147626743Y-107492144D02*
X152684599Y-112550000D01*
X152684599Y-112550000D02*
X159117022Y-112550000D01*
X159117022Y-112550000D02*
X161637753Y-115070731D01*
X129354356Y-117297291D02*
X129354356Y-116726759D01*
X129354356Y-116726759D02*
X140173258Y-105907857D01*
X225800000Y-143860000D02*
X225090000Y-143860000D01*
X225090000Y-143860000D02*
X207931880Y-143860000D01*
X225850000Y-143860000D02*
X225090000Y-143860000D01*
X225850000Y-136240000D02*
X220041152Y-136240000D01*
X220041152Y-136240000D02*
X219947141Y-136334011D01*
X188872141Y-136230261D02*
X181696891Y-136230261D01*
X225450000Y-185060000D02*
X227832857Y-182677143D01*
X227832857Y-182677143D02*
X227832857Y-164014977D01*
X225450000Y-185060000D02*
X210460000Y-185060000D01*
X210460000Y-185060000D02*
X207772000Y-182372000D01*
X219820141Y-174688011D02*
X222572130Y-177440000D01*
X222572130Y-177440000D02*
X225450000Y-177440000D01*
X207795141Y-163027261D02*
X188745141Y-163027261D01*
X225800000Y-162960000D02*
X207862402Y-162960000D01*
X207862402Y-162960000D02*
X207795141Y-163027261D01*
X226845141Y-163027261D02*
X225867261Y-163027261D01*
X225867261Y-163027261D02*
X225800000Y-162960000D01*
X207931880Y-143860000D02*
X207922141Y-143850261D01*
X226972141Y-143850261D02*
X226962402Y-143860000D01*
X226962402Y-143860000D02*
X225800000Y-143860000D01*
X225650000Y-117790000D02*
X220453130Y-117790000D01*
X220453130Y-117790000D02*
X219820141Y-117157011D01*
X226972141Y-143850261D02*
X228097141Y-142725261D01*
X228097141Y-142725261D02*
X228097141Y-126719011D01*
X228097141Y-126719011D02*
X226788130Y-125410000D01*
X226788130Y-125410000D02*
X225650000Y-125410000D01*
X207500000Y-125010000D02*
X225250000Y-125010000D01*
X225250000Y-125010000D02*
X225650000Y-125410000D01*
X310749424Y-139049180D02*
X303863031Y-139049180D01*
X303863031Y-139049180D02*
X303653015Y-139259196D01*
X292115712Y-143009898D02*
X285229320Y-143009898D01*
X285229320Y-143009898D02*
X285019304Y-143219914D01*
X273482000Y-146970616D02*
X266595607Y-146970616D01*
X266595607Y-146970616D02*
X266385592Y-147180631D01*
X254848289Y-150931333D02*
X248619001Y-150931333D01*
X248619001Y-150931333D02*
X247833342Y-151716992D01*
X151323258Y-127857857D02*
X147917359Y-131263756D01*
X147917359Y-131263756D02*
X147917359Y-136001712D01*
X147917359Y-136001712D02*
X144027350Y-139891721D01*
X158776743Y-129442144D02*
X157677036Y-133704443D01*
X165438757Y-96996029D02*
X162726743Y-110542144D01*
X152113816Y-101847892D02*
X152113816Y-105798415D01*
X152113816Y-105798415D02*
X155273258Y-108957857D01*
X154803485Y-147784287D02*
X154803485Y-151250988D01*
X154803485Y-151250988D02*
X153716318Y-152338155D01*
X140076257Y-158488942D02*
X140076257Y-157671070D01*
X140076257Y-157671070D02*
X147350000Y-150397327D01*
X147350000Y-150397327D02*
X147350000Y-146200000D01*
D35*
X203530200Y-86351011D02*
X206070200Y-83811011D01*
X190830200Y-86351011D02*
X190830200Y-88891011D01*
D34*
X188745141Y-182363011D02*
X207763011Y-182363011D01*
X188872141Y-143850261D02*
X207922141Y-143850261D01*
X207763011Y-182363011D02*
X207772000Y-182372000D01*
X188900000Y-125010000D02*
X188700000Y-125210000D01*
X227970141Y-161902261D02*
X227970141Y-144848261D01*
X226845141Y-163027261D02*
X227970141Y-161902261D01*
X227832857Y-164014977D02*
X226845141Y-163027261D01*
X227970141Y-144848261D02*
X226972141Y-143850261D01*
X207500000Y-125010000D02*
X188900000Y-125010000D01*
X96032657Y-90823342D02*
X77578968Y-86005022D01*
X281652816Y-93785843D02*
X263019104Y-97746561D01*
X300286528Y-89825125D02*
X281652816Y-93785843D01*
X152113816Y-101847892D02*
X133480104Y-97887175D01*
X114650857Y-94811142D02*
X96032657Y-90823342D01*
X318920240Y-85864408D02*
X300286528Y-89825125D01*
X114650857Y-94811142D02*
X133480104Y-97887175D01*
X263019104Y-97746561D02*
X244385392Y-101707278D01*
X73453221Y-105415138D02*
X92086933Y-109375856D01*
X304412275Y-109235242D02*
X285778564Y-113195959D01*
X129354356Y-117297291D02*
X147988068Y-121258009D01*
X323045987Y-105274524D02*
X304412275Y-109235242D01*
X285778564Y-113195959D02*
X267144852Y-117156677D01*
X329047911Y-109841452D02*
X323045987Y-105274524D01*
X267144852Y-117156677D02*
X248511140Y-121117395D01*
X110720644Y-113336573D02*
X129354356Y-117297291D01*
X92086933Y-109375856D02*
X110720644Y-113336573D01*
X69492503Y-124048850D02*
X88126215Y-128009568D01*
X313667532Y-131093113D02*
X311597152Y-131093113D01*
X326841675Y-123131831D02*
X326841675Y-125379159D01*
X88126215Y-128009568D02*
X106759927Y-131970285D01*
X326841675Y-125379159D02*
X321127721Y-131093113D01*
X106759927Y-131970285D02*
X125393638Y-135931003D01*
X308372993Y-127868954D02*
X289739281Y-131829671D01*
X271105570Y-135790389D02*
X252471858Y-139751107D01*
X125393638Y-135931003D02*
X144027350Y-139891721D01*
X321127721Y-131093113D02*
X313667532Y-131093113D01*
X311597152Y-131093113D02*
X308372993Y-127868954D01*
X289739281Y-131829671D02*
X271105570Y-135790389D01*
X65531785Y-142682562D02*
X84321799Y-146643279D01*
X333008629Y-128475164D02*
X330967423Y-142541948D01*
X103111813Y-150603997D02*
X121901827Y-154564715D01*
X103111813Y-150603997D02*
X84321799Y-146643279D01*
X312333711Y-146502665D02*
X256432576Y-158384818D01*
X330967423Y-142541948D02*
X312333711Y-146502665D01*
X121901827Y-154564715D02*
X140691841Y-158525432D01*
X207128011Y-174108011D02*
X207772000Y-174752000D01*
X200810141Y-174108011D02*
X207128011Y-174108011D01*
X181760141Y-154931011D02*
X188268891Y-154931011D01*
X188268891Y-154931011D02*
X188745141Y-155407261D01*
X200810141Y-154931011D02*
X207318891Y-154931011D01*
X207318891Y-154931011D02*
X207795141Y-155407261D01*
X200770141Y-136334011D02*
X200873891Y-136230261D01*
X200873891Y-136230261D02*
X207922141Y-136230261D01*
X219947141Y-136334011D02*
X220050891Y-136230261D01*
X181720141Y-117157011D02*
X182153130Y-117590000D01*
X182153130Y-117590000D02*
X188700000Y-117590000D01*
X201003130Y-117390000D02*
X207500000Y-117390000D01*
X200770141Y-117157011D02*
X201003130Y-117390000D01*
X97616944Y-83369857D02*
X91063624Y-80594149D01*
X116235144Y-87357657D02*
X109697336Y-84554866D01*
X135064391Y-90433690D02*
X128331047Y-88515584D01*
X153698103Y-94394407D02*
X146964759Y-92476302D01*
X242801105Y-94253793D02*
X235951189Y-95815857D01*
X261434817Y-90293076D02*
X254584901Y-91855139D01*
X280068529Y-86332358D02*
X273218613Y-87894421D01*
X298702241Y-82371640D02*
X291852324Y-83933703D01*
X317335953Y-78410923D02*
X310486036Y-79972986D01*
X329119748Y-76012268D02*
X332416604Y-89558940D01*
X68469194Y-95267143D02*
X75037508Y-97961653D01*
X87102906Y-99227861D02*
X93671220Y-101922371D01*
X105736618Y-103188578D02*
X112304931Y-105883088D01*
X124370330Y-107149296D02*
X130938643Y-109843806D01*
X143004042Y-111110014D02*
X149572355Y-113804524D01*
X239911907Y-114449568D02*
X246926853Y-113663910D01*
X258545618Y-110488851D02*
X265560565Y-109703192D01*
X277179330Y-106528133D02*
X284194277Y-105742474D01*
X295813042Y-102567415D02*
X302827988Y-101781757D01*
X314446754Y-98606698D02*
X321461700Y-97821039D01*
X333080466Y-94645980D02*
X336501396Y-108257165D01*
X64508477Y-113900855D02*
X71076790Y-116595365D01*
X83142188Y-117861572D02*
X89710502Y-120556083D01*
X101775900Y-121822290D02*
X108344214Y-124516800D01*
X120409612Y-125783008D02*
X126977925Y-128477518D01*
X139043324Y-129743725D02*
X145611637Y-132438236D01*
X250887571Y-132297622D02*
X243872624Y-133083280D01*
X269521283Y-128336904D02*
X262506336Y-129122562D01*
X288154994Y-124376186D02*
X281140048Y-125161845D01*
X306788706Y-120415469D02*
X299773760Y-121201127D01*
X318407472Y-117240409D02*
X318407472Y-120321485D01*
X318407472Y-120321485D02*
X321121017Y-123035030D01*
X321121017Y-123035030D02*
X321121017Y-129508826D01*
X336959721Y-112704049D02*
X328231685Y-112704049D01*
X328231685Y-112704049D02*
X325257388Y-115678346D01*
X60547759Y-132534566D02*
X67116072Y-135229077D01*
X79181471Y-136495284D02*
X85755144Y-139097457D01*
X97815183Y-140456002D02*
X104398744Y-143059857D01*
X116448894Y-144416720D02*
X123016944Y-147174657D01*
X135082606Y-148377437D02*
X141660544Y-151035457D01*
X247833342Y-151716992D02*
X247751880Y-151141349D01*
X329383136Y-135088463D02*
X322286727Y-135298478D01*
X340920439Y-131337760D02*
X340462114Y-126890877D01*
X219820141Y-117157011D02*
X220510141Y-117847011D01*
X79163255Y-78551537D02*
X72429912Y-76633431D01*
X188110141Y-174108011D02*
X188745141Y-174743011D01*
X181760141Y-174108011D02*
X188110141Y-174108011D01*
M02*
