G04 #@! TF.GenerationSoftware,KiCad,Pcbnew,(6.0.9)*
G04 #@! TF.CreationDate,2022-12-21T21:08:13+01:00*
G04 #@! TF.ProjectId,t-rex,742d7265-782e-46b6-9963-61645f706362,rev?*
G04 #@! TF.SameCoordinates,Original*
G04 #@! TF.FileFunction,Soldermask,Bot*
G04 #@! TF.FilePolarity,Negative*
%FSLAX46Y46*%
G04 Gerber Fmt 4.6, Leading zero omitted, Abs format (unit mm)*
G04 Created by KiCad (PCBNEW (6.0.9)) date 2022-12-21 21:08:13*
%MOMM*%
%LPD*%
G01*
G04 APERTURE LIST*
G04 Aperture macros list*
%AMHorizOval*
0 Thick line with rounded ends*
0 $1 width*
0 $2 $3 position (X,Y) of the first rounded end (center of the circle)*
0 $4 $5 position (X,Y) of the second rounded end (center of the circle)*
0 Add line between two ends*
20,1,$1,$2,$3,$4,$5,0*
0 Add two circle primitives to create the rounded ends*
1,1,$1,$2,$3*
1,1,$1,$4,$5*%
G04 Aperture macros list end*
%ADD10C,4.400000*%
%ADD11R,1.600000X1.600000*%
%ADD12O,1.600000X1.600000*%
%ADD13C,1.750000*%
%ADD14C,3.987800*%
%ADD15HorizOval,2.250000X0.655001X0.730000X-0.655001X-0.730000X0*%
%ADD16C,2.250000*%
%ADD17HorizOval,2.250000X0.020000X0.290000X-0.020000X-0.290000X0*%
%ADD18R,1.700000X1.700000*%
%ADD19O,1.700000X1.700000*%
%ADD20R,1.752600X1.752600*%
%ADD21C,1.752600*%
G04 APERTURE END LIST*
D10*
X242887500Y-42862500D03*
X242887500Y-100012500D03*
X147486914Y-100010649D03*
X147637500Y-61912500D03*
X52387500Y-100012500D03*
X52387500Y-42862500D03*
D11*
X57150000Y-42862500D03*
D12*
X64770000Y-42862500D03*
D13*
X219392500Y-90487500D03*
D14*
X214312500Y-90487500D03*
D13*
X209232500Y-90487500D03*
D15*
X211157501Y-87217500D03*
D16*
X211812500Y-86487500D03*
X216852500Y-85407500D03*
D17*
X216832500Y-85697500D03*
D11*
X242697000Y-36322000D03*
D12*
X242697000Y-28702000D03*
D13*
X66992500Y-90487500D03*
D14*
X61912500Y-90487500D03*
D13*
X56832500Y-90487500D03*
D16*
X59412500Y-86487500D03*
D15*
X58757501Y-87217500D03*
D17*
X64432500Y-85697500D03*
D16*
X64452500Y-85407500D03*
D18*
X46196250Y-42862500D03*
D19*
X43656250Y-42862500D03*
X41116250Y-42862500D03*
D11*
X242887500Y-75247500D03*
D12*
X242887500Y-67627500D03*
D14*
X157162500Y-33337500D03*
D13*
X162242500Y-33337500D03*
X152082500Y-33337500D03*
D15*
X154007501Y-30067500D03*
D16*
X154662500Y-29337500D03*
X159702500Y-28257500D03*
D17*
X159682500Y-28547500D03*
D11*
X204787500Y-75247500D03*
D12*
X204787500Y-67627500D03*
D11*
X242887500Y-113347500D03*
D12*
X242887500Y-105727500D03*
D13*
X247332500Y-90487500D03*
D14*
X252412500Y-90487500D03*
D13*
X257492500Y-90487500D03*
D15*
X249257501Y-87217500D03*
D16*
X249912500Y-86487500D03*
D17*
X254932500Y-85697500D03*
D16*
X254952500Y-85407500D03*
D11*
X109537500Y-55403750D03*
D12*
X109537500Y-47783750D03*
D13*
X162242500Y-52387500D03*
X152082500Y-52387500D03*
D14*
X157162500Y-52387500D03*
D16*
X154662500Y-48387500D03*
D15*
X154007501Y-49117500D03*
D17*
X159682500Y-47597500D03*
D16*
X159702500Y-47307500D03*
D11*
X166687500Y-94297500D03*
D12*
X166687500Y-86677500D03*
D11*
X147637500Y-94297500D03*
D12*
X147637500Y-86677500D03*
D14*
X100012500Y-52387500D03*
D13*
X94932500Y-52387500D03*
X105092500Y-52387500D03*
D16*
X97512500Y-48387500D03*
D15*
X96857501Y-49117500D03*
D17*
X102532500Y-47597500D03*
D16*
X102552500Y-47307500D03*
D14*
X138112500Y-109537500D03*
D13*
X133032500Y-109537500D03*
X143192500Y-109537500D03*
D16*
X135612500Y-105537500D03*
D15*
X134957501Y-106267500D03*
D17*
X140632500Y-104747500D03*
D16*
X140652500Y-104457500D03*
D13*
X143192500Y-90487500D03*
X133032500Y-90487500D03*
D14*
X138112500Y-90487500D03*
D15*
X134957501Y-87217500D03*
D16*
X135612500Y-86487500D03*
D17*
X140632500Y-85697500D03*
D16*
X140652500Y-85407500D03*
D11*
X109537500Y-36353750D03*
D12*
X109537500Y-28733750D03*
D14*
X157162500Y-90487500D03*
D13*
X152082500Y-90487500D03*
X162242500Y-90487500D03*
D16*
X154662500Y-86487500D03*
D15*
X154007501Y-87217500D03*
D16*
X159702500Y-85407500D03*
D17*
X159682500Y-85697500D03*
D14*
X176212500Y-52387500D03*
D13*
X171132500Y-52387500D03*
X181292500Y-52387500D03*
D16*
X173712500Y-48387500D03*
D15*
X173057501Y-49117500D03*
D16*
X178752500Y-47307500D03*
D17*
X178732500Y-47597500D03*
D13*
X124142500Y-52387500D03*
D14*
X119062500Y-52387500D03*
D13*
X113982500Y-52387500D03*
D16*
X116562500Y-48387500D03*
D15*
X115907501Y-49117500D03*
D16*
X121602500Y-47307500D03*
D17*
X121582500Y-47597500D03*
D11*
X128587500Y-94297500D03*
D12*
X128587500Y-86677500D03*
D13*
X171132500Y-90487500D03*
D14*
X176212500Y-90487500D03*
D13*
X181292500Y-90487500D03*
D16*
X173712500Y-86487500D03*
D15*
X173057501Y-87217500D03*
D17*
X178732500Y-85697500D03*
D16*
X178752500Y-85407500D03*
D11*
X128587500Y-113347500D03*
D12*
X128587500Y-105727500D03*
D11*
X185737500Y-113347500D03*
D12*
X185737500Y-105727500D03*
D13*
X56832500Y-71437500D03*
X66992500Y-71437500D03*
D14*
X61912500Y-71437500D03*
D15*
X58757501Y-68167500D03*
D16*
X59412500Y-67437500D03*
X64452500Y-66357500D03*
D17*
X64432500Y-66647500D03*
D14*
X195262500Y-52387500D03*
D13*
X190182500Y-52387500D03*
X200342500Y-52387500D03*
D15*
X192107501Y-49117500D03*
D16*
X192762500Y-48387500D03*
D17*
X197782500Y-47597500D03*
D16*
X197802500Y-47307500D03*
D11*
X223837500Y-36353750D03*
D12*
X223837500Y-28733750D03*
D11*
X247808750Y-100012500D03*
D12*
X255428750Y-100012500D03*
D11*
X71437500Y-113347500D03*
D12*
X71437500Y-105727500D03*
D14*
X176212500Y-33337500D03*
D13*
X181292500Y-33337500D03*
X171132500Y-33337500D03*
D15*
X173057501Y-30067500D03*
D16*
X173712500Y-29337500D03*
D17*
X178732500Y-28547500D03*
D16*
X178752500Y-28257500D03*
D11*
X204787500Y-94297500D03*
D12*
X204787500Y-86677500D03*
D13*
X124142500Y-33337500D03*
D14*
X119062500Y-33337500D03*
D13*
X113982500Y-33337500D03*
D16*
X116562500Y-29337500D03*
D15*
X115907501Y-30067500D03*
D16*
X121602500Y-28257500D03*
D17*
X121582500Y-28547500D03*
D13*
X190182500Y-90487500D03*
D14*
X195262500Y-90487500D03*
D13*
X200342500Y-90487500D03*
D16*
X192762500Y-86487500D03*
D15*
X192107501Y-87217500D03*
D16*
X197802500Y-85407500D03*
D17*
X197782500Y-85697500D03*
D11*
X71437500Y-94297500D03*
D12*
X71437500Y-86677500D03*
D11*
X185737500Y-75247500D03*
D12*
X185737500Y-67627500D03*
D11*
X147637500Y-36353750D03*
D12*
X147637500Y-28733750D03*
D11*
X204787500Y-36353750D03*
D12*
X204787500Y-28733750D03*
D11*
X62706250Y-61912500D03*
D12*
X70326250Y-61912500D03*
D14*
X80962500Y-71437500D03*
D13*
X75882500Y-71437500D03*
X86042500Y-71437500D03*
D16*
X78462500Y-67437500D03*
D15*
X77807501Y-68167500D03*
D17*
X83482500Y-66647500D03*
D16*
X83502500Y-66357500D03*
D14*
X233362500Y-71437500D03*
D13*
X228282500Y-71437500D03*
X238442500Y-71437500D03*
D15*
X230207501Y-68167500D03*
D16*
X230862500Y-67437500D03*
X235902500Y-66357500D03*
D17*
X235882500Y-66647500D03*
D11*
X228346000Y-98552000D03*
D12*
X235966000Y-98552000D03*
D13*
X162242500Y-109537500D03*
D14*
X157162500Y-109537500D03*
D13*
X152082500Y-109537500D03*
D16*
X154662500Y-105537500D03*
D15*
X154007501Y-106267500D03*
D17*
X159682500Y-104747500D03*
D16*
X159702500Y-104457500D03*
D11*
X52387500Y-75247500D03*
D12*
X52387500Y-67627500D03*
D11*
X223837500Y-94297500D03*
D12*
X223837500Y-86677500D03*
D13*
X238442500Y-109537500D03*
D14*
X233362500Y-109537500D03*
D13*
X228282500Y-109537500D03*
D15*
X230207501Y-106267500D03*
D16*
X230862500Y-105537500D03*
X235902500Y-104457500D03*
D17*
X235882500Y-104747500D03*
D11*
X248443750Y-61912500D03*
D12*
X256063750Y-61912500D03*
D14*
X138112500Y-33337500D03*
D13*
X133032500Y-33337500D03*
X143192500Y-33337500D03*
D16*
X135612500Y-29337500D03*
D15*
X134957501Y-30067500D03*
D16*
X140652500Y-28257500D03*
D17*
X140632500Y-28547500D03*
D14*
X233362500Y-33337500D03*
D13*
X228282500Y-33337500D03*
X238442500Y-33337500D03*
D16*
X230862500Y-29337500D03*
D15*
X230207501Y-30067500D03*
D16*
X235902500Y-28257500D03*
D17*
X235882500Y-28547500D03*
D13*
X209232500Y-33337500D03*
D14*
X214312500Y-33337500D03*
D13*
X219392500Y-33337500D03*
D15*
X211157501Y-30067500D03*
D16*
X211812500Y-29337500D03*
D17*
X216832500Y-28547500D03*
D16*
X216852500Y-28257500D03*
D14*
X61912500Y-33337500D03*
D13*
X56832500Y-33337500D03*
X66992500Y-33337500D03*
D15*
X58757501Y-30067500D03*
D16*
X59412500Y-29337500D03*
D17*
X64432500Y-28547500D03*
D16*
X64452500Y-28257500D03*
D13*
X75882500Y-109537500D03*
X86042500Y-109537500D03*
D14*
X80962500Y-109537500D03*
D16*
X78462500Y-105537500D03*
D15*
X77807501Y-106267500D03*
D17*
X83482500Y-104747500D03*
D16*
X83502500Y-104457500D03*
D11*
X128587500Y-36353750D03*
D12*
X128587500Y-28733750D03*
D11*
X109537500Y-113347500D03*
D12*
X109537500Y-105727500D03*
D13*
X86042500Y-90487500D03*
D14*
X80962500Y-90487500D03*
D13*
X75882500Y-90487500D03*
D16*
X78462500Y-86487500D03*
D15*
X77807501Y-87217500D03*
D16*
X83502500Y-85407500D03*
D17*
X83482500Y-85697500D03*
D14*
X119062500Y-71437500D03*
D13*
X124142500Y-71437500D03*
X113982500Y-71437500D03*
D15*
X115907501Y-68167500D03*
D16*
X116562500Y-67437500D03*
D17*
X121582500Y-66647500D03*
D16*
X121602500Y-66357500D03*
D14*
X61912500Y-52387500D03*
D13*
X66992500Y-52387500D03*
X56832500Y-52387500D03*
D16*
X59412500Y-48387500D03*
D15*
X58757501Y-49117500D03*
D17*
X64432500Y-47597500D03*
D16*
X64452500Y-47307500D03*
D13*
X209232500Y-109537500D03*
D14*
X214312500Y-109537500D03*
D13*
X219392500Y-109537500D03*
D16*
X211812500Y-105537500D03*
D15*
X211157501Y-106267500D03*
D16*
X216852500Y-104457500D03*
D17*
X216832500Y-104747500D03*
D13*
X47942500Y-90487500D03*
D14*
X42862500Y-90487500D03*
D13*
X37782500Y-90487500D03*
D16*
X40362500Y-86487500D03*
D15*
X39707501Y-87217500D03*
D17*
X45382500Y-85697500D03*
D16*
X45402500Y-85407500D03*
D11*
X223837500Y-55403750D03*
D12*
X223837500Y-47783750D03*
D11*
X52387500Y-55403750D03*
D12*
X52387500Y-47783750D03*
D14*
X252412500Y-33337500D03*
D13*
X247332500Y-33337500D03*
X257492500Y-33337500D03*
D15*
X249257501Y-30067500D03*
D16*
X249912500Y-29337500D03*
X254952500Y-28257500D03*
D17*
X254932500Y-28547500D03*
D13*
X37782500Y-33337500D03*
D14*
X42862500Y-33337500D03*
D13*
X47942500Y-33337500D03*
D16*
X40362500Y-29337500D03*
D15*
X39707501Y-30067500D03*
D17*
X45382500Y-28547500D03*
D16*
X45402500Y-28257500D03*
D11*
X52387500Y-113347500D03*
D12*
X52387500Y-105727500D03*
D11*
X185737500Y-55403750D03*
D12*
X185737500Y-47783750D03*
D13*
X124142500Y-90487500D03*
D14*
X119062500Y-90487500D03*
D13*
X113982500Y-90487500D03*
D16*
X116562500Y-86487500D03*
D15*
X115907501Y-87217500D03*
D16*
X121602500Y-85407500D03*
D17*
X121582500Y-85697500D03*
D11*
X166687500Y-75247500D03*
D12*
X166687500Y-67627500D03*
D11*
X86487000Y-61912500D03*
D12*
X94107000Y-61912500D03*
D13*
X228282500Y-90487500D03*
D14*
X233362500Y-90487500D03*
D13*
X238442500Y-90487500D03*
D16*
X230862500Y-86487500D03*
D15*
X230207501Y-87217500D03*
D17*
X235882500Y-85697500D03*
D16*
X235902500Y-85407500D03*
D13*
X209232500Y-71437500D03*
D14*
X214312500Y-71437500D03*
D13*
X219392500Y-71437500D03*
D15*
X211157501Y-68167500D03*
D16*
X211812500Y-67437500D03*
D17*
X216832500Y-66647500D03*
D16*
X216852500Y-66357500D03*
D11*
X147637500Y-75247500D03*
D12*
X147637500Y-67627500D03*
D11*
X71437500Y-75247500D03*
D12*
X71437500Y-67627500D03*
D11*
X90487500Y-113347500D03*
D12*
X90487500Y-105727500D03*
D11*
X204787500Y-55403750D03*
D12*
X204787500Y-47783750D03*
D11*
X147637500Y-113347500D03*
D12*
X147637500Y-105727500D03*
D11*
X74612500Y-61912500D03*
D12*
X82232500Y-61912500D03*
D13*
X257492500Y-71437500D03*
X247332500Y-71437500D03*
D14*
X252412500Y-71437500D03*
D15*
X249257501Y-68167500D03*
D16*
X249912500Y-67437500D03*
D17*
X254932500Y-66647500D03*
D16*
X254952500Y-66357500D03*
D13*
X200342500Y-33337500D03*
D14*
X195262500Y-33337500D03*
D13*
X190182500Y-33337500D03*
D16*
X192762500Y-29337500D03*
D15*
X192107501Y-30067500D03*
D16*
X197802500Y-28257500D03*
D17*
X197782500Y-28547500D03*
D11*
X52387500Y-94297500D03*
D12*
X52387500Y-86677500D03*
D11*
X185737500Y-36353750D03*
D12*
X185737500Y-28733750D03*
D13*
X257492500Y-52387500D03*
D14*
X252412500Y-52387500D03*
D13*
X247332500Y-52387500D03*
D15*
X249257501Y-49117500D03*
D16*
X249912500Y-48387500D03*
D17*
X254932500Y-47597500D03*
D16*
X254952500Y-47307500D03*
D14*
X42862500Y-71437500D03*
D13*
X47942500Y-71437500D03*
X37782500Y-71437500D03*
D15*
X39707501Y-68167500D03*
D16*
X40362500Y-67437500D03*
D17*
X45382500Y-66647500D03*
D16*
X45402500Y-66357500D03*
D13*
X105092500Y-33337500D03*
X94932500Y-33337500D03*
D14*
X100012500Y-33337500D03*
D15*
X96857501Y-30067500D03*
D16*
X97512500Y-29337500D03*
X102552500Y-28257500D03*
D17*
X102532500Y-28547500D03*
D14*
X157162500Y-71437500D03*
D13*
X162242500Y-71437500D03*
X152082500Y-71437500D03*
D16*
X154662500Y-67437500D03*
D15*
X154007501Y-68167500D03*
D16*
X159702500Y-66357500D03*
D17*
X159682500Y-66647500D03*
D13*
X66992500Y-109537500D03*
D14*
X61912500Y-109537500D03*
D13*
X56832500Y-109537500D03*
D15*
X58757501Y-106267500D03*
D16*
X59412500Y-105537500D03*
X64452500Y-104457500D03*
D17*
X64432500Y-104747500D03*
D13*
X47942500Y-109537500D03*
D14*
X42862500Y-109537500D03*
D13*
X37782500Y-109537500D03*
D15*
X39707501Y-106267500D03*
D16*
X40362500Y-105537500D03*
D17*
X45382500Y-104747500D03*
D16*
X45402500Y-104457500D03*
D14*
X138112500Y-71437500D03*
D13*
X143192500Y-71437500D03*
X133032500Y-71437500D03*
D15*
X134957501Y-68167500D03*
D16*
X135612500Y-67437500D03*
D17*
X140632500Y-66647500D03*
D16*
X140652500Y-66357500D03*
D11*
X128587500Y-75247500D03*
D12*
X128587500Y-67627500D03*
D13*
X200342500Y-71437500D03*
X190182500Y-71437500D03*
D14*
X195262500Y-71437500D03*
D16*
X192762500Y-67437500D03*
D15*
X192107501Y-68167500D03*
D17*
X197782500Y-66647500D03*
D16*
X197802500Y-66357500D03*
D13*
X133032500Y-52387500D03*
D14*
X138112500Y-52387500D03*
D13*
X143192500Y-52387500D03*
D15*
X134957501Y-49117500D03*
D16*
X135612500Y-48387500D03*
D17*
X140632500Y-47597500D03*
D16*
X140652500Y-47307500D03*
D11*
X128587500Y-55403750D03*
D12*
X128587500Y-47783750D03*
D14*
X252412500Y-109537500D03*
D13*
X247332500Y-109537500D03*
X257492500Y-109537500D03*
D15*
X249257501Y-106267500D03*
D16*
X249912500Y-105537500D03*
D17*
X254932500Y-104747500D03*
D16*
X254952500Y-104457500D03*
D11*
X166687500Y-55403750D03*
D12*
X166687500Y-47783750D03*
D11*
X223837500Y-113347500D03*
D12*
X223837500Y-105727500D03*
D11*
X223837500Y-75247500D03*
D12*
X223837500Y-67627500D03*
D11*
X109537500Y-94297500D03*
D12*
X109537500Y-86677500D03*
D11*
X90487500Y-75247500D03*
D12*
X90487500Y-67627500D03*
D13*
X94932500Y-90487500D03*
X105092500Y-90487500D03*
D14*
X100012500Y-90487500D03*
D16*
X97512500Y-86487500D03*
D15*
X96857501Y-87217500D03*
D17*
X102532500Y-85697500D03*
D16*
X102552500Y-85407500D03*
D11*
X247808750Y-80962500D03*
D12*
X255428750Y-80962500D03*
D13*
X113982500Y-109537500D03*
D14*
X119062500Y-109537500D03*
D13*
X124142500Y-109537500D03*
D16*
X116562500Y-105537500D03*
D15*
X115907501Y-106267500D03*
D17*
X121582500Y-104747500D03*
D16*
X121602500Y-104457500D03*
D11*
X166687500Y-36353750D03*
D12*
X166687500Y-28733750D03*
D11*
X166687500Y-113347500D03*
D12*
X166687500Y-105727500D03*
D11*
X52387500Y-36512500D03*
D12*
X52387500Y-28892500D03*
D11*
X204787500Y-113347500D03*
D12*
X204787500Y-105727500D03*
D11*
X247650000Y-42862500D03*
D12*
X255270000Y-42862500D03*
D11*
X109537500Y-75247500D03*
D12*
X109537500Y-67627500D03*
D11*
X90487500Y-94297500D03*
D12*
X90487500Y-86677500D03*
D11*
X147637500Y-55403750D03*
D12*
X147637500Y-47783750D03*
D14*
X100012500Y-71437500D03*
D13*
X94932500Y-71437500D03*
X105092500Y-71437500D03*
D16*
X97512500Y-67437500D03*
D15*
X96857501Y-68167500D03*
D17*
X102532500Y-66647500D03*
D16*
X102552500Y-66357500D03*
D13*
X181292500Y-109537500D03*
D14*
X176212500Y-109537500D03*
D13*
X171132500Y-109537500D03*
D15*
X173057501Y-106267500D03*
D16*
X173712500Y-105537500D03*
D17*
X178732500Y-104747500D03*
D16*
X178752500Y-104457500D03*
D11*
X242887500Y-55403750D03*
D12*
X242887500Y-47783750D03*
D11*
X185737500Y-94297500D03*
D12*
X185737500Y-86677500D03*
D13*
X238442500Y-52387500D03*
X228282500Y-52387500D03*
D14*
X233362500Y-52387500D03*
D16*
X230862500Y-48387500D03*
D15*
X230207501Y-49117500D03*
D16*
X235902500Y-47307500D03*
D17*
X235882500Y-47597500D03*
D11*
X242887500Y-93503750D03*
D12*
X242887500Y-85883750D03*
D13*
X47942500Y-52387500D03*
D14*
X42862500Y-52387500D03*
D13*
X37782500Y-52387500D03*
D16*
X40362500Y-48387500D03*
D15*
X39707501Y-49117500D03*
D17*
X45382500Y-47597500D03*
D16*
X45402500Y-47307500D03*
D13*
X190182500Y-109537500D03*
X200342500Y-109537500D03*
D14*
X195262500Y-109537500D03*
D15*
X192107501Y-106267500D03*
D16*
X192762500Y-105537500D03*
D17*
X197782500Y-104747500D03*
D16*
X197802500Y-104457500D03*
D13*
X86042500Y-52387500D03*
D14*
X80962500Y-52387500D03*
D13*
X75882500Y-52387500D03*
D15*
X77807501Y-49117500D03*
D16*
X78462500Y-48387500D03*
X83502500Y-47307500D03*
D17*
X83482500Y-47597500D03*
D13*
X94932500Y-109537500D03*
X105092500Y-109537500D03*
D14*
X100012500Y-109537500D03*
D15*
X96857501Y-106267500D03*
D16*
X97512500Y-105537500D03*
D17*
X102532500Y-104747500D03*
D16*
X102552500Y-104457500D03*
D13*
X86042500Y-33337500D03*
X75882500Y-33337500D03*
D14*
X80962500Y-33337500D03*
D15*
X77807501Y-30067500D03*
D16*
X78462500Y-29337500D03*
X83502500Y-28257500D03*
D17*
X83482500Y-28547500D03*
D13*
X219392500Y-52387500D03*
D14*
X214312500Y-52387500D03*
D13*
X209232500Y-52387500D03*
D15*
X211157501Y-49117500D03*
D16*
X211812500Y-48387500D03*
D17*
X216832500Y-47597500D03*
D16*
X216852500Y-47307500D03*
D13*
X181292500Y-71437500D03*
X171132500Y-71437500D03*
D14*
X176212500Y-71437500D03*
D16*
X173712500Y-67437500D03*
D15*
X173057501Y-68167500D03*
D17*
X178732500Y-66647500D03*
D16*
X178752500Y-66357500D03*
D20*
X88582500Y-26116750D03*
D21*
X88582500Y-28656750D03*
X88582500Y-31196750D03*
X88582500Y-33736750D03*
X88582500Y-36276750D03*
X88582500Y-38816750D03*
X88582500Y-41356750D03*
X88582500Y-43896750D03*
X88582500Y-46436750D03*
X88582500Y-48976750D03*
X88582500Y-51516750D03*
X88582500Y-54056750D03*
X73342500Y-54056750D03*
X73342500Y-51516750D03*
X73342500Y-48976750D03*
X73342500Y-46436750D03*
X73342500Y-43896750D03*
X73342500Y-41356750D03*
X73342500Y-38816750D03*
X73342500Y-36276750D03*
X73342500Y-33736750D03*
X73342500Y-31196750D03*
X73342500Y-28656750D03*
X73342500Y-26116750D03*
M02*
