G04 #@! TF.GenerationSoftware,KiCad,Pcbnew,7.0.3*
G04 #@! TF.CreationDate,2023-06-14T18:23:54+02:00*
G04 #@! TF.ProjectId,t-rex,742d7265-782e-46b6-9963-61645f706362,rev?*
G04 #@! TF.SameCoordinates,Original*
G04 #@! TF.FileFunction,Legend,Top*
G04 #@! TF.FilePolarity,Positive*
%FSLAX46Y46*%
G04 Gerber Fmt 4.6, Leading zero omitted, Abs format (unit mm)*
G04 Created by KiCad (PCBNEW 7.0.3) date 2023-06-14 18:23:54*
%MOMM*%
%LPD*%
G01*
G04 APERTURE LIST*
%ADD10C,0.150000*%
%ADD11C,0.300000*%
%ADD12C,0.120000*%
%ADD13C,0.381000*%
%ADD14R,1.752600X1.752600*%
%ADD15C,1.752600*%
%ADD16C,4.400000*%
%ADD17R,1.600000X1.600000*%
%ADD18O,1.600000X1.600000*%
%ADD19C,1.750000*%
%ADD20C,3.987800*%
%ADD21R,1.700000X1.700000*%
%ADD22O,1.700000X1.700000*%
%ADD23C,1.800000*%
G04 APERTURE END LIST*
D10*
X60320589Y-41197319D02*
X60320589Y-40197319D01*
X60320589Y-40197319D02*
X60558684Y-40197319D01*
X60558684Y-40197319D02*
X60701541Y-40244938D01*
X60701541Y-40244938D02*
X60796779Y-40340176D01*
X60796779Y-40340176D02*
X60844398Y-40435414D01*
X60844398Y-40435414D02*
X60892017Y-40625890D01*
X60892017Y-40625890D02*
X60892017Y-40768747D01*
X60892017Y-40768747D02*
X60844398Y-40959223D01*
X60844398Y-40959223D02*
X60796779Y-41054461D01*
X60796779Y-41054461D02*
X60701541Y-41149700D01*
X60701541Y-41149700D02*
X60558684Y-41197319D01*
X60558684Y-41197319D02*
X60320589Y-41197319D01*
X61844398Y-41197319D02*
X61272970Y-41197319D01*
X61558684Y-41197319D02*
X61558684Y-40197319D01*
X61558684Y-40197319D02*
X61463446Y-40340176D01*
X61463446Y-40340176D02*
X61368208Y-40435414D01*
X61368208Y-40435414D02*
X61272970Y-40483033D01*
X56986779Y-41517319D02*
X56986779Y-40517319D01*
X57558207Y-41517319D02*
X57129636Y-40945890D01*
X57558207Y-40517319D02*
X56986779Y-41088747D01*
D11*
X125219796Y-76708002D02*
X125074654Y-76635431D01*
X125074654Y-76635431D02*
X124856939Y-76635431D01*
X124856939Y-76635431D02*
X124639225Y-76708002D01*
X124639225Y-76708002D02*
X124494082Y-76853145D01*
X124494082Y-76853145D02*
X124421511Y-76998288D01*
X124421511Y-76998288D02*
X124348939Y-77288574D01*
X124348939Y-77288574D02*
X124348939Y-77506288D01*
X124348939Y-77506288D02*
X124421511Y-77796574D01*
X124421511Y-77796574D02*
X124494082Y-77941717D01*
X124494082Y-77941717D02*
X124639225Y-78086860D01*
X124639225Y-78086860D02*
X124856939Y-78159431D01*
X124856939Y-78159431D02*
X125002082Y-78159431D01*
X125002082Y-78159431D02*
X125219796Y-78086860D01*
X125219796Y-78086860D02*
X125292368Y-78014288D01*
X125292368Y-78014288D02*
X125292368Y-77506288D01*
X125292368Y-77506288D02*
X125002082Y-77506288D01*
X126163225Y-76635431D02*
X126163225Y-76998288D01*
X125800368Y-76853145D02*
X126163225Y-76998288D01*
X126163225Y-76998288D02*
X126526082Y-76853145D01*
X125945511Y-77288574D02*
X126163225Y-76998288D01*
X126163225Y-76998288D02*
X126380939Y-77288574D01*
X127324368Y-76635431D02*
X127324368Y-76998288D01*
X126961511Y-76853145D02*
X127324368Y-76998288D01*
X127324368Y-76998288D02*
X127687225Y-76853145D01*
X127106654Y-77288574D02*
X127324368Y-76998288D01*
X127324368Y-76998288D02*
X127542082Y-77288574D01*
X128485511Y-76635431D02*
X128485511Y-76998288D01*
X128122654Y-76853145D02*
X128485511Y-76998288D01*
X128485511Y-76998288D02*
X128848368Y-76853145D01*
X128267797Y-77288574D02*
X128485511Y-76998288D01*
X128485511Y-76998288D02*
X128703225Y-77288574D01*
D10*
X241031819Y-33627601D02*
X240031819Y-33627601D01*
X240031819Y-33627601D02*
X240031819Y-33389506D01*
X240031819Y-33389506D02*
X240079438Y-33246649D01*
X240079438Y-33246649D02*
X240174676Y-33151411D01*
X240174676Y-33151411D02*
X240269914Y-33103792D01*
X240269914Y-33103792D02*
X240460390Y-33056173D01*
X240460390Y-33056173D02*
X240603247Y-33056173D01*
X240603247Y-33056173D02*
X240793723Y-33103792D01*
X240793723Y-33103792D02*
X240888961Y-33151411D01*
X240888961Y-33151411D02*
X240984200Y-33246649D01*
X240984200Y-33246649D02*
X241031819Y-33389506D01*
X241031819Y-33389506D02*
X241031819Y-33627601D01*
X241031819Y-32103792D02*
X241031819Y-32675220D01*
X241031819Y-32389506D02*
X240031819Y-32389506D01*
X240031819Y-32389506D02*
X240174676Y-32484744D01*
X240174676Y-32484744D02*
X240269914Y-32579982D01*
X240269914Y-32579982D02*
X240317533Y-32675220D01*
X240031819Y-31484744D02*
X240031819Y-31389506D01*
X240031819Y-31389506D02*
X240079438Y-31294268D01*
X240079438Y-31294268D02*
X240127057Y-31246649D01*
X240127057Y-31246649D02*
X240222295Y-31199030D01*
X240222295Y-31199030D02*
X240412771Y-31151411D01*
X240412771Y-31151411D02*
X240650866Y-31151411D01*
X240650866Y-31151411D02*
X240841342Y-31199030D01*
X240841342Y-31199030D02*
X240936580Y-31246649D01*
X240936580Y-31246649D02*
X240984200Y-31294268D01*
X240984200Y-31294268D02*
X241031819Y-31389506D01*
X241031819Y-31389506D02*
X241031819Y-31484744D01*
X241031819Y-31484744D02*
X240984200Y-31579982D01*
X240984200Y-31579982D02*
X240936580Y-31627601D01*
X240936580Y-31627601D02*
X240841342Y-31675220D01*
X240841342Y-31675220D02*
X240650866Y-31722839D01*
X240650866Y-31722839D02*
X240412771Y-31722839D01*
X240412771Y-31722839D02*
X240222295Y-31675220D01*
X240222295Y-31675220D02*
X240127057Y-31627601D01*
X240127057Y-31627601D02*
X240079438Y-31579982D01*
X240079438Y-31579982D02*
X240031819Y-31484744D01*
X241351819Y-36485220D02*
X240351819Y-36485220D01*
X241351819Y-35913792D02*
X240780390Y-36342363D01*
X240351819Y-35913792D02*
X240923247Y-36485220D01*
X47981069Y-43097149D02*
X48695354Y-43097149D01*
X48695354Y-43097149D02*
X48838211Y-43144768D01*
X48838211Y-43144768D02*
X48933450Y-43240006D01*
X48933450Y-43240006D02*
X48981069Y-43382863D01*
X48981069Y-43382863D02*
X48981069Y-43478101D01*
X47981069Y-42430482D02*
X47981069Y-42335244D01*
X47981069Y-42335244D02*
X48028688Y-42240006D01*
X48028688Y-42240006D02*
X48076307Y-42192387D01*
X48076307Y-42192387D02*
X48171545Y-42144768D01*
X48171545Y-42144768D02*
X48362021Y-42097149D01*
X48362021Y-42097149D02*
X48600116Y-42097149D01*
X48600116Y-42097149D02*
X48790592Y-42144768D01*
X48790592Y-42144768D02*
X48885830Y-42192387D01*
X48885830Y-42192387D02*
X48933450Y-42240006D01*
X48933450Y-42240006D02*
X48981069Y-42335244D01*
X48981069Y-42335244D02*
X48981069Y-42430482D01*
X48981069Y-42430482D02*
X48933450Y-42525720D01*
X48933450Y-42525720D02*
X48885830Y-42573339D01*
X48885830Y-42573339D02*
X48790592Y-42620958D01*
X48790592Y-42620958D02*
X48600116Y-42668577D01*
X48600116Y-42668577D02*
X48362021Y-42668577D01*
X48362021Y-42668577D02*
X48171545Y-42620958D01*
X48171545Y-42620958D02*
X48076307Y-42573339D01*
X48076307Y-42573339D02*
X48028688Y-42525720D01*
X48028688Y-42525720D02*
X47981069Y-42430482D01*
X241222319Y-72553101D02*
X240222319Y-72553101D01*
X240222319Y-72553101D02*
X240222319Y-72315006D01*
X240222319Y-72315006D02*
X240269938Y-72172149D01*
X240269938Y-72172149D02*
X240365176Y-72076911D01*
X240365176Y-72076911D02*
X240460414Y-72029292D01*
X240460414Y-72029292D02*
X240650890Y-71981673D01*
X240650890Y-71981673D02*
X240793747Y-71981673D01*
X240793747Y-71981673D02*
X240984223Y-72029292D01*
X240984223Y-72029292D02*
X241079461Y-72076911D01*
X241079461Y-72076911D02*
X241174700Y-72172149D01*
X241174700Y-72172149D02*
X241222319Y-72315006D01*
X241222319Y-72315006D02*
X241222319Y-72553101D01*
X240222319Y-71648339D02*
X240222319Y-71029292D01*
X240222319Y-71029292D02*
X240603271Y-71362625D01*
X240603271Y-71362625D02*
X240603271Y-71219768D01*
X240603271Y-71219768D02*
X240650890Y-71124530D01*
X240650890Y-71124530D02*
X240698509Y-71076911D01*
X240698509Y-71076911D02*
X240793747Y-71029292D01*
X240793747Y-71029292D02*
X241031842Y-71029292D01*
X241031842Y-71029292D02*
X241127080Y-71076911D01*
X241127080Y-71076911D02*
X241174700Y-71124530D01*
X241174700Y-71124530D02*
X241222319Y-71219768D01*
X241222319Y-71219768D02*
X241222319Y-71505482D01*
X241222319Y-71505482D02*
X241174700Y-71600720D01*
X241174700Y-71600720D02*
X241127080Y-71648339D01*
X240555652Y-70172149D02*
X241222319Y-70172149D01*
X240174700Y-70410244D02*
X240888985Y-70648339D01*
X240888985Y-70648339D02*
X240888985Y-70029292D01*
X241542319Y-75410720D02*
X240542319Y-75410720D01*
X241542319Y-74839292D02*
X240970890Y-75267863D01*
X240542319Y-74839292D02*
X241113747Y-75410720D01*
X203122319Y-72553101D02*
X202122319Y-72553101D01*
X202122319Y-72553101D02*
X202122319Y-72315006D01*
X202122319Y-72315006D02*
X202169938Y-72172149D01*
X202169938Y-72172149D02*
X202265176Y-72076911D01*
X202265176Y-72076911D02*
X202360414Y-72029292D01*
X202360414Y-72029292D02*
X202550890Y-71981673D01*
X202550890Y-71981673D02*
X202693747Y-71981673D01*
X202693747Y-71981673D02*
X202884223Y-72029292D01*
X202884223Y-72029292D02*
X202979461Y-72076911D01*
X202979461Y-72076911D02*
X203074700Y-72172149D01*
X203074700Y-72172149D02*
X203122319Y-72315006D01*
X203122319Y-72315006D02*
X203122319Y-72553101D01*
X202122319Y-71648339D02*
X202122319Y-71029292D01*
X202122319Y-71029292D02*
X202503271Y-71362625D01*
X202503271Y-71362625D02*
X202503271Y-71219768D01*
X202503271Y-71219768D02*
X202550890Y-71124530D01*
X202550890Y-71124530D02*
X202598509Y-71076911D01*
X202598509Y-71076911D02*
X202693747Y-71029292D01*
X202693747Y-71029292D02*
X202931842Y-71029292D01*
X202931842Y-71029292D02*
X203027080Y-71076911D01*
X203027080Y-71076911D02*
X203074700Y-71124530D01*
X203074700Y-71124530D02*
X203122319Y-71219768D01*
X203122319Y-71219768D02*
X203122319Y-71505482D01*
X203122319Y-71505482D02*
X203074700Y-71600720D01*
X203074700Y-71600720D02*
X203027080Y-71648339D01*
X202217557Y-70648339D02*
X202169938Y-70600720D01*
X202169938Y-70600720D02*
X202122319Y-70505482D01*
X202122319Y-70505482D02*
X202122319Y-70267387D01*
X202122319Y-70267387D02*
X202169938Y-70172149D01*
X202169938Y-70172149D02*
X202217557Y-70124530D01*
X202217557Y-70124530D02*
X202312795Y-70076911D01*
X202312795Y-70076911D02*
X202408033Y-70076911D01*
X202408033Y-70076911D02*
X202550890Y-70124530D01*
X202550890Y-70124530D02*
X203122319Y-70695958D01*
X203122319Y-70695958D02*
X203122319Y-70076911D01*
X203442319Y-75410720D02*
X202442319Y-75410720D01*
X203442319Y-74839292D02*
X202870890Y-75267863D01*
X202442319Y-74839292D02*
X203013747Y-75410720D01*
X241222319Y-110653101D02*
X240222319Y-110653101D01*
X240222319Y-110653101D02*
X240222319Y-110415006D01*
X240222319Y-110415006D02*
X240269938Y-110272149D01*
X240269938Y-110272149D02*
X240365176Y-110176911D01*
X240365176Y-110176911D02*
X240460414Y-110129292D01*
X240460414Y-110129292D02*
X240650890Y-110081673D01*
X240650890Y-110081673D02*
X240793747Y-110081673D01*
X240793747Y-110081673D02*
X240984223Y-110129292D01*
X240984223Y-110129292D02*
X241079461Y-110176911D01*
X241079461Y-110176911D02*
X241174700Y-110272149D01*
X241174700Y-110272149D02*
X241222319Y-110415006D01*
X241222319Y-110415006D02*
X241222319Y-110653101D01*
X240222319Y-109176911D02*
X240222319Y-109653101D01*
X240222319Y-109653101D02*
X240698509Y-109700720D01*
X240698509Y-109700720D02*
X240650890Y-109653101D01*
X240650890Y-109653101D02*
X240603271Y-109557863D01*
X240603271Y-109557863D02*
X240603271Y-109319768D01*
X240603271Y-109319768D02*
X240650890Y-109224530D01*
X240650890Y-109224530D02*
X240698509Y-109176911D01*
X240698509Y-109176911D02*
X240793747Y-109129292D01*
X240793747Y-109129292D02*
X241031842Y-109129292D01*
X241031842Y-109129292D02*
X241127080Y-109176911D01*
X241127080Y-109176911D02*
X241174700Y-109224530D01*
X241174700Y-109224530D02*
X241222319Y-109319768D01*
X241222319Y-109319768D02*
X241222319Y-109557863D01*
X241222319Y-109557863D02*
X241174700Y-109653101D01*
X241174700Y-109653101D02*
X241127080Y-109700720D01*
X240650890Y-108557863D02*
X240603271Y-108653101D01*
X240603271Y-108653101D02*
X240555652Y-108700720D01*
X240555652Y-108700720D02*
X240460414Y-108748339D01*
X240460414Y-108748339D02*
X240412795Y-108748339D01*
X240412795Y-108748339D02*
X240317557Y-108700720D01*
X240317557Y-108700720D02*
X240269938Y-108653101D01*
X240269938Y-108653101D02*
X240222319Y-108557863D01*
X240222319Y-108557863D02*
X240222319Y-108367387D01*
X240222319Y-108367387D02*
X240269938Y-108272149D01*
X240269938Y-108272149D02*
X240317557Y-108224530D01*
X240317557Y-108224530D02*
X240412795Y-108176911D01*
X240412795Y-108176911D02*
X240460414Y-108176911D01*
X240460414Y-108176911D02*
X240555652Y-108224530D01*
X240555652Y-108224530D02*
X240603271Y-108272149D01*
X240603271Y-108272149D02*
X240650890Y-108367387D01*
X240650890Y-108367387D02*
X240650890Y-108557863D01*
X240650890Y-108557863D02*
X240698509Y-108653101D01*
X240698509Y-108653101D02*
X240746128Y-108700720D01*
X240746128Y-108700720D02*
X240841366Y-108748339D01*
X240841366Y-108748339D02*
X241031842Y-108748339D01*
X241031842Y-108748339D02*
X241127080Y-108700720D01*
X241127080Y-108700720D02*
X241174700Y-108653101D01*
X241174700Y-108653101D02*
X241222319Y-108557863D01*
X241222319Y-108557863D02*
X241222319Y-108367387D01*
X241222319Y-108367387D02*
X241174700Y-108272149D01*
X241174700Y-108272149D02*
X241127080Y-108224530D01*
X241127080Y-108224530D02*
X241031842Y-108176911D01*
X241031842Y-108176911D02*
X240841366Y-108176911D01*
X240841366Y-108176911D02*
X240746128Y-108224530D01*
X240746128Y-108224530D02*
X240698509Y-108272149D01*
X240698509Y-108272149D02*
X240650890Y-108367387D01*
X241542319Y-113510720D02*
X240542319Y-113510720D01*
X241542319Y-112939292D02*
X240970890Y-113367863D01*
X240542319Y-112939292D02*
X241113747Y-113510720D01*
X107872319Y-52709351D02*
X106872319Y-52709351D01*
X106872319Y-52709351D02*
X106872319Y-52471256D01*
X106872319Y-52471256D02*
X106919938Y-52328399D01*
X106919938Y-52328399D02*
X107015176Y-52233161D01*
X107015176Y-52233161D02*
X107110414Y-52185542D01*
X107110414Y-52185542D02*
X107300890Y-52137923D01*
X107300890Y-52137923D02*
X107443747Y-52137923D01*
X107443747Y-52137923D02*
X107634223Y-52185542D01*
X107634223Y-52185542D02*
X107729461Y-52233161D01*
X107729461Y-52233161D02*
X107824700Y-52328399D01*
X107824700Y-52328399D02*
X107872319Y-52471256D01*
X107872319Y-52471256D02*
X107872319Y-52709351D01*
X107872319Y-51185542D02*
X107872319Y-51756970D01*
X107872319Y-51471256D02*
X106872319Y-51471256D01*
X106872319Y-51471256D02*
X107015176Y-51566494D01*
X107015176Y-51566494D02*
X107110414Y-51661732D01*
X107110414Y-51661732D02*
X107158033Y-51756970D01*
X106872319Y-50280780D02*
X106872319Y-50756970D01*
X106872319Y-50756970D02*
X107348509Y-50804589D01*
X107348509Y-50804589D02*
X107300890Y-50756970D01*
X107300890Y-50756970D02*
X107253271Y-50661732D01*
X107253271Y-50661732D02*
X107253271Y-50423637D01*
X107253271Y-50423637D02*
X107300890Y-50328399D01*
X107300890Y-50328399D02*
X107348509Y-50280780D01*
X107348509Y-50280780D02*
X107443747Y-50233161D01*
X107443747Y-50233161D02*
X107681842Y-50233161D01*
X107681842Y-50233161D02*
X107777080Y-50280780D01*
X107777080Y-50280780D02*
X107824700Y-50328399D01*
X107824700Y-50328399D02*
X107872319Y-50423637D01*
X107872319Y-50423637D02*
X107872319Y-50661732D01*
X107872319Y-50661732D02*
X107824700Y-50756970D01*
X107824700Y-50756970D02*
X107777080Y-50804589D01*
X108192319Y-55566970D02*
X107192319Y-55566970D01*
X108192319Y-54995542D02*
X107620890Y-55424113D01*
X107192319Y-54995542D02*
X107763747Y-55566970D01*
X165022319Y-91603101D02*
X164022319Y-91603101D01*
X164022319Y-91603101D02*
X164022319Y-91365006D01*
X164022319Y-91365006D02*
X164069938Y-91222149D01*
X164069938Y-91222149D02*
X164165176Y-91126911D01*
X164165176Y-91126911D02*
X164260414Y-91079292D01*
X164260414Y-91079292D02*
X164450890Y-91031673D01*
X164450890Y-91031673D02*
X164593747Y-91031673D01*
X164593747Y-91031673D02*
X164784223Y-91079292D01*
X164784223Y-91079292D02*
X164879461Y-91126911D01*
X164879461Y-91126911D02*
X164974700Y-91222149D01*
X164974700Y-91222149D02*
X165022319Y-91365006D01*
X165022319Y-91365006D02*
X165022319Y-91603101D01*
X164355652Y-90174530D02*
X165022319Y-90174530D01*
X163974700Y-90412625D02*
X164688985Y-90650720D01*
X164688985Y-90650720D02*
X164688985Y-90031673D01*
X164117557Y-89698339D02*
X164069938Y-89650720D01*
X164069938Y-89650720D02*
X164022319Y-89555482D01*
X164022319Y-89555482D02*
X164022319Y-89317387D01*
X164022319Y-89317387D02*
X164069938Y-89222149D01*
X164069938Y-89222149D02*
X164117557Y-89174530D01*
X164117557Y-89174530D02*
X164212795Y-89126911D01*
X164212795Y-89126911D02*
X164308033Y-89126911D01*
X164308033Y-89126911D02*
X164450890Y-89174530D01*
X164450890Y-89174530D02*
X165022319Y-89745958D01*
X165022319Y-89745958D02*
X165022319Y-89126911D01*
X165342319Y-94460720D02*
X164342319Y-94460720D01*
X165342319Y-93889292D02*
X164770890Y-94317863D01*
X164342319Y-93889292D02*
X164913747Y-94460720D01*
X145972319Y-91603101D02*
X144972319Y-91603101D01*
X144972319Y-91603101D02*
X144972319Y-91365006D01*
X144972319Y-91365006D02*
X145019938Y-91222149D01*
X145019938Y-91222149D02*
X145115176Y-91126911D01*
X145115176Y-91126911D02*
X145210414Y-91079292D01*
X145210414Y-91079292D02*
X145400890Y-91031673D01*
X145400890Y-91031673D02*
X145543747Y-91031673D01*
X145543747Y-91031673D02*
X145734223Y-91079292D01*
X145734223Y-91079292D02*
X145829461Y-91126911D01*
X145829461Y-91126911D02*
X145924700Y-91222149D01*
X145924700Y-91222149D02*
X145972319Y-91365006D01*
X145972319Y-91365006D02*
X145972319Y-91603101D01*
X145305652Y-90174530D02*
X145972319Y-90174530D01*
X144924700Y-90412625D02*
X145638985Y-90650720D01*
X145638985Y-90650720D02*
X145638985Y-90031673D01*
X145972319Y-89126911D02*
X145972319Y-89698339D01*
X145972319Y-89412625D02*
X144972319Y-89412625D01*
X144972319Y-89412625D02*
X145115176Y-89507863D01*
X145115176Y-89507863D02*
X145210414Y-89603101D01*
X145210414Y-89603101D02*
X145258033Y-89698339D01*
X146292319Y-94460720D02*
X145292319Y-94460720D01*
X146292319Y-93889292D02*
X145720890Y-94317863D01*
X145292319Y-93889292D02*
X145863747Y-94460720D01*
X107872319Y-33183160D02*
X106872319Y-33183160D01*
X106872319Y-33183160D02*
X106872319Y-32945065D01*
X106872319Y-32945065D02*
X106919938Y-32802208D01*
X106919938Y-32802208D02*
X107015176Y-32706970D01*
X107015176Y-32706970D02*
X107110414Y-32659351D01*
X107110414Y-32659351D02*
X107300890Y-32611732D01*
X107300890Y-32611732D02*
X107443747Y-32611732D01*
X107443747Y-32611732D02*
X107634223Y-32659351D01*
X107634223Y-32659351D02*
X107729461Y-32706970D01*
X107729461Y-32706970D02*
X107824700Y-32802208D01*
X107824700Y-32802208D02*
X107872319Y-32945065D01*
X107872319Y-32945065D02*
X107872319Y-33183160D01*
X106872319Y-32278398D02*
X106872319Y-31659351D01*
X106872319Y-31659351D02*
X107253271Y-31992684D01*
X107253271Y-31992684D02*
X107253271Y-31849827D01*
X107253271Y-31849827D02*
X107300890Y-31754589D01*
X107300890Y-31754589D02*
X107348509Y-31706970D01*
X107348509Y-31706970D02*
X107443747Y-31659351D01*
X107443747Y-31659351D02*
X107681842Y-31659351D01*
X107681842Y-31659351D02*
X107777080Y-31706970D01*
X107777080Y-31706970D02*
X107824700Y-31754589D01*
X107824700Y-31754589D02*
X107872319Y-31849827D01*
X107872319Y-31849827D02*
X107872319Y-32135541D01*
X107872319Y-32135541D02*
X107824700Y-32230779D01*
X107824700Y-32230779D02*
X107777080Y-32278398D01*
X108192319Y-36516970D02*
X107192319Y-36516970D01*
X108192319Y-35945542D02*
X107620890Y-36374113D01*
X107192319Y-35945542D02*
X107763747Y-36516970D01*
X126922319Y-91603101D02*
X125922319Y-91603101D01*
X125922319Y-91603101D02*
X125922319Y-91365006D01*
X125922319Y-91365006D02*
X125969938Y-91222149D01*
X125969938Y-91222149D02*
X126065176Y-91126911D01*
X126065176Y-91126911D02*
X126160414Y-91079292D01*
X126160414Y-91079292D02*
X126350890Y-91031673D01*
X126350890Y-91031673D02*
X126493747Y-91031673D01*
X126493747Y-91031673D02*
X126684223Y-91079292D01*
X126684223Y-91079292D02*
X126779461Y-91126911D01*
X126779461Y-91126911D02*
X126874700Y-91222149D01*
X126874700Y-91222149D02*
X126922319Y-91365006D01*
X126922319Y-91365006D02*
X126922319Y-91603101D01*
X126255652Y-90174530D02*
X126922319Y-90174530D01*
X125874700Y-90412625D02*
X126588985Y-90650720D01*
X126588985Y-90650720D02*
X126588985Y-90031673D01*
X125922319Y-89460244D02*
X125922319Y-89365006D01*
X125922319Y-89365006D02*
X125969938Y-89269768D01*
X125969938Y-89269768D02*
X126017557Y-89222149D01*
X126017557Y-89222149D02*
X126112795Y-89174530D01*
X126112795Y-89174530D02*
X126303271Y-89126911D01*
X126303271Y-89126911D02*
X126541366Y-89126911D01*
X126541366Y-89126911D02*
X126731842Y-89174530D01*
X126731842Y-89174530D02*
X126827080Y-89222149D01*
X126827080Y-89222149D02*
X126874700Y-89269768D01*
X126874700Y-89269768D02*
X126922319Y-89365006D01*
X126922319Y-89365006D02*
X126922319Y-89460244D01*
X126922319Y-89460244D02*
X126874700Y-89555482D01*
X126874700Y-89555482D02*
X126827080Y-89603101D01*
X126827080Y-89603101D02*
X126731842Y-89650720D01*
X126731842Y-89650720D02*
X126541366Y-89698339D01*
X126541366Y-89698339D02*
X126303271Y-89698339D01*
X126303271Y-89698339D02*
X126112795Y-89650720D01*
X126112795Y-89650720D02*
X126017557Y-89603101D01*
X126017557Y-89603101D02*
X125969938Y-89555482D01*
X125969938Y-89555482D02*
X125922319Y-89460244D01*
X127242319Y-94460720D02*
X126242319Y-94460720D01*
X127242319Y-93889292D02*
X126670890Y-94317863D01*
X126242319Y-93889292D02*
X126813747Y-94460720D01*
X126922319Y-110653101D02*
X125922319Y-110653101D01*
X125922319Y-110653101D02*
X125922319Y-110415006D01*
X125922319Y-110415006D02*
X125969938Y-110272149D01*
X125969938Y-110272149D02*
X126065176Y-110176911D01*
X126065176Y-110176911D02*
X126160414Y-110129292D01*
X126160414Y-110129292D02*
X126350890Y-110081673D01*
X126350890Y-110081673D02*
X126493747Y-110081673D01*
X126493747Y-110081673D02*
X126684223Y-110129292D01*
X126684223Y-110129292D02*
X126779461Y-110176911D01*
X126779461Y-110176911D02*
X126874700Y-110272149D01*
X126874700Y-110272149D02*
X126922319Y-110415006D01*
X126922319Y-110415006D02*
X126922319Y-110653101D01*
X125922319Y-109176911D02*
X125922319Y-109653101D01*
X125922319Y-109653101D02*
X126398509Y-109700720D01*
X126398509Y-109700720D02*
X126350890Y-109653101D01*
X126350890Y-109653101D02*
X126303271Y-109557863D01*
X126303271Y-109557863D02*
X126303271Y-109319768D01*
X126303271Y-109319768D02*
X126350890Y-109224530D01*
X126350890Y-109224530D02*
X126398509Y-109176911D01*
X126398509Y-109176911D02*
X126493747Y-109129292D01*
X126493747Y-109129292D02*
X126731842Y-109129292D01*
X126731842Y-109129292D02*
X126827080Y-109176911D01*
X126827080Y-109176911D02*
X126874700Y-109224530D01*
X126874700Y-109224530D02*
X126922319Y-109319768D01*
X126922319Y-109319768D02*
X126922319Y-109557863D01*
X126922319Y-109557863D02*
X126874700Y-109653101D01*
X126874700Y-109653101D02*
X126827080Y-109700720D01*
X126017557Y-108748339D02*
X125969938Y-108700720D01*
X125969938Y-108700720D02*
X125922319Y-108605482D01*
X125922319Y-108605482D02*
X125922319Y-108367387D01*
X125922319Y-108367387D02*
X125969938Y-108272149D01*
X125969938Y-108272149D02*
X126017557Y-108224530D01*
X126017557Y-108224530D02*
X126112795Y-108176911D01*
X126112795Y-108176911D02*
X126208033Y-108176911D01*
X126208033Y-108176911D02*
X126350890Y-108224530D01*
X126350890Y-108224530D02*
X126922319Y-108795958D01*
X126922319Y-108795958D02*
X126922319Y-108176911D01*
X127242319Y-113510720D02*
X126242319Y-113510720D01*
X127242319Y-112939292D02*
X126670890Y-113367863D01*
X126242319Y-112939292D02*
X126813747Y-113510720D01*
X184072319Y-110653101D02*
X183072319Y-110653101D01*
X183072319Y-110653101D02*
X183072319Y-110415006D01*
X183072319Y-110415006D02*
X183119938Y-110272149D01*
X183119938Y-110272149D02*
X183215176Y-110176911D01*
X183215176Y-110176911D02*
X183310414Y-110129292D01*
X183310414Y-110129292D02*
X183500890Y-110081673D01*
X183500890Y-110081673D02*
X183643747Y-110081673D01*
X183643747Y-110081673D02*
X183834223Y-110129292D01*
X183834223Y-110129292D02*
X183929461Y-110176911D01*
X183929461Y-110176911D02*
X184024700Y-110272149D01*
X184024700Y-110272149D02*
X184072319Y-110415006D01*
X184072319Y-110415006D02*
X184072319Y-110653101D01*
X183072319Y-109176911D02*
X183072319Y-109653101D01*
X183072319Y-109653101D02*
X183548509Y-109700720D01*
X183548509Y-109700720D02*
X183500890Y-109653101D01*
X183500890Y-109653101D02*
X183453271Y-109557863D01*
X183453271Y-109557863D02*
X183453271Y-109319768D01*
X183453271Y-109319768D02*
X183500890Y-109224530D01*
X183500890Y-109224530D02*
X183548509Y-109176911D01*
X183548509Y-109176911D02*
X183643747Y-109129292D01*
X183643747Y-109129292D02*
X183881842Y-109129292D01*
X183881842Y-109129292D02*
X183977080Y-109176911D01*
X183977080Y-109176911D02*
X184024700Y-109224530D01*
X184024700Y-109224530D02*
X184072319Y-109319768D01*
X184072319Y-109319768D02*
X184072319Y-109557863D01*
X184072319Y-109557863D02*
X184024700Y-109653101D01*
X184024700Y-109653101D02*
X183977080Y-109700720D01*
X183072319Y-108224530D02*
X183072319Y-108700720D01*
X183072319Y-108700720D02*
X183548509Y-108748339D01*
X183548509Y-108748339D02*
X183500890Y-108700720D01*
X183500890Y-108700720D02*
X183453271Y-108605482D01*
X183453271Y-108605482D02*
X183453271Y-108367387D01*
X183453271Y-108367387D02*
X183500890Y-108272149D01*
X183500890Y-108272149D02*
X183548509Y-108224530D01*
X183548509Y-108224530D02*
X183643747Y-108176911D01*
X183643747Y-108176911D02*
X183881842Y-108176911D01*
X183881842Y-108176911D02*
X183977080Y-108224530D01*
X183977080Y-108224530D02*
X184024700Y-108272149D01*
X184024700Y-108272149D02*
X184072319Y-108367387D01*
X184072319Y-108367387D02*
X184072319Y-108605482D01*
X184072319Y-108605482D02*
X184024700Y-108700720D01*
X184024700Y-108700720D02*
X183977080Y-108748339D01*
X184392319Y-113510720D02*
X183392319Y-113510720D01*
X184392319Y-112939292D02*
X183820890Y-113367863D01*
X183392319Y-112939292D02*
X183963747Y-113510720D01*
X222172319Y-33183160D02*
X221172319Y-33183160D01*
X221172319Y-33183160D02*
X221172319Y-32945065D01*
X221172319Y-32945065D02*
X221219938Y-32802208D01*
X221219938Y-32802208D02*
X221315176Y-32706970D01*
X221315176Y-32706970D02*
X221410414Y-32659351D01*
X221410414Y-32659351D02*
X221600890Y-32611732D01*
X221600890Y-32611732D02*
X221743747Y-32611732D01*
X221743747Y-32611732D02*
X221934223Y-32659351D01*
X221934223Y-32659351D02*
X222029461Y-32706970D01*
X222029461Y-32706970D02*
X222124700Y-32802208D01*
X222124700Y-32802208D02*
X222172319Y-32945065D01*
X222172319Y-32945065D02*
X222172319Y-33183160D01*
X222172319Y-32135541D02*
X222172319Y-31945065D01*
X222172319Y-31945065D02*
X222124700Y-31849827D01*
X222124700Y-31849827D02*
X222077080Y-31802208D01*
X222077080Y-31802208D02*
X221934223Y-31706970D01*
X221934223Y-31706970D02*
X221743747Y-31659351D01*
X221743747Y-31659351D02*
X221362795Y-31659351D01*
X221362795Y-31659351D02*
X221267557Y-31706970D01*
X221267557Y-31706970D02*
X221219938Y-31754589D01*
X221219938Y-31754589D02*
X221172319Y-31849827D01*
X221172319Y-31849827D02*
X221172319Y-32040303D01*
X221172319Y-32040303D02*
X221219938Y-32135541D01*
X221219938Y-32135541D02*
X221267557Y-32183160D01*
X221267557Y-32183160D02*
X221362795Y-32230779D01*
X221362795Y-32230779D02*
X221600890Y-32230779D01*
X221600890Y-32230779D02*
X221696128Y-32183160D01*
X221696128Y-32183160D02*
X221743747Y-32135541D01*
X221743747Y-32135541D02*
X221791366Y-32040303D01*
X221791366Y-32040303D02*
X221791366Y-31849827D01*
X221791366Y-31849827D02*
X221743747Y-31754589D01*
X221743747Y-31754589D02*
X221696128Y-31706970D01*
X221696128Y-31706970D02*
X221600890Y-31659351D01*
X222492319Y-36516970D02*
X221492319Y-36516970D01*
X222492319Y-35945542D02*
X221920890Y-36374113D01*
X221492319Y-35945542D02*
X222063747Y-36516970D01*
X250503148Y-98347319D02*
X250503148Y-97347319D01*
X250503148Y-97347319D02*
X250741243Y-97347319D01*
X250741243Y-97347319D02*
X250884100Y-97394938D01*
X250884100Y-97394938D02*
X250979338Y-97490176D01*
X250979338Y-97490176D02*
X251026957Y-97585414D01*
X251026957Y-97585414D02*
X251074576Y-97775890D01*
X251074576Y-97775890D02*
X251074576Y-97918747D01*
X251074576Y-97918747D02*
X251026957Y-98109223D01*
X251026957Y-98109223D02*
X250979338Y-98204461D01*
X250979338Y-98204461D02*
X250884100Y-98299700D01*
X250884100Y-98299700D02*
X250741243Y-98347319D01*
X250741243Y-98347319D02*
X250503148Y-98347319D01*
X251979338Y-97347319D02*
X251503148Y-97347319D01*
X251503148Y-97347319D02*
X251455529Y-97823509D01*
X251455529Y-97823509D02*
X251503148Y-97775890D01*
X251503148Y-97775890D02*
X251598386Y-97728271D01*
X251598386Y-97728271D02*
X251836481Y-97728271D01*
X251836481Y-97728271D02*
X251931719Y-97775890D01*
X251931719Y-97775890D02*
X251979338Y-97823509D01*
X251979338Y-97823509D02*
X252026957Y-97918747D01*
X252026957Y-97918747D02*
X252026957Y-98156842D01*
X252026957Y-98156842D02*
X251979338Y-98252080D01*
X251979338Y-98252080D02*
X251931719Y-98299700D01*
X251931719Y-98299700D02*
X251836481Y-98347319D01*
X251836481Y-98347319D02*
X251598386Y-98347319D01*
X251598386Y-98347319D02*
X251503148Y-98299700D01*
X251503148Y-98299700D02*
X251455529Y-98252080D01*
X252503148Y-98347319D02*
X252693624Y-98347319D01*
X252693624Y-98347319D02*
X252788862Y-98299700D01*
X252788862Y-98299700D02*
X252836481Y-98252080D01*
X252836481Y-98252080D02*
X252931719Y-98109223D01*
X252931719Y-98109223D02*
X252979338Y-97918747D01*
X252979338Y-97918747D02*
X252979338Y-97537795D01*
X252979338Y-97537795D02*
X252931719Y-97442557D01*
X252931719Y-97442557D02*
X252884100Y-97394938D01*
X252884100Y-97394938D02*
X252788862Y-97347319D01*
X252788862Y-97347319D02*
X252598386Y-97347319D01*
X252598386Y-97347319D02*
X252503148Y-97394938D01*
X252503148Y-97394938D02*
X252455529Y-97442557D01*
X252455529Y-97442557D02*
X252407910Y-97537795D01*
X252407910Y-97537795D02*
X252407910Y-97775890D01*
X252407910Y-97775890D02*
X252455529Y-97871128D01*
X252455529Y-97871128D02*
X252503148Y-97918747D01*
X252503148Y-97918747D02*
X252598386Y-97966366D01*
X252598386Y-97966366D02*
X252788862Y-97966366D01*
X252788862Y-97966366D02*
X252884100Y-97918747D01*
X252884100Y-97918747D02*
X252931719Y-97871128D01*
X252931719Y-97871128D02*
X252979338Y-97775890D01*
X247645529Y-98667319D02*
X247645529Y-97667319D01*
X248216957Y-98667319D02*
X247788386Y-98095890D01*
X248216957Y-97667319D02*
X247645529Y-98238747D01*
X69772319Y-110653101D02*
X68772319Y-110653101D01*
X68772319Y-110653101D02*
X68772319Y-110415006D01*
X68772319Y-110415006D02*
X68819938Y-110272149D01*
X68819938Y-110272149D02*
X68915176Y-110176911D01*
X68915176Y-110176911D02*
X69010414Y-110129292D01*
X69010414Y-110129292D02*
X69200890Y-110081673D01*
X69200890Y-110081673D02*
X69343747Y-110081673D01*
X69343747Y-110081673D02*
X69534223Y-110129292D01*
X69534223Y-110129292D02*
X69629461Y-110176911D01*
X69629461Y-110176911D02*
X69724700Y-110272149D01*
X69724700Y-110272149D02*
X69772319Y-110415006D01*
X69772319Y-110415006D02*
X69772319Y-110653101D01*
X69105652Y-109224530D02*
X69772319Y-109224530D01*
X68724700Y-109462625D02*
X69438985Y-109700720D01*
X69438985Y-109700720D02*
X69438985Y-109081673D01*
X69772319Y-108653101D02*
X69772319Y-108462625D01*
X69772319Y-108462625D02*
X69724700Y-108367387D01*
X69724700Y-108367387D02*
X69677080Y-108319768D01*
X69677080Y-108319768D02*
X69534223Y-108224530D01*
X69534223Y-108224530D02*
X69343747Y-108176911D01*
X69343747Y-108176911D02*
X68962795Y-108176911D01*
X68962795Y-108176911D02*
X68867557Y-108224530D01*
X68867557Y-108224530D02*
X68819938Y-108272149D01*
X68819938Y-108272149D02*
X68772319Y-108367387D01*
X68772319Y-108367387D02*
X68772319Y-108557863D01*
X68772319Y-108557863D02*
X68819938Y-108653101D01*
X68819938Y-108653101D02*
X68867557Y-108700720D01*
X68867557Y-108700720D02*
X68962795Y-108748339D01*
X68962795Y-108748339D02*
X69200890Y-108748339D01*
X69200890Y-108748339D02*
X69296128Y-108700720D01*
X69296128Y-108700720D02*
X69343747Y-108653101D01*
X69343747Y-108653101D02*
X69391366Y-108557863D01*
X69391366Y-108557863D02*
X69391366Y-108367387D01*
X69391366Y-108367387D02*
X69343747Y-108272149D01*
X69343747Y-108272149D02*
X69296128Y-108224530D01*
X69296128Y-108224530D02*
X69200890Y-108176911D01*
X70092319Y-113510720D02*
X69092319Y-113510720D01*
X70092319Y-112939292D02*
X69520890Y-113367863D01*
X69092319Y-112939292D02*
X69663747Y-113510720D01*
X203122319Y-91603101D02*
X202122319Y-91603101D01*
X202122319Y-91603101D02*
X202122319Y-91365006D01*
X202122319Y-91365006D02*
X202169938Y-91222149D01*
X202169938Y-91222149D02*
X202265176Y-91126911D01*
X202265176Y-91126911D02*
X202360414Y-91079292D01*
X202360414Y-91079292D02*
X202550890Y-91031673D01*
X202550890Y-91031673D02*
X202693747Y-91031673D01*
X202693747Y-91031673D02*
X202884223Y-91079292D01*
X202884223Y-91079292D02*
X202979461Y-91126911D01*
X202979461Y-91126911D02*
X203074700Y-91222149D01*
X203074700Y-91222149D02*
X203122319Y-91365006D01*
X203122319Y-91365006D02*
X203122319Y-91603101D01*
X202455652Y-90174530D02*
X203122319Y-90174530D01*
X202074700Y-90412625D02*
X202788985Y-90650720D01*
X202788985Y-90650720D02*
X202788985Y-90031673D01*
X202455652Y-89222149D02*
X203122319Y-89222149D01*
X202074700Y-89460244D02*
X202788985Y-89698339D01*
X202788985Y-89698339D02*
X202788985Y-89079292D01*
X203442319Y-94460720D02*
X202442319Y-94460720D01*
X203442319Y-93889292D02*
X202870890Y-94317863D01*
X202442319Y-93889292D02*
X203013747Y-94460720D01*
X69772319Y-91603101D02*
X68772319Y-91603101D01*
X68772319Y-91603101D02*
X68772319Y-91365006D01*
X68772319Y-91365006D02*
X68819938Y-91222149D01*
X68819938Y-91222149D02*
X68915176Y-91126911D01*
X68915176Y-91126911D02*
X69010414Y-91079292D01*
X69010414Y-91079292D02*
X69200890Y-91031673D01*
X69200890Y-91031673D02*
X69343747Y-91031673D01*
X69343747Y-91031673D02*
X69534223Y-91079292D01*
X69534223Y-91079292D02*
X69629461Y-91126911D01*
X69629461Y-91126911D02*
X69724700Y-91222149D01*
X69724700Y-91222149D02*
X69772319Y-91365006D01*
X69772319Y-91365006D02*
X69772319Y-91603101D01*
X68772319Y-90698339D02*
X68772319Y-90079292D01*
X68772319Y-90079292D02*
X69153271Y-90412625D01*
X69153271Y-90412625D02*
X69153271Y-90269768D01*
X69153271Y-90269768D02*
X69200890Y-90174530D01*
X69200890Y-90174530D02*
X69248509Y-90126911D01*
X69248509Y-90126911D02*
X69343747Y-90079292D01*
X69343747Y-90079292D02*
X69581842Y-90079292D01*
X69581842Y-90079292D02*
X69677080Y-90126911D01*
X69677080Y-90126911D02*
X69724700Y-90174530D01*
X69724700Y-90174530D02*
X69772319Y-90269768D01*
X69772319Y-90269768D02*
X69772319Y-90555482D01*
X69772319Y-90555482D02*
X69724700Y-90650720D01*
X69724700Y-90650720D02*
X69677080Y-90698339D01*
X68772319Y-89745958D02*
X68772319Y-89079292D01*
X68772319Y-89079292D02*
X69772319Y-89507863D01*
X70092319Y-94460720D02*
X69092319Y-94460720D01*
X70092319Y-93889292D02*
X69520890Y-94317863D01*
X69092319Y-93889292D02*
X69663747Y-94460720D01*
X184072319Y-72553101D02*
X183072319Y-72553101D01*
X183072319Y-72553101D02*
X183072319Y-72315006D01*
X183072319Y-72315006D02*
X183119938Y-72172149D01*
X183119938Y-72172149D02*
X183215176Y-72076911D01*
X183215176Y-72076911D02*
X183310414Y-72029292D01*
X183310414Y-72029292D02*
X183500890Y-71981673D01*
X183500890Y-71981673D02*
X183643747Y-71981673D01*
X183643747Y-71981673D02*
X183834223Y-72029292D01*
X183834223Y-72029292D02*
X183929461Y-72076911D01*
X183929461Y-72076911D02*
X184024700Y-72172149D01*
X184024700Y-72172149D02*
X184072319Y-72315006D01*
X184072319Y-72315006D02*
X184072319Y-72553101D01*
X183072319Y-71648339D02*
X183072319Y-71029292D01*
X183072319Y-71029292D02*
X183453271Y-71362625D01*
X183453271Y-71362625D02*
X183453271Y-71219768D01*
X183453271Y-71219768D02*
X183500890Y-71124530D01*
X183500890Y-71124530D02*
X183548509Y-71076911D01*
X183548509Y-71076911D02*
X183643747Y-71029292D01*
X183643747Y-71029292D02*
X183881842Y-71029292D01*
X183881842Y-71029292D02*
X183977080Y-71076911D01*
X183977080Y-71076911D02*
X184024700Y-71124530D01*
X184024700Y-71124530D02*
X184072319Y-71219768D01*
X184072319Y-71219768D02*
X184072319Y-71505482D01*
X184072319Y-71505482D02*
X184024700Y-71600720D01*
X184024700Y-71600720D02*
X183977080Y-71648339D01*
X184072319Y-70076911D02*
X184072319Y-70648339D01*
X184072319Y-70362625D02*
X183072319Y-70362625D01*
X183072319Y-70362625D02*
X183215176Y-70457863D01*
X183215176Y-70457863D02*
X183310414Y-70553101D01*
X183310414Y-70553101D02*
X183358033Y-70648339D01*
X184392319Y-75410720D02*
X183392319Y-75410720D01*
X184392319Y-74839292D02*
X183820890Y-75267863D01*
X183392319Y-74839292D02*
X183963747Y-75410720D01*
X145972319Y-33183160D02*
X144972319Y-33183160D01*
X144972319Y-33183160D02*
X144972319Y-32945065D01*
X144972319Y-32945065D02*
X145019938Y-32802208D01*
X145019938Y-32802208D02*
X145115176Y-32706970D01*
X145115176Y-32706970D02*
X145210414Y-32659351D01*
X145210414Y-32659351D02*
X145400890Y-32611732D01*
X145400890Y-32611732D02*
X145543747Y-32611732D01*
X145543747Y-32611732D02*
X145734223Y-32659351D01*
X145734223Y-32659351D02*
X145829461Y-32706970D01*
X145829461Y-32706970D02*
X145924700Y-32802208D01*
X145924700Y-32802208D02*
X145972319Y-32945065D01*
X145972319Y-32945065D02*
X145972319Y-33183160D01*
X144972319Y-31706970D02*
X144972319Y-32183160D01*
X144972319Y-32183160D02*
X145448509Y-32230779D01*
X145448509Y-32230779D02*
X145400890Y-32183160D01*
X145400890Y-32183160D02*
X145353271Y-32087922D01*
X145353271Y-32087922D02*
X145353271Y-31849827D01*
X145353271Y-31849827D02*
X145400890Y-31754589D01*
X145400890Y-31754589D02*
X145448509Y-31706970D01*
X145448509Y-31706970D02*
X145543747Y-31659351D01*
X145543747Y-31659351D02*
X145781842Y-31659351D01*
X145781842Y-31659351D02*
X145877080Y-31706970D01*
X145877080Y-31706970D02*
X145924700Y-31754589D01*
X145924700Y-31754589D02*
X145972319Y-31849827D01*
X145972319Y-31849827D02*
X145972319Y-32087922D01*
X145972319Y-32087922D02*
X145924700Y-32183160D01*
X145924700Y-32183160D02*
X145877080Y-32230779D01*
X146292319Y-36516970D02*
X145292319Y-36516970D01*
X146292319Y-35945542D02*
X145720890Y-36374113D01*
X145292319Y-35945542D02*
X145863747Y-36516970D01*
X203122319Y-33183160D02*
X202122319Y-33183160D01*
X202122319Y-33183160D02*
X202122319Y-32945065D01*
X202122319Y-32945065D02*
X202169938Y-32802208D01*
X202169938Y-32802208D02*
X202265176Y-32706970D01*
X202265176Y-32706970D02*
X202360414Y-32659351D01*
X202360414Y-32659351D02*
X202550890Y-32611732D01*
X202550890Y-32611732D02*
X202693747Y-32611732D01*
X202693747Y-32611732D02*
X202884223Y-32659351D01*
X202884223Y-32659351D02*
X202979461Y-32706970D01*
X202979461Y-32706970D02*
X203074700Y-32802208D01*
X203074700Y-32802208D02*
X203122319Y-32945065D01*
X203122319Y-32945065D02*
X203122319Y-33183160D01*
X202550890Y-32040303D02*
X202503271Y-32135541D01*
X202503271Y-32135541D02*
X202455652Y-32183160D01*
X202455652Y-32183160D02*
X202360414Y-32230779D01*
X202360414Y-32230779D02*
X202312795Y-32230779D01*
X202312795Y-32230779D02*
X202217557Y-32183160D01*
X202217557Y-32183160D02*
X202169938Y-32135541D01*
X202169938Y-32135541D02*
X202122319Y-32040303D01*
X202122319Y-32040303D02*
X202122319Y-31849827D01*
X202122319Y-31849827D02*
X202169938Y-31754589D01*
X202169938Y-31754589D02*
X202217557Y-31706970D01*
X202217557Y-31706970D02*
X202312795Y-31659351D01*
X202312795Y-31659351D02*
X202360414Y-31659351D01*
X202360414Y-31659351D02*
X202455652Y-31706970D01*
X202455652Y-31706970D02*
X202503271Y-31754589D01*
X202503271Y-31754589D02*
X202550890Y-31849827D01*
X202550890Y-31849827D02*
X202550890Y-32040303D01*
X202550890Y-32040303D02*
X202598509Y-32135541D01*
X202598509Y-32135541D02*
X202646128Y-32183160D01*
X202646128Y-32183160D02*
X202741366Y-32230779D01*
X202741366Y-32230779D02*
X202931842Y-32230779D01*
X202931842Y-32230779D02*
X203027080Y-32183160D01*
X203027080Y-32183160D02*
X203074700Y-32135541D01*
X203074700Y-32135541D02*
X203122319Y-32040303D01*
X203122319Y-32040303D02*
X203122319Y-31849827D01*
X203122319Y-31849827D02*
X203074700Y-31754589D01*
X203074700Y-31754589D02*
X203027080Y-31706970D01*
X203027080Y-31706970D02*
X202931842Y-31659351D01*
X202931842Y-31659351D02*
X202741366Y-31659351D01*
X202741366Y-31659351D02*
X202646128Y-31706970D01*
X202646128Y-31706970D02*
X202598509Y-31754589D01*
X202598509Y-31754589D02*
X202550890Y-31849827D01*
X203442319Y-36516970D02*
X202442319Y-36516970D01*
X203442319Y-35945542D02*
X202870890Y-36374113D01*
X202442319Y-35945542D02*
X203013747Y-36516970D01*
X65400648Y-60247319D02*
X65400648Y-59247319D01*
X65400648Y-59247319D02*
X65638743Y-59247319D01*
X65638743Y-59247319D02*
X65781600Y-59294938D01*
X65781600Y-59294938D02*
X65876838Y-59390176D01*
X65876838Y-59390176D02*
X65924457Y-59485414D01*
X65924457Y-59485414D02*
X65972076Y-59675890D01*
X65972076Y-59675890D02*
X65972076Y-59818747D01*
X65972076Y-59818747D02*
X65924457Y-60009223D01*
X65924457Y-60009223D02*
X65876838Y-60104461D01*
X65876838Y-60104461D02*
X65781600Y-60199700D01*
X65781600Y-60199700D02*
X65638743Y-60247319D01*
X65638743Y-60247319D02*
X65400648Y-60247319D01*
X66924457Y-60247319D02*
X66353029Y-60247319D01*
X66638743Y-60247319D02*
X66638743Y-59247319D01*
X66638743Y-59247319D02*
X66543505Y-59390176D01*
X66543505Y-59390176D02*
X66448267Y-59485414D01*
X66448267Y-59485414D02*
X66353029Y-59533033D01*
X67257791Y-59247319D02*
X67876838Y-59247319D01*
X67876838Y-59247319D02*
X67543505Y-59628271D01*
X67543505Y-59628271D02*
X67686362Y-59628271D01*
X67686362Y-59628271D02*
X67781600Y-59675890D01*
X67781600Y-59675890D02*
X67829219Y-59723509D01*
X67829219Y-59723509D02*
X67876838Y-59818747D01*
X67876838Y-59818747D02*
X67876838Y-60056842D01*
X67876838Y-60056842D02*
X67829219Y-60152080D01*
X67829219Y-60152080D02*
X67781600Y-60199700D01*
X67781600Y-60199700D02*
X67686362Y-60247319D01*
X67686362Y-60247319D02*
X67400648Y-60247319D01*
X67400648Y-60247319D02*
X67305410Y-60199700D01*
X67305410Y-60199700D02*
X67257791Y-60152080D01*
X62543029Y-60567319D02*
X62543029Y-59567319D01*
X63114457Y-60567319D02*
X62685886Y-59995890D01*
X63114457Y-59567319D02*
X62543029Y-60138747D01*
X231040398Y-96886819D02*
X231040398Y-95886819D01*
X231040398Y-95886819D02*
X231278493Y-95886819D01*
X231278493Y-95886819D02*
X231421350Y-95934438D01*
X231421350Y-95934438D02*
X231516588Y-96029676D01*
X231516588Y-96029676D02*
X231564207Y-96124914D01*
X231564207Y-96124914D02*
X231611826Y-96315390D01*
X231611826Y-96315390D02*
X231611826Y-96458247D01*
X231611826Y-96458247D02*
X231564207Y-96648723D01*
X231564207Y-96648723D02*
X231516588Y-96743961D01*
X231516588Y-96743961D02*
X231421350Y-96839200D01*
X231421350Y-96839200D02*
X231278493Y-96886819D01*
X231278493Y-96886819D02*
X231040398Y-96886819D01*
X232468969Y-96220152D02*
X232468969Y-96886819D01*
X232230874Y-95839200D02*
X231992779Y-96553485D01*
X231992779Y-96553485D02*
X232611826Y-96553485D01*
X233421350Y-95886819D02*
X233230874Y-95886819D01*
X233230874Y-95886819D02*
X233135636Y-95934438D01*
X233135636Y-95934438D02*
X233088017Y-95982057D01*
X233088017Y-95982057D02*
X232992779Y-96124914D01*
X232992779Y-96124914D02*
X232945160Y-96315390D01*
X232945160Y-96315390D02*
X232945160Y-96696342D01*
X232945160Y-96696342D02*
X232992779Y-96791580D01*
X232992779Y-96791580D02*
X233040398Y-96839200D01*
X233040398Y-96839200D02*
X233135636Y-96886819D01*
X233135636Y-96886819D02*
X233326112Y-96886819D01*
X233326112Y-96886819D02*
X233421350Y-96839200D01*
X233421350Y-96839200D02*
X233468969Y-96791580D01*
X233468969Y-96791580D02*
X233516588Y-96696342D01*
X233516588Y-96696342D02*
X233516588Y-96458247D01*
X233516588Y-96458247D02*
X233468969Y-96363009D01*
X233468969Y-96363009D02*
X233421350Y-96315390D01*
X233421350Y-96315390D02*
X233326112Y-96267771D01*
X233326112Y-96267771D02*
X233135636Y-96267771D01*
X233135636Y-96267771D02*
X233040398Y-96315390D01*
X233040398Y-96315390D02*
X232992779Y-96363009D01*
X232992779Y-96363009D02*
X232945160Y-96458247D01*
X228182779Y-97206819D02*
X228182779Y-96206819D01*
X228754207Y-97206819D02*
X228325636Y-96635390D01*
X228754207Y-96206819D02*
X228182779Y-96778247D01*
X50722319Y-72553101D02*
X49722319Y-72553101D01*
X49722319Y-72553101D02*
X49722319Y-72315006D01*
X49722319Y-72315006D02*
X49769938Y-72172149D01*
X49769938Y-72172149D02*
X49865176Y-72076911D01*
X49865176Y-72076911D02*
X49960414Y-72029292D01*
X49960414Y-72029292D02*
X50150890Y-71981673D01*
X50150890Y-71981673D02*
X50293747Y-71981673D01*
X50293747Y-71981673D02*
X50484223Y-72029292D01*
X50484223Y-72029292D02*
X50579461Y-72076911D01*
X50579461Y-72076911D02*
X50674700Y-72172149D01*
X50674700Y-72172149D02*
X50722319Y-72315006D01*
X50722319Y-72315006D02*
X50722319Y-72553101D01*
X49817557Y-71600720D02*
X49769938Y-71553101D01*
X49769938Y-71553101D02*
X49722319Y-71457863D01*
X49722319Y-71457863D02*
X49722319Y-71219768D01*
X49722319Y-71219768D02*
X49769938Y-71124530D01*
X49769938Y-71124530D02*
X49817557Y-71076911D01*
X49817557Y-71076911D02*
X49912795Y-71029292D01*
X49912795Y-71029292D02*
X50008033Y-71029292D01*
X50008033Y-71029292D02*
X50150890Y-71076911D01*
X50150890Y-71076911D02*
X50722319Y-71648339D01*
X50722319Y-71648339D02*
X50722319Y-71029292D01*
X50055652Y-70172149D02*
X50722319Y-70172149D01*
X49674700Y-70410244D02*
X50388985Y-70648339D01*
X50388985Y-70648339D02*
X50388985Y-70029292D01*
X51042319Y-75410720D02*
X50042319Y-75410720D01*
X51042319Y-74839292D02*
X50470890Y-75267863D01*
X50042319Y-74839292D02*
X50613747Y-75410720D01*
X222172319Y-91603101D02*
X221172319Y-91603101D01*
X221172319Y-91603101D02*
X221172319Y-91365006D01*
X221172319Y-91365006D02*
X221219938Y-91222149D01*
X221219938Y-91222149D02*
X221315176Y-91126911D01*
X221315176Y-91126911D02*
X221410414Y-91079292D01*
X221410414Y-91079292D02*
X221600890Y-91031673D01*
X221600890Y-91031673D02*
X221743747Y-91031673D01*
X221743747Y-91031673D02*
X221934223Y-91079292D01*
X221934223Y-91079292D02*
X222029461Y-91126911D01*
X222029461Y-91126911D02*
X222124700Y-91222149D01*
X222124700Y-91222149D02*
X222172319Y-91365006D01*
X222172319Y-91365006D02*
X222172319Y-91603101D01*
X221505652Y-90174530D02*
X222172319Y-90174530D01*
X221124700Y-90412625D02*
X221838985Y-90650720D01*
X221838985Y-90650720D02*
X221838985Y-90031673D01*
X221172319Y-89174530D02*
X221172319Y-89650720D01*
X221172319Y-89650720D02*
X221648509Y-89698339D01*
X221648509Y-89698339D02*
X221600890Y-89650720D01*
X221600890Y-89650720D02*
X221553271Y-89555482D01*
X221553271Y-89555482D02*
X221553271Y-89317387D01*
X221553271Y-89317387D02*
X221600890Y-89222149D01*
X221600890Y-89222149D02*
X221648509Y-89174530D01*
X221648509Y-89174530D02*
X221743747Y-89126911D01*
X221743747Y-89126911D02*
X221981842Y-89126911D01*
X221981842Y-89126911D02*
X222077080Y-89174530D01*
X222077080Y-89174530D02*
X222124700Y-89222149D01*
X222124700Y-89222149D02*
X222172319Y-89317387D01*
X222172319Y-89317387D02*
X222172319Y-89555482D01*
X222172319Y-89555482D02*
X222124700Y-89650720D01*
X222124700Y-89650720D02*
X222077080Y-89698339D01*
X222492319Y-94460720D02*
X221492319Y-94460720D01*
X222492319Y-93889292D02*
X221920890Y-94317863D01*
X221492319Y-93889292D02*
X222063747Y-94460720D01*
X250395198Y-60158419D02*
X250395198Y-59158419D01*
X250395198Y-59158419D02*
X250633293Y-59158419D01*
X250633293Y-59158419D02*
X250776150Y-59206038D01*
X250776150Y-59206038D02*
X250871388Y-59301276D01*
X250871388Y-59301276D02*
X250919007Y-59396514D01*
X250919007Y-59396514D02*
X250966626Y-59586990D01*
X250966626Y-59586990D02*
X250966626Y-59729847D01*
X250966626Y-59729847D02*
X250919007Y-59920323D01*
X250919007Y-59920323D02*
X250871388Y-60015561D01*
X250871388Y-60015561D02*
X250776150Y-60110800D01*
X250776150Y-60110800D02*
X250633293Y-60158419D01*
X250633293Y-60158419D02*
X250395198Y-60158419D01*
X251347579Y-59253657D02*
X251395198Y-59206038D01*
X251395198Y-59206038D02*
X251490436Y-59158419D01*
X251490436Y-59158419D02*
X251728531Y-59158419D01*
X251728531Y-59158419D02*
X251823769Y-59206038D01*
X251823769Y-59206038D02*
X251871388Y-59253657D01*
X251871388Y-59253657D02*
X251919007Y-59348895D01*
X251919007Y-59348895D02*
X251919007Y-59444133D01*
X251919007Y-59444133D02*
X251871388Y-59586990D01*
X251871388Y-59586990D02*
X251299960Y-60158419D01*
X251299960Y-60158419D02*
X251919007Y-60158419D01*
X252252341Y-59158419D02*
X252871388Y-59158419D01*
X252871388Y-59158419D02*
X252538055Y-59539371D01*
X252538055Y-59539371D02*
X252680912Y-59539371D01*
X252680912Y-59539371D02*
X252776150Y-59586990D01*
X252776150Y-59586990D02*
X252823769Y-59634609D01*
X252823769Y-59634609D02*
X252871388Y-59729847D01*
X252871388Y-59729847D02*
X252871388Y-59967942D01*
X252871388Y-59967942D02*
X252823769Y-60063180D01*
X252823769Y-60063180D02*
X252776150Y-60110800D01*
X252776150Y-60110800D02*
X252680912Y-60158419D01*
X252680912Y-60158419D02*
X252395198Y-60158419D01*
X252395198Y-60158419D02*
X252299960Y-60110800D01*
X252299960Y-60110800D02*
X252252341Y-60063180D01*
X247537579Y-60478419D02*
X247537579Y-59478419D01*
X248109007Y-60478419D02*
X247680436Y-59906990D01*
X248109007Y-59478419D02*
X247537579Y-60049847D01*
X126922319Y-33183160D02*
X125922319Y-33183160D01*
X125922319Y-33183160D02*
X125922319Y-32945065D01*
X125922319Y-32945065D02*
X125969938Y-32802208D01*
X125969938Y-32802208D02*
X126065176Y-32706970D01*
X126065176Y-32706970D02*
X126160414Y-32659351D01*
X126160414Y-32659351D02*
X126350890Y-32611732D01*
X126350890Y-32611732D02*
X126493747Y-32611732D01*
X126493747Y-32611732D02*
X126684223Y-32659351D01*
X126684223Y-32659351D02*
X126779461Y-32706970D01*
X126779461Y-32706970D02*
X126874700Y-32802208D01*
X126874700Y-32802208D02*
X126922319Y-32945065D01*
X126922319Y-32945065D02*
X126922319Y-33183160D01*
X126255652Y-31754589D02*
X126922319Y-31754589D01*
X125874700Y-31992684D02*
X126588985Y-32230779D01*
X126588985Y-32230779D02*
X126588985Y-31611732D01*
X127242319Y-36516970D02*
X126242319Y-36516970D01*
X127242319Y-35945542D02*
X126670890Y-36374113D01*
X126242319Y-35945542D02*
X126813747Y-36516970D01*
X107872319Y-110653101D02*
X106872319Y-110653101D01*
X106872319Y-110653101D02*
X106872319Y-110415006D01*
X106872319Y-110415006D02*
X106919938Y-110272149D01*
X106919938Y-110272149D02*
X107015176Y-110176911D01*
X107015176Y-110176911D02*
X107110414Y-110129292D01*
X107110414Y-110129292D02*
X107300890Y-110081673D01*
X107300890Y-110081673D02*
X107443747Y-110081673D01*
X107443747Y-110081673D02*
X107634223Y-110129292D01*
X107634223Y-110129292D02*
X107729461Y-110176911D01*
X107729461Y-110176911D02*
X107824700Y-110272149D01*
X107824700Y-110272149D02*
X107872319Y-110415006D01*
X107872319Y-110415006D02*
X107872319Y-110653101D01*
X106872319Y-109176911D02*
X106872319Y-109653101D01*
X106872319Y-109653101D02*
X107348509Y-109700720D01*
X107348509Y-109700720D02*
X107300890Y-109653101D01*
X107300890Y-109653101D02*
X107253271Y-109557863D01*
X107253271Y-109557863D02*
X107253271Y-109319768D01*
X107253271Y-109319768D02*
X107300890Y-109224530D01*
X107300890Y-109224530D02*
X107348509Y-109176911D01*
X107348509Y-109176911D02*
X107443747Y-109129292D01*
X107443747Y-109129292D02*
X107681842Y-109129292D01*
X107681842Y-109129292D02*
X107777080Y-109176911D01*
X107777080Y-109176911D02*
X107824700Y-109224530D01*
X107824700Y-109224530D02*
X107872319Y-109319768D01*
X107872319Y-109319768D02*
X107872319Y-109557863D01*
X107872319Y-109557863D02*
X107824700Y-109653101D01*
X107824700Y-109653101D02*
X107777080Y-109700720D01*
X107872319Y-108176911D02*
X107872319Y-108748339D01*
X107872319Y-108462625D02*
X106872319Y-108462625D01*
X106872319Y-108462625D02*
X107015176Y-108557863D01*
X107015176Y-108557863D02*
X107110414Y-108653101D01*
X107110414Y-108653101D02*
X107158033Y-108748339D01*
X108192319Y-113510720D02*
X107192319Y-113510720D01*
X108192319Y-112939292D02*
X107620890Y-113367863D01*
X107192319Y-112939292D02*
X107763747Y-113510720D01*
X222172319Y-52709351D02*
X221172319Y-52709351D01*
X221172319Y-52709351D02*
X221172319Y-52471256D01*
X221172319Y-52471256D02*
X221219938Y-52328399D01*
X221219938Y-52328399D02*
X221315176Y-52233161D01*
X221315176Y-52233161D02*
X221410414Y-52185542D01*
X221410414Y-52185542D02*
X221600890Y-52137923D01*
X221600890Y-52137923D02*
X221743747Y-52137923D01*
X221743747Y-52137923D02*
X221934223Y-52185542D01*
X221934223Y-52185542D02*
X222029461Y-52233161D01*
X222029461Y-52233161D02*
X222124700Y-52328399D01*
X222124700Y-52328399D02*
X222172319Y-52471256D01*
X222172319Y-52471256D02*
X222172319Y-52709351D01*
X221267557Y-51756970D02*
X221219938Y-51709351D01*
X221219938Y-51709351D02*
X221172319Y-51614113D01*
X221172319Y-51614113D02*
X221172319Y-51376018D01*
X221172319Y-51376018D02*
X221219938Y-51280780D01*
X221219938Y-51280780D02*
X221267557Y-51233161D01*
X221267557Y-51233161D02*
X221362795Y-51185542D01*
X221362795Y-51185542D02*
X221458033Y-51185542D01*
X221458033Y-51185542D02*
X221600890Y-51233161D01*
X221600890Y-51233161D02*
X222172319Y-51804589D01*
X222172319Y-51804589D02*
X222172319Y-51185542D01*
X222172319Y-50233161D02*
X222172319Y-50804589D01*
X222172319Y-50518875D02*
X221172319Y-50518875D01*
X221172319Y-50518875D02*
X221315176Y-50614113D01*
X221315176Y-50614113D02*
X221410414Y-50709351D01*
X221410414Y-50709351D02*
X221458033Y-50804589D01*
X222492319Y-55566970D02*
X221492319Y-55566970D01*
X222492319Y-54995542D02*
X221920890Y-55424113D01*
X221492319Y-54995542D02*
X222063747Y-55566970D01*
X50722319Y-52709351D02*
X49722319Y-52709351D01*
X49722319Y-52709351D02*
X49722319Y-52471256D01*
X49722319Y-52471256D02*
X49769938Y-52328399D01*
X49769938Y-52328399D02*
X49865176Y-52233161D01*
X49865176Y-52233161D02*
X49960414Y-52185542D01*
X49960414Y-52185542D02*
X50150890Y-52137923D01*
X50150890Y-52137923D02*
X50293747Y-52137923D01*
X50293747Y-52137923D02*
X50484223Y-52185542D01*
X50484223Y-52185542D02*
X50579461Y-52233161D01*
X50579461Y-52233161D02*
X50674700Y-52328399D01*
X50674700Y-52328399D02*
X50722319Y-52471256D01*
X50722319Y-52471256D02*
X50722319Y-52709351D01*
X50722319Y-51185542D02*
X50722319Y-51756970D01*
X50722319Y-51471256D02*
X49722319Y-51471256D01*
X49722319Y-51471256D02*
X49865176Y-51566494D01*
X49865176Y-51566494D02*
X49960414Y-51661732D01*
X49960414Y-51661732D02*
X50008033Y-51756970D01*
X49817557Y-50804589D02*
X49769938Y-50756970D01*
X49769938Y-50756970D02*
X49722319Y-50661732D01*
X49722319Y-50661732D02*
X49722319Y-50423637D01*
X49722319Y-50423637D02*
X49769938Y-50328399D01*
X49769938Y-50328399D02*
X49817557Y-50280780D01*
X49817557Y-50280780D02*
X49912795Y-50233161D01*
X49912795Y-50233161D02*
X50008033Y-50233161D01*
X50008033Y-50233161D02*
X50150890Y-50280780D01*
X50150890Y-50280780D02*
X50722319Y-50852208D01*
X50722319Y-50852208D02*
X50722319Y-50233161D01*
X51042319Y-55566970D02*
X50042319Y-55566970D01*
X51042319Y-54995542D02*
X50470890Y-55424113D01*
X50042319Y-54995542D02*
X50613747Y-55566970D01*
X50722319Y-110653101D02*
X49722319Y-110653101D01*
X49722319Y-110653101D02*
X49722319Y-110415006D01*
X49722319Y-110415006D02*
X49769938Y-110272149D01*
X49769938Y-110272149D02*
X49865176Y-110176911D01*
X49865176Y-110176911D02*
X49960414Y-110129292D01*
X49960414Y-110129292D02*
X50150890Y-110081673D01*
X50150890Y-110081673D02*
X50293747Y-110081673D01*
X50293747Y-110081673D02*
X50484223Y-110129292D01*
X50484223Y-110129292D02*
X50579461Y-110176911D01*
X50579461Y-110176911D02*
X50674700Y-110272149D01*
X50674700Y-110272149D02*
X50722319Y-110415006D01*
X50722319Y-110415006D02*
X50722319Y-110653101D01*
X50055652Y-109224530D02*
X50722319Y-109224530D01*
X49674700Y-109462625D02*
X50388985Y-109700720D01*
X50388985Y-109700720D02*
X50388985Y-109081673D01*
X50150890Y-108557863D02*
X50103271Y-108653101D01*
X50103271Y-108653101D02*
X50055652Y-108700720D01*
X50055652Y-108700720D02*
X49960414Y-108748339D01*
X49960414Y-108748339D02*
X49912795Y-108748339D01*
X49912795Y-108748339D02*
X49817557Y-108700720D01*
X49817557Y-108700720D02*
X49769938Y-108653101D01*
X49769938Y-108653101D02*
X49722319Y-108557863D01*
X49722319Y-108557863D02*
X49722319Y-108367387D01*
X49722319Y-108367387D02*
X49769938Y-108272149D01*
X49769938Y-108272149D02*
X49817557Y-108224530D01*
X49817557Y-108224530D02*
X49912795Y-108176911D01*
X49912795Y-108176911D02*
X49960414Y-108176911D01*
X49960414Y-108176911D02*
X50055652Y-108224530D01*
X50055652Y-108224530D02*
X50103271Y-108272149D01*
X50103271Y-108272149D02*
X50150890Y-108367387D01*
X50150890Y-108367387D02*
X50150890Y-108557863D01*
X50150890Y-108557863D02*
X50198509Y-108653101D01*
X50198509Y-108653101D02*
X50246128Y-108700720D01*
X50246128Y-108700720D02*
X50341366Y-108748339D01*
X50341366Y-108748339D02*
X50531842Y-108748339D01*
X50531842Y-108748339D02*
X50627080Y-108700720D01*
X50627080Y-108700720D02*
X50674700Y-108653101D01*
X50674700Y-108653101D02*
X50722319Y-108557863D01*
X50722319Y-108557863D02*
X50722319Y-108367387D01*
X50722319Y-108367387D02*
X50674700Y-108272149D01*
X50674700Y-108272149D02*
X50627080Y-108224530D01*
X50627080Y-108224530D02*
X50531842Y-108176911D01*
X50531842Y-108176911D02*
X50341366Y-108176911D01*
X50341366Y-108176911D02*
X50246128Y-108224530D01*
X50246128Y-108224530D02*
X50198509Y-108272149D01*
X50198509Y-108272149D02*
X50150890Y-108367387D01*
X51042319Y-113510720D02*
X50042319Y-113510720D01*
X51042319Y-112939292D02*
X50470890Y-113367863D01*
X50042319Y-112939292D02*
X50613747Y-113510720D01*
X184072319Y-52709351D02*
X183072319Y-52709351D01*
X183072319Y-52709351D02*
X183072319Y-52471256D01*
X183072319Y-52471256D02*
X183119938Y-52328399D01*
X183119938Y-52328399D02*
X183215176Y-52233161D01*
X183215176Y-52233161D02*
X183310414Y-52185542D01*
X183310414Y-52185542D02*
X183500890Y-52137923D01*
X183500890Y-52137923D02*
X183643747Y-52137923D01*
X183643747Y-52137923D02*
X183834223Y-52185542D01*
X183834223Y-52185542D02*
X183929461Y-52233161D01*
X183929461Y-52233161D02*
X184024700Y-52328399D01*
X184024700Y-52328399D02*
X184072319Y-52471256D01*
X184072319Y-52471256D02*
X184072319Y-52709351D01*
X184072319Y-51185542D02*
X184072319Y-51756970D01*
X184072319Y-51471256D02*
X183072319Y-51471256D01*
X183072319Y-51471256D02*
X183215176Y-51566494D01*
X183215176Y-51566494D02*
X183310414Y-51661732D01*
X183310414Y-51661732D02*
X183358033Y-51756970D01*
X184072319Y-50709351D02*
X184072319Y-50518875D01*
X184072319Y-50518875D02*
X184024700Y-50423637D01*
X184024700Y-50423637D02*
X183977080Y-50376018D01*
X183977080Y-50376018D02*
X183834223Y-50280780D01*
X183834223Y-50280780D02*
X183643747Y-50233161D01*
X183643747Y-50233161D02*
X183262795Y-50233161D01*
X183262795Y-50233161D02*
X183167557Y-50280780D01*
X183167557Y-50280780D02*
X183119938Y-50328399D01*
X183119938Y-50328399D02*
X183072319Y-50423637D01*
X183072319Y-50423637D02*
X183072319Y-50614113D01*
X183072319Y-50614113D02*
X183119938Y-50709351D01*
X183119938Y-50709351D02*
X183167557Y-50756970D01*
X183167557Y-50756970D02*
X183262795Y-50804589D01*
X183262795Y-50804589D02*
X183500890Y-50804589D01*
X183500890Y-50804589D02*
X183596128Y-50756970D01*
X183596128Y-50756970D02*
X183643747Y-50709351D01*
X183643747Y-50709351D02*
X183691366Y-50614113D01*
X183691366Y-50614113D02*
X183691366Y-50423637D01*
X183691366Y-50423637D02*
X183643747Y-50328399D01*
X183643747Y-50328399D02*
X183596128Y-50280780D01*
X183596128Y-50280780D02*
X183500890Y-50233161D01*
X184392319Y-55566970D02*
X183392319Y-55566970D01*
X184392319Y-54995542D02*
X183820890Y-55424113D01*
X183392319Y-54995542D02*
X183963747Y-55566970D01*
X165022319Y-72553101D02*
X164022319Y-72553101D01*
X164022319Y-72553101D02*
X164022319Y-72315006D01*
X164022319Y-72315006D02*
X164069938Y-72172149D01*
X164069938Y-72172149D02*
X164165176Y-72076911D01*
X164165176Y-72076911D02*
X164260414Y-72029292D01*
X164260414Y-72029292D02*
X164450890Y-71981673D01*
X164450890Y-71981673D02*
X164593747Y-71981673D01*
X164593747Y-71981673D02*
X164784223Y-72029292D01*
X164784223Y-72029292D02*
X164879461Y-72076911D01*
X164879461Y-72076911D02*
X164974700Y-72172149D01*
X164974700Y-72172149D02*
X165022319Y-72315006D01*
X165022319Y-72315006D02*
X165022319Y-72553101D01*
X164022319Y-71648339D02*
X164022319Y-71029292D01*
X164022319Y-71029292D02*
X164403271Y-71362625D01*
X164403271Y-71362625D02*
X164403271Y-71219768D01*
X164403271Y-71219768D02*
X164450890Y-71124530D01*
X164450890Y-71124530D02*
X164498509Y-71076911D01*
X164498509Y-71076911D02*
X164593747Y-71029292D01*
X164593747Y-71029292D02*
X164831842Y-71029292D01*
X164831842Y-71029292D02*
X164927080Y-71076911D01*
X164927080Y-71076911D02*
X164974700Y-71124530D01*
X164974700Y-71124530D02*
X165022319Y-71219768D01*
X165022319Y-71219768D02*
X165022319Y-71505482D01*
X165022319Y-71505482D02*
X164974700Y-71600720D01*
X164974700Y-71600720D02*
X164927080Y-71648339D01*
X164022319Y-70410244D02*
X164022319Y-70315006D01*
X164022319Y-70315006D02*
X164069938Y-70219768D01*
X164069938Y-70219768D02*
X164117557Y-70172149D01*
X164117557Y-70172149D02*
X164212795Y-70124530D01*
X164212795Y-70124530D02*
X164403271Y-70076911D01*
X164403271Y-70076911D02*
X164641366Y-70076911D01*
X164641366Y-70076911D02*
X164831842Y-70124530D01*
X164831842Y-70124530D02*
X164927080Y-70172149D01*
X164927080Y-70172149D02*
X164974700Y-70219768D01*
X164974700Y-70219768D02*
X165022319Y-70315006D01*
X165022319Y-70315006D02*
X165022319Y-70410244D01*
X165022319Y-70410244D02*
X164974700Y-70505482D01*
X164974700Y-70505482D02*
X164927080Y-70553101D01*
X164927080Y-70553101D02*
X164831842Y-70600720D01*
X164831842Y-70600720D02*
X164641366Y-70648339D01*
X164641366Y-70648339D02*
X164403271Y-70648339D01*
X164403271Y-70648339D02*
X164212795Y-70600720D01*
X164212795Y-70600720D02*
X164117557Y-70553101D01*
X164117557Y-70553101D02*
X164069938Y-70505482D01*
X164069938Y-70505482D02*
X164022319Y-70410244D01*
X165342319Y-75410720D02*
X164342319Y-75410720D01*
X165342319Y-74839292D02*
X164770890Y-75267863D01*
X164342319Y-74839292D02*
X164913747Y-75410720D01*
X89181398Y-60247319D02*
X89181398Y-59247319D01*
X89181398Y-59247319D02*
X89419493Y-59247319D01*
X89419493Y-59247319D02*
X89562350Y-59294938D01*
X89562350Y-59294938D02*
X89657588Y-59390176D01*
X89657588Y-59390176D02*
X89705207Y-59485414D01*
X89705207Y-59485414D02*
X89752826Y-59675890D01*
X89752826Y-59675890D02*
X89752826Y-59818747D01*
X89752826Y-59818747D02*
X89705207Y-60009223D01*
X89705207Y-60009223D02*
X89657588Y-60104461D01*
X89657588Y-60104461D02*
X89562350Y-60199700D01*
X89562350Y-60199700D02*
X89419493Y-60247319D01*
X89419493Y-60247319D02*
X89181398Y-60247319D01*
X90705207Y-60247319D02*
X90133779Y-60247319D01*
X90419493Y-60247319D02*
X90419493Y-59247319D01*
X90419493Y-59247319D02*
X90324255Y-59390176D01*
X90324255Y-59390176D02*
X90229017Y-59485414D01*
X90229017Y-59485414D02*
X90133779Y-59533033D01*
X91562350Y-59580652D02*
X91562350Y-60247319D01*
X91324255Y-59199700D02*
X91086160Y-59913985D01*
X91086160Y-59913985D02*
X91705207Y-59913985D01*
X86323779Y-60567319D02*
X86323779Y-59567319D01*
X86895207Y-60567319D02*
X86466636Y-59995890D01*
X86895207Y-59567319D02*
X86323779Y-60138747D01*
X145972319Y-72553101D02*
X144972319Y-72553101D01*
X144972319Y-72553101D02*
X144972319Y-72315006D01*
X144972319Y-72315006D02*
X145019938Y-72172149D01*
X145019938Y-72172149D02*
X145115176Y-72076911D01*
X145115176Y-72076911D02*
X145210414Y-72029292D01*
X145210414Y-72029292D02*
X145400890Y-71981673D01*
X145400890Y-71981673D02*
X145543747Y-71981673D01*
X145543747Y-71981673D02*
X145734223Y-72029292D01*
X145734223Y-72029292D02*
X145829461Y-72076911D01*
X145829461Y-72076911D02*
X145924700Y-72172149D01*
X145924700Y-72172149D02*
X145972319Y-72315006D01*
X145972319Y-72315006D02*
X145972319Y-72553101D01*
X145067557Y-71600720D02*
X145019938Y-71553101D01*
X145019938Y-71553101D02*
X144972319Y-71457863D01*
X144972319Y-71457863D02*
X144972319Y-71219768D01*
X144972319Y-71219768D02*
X145019938Y-71124530D01*
X145019938Y-71124530D02*
X145067557Y-71076911D01*
X145067557Y-71076911D02*
X145162795Y-71029292D01*
X145162795Y-71029292D02*
X145258033Y-71029292D01*
X145258033Y-71029292D02*
X145400890Y-71076911D01*
X145400890Y-71076911D02*
X145972319Y-71648339D01*
X145972319Y-71648339D02*
X145972319Y-71029292D01*
X145972319Y-70553101D02*
X145972319Y-70362625D01*
X145972319Y-70362625D02*
X145924700Y-70267387D01*
X145924700Y-70267387D02*
X145877080Y-70219768D01*
X145877080Y-70219768D02*
X145734223Y-70124530D01*
X145734223Y-70124530D02*
X145543747Y-70076911D01*
X145543747Y-70076911D02*
X145162795Y-70076911D01*
X145162795Y-70076911D02*
X145067557Y-70124530D01*
X145067557Y-70124530D02*
X145019938Y-70172149D01*
X145019938Y-70172149D02*
X144972319Y-70267387D01*
X144972319Y-70267387D02*
X144972319Y-70457863D01*
X144972319Y-70457863D02*
X145019938Y-70553101D01*
X145019938Y-70553101D02*
X145067557Y-70600720D01*
X145067557Y-70600720D02*
X145162795Y-70648339D01*
X145162795Y-70648339D02*
X145400890Y-70648339D01*
X145400890Y-70648339D02*
X145496128Y-70600720D01*
X145496128Y-70600720D02*
X145543747Y-70553101D01*
X145543747Y-70553101D02*
X145591366Y-70457863D01*
X145591366Y-70457863D02*
X145591366Y-70267387D01*
X145591366Y-70267387D02*
X145543747Y-70172149D01*
X145543747Y-70172149D02*
X145496128Y-70124530D01*
X145496128Y-70124530D02*
X145400890Y-70076911D01*
X146292319Y-75410720D02*
X145292319Y-75410720D01*
X146292319Y-74839292D02*
X145720890Y-75267863D01*
X145292319Y-74839292D02*
X145863747Y-75410720D01*
X69772319Y-72553101D02*
X68772319Y-72553101D01*
X68772319Y-72553101D02*
X68772319Y-72315006D01*
X68772319Y-72315006D02*
X68819938Y-72172149D01*
X68819938Y-72172149D02*
X68915176Y-72076911D01*
X68915176Y-72076911D02*
X69010414Y-72029292D01*
X69010414Y-72029292D02*
X69200890Y-71981673D01*
X69200890Y-71981673D02*
X69343747Y-71981673D01*
X69343747Y-71981673D02*
X69534223Y-72029292D01*
X69534223Y-72029292D02*
X69629461Y-72076911D01*
X69629461Y-72076911D02*
X69724700Y-72172149D01*
X69724700Y-72172149D02*
X69772319Y-72315006D01*
X69772319Y-72315006D02*
X69772319Y-72553101D01*
X68867557Y-71600720D02*
X68819938Y-71553101D01*
X68819938Y-71553101D02*
X68772319Y-71457863D01*
X68772319Y-71457863D02*
X68772319Y-71219768D01*
X68772319Y-71219768D02*
X68819938Y-71124530D01*
X68819938Y-71124530D02*
X68867557Y-71076911D01*
X68867557Y-71076911D02*
X68962795Y-71029292D01*
X68962795Y-71029292D02*
X69058033Y-71029292D01*
X69058033Y-71029292D02*
X69200890Y-71076911D01*
X69200890Y-71076911D02*
X69772319Y-71648339D01*
X69772319Y-71648339D02*
X69772319Y-71029292D01*
X68772319Y-70124530D02*
X68772319Y-70600720D01*
X68772319Y-70600720D02*
X69248509Y-70648339D01*
X69248509Y-70648339D02*
X69200890Y-70600720D01*
X69200890Y-70600720D02*
X69153271Y-70505482D01*
X69153271Y-70505482D02*
X69153271Y-70267387D01*
X69153271Y-70267387D02*
X69200890Y-70172149D01*
X69200890Y-70172149D02*
X69248509Y-70124530D01*
X69248509Y-70124530D02*
X69343747Y-70076911D01*
X69343747Y-70076911D02*
X69581842Y-70076911D01*
X69581842Y-70076911D02*
X69677080Y-70124530D01*
X69677080Y-70124530D02*
X69724700Y-70172149D01*
X69724700Y-70172149D02*
X69772319Y-70267387D01*
X69772319Y-70267387D02*
X69772319Y-70505482D01*
X69772319Y-70505482D02*
X69724700Y-70600720D01*
X69724700Y-70600720D02*
X69677080Y-70648339D01*
X70092319Y-75410720D02*
X69092319Y-75410720D01*
X70092319Y-74839292D02*
X69520890Y-75267863D01*
X69092319Y-74839292D02*
X69663747Y-75410720D01*
X88822319Y-110653101D02*
X87822319Y-110653101D01*
X87822319Y-110653101D02*
X87822319Y-110415006D01*
X87822319Y-110415006D02*
X87869938Y-110272149D01*
X87869938Y-110272149D02*
X87965176Y-110176911D01*
X87965176Y-110176911D02*
X88060414Y-110129292D01*
X88060414Y-110129292D02*
X88250890Y-110081673D01*
X88250890Y-110081673D02*
X88393747Y-110081673D01*
X88393747Y-110081673D02*
X88584223Y-110129292D01*
X88584223Y-110129292D02*
X88679461Y-110176911D01*
X88679461Y-110176911D02*
X88774700Y-110272149D01*
X88774700Y-110272149D02*
X88822319Y-110415006D01*
X88822319Y-110415006D02*
X88822319Y-110653101D01*
X87822319Y-109176911D02*
X87822319Y-109653101D01*
X87822319Y-109653101D02*
X88298509Y-109700720D01*
X88298509Y-109700720D02*
X88250890Y-109653101D01*
X88250890Y-109653101D02*
X88203271Y-109557863D01*
X88203271Y-109557863D02*
X88203271Y-109319768D01*
X88203271Y-109319768D02*
X88250890Y-109224530D01*
X88250890Y-109224530D02*
X88298509Y-109176911D01*
X88298509Y-109176911D02*
X88393747Y-109129292D01*
X88393747Y-109129292D02*
X88631842Y-109129292D01*
X88631842Y-109129292D02*
X88727080Y-109176911D01*
X88727080Y-109176911D02*
X88774700Y-109224530D01*
X88774700Y-109224530D02*
X88822319Y-109319768D01*
X88822319Y-109319768D02*
X88822319Y-109557863D01*
X88822319Y-109557863D02*
X88774700Y-109653101D01*
X88774700Y-109653101D02*
X88727080Y-109700720D01*
X87822319Y-108510244D02*
X87822319Y-108415006D01*
X87822319Y-108415006D02*
X87869938Y-108319768D01*
X87869938Y-108319768D02*
X87917557Y-108272149D01*
X87917557Y-108272149D02*
X88012795Y-108224530D01*
X88012795Y-108224530D02*
X88203271Y-108176911D01*
X88203271Y-108176911D02*
X88441366Y-108176911D01*
X88441366Y-108176911D02*
X88631842Y-108224530D01*
X88631842Y-108224530D02*
X88727080Y-108272149D01*
X88727080Y-108272149D02*
X88774700Y-108319768D01*
X88774700Y-108319768D02*
X88822319Y-108415006D01*
X88822319Y-108415006D02*
X88822319Y-108510244D01*
X88822319Y-108510244D02*
X88774700Y-108605482D01*
X88774700Y-108605482D02*
X88727080Y-108653101D01*
X88727080Y-108653101D02*
X88631842Y-108700720D01*
X88631842Y-108700720D02*
X88441366Y-108748339D01*
X88441366Y-108748339D02*
X88203271Y-108748339D01*
X88203271Y-108748339D02*
X88012795Y-108700720D01*
X88012795Y-108700720D02*
X87917557Y-108653101D01*
X87917557Y-108653101D02*
X87869938Y-108605482D01*
X87869938Y-108605482D02*
X87822319Y-108510244D01*
X89142319Y-113510720D02*
X88142319Y-113510720D01*
X89142319Y-112939292D02*
X88570890Y-113367863D01*
X88142319Y-112939292D02*
X88713747Y-113510720D01*
X203122319Y-52709351D02*
X202122319Y-52709351D01*
X202122319Y-52709351D02*
X202122319Y-52471256D01*
X202122319Y-52471256D02*
X202169938Y-52328399D01*
X202169938Y-52328399D02*
X202265176Y-52233161D01*
X202265176Y-52233161D02*
X202360414Y-52185542D01*
X202360414Y-52185542D02*
X202550890Y-52137923D01*
X202550890Y-52137923D02*
X202693747Y-52137923D01*
X202693747Y-52137923D02*
X202884223Y-52185542D01*
X202884223Y-52185542D02*
X202979461Y-52233161D01*
X202979461Y-52233161D02*
X203074700Y-52328399D01*
X203074700Y-52328399D02*
X203122319Y-52471256D01*
X203122319Y-52471256D02*
X203122319Y-52709351D01*
X202217557Y-51756970D02*
X202169938Y-51709351D01*
X202169938Y-51709351D02*
X202122319Y-51614113D01*
X202122319Y-51614113D02*
X202122319Y-51376018D01*
X202122319Y-51376018D02*
X202169938Y-51280780D01*
X202169938Y-51280780D02*
X202217557Y-51233161D01*
X202217557Y-51233161D02*
X202312795Y-51185542D01*
X202312795Y-51185542D02*
X202408033Y-51185542D01*
X202408033Y-51185542D02*
X202550890Y-51233161D01*
X202550890Y-51233161D02*
X203122319Y-51804589D01*
X203122319Y-51804589D02*
X203122319Y-51185542D01*
X202122319Y-50566494D02*
X202122319Y-50471256D01*
X202122319Y-50471256D02*
X202169938Y-50376018D01*
X202169938Y-50376018D02*
X202217557Y-50328399D01*
X202217557Y-50328399D02*
X202312795Y-50280780D01*
X202312795Y-50280780D02*
X202503271Y-50233161D01*
X202503271Y-50233161D02*
X202741366Y-50233161D01*
X202741366Y-50233161D02*
X202931842Y-50280780D01*
X202931842Y-50280780D02*
X203027080Y-50328399D01*
X203027080Y-50328399D02*
X203074700Y-50376018D01*
X203074700Y-50376018D02*
X203122319Y-50471256D01*
X203122319Y-50471256D02*
X203122319Y-50566494D01*
X203122319Y-50566494D02*
X203074700Y-50661732D01*
X203074700Y-50661732D02*
X203027080Y-50709351D01*
X203027080Y-50709351D02*
X202931842Y-50756970D01*
X202931842Y-50756970D02*
X202741366Y-50804589D01*
X202741366Y-50804589D02*
X202503271Y-50804589D01*
X202503271Y-50804589D02*
X202312795Y-50756970D01*
X202312795Y-50756970D02*
X202217557Y-50709351D01*
X202217557Y-50709351D02*
X202169938Y-50661732D01*
X202169938Y-50661732D02*
X202122319Y-50566494D01*
X203442319Y-55566970D02*
X202442319Y-55566970D01*
X203442319Y-54995542D02*
X202870890Y-55424113D01*
X202442319Y-54995542D02*
X203013747Y-55566970D01*
X145972319Y-110653101D02*
X144972319Y-110653101D01*
X144972319Y-110653101D02*
X144972319Y-110415006D01*
X144972319Y-110415006D02*
X145019938Y-110272149D01*
X145019938Y-110272149D02*
X145115176Y-110176911D01*
X145115176Y-110176911D02*
X145210414Y-110129292D01*
X145210414Y-110129292D02*
X145400890Y-110081673D01*
X145400890Y-110081673D02*
X145543747Y-110081673D01*
X145543747Y-110081673D02*
X145734223Y-110129292D01*
X145734223Y-110129292D02*
X145829461Y-110176911D01*
X145829461Y-110176911D02*
X145924700Y-110272149D01*
X145924700Y-110272149D02*
X145972319Y-110415006D01*
X145972319Y-110415006D02*
X145972319Y-110653101D01*
X144972319Y-109176911D02*
X144972319Y-109653101D01*
X144972319Y-109653101D02*
X145448509Y-109700720D01*
X145448509Y-109700720D02*
X145400890Y-109653101D01*
X145400890Y-109653101D02*
X145353271Y-109557863D01*
X145353271Y-109557863D02*
X145353271Y-109319768D01*
X145353271Y-109319768D02*
X145400890Y-109224530D01*
X145400890Y-109224530D02*
X145448509Y-109176911D01*
X145448509Y-109176911D02*
X145543747Y-109129292D01*
X145543747Y-109129292D02*
X145781842Y-109129292D01*
X145781842Y-109129292D02*
X145877080Y-109176911D01*
X145877080Y-109176911D02*
X145924700Y-109224530D01*
X145924700Y-109224530D02*
X145972319Y-109319768D01*
X145972319Y-109319768D02*
X145972319Y-109557863D01*
X145972319Y-109557863D02*
X145924700Y-109653101D01*
X145924700Y-109653101D02*
X145877080Y-109700720D01*
X144972319Y-108795958D02*
X144972319Y-108176911D01*
X144972319Y-108176911D02*
X145353271Y-108510244D01*
X145353271Y-108510244D02*
X145353271Y-108367387D01*
X145353271Y-108367387D02*
X145400890Y-108272149D01*
X145400890Y-108272149D02*
X145448509Y-108224530D01*
X145448509Y-108224530D02*
X145543747Y-108176911D01*
X145543747Y-108176911D02*
X145781842Y-108176911D01*
X145781842Y-108176911D02*
X145877080Y-108224530D01*
X145877080Y-108224530D02*
X145924700Y-108272149D01*
X145924700Y-108272149D02*
X145972319Y-108367387D01*
X145972319Y-108367387D02*
X145972319Y-108653101D01*
X145972319Y-108653101D02*
X145924700Y-108748339D01*
X145924700Y-108748339D02*
X145877080Y-108795958D01*
X146292319Y-113510720D02*
X145292319Y-113510720D01*
X146292319Y-112939292D02*
X145720890Y-113367863D01*
X145292319Y-112939292D02*
X145863747Y-113510720D01*
X78608589Y-60310819D02*
X78608589Y-59310819D01*
X78608589Y-59310819D02*
X78846684Y-59310819D01*
X78846684Y-59310819D02*
X78989541Y-59358438D01*
X78989541Y-59358438D02*
X79084779Y-59453676D01*
X79084779Y-59453676D02*
X79132398Y-59548914D01*
X79132398Y-59548914D02*
X79180017Y-59739390D01*
X79180017Y-59739390D02*
X79180017Y-59882247D01*
X79180017Y-59882247D02*
X79132398Y-60072723D01*
X79132398Y-60072723D02*
X79084779Y-60167961D01*
X79084779Y-60167961D02*
X78989541Y-60263200D01*
X78989541Y-60263200D02*
X78846684Y-60310819D01*
X78846684Y-60310819D02*
X78608589Y-60310819D01*
X79560970Y-59406057D02*
X79608589Y-59358438D01*
X79608589Y-59358438D02*
X79703827Y-59310819D01*
X79703827Y-59310819D02*
X79941922Y-59310819D01*
X79941922Y-59310819D02*
X80037160Y-59358438D01*
X80037160Y-59358438D02*
X80084779Y-59406057D01*
X80084779Y-59406057D02*
X80132398Y-59501295D01*
X80132398Y-59501295D02*
X80132398Y-59596533D01*
X80132398Y-59596533D02*
X80084779Y-59739390D01*
X80084779Y-59739390D02*
X79513351Y-60310819D01*
X79513351Y-60310819D02*
X80132398Y-60310819D01*
X75274779Y-60630819D02*
X75274779Y-59630819D01*
X75846207Y-60630819D02*
X75417636Y-60059390D01*
X75846207Y-59630819D02*
X75274779Y-60202247D01*
X50722319Y-91603101D02*
X49722319Y-91603101D01*
X49722319Y-91603101D02*
X49722319Y-91365006D01*
X49722319Y-91365006D02*
X49769938Y-91222149D01*
X49769938Y-91222149D02*
X49865176Y-91126911D01*
X49865176Y-91126911D02*
X49960414Y-91079292D01*
X49960414Y-91079292D02*
X50150890Y-91031673D01*
X50150890Y-91031673D02*
X50293747Y-91031673D01*
X50293747Y-91031673D02*
X50484223Y-91079292D01*
X50484223Y-91079292D02*
X50579461Y-91126911D01*
X50579461Y-91126911D02*
X50674700Y-91222149D01*
X50674700Y-91222149D02*
X50722319Y-91365006D01*
X50722319Y-91365006D02*
X50722319Y-91603101D01*
X49722319Y-90698339D02*
X49722319Y-90079292D01*
X49722319Y-90079292D02*
X50103271Y-90412625D01*
X50103271Y-90412625D02*
X50103271Y-90269768D01*
X50103271Y-90269768D02*
X50150890Y-90174530D01*
X50150890Y-90174530D02*
X50198509Y-90126911D01*
X50198509Y-90126911D02*
X50293747Y-90079292D01*
X50293747Y-90079292D02*
X50531842Y-90079292D01*
X50531842Y-90079292D02*
X50627080Y-90126911D01*
X50627080Y-90126911D02*
X50674700Y-90174530D01*
X50674700Y-90174530D02*
X50722319Y-90269768D01*
X50722319Y-90269768D02*
X50722319Y-90555482D01*
X50722319Y-90555482D02*
X50674700Y-90650720D01*
X50674700Y-90650720D02*
X50627080Y-90698339D01*
X49722319Y-89222149D02*
X49722319Y-89412625D01*
X49722319Y-89412625D02*
X49769938Y-89507863D01*
X49769938Y-89507863D02*
X49817557Y-89555482D01*
X49817557Y-89555482D02*
X49960414Y-89650720D01*
X49960414Y-89650720D02*
X50150890Y-89698339D01*
X50150890Y-89698339D02*
X50531842Y-89698339D01*
X50531842Y-89698339D02*
X50627080Y-89650720D01*
X50627080Y-89650720D02*
X50674700Y-89603101D01*
X50674700Y-89603101D02*
X50722319Y-89507863D01*
X50722319Y-89507863D02*
X50722319Y-89317387D01*
X50722319Y-89317387D02*
X50674700Y-89222149D01*
X50674700Y-89222149D02*
X50627080Y-89174530D01*
X50627080Y-89174530D02*
X50531842Y-89126911D01*
X50531842Y-89126911D02*
X50293747Y-89126911D01*
X50293747Y-89126911D02*
X50198509Y-89174530D01*
X50198509Y-89174530D02*
X50150890Y-89222149D01*
X50150890Y-89222149D02*
X50103271Y-89317387D01*
X50103271Y-89317387D02*
X50103271Y-89507863D01*
X50103271Y-89507863D02*
X50150890Y-89603101D01*
X50150890Y-89603101D02*
X50198509Y-89650720D01*
X50198509Y-89650720D02*
X50293747Y-89698339D01*
X51042319Y-94460720D02*
X50042319Y-94460720D01*
X51042319Y-93889292D02*
X50470890Y-94317863D01*
X50042319Y-93889292D02*
X50613747Y-94460720D01*
X184072319Y-33183160D02*
X183072319Y-33183160D01*
X183072319Y-33183160D02*
X183072319Y-32945065D01*
X183072319Y-32945065D02*
X183119938Y-32802208D01*
X183119938Y-32802208D02*
X183215176Y-32706970D01*
X183215176Y-32706970D02*
X183310414Y-32659351D01*
X183310414Y-32659351D02*
X183500890Y-32611732D01*
X183500890Y-32611732D02*
X183643747Y-32611732D01*
X183643747Y-32611732D02*
X183834223Y-32659351D01*
X183834223Y-32659351D02*
X183929461Y-32706970D01*
X183929461Y-32706970D02*
X184024700Y-32802208D01*
X184024700Y-32802208D02*
X184072319Y-32945065D01*
X184072319Y-32945065D02*
X184072319Y-33183160D01*
X183072319Y-32278398D02*
X183072319Y-31611732D01*
X183072319Y-31611732D02*
X184072319Y-32040303D01*
X184392319Y-36516970D02*
X183392319Y-36516970D01*
X184392319Y-35945542D02*
X183820890Y-36374113D01*
X183392319Y-35945542D02*
X183963747Y-36516970D01*
X126922319Y-72553101D02*
X125922319Y-72553101D01*
X125922319Y-72553101D02*
X125922319Y-72315006D01*
X125922319Y-72315006D02*
X125969938Y-72172149D01*
X125969938Y-72172149D02*
X126065176Y-72076911D01*
X126065176Y-72076911D02*
X126160414Y-72029292D01*
X126160414Y-72029292D02*
X126350890Y-71981673D01*
X126350890Y-71981673D02*
X126493747Y-71981673D01*
X126493747Y-71981673D02*
X126684223Y-72029292D01*
X126684223Y-72029292D02*
X126779461Y-72076911D01*
X126779461Y-72076911D02*
X126874700Y-72172149D01*
X126874700Y-72172149D02*
X126922319Y-72315006D01*
X126922319Y-72315006D02*
X126922319Y-72553101D01*
X126017557Y-71600720D02*
X125969938Y-71553101D01*
X125969938Y-71553101D02*
X125922319Y-71457863D01*
X125922319Y-71457863D02*
X125922319Y-71219768D01*
X125922319Y-71219768D02*
X125969938Y-71124530D01*
X125969938Y-71124530D02*
X126017557Y-71076911D01*
X126017557Y-71076911D02*
X126112795Y-71029292D01*
X126112795Y-71029292D02*
X126208033Y-71029292D01*
X126208033Y-71029292D02*
X126350890Y-71076911D01*
X126350890Y-71076911D02*
X126922319Y-71648339D01*
X126922319Y-71648339D02*
X126922319Y-71029292D01*
X126350890Y-70457863D02*
X126303271Y-70553101D01*
X126303271Y-70553101D02*
X126255652Y-70600720D01*
X126255652Y-70600720D02*
X126160414Y-70648339D01*
X126160414Y-70648339D02*
X126112795Y-70648339D01*
X126112795Y-70648339D02*
X126017557Y-70600720D01*
X126017557Y-70600720D02*
X125969938Y-70553101D01*
X125969938Y-70553101D02*
X125922319Y-70457863D01*
X125922319Y-70457863D02*
X125922319Y-70267387D01*
X125922319Y-70267387D02*
X125969938Y-70172149D01*
X125969938Y-70172149D02*
X126017557Y-70124530D01*
X126017557Y-70124530D02*
X126112795Y-70076911D01*
X126112795Y-70076911D02*
X126160414Y-70076911D01*
X126160414Y-70076911D02*
X126255652Y-70124530D01*
X126255652Y-70124530D02*
X126303271Y-70172149D01*
X126303271Y-70172149D02*
X126350890Y-70267387D01*
X126350890Y-70267387D02*
X126350890Y-70457863D01*
X126350890Y-70457863D02*
X126398509Y-70553101D01*
X126398509Y-70553101D02*
X126446128Y-70600720D01*
X126446128Y-70600720D02*
X126541366Y-70648339D01*
X126541366Y-70648339D02*
X126731842Y-70648339D01*
X126731842Y-70648339D02*
X126827080Y-70600720D01*
X126827080Y-70600720D02*
X126874700Y-70553101D01*
X126874700Y-70553101D02*
X126922319Y-70457863D01*
X126922319Y-70457863D02*
X126922319Y-70267387D01*
X126922319Y-70267387D02*
X126874700Y-70172149D01*
X126874700Y-70172149D02*
X126827080Y-70124530D01*
X126827080Y-70124530D02*
X126731842Y-70076911D01*
X126731842Y-70076911D02*
X126541366Y-70076911D01*
X126541366Y-70076911D02*
X126446128Y-70124530D01*
X126446128Y-70124530D02*
X126398509Y-70172149D01*
X126398509Y-70172149D02*
X126350890Y-70267387D01*
X127242319Y-75410720D02*
X126242319Y-75410720D01*
X127242319Y-74839292D02*
X126670890Y-75267863D01*
X126242319Y-74839292D02*
X126813747Y-75410720D01*
X126922319Y-52709351D02*
X125922319Y-52709351D01*
X125922319Y-52709351D02*
X125922319Y-52471256D01*
X125922319Y-52471256D02*
X125969938Y-52328399D01*
X125969938Y-52328399D02*
X126065176Y-52233161D01*
X126065176Y-52233161D02*
X126160414Y-52185542D01*
X126160414Y-52185542D02*
X126350890Y-52137923D01*
X126350890Y-52137923D02*
X126493747Y-52137923D01*
X126493747Y-52137923D02*
X126684223Y-52185542D01*
X126684223Y-52185542D02*
X126779461Y-52233161D01*
X126779461Y-52233161D02*
X126874700Y-52328399D01*
X126874700Y-52328399D02*
X126922319Y-52471256D01*
X126922319Y-52471256D02*
X126922319Y-52709351D01*
X126922319Y-51185542D02*
X126922319Y-51756970D01*
X126922319Y-51471256D02*
X125922319Y-51471256D01*
X125922319Y-51471256D02*
X126065176Y-51566494D01*
X126065176Y-51566494D02*
X126160414Y-51661732D01*
X126160414Y-51661732D02*
X126208033Y-51756970D01*
X125922319Y-50328399D02*
X125922319Y-50518875D01*
X125922319Y-50518875D02*
X125969938Y-50614113D01*
X125969938Y-50614113D02*
X126017557Y-50661732D01*
X126017557Y-50661732D02*
X126160414Y-50756970D01*
X126160414Y-50756970D02*
X126350890Y-50804589D01*
X126350890Y-50804589D02*
X126731842Y-50804589D01*
X126731842Y-50804589D02*
X126827080Y-50756970D01*
X126827080Y-50756970D02*
X126874700Y-50709351D01*
X126874700Y-50709351D02*
X126922319Y-50614113D01*
X126922319Y-50614113D02*
X126922319Y-50423637D01*
X126922319Y-50423637D02*
X126874700Y-50328399D01*
X126874700Y-50328399D02*
X126827080Y-50280780D01*
X126827080Y-50280780D02*
X126731842Y-50233161D01*
X126731842Y-50233161D02*
X126493747Y-50233161D01*
X126493747Y-50233161D02*
X126398509Y-50280780D01*
X126398509Y-50280780D02*
X126350890Y-50328399D01*
X126350890Y-50328399D02*
X126303271Y-50423637D01*
X126303271Y-50423637D02*
X126303271Y-50614113D01*
X126303271Y-50614113D02*
X126350890Y-50709351D01*
X126350890Y-50709351D02*
X126398509Y-50756970D01*
X126398509Y-50756970D02*
X126493747Y-50804589D01*
X127242319Y-55566970D02*
X126242319Y-55566970D01*
X127242319Y-54995542D02*
X126670890Y-55424113D01*
X126242319Y-54995542D02*
X126813747Y-55566970D01*
X165022319Y-52709351D02*
X164022319Y-52709351D01*
X164022319Y-52709351D02*
X164022319Y-52471256D01*
X164022319Y-52471256D02*
X164069938Y-52328399D01*
X164069938Y-52328399D02*
X164165176Y-52233161D01*
X164165176Y-52233161D02*
X164260414Y-52185542D01*
X164260414Y-52185542D02*
X164450890Y-52137923D01*
X164450890Y-52137923D02*
X164593747Y-52137923D01*
X164593747Y-52137923D02*
X164784223Y-52185542D01*
X164784223Y-52185542D02*
X164879461Y-52233161D01*
X164879461Y-52233161D02*
X164974700Y-52328399D01*
X164974700Y-52328399D02*
X165022319Y-52471256D01*
X165022319Y-52471256D02*
X165022319Y-52709351D01*
X165022319Y-51185542D02*
X165022319Y-51756970D01*
X165022319Y-51471256D02*
X164022319Y-51471256D01*
X164022319Y-51471256D02*
X164165176Y-51566494D01*
X164165176Y-51566494D02*
X164260414Y-51661732D01*
X164260414Y-51661732D02*
X164308033Y-51756970D01*
X164450890Y-50614113D02*
X164403271Y-50709351D01*
X164403271Y-50709351D02*
X164355652Y-50756970D01*
X164355652Y-50756970D02*
X164260414Y-50804589D01*
X164260414Y-50804589D02*
X164212795Y-50804589D01*
X164212795Y-50804589D02*
X164117557Y-50756970D01*
X164117557Y-50756970D02*
X164069938Y-50709351D01*
X164069938Y-50709351D02*
X164022319Y-50614113D01*
X164022319Y-50614113D02*
X164022319Y-50423637D01*
X164022319Y-50423637D02*
X164069938Y-50328399D01*
X164069938Y-50328399D02*
X164117557Y-50280780D01*
X164117557Y-50280780D02*
X164212795Y-50233161D01*
X164212795Y-50233161D02*
X164260414Y-50233161D01*
X164260414Y-50233161D02*
X164355652Y-50280780D01*
X164355652Y-50280780D02*
X164403271Y-50328399D01*
X164403271Y-50328399D02*
X164450890Y-50423637D01*
X164450890Y-50423637D02*
X164450890Y-50614113D01*
X164450890Y-50614113D02*
X164498509Y-50709351D01*
X164498509Y-50709351D02*
X164546128Y-50756970D01*
X164546128Y-50756970D02*
X164641366Y-50804589D01*
X164641366Y-50804589D02*
X164831842Y-50804589D01*
X164831842Y-50804589D02*
X164927080Y-50756970D01*
X164927080Y-50756970D02*
X164974700Y-50709351D01*
X164974700Y-50709351D02*
X165022319Y-50614113D01*
X165022319Y-50614113D02*
X165022319Y-50423637D01*
X165022319Y-50423637D02*
X164974700Y-50328399D01*
X164974700Y-50328399D02*
X164927080Y-50280780D01*
X164927080Y-50280780D02*
X164831842Y-50233161D01*
X164831842Y-50233161D02*
X164641366Y-50233161D01*
X164641366Y-50233161D02*
X164546128Y-50280780D01*
X164546128Y-50280780D02*
X164498509Y-50328399D01*
X164498509Y-50328399D02*
X164450890Y-50423637D01*
X165342319Y-55566970D02*
X164342319Y-55566970D01*
X165342319Y-54995542D02*
X164770890Y-55424113D01*
X164342319Y-54995542D02*
X164913747Y-55566970D01*
X222172319Y-110653101D02*
X221172319Y-110653101D01*
X221172319Y-110653101D02*
X221172319Y-110415006D01*
X221172319Y-110415006D02*
X221219938Y-110272149D01*
X221219938Y-110272149D02*
X221315176Y-110176911D01*
X221315176Y-110176911D02*
X221410414Y-110129292D01*
X221410414Y-110129292D02*
X221600890Y-110081673D01*
X221600890Y-110081673D02*
X221743747Y-110081673D01*
X221743747Y-110081673D02*
X221934223Y-110129292D01*
X221934223Y-110129292D02*
X222029461Y-110176911D01*
X222029461Y-110176911D02*
X222124700Y-110272149D01*
X222124700Y-110272149D02*
X222172319Y-110415006D01*
X222172319Y-110415006D02*
X222172319Y-110653101D01*
X221172319Y-109176911D02*
X221172319Y-109653101D01*
X221172319Y-109653101D02*
X221648509Y-109700720D01*
X221648509Y-109700720D02*
X221600890Y-109653101D01*
X221600890Y-109653101D02*
X221553271Y-109557863D01*
X221553271Y-109557863D02*
X221553271Y-109319768D01*
X221553271Y-109319768D02*
X221600890Y-109224530D01*
X221600890Y-109224530D02*
X221648509Y-109176911D01*
X221648509Y-109176911D02*
X221743747Y-109129292D01*
X221743747Y-109129292D02*
X221981842Y-109129292D01*
X221981842Y-109129292D02*
X222077080Y-109176911D01*
X222077080Y-109176911D02*
X222124700Y-109224530D01*
X222124700Y-109224530D02*
X222172319Y-109319768D01*
X222172319Y-109319768D02*
X222172319Y-109557863D01*
X222172319Y-109557863D02*
X222124700Y-109653101D01*
X222124700Y-109653101D02*
X222077080Y-109700720D01*
X221172319Y-108795958D02*
X221172319Y-108129292D01*
X221172319Y-108129292D02*
X222172319Y-108557863D01*
X222492319Y-113510720D02*
X221492319Y-113510720D01*
X222492319Y-112939292D02*
X221920890Y-113367863D01*
X221492319Y-112939292D02*
X222063747Y-113510720D01*
X222172319Y-72553101D02*
X221172319Y-72553101D01*
X221172319Y-72553101D02*
X221172319Y-72315006D01*
X221172319Y-72315006D02*
X221219938Y-72172149D01*
X221219938Y-72172149D02*
X221315176Y-72076911D01*
X221315176Y-72076911D02*
X221410414Y-72029292D01*
X221410414Y-72029292D02*
X221600890Y-71981673D01*
X221600890Y-71981673D02*
X221743747Y-71981673D01*
X221743747Y-71981673D02*
X221934223Y-72029292D01*
X221934223Y-72029292D02*
X222029461Y-72076911D01*
X222029461Y-72076911D02*
X222124700Y-72172149D01*
X222124700Y-72172149D02*
X222172319Y-72315006D01*
X222172319Y-72315006D02*
X222172319Y-72553101D01*
X221172319Y-71648339D02*
X221172319Y-71029292D01*
X221172319Y-71029292D02*
X221553271Y-71362625D01*
X221553271Y-71362625D02*
X221553271Y-71219768D01*
X221553271Y-71219768D02*
X221600890Y-71124530D01*
X221600890Y-71124530D02*
X221648509Y-71076911D01*
X221648509Y-71076911D02*
X221743747Y-71029292D01*
X221743747Y-71029292D02*
X221981842Y-71029292D01*
X221981842Y-71029292D02*
X222077080Y-71076911D01*
X222077080Y-71076911D02*
X222124700Y-71124530D01*
X222124700Y-71124530D02*
X222172319Y-71219768D01*
X222172319Y-71219768D02*
X222172319Y-71505482D01*
X222172319Y-71505482D02*
X222124700Y-71600720D01*
X222124700Y-71600720D02*
X222077080Y-71648339D01*
X221172319Y-70695958D02*
X221172319Y-70076911D01*
X221172319Y-70076911D02*
X221553271Y-70410244D01*
X221553271Y-70410244D02*
X221553271Y-70267387D01*
X221553271Y-70267387D02*
X221600890Y-70172149D01*
X221600890Y-70172149D02*
X221648509Y-70124530D01*
X221648509Y-70124530D02*
X221743747Y-70076911D01*
X221743747Y-70076911D02*
X221981842Y-70076911D01*
X221981842Y-70076911D02*
X222077080Y-70124530D01*
X222077080Y-70124530D02*
X222124700Y-70172149D01*
X222124700Y-70172149D02*
X222172319Y-70267387D01*
X222172319Y-70267387D02*
X222172319Y-70553101D01*
X222172319Y-70553101D02*
X222124700Y-70648339D01*
X222124700Y-70648339D02*
X222077080Y-70695958D01*
X222492319Y-75410720D02*
X221492319Y-75410720D01*
X222492319Y-74839292D02*
X221920890Y-75267863D01*
X221492319Y-74839292D02*
X222063747Y-75410720D01*
X107872319Y-91603101D02*
X106872319Y-91603101D01*
X106872319Y-91603101D02*
X106872319Y-91365006D01*
X106872319Y-91365006D02*
X106919938Y-91222149D01*
X106919938Y-91222149D02*
X107015176Y-91126911D01*
X107015176Y-91126911D02*
X107110414Y-91079292D01*
X107110414Y-91079292D02*
X107300890Y-91031673D01*
X107300890Y-91031673D02*
X107443747Y-91031673D01*
X107443747Y-91031673D02*
X107634223Y-91079292D01*
X107634223Y-91079292D02*
X107729461Y-91126911D01*
X107729461Y-91126911D02*
X107824700Y-91222149D01*
X107824700Y-91222149D02*
X107872319Y-91365006D01*
X107872319Y-91365006D02*
X107872319Y-91603101D01*
X106872319Y-90698339D02*
X106872319Y-90079292D01*
X106872319Y-90079292D02*
X107253271Y-90412625D01*
X107253271Y-90412625D02*
X107253271Y-90269768D01*
X107253271Y-90269768D02*
X107300890Y-90174530D01*
X107300890Y-90174530D02*
X107348509Y-90126911D01*
X107348509Y-90126911D02*
X107443747Y-90079292D01*
X107443747Y-90079292D02*
X107681842Y-90079292D01*
X107681842Y-90079292D02*
X107777080Y-90126911D01*
X107777080Y-90126911D02*
X107824700Y-90174530D01*
X107824700Y-90174530D02*
X107872319Y-90269768D01*
X107872319Y-90269768D02*
X107872319Y-90555482D01*
X107872319Y-90555482D02*
X107824700Y-90650720D01*
X107824700Y-90650720D02*
X107777080Y-90698339D01*
X107872319Y-89603101D02*
X107872319Y-89412625D01*
X107872319Y-89412625D02*
X107824700Y-89317387D01*
X107824700Y-89317387D02*
X107777080Y-89269768D01*
X107777080Y-89269768D02*
X107634223Y-89174530D01*
X107634223Y-89174530D02*
X107443747Y-89126911D01*
X107443747Y-89126911D02*
X107062795Y-89126911D01*
X107062795Y-89126911D02*
X106967557Y-89174530D01*
X106967557Y-89174530D02*
X106919938Y-89222149D01*
X106919938Y-89222149D02*
X106872319Y-89317387D01*
X106872319Y-89317387D02*
X106872319Y-89507863D01*
X106872319Y-89507863D02*
X106919938Y-89603101D01*
X106919938Y-89603101D02*
X106967557Y-89650720D01*
X106967557Y-89650720D02*
X107062795Y-89698339D01*
X107062795Y-89698339D02*
X107300890Y-89698339D01*
X107300890Y-89698339D02*
X107396128Y-89650720D01*
X107396128Y-89650720D02*
X107443747Y-89603101D01*
X107443747Y-89603101D02*
X107491366Y-89507863D01*
X107491366Y-89507863D02*
X107491366Y-89317387D01*
X107491366Y-89317387D02*
X107443747Y-89222149D01*
X107443747Y-89222149D02*
X107396128Y-89174530D01*
X107396128Y-89174530D02*
X107300890Y-89126911D01*
X108192319Y-94460720D02*
X107192319Y-94460720D01*
X108192319Y-93889292D02*
X107620890Y-94317863D01*
X107192319Y-93889292D02*
X107763747Y-94460720D01*
X88822319Y-72553101D02*
X87822319Y-72553101D01*
X87822319Y-72553101D02*
X87822319Y-72315006D01*
X87822319Y-72315006D02*
X87869938Y-72172149D01*
X87869938Y-72172149D02*
X87965176Y-72076911D01*
X87965176Y-72076911D02*
X88060414Y-72029292D01*
X88060414Y-72029292D02*
X88250890Y-71981673D01*
X88250890Y-71981673D02*
X88393747Y-71981673D01*
X88393747Y-71981673D02*
X88584223Y-72029292D01*
X88584223Y-72029292D02*
X88679461Y-72076911D01*
X88679461Y-72076911D02*
X88774700Y-72172149D01*
X88774700Y-72172149D02*
X88822319Y-72315006D01*
X88822319Y-72315006D02*
X88822319Y-72553101D01*
X87917557Y-71600720D02*
X87869938Y-71553101D01*
X87869938Y-71553101D02*
X87822319Y-71457863D01*
X87822319Y-71457863D02*
X87822319Y-71219768D01*
X87822319Y-71219768D02*
X87869938Y-71124530D01*
X87869938Y-71124530D02*
X87917557Y-71076911D01*
X87917557Y-71076911D02*
X88012795Y-71029292D01*
X88012795Y-71029292D02*
X88108033Y-71029292D01*
X88108033Y-71029292D02*
X88250890Y-71076911D01*
X88250890Y-71076911D02*
X88822319Y-71648339D01*
X88822319Y-71648339D02*
X88822319Y-71029292D01*
X87822319Y-70172149D02*
X87822319Y-70362625D01*
X87822319Y-70362625D02*
X87869938Y-70457863D01*
X87869938Y-70457863D02*
X87917557Y-70505482D01*
X87917557Y-70505482D02*
X88060414Y-70600720D01*
X88060414Y-70600720D02*
X88250890Y-70648339D01*
X88250890Y-70648339D02*
X88631842Y-70648339D01*
X88631842Y-70648339D02*
X88727080Y-70600720D01*
X88727080Y-70600720D02*
X88774700Y-70553101D01*
X88774700Y-70553101D02*
X88822319Y-70457863D01*
X88822319Y-70457863D02*
X88822319Y-70267387D01*
X88822319Y-70267387D02*
X88774700Y-70172149D01*
X88774700Y-70172149D02*
X88727080Y-70124530D01*
X88727080Y-70124530D02*
X88631842Y-70076911D01*
X88631842Y-70076911D02*
X88393747Y-70076911D01*
X88393747Y-70076911D02*
X88298509Y-70124530D01*
X88298509Y-70124530D02*
X88250890Y-70172149D01*
X88250890Y-70172149D02*
X88203271Y-70267387D01*
X88203271Y-70267387D02*
X88203271Y-70457863D01*
X88203271Y-70457863D02*
X88250890Y-70553101D01*
X88250890Y-70553101D02*
X88298509Y-70600720D01*
X88298509Y-70600720D02*
X88393747Y-70648339D01*
X89142319Y-75410720D02*
X88142319Y-75410720D01*
X89142319Y-74839292D02*
X88570890Y-75267863D01*
X88142319Y-74839292D02*
X88713747Y-75410720D01*
X250503148Y-79297319D02*
X250503148Y-78297319D01*
X250503148Y-78297319D02*
X250741243Y-78297319D01*
X250741243Y-78297319D02*
X250884100Y-78344938D01*
X250884100Y-78344938D02*
X250979338Y-78440176D01*
X250979338Y-78440176D02*
X251026957Y-78535414D01*
X251026957Y-78535414D02*
X251074576Y-78725890D01*
X251074576Y-78725890D02*
X251074576Y-78868747D01*
X251074576Y-78868747D02*
X251026957Y-79059223D01*
X251026957Y-79059223D02*
X250979338Y-79154461D01*
X250979338Y-79154461D02*
X250884100Y-79249700D01*
X250884100Y-79249700D02*
X250741243Y-79297319D01*
X250741243Y-79297319D02*
X250503148Y-79297319D01*
X251407910Y-78297319D02*
X252026957Y-78297319D01*
X252026957Y-78297319D02*
X251693624Y-78678271D01*
X251693624Y-78678271D02*
X251836481Y-78678271D01*
X251836481Y-78678271D02*
X251931719Y-78725890D01*
X251931719Y-78725890D02*
X251979338Y-78773509D01*
X251979338Y-78773509D02*
X252026957Y-78868747D01*
X252026957Y-78868747D02*
X252026957Y-79106842D01*
X252026957Y-79106842D02*
X251979338Y-79202080D01*
X251979338Y-79202080D02*
X251931719Y-79249700D01*
X251931719Y-79249700D02*
X251836481Y-79297319D01*
X251836481Y-79297319D02*
X251550767Y-79297319D01*
X251550767Y-79297319D02*
X251455529Y-79249700D01*
X251455529Y-79249700D02*
X251407910Y-79202080D01*
X252931719Y-78297319D02*
X252455529Y-78297319D01*
X252455529Y-78297319D02*
X252407910Y-78773509D01*
X252407910Y-78773509D02*
X252455529Y-78725890D01*
X252455529Y-78725890D02*
X252550767Y-78678271D01*
X252550767Y-78678271D02*
X252788862Y-78678271D01*
X252788862Y-78678271D02*
X252884100Y-78725890D01*
X252884100Y-78725890D02*
X252931719Y-78773509D01*
X252931719Y-78773509D02*
X252979338Y-78868747D01*
X252979338Y-78868747D02*
X252979338Y-79106842D01*
X252979338Y-79106842D02*
X252931719Y-79202080D01*
X252931719Y-79202080D02*
X252884100Y-79249700D01*
X252884100Y-79249700D02*
X252788862Y-79297319D01*
X252788862Y-79297319D02*
X252550767Y-79297319D01*
X252550767Y-79297319D02*
X252455529Y-79249700D01*
X252455529Y-79249700D02*
X252407910Y-79202080D01*
X247645529Y-79617319D02*
X247645529Y-78617319D01*
X248216957Y-79617319D02*
X247788386Y-79045890D01*
X248216957Y-78617319D02*
X247645529Y-79188747D01*
X165022319Y-33183160D02*
X164022319Y-33183160D01*
X164022319Y-33183160D02*
X164022319Y-32945065D01*
X164022319Y-32945065D02*
X164069938Y-32802208D01*
X164069938Y-32802208D02*
X164165176Y-32706970D01*
X164165176Y-32706970D02*
X164260414Y-32659351D01*
X164260414Y-32659351D02*
X164450890Y-32611732D01*
X164450890Y-32611732D02*
X164593747Y-32611732D01*
X164593747Y-32611732D02*
X164784223Y-32659351D01*
X164784223Y-32659351D02*
X164879461Y-32706970D01*
X164879461Y-32706970D02*
X164974700Y-32802208D01*
X164974700Y-32802208D02*
X165022319Y-32945065D01*
X165022319Y-32945065D02*
X165022319Y-33183160D01*
X164022319Y-31754589D02*
X164022319Y-31945065D01*
X164022319Y-31945065D02*
X164069938Y-32040303D01*
X164069938Y-32040303D02*
X164117557Y-32087922D01*
X164117557Y-32087922D02*
X164260414Y-32183160D01*
X164260414Y-32183160D02*
X164450890Y-32230779D01*
X164450890Y-32230779D02*
X164831842Y-32230779D01*
X164831842Y-32230779D02*
X164927080Y-32183160D01*
X164927080Y-32183160D02*
X164974700Y-32135541D01*
X164974700Y-32135541D02*
X165022319Y-32040303D01*
X165022319Y-32040303D02*
X165022319Y-31849827D01*
X165022319Y-31849827D02*
X164974700Y-31754589D01*
X164974700Y-31754589D02*
X164927080Y-31706970D01*
X164927080Y-31706970D02*
X164831842Y-31659351D01*
X164831842Y-31659351D02*
X164593747Y-31659351D01*
X164593747Y-31659351D02*
X164498509Y-31706970D01*
X164498509Y-31706970D02*
X164450890Y-31754589D01*
X164450890Y-31754589D02*
X164403271Y-31849827D01*
X164403271Y-31849827D02*
X164403271Y-32040303D01*
X164403271Y-32040303D02*
X164450890Y-32135541D01*
X164450890Y-32135541D02*
X164498509Y-32183160D01*
X164498509Y-32183160D02*
X164593747Y-32230779D01*
X165342319Y-36516970D02*
X164342319Y-36516970D01*
X165342319Y-35945542D02*
X164770890Y-36374113D01*
X164342319Y-35945542D02*
X164913747Y-36516970D01*
X165022319Y-110653101D02*
X164022319Y-110653101D01*
X164022319Y-110653101D02*
X164022319Y-110415006D01*
X164022319Y-110415006D02*
X164069938Y-110272149D01*
X164069938Y-110272149D02*
X164165176Y-110176911D01*
X164165176Y-110176911D02*
X164260414Y-110129292D01*
X164260414Y-110129292D02*
X164450890Y-110081673D01*
X164450890Y-110081673D02*
X164593747Y-110081673D01*
X164593747Y-110081673D02*
X164784223Y-110129292D01*
X164784223Y-110129292D02*
X164879461Y-110176911D01*
X164879461Y-110176911D02*
X164974700Y-110272149D01*
X164974700Y-110272149D02*
X165022319Y-110415006D01*
X165022319Y-110415006D02*
X165022319Y-110653101D01*
X164022319Y-109176911D02*
X164022319Y-109653101D01*
X164022319Y-109653101D02*
X164498509Y-109700720D01*
X164498509Y-109700720D02*
X164450890Y-109653101D01*
X164450890Y-109653101D02*
X164403271Y-109557863D01*
X164403271Y-109557863D02*
X164403271Y-109319768D01*
X164403271Y-109319768D02*
X164450890Y-109224530D01*
X164450890Y-109224530D02*
X164498509Y-109176911D01*
X164498509Y-109176911D02*
X164593747Y-109129292D01*
X164593747Y-109129292D02*
X164831842Y-109129292D01*
X164831842Y-109129292D02*
X164927080Y-109176911D01*
X164927080Y-109176911D02*
X164974700Y-109224530D01*
X164974700Y-109224530D02*
X165022319Y-109319768D01*
X165022319Y-109319768D02*
X165022319Y-109557863D01*
X165022319Y-109557863D02*
X164974700Y-109653101D01*
X164974700Y-109653101D02*
X164927080Y-109700720D01*
X164355652Y-108272149D02*
X165022319Y-108272149D01*
X163974700Y-108510244D02*
X164688985Y-108748339D01*
X164688985Y-108748339D02*
X164688985Y-108129292D01*
X165342319Y-113510720D02*
X164342319Y-113510720D01*
X165342319Y-112939292D02*
X164770890Y-113367863D01*
X164342319Y-112939292D02*
X164913747Y-113510720D01*
X50722319Y-33341910D02*
X49722319Y-33341910D01*
X49722319Y-33341910D02*
X49722319Y-33103815D01*
X49722319Y-33103815D02*
X49769938Y-32960958D01*
X49769938Y-32960958D02*
X49865176Y-32865720D01*
X49865176Y-32865720D02*
X49960414Y-32818101D01*
X49960414Y-32818101D02*
X50150890Y-32770482D01*
X50150890Y-32770482D02*
X50293747Y-32770482D01*
X50293747Y-32770482D02*
X50484223Y-32818101D01*
X50484223Y-32818101D02*
X50579461Y-32865720D01*
X50579461Y-32865720D02*
X50674700Y-32960958D01*
X50674700Y-32960958D02*
X50722319Y-33103815D01*
X50722319Y-33103815D02*
X50722319Y-33341910D01*
X49722319Y-32151434D02*
X49722319Y-32056196D01*
X49722319Y-32056196D02*
X49769938Y-31960958D01*
X49769938Y-31960958D02*
X49817557Y-31913339D01*
X49817557Y-31913339D02*
X49912795Y-31865720D01*
X49912795Y-31865720D02*
X50103271Y-31818101D01*
X50103271Y-31818101D02*
X50341366Y-31818101D01*
X50341366Y-31818101D02*
X50531842Y-31865720D01*
X50531842Y-31865720D02*
X50627080Y-31913339D01*
X50627080Y-31913339D02*
X50674700Y-31960958D01*
X50674700Y-31960958D02*
X50722319Y-32056196D01*
X50722319Y-32056196D02*
X50722319Y-32151434D01*
X50722319Y-32151434D02*
X50674700Y-32246672D01*
X50674700Y-32246672D02*
X50627080Y-32294291D01*
X50627080Y-32294291D02*
X50531842Y-32341910D01*
X50531842Y-32341910D02*
X50341366Y-32389529D01*
X50341366Y-32389529D02*
X50103271Y-32389529D01*
X50103271Y-32389529D02*
X49912795Y-32341910D01*
X49912795Y-32341910D02*
X49817557Y-32294291D01*
X49817557Y-32294291D02*
X49769938Y-32246672D01*
X49769938Y-32246672D02*
X49722319Y-32151434D01*
X51042319Y-36675720D02*
X50042319Y-36675720D01*
X51042319Y-36104292D02*
X50470890Y-36532863D01*
X50042319Y-36104292D02*
X50613747Y-36675720D01*
X203122319Y-110653101D02*
X202122319Y-110653101D01*
X202122319Y-110653101D02*
X202122319Y-110415006D01*
X202122319Y-110415006D02*
X202169938Y-110272149D01*
X202169938Y-110272149D02*
X202265176Y-110176911D01*
X202265176Y-110176911D02*
X202360414Y-110129292D01*
X202360414Y-110129292D02*
X202550890Y-110081673D01*
X202550890Y-110081673D02*
X202693747Y-110081673D01*
X202693747Y-110081673D02*
X202884223Y-110129292D01*
X202884223Y-110129292D02*
X202979461Y-110176911D01*
X202979461Y-110176911D02*
X203074700Y-110272149D01*
X203074700Y-110272149D02*
X203122319Y-110415006D01*
X203122319Y-110415006D02*
X203122319Y-110653101D01*
X202122319Y-109176911D02*
X202122319Y-109653101D01*
X202122319Y-109653101D02*
X202598509Y-109700720D01*
X202598509Y-109700720D02*
X202550890Y-109653101D01*
X202550890Y-109653101D02*
X202503271Y-109557863D01*
X202503271Y-109557863D02*
X202503271Y-109319768D01*
X202503271Y-109319768D02*
X202550890Y-109224530D01*
X202550890Y-109224530D02*
X202598509Y-109176911D01*
X202598509Y-109176911D02*
X202693747Y-109129292D01*
X202693747Y-109129292D02*
X202931842Y-109129292D01*
X202931842Y-109129292D02*
X203027080Y-109176911D01*
X203027080Y-109176911D02*
X203074700Y-109224530D01*
X203074700Y-109224530D02*
X203122319Y-109319768D01*
X203122319Y-109319768D02*
X203122319Y-109557863D01*
X203122319Y-109557863D02*
X203074700Y-109653101D01*
X203074700Y-109653101D02*
X203027080Y-109700720D01*
X202122319Y-108272149D02*
X202122319Y-108462625D01*
X202122319Y-108462625D02*
X202169938Y-108557863D01*
X202169938Y-108557863D02*
X202217557Y-108605482D01*
X202217557Y-108605482D02*
X202360414Y-108700720D01*
X202360414Y-108700720D02*
X202550890Y-108748339D01*
X202550890Y-108748339D02*
X202931842Y-108748339D01*
X202931842Y-108748339D02*
X203027080Y-108700720D01*
X203027080Y-108700720D02*
X203074700Y-108653101D01*
X203074700Y-108653101D02*
X203122319Y-108557863D01*
X203122319Y-108557863D02*
X203122319Y-108367387D01*
X203122319Y-108367387D02*
X203074700Y-108272149D01*
X203074700Y-108272149D02*
X203027080Y-108224530D01*
X203027080Y-108224530D02*
X202931842Y-108176911D01*
X202931842Y-108176911D02*
X202693747Y-108176911D01*
X202693747Y-108176911D02*
X202598509Y-108224530D01*
X202598509Y-108224530D02*
X202550890Y-108272149D01*
X202550890Y-108272149D02*
X202503271Y-108367387D01*
X202503271Y-108367387D02*
X202503271Y-108557863D01*
X202503271Y-108557863D02*
X202550890Y-108653101D01*
X202550890Y-108653101D02*
X202598509Y-108700720D01*
X202598509Y-108700720D02*
X202693747Y-108748339D01*
X203442319Y-113510720D02*
X202442319Y-113510720D01*
X203442319Y-112939292D02*
X202870890Y-113367863D01*
X202442319Y-112939292D02*
X203013747Y-113510720D01*
X250344398Y-41197319D02*
X250344398Y-40197319D01*
X250344398Y-40197319D02*
X250582493Y-40197319D01*
X250582493Y-40197319D02*
X250725350Y-40244938D01*
X250725350Y-40244938D02*
X250820588Y-40340176D01*
X250820588Y-40340176D02*
X250868207Y-40435414D01*
X250868207Y-40435414D02*
X250915826Y-40625890D01*
X250915826Y-40625890D02*
X250915826Y-40768747D01*
X250915826Y-40768747D02*
X250868207Y-40959223D01*
X250868207Y-40959223D02*
X250820588Y-41054461D01*
X250820588Y-41054461D02*
X250725350Y-41149700D01*
X250725350Y-41149700D02*
X250582493Y-41197319D01*
X250582493Y-41197319D02*
X250344398Y-41197319D01*
X251868207Y-41197319D02*
X251296779Y-41197319D01*
X251582493Y-41197319D02*
X251582493Y-40197319D01*
X251582493Y-40197319D02*
X251487255Y-40340176D01*
X251487255Y-40340176D02*
X251392017Y-40435414D01*
X251392017Y-40435414D02*
X251296779Y-40483033D01*
X252820588Y-41197319D02*
X252249160Y-41197319D01*
X252534874Y-41197319D02*
X252534874Y-40197319D01*
X252534874Y-40197319D02*
X252439636Y-40340176D01*
X252439636Y-40340176D02*
X252344398Y-40435414D01*
X252344398Y-40435414D02*
X252249160Y-40483033D01*
X247486779Y-41517319D02*
X247486779Y-40517319D01*
X248058207Y-41517319D02*
X247629636Y-40945890D01*
X248058207Y-40517319D02*
X247486779Y-41088747D01*
X107872319Y-72553101D02*
X106872319Y-72553101D01*
X106872319Y-72553101D02*
X106872319Y-72315006D01*
X106872319Y-72315006D02*
X106919938Y-72172149D01*
X106919938Y-72172149D02*
X107015176Y-72076911D01*
X107015176Y-72076911D02*
X107110414Y-72029292D01*
X107110414Y-72029292D02*
X107300890Y-71981673D01*
X107300890Y-71981673D02*
X107443747Y-71981673D01*
X107443747Y-71981673D02*
X107634223Y-72029292D01*
X107634223Y-72029292D02*
X107729461Y-72076911D01*
X107729461Y-72076911D02*
X107824700Y-72172149D01*
X107824700Y-72172149D02*
X107872319Y-72315006D01*
X107872319Y-72315006D02*
X107872319Y-72553101D01*
X106967557Y-71600720D02*
X106919938Y-71553101D01*
X106919938Y-71553101D02*
X106872319Y-71457863D01*
X106872319Y-71457863D02*
X106872319Y-71219768D01*
X106872319Y-71219768D02*
X106919938Y-71124530D01*
X106919938Y-71124530D02*
X106967557Y-71076911D01*
X106967557Y-71076911D02*
X107062795Y-71029292D01*
X107062795Y-71029292D02*
X107158033Y-71029292D01*
X107158033Y-71029292D02*
X107300890Y-71076911D01*
X107300890Y-71076911D02*
X107872319Y-71648339D01*
X107872319Y-71648339D02*
X107872319Y-71029292D01*
X106872319Y-70695958D02*
X106872319Y-70029292D01*
X106872319Y-70029292D02*
X107872319Y-70457863D01*
X108192319Y-75410720D02*
X107192319Y-75410720D01*
X108192319Y-74839292D02*
X107620890Y-75267863D01*
X107192319Y-74839292D02*
X107763747Y-75410720D01*
X88822319Y-91603101D02*
X87822319Y-91603101D01*
X87822319Y-91603101D02*
X87822319Y-91365006D01*
X87822319Y-91365006D02*
X87869938Y-91222149D01*
X87869938Y-91222149D02*
X87965176Y-91126911D01*
X87965176Y-91126911D02*
X88060414Y-91079292D01*
X88060414Y-91079292D02*
X88250890Y-91031673D01*
X88250890Y-91031673D02*
X88393747Y-91031673D01*
X88393747Y-91031673D02*
X88584223Y-91079292D01*
X88584223Y-91079292D02*
X88679461Y-91126911D01*
X88679461Y-91126911D02*
X88774700Y-91222149D01*
X88774700Y-91222149D02*
X88822319Y-91365006D01*
X88822319Y-91365006D02*
X88822319Y-91603101D01*
X87822319Y-90698339D02*
X87822319Y-90079292D01*
X87822319Y-90079292D02*
X88203271Y-90412625D01*
X88203271Y-90412625D02*
X88203271Y-90269768D01*
X88203271Y-90269768D02*
X88250890Y-90174530D01*
X88250890Y-90174530D02*
X88298509Y-90126911D01*
X88298509Y-90126911D02*
X88393747Y-90079292D01*
X88393747Y-90079292D02*
X88631842Y-90079292D01*
X88631842Y-90079292D02*
X88727080Y-90126911D01*
X88727080Y-90126911D02*
X88774700Y-90174530D01*
X88774700Y-90174530D02*
X88822319Y-90269768D01*
X88822319Y-90269768D02*
X88822319Y-90555482D01*
X88822319Y-90555482D02*
X88774700Y-90650720D01*
X88774700Y-90650720D02*
X88727080Y-90698339D01*
X88250890Y-89507863D02*
X88203271Y-89603101D01*
X88203271Y-89603101D02*
X88155652Y-89650720D01*
X88155652Y-89650720D02*
X88060414Y-89698339D01*
X88060414Y-89698339D02*
X88012795Y-89698339D01*
X88012795Y-89698339D02*
X87917557Y-89650720D01*
X87917557Y-89650720D02*
X87869938Y-89603101D01*
X87869938Y-89603101D02*
X87822319Y-89507863D01*
X87822319Y-89507863D02*
X87822319Y-89317387D01*
X87822319Y-89317387D02*
X87869938Y-89222149D01*
X87869938Y-89222149D02*
X87917557Y-89174530D01*
X87917557Y-89174530D02*
X88012795Y-89126911D01*
X88012795Y-89126911D02*
X88060414Y-89126911D01*
X88060414Y-89126911D02*
X88155652Y-89174530D01*
X88155652Y-89174530D02*
X88203271Y-89222149D01*
X88203271Y-89222149D02*
X88250890Y-89317387D01*
X88250890Y-89317387D02*
X88250890Y-89507863D01*
X88250890Y-89507863D02*
X88298509Y-89603101D01*
X88298509Y-89603101D02*
X88346128Y-89650720D01*
X88346128Y-89650720D02*
X88441366Y-89698339D01*
X88441366Y-89698339D02*
X88631842Y-89698339D01*
X88631842Y-89698339D02*
X88727080Y-89650720D01*
X88727080Y-89650720D02*
X88774700Y-89603101D01*
X88774700Y-89603101D02*
X88822319Y-89507863D01*
X88822319Y-89507863D02*
X88822319Y-89317387D01*
X88822319Y-89317387D02*
X88774700Y-89222149D01*
X88774700Y-89222149D02*
X88727080Y-89174530D01*
X88727080Y-89174530D02*
X88631842Y-89126911D01*
X88631842Y-89126911D02*
X88441366Y-89126911D01*
X88441366Y-89126911D02*
X88346128Y-89174530D01*
X88346128Y-89174530D02*
X88298509Y-89222149D01*
X88298509Y-89222149D02*
X88250890Y-89317387D01*
X89142319Y-94460720D02*
X88142319Y-94460720D01*
X89142319Y-93889292D02*
X88570890Y-94317863D01*
X88142319Y-93889292D02*
X88713747Y-94460720D01*
X145972319Y-52709351D02*
X144972319Y-52709351D01*
X144972319Y-52709351D02*
X144972319Y-52471256D01*
X144972319Y-52471256D02*
X145019938Y-52328399D01*
X145019938Y-52328399D02*
X145115176Y-52233161D01*
X145115176Y-52233161D02*
X145210414Y-52185542D01*
X145210414Y-52185542D02*
X145400890Y-52137923D01*
X145400890Y-52137923D02*
X145543747Y-52137923D01*
X145543747Y-52137923D02*
X145734223Y-52185542D01*
X145734223Y-52185542D02*
X145829461Y-52233161D01*
X145829461Y-52233161D02*
X145924700Y-52328399D01*
X145924700Y-52328399D02*
X145972319Y-52471256D01*
X145972319Y-52471256D02*
X145972319Y-52709351D01*
X145972319Y-51185542D02*
X145972319Y-51756970D01*
X145972319Y-51471256D02*
X144972319Y-51471256D01*
X144972319Y-51471256D02*
X145115176Y-51566494D01*
X145115176Y-51566494D02*
X145210414Y-51661732D01*
X145210414Y-51661732D02*
X145258033Y-51756970D01*
X144972319Y-50852208D02*
X144972319Y-50185542D01*
X144972319Y-50185542D02*
X145972319Y-50614113D01*
X146292319Y-55566970D02*
X145292319Y-55566970D01*
X146292319Y-54995542D02*
X145720890Y-55424113D01*
X145292319Y-54995542D02*
X145863747Y-55566970D01*
X241222319Y-52709351D02*
X240222319Y-52709351D01*
X240222319Y-52709351D02*
X240222319Y-52471256D01*
X240222319Y-52471256D02*
X240269938Y-52328399D01*
X240269938Y-52328399D02*
X240365176Y-52233161D01*
X240365176Y-52233161D02*
X240460414Y-52185542D01*
X240460414Y-52185542D02*
X240650890Y-52137923D01*
X240650890Y-52137923D02*
X240793747Y-52137923D01*
X240793747Y-52137923D02*
X240984223Y-52185542D01*
X240984223Y-52185542D02*
X241079461Y-52233161D01*
X241079461Y-52233161D02*
X241174700Y-52328399D01*
X241174700Y-52328399D02*
X241222319Y-52471256D01*
X241222319Y-52471256D02*
X241222319Y-52709351D01*
X240317557Y-51756970D02*
X240269938Y-51709351D01*
X240269938Y-51709351D02*
X240222319Y-51614113D01*
X240222319Y-51614113D02*
X240222319Y-51376018D01*
X240222319Y-51376018D02*
X240269938Y-51280780D01*
X240269938Y-51280780D02*
X240317557Y-51233161D01*
X240317557Y-51233161D02*
X240412795Y-51185542D01*
X240412795Y-51185542D02*
X240508033Y-51185542D01*
X240508033Y-51185542D02*
X240650890Y-51233161D01*
X240650890Y-51233161D02*
X241222319Y-51804589D01*
X241222319Y-51804589D02*
X241222319Y-51185542D01*
X240317557Y-50804589D02*
X240269938Y-50756970D01*
X240269938Y-50756970D02*
X240222319Y-50661732D01*
X240222319Y-50661732D02*
X240222319Y-50423637D01*
X240222319Y-50423637D02*
X240269938Y-50328399D01*
X240269938Y-50328399D02*
X240317557Y-50280780D01*
X240317557Y-50280780D02*
X240412795Y-50233161D01*
X240412795Y-50233161D02*
X240508033Y-50233161D01*
X240508033Y-50233161D02*
X240650890Y-50280780D01*
X240650890Y-50280780D02*
X241222319Y-50852208D01*
X241222319Y-50852208D02*
X241222319Y-50233161D01*
X241542319Y-55566970D02*
X240542319Y-55566970D01*
X241542319Y-54995542D02*
X240970890Y-55424113D01*
X240542319Y-54995542D02*
X241113747Y-55566970D01*
X184072319Y-91603101D02*
X183072319Y-91603101D01*
X183072319Y-91603101D02*
X183072319Y-91365006D01*
X183072319Y-91365006D02*
X183119938Y-91222149D01*
X183119938Y-91222149D02*
X183215176Y-91126911D01*
X183215176Y-91126911D02*
X183310414Y-91079292D01*
X183310414Y-91079292D02*
X183500890Y-91031673D01*
X183500890Y-91031673D02*
X183643747Y-91031673D01*
X183643747Y-91031673D02*
X183834223Y-91079292D01*
X183834223Y-91079292D02*
X183929461Y-91126911D01*
X183929461Y-91126911D02*
X184024700Y-91222149D01*
X184024700Y-91222149D02*
X184072319Y-91365006D01*
X184072319Y-91365006D02*
X184072319Y-91603101D01*
X183405652Y-90174530D02*
X184072319Y-90174530D01*
X183024700Y-90412625D02*
X183738985Y-90650720D01*
X183738985Y-90650720D02*
X183738985Y-90031673D01*
X183072319Y-89745958D02*
X183072319Y-89126911D01*
X183072319Y-89126911D02*
X183453271Y-89460244D01*
X183453271Y-89460244D02*
X183453271Y-89317387D01*
X183453271Y-89317387D02*
X183500890Y-89222149D01*
X183500890Y-89222149D02*
X183548509Y-89174530D01*
X183548509Y-89174530D02*
X183643747Y-89126911D01*
X183643747Y-89126911D02*
X183881842Y-89126911D01*
X183881842Y-89126911D02*
X183977080Y-89174530D01*
X183977080Y-89174530D02*
X184024700Y-89222149D01*
X184024700Y-89222149D02*
X184072319Y-89317387D01*
X184072319Y-89317387D02*
X184072319Y-89603101D01*
X184072319Y-89603101D02*
X184024700Y-89698339D01*
X184024700Y-89698339D02*
X183977080Y-89745958D01*
X184392319Y-94460720D02*
X183392319Y-94460720D01*
X184392319Y-93889292D02*
X183820890Y-94317863D01*
X183392319Y-93889292D02*
X183963747Y-94460720D01*
X241222319Y-90809351D02*
X240222319Y-90809351D01*
X240222319Y-90809351D02*
X240222319Y-90571256D01*
X240222319Y-90571256D02*
X240269938Y-90428399D01*
X240269938Y-90428399D02*
X240365176Y-90333161D01*
X240365176Y-90333161D02*
X240460414Y-90285542D01*
X240460414Y-90285542D02*
X240650890Y-90237923D01*
X240650890Y-90237923D02*
X240793747Y-90237923D01*
X240793747Y-90237923D02*
X240984223Y-90285542D01*
X240984223Y-90285542D02*
X241079461Y-90333161D01*
X241079461Y-90333161D02*
X241174700Y-90428399D01*
X241174700Y-90428399D02*
X241222319Y-90571256D01*
X241222319Y-90571256D02*
X241222319Y-90809351D01*
X240555652Y-89380780D02*
X241222319Y-89380780D01*
X240174700Y-89618875D02*
X240888985Y-89856970D01*
X240888985Y-89856970D02*
X240888985Y-89237923D01*
X240222319Y-88952208D02*
X240222319Y-88285542D01*
X240222319Y-88285542D02*
X241222319Y-88714113D01*
X241542319Y-93666970D02*
X240542319Y-93666970D01*
X241542319Y-93095542D02*
X240970890Y-93524113D01*
X240542319Y-93095542D02*
X241113747Y-93666970D01*
X85912660Y-30797140D02*
X85836470Y-30759045D01*
X85836470Y-30759045D02*
X85722184Y-30759045D01*
X85722184Y-30759045D02*
X85607898Y-30797140D01*
X85607898Y-30797140D02*
X85531708Y-30873330D01*
X85531708Y-30873330D02*
X85493613Y-30949521D01*
X85493613Y-30949521D02*
X85455517Y-31101902D01*
X85455517Y-31101902D02*
X85455517Y-31216188D01*
X85455517Y-31216188D02*
X85493613Y-31368569D01*
X85493613Y-31368569D02*
X85531708Y-31444759D01*
X85531708Y-31444759D02*
X85607898Y-31520950D01*
X85607898Y-31520950D02*
X85722184Y-31559045D01*
X85722184Y-31559045D02*
X85798375Y-31559045D01*
X85798375Y-31559045D02*
X85912660Y-31520950D01*
X85912660Y-31520950D02*
X85950756Y-31482854D01*
X85950756Y-31482854D02*
X85950756Y-31216188D01*
X85950756Y-31216188D02*
X85798375Y-31216188D01*
X86293613Y-31559045D02*
X86293613Y-30759045D01*
X86293613Y-30759045D02*
X86750756Y-31559045D01*
X86750756Y-31559045D02*
X86750756Y-30759045D01*
X87131708Y-31559045D02*
X87131708Y-30759045D01*
X87131708Y-30759045D02*
X87322184Y-30759045D01*
X87322184Y-30759045D02*
X87436470Y-30797140D01*
X87436470Y-30797140D02*
X87512660Y-30873330D01*
X87512660Y-30873330D02*
X87550755Y-30949521D01*
X87550755Y-30949521D02*
X87588851Y-31101902D01*
X87588851Y-31101902D02*
X87588851Y-31216188D01*
X87588851Y-31216188D02*
X87550755Y-31368569D01*
X87550755Y-31368569D02*
X87512660Y-31444759D01*
X87512660Y-31444759D02*
X87436470Y-31520950D01*
X87436470Y-31520950D02*
X87322184Y-31559045D01*
X87322184Y-31559045D02*
X87131708Y-31559045D01*
X74990660Y-28257140D02*
X74914470Y-28219045D01*
X74914470Y-28219045D02*
X74800184Y-28219045D01*
X74800184Y-28219045D02*
X74685898Y-28257140D01*
X74685898Y-28257140D02*
X74609708Y-28333330D01*
X74609708Y-28333330D02*
X74571613Y-28409521D01*
X74571613Y-28409521D02*
X74533517Y-28561902D01*
X74533517Y-28561902D02*
X74533517Y-28676188D01*
X74533517Y-28676188D02*
X74571613Y-28828569D01*
X74571613Y-28828569D02*
X74609708Y-28904759D01*
X74609708Y-28904759D02*
X74685898Y-28980950D01*
X74685898Y-28980950D02*
X74800184Y-29019045D01*
X74800184Y-29019045D02*
X74876375Y-29019045D01*
X74876375Y-29019045D02*
X74990660Y-28980950D01*
X74990660Y-28980950D02*
X75028756Y-28942854D01*
X75028756Y-28942854D02*
X75028756Y-28676188D01*
X75028756Y-28676188D02*
X74876375Y-28676188D01*
X75371613Y-29019045D02*
X75371613Y-28219045D01*
X75371613Y-28219045D02*
X75828756Y-29019045D01*
X75828756Y-29019045D02*
X75828756Y-28219045D01*
X76209708Y-29019045D02*
X76209708Y-28219045D01*
X76209708Y-28219045D02*
X76400184Y-28219045D01*
X76400184Y-28219045D02*
X76514470Y-28257140D01*
X76514470Y-28257140D02*
X76590660Y-28333330D01*
X76590660Y-28333330D02*
X76628755Y-28409521D01*
X76628755Y-28409521D02*
X76666851Y-28561902D01*
X76666851Y-28561902D02*
X76666851Y-28676188D01*
X76666851Y-28676188D02*
X76628755Y-28828569D01*
X76628755Y-28828569D02*
X76590660Y-28904759D01*
X76590660Y-28904759D02*
X76514470Y-28980950D01*
X76514470Y-28980950D02*
X76400184Y-29019045D01*
X76400184Y-29019045D02*
X76209708Y-29019045D01*
X75487850Y-31500950D02*
X75602136Y-31539045D01*
X75602136Y-31539045D02*
X75792612Y-31539045D01*
X75792612Y-31539045D02*
X75868803Y-31500950D01*
X75868803Y-31500950D02*
X75906898Y-31462854D01*
X75906898Y-31462854D02*
X75944993Y-31386664D01*
X75944993Y-31386664D02*
X75944993Y-31310473D01*
X75944993Y-31310473D02*
X75906898Y-31234283D01*
X75906898Y-31234283D02*
X75868803Y-31196188D01*
X75868803Y-31196188D02*
X75792612Y-31158092D01*
X75792612Y-31158092D02*
X75640231Y-31119997D01*
X75640231Y-31119997D02*
X75564041Y-31081902D01*
X75564041Y-31081902D02*
X75525946Y-31043807D01*
X75525946Y-31043807D02*
X75487850Y-30967616D01*
X75487850Y-30967616D02*
X75487850Y-30891426D01*
X75487850Y-30891426D02*
X75525946Y-30815235D01*
X75525946Y-30815235D02*
X75564041Y-30777140D01*
X75564041Y-30777140D02*
X75640231Y-30739045D01*
X75640231Y-30739045D02*
X75830708Y-30739045D01*
X75830708Y-30739045D02*
X75944993Y-30777140D01*
X76173565Y-30739045D02*
X76630708Y-30739045D01*
X76402136Y-31539045D02*
X76402136Y-30739045D01*
X75276374Y-46379997D02*
X75390660Y-46418092D01*
X75390660Y-46418092D02*
X75428755Y-46456188D01*
X75428755Y-46456188D02*
X75466851Y-46532378D01*
X75466851Y-46532378D02*
X75466851Y-46646664D01*
X75466851Y-46646664D02*
X75428755Y-46722854D01*
X75428755Y-46722854D02*
X75390660Y-46760950D01*
X75390660Y-46760950D02*
X75314470Y-46799045D01*
X75314470Y-46799045D02*
X75009708Y-46799045D01*
X75009708Y-46799045D02*
X75009708Y-45999045D01*
X75009708Y-45999045D02*
X75276374Y-45999045D01*
X75276374Y-45999045D02*
X75352565Y-46037140D01*
X75352565Y-46037140D02*
X75390660Y-46075235D01*
X75390660Y-46075235D02*
X75428755Y-46151426D01*
X75428755Y-46151426D02*
X75428755Y-46227616D01*
X75428755Y-46227616D02*
X75390660Y-46303807D01*
X75390660Y-46303807D02*
X75352565Y-46341902D01*
X75352565Y-46341902D02*
X75276374Y-46379997D01*
X75276374Y-46379997D02*
X75009708Y-46379997D01*
X76228755Y-46799045D02*
X75771612Y-46799045D01*
X76000184Y-46799045D02*
X76000184Y-45999045D01*
X76000184Y-45999045D02*
X75923993Y-46113330D01*
X75923993Y-46113330D02*
X75847803Y-46189521D01*
X75847803Y-46189521D02*
X75771612Y-46227616D01*
X85931708Y-29019045D02*
X85931708Y-28219045D01*
X85931708Y-28219045D02*
X86122184Y-28219045D01*
X86122184Y-28219045D02*
X86236470Y-28257140D01*
X86236470Y-28257140D02*
X86312660Y-28333330D01*
X86312660Y-28333330D02*
X86350755Y-28409521D01*
X86350755Y-28409521D02*
X86388851Y-28561902D01*
X86388851Y-28561902D02*
X86388851Y-28676188D01*
X86388851Y-28676188D02*
X86350755Y-28828569D01*
X86350755Y-28828569D02*
X86312660Y-28904759D01*
X86312660Y-28904759D02*
X86236470Y-28980950D01*
X86236470Y-28980950D02*
X86122184Y-29019045D01*
X86122184Y-29019045D02*
X85931708Y-29019045D01*
X86693612Y-28295235D02*
X86731708Y-28257140D01*
X86731708Y-28257140D02*
X86807898Y-28219045D01*
X86807898Y-28219045D02*
X86998374Y-28219045D01*
X86998374Y-28219045D02*
X87074565Y-28257140D01*
X87074565Y-28257140D02*
X87112660Y-28295235D01*
X87112660Y-28295235D02*
X87150755Y-28371426D01*
X87150755Y-28371426D02*
X87150755Y-28447616D01*
X87150755Y-28447616D02*
X87112660Y-28561902D01*
X87112660Y-28561902D02*
X86655517Y-29019045D01*
X86655517Y-29019045D02*
X87150755Y-29019045D01*
X75333517Y-41299997D02*
X75066851Y-41299997D01*
X75066851Y-41719045D02*
X75066851Y-40919045D01*
X75066851Y-40919045D02*
X75447803Y-40919045D01*
X76095422Y-40919045D02*
X75943041Y-40919045D01*
X75943041Y-40919045D02*
X75866850Y-40957140D01*
X75866850Y-40957140D02*
X75828755Y-40995235D01*
X75828755Y-40995235D02*
X75752565Y-41109521D01*
X75752565Y-41109521D02*
X75714469Y-41261902D01*
X75714469Y-41261902D02*
X75714469Y-41566664D01*
X75714469Y-41566664D02*
X75752565Y-41642854D01*
X75752565Y-41642854D02*
X75790660Y-41680950D01*
X75790660Y-41680950D02*
X75866850Y-41719045D01*
X75866850Y-41719045D02*
X76019231Y-41719045D01*
X76019231Y-41719045D02*
X76095422Y-41680950D01*
X76095422Y-41680950D02*
X76133517Y-41642854D01*
X76133517Y-41642854D02*
X76171612Y-41566664D01*
X76171612Y-41566664D02*
X76171612Y-41376188D01*
X76171612Y-41376188D02*
X76133517Y-41299997D01*
X76133517Y-41299997D02*
X76095422Y-41261902D01*
X76095422Y-41261902D02*
X76019231Y-41223807D01*
X76019231Y-41223807D02*
X75866850Y-41223807D01*
X75866850Y-41223807D02*
X75790660Y-41261902D01*
X75790660Y-41261902D02*
X75752565Y-41299997D01*
X75752565Y-41299997D02*
X75714469Y-41376188D01*
X75060474Y-48812847D02*
X75174760Y-48850942D01*
X75174760Y-48850942D02*
X75212855Y-48889038D01*
X75212855Y-48889038D02*
X75250951Y-48965228D01*
X75250951Y-48965228D02*
X75250951Y-49079514D01*
X75250951Y-49079514D02*
X75212855Y-49155704D01*
X75212855Y-49155704D02*
X75174760Y-49193800D01*
X75174760Y-49193800D02*
X75098570Y-49231895D01*
X75098570Y-49231895D02*
X74793808Y-49231895D01*
X74793808Y-49231895D02*
X74793808Y-48431895D01*
X74793808Y-48431895D02*
X75060474Y-48431895D01*
X75060474Y-48431895D02*
X75136665Y-48469990D01*
X75136665Y-48469990D02*
X75174760Y-48508085D01*
X75174760Y-48508085D02*
X75212855Y-48584276D01*
X75212855Y-48584276D02*
X75212855Y-48660466D01*
X75212855Y-48660466D02*
X75174760Y-48736657D01*
X75174760Y-48736657D02*
X75136665Y-48774752D01*
X75136665Y-48774752D02*
X75060474Y-48812847D01*
X75060474Y-48812847D02*
X74793808Y-48812847D01*
X75517617Y-48431895D02*
X76012855Y-48431895D01*
X76012855Y-48431895D02*
X75746189Y-48736657D01*
X75746189Y-48736657D02*
X75860474Y-48736657D01*
X75860474Y-48736657D02*
X75936665Y-48774752D01*
X75936665Y-48774752D02*
X75974760Y-48812847D01*
X75974760Y-48812847D02*
X76012855Y-48889038D01*
X76012855Y-48889038D02*
X76012855Y-49079514D01*
X76012855Y-49079514D02*
X75974760Y-49155704D01*
X75974760Y-49155704D02*
X75936665Y-49193800D01*
X75936665Y-49193800D02*
X75860474Y-49231895D01*
X75860474Y-49231895D02*
X75631903Y-49231895D01*
X75631903Y-49231895D02*
X75555712Y-49193800D01*
X75555712Y-49193800D02*
X75517617Y-49155704D01*
X75009674Y-50895647D02*
X75123960Y-50933742D01*
X75123960Y-50933742D02*
X75162055Y-50971838D01*
X75162055Y-50971838D02*
X75200151Y-51048028D01*
X75200151Y-51048028D02*
X75200151Y-51162314D01*
X75200151Y-51162314D02*
X75162055Y-51238504D01*
X75162055Y-51238504D02*
X75123960Y-51276600D01*
X75123960Y-51276600D02*
X75047770Y-51314695D01*
X75047770Y-51314695D02*
X74743008Y-51314695D01*
X74743008Y-51314695D02*
X74743008Y-50514695D01*
X74743008Y-50514695D02*
X75009674Y-50514695D01*
X75009674Y-50514695D02*
X75085865Y-50552790D01*
X75085865Y-50552790D02*
X75123960Y-50590885D01*
X75123960Y-50590885D02*
X75162055Y-50667076D01*
X75162055Y-50667076D02*
X75162055Y-50743266D01*
X75162055Y-50743266D02*
X75123960Y-50819457D01*
X75123960Y-50819457D02*
X75085865Y-50857552D01*
X75085865Y-50857552D02*
X75009674Y-50895647D01*
X75009674Y-50895647D02*
X74743008Y-50895647D01*
X75504912Y-50590885D02*
X75543008Y-50552790D01*
X75543008Y-50552790D02*
X75619198Y-50514695D01*
X75619198Y-50514695D02*
X75809674Y-50514695D01*
X75809674Y-50514695D02*
X75885865Y-50552790D01*
X75885865Y-50552790D02*
X75923960Y-50590885D01*
X75923960Y-50590885D02*
X75962055Y-50667076D01*
X75962055Y-50667076D02*
X75962055Y-50743266D01*
X75962055Y-50743266D02*
X75923960Y-50857552D01*
X75923960Y-50857552D02*
X75466817Y-51314695D01*
X75466817Y-51314695D02*
X75962055Y-51314695D01*
X86236474Y-50895647D02*
X86350760Y-50933742D01*
X86350760Y-50933742D02*
X86388855Y-50971838D01*
X86388855Y-50971838D02*
X86426951Y-51048028D01*
X86426951Y-51048028D02*
X86426951Y-51162314D01*
X86426951Y-51162314D02*
X86388855Y-51238504D01*
X86388855Y-51238504D02*
X86350760Y-51276600D01*
X86350760Y-51276600D02*
X86274570Y-51314695D01*
X86274570Y-51314695D02*
X85969808Y-51314695D01*
X85969808Y-51314695D02*
X85969808Y-50514695D01*
X85969808Y-50514695D02*
X86236474Y-50514695D01*
X86236474Y-50514695D02*
X86312665Y-50552790D01*
X86312665Y-50552790D02*
X86350760Y-50590885D01*
X86350760Y-50590885D02*
X86388855Y-50667076D01*
X86388855Y-50667076D02*
X86388855Y-50743266D01*
X86388855Y-50743266D02*
X86350760Y-50819457D01*
X86350760Y-50819457D02*
X86312665Y-50857552D01*
X86312665Y-50857552D02*
X86236474Y-50895647D01*
X86236474Y-50895647D02*
X85969808Y-50895647D01*
X87112665Y-50781361D02*
X87112665Y-51314695D01*
X86922189Y-50476600D02*
X86731712Y-51048028D01*
X86731712Y-51048028D02*
X87226951Y-51048028D01*
X85969803Y-48919997D02*
X86236469Y-48919997D01*
X86350755Y-49339045D02*
X85969803Y-49339045D01*
X85969803Y-49339045D02*
X85969803Y-48539045D01*
X85969803Y-48539045D02*
X86350755Y-48539045D01*
X87036470Y-48539045D02*
X86884089Y-48539045D01*
X86884089Y-48539045D02*
X86807898Y-48577140D01*
X86807898Y-48577140D02*
X86769803Y-48615235D01*
X86769803Y-48615235D02*
X86693613Y-48729521D01*
X86693613Y-48729521D02*
X86655517Y-48881902D01*
X86655517Y-48881902D02*
X86655517Y-49186664D01*
X86655517Y-49186664D02*
X86693613Y-49262854D01*
X86693613Y-49262854D02*
X86731708Y-49300950D01*
X86731708Y-49300950D02*
X86807898Y-49339045D01*
X86807898Y-49339045D02*
X86960279Y-49339045D01*
X86960279Y-49339045D02*
X87036470Y-49300950D01*
X87036470Y-49300950D02*
X87074565Y-49262854D01*
X87074565Y-49262854D02*
X87112660Y-49186664D01*
X87112660Y-49186664D02*
X87112660Y-48996188D01*
X87112660Y-48996188D02*
X87074565Y-48919997D01*
X87074565Y-48919997D02*
X87036470Y-48881902D01*
X87036470Y-48881902D02*
X86960279Y-48843807D01*
X86960279Y-48843807D02*
X86807898Y-48843807D01*
X86807898Y-48843807D02*
X86731708Y-48881902D01*
X86731708Y-48881902D02*
X86693613Y-48919997D01*
X86693613Y-48919997D02*
X86655517Y-48996188D01*
X75276374Y-53999997D02*
X75390660Y-54038092D01*
X75390660Y-54038092D02*
X75428755Y-54076188D01*
X75428755Y-54076188D02*
X75466851Y-54152378D01*
X75466851Y-54152378D02*
X75466851Y-54266664D01*
X75466851Y-54266664D02*
X75428755Y-54342854D01*
X75428755Y-54342854D02*
X75390660Y-54380950D01*
X75390660Y-54380950D02*
X75314470Y-54419045D01*
X75314470Y-54419045D02*
X75009708Y-54419045D01*
X75009708Y-54419045D02*
X75009708Y-53619045D01*
X75009708Y-53619045D02*
X75276374Y-53619045D01*
X75276374Y-53619045D02*
X75352565Y-53657140D01*
X75352565Y-53657140D02*
X75390660Y-53695235D01*
X75390660Y-53695235D02*
X75428755Y-53771426D01*
X75428755Y-53771426D02*
X75428755Y-53847616D01*
X75428755Y-53847616D02*
X75390660Y-53923807D01*
X75390660Y-53923807D02*
X75352565Y-53961902D01*
X75352565Y-53961902D02*
X75276374Y-53999997D01*
X75276374Y-53999997D02*
X75009708Y-53999997D01*
X76152565Y-53619045D02*
X76000184Y-53619045D01*
X76000184Y-53619045D02*
X75923993Y-53657140D01*
X75923993Y-53657140D02*
X75885898Y-53695235D01*
X75885898Y-53695235D02*
X75809708Y-53809521D01*
X75809708Y-53809521D02*
X75771612Y-53961902D01*
X75771612Y-53961902D02*
X75771612Y-54266664D01*
X75771612Y-54266664D02*
X75809708Y-54342854D01*
X75809708Y-54342854D02*
X75847803Y-54380950D01*
X75847803Y-54380950D02*
X75923993Y-54419045D01*
X75923993Y-54419045D02*
X76076374Y-54419045D01*
X76076374Y-54419045D02*
X76152565Y-54380950D01*
X76152565Y-54380950D02*
X76190660Y-54342854D01*
X76190660Y-54342854D02*
X76228755Y-54266664D01*
X76228755Y-54266664D02*
X76228755Y-54076188D01*
X76228755Y-54076188D02*
X76190660Y-53999997D01*
X76190660Y-53999997D02*
X76152565Y-53961902D01*
X76152565Y-53961902D02*
X76076374Y-53923807D01*
X76076374Y-53923807D02*
X75923993Y-53923807D01*
X75923993Y-53923807D02*
X75847803Y-53961902D01*
X75847803Y-53961902D02*
X75809708Y-53999997D01*
X75809708Y-53999997D02*
X75771612Y-54076188D01*
X75333517Y-38759997D02*
X75066851Y-38759997D01*
X75066851Y-39179045D02*
X75066851Y-38379045D01*
X75066851Y-38379045D02*
X75447803Y-38379045D01*
X76133517Y-38379045D02*
X75752565Y-38379045D01*
X75752565Y-38379045D02*
X75714469Y-38759997D01*
X75714469Y-38759997D02*
X75752565Y-38721902D01*
X75752565Y-38721902D02*
X75828755Y-38683807D01*
X75828755Y-38683807D02*
X76019231Y-38683807D01*
X76019231Y-38683807D02*
X76095422Y-38721902D01*
X76095422Y-38721902D02*
X76133517Y-38759997D01*
X76133517Y-38759997D02*
X76171612Y-38836188D01*
X76171612Y-38836188D02*
X76171612Y-39026664D01*
X76171612Y-39026664D02*
X76133517Y-39102854D01*
X76133517Y-39102854D02*
X76095422Y-39140950D01*
X76095422Y-39140950D02*
X76019231Y-39179045D01*
X76019231Y-39179045D02*
X75828755Y-39179045D01*
X75828755Y-39179045D02*
X75752565Y-39140950D01*
X75752565Y-39140950D02*
X75714469Y-39102854D01*
X82442579Y-25679045D02*
X82899722Y-25679045D01*
X82671150Y-26479045D02*
X82671150Y-25679045D01*
X83090198Y-25679045D02*
X83623532Y-26479045D01*
X83623532Y-25679045D02*
X83090198Y-26479045D01*
X84080675Y-25679045D02*
X84156865Y-25679045D01*
X84156865Y-25679045D02*
X84233056Y-25717140D01*
X84233056Y-25717140D02*
X84271151Y-25755235D01*
X84271151Y-25755235D02*
X84309246Y-25831426D01*
X84309246Y-25831426D02*
X84347341Y-25983807D01*
X84347341Y-25983807D02*
X84347341Y-26174283D01*
X84347341Y-26174283D02*
X84309246Y-26326664D01*
X84309246Y-26326664D02*
X84271151Y-26402854D01*
X84271151Y-26402854D02*
X84233056Y-26440950D01*
X84233056Y-26440950D02*
X84156865Y-26479045D01*
X84156865Y-26479045D02*
X84080675Y-26479045D01*
X84080675Y-26479045D02*
X84004484Y-26440950D01*
X84004484Y-26440950D02*
X83966389Y-26402854D01*
X83966389Y-26402854D02*
X83928294Y-26326664D01*
X83928294Y-26326664D02*
X83890198Y-26174283D01*
X83890198Y-26174283D02*
X83890198Y-25983807D01*
X83890198Y-25983807D02*
X83928294Y-25831426D01*
X83928294Y-25831426D02*
X83966389Y-25755235D01*
X83966389Y-25755235D02*
X84004484Y-25717140D01*
X84004484Y-25717140D02*
X84080675Y-25679045D01*
X85261627Y-25640950D02*
X84575913Y-26669521D01*
X85528294Y-26479045D02*
X85528294Y-25679045D01*
X85528294Y-25679045D02*
X85718770Y-25679045D01*
X85718770Y-25679045D02*
X85833056Y-25717140D01*
X85833056Y-25717140D02*
X85909246Y-25793330D01*
X85909246Y-25793330D02*
X85947341Y-25869521D01*
X85947341Y-25869521D02*
X85985437Y-26021902D01*
X85985437Y-26021902D02*
X85985437Y-26136188D01*
X85985437Y-26136188D02*
X85947341Y-26288569D01*
X85947341Y-26288569D02*
X85909246Y-26364759D01*
X85909246Y-26364759D02*
X85833056Y-26440950D01*
X85833056Y-26440950D02*
X85718770Y-26479045D01*
X85718770Y-26479045D02*
X85528294Y-26479045D01*
X86252103Y-25679045D02*
X86747341Y-25679045D01*
X86747341Y-25679045D02*
X86480675Y-25983807D01*
X86480675Y-25983807D02*
X86594960Y-25983807D01*
X86594960Y-25983807D02*
X86671151Y-26021902D01*
X86671151Y-26021902D02*
X86709246Y-26059997D01*
X86709246Y-26059997D02*
X86747341Y-26136188D01*
X86747341Y-26136188D02*
X86747341Y-26326664D01*
X86747341Y-26326664D02*
X86709246Y-26402854D01*
X86709246Y-26402854D02*
X86671151Y-26440950D01*
X86671151Y-26440950D02*
X86594960Y-26479045D01*
X86594960Y-26479045D02*
X86366389Y-26479045D01*
X86366389Y-26479045D02*
X86290198Y-26440950D01*
X86290198Y-26440950D02*
X86252103Y-26402854D01*
X86198374Y-53999997D02*
X86312660Y-54038092D01*
X86312660Y-54038092D02*
X86350755Y-54076188D01*
X86350755Y-54076188D02*
X86388851Y-54152378D01*
X86388851Y-54152378D02*
X86388851Y-54266664D01*
X86388851Y-54266664D02*
X86350755Y-54342854D01*
X86350755Y-54342854D02*
X86312660Y-54380950D01*
X86312660Y-54380950D02*
X86236470Y-54419045D01*
X86236470Y-54419045D02*
X85931708Y-54419045D01*
X85931708Y-54419045D02*
X85931708Y-53619045D01*
X85931708Y-53619045D02*
X86198374Y-53619045D01*
X86198374Y-53619045D02*
X86274565Y-53657140D01*
X86274565Y-53657140D02*
X86312660Y-53695235D01*
X86312660Y-53695235D02*
X86350755Y-53771426D01*
X86350755Y-53771426D02*
X86350755Y-53847616D01*
X86350755Y-53847616D02*
X86312660Y-53923807D01*
X86312660Y-53923807D02*
X86274565Y-53961902D01*
X86274565Y-53961902D02*
X86198374Y-53999997D01*
X86198374Y-53999997D02*
X85931708Y-53999997D01*
X87112660Y-53619045D02*
X86731708Y-53619045D01*
X86731708Y-53619045D02*
X86693612Y-53999997D01*
X86693612Y-53999997D02*
X86731708Y-53961902D01*
X86731708Y-53961902D02*
X86807898Y-53923807D01*
X86807898Y-53923807D02*
X86998374Y-53923807D01*
X86998374Y-53923807D02*
X87074565Y-53961902D01*
X87074565Y-53961902D02*
X87112660Y-53999997D01*
X87112660Y-53999997D02*
X87150755Y-54076188D01*
X87150755Y-54076188D02*
X87150755Y-54266664D01*
X87150755Y-54266664D02*
X87112660Y-54342854D01*
X87112660Y-54342854D02*
X87074565Y-54380950D01*
X87074565Y-54380950D02*
X86998374Y-54419045D01*
X86998374Y-54419045D02*
X86807898Y-54419045D01*
X86807898Y-54419045D02*
X86731708Y-54380950D01*
X86731708Y-54380950D02*
X86693612Y-54342854D01*
X86052360Y-34652390D02*
X85976170Y-34614295D01*
X85976170Y-34614295D02*
X85861884Y-34614295D01*
X85861884Y-34614295D02*
X85747598Y-34652390D01*
X85747598Y-34652390D02*
X85671408Y-34728580D01*
X85671408Y-34728580D02*
X85633313Y-34804771D01*
X85633313Y-34804771D02*
X85595217Y-34957152D01*
X85595217Y-34957152D02*
X85595217Y-35071438D01*
X85595217Y-35071438D02*
X85633313Y-35223819D01*
X85633313Y-35223819D02*
X85671408Y-35300009D01*
X85671408Y-35300009D02*
X85747598Y-35376200D01*
X85747598Y-35376200D02*
X85861884Y-35414295D01*
X85861884Y-35414295D02*
X85938075Y-35414295D01*
X85938075Y-35414295D02*
X86052360Y-35376200D01*
X86052360Y-35376200D02*
X86090456Y-35338104D01*
X86090456Y-35338104D02*
X86090456Y-35071438D01*
X86090456Y-35071438D02*
X85938075Y-35071438D01*
X86433313Y-35414295D02*
X86433313Y-34614295D01*
X86433313Y-34614295D02*
X86890456Y-35414295D01*
X86890456Y-35414295D02*
X86890456Y-34614295D01*
X87271408Y-35414295D02*
X87271408Y-34614295D01*
X87271408Y-34614295D02*
X87461884Y-34614295D01*
X87461884Y-34614295D02*
X87576170Y-34652390D01*
X87576170Y-34652390D02*
X87652360Y-34728580D01*
X87652360Y-34728580D02*
X87690455Y-34804771D01*
X87690455Y-34804771D02*
X87728551Y-34957152D01*
X87728551Y-34957152D02*
X87728551Y-35071438D01*
X87728551Y-35071438D02*
X87690455Y-35223819D01*
X87690455Y-35223819D02*
X87652360Y-35300009D01*
X87652360Y-35300009D02*
X87576170Y-35376200D01*
X87576170Y-35376200D02*
X87461884Y-35414295D01*
X87461884Y-35414295D02*
X87271408Y-35414295D01*
X75333517Y-43839997D02*
X75066851Y-43839997D01*
X75066851Y-44259045D02*
X75066851Y-43459045D01*
X75066851Y-43459045D02*
X75447803Y-43459045D01*
X75676374Y-43459045D02*
X76209708Y-43459045D01*
X76209708Y-43459045D02*
X75866850Y-44259045D01*
X85931708Y-41719045D02*
X85931708Y-40919045D01*
X85931708Y-40919045D02*
X86122184Y-40919045D01*
X86122184Y-40919045D02*
X86236470Y-40957140D01*
X86236470Y-40957140D02*
X86312660Y-41033330D01*
X86312660Y-41033330D02*
X86350755Y-41109521D01*
X86350755Y-41109521D02*
X86388851Y-41261902D01*
X86388851Y-41261902D02*
X86388851Y-41376188D01*
X86388851Y-41376188D02*
X86350755Y-41528569D01*
X86350755Y-41528569D02*
X86312660Y-41604759D01*
X86312660Y-41604759D02*
X86236470Y-41680950D01*
X86236470Y-41680950D02*
X86122184Y-41719045D01*
X86122184Y-41719045D02*
X85931708Y-41719045D01*
X87074565Y-41185711D02*
X87074565Y-41719045D01*
X86884089Y-40880950D02*
X86693612Y-41452378D01*
X86693612Y-41452378D02*
X87188851Y-41452378D01*
X85931708Y-39179045D02*
X85931708Y-38379045D01*
X85931708Y-38379045D02*
X86122184Y-38379045D01*
X86122184Y-38379045D02*
X86236470Y-38417140D01*
X86236470Y-38417140D02*
X86312660Y-38493330D01*
X86312660Y-38493330D02*
X86350755Y-38569521D01*
X86350755Y-38569521D02*
X86388851Y-38721902D01*
X86388851Y-38721902D02*
X86388851Y-38836188D01*
X86388851Y-38836188D02*
X86350755Y-38988569D01*
X86350755Y-38988569D02*
X86312660Y-39064759D01*
X86312660Y-39064759D02*
X86236470Y-39140950D01*
X86236470Y-39140950D02*
X86122184Y-39179045D01*
X86122184Y-39179045D02*
X85931708Y-39179045D01*
X86884089Y-38379045D02*
X86960279Y-38379045D01*
X86960279Y-38379045D02*
X87036470Y-38417140D01*
X87036470Y-38417140D02*
X87074565Y-38455235D01*
X87074565Y-38455235D02*
X87112660Y-38531426D01*
X87112660Y-38531426D02*
X87150755Y-38683807D01*
X87150755Y-38683807D02*
X87150755Y-38874283D01*
X87150755Y-38874283D02*
X87112660Y-39026664D01*
X87112660Y-39026664D02*
X87074565Y-39102854D01*
X87074565Y-39102854D02*
X87036470Y-39140950D01*
X87036470Y-39140950D02*
X86960279Y-39179045D01*
X86960279Y-39179045D02*
X86884089Y-39179045D01*
X86884089Y-39179045D02*
X86807898Y-39140950D01*
X86807898Y-39140950D02*
X86769803Y-39102854D01*
X86769803Y-39102854D02*
X86731708Y-39026664D01*
X86731708Y-39026664D02*
X86693612Y-38874283D01*
X86693612Y-38874283D02*
X86693612Y-38683807D01*
X86693612Y-38683807D02*
X86731708Y-38531426D01*
X86731708Y-38531426D02*
X86769803Y-38455235D01*
X86769803Y-38455235D02*
X86807898Y-38417140D01*
X86807898Y-38417140D02*
X86884089Y-38379045D01*
X86388851Y-44182854D02*
X86350755Y-44220950D01*
X86350755Y-44220950D02*
X86236470Y-44259045D01*
X86236470Y-44259045D02*
X86160279Y-44259045D01*
X86160279Y-44259045D02*
X86045993Y-44220950D01*
X86045993Y-44220950D02*
X85969803Y-44144759D01*
X85969803Y-44144759D02*
X85931708Y-44068569D01*
X85931708Y-44068569D02*
X85893612Y-43916188D01*
X85893612Y-43916188D02*
X85893612Y-43801902D01*
X85893612Y-43801902D02*
X85931708Y-43649521D01*
X85931708Y-43649521D02*
X85969803Y-43573330D01*
X85969803Y-43573330D02*
X86045993Y-43497140D01*
X86045993Y-43497140D02*
X86160279Y-43459045D01*
X86160279Y-43459045D02*
X86236470Y-43459045D01*
X86236470Y-43459045D02*
X86350755Y-43497140D01*
X86350755Y-43497140D02*
X86388851Y-43535235D01*
X87074565Y-43459045D02*
X86922184Y-43459045D01*
X86922184Y-43459045D02*
X86845993Y-43497140D01*
X86845993Y-43497140D02*
X86807898Y-43535235D01*
X86807898Y-43535235D02*
X86731708Y-43649521D01*
X86731708Y-43649521D02*
X86693612Y-43801902D01*
X86693612Y-43801902D02*
X86693612Y-44106664D01*
X86693612Y-44106664D02*
X86731708Y-44182854D01*
X86731708Y-44182854D02*
X86769803Y-44220950D01*
X86769803Y-44220950D02*
X86845993Y-44259045D01*
X86845993Y-44259045D02*
X86998374Y-44259045D01*
X86998374Y-44259045D02*
X87074565Y-44220950D01*
X87074565Y-44220950D02*
X87112660Y-44182854D01*
X87112660Y-44182854D02*
X87150755Y-44106664D01*
X87150755Y-44106664D02*
X87150755Y-43916188D01*
X87150755Y-43916188D02*
X87112660Y-43839997D01*
X87112660Y-43839997D02*
X87074565Y-43801902D01*
X87074565Y-43801902D02*
X86998374Y-43763807D01*
X86998374Y-43763807D02*
X86845993Y-43763807D01*
X86845993Y-43763807D02*
X86769803Y-43801902D01*
X86769803Y-43801902D02*
X86731708Y-43839997D01*
X86731708Y-43839997D02*
X86693612Y-43916188D01*
X74571617Y-34512695D02*
X74838284Y-35312695D01*
X74838284Y-35312695D02*
X75104950Y-34512695D01*
X75828760Y-35236504D02*
X75790664Y-35274600D01*
X75790664Y-35274600D02*
X75676379Y-35312695D01*
X75676379Y-35312695D02*
X75600188Y-35312695D01*
X75600188Y-35312695D02*
X75485902Y-35274600D01*
X75485902Y-35274600D02*
X75409712Y-35198409D01*
X75409712Y-35198409D02*
X75371617Y-35122219D01*
X75371617Y-35122219D02*
X75333521Y-34969838D01*
X75333521Y-34969838D02*
X75333521Y-34855552D01*
X75333521Y-34855552D02*
X75371617Y-34703171D01*
X75371617Y-34703171D02*
X75409712Y-34626980D01*
X75409712Y-34626980D02*
X75485902Y-34550790D01*
X75485902Y-34550790D02*
X75600188Y-34512695D01*
X75600188Y-34512695D02*
X75676379Y-34512695D01*
X75676379Y-34512695D02*
X75790664Y-34550790D01*
X75790664Y-34550790D02*
X75828760Y-34588885D01*
X76628760Y-35236504D02*
X76590664Y-35274600D01*
X76590664Y-35274600D02*
X76476379Y-35312695D01*
X76476379Y-35312695D02*
X76400188Y-35312695D01*
X76400188Y-35312695D02*
X76285902Y-35274600D01*
X76285902Y-35274600D02*
X76209712Y-35198409D01*
X76209712Y-35198409D02*
X76171617Y-35122219D01*
X76171617Y-35122219D02*
X76133521Y-34969838D01*
X76133521Y-34969838D02*
X76133521Y-34855552D01*
X76133521Y-34855552D02*
X76171617Y-34703171D01*
X76171617Y-34703171D02*
X76209712Y-34626980D01*
X76209712Y-34626980D02*
X76285902Y-34550790D01*
X76285902Y-34550790D02*
X76400188Y-34512695D01*
X76400188Y-34512695D02*
X76476379Y-34512695D01*
X76476379Y-34512695D02*
X76590664Y-34550790D01*
X76590664Y-34550790D02*
X76628760Y-34588885D01*
X75047803Y-26479045D02*
X74781136Y-26098092D01*
X74590660Y-26479045D02*
X74590660Y-25679045D01*
X74590660Y-25679045D02*
X74895422Y-25679045D01*
X74895422Y-25679045D02*
X74971612Y-25717140D01*
X74971612Y-25717140D02*
X75009707Y-25755235D01*
X75009707Y-25755235D02*
X75047803Y-25831426D01*
X75047803Y-25831426D02*
X75047803Y-25945711D01*
X75047803Y-25945711D02*
X75009707Y-26021902D01*
X75009707Y-26021902D02*
X74971612Y-26059997D01*
X74971612Y-26059997D02*
X74895422Y-26098092D01*
X74895422Y-26098092D02*
X74590660Y-26098092D01*
X75352564Y-26250473D02*
X75733517Y-26250473D01*
X75276374Y-26479045D02*
X75543041Y-25679045D01*
X75543041Y-25679045D02*
X75809707Y-26479045D01*
X76000183Y-25679045D02*
X76190659Y-26479045D01*
X76190659Y-26479045D02*
X76343040Y-25907616D01*
X76343040Y-25907616D02*
X76495421Y-26479045D01*
X76495421Y-26479045D02*
X76685898Y-25679045D01*
X75333517Y-36219997D02*
X75066851Y-36219997D01*
X75066851Y-36639045D02*
X75066851Y-35839045D01*
X75066851Y-35839045D02*
X75447803Y-35839045D01*
X76095422Y-36105711D02*
X76095422Y-36639045D01*
X75904946Y-35800950D02*
X75714469Y-36372378D01*
X75714469Y-36372378D02*
X76209708Y-36372378D01*
X85931708Y-46799045D02*
X85931708Y-45999045D01*
X85931708Y-45999045D02*
X86122184Y-45999045D01*
X86122184Y-45999045D02*
X86236470Y-46037140D01*
X86236470Y-46037140D02*
X86312660Y-46113330D01*
X86312660Y-46113330D02*
X86350755Y-46189521D01*
X86350755Y-46189521D02*
X86388851Y-46341902D01*
X86388851Y-46341902D02*
X86388851Y-46456188D01*
X86388851Y-46456188D02*
X86350755Y-46608569D01*
X86350755Y-46608569D02*
X86312660Y-46684759D01*
X86312660Y-46684759D02*
X86236470Y-46760950D01*
X86236470Y-46760950D02*
X86122184Y-46799045D01*
X86122184Y-46799045D02*
X85931708Y-46799045D01*
X86655517Y-45999045D02*
X87188851Y-45999045D01*
X87188851Y-45999045D02*
X86845993Y-46799045D01*
X85931708Y-36639045D02*
X85931708Y-35839045D01*
X85931708Y-35839045D02*
X86122184Y-35839045D01*
X86122184Y-35839045D02*
X86236470Y-35877140D01*
X86236470Y-35877140D02*
X86312660Y-35953330D01*
X86312660Y-35953330D02*
X86350755Y-36029521D01*
X86350755Y-36029521D02*
X86388851Y-36181902D01*
X86388851Y-36181902D02*
X86388851Y-36296188D01*
X86388851Y-36296188D02*
X86350755Y-36448569D01*
X86350755Y-36448569D02*
X86312660Y-36524759D01*
X86312660Y-36524759D02*
X86236470Y-36600950D01*
X86236470Y-36600950D02*
X86122184Y-36639045D01*
X86122184Y-36639045D02*
X85931708Y-36639045D01*
X87150755Y-36639045D02*
X86693612Y-36639045D01*
X86922184Y-36639045D02*
X86922184Y-35839045D01*
X86922184Y-35839045D02*
X86845993Y-35953330D01*
X86845993Y-35953330D02*
X86769803Y-36029521D01*
X86769803Y-36029521D02*
X86693612Y-36067616D01*
D12*
X58190000Y-42862500D02*
X58840000Y-42862500D01*
X58840000Y-41742500D02*
X58840000Y-43982500D01*
X58840000Y-43982500D02*
X63080000Y-43982500D01*
X59440000Y-41742500D02*
X59440000Y-43982500D01*
X59560000Y-41742500D02*
X59560000Y-43982500D01*
X59680000Y-41742500D02*
X59680000Y-43982500D01*
X63080000Y-41742500D02*
X58840000Y-41742500D01*
X63080000Y-43982500D02*
X63080000Y-41742500D01*
X63730000Y-42862500D02*
X63080000Y-42862500D01*
G36*
X146936486Y-54683070D02*
G01*
X147804109Y-54696832D01*
X148671733Y-54710594D01*
X148671733Y-66480099D01*
X142221139Y-66492863D01*
X135770545Y-66505628D01*
X135770545Y-69372178D01*
X143013317Y-69372178D01*
X143013317Y-71736138D01*
X139907476Y-71736226D01*
X139299258Y-71736829D01*
X138675155Y-71738530D01*
X138050472Y-71741219D01*
X137440514Y-71744787D01*
X136860587Y-71749125D01*
X136325997Y-71754124D01*
X135852048Y-71759674D01*
X135454046Y-71765665D01*
X135255000Y-71769491D01*
X133708367Y-71802668D01*
X133708367Y-77168217D01*
X135984307Y-77168988D01*
X136454706Y-77170012D01*
X136895045Y-77172637D01*
X137294941Y-77176680D01*
X137644007Y-77181960D01*
X137931858Y-77188294D01*
X138148109Y-77195500D01*
X138282373Y-77203397D01*
X138323666Y-77210017D01*
X138339586Y-77240606D01*
X138352469Y-77315170D01*
X138362489Y-77441226D01*
X138369816Y-77626287D01*
X138374622Y-77877870D01*
X138377080Y-78203489D01*
X138377362Y-78610658D01*
X138375638Y-79106895D01*
X138373963Y-79409742D01*
X138360842Y-81569207D01*
X137459203Y-81582978D01*
X137115683Y-81586435D01*
X136861474Y-81584438D01*
X136685411Y-81576391D01*
X136576329Y-81561697D01*
X136523063Y-81539761D01*
X136516904Y-81532681D01*
X136504032Y-81464046D01*
X136492754Y-81311811D01*
X136483768Y-81092966D01*
X136477775Y-80824500D01*
X136475474Y-80525544D01*
X136474703Y-79582475D01*
X133708367Y-79582475D01*
X133708367Y-83857722D01*
X131897674Y-83857722D01*
X131897674Y-88181342D01*
X130778565Y-88194879D01*
X129659456Y-88208415D01*
X129645861Y-89252079D01*
X129632266Y-90295742D01*
X127069159Y-90295742D01*
X127069159Y-100003069D01*
X129734901Y-100003069D01*
X129734901Y-101511980D01*
X128791832Y-101512095D01*
X128440732Y-101513775D01*
X128022993Y-101518382D01*
X127572511Y-101525386D01*
X127123181Y-101534252D01*
X126708899Y-101544450D01*
X126679357Y-101545277D01*
X125509951Y-101578343D01*
X125509951Y-94523789D01*
X124893812Y-94509666D01*
X124277674Y-94495544D01*
X124250478Y-92406052D01*
X123283284Y-92419709D01*
X122316089Y-92433366D01*
X122290941Y-93464455D01*
X122265792Y-94495544D01*
X119222822Y-94522168D01*
X119222822Y-95828415D01*
X121886648Y-95828415D01*
X121914691Y-95941584D01*
X121924225Y-96033427D01*
X121930032Y-96202592D01*
X121931704Y-96425863D01*
X121928829Y-96680020D01*
X121928223Y-96708613D01*
X121913713Y-97362475D01*
X119852791Y-97401235D01*
X119405545Y-97409035D01*
X118988609Y-97415129D01*
X118612940Y-97419445D01*
X118289494Y-97421909D01*
X118029228Y-97422449D01*
X117843099Y-97420992D01*
X117742063Y-97417464D01*
X117727741Y-97415388D01*
X117712329Y-97390165D01*
X117699434Y-97322546D01*
X117688866Y-97205341D01*
X117680432Y-97031361D01*
X117673944Y-96793415D01*
X117669209Y-96484313D01*
X117666037Y-96096866D01*
X117664237Y-95623884D01*
X117663619Y-95058177D01*
X117663614Y-95000093D01*
X117663614Y-92609405D01*
X115148763Y-92609405D01*
X115148763Y-90547227D01*
X112736326Y-90547227D01*
X112722841Y-89352673D01*
X112709357Y-88158118D01*
X111816585Y-88144384D01*
X110923812Y-88130649D01*
X110923812Y-86070792D01*
X109947134Y-86070792D01*
X109639542Y-86069272D01*
X109363355Y-86065042D01*
X109135558Y-86058590D01*
X108973135Y-86050409D01*
X108893069Y-86040990D01*
X108890896Y-86040262D01*
X108863677Y-86018548D01*
X108843350Y-85968681D01*
X108828952Y-85877895D01*
X108819522Y-85733430D01*
X108814096Y-85522520D01*
X108811712Y-85232403D01*
X108811337Y-84985405D01*
X108811337Y-83961078D01*
X108094604Y-83947123D01*
X107377872Y-83933168D01*
X107352272Y-73094158D01*
X109060781Y-73094158D01*
X109074376Y-74137821D01*
X109087971Y-75181485D01*
X110433416Y-75194880D01*
X111778862Y-75208276D01*
X111778862Y-77319108D01*
X113891337Y-77319108D01*
X113891337Y-79432808D01*
X115764901Y-79419622D01*
X117638466Y-79406435D01*
X117652060Y-78362772D01*
X117665655Y-77319108D01*
X120629098Y-77319108D01*
X120642693Y-76275445D01*
X120656287Y-75231782D01*
X122453388Y-75218573D01*
X124250488Y-75205365D01*
X124264081Y-74162336D01*
X124277674Y-73119306D01*
X125170446Y-73105572D01*
X126063218Y-73091837D01*
X126063218Y-56594808D01*
X130036684Y-56594808D01*
X130036684Y-57693922D01*
X130038154Y-58016743D01*
X130042271Y-58305151D01*
X130048590Y-58544150D01*
X130056666Y-58718745D01*
X130066057Y-58813939D01*
X130070215Y-58826567D01*
X130128327Y-58836488D01*
X130271832Y-58845244D01*
X130485529Y-58852375D01*
X130754220Y-58857418D01*
X131062704Y-58859913D01*
X131175791Y-58860099D01*
X131529853Y-58859867D01*
X131796227Y-58858287D01*
X131987821Y-58854030D01*
X132117541Y-58845769D01*
X132198295Y-58832175D01*
X132242989Y-58811920D01*
X132264531Y-58783676D01*
X132275626Y-58746930D01*
X132283479Y-58663153D01*
X132289027Y-58496198D01*
X132292058Y-58263459D01*
X132292364Y-57982329D01*
X132289733Y-57670203D01*
X132289158Y-57627821D01*
X132274901Y-56621881D01*
X131155792Y-56608344D01*
X130036684Y-56594808D01*
X126063218Y-56594808D01*
X126063218Y-54685445D01*
X127823614Y-54685445D01*
X127823614Y-53528613D01*
X146936486Y-53528613D01*
X146936486Y-54683070D01*
G37*
X242697000Y-35282000D02*
X242697000Y-34632000D01*
X241577000Y-34632000D02*
X243817000Y-34632000D01*
X243817000Y-34632000D02*
X243817000Y-30392000D01*
X241577000Y-34032000D02*
X243817000Y-34032000D01*
X241577000Y-33912000D02*
X243817000Y-33912000D01*
X241577000Y-33792000D02*
X243817000Y-33792000D01*
X241577000Y-30392000D02*
X241577000Y-34632000D01*
X243817000Y-30392000D02*
X241577000Y-30392000D01*
X242697000Y-29742000D02*
X242697000Y-30392000D01*
X47526250Y-41532500D02*
X47526250Y-42862500D01*
X46196250Y-41532500D02*
X47526250Y-41532500D01*
X44926250Y-41532500D02*
X39786250Y-41532500D01*
X44926250Y-41532500D02*
X44926250Y-44192500D01*
X39786250Y-41532500D02*
X39786250Y-44192500D01*
X44926250Y-44192500D02*
X39786250Y-44192500D01*
X242887500Y-74207500D02*
X242887500Y-73557500D01*
X241767500Y-73557500D02*
X244007500Y-73557500D01*
X244007500Y-73557500D02*
X244007500Y-69317500D01*
X241767500Y-72957500D02*
X244007500Y-72957500D01*
X241767500Y-72837500D02*
X244007500Y-72837500D01*
X241767500Y-72717500D02*
X244007500Y-72717500D01*
X241767500Y-69317500D02*
X241767500Y-73557500D01*
X244007500Y-69317500D02*
X241767500Y-69317500D01*
X242887500Y-68667500D02*
X242887500Y-69317500D01*
X204787500Y-74207500D02*
X204787500Y-73557500D01*
X203667500Y-73557500D02*
X205907500Y-73557500D01*
X205907500Y-73557500D02*
X205907500Y-69317500D01*
X203667500Y-72957500D02*
X205907500Y-72957500D01*
X203667500Y-72837500D02*
X205907500Y-72837500D01*
X203667500Y-72717500D02*
X205907500Y-72717500D01*
X203667500Y-69317500D02*
X203667500Y-73557500D01*
X205907500Y-69317500D02*
X203667500Y-69317500D01*
X204787500Y-68667500D02*
X204787500Y-69317500D01*
X242887500Y-112307500D02*
X242887500Y-111657500D01*
X241767500Y-111657500D02*
X244007500Y-111657500D01*
X244007500Y-111657500D02*
X244007500Y-107417500D01*
X241767500Y-111057500D02*
X244007500Y-111057500D01*
X241767500Y-110937500D02*
X244007500Y-110937500D01*
X241767500Y-110817500D02*
X244007500Y-110817500D01*
X241767500Y-107417500D02*
X241767500Y-111657500D01*
X244007500Y-107417500D02*
X241767500Y-107417500D01*
X242887500Y-106767500D02*
X242887500Y-107417500D01*
X109537500Y-54363750D02*
X109537500Y-53713750D01*
X108417500Y-53713750D02*
X110657500Y-53713750D01*
X110657500Y-53713750D02*
X110657500Y-49473750D01*
X108417500Y-53113750D02*
X110657500Y-53113750D01*
X108417500Y-52993750D02*
X110657500Y-52993750D01*
X108417500Y-52873750D02*
X110657500Y-52873750D01*
X108417500Y-49473750D02*
X108417500Y-53713750D01*
X110657500Y-49473750D02*
X108417500Y-49473750D01*
X109537500Y-48823750D02*
X109537500Y-49473750D01*
X166687500Y-93257500D02*
X166687500Y-92607500D01*
X165567500Y-92607500D02*
X167807500Y-92607500D01*
X167807500Y-92607500D02*
X167807500Y-88367500D01*
X165567500Y-92007500D02*
X167807500Y-92007500D01*
X165567500Y-91887500D02*
X167807500Y-91887500D01*
X165567500Y-91767500D02*
X167807500Y-91767500D01*
X165567500Y-88367500D02*
X165567500Y-92607500D01*
X167807500Y-88367500D02*
X165567500Y-88367500D01*
X166687500Y-87717500D02*
X166687500Y-88367500D01*
X147637500Y-93257500D02*
X147637500Y-92607500D01*
X146517500Y-92607500D02*
X148757500Y-92607500D01*
X148757500Y-92607500D02*
X148757500Y-88367500D01*
X146517500Y-92007500D02*
X148757500Y-92007500D01*
X146517500Y-91887500D02*
X148757500Y-91887500D01*
X146517500Y-91767500D02*
X148757500Y-91767500D01*
X146517500Y-88367500D02*
X146517500Y-92607500D01*
X148757500Y-88367500D02*
X146517500Y-88367500D01*
X147637500Y-87717500D02*
X147637500Y-88367500D01*
X109537500Y-35313750D02*
X109537500Y-34663750D01*
X108417500Y-34663750D02*
X110657500Y-34663750D01*
X110657500Y-34663750D02*
X110657500Y-30423750D01*
X108417500Y-34063750D02*
X110657500Y-34063750D01*
X108417500Y-33943750D02*
X110657500Y-33943750D01*
X108417500Y-33823750D02*
X110657500Y-33823750D01*
X108417500Y-30423750D02*
X108417500Y-34663750D01*
X110657500Y-30423750D02*
X108417500Y-30423750D01*
X109537500Y-29773750D02*
X109537500Y-30423750D01*
X128587500Y-93257500D02*
X128587500Y-92607500D01*
X127467500Y-92607500D02*
X129707500Y-92607500D01*
X129707500Y-92607500D02*
X129707500Y-88367500D01*
X127467500Y-92007500D02*
X129707500Y-92007500D01*
X127467500Y-91887500D02*
X129707500Y-91887500D01*
X127467500Y-91767500D02*
X129707500Y-91767500D01*
X127467500Y-88367500D02*
X127467500Y-92607500D01*
X129707500Y-88367500D02*
X127467500Y-88367500D01*
X128587500Y-87717500D02*
X128587500Y-88367500D01*
X128587500Y-112307500D02*
X128587500Y-111657500D01*
X127467500Y-111657500D02*
X129707500Y-111657500D01*
X129707500Y-111657500D02*
X129707500Y-107417500D01*
X127467500Y-111057500D02*
X129707500Y-111057500D01*
X127467500Y-110937500D02*
X129707500Y-110937500D01*
X127467500Y-110817500D02*
X129707500Y-110817500D01*
X127467500Y-107417500D02*
X127467500Y-111657500D01*
X129707500Y-107417500D02*
X127467500Y-107417500D01*
X128587500Y-106767500D02*
X128587500Y-107417500D01*
X185737500Y-112307500D02*
X185737500Y-111657500D01*
X184617500Y-111657500D02*
X186857500Y-111657500D01*
X186857500Y-111657500D02*
X186857500Y-107417500D01*
X184617500Y-111057500D02*
X186857500Y-111057500D01*
X184617500Y-110937500D02*
X186857500Y-110937500D01*
X184617500Y-110817500D02*
X186857500Y-110817500D01*
X184617500Y-107417500D02*
X184617500Y-111657500D01*
X186857500Y-107417500D02*
X184617500Y-107417500D01*
X185737500Y-106767500D02*
X185737500Y-107417500D01*
X223837500Y-35313750D02*
X223837500Y-34663750D01*
X222717500Y-34663750D02*
X224957500Y-34663750D01*
X224957500Y-34663750D02*
X224957500Y-30423750D01*
X222717500Y-34063750D02*
X224957500Y-34063750D01*
X222717500Y-33943750D02*
X224957500Y-33943750D01*
X222717500Y-33823750D02*
X224957500Y-33823750D01*
X222717500Y-30423750D02*
X222717500Y-34663750D01*
X224957500Y-30423750D02*
X222717500Y-30423750D01*
X223837500Y-29773750D02*
X223837500Y-30423750D01*
X248848750Y-100012500D02*
X249498750Y-100012500D01*
X249498750Y-98892500D02*
X249498750Y-101132500D01*
X249498750Y-101132500D02*
X253738750Y-101132500D01*
X250098750Y-98892500D02*
X250098750Y-101132500D01*
X250218750Y-98892500D02*
X250218750Y-101132500D01*
X250338750Y-98892500D02*
X250338750Y-101132500D01*
X253738750Y-98892500D02*
X249498750Y-98892500D01*
X253738750Y-101132500D02*
X253738750Y-98892500D01*
X254388750Y-100012500D02*
X253738750Y-100012500D01*
X71437500Y-112307500D02*
X71437500Y-111657500D01*
X70317500Y-111657500D02*
X72557500Y-111657500D01*
X72557500Y-111657500D02*
X72557500Y-107417500D01*
X70317500Y-111057500D02*
X72557500Y-111057500D01*
X70317500Y-110937500D02*
X72557500Y-110937500D01*
X70317500Y-110817500D02*
X72557500Y-110817500D01*
X70317500Y-107417500D02*
X70317500Y-111657500D01*
X72557500Y-107417500D02*
X70317500Y-107417500D01*
X71437500Y-106767500D02*
X71437500Y-107417500D01*
X204787500Y-93257500D02*
X204787500Y-92607500D01*
X203667500Y-92607500D02*
X205907500Y-92607500D01*
X205907500Y-92607500D02*
X205907500Y-88367500D01*
X203667500Y-92007500D02*
X205907500Y-92007500D01*
X203667500Y-91887500D02*
X205907500Y-91887500D01*
X203667500Y-91767500D02*
X205907500Y-91767500D01*
X203667500Y-88367500D02*
X203667500Y-92607500D01*
X205907500Y-88367500D02*
X203667500Y-88367500D01*
X204787500Y-87717500D02*
X204787500Y-88367500D01*
X71437500Y-93257500D02*
X71437500Y-92607500D01*
X70317500Y-92607500D02*
X72557500Y-92607500D01*
X72557500Y-92607500D02*
X72557500Y-88367500D01*
X70317500Y-92007500D02*
X72557500Y-92007500D01*
X70317500Y-91887500D02*
X72557500Y-91887500D01*
X70317500Y-91767500D02*
X72557500Y-91767500D01*
X70317500Y-88367500D02*
X70317500Y-92607500D01*
X72557500Y-88367500D02*
X70317500Y-88367500D01*
X71437500Y-87717500D02*
X71437500Y-88367500D01*
X185737500Y-74207500D02*
X185737500Y-73557500D01*
X184617500Y-73557500D02*
X186857500Y-73557500D01*
X186857500Y-73557500D02*
X186857500Y-69317500D01*
X184617500Y-72957500D02*
X186857500Y-72957500D01*
X184617500Y-72837500D02*
X186857500Y-72837500D01*
X184617500Y-72717500D02*
X186857500Y-72717500D01*
X184617500Y-69317500D02*
X184617500Y-73557500D01*
X186857500Y-69317500D02*
X184617500Y-69317500D01*
X185737500Y-68667500D02*
X185737500Y-69317500D01*
X147637500Y-35313750D02*
X147637500Y-34663750D01*
X146517500Y-34663750D02*
X148757500Y-34663750D01*
X148757500Y-34663750D02*
X148757500Y-30423750D01*
X146517500Y-34063750D02*
X148757500Y-34063750D01*
X146517500Y-33943750D02*
X148757500Y-33943750D01*
X146517500Y-33823750D02*
X148757500Y-33823750D01*
X146517500Y-30423750D02*
X146517500Y-34663750D01*
X148757500Y-30423750D02*
X146517500Y-30423750D01*
X147637500Y-29773750D02*
X147637500Y-30423750D01*
X204787500Y-35313750D02*
X204787500Y-34663750D01*
X203667500Y-34663750D02*
X205907500Y-34663750D01*
X205907500Y-34663750D02*
X205907500Y-30423750D01*
X203667500Y-34063750D02*
X205907500Y-34063750D01*
X203667500Y-33943750D02*
X205907500Y-33943750D01*
X203667500Y-33823750D02*
X205907500Y-33823750D01*
X203667500Y-30423750D02*
X203667500Y-34663750D01*
X205907500Y-30423750D02*
X203667500Y-30423750D01*
X204787500Y-29773750D02*
X204787500Y-30423750D01*
X63746250Y-61912500D02*
X64396250Y-61912500D01*
X64396250Y-60792500D02*
X64396250Y-63032500D01*
X64396250Y-63032500D02*
X68636250Y-63032500D01*
X64996250Y-60792500D02*
X64996250Y-63032500D01*
X65116250Y-60792500D02*
X65116250Y-63032500D01*
X65236250Y-60792500D02*
X65236250Y-63032500D01*
X68636250Y-60792500D02*
X64396250Y-60792500D01*
X68636250Y-63032500D02*
X68636250Y-60792500D01*
X69286250Y-61912500D02*
X68636250Y-61912500D01*
X229386000Y-98552000D02*
X230036000Y-98552000D01*
X230036000Y-97432000D02*
X230036000Y-99672000D01*
X230036000Y-99672000D02*
X234276000Y-99672000D01*
X230636000Y-97432000D02*
X230636000Y-99672000D01*
X230756000Y-97432000D02*
X230756000Y-99672000D01*
X230876000Y-97432000D02*
X230876000Y-99672000D01*
X234276000Y-97432000D02*
X230036000Y-97432000D01*
X234276000Y-99672000D02*
X234276000Y-97432000D01*
X234926000Y-98552000D02*
X234276000Y-98552000D01*
X52387500Y-74207500D02*
X52387500Y-73557500D01*
X51267500Y-73557500D02*
X53507500Y-73557500D01*
X53507500Y-73557500D02*
X53507500Y-69317500D01*
X51267500Y-72957500D02*
X53507500Y-72957500D01*
X51267500Y-72837500D02*
X53507500Y-72837500D01*
X51267500Y-72717500D02*
X53507500Y-72717500D01*
X51267500Y-69317500D02*
X51267500Y-73557500D01*
X53507500Y-69317500D02*
X51267500Y-69317500D01*
X52387500Y-68667500D02*
X52387500Y-69317500D01*
X223837500Y-93257500D02*
X223837500Y-92607500D01*
X222717500Y-92607500D02*
X224957500Y-92607500D01*
X224957500Y-92607500D02*
X224957500Y-88367500D01*
X222717500Y-92007500D02*
X224957500Y-92007500D01*
X222717500Y-91887500D02*
X224957500Y-91887500D01*
X222717500Y-91767500D02*
X224957500Y-91767500D01*
X222717500Y-88367500D02*
X222717500Y-92607500D01*
X224957500Y-88367500D02*
X222717500Y-88367500D01*
X223837500Y-87717500D02*
X223837500Y-88367500D01*
X248740800Y-61823600D02*
X249390800Y-61823600D01*
X249390800Y-60703600D02*
X249390800Y-62943600D01*
X249390800Y-62943600D02*
X253630800Y-62943600D01*
X249990800Y-60703600D02*
X249990800Y-62943600D01*
X250110800Y-60703600D02*
X250110800Y-62943600D01*
X250230800Y-60703600D02*
X250230800Y-62943600D01*
X253630800Y-60703600D02*
X249390800Y-60703600D01*
X253630800Y-62943600D02*
X253630800Y-60703600D01*
X254280800Y-61823600D02*
X253630800Y-61823600D01*
X128587500Y-35313750D02*
X128587500Y-34663750D01*
X127467500Y-34663750D02*
X129707500Y-34663750D01*
X129707500Y-34663750D02*
X129707500Y-30423750D01*
X127467500Y-34063750D02*
X129707500Y-34063750D01*
X127467500Y-33943750D02*
X129707500Y-33943750D01*
X127467500Y-33823750D02*
X129707500Y-33823750D01*
X127467500Y-30423750D02*
X127467500Y-34663750D01*
X129707500Y-30423750D02*
X127467500Y-30423750D01*
X128587500Y-29773750D02*
X128587500Y-30423750D01*
X109537500Y-112307500D02*
X109537500Y-111657500D01*
X108417500Y-111657500D02*
X110657500Y-111657500D01*
X110657500Y-111657500D02*
X110657500Y-107417500D01*
X108417500Y-111057500D02*
X110657500Y-111057500D01*
X108417500Y-110937500D02*
X110657500Y-110937500D01*
X108417500Y-110817500D02*
X110657500Y-110817500D01*
X108417500Y-107417500D02*
X108417500Y-111657500D01*
X110657500Y-107417500D02*
X108417500Y-107417500D01*
X109537500Y-106767500D02*
X109537500Y-107417500D01*
X223837500Y-54363750D02*
X223837500Y-53713750D01*
X222717500Y-53713750D02*
X224957500Y-53713750D01*
X224957500Y-53713750D02*
X224957500Y-49473750D01*
X222717500Y-53113750D02*
X224957500Y-53113750D01*
X222717500Y-52993750D02*
X224957500Y-52993750D01*
X222717500Y-52873750D02*
X224957500Y-52873750D01*
X222717500Y-49473750D02*
X222717500Y-53713750D01*
X224957500Y-49473750D02*
X222717500Y-49473750D01*
X223837500Y-48823750D02*
X223837500Y-49473750D01*
X52387500Y-54363750D02*
X52387500Y-53713750D01*
X51267500Y-53713750D02*
X53507500Y-53713750D01*
X53507500Y-53713750D02*
X53507500Y-49473750D01*
X51267500Y-53113750D02*
X53507500Y-53113750D01*
X51267500Y-52993750D02*
X53507500Y-52993750D01*
X51267500Y-52873750D02*
X53507500Y-52873750D01*
X51267500Y-49473750D02*
X51267500Y-53713750D01*
X53507500Y-49473750D02*
X51267500Y-49473750D01*
X52387500Y-48823750D02*
X52387500Y-49473750D01*
X52387500Y-112307500D02*
X52387500Y-111657500D01*
X51267500Y-111657500D02*
X53507500Y-111657500D01*
X53507500Y-111657500D02*
X53507500Y-107417500D01*
X51267500Y-111057500D02*
X53507500Y-111057500D01*
X51267500Y-110937500D02*
X53507500Y-110937500D01*
X51267500Y-110817500D02*
X53507500Y-110817500D01*
X51267500Y-107417500D02*
X51267500Y-111657500D01*
X53507500Y-107417500D02*
X51267500Y-107417500D01*
X52387500Y-106767500D02*
X52387500Y-107417500D01*
X185737500Y-54363750D02*
X185737500Y-53713750D01*
X184617500Y-53713750D02*
X186857500Y-53713750D01*
X186857500Y-53713750D02*
X186857500Y-49473750D01*
X184617500Y-53113750D02*
X186857500Y-53113750D01*
X184617500Y-52993750D02*
X186857500Y-52993750D01*
X184617500Y-52873750D02*
X186857500Y-52873750D01*
X184617500Y-49473750D02*
X184617500Y-53713750D01*
X186857500Y-49473750D02*
X184617500Y-49473750D01*
X185737500Y-48823750D02*
X185737500Y-49473750D01*
X166687500Y-74207500D02*
X166687500Y-73557500D01*
X165567500Y-73557500D02*
X167807500Y-73557500D01*
X167807500Y-73557500D02*
X167807500Y-69317500D01*
X165567500Y-72957500D02*
X167807500Y-72957500D01*
X165567500Y-72837500D02*
X167807500Y-72837500D01*
X165567500Y-72717500D02*
X167807500Y-72717500D01*
X165567500Y-69317500D02*
X165567500Y-73557500D01*
X167807500Y-69317500D02*
X165567500Y-69317500D01*
X166687500Y-68667500D02*
X166687500Y-69317500D01*
X87527000Y-61912500D02*
X88177000Y-61912500D01*
X88177000Y-60792500D02*
X88177000Y-63032500D01*
X88177000Y-63032500D02*
X92417000Y-63032500D01*
X88777000Y-60792500D02*
X88777000Y-63032500D01*
X88897000Y-60792500D02*
X88897000Y-63032500D01*
X89017000Y-60792500D02*
X89017000Y-63032500D01*
X92417000Y-60792500D02*
X88177000Y-60792500D01*
X92417000Y-63032500D02*
X92417000Y-60792500D01*
X93067000Y-61912500D02*
X92417000Y-61912500D01*
X147637500Y-74207500D02*
X147637500Y-73557500D01*
X146517500Y-73557500D02*
X148757500Y-73557500D01*
X148757500Y-73557500D02*
X148757500Y-69317500D01*
X146517500Y-72957500D02*
X148757500Y-72957500D01*
X146517500Y-72837500D02*
X148757500Y-72837500D01*
X146517500Y-72717500D02*
X148757500Y-72717500D01*
X146517500Y-69317500D02*
X146517500Y-73557500D01*
X148757500Y-69317500D02*
X146517500Y-69317500D01*
X147637500Y-68667500D02*
X147637500Y-69317500D01*
X71437500Y-74207500D02*
X71437500Y-73557500D01*
X70317500Y-73557500D02*
X72557500Y-73557500D01*
X72557500Y-73557500D02*
X72557500Y-69317500D01*
X70317500Y-72957500D02*
X72557500Y-72957500D01*
X70317500Y-72837500D02*
X72557500Y-72837500D01*
X70317500Y-72717500D02*
X72557500Y-72717500D01*
X70317500Y-69317500D02*
X70317500Y-73557500D01*
X72557500Y-69317500D02*
X70317500Y-69317500D01*
X71437500Y-68667500D02*
X71437500Y-69317500D01*
X90487500Y-112307500D02*
X90487500Y-111657500D01*
X89367500Y-111657500D02*
X91607500Y-111657500D01*
X91607500Y-111657500D02*
X91607500Y-107417500D01*
X89367500Y-111057500D02*
X91607500Y-111057500D01*
X89367500Y-110937500D02*
X91607500Y-110937500D01*
X89367500Y-110817500D02*
X91607500Y-110817500D01*
X89367500Y-107417500D02*
X89367500Y-111657500D01*
X91607500Y-107417500D02*
X89367500Y-107417500D01*
X90487500Y-106767500D02*
X90487500Y-107417500D01*
X204787500Y-54363750D02*
X204787500Y-53713750D01*
X203667500Y-53713750D02*
X205907500Y-53713750D01*
X205907500Y-53713750D02*
X205907500Y-49473750D01*
X203667500Y-53113750D02*
X205907500Y-53113750D01*
X203667500Y-52993750D02*
X205907500Y-52993750D01*
X203667500Y-52873750D02*
X205907500Y-52873750D01*
X203667500Y-49473750D02*
X203667500Y-53713750D01*
X205907500Y-49473750D02*
X203667500Y-49473750D01*
X204787500Y-48823750D02*
X204787500Y-49473750D01*
X147637500Y-112307500D02*
X147637500Y-111657500D01*
X146517500Y-111657500D02*
X148757500Y-111657500D01*
X148757500Y-111657500D02*
X148757500Y-107417500D01*
X146517500Y-111057500D02*
X148757500Y-111057500D01*
X146517500Y-110937500D02*
X148757500Y-110937500D01*
X146517500Y-110817500D02*
X148757500Y-110817500D01*
X146517500Y-107417500D02*
X146517500Y-111657500D01*
X148757500Y-107417500D02*
X146517500Y-107417500D01*
X147637500Y-106767500D02*
X147637500Y-107417500D01*
X76478000Y-61976000D02*
X77128000Y-61976000D01*
X77128000Y-60856000D02*
X77128000Y-63096000D01*
X77128000Y-63096000D02*
X81368000Y-63096000D01*
X77728000Y-60856000D02*
X77728000Y-63096000D01*
X77848000Y-60856000D02*
X77848000Y-63096000D01*
X77968000Y-60856000D02*
X77968000Y-63096000D01*
X81368000Y-60856000D02*
X77128000Y-60856000D01*
X81368000Y-63096000D02*
X81368000Y-60856000D01*
X82018000Y-61976000D02*
X81368000Y-61976000D01*
X52387500Y-93257500D02*
X52387500Y-92607500D01*
X51267500Y-92607500D02*
X53507500Y-92607500D01*
X53507500Y-92607500D02*
X53507500Y-88367500D01*
X51267500Y-92007500D02*
X53507500Y-92007500D01*
X51267500Y-91887500D02*
X53507500Y-91887500D01*
X51267500Y-91767500D02*
X53507500Y-91767500D01*
X51267500Y-88367500D02*
X51267500Y-92607500D01*
X53507500Y-88367500D02*
X51267500Y-88367500D01*
X52387500Y-87717500D02*
X52387500Y-88367500D01*
X185737500Y-35313750D02*
X185737500Y-34663750D01*
X184617500Y-34663750D02*
X186857500Y-34663750D01*
X186857500Y-34663750D02*
X186857500Y-30423750D01*
X184617500Y-34063750D02*
X186857500Y-34063750D01*
X184617500Y-33943750D02*
X186857500Y-33943750D01*
X184617500Y-33823750D02*
X186857500Y-33823750D01*
X184617500Y-30423750D02*
X184617500Y-34663750D01*
X186857500Y-30423750D02*
X184617500Y-30423750D01*
X185737500Y-29773750D02*
X185737500Y-30423750D01*
X128587500Y-74207500D02*
X128587500Y-73557500D01*
X127467500Y-73557500D02*
X129707500Y-73557500D01*
X129707500Y-73557500D02*
X129707500Y-69317500D01*
X127467500Y-72957500D02*
X129707500Y-72957500D01*
X127467500Y-72837500D02*
X129707500Y-72837500D01*
X127467500Y-72717500D02*
X129707500Y-72717500D01*
X127467500Y-69317500D02*
X127467500Y-73557500D01*
X129707500Y-69317500D02*
X127467500Y-69317500D01*
X128587500Y-68667500D02*
X128587500Y-69317500D01*
X128587500Y-54363750D02*
X128587500Y-53713750D01*
X127467500Y-53713750D02*
X129707500Y-53713750D01*
X129707500Y-53713750D02*
X129707500Y-49473750D01*
X127467500Y-53113750D02*
X129707500Y-53113750D01*
X127467500Y-52993750D02*
X129707500Y-52993750D01*
X127467500Y-52873750D02*
X129707500Y-52873750D01*
X127467500Y-49473750D02*
X127467500Y-53713750D01*
X129707500Y-49473750D02*
X127467500Y-49473750D01*
X128587500Y-48823750D02*
X128587500Y-49473750D01*
X166687500Y-54363750D02*
X166687500Y-53713750D01*
X165567500Y-53713750D02*
X167807500Y-53713750D01*
X167807500Y-53713750D02*
X167807500Y-49473750D01*
X165567500Y-53113750D02*
X167807500Y-53113750D01*
X165567500Y-52993750D02*
X167807500Y-52993750D01*
X165567500Y-52873750D02*
X167807500Y-52873750D01*
X165567500Y-49473750D02*
X165567500Y-53713750D01*
X167807500Y-49473750D02*
X165567500Y-49473750D01*
X166687500Y-48823750D02*
X166687500Y-49473750D01*
X223837500Y-112307500D02*
X223837500Y-111657500D01*
X222717500Y-111657500D02*
X224957500Y-111657500D01*
X224957500Y-111657500D02*
X224957500Y-107417500D01*
X222717500Y-111057500D02*
X224957500Y-111057500D01*
X222717500Y-110937500D02*
X224957500Y-110937500D01*
X222717500Y-110817500D02*
X224957500Y-110817500D01*
X222717500Y-107417500D02*
X222717500Y-111657500D01*
X224957500Y-107417500D02*
X222717500Y-107417500D01*
X223837500Y-106767500D02*
X223837500Y-107417500D01*
X223837500Y-74207500D02*
X223837500Y-73557500D01*
X222717500Y-73557500D02*
X224957500Y-73557500D01*
X224957500Y-73557500D02*
X224957500Y-69317500D01*
X222717500Y-72957500D02*
X224957500Y-72957500D01*
X222717500Y-72837500D02*
X224957500Y-72837500D01*
X222717500Y-72717500D02*
X224957500Y-72717500D01*
X222717500Y-69317500D02*
X222717500Y-73557500D01*
X224957500Y-69317500D02*
X222717500Y-69317500D01*
X223837500Y-68667500D02*
X223837500Y-69317500D01*
X109537500Y-93257500D02*
X109537500Y-92607500D01*
X108417500Y-92607500D02*
X110657500Y-92607500D01*
X110657500Y-92607500D02*
X110657500Y-88367500D01*
X108417500Y-92007500D02*
X110657500Y-92007500D01*
X108417500Y-91887500D02*
X110657500Y-91887500D01*
X108417500Y-91767500D02*
X110657500Y-91767500D01*
X108417500Y-88367500D02*
X108417500Y-92607500D01*
X110657500Y-88367500D02*
X108417500Y-88367500D01*
X109537500Y-87717500D02*
X109537500Y-88367500D01*
X90487500Y-74207500D02*
X90487500Y-73557500D01*
X89367500Y-73557500D02*
X91607500Y-73557500D01*
X91607500Y-73557500D02*
X91607500Y-69317500D01*
X89367500Y-72957500D02*
X91607500Y-72957500D01*
X89367500Y-72837500D02*
X91607500Y-72837500D01*
X89367500Y-72717500D02*
X91607500Y-72717500D01*
X89367500Y-69317500D02*
X89367500Y-73557500D01*
X91607500Y-69317500D02*
X89367500Y-69317500D01*
X90487500Y-68667500D02*
X90487500Y-69317500D01*
X248848750Y-80962500D02*
X249498750Y-80962500D01*
X249498750Y-79842500D02*
X249498750Y-82082500D01*
X249498750Y-82082500D02*
X253738750Y-82082500D01*
X250098750Y-79842500D02*
X250098750Y-82082500D01*
X250218750Y-79842500D02*
X250218750Y-82082500D01*
X250338750Y-79842500D02*
X250338750Y-82082500D01*
X253738750Y-79842500D02*
X249498750Y-79842500D01*
X253738750Y-82082500D02*
X253738750Y-79842500D01*
X254388750Y-80962500D02*
X253738750Y-80962500D01*
X166687500Y-35313750D02*
X166687500Y-34663750D01*
X165567500Y-34663750D02*
X167807500Y-34663750D01*
X167807500Y-34663750D02*
X167807500Y-30423750D01*
X165567500Y-34063750D02*
X167807500Y-34063750D01*
X165567500Y-33943750D02*
X167807500Y-33943750D01*
X165567500Y-33823750D02*
X167807500Y-33823750D01*
X165567500Y-30423750D02*
X165567500Y-34663750D01*
X167807500Y-30423750D02*
X165567500Y-30423750D01*
X166687500Y-29773750D02*
X166687500Y-30423750D01*
X166687500Y-112307500D02*
X166687500Y-111657500D01*
X165567500Y-111657500D02*
X167807500Y-111657500D01*
X167807500Y-111657500D02*
X167807500Y-107417500D01*
X165567500Y-111057500D02*
X167807500Y-111057500D01*
X165567500Y-110937500D02*
X167807500Y-110937500D01*
X165567500Y-110817500D02*
X167807500Y-110817500D01*
X165567500Y-107417500D02*
X165567500Y-111657500D01*
X167807500Y-107417500D02*
X165567500Y-107417500D01*
X166687500Y-106767500D02*
X166687500Y-107417500D01*
X52387500Y-35472500D02*
X52387500Y-34822500D01*
X51267500Y-34822500D02*
X53507500Y-34822500D01*
X53507500Y-34822500D02*
X53507500Y-30582500D01*
X51267500Y-34222500D02*
X53507500Y-34222500D01*
X51267500Y-34102500D02*
X53507500Y-34102500D01*
X51267500Y-33982500D02*
X53507500Y-33982500D01*
X51267500Y-30582500D02*
X51267500Y-34822500D01*
X53507500Y-30582500D02*
X51267500Y-30582500D01*
X52387500Y-29932500D02*
X52387500Y-30582500D01*
X204787500Y-112307500D02*
X204787500Y-111657500D01*
X203667500Y-111657500D02*
X205907500Y-111657500D01*
X205907500Y-111657500D02*
X205907500Y-107417500D01*
X203667500Y-111057500D02*
X205907500Y-111057500D01*
X203667500Y-110937500D02*
X205907500Y-110937500D01*
X203667500Y-110817500D02*
X205907500Y-110817500D01*
X203667500Y-107417500D02*
X203667500Y-111657500D01*
X205907500Y-107417500D02*
X203667500Y-107417500D01*
X204787500Y-106767500D02*
X204787500Y-107417500D01*
X248690000Y-42862500D02*
X249340000Y-42862500D01*
X249340000Y-41742500D02*
X249340000Y-43982500D01*
X249340000Y-43982500D02*
X253580000Y-43982500D01*
X249940000Y-41742500D02*
X249940000Y-43982500D01*
X250060000Y-41742500D02*
X250060000Y-43982500D01*
X250180000Y-41742500D02*
X250180000Y-43982500D01*
X253580000Y-41742500D02*
X249340000Y-41742500D01*
X253580000Y-43982500D02*
X253580000Y-41742500D01*
X254230000Y-42862500D02*
X253580000Y-42862500D01*
X109537500Y-74207500D02*
X109537500Y-73557500D01*
X108417500Y-73557500D02*
X110657500Y-73557500D01*
X110657500Y-73557500D02*
X110657500Y-69317500D01*
X108417500Y-72957500D02*
X110657500Y-72957500D01*
X108417500Y-72837500D02*
X110657500Y-72837500D01*
X108417500Y-72717500D02*
X110657500Y-72717500D01*
X108417500Y-69317500D02*
X108417500Y-73557500D01*
X110657500Y-69317500D02*
X108417500Y-69317500D01*
X109537500Y-68667500D02*
X109537500Y-69317500D01*
X90487500Y-93257500D02*
X90487500Y-92607500D01*
X89367500Y-92607500D02*
X91607500Y-92607500D01*
X91607500Y-92607500D02*
X91607500Y-88367500D01*
X89367500Y-92007500D02*
X91607500Y-92007500D01*
X89367500Y-91887500D02*
X91607500Y-91887500D01*
X89367500Y-91767500D02*
X91607500Y-91767500D01*
X89367500Y-88367500D02*
X89367500Y-92607500D01*
X91607500Y-88367500D02*
X89367500Y-88367500D01*
X90487500Y-87717500D02*
X90487500Y-88367500D01*
X147637500Y-54363750D02*
X147637500Y-53713750D01*
X146517500Y-53713750D02*
X148757500Y-53713750D01*
X148757500Y-53713750D02*
X148757500Y-49473750D01*
X146517500Y-53113750D02*
X148757500Y-53113750D01*
X146517500Y-52993750D02*
X148757500Y-52993750D01*
X146517500Y-52873750D02*
X148757500Y-52873750D01*
X146517500Y-49473750D02*
X146517500Y-53713750D01*
X148757500Y-49473750D02*
X146517500Y-49473750D01*
X147637500Y-48823750D02*
X147637500Y-49473750D01*
X242887500Y-54363750D02*
X242887500Y-53713750D01*
X241767500Y-53713750D02*
X244007500Y-53713750D01*
X244007500Y-53713750D02*
X244007500Y-49473750D01*
X241767500Y-53113750D02*
X244007500Y-53113750D01*
X241767500Y-52993750D02*
X244007500Y-52993750D01*
X241767500Y-52873750D02*
X244007500Y-52873750D01*
X241767500Y-49473750D02*
X241767500Y-53713750D01*
X244007500Y-49473750D02*
X241767500Y-49473750D01*
X242887500Y-48823750D02*
X242887500Y-49473750D01*
X185737500Y-93257500D02*
X185737500Y-92607500D01*
X184617500Y-92607500D02*
X186857500Y-92607500D01*
X186857500Y-92607500D02*
X186857500Y-88367500D01*
X184617500Y-92007500D02*
X186857500Y-92007500D01*
X184617500Y-91887500D02*
X186857500Y-91887500D01*
X184617500Y-91767500D02*
X186857500Y-91767500D01*
X184617500Y-88367500D02*
X184617500Y-92607500D01*
X186857500Y-88367500D02*
X184617500Y-88367500D01*
X185737500Y-87717500D02*
X185737500Y-88367500D01*
X242887500Y-92463750D02*
X242887500Y-91813750D01*
X241767500Y-91813750D02*
X244007500Y-91813750D01*
X244007500Y-91813750D02*
X244007500Y-87573750D01*
X241767500Y-91213750D02*
X244007500Y-91213750D01*
X241767500Y-91093750D02*
X244007500Y-91093750D01*
X241767500Y-90973750D02*
X244007500Y-90973750D01*
X241767500Y-87573750D02*
X241767500Y-91813750D01*
X244007500Y-87573750D02*
X241767500Y-87573750D01*
X242887500Y-86923750D02*
X242887500Y-87573750D01*
D13*
X85534500Y-22306750D02*
X89852500Y-22306750D01*
X76390500Y-22306750D02*
X72072500Y-22306750D01*
X89852500Y-26624750D02*
X89852500Y-22306750D01*
X72072500Y-26624750D02*
X72072500Y-22306750D01*
X89852500Y-51008750D02*
X89852500Y-55326750D01*
X72072500Y-51008750D02*
X72072500Y-55326750D01*
X85534500Y-55326750D02*
X89852500Y-55326750D01*
X76390500Y-55326750D02*
X72072500Y-55326750D01*
D10*
X75117865Y-30835780D02*
X74617865Y-30835780D01*
X74617865Y-30735780D01*
X75117865Y-30735780D01*
X75117865Y-30835780D01*
G36*
X75117865Y-30835780D02*
G01*
X74617865Y-30835780D01*
X74617865Y-30735780D01*
X75117865Y-30735780D01*
X75117865Y-30835780D01*
G37*
X75117865Y-31035780D02*
X75017865Y-31035780D01*
X75017865Y-30735780D01*
X75117865Y-30735780D01*
X75117865Y-31035780D01*
G36*
X75117865Y-31035780D02*
G01*
X75017865Y-31035780D01*
X75017865Y-30735780D01*
X75117865Y-30735780D01*
X75117865Y-31035780D01*
G37*
X74717865Y-31535780D02*
X74617865Y-31535780D01*
X74617865Y-30735780D01*
X74717865Y-30735780D01*
X74717865Y-31535780D01*
G36*
X74717865Y-31535780D02*
G01*
X74617865Y-31535780D01*
X74617865Y-30735780D01*
X74717865Y-30735780D01*
X74717865Y-31535780D01*
G37*
X74917865Y-31235780D02*
X74817865Y-31235780D01*
X74817865Y-31135780D01*
X74917865Y-31135780D01*
X74917865Y-31235780D01*
G36*
X74917865Y-31235780D02*
G01*
X74817865Y-31235780D01*
X74817865Y-31135780D01*
X74917865Y-31135780D01*
X74917865Y-31235780D01*
G37*
X75117865Y-31535780D02*
X75017865Y-31535780D01*
X75017865Y-31335780D01*
X75117865Y-31335780D01*
X75117865Y-31535780D01*
G36*
X75117865Y-31535780D02*
G01*
X75017865Y-31535780D01*
X75017865Y-31335780D01*
X75117865Y-31335780D01*
X75117865Y-31535780D01*
G37*
D14*
X88582500Y-26116750D03*
D15*
X88582500Y-28656750D03*
X88582500Y-31196750D03*
X88582500Y-33736750D03*
X88582500Y-36276750D03*
X88582500Y-38816750D03*
X88582500Y-41356750D03*
X88582500Y-43896750D03*
X88582500Y-46436750D03*
X88582500Y-48976750D03*
X88582500Y-51516750D03*
X88582500Y-54056750D03*
X73342500Y-54056750D03*
X73342500Y-51516750D03*
X73342500Y-48976750D03*
X73342500Y-46436750D03*
X73342500Y-43896750D03*
X73342500Y-41356750D03*
X73342500Y-38816750D03*
X73342500Y-36276750D03*
X73342500Y-33736750D03*
X73342500Y-31196750D03*
X73342500Y-28656750D03*
X73342500Y-26116750D03*
%LPC*%
D16*
X242887500Y-42862500D03*
X242887500Y-100012500D03*
X147637500Y-61912500D03*
X147486914Y-100010649D03*
X52387500Y-100012500D03*
X52387500Y-42862500D03*
D17*
X57150000Y-42862500D03*
D18*
X64770000Y-42862500D03*
D19*
X209232500Y-90487500D03*
D20*
X214312500Y-90487500D03*
D19*
X219392500Y-90487500D03*
D17*
X242697000Y-36322000D03*
D18*
X242697000Y-28702000D03*
D19*
X56832500Y-90487500D03*
D20*
X61912500Y-90487500D03*
D19*
X66992500Y-90487500D03*
D21*
X46196250Y-42862500D03*
D22*
X43656250Y-42862500D03*
X41116250Y-42862500D03*
D17*
X242887500Y-75247500D03*
D18*
X242887500Y-67627500D03*
D19*
X152082500Y-33337500D03*
D20*
X157162500Y-33337500D03*
D19*
X162242500Y-33337500D03*
D17*
X204787500Y-75247500D03*
D18*
X204787500Y-67627500D03*
D17*
X242887500Y-113347500D03*
D18*
X242887500Y-105727500D03*
D19*
X247332500Y-90487500D03*
D20*
X252412500Y-90487500D03*
D19*
X257492500Y-90487500D03*
D17*
X109537500Y-55403750D03*
D18*
X109537500Y-47783750D03*
D19*
X152082500Y-52387500D03*
D20*
X157162500Y-52387500D03*
D19*
X162242500Y-52387500D03*
D17*
X166687500Y-94297500D03*
D18*
X166687500Y-86677500D03*
D17*
X147637500Y-94297500D03*
D18*
X147637500Y-86677500D03*
D19*
X94932500Y-52387500D03*
D20*
X100012500Y-52387500D03*
D19*
X105092500Y-52387500D03*
X133032500Y-109537500D03*
D20*
X138112500Y-109537500D03*
D19*
X143192500Y-109537500D03*
X133032500Y-90487500D03*
D20*
X138112500Y-90487500D03*
D19*
X143192500Y-90487500D03*
D17*
X109537500Y-36353750D03*
D18*
X109537500Y-28733750D03*
D19*
X152082500Y-90487500D03*
D20*
X157162500Y-90487500D03*
D19*
X162242500Y-90487500D03*
X171132500Y-52387500D03*
D20*
X176212500Y-52387500D03*
D19*
X181292500Y-52387500D03*
X113982500Y-52387500D03*
D20*
X119062500Y-52387500D03*
D19*
X124142500Y-52387500D03*
D17*
X128587500Y-94297500D03*
D18*
X128587500Y-86677500D03*
D19*
X171132500Y-90487500D03*
D20*
X176212500Y-90487500D03*
D19*
X181292500Y-90487500D03*
D17*
X128587500Y-113347500D03*
D18*
X128587500Y-105727500D03*
D17*
X185737500Y-113347500D03*
D18*
X185737500Y-105727500D03*
D19*
X56832500Y-71437500D03*
D20*
X61912500Y-71437500D03*
D19*
X66992500Y-71437500D03*
X190182500Y-52387500D03*
D20*
X195262500Y-52387500D03*
D19*
X200342500Y-52387500D03*
D17*
X223837500Y-36353750D03*
D18*
X223837500Y-28733750D03*
D17*
X247808750Y-100012500D03*
D18*
X255428750Y-100012500D03*
D17*
X71437500Y-113347500D03*
D18*
X71437500Y-105727500D03*
D19*
X171132500Y-33337500D03*
D20*
X176212500Y-33337500D03*
D19*
X181292500Y-33337500D03*
D17*
X204787500Y-94297500D03*
D18*
X204787500Y-86677500D03*
D19*
X113982500Y-33337500D03*
D20*
X119062500Y-33337500D03*
D19*
X124142500Y-33337500D03*
X190182500Y-90487500D03*
D20*
X195262500Y-90487500D03*
D19*
X200342500Y-90487500D03*
D17*
X71437500Y-94297500D03*
D18*
X71437500Y-86677500D03*
D17*
X185737500Y-75247500D03*
D18*
X185737500Y-67627500D03*
D17*
X147637500Y-36353750D03*
D18*
X147637500Y-28733750D03*
D17*
X204787500Y-36353750D03*
D18*
X204787500Y-28733750D03*
D17*
X62706250Y-61912500D03*
D18*
X70326250Y-61912500D03*
D19*
X75882500Y-71437500D03*
D20*
X80962500Y-71437500D03*
D19*
X86042500Y-71437500D03*
X228282500Y-71437500D03*
D20*
X233362500Y-71437500D03*
D19*
X238442500Y-71437500D03*
D17*
X228346000Y-98552000D03*
D18*
X235966000Y-98552000D03*
D19*
X152082500Y-109537500D03*
D20*
X157162500Y-109537500D03*
D19*
X162242500Y-109537500D03*
D17*
X52387500Y-75247500D03*
D18*
X52387500Y-67627500D03*
D17*
X223837500Y-94297500D03*
D18*
X223837500Y-86677500D03*
D19*
X228282500Y-109537500D03*
D20*
X233362500Y-109537500D03*
D19*
X238442500Y-109537500D03*
D17*
X247700800Y-61823600D03*
D18*
X255320800Y-61823600D03*
D19*
X133032500Y-33337500D03*
D20*
X138112500Y-33337500D03*
D19*
X143192500Y-33337500D03*
X228282500Y-33337500D03*
D20*
X233362500Y-33337500D03*
D19*
X238442500Y-33337500D03*
X209232500Y-33337500D03*
D20*
X214312500Y-33337500D03*
D19*
X219392500Y-33337500D03*
X56832500Y-33337500D03*
D20*
X61912500Y-33337500D03*
D19*
X66992500Y-33337500D03*
X75882500Y-109537500D03*
D20*
X80962500Y-109537500D03*
D19*
X86042500Y-109537500D03*
D17*
X128587500Y-36353750D03*
D18*
X128587500Y-28733750D03*
D17*
X109537500Y-113347500D03*
D18*
X109537500Y-105727500D03*
D19*
X75882500Y-90487500D03*
D20*
X80962500Y-90487500D03*
D19*
X86042500Y-90487500D03*
X113982500Y-71437500D03*
D20*
X119062500Y-71437500D03*
D19*
X124142500Y-71437500D03*
X56832500Y-52387500D03*
D20*
X61912500Y-52387500D03*
D19*
X66992500Y-52387500D03*
X209232500Y-109537500D03*
D20*
X214312500Y-109537500D03*
D19*
X219392500Y-109537500D03*
X37782500Y-90487500D03*
D20*
X42862500Y-90487500D03*
D19*
X47942500Y-90487500D03*
D17*
X223837500Y-55403750D03*
D18*
X223837500Y-47783750D03*
D17*
X52387500Y-55403750D03*
D18*
X52387500Y-47783750D03*
D19*
X247332500Y-33337500D03*
D20*
X252412500Y-33337500D03*
D19*
X257492500Y-33337500D03*
X37782500Y-33337500D03*
D20*
X42862500Y-33337500D03*
D19*
X47942500Y-33337500D03*
D17*
X52387500Y-113347500D03*
D18*
X52387500Y-105727500D03*
D17*
X185737500Y-55403750D03*
D18*
X185737500Y-47783750D03*
D19*
X113982500Y-90487500D03*
D20*
X119062500Y-90487500D03*
D19*
X124142500Y-90487500D03*
D17*
X166687500Y-75247500D03*
D18*
X166687500Y-67627500D03*
D17*
X86487000Y-61912500D03*
D18*
X94107000Y-61912500D03*
D19*
X228282500Y-90487500D03*
D20*
X233362500Y-90487500D03*
D19*
X238442500Y-90487500D03*
X209232500Y-71437500D03*
D20*
X214312500Y-71437500D03*
D19*
X219392500Y-71437500D03*
D17*
X147637500Y-75247500D03*
D18*
X147637500Y-67627500D03*
D17*
X71437500Y-75247500D03*
D18*
X71437500Y-67627500D03*
D17*
X90487500Y-113347500D03*
D18*
X90487500Y-105727500D03*
D17*
X204787500Y-55403750D03*
D18*
X204787500Y-47783750D03*
D17*
X147637500Y-113347500D03*
D18*
X147637500Y-105727500D03*
D17*
X75438000Y-61976000D03*
D18*
X83058000Y-61976000D03*
D19*
X247332500Y-71437500D03*
D20*
X252412500Y-71437500D03*
D19*
X257492500Y-71437500D03*
X190182500Y-33337500D03*
D20*
X195262500Y-33337500D03*
D19*
X200342500Y-33337500D03*
D17*
X52387500Y-94297500D03*
D18*
X52387500Y-86677500D03*
D17*
X185737500Y-36353750D03*
D18*
X185737500Y-28733750D03*
D19*
X247332500Y-52387500D03*
D20*
X252412500Y-52387500D03*
D19*
X257492500Y-52387500D03*
X37782500Y-71437500D03*
D20*
X42862500Y-71437500D03*
D19*
X47942500Y-71437500D03*
X94932500Y-33337500D03*
D20*
X100012500Y-33337500D03*
D19*
X105092500Y-33337500D03*
X152082500Y-71437500D03*
D20*
X157162500Y-71437500D03*
D19*
X162242500Y-71437500D03*
X56832500Y-109537500D03*
D20*
X61912500Y-109537500D03*
D19*
X66992500Y-109537500D03*
X37782500Y-109537500D03*
D20*
X42862500Y-109537500D03*
D19*
X47942500Y-109537500D03*
X133032500Y-71437500D03*
D20*
X138112500Y-71437500D03*
D19*
X143192500Y-71437500D03*
D17*
X128587500Y-75247500D03*
D18*
X128587500Y-67627500D03*
D19*
X190182500Y-71437500D03*
D20*
X195262500Y-71437500D03*
D19*
X200342500Y-71437500D03*
X133032500Y-52387500D03*
D20*
X138112500Y-52387500D03*
D19*
X143192500Y-52387500D03*
D17*
X128587500Y-55403750D03*
D18*
X128587500Y-47783750D03*
D19*
X247332500Y-109537500D03*
D20*
X252412500Y-109537500D03*
D19*
X257492500Y-109537500D03*
D17*
X166687500Y-55403750D03*
D18*
X166687500Y-47783750D03*
D17*
X223837500Y-113347500D03*
D18*
X223837500Y-105727500D03*
D17*
X223837500Y-75247500D03*
D18*
X223837500Y-67627500D03*
D17*
X109537500Y-94297500D03*
D18*
X109537500Y-86677500D03*
D17*
X90487500Y-75247500D03*
D18*
X90487500Y-67627500D03*
D19*
X94932500Y-90487500D03*
D20*
X100012500Y-90487500D03*
D19*
X105092500Y-90487500D03*
D17*
X247808750Y-80962500D03*
D18*
X255428750Y-80962500D03*
D19*
X113982500Y-109537500D03*
D20*
X119062500Y-109537500D03*
D19*
X124142500Y-109537500D03*
D17*
X166687500Y-36353750D03*
D18*
X166687500Y-28733750D03*
D17*
X166687500Y-113347500D03*
D18*
X166687500Y-105727500D03*
D17*
X52387500Y-36512500D03*
D18*
X52387500Y-28892500D03*
D17*
X204787500Y-113347500D03*
D18*
X204787500Y-105727500D03*
D17*
X247650000Y-42862500D03*
D18*
X255270000Y-42862500D03*
D17*
X109537500Y-75247500D03*
D18*
X109537500Y-67627500D03*
D17*
X90487500Y-94297500D03*
D18*
X90487500Y-86677500D03*
D17*
X147637500Y-55403750D03*
D18*
X147637500Y-47783750D03*
D19*
X94932500Y-71437500D03*
D20*
X100012500Y-71437500D03*
D19*
X105092500Y-71437500D03*
X171132500Y-109537500D03*
D20*
X176212500Y-109537500D03*
D19*
X181292500Y-109537500D03*
D17*
X242887500Y-55403750D03*
D18*
X242887500Y-47783750D03*
D17*
X185737500Y-94297500D03*
D18*
X185737500Y-86677500D03*
D19*
X228282500Y-52387500D03*
D20*
X233362500Y-52387500D03*
D19*
X238442500Y-52387500D03*
D17*
X242887500Y-93503750D03*
D18*
X242887500Y-85883750D03*
D19*
X37782500Y-52387500D03*
D20*
X42862500Y-52387500D03*
D19*
X47942500Y-52387500D03*
X190182500Y-109537500D03*
D20*
X195262500Y-109537500D03*
D19*
X200342500Y-109537500D03*
X75882500Y-52387500D03*
D20*
X80962500Y-52387500D03*
D19*
X86042500Y-52387500D03*
X94932500Y-109537500D03*
D20*
X100012500Y-109537500D03*
D19*
X105092500Y-109537500D03*
X75882500Y-33337500D03*
D20*
X80962500Y-33337500D03*
D19*
X86042500Y-33337500D03*
X209232500Y-52387500D03*
D20*
X214312500Y-52387500D03*
D19*
X219392500Y-52387500D03*
X171132500Y-71437500D03*
D20*
X176212500Y-71437500D03*
D19*
X181292500Y-71437500D03*
D23*
X54637500Y-58662500D03*
X50137500Y-65162500D03*
X50137500Y-58662500D03*
X54637500Y-65162500D03*
D14*
X88582500Y-26116750D03*
D15*
X88582500Y-28656750D03*
X88582500Y-31196750D03*
X88582500Y-33736750D03*
X88582500Y-36276750D03*
X88582500Y-38816750D03*
X88582500Y-41356750D03*
X88582500Y-43896750D03*
X88582500Y-46436750D03*
X88582500Y-48976750D03*
X88582500Y-51516750D03*
X88582500Y-54056750D03*
X73342500Y-54056750D03*
X73342500Y-51516750D03*
X73342500Y-48976750D03*
X73342500Y-46436750D03*
X73342500Y-43896750D03*
X73342500Y-41356750D03*
X73342500Y-38816750D03*
X73342500Y-36276750D03*
X73342500Y-33736750D03*
X73342500Y-31196750D03*
X73342500Y-28656750D03*
X73342500Y-26116750D03*
%LPD*%
M02*
