M48
; DRILL file {KiCad (6.0.9)} date Tue 17 Jan 2023 20:01:42 CET
; FORMAT={-:-/ absolute / metric / decimal}
; #@! TF.CreationDate,2023-01-17T20:01:42+01:00
; #@! TF.GenerationSoftware,Kicad,Pcbnew,(6.0.9)
; #@! TF.FileFunction,Plated,1,2,PTH
FMAT,2
METRIC
; #@! TA.AperFunction,Plated,PTH,ViaDrill
T1C0.400
; #@! TA.AperFunction,Plated,PTH,ComponentDrill
T2C0.800
; #@! TA.AperFunction,Plated,PTH,ComponentDrill
T3C1.000
; #@! TA.AperFunction,Plated,PTH,ComponentDrill
T4C1.092
; #@! TA.AperFunction,Plated,PTH,ComponentDrill
T5C1.470
; #@! TA.AperFunction,Plated,PTH,ComponentDrill
T6C2.200
%
G90
G05
T1
X68.979Y-27.858
T2
X52.387Y-28.892
X52.387Y-36.512
X52.387Y-47.784
X52.387Y-55.404
X52.387Y-67.627
X52.387Y-75.248
X52.387Y-86.677
X52.387Y-94.297
X52.387Y-105.727
X52.387Y-113.347
X57.15Y-42.862
X62.706Y-61.912
X64.77Y-42.862
X70.326Y-61.912
X71.438Y-67.627
X71.438Y-75.248
X71.438Y-86.677
X71.438Y-94.297
X71.438Y-105.727
X71.438Y-113.347
X74.612Y-61.912
X82.233Y-61.912
X86.487Y-61.912
X90.487Y-67.627
X90.487Y-75.248
X90.487Y-86.677
X90.487Y-94.297
X90.487Y-105.727
X90.487Y-113.347
X94.107Y-61.912
X109.537Y-28.734
X109.537Y-36.354
X109.537Y-47.784
X109.537Y-55.404
X109.537Y-67.627
X109.537Y-75.248
X109.537Y-86.677
X109.537Y-94.297
X109.537Y-105.727
X109.537Y-113.347
X128.588Y-28.734
X128.588Y-36.354
X128.588Y-47.784
X128.588Y-55.404
X128.588Y-67.627
X128.588Y-75.248
X128.588Y-86.677
X128.588Y-94.297
X128.588Y-105.727
X128.588Y-113.347
X147.637Y-28.734
X147.637Y-36.354
X147.637Y-47.784
X147.637Y-55.404
X147.637Y-67.627
X147.637Y-75.248
X147.637Y-86.677
X147.637Y-94.297
X147.637Y-105.727
X147.637Y-113.347
X166.688Y-28.734
X166.688Y-36.354
X166.688Y-47.784
X166.688Y-55.404
X166.688Y-67.627
X166.688Y-75.248
X166.688Y-86.677
X166.688Y-94.297
X166.688Y-105.727
X166.688Y-113.347
X185.737Y-28.734
X185.737Y-36.354
X185.737Y-47.784
X185.737Y-55.404
X185.737Y-67.627
X185.737Y-75.248
X185.737Y-86.677
X185.737Y-94.297
X185.737Y-105.727
X185.737Y-113.347
X204.787Y-28.734
X204.787Y-36.354
X204.787Y-47.784
X204.787Y-55.404
X204.787Y-67.627
X204.787Y-75.248
X204.787Y-86.677
X204.787Y-94.297
X204.787Y-105.727
X204.787Y-113.347
X223.837Y-28.734
X223.837Y-36.354
X223.837Y-47.784
X223.837Y-55.404
X223.837Y-67.627
X223.837Y-75.248
X223.837Y-86.677
X223.837Y-94.297
X223.837Y-105.727
X223.837Y-113.347
X228.346Y-98.552
X235.966Y-98.552
X242.697Y-28.702
X242.697Y-36.322
X242.887Y-47.784
X242.887Y-55.404
X242.887Y-67.627
X242.887Y-75.248
X242.887Y-85.884
X242.887Y-93.504
X242.887Y-105.727
X242.887Y-113.347
X247.65Y-42.862
X247.809Y-80.962
X247.809Y-100.012
X248.444Y-61.912
X255.27Y-42.862
X255.429Y-80.962
X255.429Y-100.012
X256.064Y-61.912
T3
X41.116Y-42.862
X43.656Y-42.862
X46.196Y-42.862
X50.137Y-58.662
X50.137Y-65.162
X54.637Y-58.662
X54.637Y-65.162
T4
X73.343Y-26.117
X73.343Y-28.657
X73.343Y-31.197
X73.343Y-33.737
X73.343Y-36.277
X73.343Y-38.817
X73.343Y-41.357
X73.343Y-43.897
X73.343Y-46.437
X73.343Y-48.977
X73.343Y-51.517
X73.343Y-54.057
X88.582Y-26.117
X88.582Y-28.657
X88.582Y-31.197
X88.582Y-33.737
X88.582Y-36.277
X88.582Y-38.817
X88.582Y-41.357
X88.582Y-43.897
X88.582Y-46.437
X88.582Y-48.977
X88.582Y-51.517
X88.582Y-54.057
T5
X39.052Y-30.797
X39.052Y-49.847
X39.052Y-68.897
X39.052Y-87.947
X39.052Y-106.997
X40.362Y-29.337
X40.362Y-48.387
X40.362Y-67.438
X40.362Y-86.487
X40.362Y-105.537
X45.362Y-28.837
X45.362Y-47.887
X45.362Y-66.938
X45.362Y-85.987
X45.362Y-105.037
X45.402Y-28.258
X45.402Y-47.307
X45.402Y-66.358
X45.402Y-85.407
X45.402Y-104.457
X58.102Y-30.797
X58.102Y-49.847
X58.102Y-68.897
X58.102Y-87.947
X58.102Y-106.997
X59.412Y-29.337
X59.412Y-48.387
X59.412Y-67.438
X59.412Y-86.487
X59.412Y-105.537
X64.412Y-28.837
X64.412Y-47.887
X64.412Y-66.938
X64.412Y-85.987
X64.412Y-105.037
X64.453Y-28.258
X64.453Y-47.307
X64.453Y-66.358
X64.453Y-85.407
X64.453Y-104.457
X77.153Y-30.797
X77.153Y-49.847
X77.153Y-68.897
X77.153Y-87.947
X77.153Y-106.997
X78.462Y-29.337
X78.462Y-48.387
X78.462Y-67.438
X78.462Y-86.487
X78.462Y-105.537
X83.462Y-28.837
X83.462Y-47.887
X83.462Y-66.938
X83.462Y-85.987
X83.462Y-105.037
X83.502Y-28.258
X83.502Y-47.307
X83.502Y-66.358
X83.502Y-85.407
X83.502Y-104.457
X96.203Y-30.797
X96.203Y-49.847
X96.203Y-68.897
X96.203Y-87.947
X96.203Y-106.997
X97.512Y-29.337
X97.512Y-48.387
X97.512Y-67.438
X97.512Y-86.487
X97.512Y-105.537
X102.512Y-28.837
X102.512Y-47.887
X102.512Y-66.938
X102.512Y-85.987
X102.512Y-105.037
X102.552Y-28.258
X102.552Y-47.307
X102.552Y-66.358
X102.552Y-85.407
X102.552Y-104.457
X115.252Y-30.797
X115.252Y-49.847
X115.252Y-68.897
X115.252Y-87.947
X115.252Y-106.997
X116.562Y-29.337
X116.562Y-48.387
X116.562Y-67.438
X116.562Y-86.487
X116.562Y-105.537
X121.562Y-28.837
X121.562Y-47.887
X121.562Y-66.938
X121.562Y-85.987
X121.562Y-105.037
X121.602Y-28.258
X121.602Y-47.307
X121.602Y-66.358
X121.602Y-85.407
X121.602Y-104.457
X134.302Y-30.797
X134.302Y-49.847
X134.302Y-68.897
X134.302Y-87.947
X134.302Y-106.997
X135.612Y-29.337
X135.612Y-48.387
X135.612Y-67.438
X135.612Y-86.487
X135.612Y-105.537
X140.612Y-28.837
X140.612Y-47.887
X140.612Y-66.938
X140.612Y-85.987
X140.612Y-105.037
X140.653Y-28.258
X140.653Y-47.307
X140.653Y-66.358
X140.653Y-85.407
X140.653Y-104.457
X153.352Y-30.797
X153.352Y-49.847
X153.352Y-68.897
X153.352Y-87.947
X153.352Y-106.997
X154.662Y-29.337
X154.662Y-48.387
X154.662Y-67.438
X154.662Y-86.487
X154.662Y-105.537
X159.662Y-28.837
X159.662Y-47.887
X159.662Y-66.938
X159.662Y-85.987
X159.662Y-105.037
X159.702Y-28.258
X159.702Y-47.307
X159.702Y-66.358
X159.702Y-85.407
X159.702Y-104.457
X172.403Y-30.797
X172.403Y-49.847
X172.403Y-68.897
X172.403Y-87.947
X172.403Y-106.997
X173.713Y-29.337
X173.713Y-48.387
X173.713Y-67.438
X173.713Y-86.487
X173.713Y-105.537
X178.713Y-28.837
X178.713Y-47.887
X178.713Y-66.938
X178.713Y-85.987
X178.713Y-105.037
X178.752Y-28.258
X178.752Y-47.307
X178.752Y-66.358
X178.752Y-85.407
X178.752Y-104.457
X191.452Y-30.797
X191.452Y-49.847
X191.452Y-68.897
X191.452Y-87.947
X191.452Y-106.997
X192.762Y-29.337
X192.762Y-48.387
X192.762Y-67.438
X192.762Y-86.487
X192.762Y-105.537
X197.762Y-28.837
X197.762Y-47.887
X197.762Y-66.938
X197.762Y-85.987
X197.762Y-105.037
X197.802Y-28.258
X197.802Y-47.307
X197.802Y-66.358
X197.802Y-85.407
X197.802Y-104.457
X210.502Y-30.797
X210.502Y-49.847
X210.502Y-68.897
X210.502Y-87.947
X210.502Y-106.997
X211.812Y-29.337
X211.812Y-48.387
X211.812Y-67.438
X211.812Y-86.487
X211.812Y-105.537
X216.812Y-28.837
X216.812Y-47.887
X216.812Y-66.938
X216.812Y-85.987
X216.812Y-105.037
X216.852Y-28.258
X216.852Y-47.307
X216.852Y-66.358
X216.852Y-85.407
X216.852Y-104.457
X229.552Y-30.797
X229.552Y-49.847
X229.552Y-68.897
X229.552Y-87.947
X229.552Y-106.997
X230.862Y-29.337
X230.862Y-48.387
X230.862Y-67.438
X230.862Y-86.487
X230.862Y-105.537
X235.862Y-28.837
X235.862Y-47.887
X235.862Y-66.938
X235.862Y-85.987
X235.862Y-105.037
X235.903Y-28.258
X235.903Y-47.307
X235.903Y-66.358
X235.903Y-85.407
X235.903Y-104.457
X248.602Y-30.797
X248.602Y-49.847
X248.602Y-68.897
X248.602Y-87.947
X248.602Y-106.997
X249.912Y-29.337
X249.912Y-48.387
X249.912Y-67.438
X249.912Y-86.487
X249.912Y-105.537
X254.912Y-28.837
X254.912Y-47.887
X254.912Y-66.938
X254.912Y-85.987
X254.912Y-105.037
X254.952Y-28.258
X254.952Y-47.307
X254.952Y-66.358
X254.952Y-85.407
X254.952Y-104.457
T6
X52.387Y-42.862
X52.387Y-100.012
X147.487Y-100.011
X147.637Y-61.912
X242.887Y-42.862
X242.887Y-100.012
T0
M30
